<svg width="80" height="80" viewBox="0 0 80 80" fill="none" xmlns="http://www.w3.org/2000/svg">
<rect width="80" height="80" fill="white"/>
<path d="M57.0778 65.5191C57.1182 66.1518 57.1196 66.7665 57.2033 67.3685C57.5168 69.6138 58.0464 71.8047 58.9788 73.8842C59.0736 74.0946 59.1531 74.312 59.2241 74.5308C59.4471 75.2082 59.376 75.8075 58.7447 76.2479C58.4074 76.4834 58.3252 76.8221 58.3154 77.2137C58.2862 78.4513 58.0674 78.7134 56.859 78.9949C55.9503 79.2067 55.0332 79.2513 54.112 79.1008C53.0611 78.9294 52.7155 78.4764 52.8549 77.4381C52.9246 76.9127 53.0291 76.3928 53.1127 75.8688C53.305 74.673 53.0862 73.5747 52.3267 72.6075C52.2709 72.5364 52.2221 72.4528 52.112 72.45C52.027 72.5545 52.0828 72.6619 52.1106 72.7664C52.3085 73.48 52.2737 74.1322 51.6758 74.6702C51.4639 74.8597 51.3692 75.126 51.3329 75.4089C51.3037 75.6374 51.2646 75.8646 51.2382 76.0932C51.1225 77.0953 50.7852 77.413 49.7706 77.4576C48.9385 77.4939 48.1093 77.4576 47.2926 77.282C46.3853 77.0869 46.2319 76.8597 46.3699 75.9552C46.3894 75.8298 46.4563 75.6918 46.3156 75.5566C45.7079 76.0723 45.3455 76.7204 45.3023 77.512C45.2494 78.4736 44.7128 78.9545 43.8292 79.1691C42.4201 79.5106 41.0376 79.4339 39.6815 78.9336C39.4251 78.8388 39.177 78.7022 38.9498 78.5489C38.3421 78.1364 38.1554 77.6932 38.4202 76.9991C39.2968 74.7037 39.0042 72.418 38.4258 70.1309C38.2097 69.2793 37.8934 68.464 37.5352 67.6626C37.4111 67.3853 37.255 67.2347 36.9261 67.2027C36.1415 67.126 35.4307 66.7734 34.7241 66.4961C34.515 66.6438 34.6014 66.8125 34.6167 66.9574C34.8383 68.9504 34.9749 70.9532 35.4126 72.9169C35.5673 73.6152 35.4697 74.2465 34.8258 74.6995C34.5206 74.9141 34.4147 75.2458 34.4161 75.6096C34.4161 75.7712 34.4314 75.9315 34.4425 76.0932C34.5178 77.2221 34.3394 77.5245 33.3011 77.9287C31.8572 78.4904 30.384 78.5684 28.8928 78.1364C28.6726 78.0723 28.4579 77.9831 28.2545 77.8757C27.7945 77.6346 27.5952 77.2486 27.683 76.7287C27.7067 76.5935 27.7388 76.4569 27.782 76.3273C28.5987 73.8228 28.628 71.2486 28.4551 68.6577C28.267 65.8466 27.7764 63.0759 27.2998 60.3038C27.2649 60.1003 27.212 59.8982 27.1437 59.7045C26.4566 57.7505 26.1304 55.7338 26.0524 53.6697C25.9423 50.7569 26.1499 47.8635 26.5179 44.9758C27.0991 40.4141 28.221 35.9668 29.2746 31.5027C29.5868 30.1829 29.8753 28.8575 30.182 27.5014C29.69 27.3565 29.1506 27.468 28.7562 27.1864C28.1625 26.7641 27.5994 26.87 26.9499 27.0261C24.2336 27.6826 21.6733 27.2812 19.3667 25.6631C16.9821 23.9906 15.9647 21.6171 16.0009 18.7545C16.0107 17.967 16.1487 17.1949 16.3926 16.4437C17.3347 13.535 19.7249 11.6869 22.8664 11.4138C23.9033 11.3232 24.936 11.2897 25.9743 11.3929C26.5262 11.4472 26.5221 11.4194 26.6071 10.8925C26.6614 10.5539 26.7409 10.2194 26.8231 9.81798C26.4398 9.89742 26.0942 9.98662 25.743 10.041C23.6914 10.3601 21.8824 9.50021 20.8274 7.71069C20.497 7.15041 20.2518 6.55251 20.1291 5.91419C19.8922 4.67797 20.5542 3.99644 21.8002 4.16926C22.3758 4.2501 22.9207 4.43267 23.4559 4.65009C24.5514 5.09469 25.5646 5.68423 26.5151 6.38666C26.9248 6.68909 27.2719 7.04867 27.6189 7.56156C27.9715 6.49955 27.9562 5.54068 27.7262 4.57483C27.6677 4.33093 27.5241 4.21804 27.2398 4.18599C26.5458 4.10515 26.3395 3.73024 26.5653 3.07799C26.9653 1.92539 28.7618 0.928881 29.9576 1.19647C30.8008 1.38463 31.067 2.16371 30.5387 2.90238C30.1178 3.49052 30.1178 3.49052 30.214 4.21665C30.4008 4.31142 30.5109 4.14836 30.6391 4.07588C31.8781 3.37485 33.1157 3.32746 34.3951 3.99784C35.0014 4.3156 35.6258 4.59853 36.2307 5.06821C36.2948 4.72814 36.3394 4.46473 36.3965 4.20271C36.4815 3.80829 36.4035 3.54627 36.0188 3.29122C35.2676 2.79228 35.3178 1.92678 36.062 1.40135C36.3296 1.2132 36.6293 1.08776 36.954 1.04735C38.1763 0.896826 39.3177 1.07661 40.2097 2.00343C40.9637 2.7867 40.7128 3.73303 39.6648 4.01874C39.3122 4.11491 39.2202 4.26961 39.1895 4.57205C39.1087 5.37343 39.2787 6.12325 39.6048 6.83822C39.8822 6.82986 39.9839 6.61941 40.1428 6.49955C41.9393 5.14765 43.7929 3.91003 46.0549 3.46404C46.5581 3.36509 47.064 3.34558 47.5699 3.39575C48.6152 3.49749 49.1197 4.13303 49.018 5.18528C48.9803 5.58109 48.8591 5.956 48.6932 6.31C47.7427 8.32113 46.2264 9.67721 44.0466 10.2249C43.5365 10.3532 43.0013 10.3922 42.4759 10.4549C42.179 10.4911 42.0926 10.5915 42.1818 10.9065C43.0808 14.0549 42.9275 17.2493 42.5623 20.4492C42.0689 24.76 41.1574 28.9982 40.3672 33.2588C39.917 35.6853 39.5714 38.1299 39.6007 40.6079C39.6132 41.6267 39.7331 42.6315 40.0076 43.6155C40.5735 45.642 41.8069 47.0608 43.8027 47.7883C44.6919 48.113 45.6048 48.3541 46.5246 48.5715C46.749 48.6245 46.9678 48.6956 47.1922 48.7485C51.8361 49.8356 54.6625 52.8084 56.0367 57.2808C56.2123 57.8523 56.374 58.4348 56.4715 59.0244C56.866 61.4007 57.928 63.4745 59.3092 65.4076C59.6172 65.8382 59.9767 66.2313 60.3084 66.6452C60.452 66.8236 60.6025 66.8891 60.8464 66.8222C61.6297 66.6104 62.2987 66.9198 62.9175 67.356C64.7307 68.6312 65.2394 71.5427 63.9781 73.3713C63.9391 73.4284 63.9028 73.4883 63.8568 73.5385C63.6743 73.7406 63.5237 74.0375 63.2018 73.9706C62.8701 73.9023 62.9509 73.5706 62.9189 73.335C62.8617 72.9169 62.6429 72.6061 62.3224 72.3594C62.0478 72.149 61.7663 71.9483 61.4806 71.7532C60.6457 71.1803 60.2137 70.3748 60.0994 69.3839C60.0841 69.2459 60.0673 69.1093 60.0562 68.9713C59.9907 68.1476 59.7189 67.4856 58.905 67.0773C58.3099 66.779 57.8374 66.2773 57.4276 65.7393C57.3607 65.6487 57.3078 65.5386 57.0778 65.5191ZM53.7357 77.1998C54.013 77.3155 54.296 77.2569 54.5663 77.2974C55.1433 77.3838 55.7287 77.4939 56.1468 77.9189C56.5524 78.3329 56.9203 78.0235 57.2938 77.9468C57.6465 77.8743 57.6158 77.5482 57.6283 77.2709C57.6576 76.6604 57.7524 76.0751 58.2583 75.6458C58.4799 75.4576 58.4994 75.2054 58.4227 74.9489C58.3503 74.7064 58.2597 74.4681 58.1621 74.2354C57.5782 72.8486 57.1364 71.4187 56.8729 69.9385C56.6263 68.556 56.4186 67.1651 56.1844 65.7797C56.098 65.2696 56.0883 65.2849 55.5754 65.3421C54.6332 65.4466 53.6911 65.4759 52.7517 65.278C52.0758 65.1358 51.6646 64.7456 51.4514 64.0877C50.9761 62.6202 51.1727 61.8271 52.3155 60.8125C52.4186 60.7205 52.5287 60.6369 52.6319 60.5435C53.443 59.8021 54.3489 59.4829 55.4263 59.9094C55.4597 59.9233 55.5099 59.8969 55.6033 59.8801C55.5043 58.8028 55.2228 57.77 54.8618 56.7512C54.7615 56.4669 54.565 56.5073 54.3601 56.5659C53.7148 56.7512 53.1629 56.5352 52.7002 56.1185C51.9949 55.483 51.3901 54.7568 50.9051 53.9345C50.6333 53.4732 50.565 52.9757 50.6821 52.4656C50.7476 52.1799 50.8925 51.9123 51.0096 51.6126C50.8507 51.4203 50.6207 51.3088 50.4047 51.1834C49.5225 50.6733 48.5873 50.2858 47.6075 50.0071C47.1114 49.8663 47.1225 49.8705 46.9539 50.3583C46.5595 51.4928 45.9044 52.46 45.0083 53.253C44.2654 53.9109 43.4194 54.0502 42.5024 53.6335C41.616 53.2307 40.7825 52.7374 40.0522 52.0921C39.3526 51.4746 39.3136 51.1262 39.8585 50.3764C40.3616 49.6851 40.8104 48.9618 41.2564 48.2329C41.4501 47.9151 41.4209 47.7256 41.1268 47.4872C40.2892 46.8043 39.6954 45.9319 39.2662 44.9423C39.209 44.8099 39.2174 44.6036 38.9693 44.5897C38.7184 45.1235 38.4564 45.6629 38.0745 46.1298C37.308 47.0677 36.5958 47.1151 35.7498 46.2636C35.1268 45.6364 34.6613 44.8935 34.2321 44.1256C33.4753 42.7709 33.6746 41.4093 34.2418 40.0643C34.476 39.5068 34.9457 39.2434 35.5645 39.2323C36.2279 39.2197 36.8383 39.4079 37.4418 39.6462C37.7777 39.7786 38.108 39.9277 38.4927 40.0922C38.54 39.6002 38.5805 39.1668 38.6251 38.7333C38.6474 38.5145 38.6237 38.3459 38.3881 38.2218C37.9895 38.0114 37.839 37.6309 37.7721 37.1975C37.6049 36.1299 37.6941 35.0916 38.0104 34.056C38.2083 33.4066 38.5359 32.8728 39.1198 32.5313C39.3846 32.3766 39.5254 32.1815 39.5798 31.8902C39.7386 31.0289 39.8878 30.1648 40.0815 29.3104C40.1554 28.9871 40.062 28.8631 39.7763 28.7488C38.9024 28.4017 38.1958 27.808 37.5463 27.146C37.138 26.7307 36.9136 26.2262 37.0056 25.638C37.1672 24.6094 37.439 23.6088 37.8627 22.6555C38.2139 21.8624 38.8383 21.3844 39.6662 21.1712C40.1358 21.0499 40.6195 20.9719 41.1031 20.9872C41.4724 20.9997 41.5783 20.8339 41.6132 20.5105C41.701 19.6618 41.8041 18.8158 41.9073 17.9684C41.9351 17.7384 41.8654 17.6214 41.6146 17.6311C41.2926 17.6423 40.9665 17.6562 40.6459 17.6311C39.3972 17.5336 38.8285 16.3642 39.5366 15.3301C40.0285 14.6096 40.6682 14.0354 41.5226 13.7928C41.917 13.6813 41.9895 13.5016 41.8961 13.1517C41.6968 12.3936 41.51 11.634 41.3177 10.8744C41.2146 10.4688 41.1477 10.0452 40.6933 9.81798C40.9554 9.68139 41.1672 9.71484 41.3721 9.70509C42.2013 9.66606 43.0389 9.69254 43.8487 9.47931C46.0494 8.89952 47.5211 7.52114 48.2096 5.35252C48.4675 4.5386 48.1776 4.17205 47.3399 4.10515C47.1128 4.08703 46.8786 4.10515 46.6501 4.13442C46.0313 4.21386 45.4278 4.36438 44.8438 4.58738C43.1003 5.25357 41.5268 6.19154 40.1888 7.50581C39.786 7.90162 39.5379 7.88629 39.1742 7.45424C39.1157 7.38456 39.0613 7.30651 39.0237 7.22428C38.6153 6.34345 38.409 5.4459 38.7268 4.48006C38.8871 3.99226 38.9986 3.54906 39.669 3.48495C40.1372 3.44035 40.2446 2.99297 39.9728 2.58322C39.8306 2.36859 39.6355 2.20413 39.4125 2.0773C38.6543 1.64525 37.8432 1.55326 37.0042 1.74699C36.6906 1.81946 36.3505 1.95047 36.2948 2.3212C36.2362 2.71005 36.5721 2.86893 36.8425 3.04036C36.9582 3.11283 37.0906 3.16021 37.2174 3.21736C37.3554 3.27868 37.5394 3.28007 37.5672 3.46126C37.4334 3.77345 37.0739 3.54488 36.9094 3.75812C37.1491 5.34695 36.522 6.60129 35.6244 6.34206C35.6119 6.21244 35.7122 6.13579 35.7721 6.04102C36.0411 5.62012 36.0369 5.62569 35.6356 5.28981C35.184 4.91211 34.6488 4.69887 34.1108 4.4926C32.4802 3.86822 31.0363 4.13442 29.8084 5.41106C29.7276 5.49468 29.6719 5.68423 29.4753 5.53789C29.4823 5.47796 29.4698 5.39991 29.5004 5.34974C29.7165 5.0027 29.7415 4.671 29.6231 4.25567C29.4823 3.75672 29.4698 3.21318 29.9185 2.79367C29.9994 2.71841 30.0523 2.60552 30.0983 2.50099C30.2628 2.13166 30.1443 1.87242 29.7638 1.75396C28.9067 1.48776 27.3625 2.30029 27.074 3.16858C26.9625 3.50307 27.0489 3.6285 27.4099 3.66753C27.7067 3.69958 28.005 3.58808 28.3213 3.68425C28.1917 4.06055 28.3562 4.4048 28.4356 4.75183C28.706 5.93091 28.5583 7.09606 28.2015 8.20824C27.9004 9.149 27.5771 10.0884 27.2356 11.018C27.0684 11.4737 27.0865 11.496 27.605 11.549C27.9269 11.5824 28.2489 11.6075 28.5569 11.7134C28.6726 11.7524 28.752 11.8389 28.7576 11.9657C28.7632 12.0939 28.6865 12.1789 28.5764 12.2333C28.3646 12.3406 28.1346 12.3629 27.9018 12.3587C27.1869 12.3476 26.4719 12.3392 25.7569 12.3127C24.5555 12.2695 23.3569 12.3058 22.1723 12.519C20.6239 12.7991 19.2901 13.4737 18.2922 14.7252C16.1166 17.4569 16.3744 22.1788 19.5479 24.4938C20.8915 25.4735 22.3897 26.0352 24.0454 26.0756C27.4294 26.1593 30.313 24.9746 32.6697 22.5342C32.8941 22.3015 33.1157 22.0673 33.3401 21.8346C33.5255 21.6436 33.7638 21.5154 33.6774 21.1503C33.6175 20.8966 33.8655 20.774 34.0927 20.8799C34.4816 21.0611 34.816 21.3189 34.9833 21.9238C34.3742 21.5684 34.2154 21.9321 34.023 22.3029C33.7889 22.7558 33.4474 23.1363 33.1004 23.5084C32.0941 24.5816 30.9164 25.4164 29.6036 26.0728C29.4447 26.1523 29.1938 26.1593 29.159 26.4324C30.6879 26.8199 31.8084 25.8958 33.014 25.2561C33.0446 25.3844 33.0711 25.4317 33.06 25.468C33.0405 25.5335 33.0056 25.5962 32.9666 25.6519C32.5429 26.2415 32.0635 26.785 31.3499 27.0052C30.8161 27.1697 30.6544 27.4972 30.6265 28.0157C30.5778 28.9146 30.3924 29.7968 30.2405 30.6832C29.821 33.1153 29.2259 35.5097 28.7241 37.925C28.6949 38.0671 28.5917 38.2288 28.7576 38.3515C29.0308 38.2706 29.2914 38.1675 29.5604 38.1201C30.7645 37.9082 31.4112 38.3863 31.5645 39.6044C31.6244 40.0838 31.6649 40.5688 31.6802 41.0525C31.7206 42.3012 31.2746 43.288 30.1541 43.9458C29.4182 44.3779 28.7088 44.8587 27.9409 45.228C27.5339 45.4245 27.382 45.6921 27.3346 46.1256C27.1451 47.8691 26.9862 49.614 26.9583 51.3687C26.9374 52.6147 26.9611 53.8593 27.0419 55.1039C27.0628 55.4202 27.1311 55.6014 27.5409 55.5401C28.7241 55.3631 29.5813 55.9526 30.2628 56.8404C30.5527 57.2181 30.6419 57.6808 30.5541 58.1575C30.4537 58.701 30.3464 59.2446 30.221 59.7826C29.9924 60.7679 29.782 61.2655 28.5625 61.2181C28.5165 61.2167 28.4705 61.2237 28.4245 61.2292C28.2781 61.2474 28.2322 61.3421 28.2628 61.4717C28.4579 62.3247 28.3827 63.2139 28.6252 64.0627C28.6963 64.3107 28.7604 64.478 29.0391 64.5226C29.6802 64.6243 30.0259 65.0717 30.2614 65.6278C30.4788 66.1407 30.5931 66.6842 30.7032 67.225C30.9137 68.2591 30.7311 68.6661 29.7708 69.0981C29.4015 69.2654 29.3206 69.4661 29.3374 69.8326C29.3945 71.1009 29.4294 72.3692 29.2356 73.6305C29.1422 74.2368 29.0377 74.8416 28.936 75.466C29.0447 75.4813 29.1116 75.5078 29.1715 75.4953C30.5011 75.2305 31.6091 75.7336 32.66 76.4709C32.8872 76.6298 33.0474 77.0102 33.407 76.8542C33.8363 76.6674 33.6523 76.2535 33.6551 75.9329C33.6593 75.3935 33.6495 74.8207 34.0161 74.4179C34.5289 73.8549 34.5624 73.2361 34.4802 72.5532C34.4384 72.2103 34.4133 71.8633 34.4021 71.519C34.3505 69.9065 34.1178 68.2995 34.1889 66.6828C34.2042 66.3372 34.0997 66.1407 33.7986 65.9679C33.0182 65.5205 32.2628 65.0285 31.6384 64.3679C31.5408 64.2647 31.3652 64.1588 31.5464 63.9303C33.1561 64.9072 34.8119 65.7881 36.731 66.2201C36.678 65.8299 36.4383 65.5929 36.3338 65.3003C36.2613 65.0982 36.0119 64.8501 36.2613 64.6829C36.508 64.517 36.6613 64.8208 36.7882 64.9881C37.4697 65.8912 38.1066 66.8278 38.5568 67.8689C39.7094 70.5281 40.2585 73.2695 39.6062 76.1601C39.5812 76.2688 39.5421 76.3831 39.655 76.5364C40.7003 76.4946 41.7107 76.7538 42.6487 77.2904C42.9693 77.4744 43.3065 77.65 43.4557 78.0151C43.5379 78.2172 43.6508 78.2144 43.8334 78.1754C44.2947 78.0764 44.4675 77.7545 44.5288 77.3378C44.6459 76.5447 44.926 75.8256 45.4487 75.2082C45.6884 74.9253 45.7149 74.5824 45.7065 74.2284C45.68 73.119 45.5128 72.0249 45.3414 70.9309C45.0166 68.8724 44.3504 66.9058 43.7288 64.9282C43.6773 64.7665 43.5546 64.609 43.6856 64.4041C43.8543 64.5254 43.924 64.701 43.9992 64.8626C44.2905 65.4898 44.5985 66.1114 44.8438 66.7567C44.9762 67.1037 45.1685 67.2821 45.5239 67.3379C45.9797 67.409 46.4271 67.533 46.8842 67.5818C47.6006 67.6584 48.3197 67.7281 49.11 67.7476C48.7239 66.6438 48.4075 65.632 48.257 64.5811C48.1525 63.8508 48.0201 63.1205 48.073 62.3804C48.0981 62.0334 48.0703 61.646 48.4061 61.3951C48.6375 61.5373 48.5469 61.7393 48.5608 61.9108C48.5943 62.347 48.5873 62.7888 48.65 63.2209C49.0598 66.0459 50.1413 68.5797 51.9601 70.7929C52.3699 71.2918 52.7671 71.8033 53.1294 72.3371C53.8319 73.3713 54.0855 74.5113 53.9141 75.7601C53.8472 76.2395 53.6758 76.705 53.7357 77.1998ZM45.2633 67.9511C45.5267 68.9128 45.7288 69.7601 46.0145 70.588C46.4954 71.9803 46.9121 73.3936 47.0737 74.8667C47.1393 75.4716 47.1253 75.4604 47.7093 75.5315C48.4772 75.6263 49.1978 75.8437 49.733 76.4528C49.8472 76.5824 49.8779 76.8123 50.1343 76.7357C50.3559 76.6688 50.4828 76.5169 50.5204 76.2953C50.5734 75.9775 50.6166 75.6583 50.6653 75.3392C50.7211 74.9671 50.827 74.588 51.1072 74.3469C51.6507 73.8786 51.666 73.3141 51.4862 72.712C51.2967 72.0779 51.3162 71.3741 50.9037 70.8166C50.3824 70.1114 49.889 69.388 49.5267 68.5894C49.3762 68.2591 49.188 68.2173 48.8758 68.3149C48.3142 68.4905 47.7427 68.4361 47.1657 68.3637C46.5525 68.2856 45.9657 68.0961 45.2633 67.9511ZM34.207 42.1465C34.1875 42.4531 34.246 42.7514 34.3575 43.0274C34.8077 44.1312 35.492 45.0789 36.3659 45.8831C36.7854 46.2691 37.0042 46.2343 37.4181 45.7939C37.9756 45.1988 38.292 44.4462 38.7157 43.7632C38.7923 43.6406 38.7979 43.4984 38.77 43.3618C38.6292 42.6608 38.5582 41.9514 38.5122 41.2392C38.5038 41.0999 38.4885 40.9702 38.338 40.8936C37.5003 40.4629 36.6836 39.9835 35.7206 39.8692C35.2272 39.8107 34.8718 39.9905 34.6321 40.4211C34.331 40.9591 34.2544 41.5486 34.207 42.1465ZM46.4103 49.6865C44.8494 49.2614 43.3497 48.9019 41.9978 48.1297C41.747 47.9862 41.6912 48.2092 41.6188 48.3778C41.2731 49.1848 40.8243 49.9304 40.3254 50.6496C39.97 51.1611 39.9895 51.2656 40.4829 51.6753C41.1045 52.1924 41.7972 52.6022 42.5261 52.9478C43.5003 53.4105 44.0661 53.2962 44.7867 52.4781C45.4919 51.6781 45.9755 50.7457 46.4103 49.6865ZM26.5249 9.05422C25.4656 8.32671 24.5583 7.45006 23.4935 6.65843C23.835 6.58317 24.0217 6.73927 24.2141 6.8424C25.1674 7.3539 26.1081 7.8849 26.9123 8.62217C27.0168 8.71695 27.1311 8.93576 27.3012 8.76712C27.4586 8.61242 27.6092 8.40475 27.4879 8.15389C27.4405 8.05493 27.343 7.97828 27.2593 7.90023C25.9172 6.63474 24.366 5.7135 22.6294 5.10305C22.3284 4.99713 22.0106 4.92187 21.6942 4.87448C20.8469 4.74626 20.5361 5.06124 20.6545 5.91419C20.6796 6.09398 20.7382 6.27377 20.8134 6.43823C21.0643 6.98456 21.3765 7.49745 21.7946 7.93089C23.1214 9.30788 24.7116 9.62983 26.5249 9.05422ZM60.2889 68.0751C60.3628 68.5657 60.4394 68.9978 60.4924 69.4312C60.5942 70.2563 60.9663 70.91 61.6631 71.3769C62.0269 71.6194 62.3865 71.8702 62.7391 72.1281C63.0875 72.3817 63.2715 72.772 63.4931 73.2249C64.2457 72.1225 64.3655 71.041 64.0422 69.8981C63.6199 68.4082 62.4798 67.3323 61.1475 67.3184C60.5649 67.3128 60.2067 67.0717 59.8415 66.726C58.8088 65.7477 58.0367 64.5783 57.3621 63.3365C57.2576 63.1456 57.2311 62.8878 56.9733 62.793C56.9677 63.7533 56.997 63.8201 57.4179 64.5686C58.0409 65.678 58.9761 66.4975 59.9182 67.3142C60.236 67.5901 60.5314 67.9497 61.082 67.5623C60.9133 68.0152 60.6123 68.0361 60.2889 68.0751ZM41.471 21.3858C40.8634 21.3844 40.3867 21.5586 39.9115 21.7105C39.2174 21.9307 38.7212 22.3767 38.4369 23.0624C38.1108 23.8513 37.8711 24.6652 37.6801 25.4958C37.5561 26.0352 37.6996 26.4826 38.1052 26.87C38.724 27.461 39.4641 27.8638 40.2432 28.3655C40.717 26.0296 41.1296 23.7579 41.471 21.3858ZM55.8834 62.8501C55.8848 62.8501 55.8862 62.8501 55.8876 62.8501C55.8346 62.1616 55.7858 61.4717 55.7273 60.7832C55.7148 60.6299 55.7176 60.4501 55.4987 60.4125C54.8116 60.2941 54.1245 60.1909 53.4932 60.609C53.2242 60.7874 52.9594 60.9714 52.7099 61.1749C51.6911 62.0083 51.5267 62.6076 51.9281 63.8452C52.0939 64.3595 52.4061 64.6508 52.9496 64.7358C53.8472 64.8752 54.7378 64.8613 55.6353 64.747C55.9489 64.7079 56.0005 64.5755 55.9726 64.2968C55.9252 63.8174 55.9127 63.3324 55.8834 62.8501ZM27.5325 44.612C27.5785 44.6455 27.6231 44.6789 27.6691 44.7124C28.6098 44.1423 29.5799 43.6197 30.4412 42.9242C30.7185 42.6998 30.9109 42.4002 30.968 42.0518C31.1102 41.1751 31.0502 40.3068 30.7771 39.4581C30.6642 39.1041 30.4245 38.9229 30.0523 38.9507C29.6621 38.9786 29.2733 39.0427 28.883 39.0567C28.5666 39.0678 28.4426 39.2211 28.3924 39.5138C28.2614 40.2859 28.1025 41.0539 27.9729 41.826C27.8182 42.7528 27.6788 43.6838 27.5325 44.612ZM30.0928 57.9247C30.1471 57.5903 29.9018 57.1763 29.5255 56.7958C28.9471 56.2133 28.1931 56.1157 27.4447 55.9972C27.1646 55.9526 27.1506 56.1324 27.1813 56.3387C27.3806 57.7031 27.6607 59.0523 27.9813 60.393C28.0133 60.5282 28.0552 60.655 28.2001 60.7205C28.7158 60.9491 29.4739 60.6355 29.6649 60.0961C29.8865 59.4662 30.0091 58.8125 30.0928 57.9247ZM54.5176 55.9652C54.2221 55.1568 53.7817 54.4614 53.2967 53.791C52.8354 53.1527 52.2974 52.5854 51.6939 52.0767C51.4723 51.89 51.3441 51.9206 51.2354 52.184C51.0235 52.6955 51.0918 53.1736 51.3747 53.6363C51.7747 54.2899 52.2974 54.8432 52.7963 55.4188C53.2507 55.9443 53.804 56.0976 54.5176 55.9652ZM41.9421 14.2528C41.0808 14.5608 40.4564 15.0402 39.9923 15.7134C39.648 16.2137 39.7986 16.7015 40.3574 16.9426C40.7574 17.1155 41.1937 17.1754 41.6243 17.2381C41.8585 17.2716 41.9588 17.1698 41.9672 16.9398C41.9951 16.0744 42.0717 15.2075 41.9421 14.2528ZM29.2621 68.386C30.182 68.2271 30.3158 68.0473 30.1318 67.2013C30.0245 66.7093 29.9172 66.2145 29.6983 65.7546C29.5297 65.3978 29.3192 65.0815 28.8161 64.9602C28.9694 66.1407 29.1158 67.2626 29.2621 68.386ZM38.6669 37.5361C38.6139 35.9877 39.0836 34.5898 39.308 33.0512C38.6404 33.4539 38.4662 34.0337 38.3561 34.6428C38.0871 36.1341 38.1624 36.9327 38.6669 37.5361Z" fill="#231F20"/>
<path d="M30.5233 53.9429C30.2013 53.9276 29.8752 53.9415 29.5588 53.8927C28.7993 53.777 28.4397 53.3506 28.3993 52.5812C28.3784 52.1854 28.4425 51.8008 28.5136 51.4161C28.7143 50.3262 29.0083 49.2642 29.4501 48.244C29.8139 47.4036 30.4271 46.8043 31.2355 46.3945C32.1205 45.9458 32.9553 46.1228 33.5755 46.8949C33.8083 47.1848 33.9713 47.5165 34.1149 47.8565C34.4828 48.7276 34.7685 49.6294 34.9915 50.5464C35.3372 51.9652 34.6543 53.1095 33.248 53.5304C32.8968 53.6363 32.533 53.7074 32.1721 53.7743C31.6285 53.8732 31.0808 53.9485 30.5233 53.9429ZM30.5484 53.3701C31.3651 53.3352 32.324 53.2028 33.248 52.906C34.2654 52.5798 34.7295 51.6015 34.4034 50.6077C34.1888 49.9527 34.002 49.2865 33.7985 48.6273C33.6619 48.1869 33.5058 47.7534 33.2661 47.3562C33.0933 47.0705 32.8745 46.8322 32.5135 46.8154C32.0968 46.7959 31.687 46.8266 31.3093 47.0426C30.6836 47.3994 30.2459 47.9137 29.9756 48.5771C29.5491 49.6252 29.2299 50.7053 29.0599 51.8258C28.8564 53.1596 29.0724 53.4035 30.5484 53.3701Z" fill="#231F20"/>
<path d="M30.8552 32.5703C30.8552 32.2247 30.8538 31.8804 30.8552 31.5348C30.8566 31.0637 30.9862 30.6331 31.2329 30.2275C31.7597 29.3564 32.4983 28.7097 33.3806 28.2387C33.9199 27.9502 34.384 28.0728 34.8105 28.5355C34.9959 28.7362 35.1589 28.9662 35.2941 29.2045C35.8056 30.109 36.2028 31.0637 36.4509 32.0742C36.8412 33.6616 35.6467 35.5403 34.0523 35.8581C33.5757 35.9529 33.0907 35.9626 32.6084 35.9529C31.7151 35.9361 31.2635 35.571 31.0489 34.6929C30.8761 33.9989 30.8496 33.2853 30.8552 32.5703ZM31.3346 32.1118C31.343 32.8951 31.3917 33.6755 31.6022 34.4337C31.7862 35.0985 32.0635 35.3159 32.7199 35.3591C33.1353 35.3856 33.545 35.3466 33.9534 35.2574C34.9931 35.0316 36.0746 33.7215 35.9408 32.6721C35.7708 31.3355 35.2732 30.0923 34.4914 28.9843C34.175 28.5355 33.9116 28.5118 33.4182 28.778C33.0307 28.9871 32.7325 29.323 32.3729 29.5641C31.5743 30.0979 31.343 30.8728 31.3346 31.7648C31.3332 31.8818 31.3346 31.9961 31.3346 32.1118Z" fill="#231F20"/>
<path d="M40.4592 58.2272C40.4885 58.7373 40.4063 59.0704 40.1958 59.3589C40.0063 59.6195 39.8139 59.8802 39.5923 60.1115C38.8481 60.8822 38.4091 60.9449 37.4614 60.4265C36.876 60.1059 36.3018 59.7659 35.722 59.4356C35.2523 59.168 35.053 58.7819 35.1157 58.23C35.1882 57.5889 35.2621 56.9492 35.4586 56.3318C35.8265 55.175 36.6976 54.5896 37.8237 54.3597C38.2558 54.2719 38.7143 54.3513 38.9917 54.775C39.6397 55.7631 40.1289 56.8251 40.4286 57.9694C40.462 58.1004 40.4606 58.2425 40.4592 58.2272ZM39.8725 58.2035C39.8655 57.5122 39.191 55.7339 38.7436 55.2015C38.5666 54.991 38.3756 54.899 38.0871 54.9297C37.0669 55.0384 36.3952 55.5903 36.0161 56.5143C35.7875 57.0704 35.7136 57.6669 35.6091 58.2551C35.5561 58.5561 35.6356 58.8042 35.9157 58.9575C36.6223 59.3422 37.329 59.7241 38.0384 60.1018C38.207 60.1923 38.3882 60.2035 38.5721 60.1324C39.092 59.9317 39.8781 58.7666 39.8725 58.2035Z" fill="#231F20"/>
<path d="M46.2863 60.9422C45.2926 60.9477 44.9498 60.6857 44.5804 59.7687C44.1372 58.6676 44.3087 57.7255 45.1226 56.8516C45.8181 56.1032 46.579 55.4607 47.4849 54.9882C48.1428 54.6454 48.6668 54.7429 49.1128 55.3464C49.5365 55.9206 49.8738 56.5492 50.1427 57.2126C50.3602 57.7492 50.3002 58.2453 49.9504 58.708C49.5044 59.2976 49.0055 59.8369 48.4187 60.2871C47.8111 60.7526 47.1881 60.9366 46.2863 60.9422ZM46.4452 60.3568C47.1309 60.3847 47.9351 60.046 48.586 59.3464C48.8996 59.0091 49.209 58.6662 49.5072 58.315C49.7302 58.053 49.7957 57.7352 49.7205 57.4035C49.5602 56.6913 49.2327 56.0642 48.7142 55.5443C48.501 55.3311 48.2543 55.2642 47.956 55.3826C47.0501 55.7422 46.2278 56.1798 45.5728 56.9631C44.8439 57.8356 44.7212 58.7053 45.17 59.7115C45.4111 60.2495 45.5909 60.3777 46.4452 60.3568Z" fill="#231F20"/>
<path d="M32.6057 21.4875C32.4733 20.8604 32.6684 20.2611 32.7576 19.6548C32.9486 18.3573 32.9639 17.0876 32.4176 15.8541C32.0064 14.9287 31.4141 14.1524 30.6531 13.4932C30.5096 13.3678 30.2253 13.2423 30.3939 13.0138C30.5249 12.8354 30.7827 12.9357 30.9653 13.0458C31.1618 13.1643 31.3625 13.2841 31.5367 13.4333C33.1298 14.7949 33.8336 16.5106 33.5312 18.5984C33.3862 19.6018 33.0517 20.5551 32.6057 21.4875Z" fill="#231F20"/>
<path d="M43.4821 67.0131C43.489 67.7699 43.2563 68.096 42.533 68.3399C41.425 68.7134 40.618 68.3789 40.1678 67.3169C39.8417 66.5476 39.6131 65.7587 39.8682 64.903C40.1065 64.1086 40.6821 63.6431 41.3706 63.2821C41.6912 63.1149 41.9992 63.2082 42.2751 63.4145C42.4438 63.54 42.5608 63.7114 42.6626 63.894C43.0138 64.5197 43.4737 66.2661 43.4821 67.0131ZM43.0863 66.818C43.0166 66.0054 42.7727 65.0772 42.3476 64.2034C42.0689 63.6305 41.7929 63.5818 41.2549 63.9413C41.064 64.0682 40.8912 64.2257 40.6919 64.3358C40.349 64.5239 40.211 64.8347 40.1929 65.1859C40.1455 66.1086 40.4006 66.9615 40.9399 67.7058C41.2549 68.1406 41.896 68.2047 42.5218 67.9497C43.0012 67.7518 43.0974 67.5859 43.0863 66.818Z" fill="#231F20"/>
<path d="M35.485 61.9944C35.492 62.6564 35.2662 63.1247 34.8537 63.4968C34.5066 63.8104 34.0997 63.9316 33.637 63.7672C33.5282 63.7281 33.4181 63.6933 33.3136 63.6459C31.9171 63.0132 31.6927 62.2661 32.5025 60.9728C32.8133 60.4766 33.1561 60.0306 33.7652 59.8787C34.0063 59.8188 34.2112 59.8467 34.416 59.9958C34.9693 60.3986 35.4864 61.3992 35.485 61.9944ZM34.9666 61.9985C34.9178 61.4062 34.6739 60.9003 34.2878 60.4557C34.1289 60.2731 33.9659 60.2592 33.7429 60.3679C33.2802 60.5965 33.0363 61.002 32.8007 61.4243C32.3046 62.3135 32.4007 62.6257 33.3234 63.0926C33.4251 63.1442 33.5338 63.1804 33.637 63.2292C33.9756 63.3923 34.2613 63.2933 34.508 63.0438C34.7937 62.7567 34.9373 62.4013 34.9666 61.9985Z" fill="#231F20"/>
<path d="M27.8782 18.5064C27.5255 18.2137 27.4545 17.836 27.2607 17.5419C26.989 17.128 26.8552 17.0806 26.4175 17.3203C25.9158 17.5949 25.5702 18.0255 25.3054 18.5189C25.113 18.8785 24.95 19.2534 24.7827 19.6004C24.6224 19.6506 24.5737 19.5447 24.5542 19.4708C24.2183 18.2402 25.1005 16.6806 26.3172 16.3405C27.1994 16.0938 27.6998 16.4018 27.8447 17.3036C27.9032 17.6715 28.0217 18.0478 27.8782 18.5064Z" fill="#231F20"/>
<path d="M51.3804 69.0578C51.3804 68.8153 51.4807 68.4083 51.7609 68.085C52.0312 67.7742 52.3267 67.4759 52.6528 67.225C53.1197 66.8641 53.6061 66.9087 54.0187 67.331C54.3072 67.6264 54.572 67.9484 54.8228 68.2773C55.0542 68.5825 55.0807 68.9323 54.8354 69.2362C54.3964 69.7797 53.8779 70.2424 53.1936 70.4529C52.2473 70.7442 51.3929 70.1616 51.3804 69.0578ZM52.8605 70.1978C53.3497 70.1895 54.4535 69.3895 54.6472 68.9086C54.7253 68.7149 54.6849 68.5463 54.5511 68.3999C54.257 68.078 53.949 67.77 53.595 67.5108C53.3399 67.324 53.0612 67.3045 52.8382 67.5191C52.4089 67.9317 51.9894 68.3595 51.8682 68.9839C51.726 69.7212 52.1176 70.209 52.8605 70.1978Z" fill="#231F20"/>
<path d="M28.9666 9.15745C29.0683 6.93169 31.8808 4.95819 33.8655 5.6439C33.7553 5.81951 33.57 5.83623 33.4055 5.86132C31.4599 6.14842 30.0899 7.22576 29.1659 8.9247C29.1338 8.98184 29.0794 9.02644 28.9666 9.15745Z" fill="#231F20"/>
<path d="M36.9735 11.751C36.9567 12.105 36.8341 12.4242 36.6376 12.7127C36.4606 12.9733 36.2292 13.1726 35.8906 13.082C35.5463 12.9901 35.3651 12.7211 35.3122 12.3824C35.2578 12.0312 35.3596 11.6981 35.5129 11.3845C35.7359 10.9288 36.0606 10.7364 36.4299 10.827C36.7951 10.919 36.9916 11.2535 36.9735 11.751Z" fill="#231F20"/>
<path d="M20.189 18.8604C19.8643 18.7824 19.7249 18.5873 19.5911 18.4131C19.2455 17.9657 18.7939 17.7455 18.2406 17.6995C18.0594 17.6842 17.8713 17.6716 17.6998 17.6159C17.5075 17.5531 17.4727 17.4068 17.6134 17.2451C18.1375 16.6472 19.3611 16.6863 19.8099 17.3427C20.1082 17.7803 20.2907 18.2709 20.189 18.8604Z" fill="#231F20"/>
<path d="M30.7504 9.54763C30.7281 9.91836 30.6208 10.3114 30.2821 10.5957C30.0815 10.7643 29.8403 10.848 29.5811 10.7295C29.3358 10.618 29.2884 10.3839 29.2898 10.1511C29.2912 9.80408 29.3748 9.46958 29.5588 9.16994C29.7748 8.81872 30.0592 8.67656 30.3477 8.77133C30.6125 8.85635 30.749 9.10304 30.7504 9.54763Z" fill="#231F20"/>
<path d="M40.7896 9.12394C41.7554 7.76786 42.9108 6.65707 44.7115 6.19714C44.4954 6.51909 41.2746 8.94973 40.7896 9.12394Z" fill="#231F20"/>
<path d="M35.386 6.50238C33.9379 6.986 32.5456 7.08355 31.262 7.68285C31.609 6.63617 33.8961 5.99925 35.386 6.50238Z" fill="#231F20"/>
<path d="M36.9485 9.01099C37.4098 9.02492 38.0955 9.59356 38.2056 10.0242C38.2739 10.2918 38.1485 10.4381 37.8851 10.3699C37.3736 10.2361 36.9917 9.90714 36.667 9.50436C36.5903 9.40959 36.5694 9.2967 36.6321 9.18241C36.7074 9.04304 36.8384 9.01238 36.9485 9.01099Z" fill="#231F20"/>
</svg>
