<svg width="80" height="80" viewBox="0 0 80 80" fill="none" xmlns="http://www.w3.org/2000/svg">
<rect width="80" height="80" fill="white"/>
<path d="M42.9671 2.35234C43.283 1.64831 43.9093 0.87572 44.7837 1.17013C45.7534 1.51574 45.5034 2.75555 45.3313 3.53546C46.18 3.33065 47.1836 3.9853 46.7889 4.9307C46.2808 5.72158 45.5547 6.65693 44.5072 6.61852C45.9804 11.2486 46.8668 16.0405 47.9948 20.762C50.3818 18.33 54.0342 16.6869 57.4073 17.9725C61.144 19.2223 62.8104 23.7701 61.7235 27.3597C60.991 30.2764 58.5811 32.5238 55.8004 33.5195C57.6793 37.6896 59.2093 42.6178 57.2819 47.0522C59.4437 48.0634 61.5651 49.3865 63.0036 51.3285C61.3628 49.6041 59.3695 48.2637 57.2187 47.2543C56.6492 48.2161 56.0824 49.178 55.3481 50.0283C58.3477 54.5843 60.1661 60.0355 59.8539 65.5241C61.5578 64.0063 63.6115 62.6751 65.9592 62.5736C67.5505 62.4072 69.2481 63.1771 69.9128 64.6811C70.5775 63.4367 71.8667 61.6858 73.4572 62.1859C74.4836 63.4797 73.2786 65.1529 72.7347 66.4238C73.7895 66.2299 75.6281 66.1394 75.8341 67.5301C75.5365 68.9436 74.0743 69.7071 72.905 70.3572C73.5093 70.8289 74.5348 71.8146 73.7172 72.5378C72.4372 73.3058 70.6416 73.2555 69.3845 72.4509C66.0846 75.2606 60.9224 74.9717 57.3707 72.781C55.8947 74.8556 53.7742 76.3404 51.8523 77.9706C50.3031 79.0203 48.1514 79.2562 46.387 78.7286C45.388 78.4607 44.8323 77.3571 45.1051 76.3788C41.0022 77.0563 36.8188 76.6303 32.813 75.6099C29.8921 75.812 27.1389 77.8454 24.1274 77.1624C23.2155 76.8186 21.9419 76.3322 21.9977 75.15C21.9593 73.1732 24.1412 71.927 25.9394 72.2443C23.2054 68.843 22.6002 64.1764 23.7603 60.04C21.2936 57.6519 21.2423 53.8181 22.6817 50.8768C20.964 49.6745 19.4093 48.1659 18.5065 46.2467C16.2852 47.1528 14.3615 48.666 12.8718 50.5339C14.0868 48.4365 16.2257 47.0623 18.3774 46.0602C17.4965 44.1319 17.2695 41.9531 17.7566 39.8877C15.2579 39.2833 12.6181 39.116 10.0874 39.6088C10.1991 40.6712 10.1496 41.7894 9.57738 42.7266C10.0123 42.5218 10.6908 42.4011 10.9188 42.9561C11.2923 43.7991 10.5333 44.5991 9.80079 44.9072C11.1293 46.9087 11.7648 49.3462 11.7913 51.7344C11.4956 51.7783 11.1037 51.7116 11.1211 51.3303C10.9087 48.9192 10.3502 46.4085 8.66634 44.5699C7.98512 46.6106 4.88942 46.5713 3.76138 44.9804C3.34569 44.1566 4.11664 43.4187 4.73652 42.9844C3.68813 42.2438 2.99868 40.908 3.20103 39.6188C3.43817 38.7521 4.4426 38.5601 5.21813 38.6862C5.44246 37.5068 6.16396 35.9625 7.53922 35.9378C9.05364 36.395 9.76874 38.0609 10.0508 39.4936C12.5898 38.87 15.2395 39.1507 17.7703 39.6518C18.8114 36.598 20.4824 33.7435 22.2999 31.0645C19.1135 28.7989 17.8198 24.0892 19.672 20.5902C21.0638 17.4979 24.7793 15.6967 28.0435 16.8177C29.7411 17.3462 31.153 18.5512 32.2187 19.9437C35.3236 15.3237 38.4889 10.7412 41.7347 6.21805C41.1231 5.99222 40.2652 5.6969 40.2734 4.90876C40.2725 4.30897 40.918 4.10965 41.3868 3.96793C40.7166 2.86527 41.8281 1.49197 42.9671 2.35234ZM43.4011 3.8957C42.9195 3.52632 42.7895 2.55897 42.0405 2.68057C41.5031 3.26025 42.1129 3.9917 42.2301 4.61618C41.7915 4.69481 40.7907 4.29068 40.8338 4.98647C41.3621 5.56981 42.2145 5.65301 42.8316 6.11657C41.396 7.6581 40.2871 9.47027 39.1261 11.2193C40.9858 10.8609 42.8326 10.3215 44.5136 9.43461C44.368 8.44441 44.0869 7.48255 43.8599 6.50789C43.6044 6.6295 43.3261 6.6423 43.0541 6.57098C43.012 6.08639 43.4396 6.14857 43.7619 6.27474C44.6098 5.83404 45.8587 5.69232 46.2029 4.55492C45.9649 3.69181 44.9604 4.44063 44.3653 4.34554C44.5585 3.53454 45.1188 2.53977 44.6061 1.77449C43.642 1.85221 43.7125 3.18802 43.4011 3.8957ZM38.9146 11.5906C37.7674 12.9556 36.8362 14.51 35.8006 15.9665C39.1499 15.6638 42.6668 15.299 45.5547 13.4201C45.3505 12.1437 44.9833 10.8975 44.6262 9.65679C42.8957 10.7375 40.8585 11.1005 38.9146 11.5906ZM35.5671 16.3194C34.4711 17.7631 33.5043 19.3074 32.4641 20.795C37.2592 21.2119 42.5322 21.0235 46.6122 18.1636C46.3037 16.6705 45.9768 15.1802 45.5931 13.7063C42.6156 15.6199 39.0007 15.9811 35.5671 16.3194ZM22.2358 18.6317C18.4323 21.5602 19.0439 27.7145 22.6844 30.5095C23.0342 30.067 23.3565 29.6044 23.6248 29.1097C21.3385 27.4064 20.5611 23.9384 22.1378 21.5109C22.8648 20.2573 24.4332 19.5049 25.8515 19.9593C27.6718 20.4951 28.6964 22.3054 29.2686 23.9905C29.9681 23.6878 30.61 23.2727 31.2839 22.9189C30.4479 22.171 31.3626 21.2494 31.7344 20.5271C29.7054 17.5491 25.1612 16.0158 22.2358 18.6317ZM53.7192 18.4232C51.5694 18.8182 49.6749 20.1385 48.2228 21.7202C48.2951 22.5413 48.7419 23.387 48.3162 24.1907C48.9937 24.817 49.7454 25.3537 50.4431 25.9572C51.3322 23.8853 52.9593 21.8949 55.2456 21.3655C56.8058 20.9751 58.442 22.139 58.7103 23.6942C59.4968 26.8121 57.5731 30.1018 54.6586 31.305C54.9471 31.8051 55.2245 32.3107 55.4845 32.8273C60.0818 31.4604 62.7463 25.65 60.2796 21.413C59.017 19.1721 56.2381 17.9332 53.7192 18.4232ZM32.3268 21.0665C31.9193 21.2768 31.7948 21.7705 31.6291 22.1628C36.0771 25.2449 42.0982 25.8036 47.1991 24.166C48.2603 23.9128 47.6047 22.7242 47.4518 22.0329C46.1745 22.9244 44.8634 23.8405 43.3517 24.2831C44.7096 23.4712 46.1645 22.8046 47.418 21.8199C47.2138 20.6852 46.9373 19.5652 46.6562 18.4479C42.513 21.317 37.185 21.5932 32.3268 21.0665ZM23.633 20.6304C20.5126 22.2487 21.0711 27.1878 23.742 28.8875C24.7949 27.6349 26.139 26.6109 27.0647 25.266C26.9494 24.9816 26.8276 24.6982 26.7049 24.4175C26.6564 24.4924 26.5584 24.6451 26.5089 24.7201C26.4604 24.4806 26.4366 24.2383 26.4348 23.9951C27.1068 23.9466 27.2634 24.6625 27.5399 25.1151C27.9291 24.8627 28.6909 24.6415 28.4446 24.0344C27.9217 22.0101 25.9339 19.6649 23.633 20.6304ZM55.5294 21.9927C53.3035 22.512 51.8953 24.5318 50.9614 26.4738C51.3331 26.8678 51.758 27.2043 52.1444 27.5847C52.4062 27.026 52.7331 26.0568 53.5425 26.3558C53.0664 26.8121 52.626 27.3853 52.485 28.1022C53.3301 28.9607 53.8419 30.1146 54.644 30.9667C57.5318 30.0176 59.3402 26.5478 58.4118 23.6412C58.0538 22.4398 56.749 21.701 55.5294 21.9927ZM30.8307 24.0024C26.7534 26.0349 23.8207 29.7196 21.6031 33.5999C20.4595 35.573 19.2261 37.5525 18.6786 39.7907C19.3287 40.0147 19.9898 40.2058 20.6637 40.3503C21.4401 39.0127 23.1972 38.3525 24.6191 39.0492C25.705 39.5649 26.3707 40.7627 26.3405 41.9494C26.7672 42.0747 27.1975 42.2027 27.5985 42.3993C27.1645 42.3956 26.7452 42.2804 26.3405 42.1277C26.1299 43.9097 24.4735 45.1029 22.7531 45.177C21.5646 45.1148 20.4567 45.6231 19.3278 45.9212C20.5382 48.805 23.3446 50.5613 26.0127 51.9456C26.5895 52.3406 27.3696 52.4979 27.7743 53.1041C26.2462 52.6999 24.8114 52.0087 23.4004 51.3102C22.2944 53.5521 22.0893 56.4139 23.5854 58.5333C24.4955 60.0437 26.3396 60.7687 28.0563 60.5841C27.951 60.3537 27.8439 60.1232 27.7487 59.8901C28.9829 60.5173 29.9947 61.7827 31.4954 61.8577C31.5915 61.0568 30.9616 60.5027 30.5358 59.9157C30.6466 59.838 30.7583 59.7612 30.8709 59.6844C31.6144 60.2403 32.1812 61.0586 32.1382 62.0241C33.7396 61.7571 32.7388 59.8691 32.1867 59.0343C33.04 59.2464 33.3568 60.1699 33.6279 60.9022C33.9584 58.2407 31.7939 55.8753 29.5863 54.6694C29.9938 54.3548 30.4708 54.6538 30.8719 54.8257C32.6994 55.8342 33.8439 57.7497 34.3851 59.7164C35.1899 57.3072 37.5714 55.5837 40.093 55.4639C40.3091 55.4246 40.4593 55.5873 40.6131 55.708C38.2664 56.2904 35.5928 57.4982 35.0068 60.0949C35.5735 59.4805 36.2465 58.7719 37.1539 58.8075C36.3555 59.4467 34.5014 60.6563 35.807 61.6849C36.2484 60.979 36.7666 60.2421 37.6236 60.0208C37.6749 60.8007 36.4086 61.086 36.6558 62.004C37.923 62.2966 39.0053 61.46 40.0985 60.9845C39.9822 61.1601 39.8586 61.3301 39.7387 61.5029C42.3848 62.4712 45.3944 62.7702 48.0543 61.6803C49.8993 60.852 51.5886 59.5829 52.7148 57.8832C52.9309 57.5824 53.1048 57.1526 53.548 57.1865C52.6361 59.7173 50.2948 61.5715 47.8346 62.5315C46.9373 62.7638 46.4456 63.6004 45.8101 64.1993C43.3709 66.8261 41.9984 71.7853 45.237 74.3454C43.7482 73.603 43.0514 71.8548 43.1182 70.263C43.1494 67.3994 44.7178 64.7725 46.7999 62.8927C44.3451 63.3956 41.8455 62.9384 39.4988 62.1923C37.7903 63.0792 35.1743 62.9128 34.4336 60.8648C33.963 61.7105 33.2497 62.5443 32.2105 62.6111C30.8654 62.7885 29.7383 61.9363 28.603 61.3868C27.1746 61.3978 25.6858 61.289 24.4479 60.499C23.3125 64.9106 24.2675 70.359 28.1506 73.1339C27.5592 73.9257 26.5392 72.7197 25.7023 72.9401C24.143 72.6128 21.9382 74.3308 23.0223 75.9153C23.0351 74.9781 23.7154 73.7803 24.794 74.0153C23.6266 74.4012 23.0497 76.6165 24.7519 76.558C24.7043 75.8174 25.1383 75.0229 25.966 75.0394C25.7298 75.5212 24.9991 76.0058 25.4377 76.5845C27.5921 76.4575 29.5982 75.5102 31.6639 74.9479C32.6115 74.4002 33.605 75.0586 34.5728 75.1884C38.1437 76.0698 41.8721 76.1027 45.4961 75.5459C46.5188 73.8325 49.0487 73.5508 50.7169 74.4103C51.1125 74.7459 50.5402 74.9571 50.2426 74.7779C48.7676 74.3692 46.6067 74.51 45.9868 76.1704C45.6444 76.7866 45.7186 77.6451 46.4172 77.9716C46.4254 77.1679 46.7486 75.7287 47.8272 76.0259C47.1451 76.4712 46.853 77.3471 47.1048 78.1169C47.4537 78.4653 48.036 78.2148 48.4782 78.2065C48.5469 77.4376 48.7447 76.5288 49.5394 76.1978C49.7079 76.8799 48.7309 77.5427 49.2675 78.1681C50.2609 78.3272 50.163 77.0938 50.8341 76.7647C50.8543 77.0792 50.8469 77.3946 50.8433 77.7101C52.962 76.1493 55.1055 74.4588 56.695 72.3293C58.1545 70.3124 58.8366 67.84 59.0582 65.3869C59.3411 60.1269 57.5813 54.9272 54.7301 50.5495C51.9026 52.9212 48.1193 54.2808 44.4166 53.8401C45.1115 53.4414 45.9557 53.5164 46.7148 53.3171C50.5878 52.5911 54.8683 50.725 56.4313 46.8383C55.1833 46.2156 53.8373 45.8225 52.5546 45.2885C53.9683 45.4577 55.23 46.1873 56.5457 46.6783C57.9604 43.2898 57.2764 39.4671 56.0312 36.1399C54.6962 32.4744 52.7441 28.9049 49.6997 26.3787C49.0963 25.9215 48.5524 25.2312 47.7531 25.1599C47.4738 24.7923 46.8951 25.0017 47.3484 25.3912C47.9884 25.5302 48.7255 26.3915 47.9692 26.8889C47.9307 26.503 47.8309 26.0843 47.4161 25.9517C47.2202 26.226 47.027 26.5003 46.8375 26.7764C46.6397 26.7791 46.4419 26.781 46.2451 26.781C46.4968 26.2671 47.1964 25.8273 46.7706 25.2093C42.3519 26.3211 37.598 25.9462 33.398 24.1916C32.9604 23.8908 32.6326 24.5071 32.1665 24.3599C32.2151 24.1029 32.2718 23.8469 32.3167 23.59C31.7747 23.4392 31.2903 23.7738 30.8307 24.0024ZM5.77116 39.692C5.20165 39.3436 4.21919 39.0428 3.78977 39.7386C3.59108 41.1329 4.57354 42.4102 5.65305 43.1856C5.03867 43.4544 4.04248 43.8512 4.27321 44.6951C5.23369 45.8609 7.87342 45.9633 8.1948 44.1749C7.57676 44.4547 6.97245 44.7628 6.35899 45.0508C6.41484 44.8313 6.47619 44.6137 6.53753 44.3971C10.0865 43.8393 10.4957 38.4458 7.70494 36.6437C6.26651 36.544 5.64755 38.4952 5.77116 39.692ZM20.9475 40.3832C22.7275 40.7499 24.4296 41.3972 26.1729 41.8918C26.4467 39.0831 22.157 37.8094 20.9475 40.3832ZM18.609 39.9754C18.1713 41.8854 18.2354 43.9966 19.2142 45.7365C20.1308 45.4567 21.0766 45.2931 22.0069 45.0618C20.2736 44.301 19.7297 42.1049 20.5822 40.4938C19.9293 40.3046 19.2683 40.1391 18.609 39.9754ZM21.1315 44.1932C22.7449 45.9916 26.0337 44.3385 26.1308 42.0875C24.3838 41.527 22.6487 40.9108 20.8468 40.5441C20.1646 41.6468 20.1949 43.2432 21.1315 44.1932ZM8.7698 43.5367C8.93645 43.9463 9.23219 44.2791 9.56181 44.568C10.1222 44.3349 10.7485 43.7058 10.4454 43.0676C9.80445 42.9534 9.46933 44.12 8.7698 43.5367ZM72.7045 62.7171C71.604 63.1277 70.8238 64.1353 70.2974 65.1492C70.4201 65.2297 70.5428 65.3111 70.6682 65.3943C70.464 66.0279 70.421 66.7337 70.9529 67.2229C72.2028 66.5774 72.775 65.1419 73.1385 63.8628C73.2072 63.4651 73.3867 62.5471 72.7045 62.7171ZM59.7522 66.8114C59.3219 68.6675 58.7762 70.5153 57.8038 72.1739C60.7026 73.88 64.4658 74.2201 67.5505 72.8167C70.2525 71.6262 71.1819 67.6023 69.0503 65.4976C69.2014 63.6616 66.9636 63.1048 65.5737 63.6964C65.6488 63.5821 65.7266 63.4705 65.8054 63.3599C63.4293 63.6589 61.3234 65.0642 59.7522 66.8114ZM71.0418 68.5989C71.4336 68.4289 71.8915 68.1262 72.2907 68.4636C71.9565 68.8175 71.473 68.8961 71.0152 68.9592C70.9438 69.6879 70.7112 70.38 70.4832 71.0721C70.974 71.2322 71.4703 71.3794 71.9363 71.6052C71.3485 71.9682 70.6581 71.6637 70.0328 71.5988C69.9705 71.7524 69.9091 71.906 69.8496 72.0614C70.9438 72.5113 72.385 72.6631 73.3894 71.9819C73.307 71.1636 72.3392 70.6799 71.6909 70.2593C72.9298 69.6559 74.3471 69.0725 75.0778 67.8364C75.4596 67.1717 74.5751 66.902 74.0706 66.9586C72.9627 66.9568 70.6893 66.9879 71.0418 68.5989Z" fill="black"/>
<path d="M46.6287 27.7464C47.0022 27.367 47.5351 27.282 48.0332 27.1814C48.0332 27.2609 48.0305 27.4219 48.0296 27.5032C47.601 27.741 47.1075 27.7711 46.6287 27.7464Z" fill="black"/>
<path d="M27.1004 30.7656C27.0921 29.3182 29.296 28.1698 30.229 29.512C30.4222 30.1493 29.5661 29.8458 29.2164 29.8476C28.3657 29.7297 27.7953 30.4328 27.1004 30.7656Z" fill="black"/>
<path d="M44.9651 30.6878C45.7479 28.926 48.5854 30.3331 48.3593 32.0237C47.4876 31.0316 46.2561 30.644 44.9651 30.6878Z" fill="black"/>
<path d="M27.7268 32.5887C31.4881 32.1526 31.0614 39.0054 27.5656 38.8929C25.7307 39.0556 24.4919 37.0057 25.3251 35.4103C25.8937 34.3296 26.4119 32.9215 27.7268 32.5887ZM27.2561 33.4116C26.3726 33.7965 26.3945 35.3902 27.4823 35.456C29.0242 35.6014 28.7596 32.7487 27.2561 33.4116ZM25.4377 36.0686C24.6366 38.3626 28.0417 39.4113 29.2806 37.6878C28.6003 38.1642 27.6828 38.7567 26.8642 38.2273C26.0292 37.7866 25.847 36.8302 25.4377 36.0686Z" fill="black"/>
<path d="M68.4872 35.5007C69.3351 34.2719 70.8889 32.7495 72.4821 33.5139C75.2527 36.351 74.3573 42.2547 70.334 43.4699C70.8935 43.5329 71.6287 43.6207 71.7157 44.3147C71.962 45.698 69.9495 46.3554 69.0961 45.3963C69.0284 47.7022 68.4442 50.0072 67.3748 52.0516C67.1514 51.8852 66.7677 51.7243 66.9756 51.3906C67.698 49.4294 68.2785 47.3895 68.3499 45.2875C66.754 46.5301 64.2608 45.0626 63.7453 43.3181C63.4129 42.3197 64.2937 41.4117 65.3009 41.601C63.8249 39.9735 63.1822 37.5981 63.65 35.4522C63.791 34.9448 63.9577 34.2527 64.5666 34.1429C65.9904 33.9455 67.5002 34.4538 68.4872 35.5007ZM71.604 33.8879C70.1756 34.1411 69.3168 35.4961 68.5806 36.5357C67.72 35.5135 66.4463 34.6083 65.0052 34.7025C64.4833 34.6266 64.3688 35.2438 64.2672 35.6205C63.6427 38.5673 65.2542 41.9667 68.1503 43.0374C66.8309 41.9777 65.4245 40.331 65.8759 38.5252C66.5306 37.162 68.5385 37.9465 68.7134 39.253C68.1173 39.1552 67.9983 38.3854 67.4389 38.1879C66.8455 37.7938 66.1286 38.4475 66.2193 39.0793C66.2669 40.5843 67.3281 41.8744 68.4955 42.7338C69.9055 43.5668 71.5893 42.5482 72.3896 41.3349C73.72 39.275 73.7978 36.373 72.3704 34.3368C72.1946 34.0899 71.9428 33.8037 71.604 33.8879ZM64.236 42.8856C64.4558 44.1849 65.7816 45.0553 67.0268 45.1979C67.7602 45.2976 68.4515 44.5405 68.2583 43.8219C67.8912 45.6898 64.9108 43.6097 66.6404 42.9935C66.4115 43.5494 66.743 44.2361 67.383 44.258C67.6311 44.1135 68.3929 43.7058 67.8884 43.4543C67.1999 43.1892 66.5773 42.807 65.9656 42.4019C65.4163 42.1788 64.1948 41.9731 64.236 42.8856ZM68.9276 43.4561C68.4845 44.6082 69.9367 45.7812 70.9209 44.9913C71.5014 44.4482 70.7799 43.9435 70.2333 43.8877C70.1527 44.0194 70.0713 44.1529 69.9916 44.2873C69.6656 43.9755 69.3708 43.607 68.9276 43.4561Z" fill="black"/>
<path d="M46.0905 33.546C48.7659 33.3092 49.8857 37.0222 48.7027 38.9916C47.8631 40.4198 45.6922 40.3201 44.7289 39.083C43.3216 37.4144 43.9076 34.2418 46.0905 33.546ZM45.7343 34.3734C44.3398 34.623 44.8196 37.1392 46.247 36.5449C47.6058 36.2487 47.1498 33.9199 45.7343 34.3734ZM46.4924 39.6463C47.6122 39.8593 48.7192 38.87 48.6872 37.7436C48.2605 38.6652 47.4676 39.3546 46.4924 39.6463Z" fill="black"/>
<path d="M33.2461 37.9776C35.1158 36.7506 38.0375 37.0368 39.5455 38.7274C37.7143 37.4354 35.3355 37.2014 33.2461 37.9776Z" fill="black"/>
<path d="M70.8459 37.8907C70.9997 37.8971 71.1554 37.9035 71.3101 37.9118C71.9877 39.2988 71.6782 41.5617 70.2178 42.3005C70.9182 40.9802 71.6113 39.339 70.8459 37.8907Z" fill="black"/>
<path d="M34.8815 38.2977C36.2632 38.0627 37.9589 38.2831 38.858 39.4735C39.141 39.7972 38.9249 40.2544 38.5687 40.4089C37.534 40.9748 36.2595 41.6871 35.0866 41.0782C34.3596 40.6539 33.5621 40.1355 33.2554 39.3126C33.4669 38.658 34.2854 38.466 34.8815 38.2977ZM33.5667 39.1837C34.2973 39.6911 34.9566 40.5881 35.9079 40.802C36.9535 40.8651 37.7117 39.9856 38.6795 39.7387C37.7227 38.1094 34.9035 38.0253 33.5667 39.1837Z" fill="black"/>
<path d="M7.4978 38.6808C8.64141 39.3007 8.70458 41.0461 8.49308 42.1735C8.25776 40.9821 7.86496 39.8337 7.4978 38.6808Z" fill="black"/>
<path d="M46.5534 43.1765C46.6175 40.8121 49.65 39.3839 51.5609 40.7243C53.2767 41.7063 53.6009 44.6175 51.8557 45.7064C49.9448 47.3037 46.6916 45.8564 46.5964 43.3722C46.2805 43.3219 45.9628 43.2817 45.6533 43.2058C45.9518 43.1857 46.253 43.1811 46.5534 43.1765ZM46.8775 43.353C46.7145 45.7028 49.9833 47.0441 51.733 45.5985C53.1367 44.6641 53.1302 42.3902 51.9573 41.2702C50.2964 39.4077 46.4884 40.7518 46.8775 43.353Z" fill="black"/>
<path d="M5.64781 40.7617C6.12943 40.514 6.67788 40.514 7.20528 40.5487C5.50315 40.3585 6.13492 42.2905 7.2245 42.6727C6.26402 42.6928 5.54893 41.6678 5.64781 40.7617Z" fill="black"/>
<path d="M30.7766 42.062C29.9315 41.9678 30.7446 41.0644 31.2427 41.0846C30.9039 43.6181 35.3089 44.6751 35.9297 42.1561C36.2456 44.4063 39.5107 44.6742 41.1194 43.5678C41.8382 43.2478 41.9114 42.3664 42.3464 41.8745C42.7721 42.2375 43.6951 42.4423 43.4478 43.1646C43.1365 43.0814 42.8362 42.9626 42.5505 42.8163C41.9728 43.8632 40.9583 44.6248 39.7716 44.8314C39.4329 46.3089 39.1133 47.9931 37.8177 48.9568C36.6027 49.9031 34.6973 49.5493 33.8265 48.3058C33.0089 47.1126 32.7882 45.6031 32.8423 44.1841C31.8918 43.7891 31.1246 43.0348 30.7766 42.062ZM33.3678 44.3441C33.4878 46.0749 33.8833 48.6478 36.0249 48.8672C38.0778 48.8809 38.7983 46.5412 39.1151 44.8927C38.2297 44.8835 37.3462 44.6678 36.5642 44.2508C35.6102 43.4179 34.4702 44.4977 33.3678 44.3441Z" fill="black"/>
<path d="M33.4995 51.4656C35.1495 51.9822 36.8653 52.059 38.5739 51.8596C37.0274 52.816 34.8803 52.6249 33.4995 51.4656Z" fill="black"/>
<path d="M7.96957 60.3791C8.11423 59.0863 8.1417 57.0081 9.80172 56.7877C11.7465 57.1772 12.9817 59.057 13.748 60.7522C14.3633 59.8178 15.3824 58.5313 16.6441 59.0369C17.9516 60.0628 17.6714 61.9783 17.427 63.4238C18.6264 62.9593 20.4659 62.5095 21.3028 63.7877C21.4813 65.6849 19.5622 66.89 18.229 67.903C19.1849 68.5522 20.0694 69.4875 20.2324 70.6761C20.3194 71.3985 19.6354 71.8977 19.0238 72.0942C17.4517 72.6081 15.6534 72.2552 14.3111 71.318C13.5878 73.1411 11.3226 74.3837 9.44554 73.6029C8.44294 72.9994 8.73136 71.606 9.21297 70.7493C7.36251 71.1013 5.24652 70.7913 3.88958 69.387C3.39515 68.938 3.42903 68.1426 3.83739 67.6498C4.74019 66.5553 6.16489 65.9747 7.57402 66.0186C6.26103 64.6975 5.19342 62.9767 5.00846 61.0969C5.19708 59.6879 7.02007 60.0281 7.96957 60.3791ZM9.27981 57.7276C8.54549 58.9693 8.73411 60.4852 8.74601 61.8622C8.20396 61.5476 7.87434 60.9067 7.18305 60.8473C6.65749 60.6745 5.4974 60.5382 5.67778 61.4123C6.35808 63.8481 8.06571 66.2161 10.5644 67.0006C10.9545 67.1533 11.2438 66.8031 11.5167 66.5901C10.8657 65.7206 9.66254 65.0924 9.57739 63.9194C10.7045 64.6956 11.4965 67.0536 13.097 66.0104C12.6703 64.5822 12.1494 63.1815 11.7062 61.7634C12.9679 62.7554 13.0229 64.5521 13.6272 65.9382C13.813 65.9354 13.9989 65.9354 14.1866 65.9382C14.2983 65.1491 14.3093 64.3381 14.5684 63.5774C15.1727 64.265 14.5611 65.1939 14.6252 65.9985C14.8468 66.0497 15.0683 66.1018 15.2908 66.1585C16.5352 64.6133 17.2365 62.5205 16.8117 60.5474C16.7091 60.1048 16.4326 59.3816 15.8475 59.634C14.6591 60.1259 14.1042 61.4215 13.6775 62.5461C13.0824 60.8628 12.4094 59.0762 10.8922 57.9873C10.46 57.6746 9.70008 57.1187 9.27981 57.7276ZM16.5837 65.1308C16.8803 65.0961 17.177 65.0641 17.4764 65.0668C16.8648 65.5084 16.2028 65.8979 15.7312 66.5078C16.4308 66.4877 16.9499 65.94 17.6009 65.7516C17.3803 66.6102 16.081 66.8223 16.3117 67.829C17.9498 67.6543 19.2555 66.4502 20.2654 65.2396C20.6051 64.8337 21.0849 63.9322 20.313 63.7082C18.9927 63.4421 17.1633 63.7475 16.5837 65.1308ZM13.1813 66.5124C12.2134 66.73 10.6789 67.3682 11.0891 68.6171C12.0734 69.7682 13.8762 69.4007 15.0271 68.6976C15.6836 68.3712 15.9748 67.3398 15.4016 66.8177C14.7579 66.3844 13.9192 66.3789 13.1813 66.5124ZM4.28604 68.1005C3.80809 68.7031 4.58087 69.2699 5.06889 69.5205C6.77927 70.4622 9.52062 70.7237 10.84 69.0706C10.1304 68.2432 8.64438 68.5129 7.60057 68.437C8.35596 67.7321 9.47392 68.127 10.395 68.1033C10.7356 67.5583 10.1139 67.4203 9.71565 67.2575C7.9952 66.2125 5.58805 66.5498 4.28604 68.1005ZM15.6342 69.1008C16.0673 69.3778 16.9875 69.3961 17.0232 69.9904C16.0627 70.0343 15.0812 69.194 14.1802 69.9072C15.1407 71.6362 17.7447 72.097 19.3736 71.1379C19.9339 69.3083 16.9106 67.2127 15.6342 69.1008ZM9.64514 72.9299C11.3967 73.6943 14.1472 72.1107 13.7846 70.0416C12.4359 69.7134 11.8912 70.8371 10.9352 71.4689C10.7805 70.7264 11.7327 70.5006 12.0038 69.92C10.5525 69.6219 8.83757 71.5996 9.64514 72.9299Z" fill="black"/>
</svg>
