<svg width="80" height="80" viewBox="0 0 80 80" fill="none" xmlns="http://www.w3.org/2000/svg">
<rect width="80" height="80" fill="white"/>
<path d="M19.3896 2.34596C20.1712 1.35911 21.5532 1.25074 22.6935 1.54804C26.145 2.37185 29.0269 4.64957 31.4485 7.15074C32.9168 7.44708 34.3045 8.07237 35.3969 9.11772C36.8882 8.33131 38.157 6.99346 38.6135 5.33528C38.7717 4.77232 39.0326 3.89672 39.7931 4.05017C41.0399 4.58723 41.739 5.8522 42.3394 7.00209C43.26 5.6297 45.1177 6.11402 45.4812 7.66286C46.2388 7.38474 47.2391 7.59765 47.7771 6.88892C49.8764 4.57956 52.4869 2.67203 55.4906 1.73889C56.9647 1.14332 58.8712 1.36294 59.7622 2.81013C62.0322 5.89536 63.091 9.70274 63.4957 13.4698C63.8112 13.3538 64.1306 13.2454 64.4586 13.1677C65.2632 15.2978 64.6063 17.7567 63.5446 19.6863C65.7274 20.9465 66.673 23.4371 68.5115 25.0387C68.7273 25.9479 67.5362 26.0361 66.9252 25.8299C68.5182 27.443 69.6825 29.4091 70.7729 31.3789C71.2774 32.876 68.781 32.1577 67.9677 31.9543C69.9875 35.0041 70.4977 38.9918 69.2586 42.4366C72.5817 47.0438 74.6052 53.0647 72.6929 58.6578C73.2501 59.0117 73.0679 59.7195 73.041 60.2699C72.363 65.3394 69.0284 70.0013 64.4049 72.2119C63.4756 72.6463 62.9098 73.5795 61.9872 74.0264C62.0658 75.3364 61.0348 76.4163 59.837 76.7673C57.7367 77.4003 55.435 77.2075 53.398 76.4307C52.3527 78.4332 49.9723 78.6844 47.99 79C45.6394 78.8369 42.6712 78.0601 42.1332 75.369C39.7969 75.5637 37.4483 75.5484 35.113 75.3815C34.5798 76.9984 33.2016 78.4044 31.4217 78.483C28.9071 79.5178 25.5025 78.811 23.8951 76.5371C22.2619 77.1212 20.4857 77.3706 18.7729 77.0243C17.3142 76.8325 15.7558 75.8188 15.7308 74.2038C11.1725 72.4564 8.60423 67.3208 9.0895 62.5927C9.46448 58.1437 11.4583 54.0448 13.6459 50.225C11.3145 47.859 10.3439 44.3931 10.693 41.1295C10.1157 41.7337 9.98141 42.7809 9.14417 43.1022C8.77206 42.9583 8.62245 42.5527 8.49586 42.2084C7.46489 38.7645 8.12375 34.9245 10.0744 31.9275C9.16622 32.1059 8.20719 32.4511 7.28555 32.2037C6.63149 31.8536 7.27404 31.119 7.50517 30.6855C8.4479 28.8777 9.57094 27.1352 11.1351 25.7992C10.5022 25.7781 9.28706 25.9469 9.32063 24.9898C11.1466 23.2904 12.3464 20.818 14.6155 19.5204C13.7054 17.6848 13.3093 15.5222 13.8339 13.5168C14.0017 12.7966 14.8178 13.3365 15.2187 13.5303C15.6158 9.5445 16.8807 5.51462 19.3896 2.34596ZM19.9151 3.1247C17.2193 6.65108 16.1614 11.1768 16.0742 15.5538C15.5007 15.2805 15.1151 14.7597 14.6174 14.3828C14.3987 15.3889 14.7824 16.3546 15.5544 17.0087C15.2571 16.8552 14.9713 16.6836 14.6778 16.5253C14.6912 17.7577 15.2964 18.8443 15.7682 19.9395C13.6756 20.9494 12.2409 22.8531 10.9769 24.7395C12.263 24.3971 13.4953 23.767 14.8514 23.7507C12.0587 25.6151 9.61793 28.1402 8.30021 31.2629C10.6268 31.1315 12.3972 29.386 14.579 28.7876C10.295 31.3396 7.78329 36.8349 9.3494 41.6761C10.9136 39.1884 12.7818 36.7649 15.2945 35.1825C13.6785 36.8637 11.887 38.6791 11.583 41.1103C10.9548 44.9388 12.8595 48.7529 15.8363 51.0977C16.3791 48.5965 18.1936 46.4627 20.3726 45.191C18.9618 46.6554 17.4456 48.1745 16.8989 50.201C16.6928 50.7438 17.0936 51.2511 17.4197 51.6472C18.7345 53.0637 20.5078 53.9921 22.376 54.4447C20.8147 51.511 21.0938 47.65 23.3437 45.1536C22.3319 46.9681 21.7287 49.0847 22.1583 51.1639C22.705 54.5052 25.2263 57.1118 27.9404 58.9263C27.8579 58.1438 27.6009 57.3688 27.7054 56.5748C28.4036 58.7959 29.9179 60.6852 31.952 61.8322C30.6899 58.9024 30.5 55.2676 32.4056 52.565C30.4904 56.9795 32.2196 62.2628 36.0231 65.0623C35.8332 64.1281 35.4583 63.1576 35.7508 62.2053C36.2044 64.3439 37.3619 66.2275 38.7449 67.8885C40.0722 66.1479 41.177 64.2394 41.9318 62.188C42.0958 63.1662 41.6834 64.0936 41.4637 65.0249C45.0525 62.3165 46.7289 57.3362 45.0927 53.0752C46.913 55.633 46.5208 59.1105 45.3411 61.8562C47.4664 60.7562 48.997 58.7019 49.4055 56.3379C49.7163 57.226 49.4314 58.1447 49.2924 59.0328C51.2057 57.8714 52.8811 56.3091 54.124 54.4447C55.8464 51.7614 56.0785 48.1535 54.4836 45.3579C56.6396 47.8427 56.6674 51.6511 55.1847 54.4841C56.9676 53.9786 58.6152 53.0426 60.0221 51.8438C60.422 51.489 60.8545 51.0191 60.7299 50.435C60.2945 48.2963 58.7427 46.6564 57.2169 45.2063C59.4304 46.5173 61.2669 48.6944 61.8577 51.2329C65.7984 48.2292 67.82 42.2295 64.9237 37.8639C64.1814 36.7112 63.1006 35.8538 62.1723 34.8669C64.8345 36.5414 66.9041 39.0167 68.5949 41.6377C70.1793 36.9337 67.7673 31.8297 63.911 29.0245C65.855 29.69 67.5026 31.1296 69.6144 31.3108C68.2334 28.2592 65.9614 25.6199 63.1706 23.7709C64.4759 23.7018 65.6526 24.4077 66.8946 24.705C65.6056 22.9576 64.3579 21.0357 62.3363 20.0623C63.1083 19.0486 63.536 17.8344 63.7038 16.58C63.4113 16.8006 63.1169 17.0192 62.7927 17.189C63.5168 16.5119 64.0673 15.6027 63.7585 14.5756C63.3874 14.8662 63.0392 15.1827 62.6767 15.4838C62.6345 11.2957 61.6266 6.98387 59.1791 3.52462C58.6411 2.68546 57.6331 2.03715 56.6118 2.36706C53.0863 3.20046 50.0299 5.48872 47.7397 8.23733C45.9425 8.03113 44.6545 9.44955 43.4451 10.5275C43.3022 9.64711 43.3214 8.65451 42.6482 7.97263C42.2808 8.35625 41.9653 8.7859 41.574 9.14554C41.5155 7.6504 41.0533 6.0162 39.7538 5.13196C39.9398 6.35282 40.0233 7.75781 39.2244 8.79165C39.116 8.05991 39.2695 7.31569 39.1371 6.58491C38.3651 8.22102 36.8239 9.2424 35.8582 10.726C34.6718 9.36612 33.0885 8.21239 31.2327 8.1021C28.9828 5.87042 26.5171 3.66368 23.4405 2.66148C22.2887 2.25581 20.7255 1.95179 19.9151 3.1247ZM43.4288 7.38187C43.7338 7.85755 43.9323 8.38694 44.1299 8.91441C44.4483 8.2872 44.3457 7.54298 44.0129 6.9455C43.8134 7.08552 43.6187 7.23034 43.4288 7.38187ZM67.0854 41.1218C67.5409 45.2034 65.7265 49.4932 62.2988 51.8151C65.198 57.6182 67.587 64.6086 64.871 70.9335C68.7148 68.907 71.4519 64.8695 72.0523 60.5778C71.2486 61.111 70.6127 61.8639 69.7678 62.3386C70.5619 60.9039 71.6571 59.5967 71.9823 57.9356C73.3959 53.5672 72.1568 48.819 69.8743 44.981C69.8954 45.9304 69.952 46.8798 69.881 47.8303C69.0649 45.5468 68.5863 43.0907 67.0854 41.1218ZM9.91619 63.4108C9.78384 67.4426 11.9877 71.671 15.7903 73.2956C16.8606 70.8568 19.9516 70.2238 22.3146 70.8702C21.2559 68.7162 19.8576 66.7358 18.912 64.5204C17.0802 60.7456 16.2832 56.5479 16.2046 52.3713C15.4949 51.9541 14.8735 51.4132 14.2712 50.8579C12.098 54.7296 10.06 58.8851 9.91619 63.4108ZM61.4741 52.2284C61.5096 57.4484 60.094 62.6493 57.4538 67.1501C56.7642 68.439 55.8915 69.6234 55.2777 70.9536C57.6005 70.3034 60.7414 70.6554 61.9085 73.0673C64.1795 71.5665 64.9717 68.7104 65.174 66.1402C65.5442 61.2299 63.6837 56.5095 61.4741 52.2284ZM17.0524 52.4854C17.0677 57.3468 18.397 62.1506 20.7898 66.3761C22.2331 68.8092 23.7158 71.3056 24.133 74.1549C24.297 75.6999 25.1591 77.3389 26.825 77.6304C26.6543 76.799 26.3157 75.7459 27.0206 75.0669C27.0609 75.9301 26.8586 76.9591 27.5002 77.6554C28.3173 78.3449 29.5218 78.1685 30.4665 77.8731C31.5866 77.5106 31.0697 76.0672 31.3277 75.1983C32.0028 75.8064 31.5204 76.7817 31.5636 77.5595C32.912 77.4252 33.9228 76.2974 34.2863 75.0497C35.2089 72.1898 35.1581 69.1276 35.0027 66.1613C35.1053 65.0834 33.9458 64.6355 33.4615 63.8299C32.913 62.9006 31.7458 62.868 30.9978 62.1784C28.3844 60.246 25.4075 58.6559 23.4338 55.9974C23.2228 55.7481 23.0214 55.4297 22.6656 55.3894C20.5797 54.9377 18.6406 53.9048 17.0524 52.4854ZM54.4817 55.5457C51.8473 58.8448 48.107 61.0468 44.5816 63.2506C43.9074 64.1157 43.0107 64.7851 42.3528 65.6492C42.091 67.7619 42.183 69.9121 42.3624 72.0316C42.5532 74.1578 42.9215 77.1413 45.4754 77.6237C45.5425 76.8402 45.0764 75.8342 45.7238 75.2146C45.9003 75.9617 45.7267 76.774 46.0173 77.4914C46.9811 78.3392 48.5539 78.3363 49.6089 77.6506C50.3358 77.0099 50.1622 75.9473 50.2322 75.0842C50.8748 75.792 50.5017 76.8191 50.4068 77.6563C52.2011 77.3763 53.0019 75.5676 53.3079 73.9775C54.0013 70.6525 56.161 67.9557 57.6667 64.9865C59.6327 61.1264 60.6378 56.7838 60.6081 52.4538C58.8415 53.9499 56.7288 55.0029 54.4817 55.5457ZM38.8398 69.4968C37.8117 68.4678 37.0656 67.153 35.862 66.3023C36.0183 69.0576 35.8716 71.8206 35.3806 74.5366C37.5557 74.7207 39.7423 74.7188 41.9193 74.574C41.412 71.8215 41.295 69.0106 41.4388 66.2188C40.38 67.1501 39.6157 68.3374 38.8398 69.4968ZM17.8503 72.116C16.8261 72.6732 16.2669 74.1041 16.9095 75.1379C17.5549 76.0154 18.7297 76.2044 19.7454 76.2945C19.5727 75.4592 19.3186 74.3879 20.0686 73.7511C20.0273 74.6315 19.9084 75.6328 20.5615 76.3386C21.6347 76.4374 22.6618 76.0547 23.6582 75.7162C23.3408 74.4378 23.1576 73.1019 22.6551 71.8839C21.1532 71.225 19.2812 71.2912 17.8503 72.116ZM54.9776 71.8992C54.1883 72.9666 54.1173 74.4052 53.6618 75.6366C54.7742 76.0097 55.9817 76.4422 57.1594 76.2063C57.8019 75.5465 57.6964 74.5539 57.6466 73.7137C58.5183 74.2729 58.1501 75.441 57.9966 76.2734C59.5224 76.2935 61.6937 75.324 61.0569 73.4414C60.071 71.2413 56.9532 71.1061 54.9776 71.8992Z" fill="black"/>
<path d="M20.5978 6.67975C21.4983 5.27284 23.3742 5.74564 24.4589 6.6481C26.5784 8.17009 28.2739 10.257 29.5015 12.5471C28.133 12.1933 26.797 11.4816 25.3393 11.7214C25.7517 12.3179 26.1525 12.9269 26.4796 13.5762C25.9128 13.5311 25.3354 13.4726 24.785 13.6558C25.3364 14.0212 26.0221 14.2082 26.4316 14.7673C24.5107 14.5496 22.4209 14.5688 20.7906 15.7609C21.5137 16.0486 22.2742 16.2663 22.9196 16.717C21.2576 17.0489 19.6378 17.6761 18.2021 18.5737C19.2906 19.0859 20.5412 19.1396 21.5914 19.7447C19.9715 20.2233 18.4026 20.8332 16.8374 21.4652C17.478 20.7335 18.2808 20.1705 19.1564 19.7543C18.4054 19.4455 17.5759 19.2153 17.035 18.5641C18.0276 17.3864 19.5265 16.8858 20.9709 16.5262C20.4923 16.296 19.9869 16.1253 19.5237 15.8645C20.5201 14.5093 22.3269 14.073 23.9084 13.8006C23.6734 13.5848 23.4356 13.3719 23.215 13.1398C23.7818 12.6795 24.5183 12.7974 25.1935 12.8022C24.9758 12.3227 24.6401 11.9171 24.2277 11.5939C25.4774 10.8448 27.0627 11.1047 28.3631 11.5862C27.2727 9.79566 25.8217 8.20941 24.1098 6.99623C23.262 6.3297 21.811 5.81086 21.0553 6.88594C19.2724 9.34971 19.0883 12.526 18.8274 15.4501C18.2328 12.5107 18.955 9.20393 20.5978 6.67975Z" fill="black"/>
<path d="M55.5596 6.05157C56.4572 5.50588 57.7184 5.78016 58.2381 6.71618C59.5635 8.88361 60.1476 11.4404 60.3145 13.955C60.3058 14.4892 60.4372 15.1087 60.0622 15.5576C59.7199 12.6382 59.4801 9.52616 57.8248 6.99526C57.4067 6.27311 56.44 6.02663 55.7283 6.46875C53.605 7.61672 52.0082 9.56357 50.7778 11.5996C52.1761 11.1834 53.7671 10.8343 55.1318 11.5526C54.7588 11.9324 54.4279 12.3505 54.1344 12.7955C54.7731 12.8502 55.433 12.902 56.0103 13.2098C55.8281 13.4832 55.6305 13.7459 55.4263 14.003C56.6289 14.3712 57.9648 14.7443 58.7992 15.7436C58.6544 16.3056 57.8104 16.2433 57.3827 16.554C58.7752 16.904 60.2799 17.4421 61.0961 18.7022C60.6099 19.1559 60.0306 19.4839 59.4389 19.7744C60.2464 20.2444 61.0481 20.7632 61.6667 21.4767C60.1054 20.8946 58.5537 20.2722 56.9588 19.7773C57.9456 19.2805 59.0946 19.2067 60.0469 18.6294C58.5546 17.7125 56.8965 17.0268 55.1635 16.7477C55.9537 16.3401 56.7919 16.0332 57.6311 15.7426C56.0813 14.7759 54.2179 14.586 52.4398 14.822C53.0852 14.2005 53.9829 13.9895 54.7386 13.5417C54.1296 13.5052 53.5264 13.6002 52.9203 13.6519C53.1859 12.9825 53.5446 12.3544 53.9714 11.7751C52.4331 11.4145 51.0003 12.1932 49.5732 12.6219C51.0502 10.0469 52.8953 7.49684 55.5596 6.05157Z" fill="black"/>
<path d="M29.4104 25.3591C30.1623 24.7395 31.4675 24.9332 31.8301 25.8932C31.0417 25.5518 30.1191 25.8817 29.4104 25.3591Z" fill="black"/>
<path d="M46.0078 25.8615C46.3886 24.8622 47.6871 24.6032 48.4495 25.3359C47.6737 25.6822 46.8163 25.6361 46.0078 25.8615Z" fill="black"/>
<path d="M28.2271 30.1649C28.9598 28.9459 30.7647 28.5057 31.9021 29.4235C33.3973 30.512 33.3532 33.0976 31.6336 33.954C29.8229 35.149 27.3438 33.3172 27.7274 31.2371C27.5193 31.1421 27.3112 31.0462 27.1079 30.9465C27.551 30.7959 27.9998 30.6031 28.2271 30.1649ZM29.8105 30.1361C28.8888 30.5868 29.844 32.0829 30.6506 31.4586C31.4552 30.9273 30.6573 29.6211 29.8105 30.1361ZM31.7573 33.3834C32.1266 33.1196 32.3625 32.7245 32.4939 32.2958C32.211 32.6305 31.9654 32.9969 31.7573 33.3834Z" fill="black"/>
<path d="M45.02 32.0675C44.8416 30.5925 45.9541 29.0303 47.4799 28.9267C48.7075 28.8269 49.7279 29.7562 50.3168 30.7441C50.5767 30.815 50.8366 30.886 51.0936 30.9675C50.8327 31.0778 50.5671 31.1756 50.2986 31.2686C50.3398 32.4416 49.7692 33.6384 48.6624 34.1295C47.1702 34.8152 45.1562 33.7324 45.02 32.0675ZM47.2776 30.1188C46.3301 30.4909 47.3399 32.2075 48.1283 31.47C48.8073 30.8812 48.1158 29.7553 47.2776 30.1188Z" fill="black"/>
<path d="M37.083 31.5152C38.2885 31.0193 39.7415 30.9273 40.9259 31.5353C39.6446 31.4336 38.3633 31.4039 37.083 31.5152Z" fill="black"/>
<path d="M38.1667 33.2556C39.4604 33.0533 41.0946 33.4494 41.7429 34.6875C42.3663 36.4636 40.384 37.6998 38.9579 38.1458C37.5778 37.8015 35.8631 36.69 36.0203 35.0701C36.169 34.0277 37.2182 33.434 38.1667 33.2556ZM37.4781 34.2924C38.3134 34.5743 39.3712 35.0538 40.1106 34.3048C39.3607 33.7275 38.2319 33.7189 37.4781 34.2924ZM37.0005 36.29C37.1789 36.3965 37.3572 36.502 37.5375 36.6094C37.5452 36.3811 37.5433 36.1539 37.5308 35.9266C37.3524 36.0455 37.176 36.1654 37.0005 36.29Z" fill="black"/>
<path d="M30.6667 38.5947C30.7003 37.7431 31.8003 37.4947 32.1926 38.2485C33.7548 40.3152 36.9197 40.5473 38.8483 38.8719C41.1107 40.741 44.686 40.251 46.2588 37.7325C46.6203 37.8323 46.9407 38.0366 47.1641 38.3435C45.6469 38.9937 44.6457 40.7535 42.7746 40.813C42.5933 42.0338 42.3191 43.3218 41.4156 44.2319C40.0759 45.6034 37.5709 45.5842 36.2896 44.1408C35.4658 43.223 35.1416 41.9782 35.0591 40.7746C33.5132 40.4859 32.2808 39.4511 31.3237 38.2571C31.1079 38.3741 30.8892 38.4883 30.6667 38.5947ZM35.6979 40.7717C35.8206 41.8257 36.1237 42.9104 36.8276 43.7304C37.8202 44.8026 39.6184 44.7901 40.7366 43.9241C41.6314 43.1482 41.9575 41.9322 42.1033 40.7995C41.3207 40.8034 40.54 40.5809 39.7603 40.6883C39.1974 40.9607 39.1811 41.6915 38.996 42.2132C38.7092 41.6953 38.552 41.0959 38.154 40.6461C37.3417 40.5301 36.5169 40.7708 35.6979 40.7717Z" fill="black"/>
<path d="M35.6846 45.4077C37.7264 46.2095 39.9456 46.0694 42.0363 45.565C40.1949 46.8683 37.4904 46.7149 35.6846 45.4077Z" fill="black"/>
</svg>
