<svg width="80" height="80" viewBox="0 0 80 80" fill="none" xmlns="http://www.w3.org/2000/svg">
<rect width="80" height="80" fill="white"/>
<path d="M51.8465 1.14927C55.9291 0.277861 60.2549 3.33235 60.9378 7.43125C61.4543 9.74706 60.3984 12.2057 58.5701 13.6528C62.3776 17.846 65.2892 23.3609 64.6776 29.1871C65.4254 28.3413 66.25 27.4479 67.4146 27.2237C70.4423 26.5802 73.7351 29.2713 73.4005 32.4347C72.6591 38.3203 69.3462 43.8847 64.4134 47.2056C62.0384 48.7415 59.3471 49.7786 56.5617 50.2527C56.9904 51.8665 57.4055 53.4866 57.6916 55.1324C57.7538 55.8802 58.6478 56.0285 59.1433 56.4294C60.9442 57.4336 62.4992 58.7892 63.9554 60.2318C64.6337 59.7357 65.3449 59.2331 66.1805 59.0043C66.1896 56.2665 65.7627 53.5287 64.9784 50.9118C65.4162 49.926 66.1595 51.1397 66.4282 51.634C67.7254 54.0358 68.8206 56.6656 68.9815 59.4235C70.1059 57.6926 71.5164 56.1127 73.2579 54.9896C73.5825 54.7425 74.1392 54.8688 74.1401 55.3338C72.4864 58.9997 71.3181 62.9531 70.7659 66.9531C72.4717 67.6488 74.4866 68.3161 75.3861 70.0689C75.952 71.1866 75.2764 72.4488 74.3485 73.1225C72.245 74.6758 69.6918 75.4301 67.2034 76.1084C59.4952 78.0736 51.5046 78.4901 43.5879 78.7235C33.1144 78.7482 22.4352 78.4599 12.3337 75.4017C10.0986 74.545 7.09188 73.8081 6.25817 71.2708C6.2664 68.4964 9.53544 67.5307 11.6746 66.7087C10.7522 62.2556 8.81965 57.8061 5.41531 54.6885C4.95183 54.4624 4.79643 53.5873 5.49942 53.6715C9.42756 54.3187 12.703 57.1086 14.5578 60.5622C15.0533 58.5851 16.0232 56.4679 17.7739 55.3402C17.889 55.407 18.006 55.4729 18.1231 55.5388C18.049 50.4331 20.222 45.6238 22.8392 41.3574C18.7675 36.7249 17.9539 30.0942 19.0646 24.2076C16.526 24.1554 14.0697 22.5307 13.3557 20.0318C12.6098 17.6162 13.0687 14.8437 14.5981 12.8226C16.217 10.5864 19.1954 9.2839 21.9123 10.0409C23.3118 10.4272 24.3558 11.478 25.3714 12.4528C27.8223 9.83036 31.0228 8.00151 34.4299 6.93239C35.4885 5.96121 36.7381 5.16761 38.071 4.61658C38.7895 4.4152 38.9796 5.29118 38.9888 5.81933C41.6938 5.75984 44.4271 5.7754 47.0572 6.50493C47.4475 3.98682 49.2649 1.63806 51.8465 1.14927ZM55.0561 2.2852C55.0296 2.69894 55.0469 3.1145 55.099 3.52549C56.0827 3.85044 56.8734 4.50765 57.6395 5.13924C57.613 3.97675 56.2289 3.33602 55.1841 3.25638C55.1749 2.98544 55.2544 2.58818 55.6128 2.68429C56.6851 2.87285 57.6879 3.52458 58.2181 4.49209C58.2812 4.44358 58.4074 4.34747 58.4705 4.29895C57.8497 3.05409 56.4291 2.26232 55.0561 2.2852ZM34.7379 7.36077C27.634 9.45049 21.7285 15.3215 19.9176 22.56C18.5417 28.0328 18.6917 34.2388 21.7898 39.1203C23.3393 41.6934 25.8102 43.6156 28.5756 44.7296C34.1556 47.0014 40.4085 46.7168 46.186 45.4069C50.5072 44.303 54.5432 42.173 57.9786 39.3355C62.2213 35.9258 65.1877 30.3962 64.0121 24.8529C63.065 19.7792 59.9313 15.3837 56.1988 11.9475C51.8501 7.97496 45.9081 5.89622 40.0364 6.32918C39.9313 6.8436 39.4102 6.91774 38.9806 7.01202C39.0016 6.79875 39.0208 6.58547 39.0363 6.3722C38.6003 6.36945 38.1724 6.45641 37.7446 6.53879C37.8607 6.10218 38.1313 5.71682 38.167 5.26006C36.9776 5.87059 35.6558 6.35206 34.7379 7.36077ZM51.7477 8.32645C53.5413 9.22166 55.0981 10.4857 56.6723 11.7041C57.783 10.5288 57.4128 8.38229 56.0196 7.59144C54.6822 6.66877 52.7597 7.13468 51.7477 8.32645ZM16.4191 12.4977C15.5808 13.1009 14.9189 14.0876 14.9783 15.1567C15.2105 15.6464 15.8413 15.6473 16.3075 15.7197C16.0315 14.7338 17.5846 13.8936 16.8012 13.154C16.3368 13.7938 16.0717 14.538 15.7453 15.2501C15.5945 15.1082 15.4446 14.9654 15.2965 14.819C15.5607 13.9897 16.0251 13.229 16.6997 12.6716C16.9145 12.483 16.5626 12.3439 16.4191 12.4977ZM17.7291 17.5027C16.8505 18.9261 17.9613 20.9627 19.6131 21.0543C20.0318 21.1614 20.0894 20.6277 20.2083 20.3531C20.6544 18.8886 21.425 17.5595 22.1637 16.2295C20.6452 15.3911 18.5216 15.9128 17.7291 17.5027ZM67.7922 28.301C66.9621 28.7157 66.6952 30.0173 67.3616 30.6827C68.8096 31.2603 69.2941 27.8763 67.7922 28.301ZM70.2851 29.2402C69.6241 29.6017 69.1369 30.5473 69.5382 31.2512C70.8427 32.2223 72.1408 28.8356 70.2851 29.2402ZM71.8492 31.4159C70.9442 31.5267 70.3719 33.123 71.4479 33.3674C72.6655 33.6924 73.2351 31.2841 71.8492 31.4159ZM53.4755 43.0298C54.3083 44.8559 55.1219 46.7094 55.5525 48.6802C52.6281 46.4193 48.7986 45.4417 45.1603 46.1776C40.7897 46.7973 36.1531 48.2252 33.2872 51.7987C33.0961 51.9571 32.9864 52.401 32.6902 52.2903C32.0311 50.5044 32.2359 48.498 32.8639 46.7314C32.1691 48.066 32.1106 49.6257 32.256 51.0939C32.7899 53.7878 34.8303 55.8638 37.0014 57.3878C38.4522 58.3901 39.8106 60.0707 39.4587 61.9444C39.0884 61.3366 38.6661 60.5512 37.8826 60.4606C39.3453 61.0611 39.8929 62.8808 38.5966 63.9709C38.4055 63.1535 37.8607 62.1641 36.9246 62.1256C37.6349 62.565 38.5125 63.2021 38.4183 64.1449C37.985 64.803 37.1623 65.051 36.4666 65.3339C36.3962 64.7096 36.462 63.9563 35.9355 63.5032C36.0543 64.1412 36.282 64.7572 36.3249 65.4089C32.9444 65.8062 29.4843 65.0739 26.3697 63.7558C24.1236 62.6702 21.7486 61.7412 19.8572 60.0688C21.0465 61.5004 22.8676 62.1723 24.4719 63.0208C27.3351 64.5806 30.5273 65.4501 33.7735 65.6323C34.567 67.1344 34.2251 68.9522 33.5897 70.4534C39.775 72.0598 46.9155 71.6021 52.2286 67.7888C56.0964 64.8707 58.0207 59.6844 57.1925 54.9356C56.218 50.9081 55.5461 46.6683 53.4755 43.0298ZM66.2152 52.7864C66.4282 54.8139 66.8213 56.8295 66.8058 58.8771C67.5554 58.8569 68.2246 59.2093 68.5802 59.8775C68.3388 57.3796 67.4466 54.9585 66.2152 52.7864ZM6.3057 54.5905C9.55189 57.7777 11.1791 62.1961 12.2861 66.5165C13.5587 66.1412 14.8421 65.8025 16.121 65.4529C16.3368 64.1577 15.8221 62.9265 16.1101 61.6423C16.3596 60.1119 16.6348 58.5851 16.9173 57.061C15.7152 58.4816 15.0049 60.2876 14.7763 62.1247C14.2863 61.8519 14.2105 61.2487 13.9581 60.7975C12.3904 57.8263 9.66799 55.266 6.3057 54.5905ZM16.5882 62.2483C16.9868 60.8606 17.612 59.505 18.709 58.5274C18.4339 57.7036 18.2721 56.8514 18.156 55.9937C17.0946 57.8821 17.1266 60.1787 16.5882 62.2483ZM69.1195 60.8231C69.5748 61.7888 69.0062 62.7242 68.9458 63.7027C70.5822 62.1723 70.8519 59.7924 71.926 57.9105C71.2651 59.7466 70.6462 61.6524 69.7119 63.3632C68.624 63.97 68.1761 65.0712 67.8525 66.2199C68.6496 66.3115 69.3974 66.6227 70.1882 66.7499C70.6955 63.3174 71.6591 59.9645 72.7807 56.6885C72.4379 56.9594 72.2725 57.3722 72.0284 57.7228C72.0832 57.3869 72.1728 57.0592 72.2633 56.7315C70.8683 57.7173 69.8042 59.2707 69.1195 60.8231ZM66.9676 59.8931C66.1531 60.0743 66.1394 61.656 67.1431 61.2862C68.0509 61.2414 67.9009 59.3613 66.9676 59.8931ZM68.0719 62.2757C68.9257 62.6199 69.2027 61.2469 68.4741 60.9476C67.985 61.1517 67.6569 61.8638 68.0719 62.2757ZM66.4822 62.3947C64.3193 63.3705 63.3777 65.906 62.8822 68.0772C62.618 68.7829 63.0166 70.2667 63.9938 69.6854C65.717 68.3609 67.0544 66.3957 67.5435 64.2657C67.7245 63.516 67.5984 62.0506 66.4822 62.3947ZM23.0449 63.0043C21.819 63.2817 23.0696 65.3348 23.9719 64.6309C24.5103 64.0158 23.9207 62.7691 23.0449 63.0043ZM21.0173 64.0661C20.0849 64.6355 21.1288 66.133 22.011 65.7888C22.8484 65.2341 21.8976 63.6762 21.0173 64.0661ZM28.0262 65.0071C29.3078 67.0932 30.6553 69.4255 30.3774 71.9738C30.0766 73.5903 28.3553 74.5312 26.8103 74.48C23.694 74.5468 20.8957 72.1953 20.0282 69.2607C20.1543 70.2081 20.6836 71.0557 21.1855 71.8548C18.3489 71.3495 16.5205 68.6703 16.1777 65.9444C13.5065 66.6968 10.701 67.246 8.32417 68.749C7.42738 69.333 6.36238 70.3362 6.81489 71.5179C7.59559 73.0017 9.26667 73.6589 10.7184 74.2996C16.612 76.545 22.9425 77.3166 29.1871 77.8521C37.069 78.4278 44.993 78.4269 52.8731 77.8082C57.8461 77.4026 62.8301 76.8031 67.655 75.4878C70.0584 74.7756 72.6034 74.0461 74.4994 72.3225C75.3742 71.5966 75.2444 70.2117 74.4162 69.506C72.5595 67.8291 70.0072 67.2048 67.6596 66.6218C66.4584 68.8525 64.3467 71.5976 61.468 70.8992C59.9112 70.2099 58.2054 70.6072 56.5653 70.5376C54.3942 70.5852 52.2633 70.0882 50.1607 69.657C44.9491 72.1257 38.891 72.3271 33.3557 70.923C32.4141 71.3696 31.4826 71.8905 30.445 72.1037C30.7723 69.5344 29.519 67.0227 28.0262 65.0071ZM24.5862 65.5096C23.1427 65.5764 21.9461 66.8753 21.9607 68.3161C21.9141 70.6529 23.9655 72.6054 26.1019 73.193C27.7382 73.7056 29.5693 72.1944 29.1542 70.4616C28.7484 68.2209 27.0754 65.6048 24.5862 65.5096ZM20.0702 65.8575C19.349 66.4112 20.1991 67.5746 20.9835 67.2662C21.8016 66.7701 20.8125 65.4035 20.0702 65.8575ZM19.8335 67.7513C19.6762 68.3435 20.1882 69.0136 20.8235 68.7371C21.191 68.1852 20.3628 67.3852 19.8335 67.7513Z" fill="black"/>
<path d="M4.47463 3.04227C5.52592 2.3759 6.06984 4.03541 6.93098 4.28896C7.73087 4.18553 8.86078 3.4139 9.46778 4.26791C9.53543 5.19241 8.73096 5.91369 8.64869 6.81256C9.01435 7.59701 9.91754 8.24415 9.79596 9.18329C9.09571 9.9714 7.88171 9.25469 6.98949 9.36819C6.39711 10.0071 6.04699 11.0378 5.14471 11.2803C4.16839 10.7769 4.47098 9.43501 4.12725 8.54988C3.41878 8.19838 2.42051 8.14987 2 7.40661C2.09142 6.34482 3.45352 6.15534 4.1108 5.5082C4.24335 4.69904 4.03858 3.76264 4.47463 3.04227ZM4.89515 3.43861C4.72237 4.21116 4.76899 5.00385 4.705 5.78555C4.066 6.35489 3.21126 6.64505 2.62346 7.28304C3.23412 7.77641 4.11171 7.81577 4.68032 8.34942C4.89058 9.09908 4.94725 9.88719 5.18036 10.6341C5.8669 10.1252 6.16857 9.21258 6.92184 8.79244C7.67877 8.8437 8.42198 9.04233 9.18622 9.03226C9.11217 8.15353 8.28485 7.59884 8.03894 6.79608C8.18887 6.01072 8.76753 5.35167 8.86626 4.54709C8.15413 4.30269 7.4228 4.88485 6.69787 4.9416C6.00311 4.55807 5.63287 3.76447 4.89515 3.43861Z" fill="black"/>
<path d="M67.1366 9.18974C67.6531 8.83825 68.0032 8.07668 68.6934 8.09316C69.2657 8.49957 69.0207 9.3188 69.145 9.91652C69.635 10.3852 70.4258 10.5344 70.6991 11.2218C70.3965 11.9605 69.5006 11.9907 68.89 12.3486C68.6934 13.0232 68.879 13.9614 68.2016 14.3889C67.4447 14.2076 67.1339 13.3875 66.696 12.8273C66.0725 12.8474 65.4207 13.1184 64.8156 12.9765C64.2579 12.4749 64.9463 11.7847 65.2736 11.3563C66.1146 10.592 64.672 9.70965 65.0688 8.78516C65.8047 8.47486 66.4684 8.96639 67.1366 9.18974ZM67.1366 9.86343C66.6119 9.69684 66.1895 9.23642 65.5999 9.25107C65.7343 9.82224 66.0881 10.3055 66.2554 10.8648C66.0021 11.4488 65.428 11.8406 65.2242 12.4612C65.8156 12.4703 66.3989 12.2992 66.9903 12.3513C67.4337 12.6241 67.5379 13.2365 67.9895 13.5047C68.3296 13.0351 68.2702 12.3925 68.5069 11.8726C68.9905 11.6566 69.5107 11.5184 69.9568 11.2227C68.826 10.7678 68.4119 9.90096 68.4823 8.70186C67.9447 8.98562 67.6979 9.62269 67.1366 9.86343Z" fill="black"/>
<path d="M47.2566 17.3847C46.6057 16.8758 47.071 15.7325 47.87 15.7279C49.1571 15.6071 50.6115 16.3229 51.1171 17.5513C49.8994 16.9664 48.5163 16.8044 47.2566 17.3847Z" fill="black"/>
<path d="M73.2406 16.4776C74.067 16.0922 74.5734 17.1449 75.2536 17.4012C75.8642 17.2327 76.4146 16.7238 77.0892 16.884C77.699 17.4835 77.0188 18.3128 76.8735 18.9737C77.1404 19.7234 78.2767 20.214 77.9028 21.1431C77.2912 21.4314 76.5937 21.1705 75.9511 21.1586C75.4309 21.7124 75.2472 22.884 74.3385 22.8602C73.6428 22.4474 73.748 21.4671 73.4097 20.8117C72.8731 20.5756 72.0988 20.7733 71.7185 20.2387C71.6134 19.3929 72.6647 19.1293 73.1291 18.6057C73.2141 17.9174 72.7342 17.0561 73.2406 16.4776ZM73.6319 16.9417C73.5843 17.6089 73.6821 18.2744 73.6858 18.9408C73.2397 19.2831 72.6702 19.5101 72.3712 20.0099C72.8283 20.1554 73.3192 20.1637 73.7699 20.3248C74.1319 20.9325 74.1758 21.6822 74.5387 22.2973C75.0068 21.7875 75.1411 21.0149 75.7134 20.6039C76.2409 20.506 76.7619 20.7696 77.2976 20.7211C77.1057 20.1069 76.5837 19.6977 76.2573 19.1659C76.3295 18.571 76.7537 18.0501 76.7309 17.4259C76.176 17.5394 75.7088 17.9229 75.1475 17.9861C74.5798 17.7362 74.2233 17.1558 73.6319 16.9417Z" fill="black"/>
<path d="M48.6252 19.7298C51.9746 19.166 53.3779 23.1074 56.1222 24.1829C57.8317 24.8255 59.8072 26.128 59.4753 28.2416C59.3309 31.4178 54.42 33.1222 52.791 30.1446C48.584 29.9697 45.5234 25.2319 46.998 21.3115C47.2832 20.5838 47.8582 19.9486 48.6252 19.7298ZM49.9425 22.8493C47.9258 23.3006 47.2941 26.3422 48.8912 27.6027C50.1024 28.7194 52.1483 28.312 52.9546 26.9116C54.1403 25.0077 52.1447 22.1976 49.9425 22.8493ZM55.9842 25.4241C56.7283 27.6265 54.8543 29.5304 52.8906 30.1208C53.5132 31.1176 54.6888 31.6677 55.8534 31.5322C58.073 31.4105 59.9836 28.94 59.1289 26.7825C58.7422 25.5431 57.1579 24.6132 55.9842 25.4241Z" fill="black"/>
<path d="M31.2841 20.225C32.0246 19.944 32.8025 21.1239 31.9003 21.4415C30.721 21.7848 29.9257 22.7193 29.2291 23.6502C29.1761 22.2681 29.9604 20.7431 31.2841 20.225Z" fill="black"/>
<path d="M10.6224 23.8698C10.9799 23.6693 11.2925 23.2611 11.7404 23.3142C12.1911 23.7709 11.9406 24.4895 11.9059 25.0542C12.2953 25.4854 13.1309 25.7444 13.0632 26.4263C12.7488 26.8931 12.0896 26.7925 11.6024 26.884C11.2596 27.4112 11.2431 28.1151 10.8107 28.5792C9.9569 28.6689 9.8664 27.5586 9.40384 27.0726C8.86448 26.9234 8.25199 27.143 7.74006 26.8593C7.41188 26.1462 8.35712 25.7627 8.68988 25.2547C8.68256 24.7101 8.21817 24.0794 8.59663 23.6016C9.30968 23.2949 9.95873 24.4391 10.6224 23.8698ZM9.00343 24.1114C9.32796 25.078 9.253 25.781 8.35621 26.3796C9.47148 26.3549 10.0831 26.8959 10.5932 27.8305C10.7669 26.8529 11.4168 26.2872 12.3849 26.1645C12.0778 25.8927 11.7395 25.6602 11.3848 25.4552C11.4049 24.9618 11.4232 24.4693 11.4095 23.976C10.6306 24.6011 9.84263 24.8464 9.00343 24.1114Z" fill="black"/>
<path d="M49.9414 23.3069C51.5997 23.1622 52.8924 25.1586 52.3192 26.6607C51.9133 27.8323 50.4552 28.1948 49.4103 27.6877C47.5436 26.873 47.8142 23.554 49.9414 23.3069ZM49.3134 24.333C49.4341 25.198 50.468 25.6904 50.9872 24.83C51.6299 23.7838 49.722 23.446 49.3134 24.333ZM51.2231 23.9906C52.3146 25.1394 52.2479 27.2016 50.5768 27.7728C52.5047 27.6914 52.9335 24.7202 51.2231 23.9906Z" fill="black"/>
<path d="M32.322 23.7975C34.1622 23.4698 35.601 25.0991 36.3287 26.5948C37.9669 29.392 37.3681 33.5166 34.3889 35.134C33.7563 35.2676 34.1878 35.9083 34.1247 36.3376C33.9684 37.6411 32.8924 38.8246 31.5605 38.9573C29.2385 39.3519 26.6075 37.7097 26.3991 35.263C26.2931 33.4159 28.1634 32.4172 28.7677 30.8355C29.808 28.4785 29.4853 24.8849 32.322 23.7975ZM31.906 27.8872C30.4287 29.046 30.5 31.7207 32.2909 32.539C34.5059 33.8461 37.4879 31.0067 35.964 28.8016C36.8672 30.6213 35.0087 32.971 33.0478 32.2378C30.9973 31.4689 31.2862 28.2479 33.2123 27.5165C34.27 27.2474 35.2244 27.9266 35.8991 28.668C35.2208 27.2062 33.0533 26.6579 31.906 27.8872ZM32.4545 31.6667C33.0414 32.279 34.0141 32.3101 34.7573 32.0035C33.1959 32.3614 31.5961 30.7294 32.4189 29.2145C33.1566 30.2909 34.6732 28.9536 33.5177 28.2231C31.7076 27.9861 31.2304 30.6607 32.4545 31.6667ZM26.5417 34.9372C26.517 37.5615 29.4935 39.3564 31.8859 38.7441C33.3047 38.4191 34.2682 36.7715 33.8687 35.3811C31.9572 35.7839 29.3016 34.9665 28.9003 32.8127C27.6095 32.5664 26.6158 33.7353 26.5417 34.9372Z" fill="black"/>
<path d="M39.5081 30.5354C40.989 28.5784 43.7763 27.7976 46.1248 28.2049C43.7086 28.0529 41.2669 28.8511 39.5081 30.5354Z" fill="black"/>
<path d="M43.1343 32.6982C44.3081 32.3742 45.3795 31.7463 46.5633 31.4515C47.2773 31.295 47.9135 32.0758 47.7133 32.755C47.3541 33.955 46.1163 34.506 45.4151 35.458C45.1244 36.4365 46.3476 36.6379 47.0213 36.3578C48.6202 36.0392 49.6669 34.485 49.7016 32.9069C50.4805 32.9966 49.8836 34.0859 49.7684 34.5765C48.9173 35.7463 49.1723 37.2914 48.5041 38.5491C47.8377 40.2132 45.8576 41.1615 44.1381 40.6965C42.6123 40.3926 41.6881 39.0251 40.678 37.9779C39.8397 37.674 39.0828 37.0955 38.707 36.269C38.7655 36.2122 38.8825 36.0978 38.9401 36.0401C40.0326 37.7793 42.4606 38.1683 44.2057 37.231C44.8548 37.026 45.225 36.3541 45.1601 35.6923C43.9305 35.555 42.6736 35.5779 41.4669 35.2786C40.7145 35.0891 40.2145 33.9605 40.8562 33.3921C41.5071 32.8914 42.3719 32.9033 43.1343 32.6982ZM45.8119 37.1596C45.7086 37.5843 45.6062 38.0081 45.4874 38.4273C45.0458 36.8365 43.5292 38.0246 42.5191 38.29C42.7156 39.1312 43.3811 39.8955 44.2084 40.1647C46.4363 40.777 48.6613 38.7514 48.207 36.453C47.4089 36.6928 46.578 36.8292 45.8119 37.1596Z" fill="black"/>
<path d="M6.28762 33.0919C7.10031 32.8164 7.41387 33.772 8.01447 34.0695C8.5072 33.9578 8.95148 33.5725 9.48261 33.686C9.89947 34.2782 9.25316 34.9079 9.22756 35.5212C9.45244 36.0759 10.2788 36.4448 10.0668 37.1231C9.62156 37.459 8.97251 37.2411 8.44961 37.2567C8.01904 37.7354 7.88649 38.6087 7.1771 38.7451C6.52987 38.4183 6.62952 37.5368 6.3443 36.9611C5.81683 36.6974 5.05167 36.7432 4.73172 36.1766C4.66498 35.4517 5.58372 35.2411 6.07005 34.9153C6.16969 34.3102 6.12856 33.6878 6.28762 33.0919ZM6.24831 35.4398C5.81774 35.6265 4.95569 36.0723 5.87076 36.2315C6.95313 36.2288 6.96958 37.2768 7.26212 38.0494C7.65612 37.0617 8.34631 36.5098 9.44604 36.7157C8.6425 36.0494 8.45235 35.1963 9.02096 34.2864C8.10406 34.8237 7.26851 34.5949 6.76664 33.6603C6.46862 34.2251 6.96593 35.1487 6.24831 35.4398Z" fill="black"/>
<path d="M75.42 40.1136C76.2583 39.6376 76.9119 41.093 76.0864 41.4985C75.2874 41.9296 74.6493 40.52 75.42 40.1136ZM75.5836 40.5246C75.569 40.7415 75.6074 40.9548 75.7143 41.147C76.0599 40.9822 75.9904 40.5044 75.5836 40.5246Z" fill="black"/>
<path d="M13.7498 40.2159C14.7069 40.1857 14.5095 41.6201 15.0351 42.0933C15.6686 42.3093 16.6596 42.2425 16.8643 43.0443C16.6522 43.7226 15.9099 43.956 15.4538 44.4265C15.1357 45.1002 15.7262 46.0347 15.1055 46.5959C14.2398 47.0178 13.7452 45.4013 12.8822 45.913C12.3932 46.1135 11.7487 46.5638 11.255 46.2132C10.9031 45.5157 11.5512 44.8091 11.65 44.118C11.3775 43.4581 10.4433 43.0553 10.5411 42.258C11.01 41.5999 11.948 41.923 12.6254 41.8407C13.1437 41.4324 13.1784 40.5738 13.7498 40.2159ZM13.8604 40.8301C13.5459 41.3235 13.3521 41.8937 12.9846 42.3523C12.3511 42.4329 11.7075 42.3514 11.074 42.4484C11.3154 43.0425 11.8812 43.3995 12.2213 43.924C12.203 44.5546 11.7999 45.1048 11.6975 45.7244C12.3082 45.719 12.7707 45.2668 13.332 45.1167C13.8705 45.3418 14.2782 45.7876 14.7928 46.0595C14.8449 45.4279 14.7618 44.789 14.8477 44.161C15.2444 43.7272 15.9346 43.6274 16.2253 43.0736C15.7125 42.7148 15.0424 42.7743 14.5122 42.4832C14.1877 41.9798 14.2005 41.3308 13.8604 40.8301Z" fill="black"/>
<path d="M45.1182 42.0403C46.0506 41.8911 46.9236 41.5506 47.7903 41.1881C47.1101 41.8929 46.0689 42.1346 45.1182 42.0403Z" fill="black"/>
<path d="M72.5996 42.8906C72.8272 42.4613 72.894 41.6091 73.5339 41.665C74.097 42.0714 74.2012 42.8513 74.5276 43.4352C75.0687 43.4947 75.8074 43.4224 76.1319 43.9542C76.2197 44.6563 75.4179 45.0005 75.0322 45.4691C75.0477 46.1309 75.4454 46.9071 75.055 47.5012C74.3648 47.6284 73.9324 46.8906 73.3684 46.6673C72.8162 47.0023 72.1233 47.73 71.4569 47.3163C71.1726 46.6847 71.5163 45.9588 71.6041 45.3071C71.2997 44.8064 70.5244 44.487 70.6597 43.8078C71.125 43.1487 72.3866 43.8197 72.5996 42.8906ZM73.3675 42.3936C73.1691 43.4838 72.4387 44.1519 71.3024 44.0101C71.4651 44.5401 72.0904 44.7753 72.222 45.308C72.1032 45.8398 71.8463 46.3451 71.8719 46.9071C72.4515 46.7936 72.7833 46.2087 73.3492 46.0943C73.8465 46.2536 74.2204 46.6481 74.6766 46.8925C74.6363 46.3607 74.5312 45.8353 74.5074 45.3034C74.6729 44.7973 75.375 44.6673 75.4847 44.1391C75.1583 43.8554 74.6071 44.0421 74.2204 43.8481C73.8547 43.4151 73.7615 42.8119 73.3675 42.3936Z" fill="black"/>
<path d="M8.87447 50.6078C9.56832 50.1932 9.99432 51.1406 10.6909 50.9895C12.1828 51.3456 11.6873 53.9003 10.2448 53.9552C8.84705 53.774 7.15768 51.5351 8.87447 50.6078ZM8.64685 51.5744C8.61119 52.4065 9.36903 53.0253 10.0135 53.4225C11.2549 54.023 11.6362 51.1863 10.2585 51.4573C9.73835 51.4646 9.54821 51.9873 9.31235 52.3561C9.09936 51.8875 9.38366 51.4847 9.69173 51.1525C9.29407 50.8705 8.68341 51.0463 8.64685 51.5744Z" fill="black"/>
<path d="M67.6743 50.9602C68.6168 50.5858 69.3417 52.1035 68.4321 52.5474C67.5125 53.0316 66.6166 51.3089 67.6743 50.9602ZM67.891 51.427C67.4805 51.5597 67.6789 52.2884 68.0966 52.1291C68.497 51.979 68.2932 51.3739 67.891 51.427Z" fill="black"/>
<path d="M10.3738 58.3947C11.4452 59.9736 12.3283 61.7347 12.8768 63.5636C11.9726 61.8784 11.3126 60.0661 10.3738 58.3947Z" fill="black"/>
</svg>
