<svg width="80" height="80" viewBox="0 0 80 80" fill="none" xmlns="http://www.w3.org/2000/svg">
<rect width="80" height="80" fill="white"/>
<path d="M35.8068 1.28689C36.0522 0.151898 37.645 -0.219863 38.2738 0.806735C41.0741 6.0938 43.5806 11.552 46.174 16.9313C47.3287 17.1597 48.3795 17.8423 49.5127 18.0367C52.1499 16.8794 55.2315 17.3837 57.4558 19.1762C59.7365 20.8567 61.9814 22.7021 63.5921 25.0581C64.9242 27.2887 63.3305 30.097 61.4377 31.4488C60.2848 32.427 58.2486 32.2443 57.6807 30.7115C58.5379 35.179 57.6547 40.1086 54.557 43.5539C55.1016 44.3314 55.296 45.3751 54.7809 46.2189C56.2474 47.2661 55.2924 49.2844 55.4832 50.7768C55.9876 50.8037 56.4937 50.7974 56.9998 50.7956C57.0912 49.7368 56.6558 48.1207 58.1115 47.8484C57.7102 47.035 58.0811 45.8633 58.9617 45.573C59.7007 46.0442 59.6416 47.1747 59.483 47.9514C60.6216 48.6385 59.9856 50.0243 60.0626 51.0805C61.7423 51.7147 63.1953 53.6452 62.1525 55.4045C63.9791 56.2592 66.5707 57.3467 66.4238 59.768C68.4393 60.9962 68.3076 64.076 66.3619 65.3086C66.4417 67.1226 65.9355 68.9116 65.8684 70.722C67.8624 71.3204 70.1118 71.5067 71.787 72.8504C73.1199 74.1073 71.4349 75.6436 70.1512 75.9732C64.7737 77.8508 59.0271 78.3409 53.3879 78.838C43.56 79.6398 33.6577 79.4669 23.8549 78.4322C19.8201 77.9584 15.7379 77.3626 11.9245 75.9123C10.9203 75.5137 9.36067 74.6295 10.0012 73.3324C11.095 71.9107 13.0165 71.5363 14.6513 71.0534C13.0272 70.567 11.2607 69.8602 10.1956 68.4198C8.64671 66.4517 8.64761 63.4865 10.1794 61.5086C8.59117 60.164 7.44991 58.1753 7.49649 56.0424C7.389 52.4403 10.7984 48.9646 14.4578 49.4564C15.0222 49.5531 16.2987 50.0369 15.9431 50.6227C12.4458 49.0201 8.38155 52.1483 8.32781 55.8121C8.18089 58.1171 9.61777 60.1819 11.4775 61.402C9.94743 62.6731 9.40905 64.9548 10.2081 66.7777C11.0269 68.8076 13.1285 69.8853 15.1557 70.3431C16.3399 70.834 17.5645 70.232 18.7461 70.043C17.6774 67.8241 17.1023 65.3875 17.0548 62.9267C16.2118 63.0162 15.3832 63.4301 14.5223 63.1873C14.0682 63.1363 13.2368 62.8057 13.6077 62.2252C14.7651 62.6499 15.9395 62.4904 17.0763 62.0998C17.7159 55.6079 21.1809 49.9231 23.9812 44.1738C19.9061 40.9256 19.4215 35.1512 20.3505 30.3711C19.6679 31.3279 18.4263 31.8528 17.3038 31.3431C14.9998 30.3272 13.1634 27.5664 13.7161 25.025C15.3035 22.4119 17.8332 20.5163 20.2869 18.7588C22.7503 16.9403 26.0837 16.9349 28.7791 18.2267C29.7063 17.7976 31.394 17.8334 31.4397 16.5094C32.8712 11.4292 34.378 6.36882 35.8068 1.28689ZM36.7429 1.50547C35.934 4.12034 35.1439 6.74775 34.4514 9.39397C36.1624 8.92725 37.8143 8.10758 39.1849 6.97618C39.4464 6.64473 40.1013 6.3088 39.786 5.82417C39.1141 4.35325 38.3885 2.90203 37.5778 1.50278C37.4228 1.14087 36.8459 1.06473 36.7429 1.50547ZM34.3081 9.91891C33.879 11.1085 33.5484 12.3591 33.2295 13.5917C36.3765 13.5236 39.7349 12.3573 41.7549 9.84277C41.3348 8.72928 40.6836 7.7188 40.2455 6.61158C38.6823 8.30824 36.5342 9.3859 34.3081 9.91891ZM33.0925 14.0683C32.6562 15.1916 32.4018 16.3777 32.0614 17.5324C36.1848 18.0126 40.9702 17.0075 43.5224 13.4753C43.0109 12.4218 42.5773 11.2734 41.9449 10.3104C39.8478 12.9369 36.3505 14.0154 33.0925 14.0683ZM31.9727 18.0045C32.2307 18.4524 32.8219 18.6307 33.2707 18.8654C36.8307 20.2467 41.0947 19.8884 44.3295 17.8379C45.9885 16.9412 44.1235 15.2284 43.7893 14.011C41.0231 17.544 36.2162 18.4399 31.9727 18.0045ZM35.6545 20.4357C34.0214 20.1186 32.1456 19.7477 31.0742 18.3673C30.0512 18.4085 29.167 19.6367 28.1781 18.9496C25.8579 17.7528 22.8713 17.8943 20.8082 19.5453C23.14 18.654 26.2377 18.0484 28.3071 19.7379C23.0666 22.7353 20.8199 29.0355 20.8208 34.8135C20.7133 38.833 22.7871 42.9698 26.4276 44.8421C31.2113 47.4023 36.8262 48.0311 42.1724 47.6003C46.965 46.9356 52.3918 45.6537 55.1527 41.2678C58.202 36.4797 57.2569 30.3013 54.9395 25.4173C53.8269 23.073 51.9206 21.2402 50.0036 19.5524C52.0541 18.3019 54.643 18.8143 56.6881 19.8069C54.754 17.9875 51.8507 17.9275 49.5037 18.9334C48.2729 18.8053 47.1585 17.983 45.9079 17.7608C43.2035 20.1858 39.201 20.9356 35.6545 20.4357ZM53.327 45.8265C52.6695 46.0541 52.0944 46.4518 51.5435 46.8666C48.9859 48.5758 45.9841 49.5101 42.9634 49.9724C43.7096 50.9425 43.3146 52.3077 42.3972 53.0109C43.311 53.913 43.7947 55.3042 43.2465 56.5297C42.5101 58.2837 39.9884 58.7898 38.5784 57.5366C37.1155 56.4374 37.0815 54.2669 38.0158 52.8139C36.1239 53.6747 33.5744 52.0677 34.1137 49.8837C30.5412 49.296 26.9669 47.8797 24.4613 45.1932C21.7031 50.9147 18.0984 56.6022 17.9819 63.1596C17.8852 67.3206 19.9769 71.203 22.8319 74.1108C23.8352 75.6642 25.8525 75.7815 27.5107 75.915C28.5812 75.2539 26.4303 73.9989 27.5761 73.6629C28.402 74.0383 28.5785 75.0443 28.6295 75.8568C29.1787 75.8577 29.7735 75.9688 30.2949 75.7708C30.8825 75.2476 30.3943 74.4315 30.3961 73.7848C31.2874 73.3422 31.4146 74.7576 31.3412 75.3408C32.3695 74.4978 31.6072 72.7573 30.6335 72.132C29.0362 71.1798 27.1228 71.8185 25.444 72.1759C26.4142 70.7901 28.4522 70.7498 29.9957 70.9594C30.7884 67.9781 31.0079 64.8634 31.4549 61.8472C33.0683 62.7959 35.1089 63.2321 36.9498 62.5997C37.6557 62.425 38.2783 61.961 38.9976 61.8723C39.1141 61.9888 39.2476 62.1285 39.2297 62.3086C37.2562 63.8637 34.446 64.188 32.1546 63.1685C31.858 65.8981 31.4836 68.6276 30.8565 71.3016C31.618 71.934 32.4654 72.6704 32.6571 73.7337C36.2744 74.2963 40.0045 74.4315 43.6236 73.9451C43.3567 70.8286 43.0476 67.6942 42.7323 64.5929C41.3465 63.7481 41.2022 61.6268 42.3077 60.4945C42.5191 60.129 43.1891 60.0592 43.0601 59.5459C43.036 57.3798 45.5075 56.4965 47.2266 55.9617C47.1262 53.2098 50.0869 52.0506 52.3004 51.471C52.579 49.6633 51.118 46.9723 53.439 46.0854C53.508 45.5712 53.7588 45.0902 53.7185 44.5608C53.1066 44.7623 53.1559 45.3446 53.327 45.8265ZM54.393 45.7782C54.6286 45.4369 54.4593 44.9504 54.1816 44.6844C53.852 44.9594 53.852 45.8149 54.393 45.7782ZM26.5011 45.8803C28.5668 47.5537 31.1925 48.4235 33.7751 48.9368C34.1916 49.0748 34.6485 48.8822 34.8277 48.4799C31.9664 47.9254 29.1169 47.2016 26.5011 45.8803ZM40.4381 48.617C41.0275 49.0918 42.1204 49.2629 42.9401 49.1034C45.7888 48.6403 48.6984 47.8278 51.0606 46.1195C47.6986 47.5375 44.093 48.4799 40.4381 48.617ZM58.6499 47.731C59.2985 47.6585 58.985 46.8514 58.8327 46.4617C58.537 46.7904 58.4242 47.3369 58.6499 47.731ZM53.1264 49.141C54.1816 48.832 55.2566 47.9819 54.4038 46.8406C52.9024 46.3381 52.6605 48.11 53.1264 49.141ZM57.8195 49.3713C58.2361 49.6194 58.8121 49.7798 59.2788 49.5943C59.9918 48.3599 57.4594 48.049 57.8195 49.3713ZM36.0845 48.5892C36.8074 48.8777 37.5285 49.1742 38.2066 49.5666C38.6975 49.27 39.3058 49.0989 39.7268 48.7218C38.5229 48.5588 37.2965 48.6054 36.0845 48.5892ZM53.1075 50.3584C53.5617 50.5269 54.0078 50.7741 54.505 50.7643C54.7227 50.1381 54.617 49.4402 54.668 48.7845C54.0768 49.2181 52.7304 49.356 53.1075 50.3584ZM34.9979 49.9079C34.4514 51.5499 36.4509 52.6213 37.8134 52.0336C37.8636 51.8124 37.8779 51.583 37.9137 51.3609C38.4888 52.039 39.4321 51.9172 40.0574 52.5532C41.2954 53.535 43.2017 51.5723 42.1267 50.3791C40.9532 49.1169 39.0272 49.7959 37.8609 50.5725C37.1792 49.8693 35.8471 49.1321 34.9979 49.9079ZM57.7756 50.0673C57.7873 50.9174 57.7586 51.7676 57.721 52.6168C58.2038 52.4753 58.6732 52.245 59.1883 52.2585C59.1928 51.5624 59.2833 50.8637 59.2474 50.1685C58.7592 50.1121 58.2638 50.122 57.7756 50.0673ZM53.1559 50.5045C53.1219 51.2462 53.1004 51.9915 53.1559 52.7323C53.6495 52.6481 54.1601 52.6786 54.6439 52.5424C54.694 52.09 54.6967 51.6287 54.6457 51.1772C54.0222 51.3017 53.4641 51.0527 53.1559 50.5045ZM55.4985 51.729C55.5262 52.4752 55.3399 53.3164 54.402 53.2224C52.8307 53.6353 50.8734 53.7428 49.9507 55.2997C49.5342 56.054 50.3538 56.5619 51.0257 56.5001C53.6755 56.5189 56.3916 55.9868 58.7395 54.7264C59.4123 54.7596 58.821 55.4556 58.4851 55.5667C56.3038 56.5897 53.9102 57.2087 51.4996 57.3081C50.5984 57.249 49.2063 57.1756 49.0683 56.0307C49.0128 54.4272 50.8662 53.2555 52.2959 53.2976C52.407 52.9912 52.3972 52.6607 52.3972 52.3409C50.7641 52.8112 48.6428 53.3648 48.1313 55.2263C47.842 55.779 48.5398 56.1015 48.4475 56.5978C46.8019 56.845 44.85 57.4246 43.9497 58.9824C43.5636 60.0484 44.9584 60.284 45.6598 60.5886C50.9316 62.1088 56.6066 62.21 61.9537 61.006C63.1657 60.6728 64.4566 60.396 65.4894 59.648C65.8218 59.0801 65.2879 58.4404 64.9116 58.0266C64.0785 56.9677 62.5449 56.8298 61.7154 55.8301C60.1334 56.9731 57.8956 57.5178 56.0127 56.9704C57.5767 56.1069 60.0044 56.7026 61.3526 55.1716C62.1767 53.9784 61.1788 52.4985 60.0546 51.9521C60.1065 52.667 60.1755 54.1818 59.0665 53.8333C59.225 53.4221 59.2259 52.9805 59.1928 52.5478C58.6141 52.9688 57.8025 53.3406 57.1064 53.0083C56.8198 52.6266 57.033 52.0686 56.9604 51.6153C56.474 51.6493 55.9795 51.635 55.4985 51.729ZM39.1723 52.9294C38.5005 53.5861 38.0329 54.5499 38.2873 55.5013C38.5623 56.9229 40.3297 57.9119 41.6277 57.1281C42.9643 56.441 42.9132 54.3314 41.7039 53.5529C40.7982 53.9775 39.8594 53.5332 39.1723 52.9294ZM57.4137 62.5307C52.7716 62.7636 47.8635 62.6033 43.5851 60.6191C42.3766 61.0293 42.0676 62.7887 42.9482 63.6648C43.3146 63.9998 43.6344 64.3797 43.9479 64.7649C44.5544 63.9855 46.0934 63.6102 46.4866 64.8025C46.7213 65.6365 45.4116 65.6598 45.4636 64.8518C44.3895 64.6708 44.3367 66.5018 45.3552 66.6183C46.793 66.948 47.3134 65.3489 48.0659 64.5096C49.2036 63.3674 51.2138 64.368 51.3867 65.8604C51.5282 66.9721 52.0657 68.3275 53.3709 68.3929C54.9207 68.4126 54.7558 66.0414 56.2868 66.0638C57.8724 66.0163 57.8921 68.6482 59.5386 68.2764C60.9754 67.8742 60.4039 65.7422 61.7476 65.2289C62.7276 64.8473 63.1451 66.2725 64.1027 66.1283C65.1401 66.1874 64.8489 64.6144 65.7985 64.48C67.4593 63.8117 67.385 61.2184 65.8442 60.4381C63.301 61.9243 60.2758 62.1598 57.4137 62.5307ZM48.1627 65.7601C47.3833 67.532 44.6018 68.1842 43.8189 66.062C44.0312 67.0393 43.4328 68.8345 44.8141 69.0226C51.5031 70.5634 58.606 70.5455 65.2108 68.5971C65.3595 67.8026 65.3873 66.9936 65.4733 66.1919C64.5273 67.334 62.9632 66.8396 62.0056 66.0118C61.2979 66.7625 61.4108 68.0426 60.4917 68.6572C59.5296 69.5001 57.9673 69.1167 57.3367 68.0561C56.9891 67.6108 56.6648 66.5995 55.9338 67.0053C55.3963 67.9969 54.6761 69.2403 53.3691 69.1848C51.5847 69.1928 50.6208 67.3887 50.4703 65.8219C50.258 64.5382 48.5058 64.5633 48.1627 65.7601ZM44.0527 69.4768C44.1656 69.9632 44.0402 70.6163 44.3573 70.9925C50.911 72.6014 57.8365 72.5629 64.4091 71.0454C65.2879 71.0373 65.0935 69.9364 65.1687 69.3353C58.3274 71.3123 50.9236 71.3087 44.0527 69.4768ZM12.5829 72.5333C11.9137 72.8773 10.8334 73.1075 10.7071 73.9648C11.1872 74.9305 12.3939 75.1894 13.3219 75.5594C18.0509 77.0177 22.9904 77.5955 27.903 78.0166C39.4554 78.9097 51.1287 78.7207 62.5897 76.9362C65.3425 76.4659 68.1876 76.0521 70.7057 74.7809C71.3391 74.5381 71.7986 73.654 71.0157 73.2715C69.4489 72.3443 67.6286 71.9788 65.8764 71.5641C65.407 72.7626 65.768 74.3778 64.7271 75.3336C63.249 76.3728 61.3821 76.4847 59.6541 76.7687C55.4841 77.2471 51.2263 77.1862 47.094 76.4292C45.8479 76.1712 44.5311 75.8308 43.6621 74.8463C40.0027 75.2216 36.3022 75.115 32.6571 74.6465C32.3221 76.4677 30.018 77.0213 28.4459 76.6281C26.786 76.9434 24.8134 76.5913 23.2753 75.7582C21.6897 74.3339 20.3997 72.596 19.1599 70.8671C16.9231 71.2004 14.7239 71.8023 12.5829 72.5333ZM44.2901 71.6814C44.4128 72.6229 44.4263 73.585 44.5929 74.5157C45.1769 75.27 46.2528 75.3426 47.1173 75.5827C52.4196 76.5188 57.9745 76.5618 63.2078 75.2046C64.9224 74.8651 64.6545 72.8522 64.9152 71.5408C58.1689 73.19 51.0194 73.2132 44.2901 71.6814Z" fill="black"/>
<path d="M30.5548 24.2447C31.2974 23.9437 32.6349 24.9972 31.5689 25.4854C30.7465 24.8064 29.8892 25.3671 29.109 25.7676C28.2983 25.1083 29.8856 24.2895 30.5548 24.2447Z" fill="black"/>
<path d="M46.9956 24.2448C47.7714 24.2251 49.0067 24.6882 48.9234 25.5759C48.1351 25.8474 47.2948 24.6909 46.4778 25.4792C45.4055 25.3251 46.1813 24.0396 46.9956 24.2448Z" fill="black"/>
<path d="M24.647 31.8027C25.1289 29.2783 27.6094 27.0719 30.2637 27.3649C32.5758 27.7321 34.1632 30.0953 34.0234 32.3653C36.9608 29.9896 41.5187 29.8821 44.3566 32.4719C44.3673 30.3587 45.5847 28.1245 47.6953 27.4876C50.4741 26.7037 53.5126 29.0248 53.8548 31.8072C53.4419 31.8869 53.4383 31.2885 53.2502 31.0422C54.0376 33.7941 52.1071 37.1552 49.0721 37.1453C49.5137 38.1889 50.0235 39.2935 49.8103 40.4589C49.658 42.1968 48.1924 43.6561 46.4823 43.8952C45.7702 43.9194 45.3249 44.5537 44.7068 44.8161C41.129 46.6033 36.6356 46.5047 33.1464 44.5492C32.1521 43.7232 30.7017 43.8576 29.7826 42.8937C28.1021 41.498 28.2616 38.9629 29.2272 37.2089C26.4252 37.0853 24.4893 34.0548 25.1379 31.4175C24.9668 31.5375 24.905 31.8421 24.647 31.8027ZM27.9265 29.2093C26.1824 30.2359 25.5258 32.8069 26.7996 34.4462C27.579 35.5472 29.7217 36.4313 30.6095 35.084C28.4855 35.6672 26.1779 33.6319 26.7521 31.4381C27.0854 28.9988 30.7143 28.206 31.9953 30.3345C32.0258 30.3165 32.0849 30.2834 32.1144 30.2655C31.3566 28.7973 29.2926 28.2965 27.9265 29.2093ZM46.0506 31.336C45.6053 33.0828 46.7851 34.9434 48.4334 35.5382C50.7267 36.3059 52.77 33.9661 52.4018 31.7588C52.3015 33.3184 51.2041 34.9255 49.5182 34.9721C47.1757 35.1647 45.6233 32.0571 47.0306 30.227C47.964 28.8403 49.9464 28.7793 51.2848 29.582C49.6436 27.7581 46.502 29.1117 46.0506 31.336ZM30.0944 29.9761C29.4145 29.995 28.7883 30.6211 28.86 31.319C28.8689 32.5149 30.6283 33.1061 31.405 32.2157C32.0535 31.3055 31.2813 29.7585 30.0944 29.9761ZM49.4412 29.9555C48.3788 30.2306 48.3823 31.7794 49.271 32.2622C49.9966 32.7863 51.1513 32.3276 51.274 31.4309C51.4666 30.4509 50.3675 29.5668 49.4412 29.9555ZM36.9527 33.9732C38.1737 33.0353 40.6506 32.7254 41.5715 34.216C41.9101 33.6185 41.4927 33.0452 40.9471 32.7836C39.667 32.0598 37.1695 32.1789 36.9527 33.9732Z" fill="black"/>
<path d="M12.0115 33.3443C13.0041 32.9851 13.3158 34.3754 13.5962 35.058C13.8864 35.471 13.5173 36.4376 13.0085 35.866C12.506 35.1592 11.0897 34.2437 12.0115 33.3443Z" fill="black"/>
<path d="M67.6269 35.29C68.1984 35.0428 68.8666 35.7218 68.4761 36.2638C68.0201 36.8541 67.5229 37.4176 67.0365 37.9846C66.7015 38.3179 66.2912 37.7652 66.4856 37.4292C66.7301 36.6723 66.9299 35.7603 67.6269 35.29Z" fill="black"/>
<path d="M11.1426 40.027C11.6846 38.7612 13.2737 38.0518 14.5494 38.6349C15.6843 39.1034 16.1296 40.4463 16.0328 41.5893C15.8662 43.3836 14.8405 45.1591 13.2361 46.0218C11.2555 46.037 9.07058 45.3643 7.85228 43.7079C7.08726 42.6858 7.16071 41.0706 8.20344 40.2644C9.03116 39.5845 10.1939 39.6875 11.1426 40.027ZM12.9978 39.3561C12.2113 39.6194 11.9578 40.4445 11.5959 41.0903C10.7547 40.7356 9.73437 40.2483 8.86633 40.827C8.0404 41.3018 7.96336 42.4538 8.49637 43.1785C9.46563 44.6467 11.3504 45.0749 12.988 45.2451C14.3657 44.3565 15.3341 42.6195 15.1549 40.9542C15.0913 39.9383 14.0369 38.9207 12.9978 39.3561Z" fill="black"/>
<path d="M65.0319 41.9243C66.3487 41.0777 68.0973 42.0219 68.6859 43.3271C69.605 43.036 70.6459 42.6983 71.5775 43.1856C72.9338 43.7929 73.388 45.6141 72.6445 46.8602C71.5319 48.8802 69.0487 49.7635 66.8548 49.7984C65.4063 49.1875 64.4603 47.7399 63.9085 46.3182C63.3397 44.8321 63.5233 42.7807 65.0319 41.9243ZM64.4765 44.73C64.5544 46.4069 65.5613 47.962 66.8656 48.9689C68.5327 48.9322 70.3324 48.3669 71.4924 47.1083C72.2799 46.2519 72.4796 44.5499 71.2559 43.9855C70.2222 43.3925 69.1786 44.2023 68.203 44.3904C67.8295 43.534 67.266 42.4904 66.1991 42.4627C65.0641 42.4636 64.4559 43.7311 64.4765 44.73Z" fill="black"/>
<path d="M61.4664 57.8429C62.6238 57.6217 62.9983 59.4832 61.8678 59.7626C60.61 60.2213 60.1756 57.9289 61.4664 57.8429ZM61.5336 59.1732C61.8937 59.1356 62.0711 58.5443 61.6411 58.47C61.2228 58.3661 61.1654 59.072 61.5336 59.1732Z" fill="black"/>
<path d="M47.8019 58.1762C48.8804 57.7426 49.6356 59.5459 48.5248 59.9517C47.4014 60.5044 46.6095 58.5354 47.8019 58.1762ZM48.0384 58.7692C47.6263 58.8462 47.8296 59.5145 48.2086 59.399C48.5714 59.2619 48.4119 58.6904 48.0384 58.7692Z" fill="black"/>
<path d="M55.3857 58.6321C56.0755 58.4557 56.8065 59.1508 56.5834 59.8478C56.4365 60.4936 55.5138 60.8466 55.0462 60.3163C54.4989 59.8621 54.6628 58.8024 55.3857 58.6321ZM55.7763 59.8531C56.0056 59.6408 55.9178 59.2503 55.5855 59.2288C55.1922 59.33 55.3553 60.0332 55.7763 59.8531Z" fill="black"/>
</svg>
