<svg width="80" height="80" viewBox="0 0 80 80" fill="none" xmlns="http://www.w3.org/2000/svg">
<rect width="80" height="80" fill="white"/>
<path d="M5.14991 62.698C5.04354 62.6485 4.95185 62.6302 4.83448 62.6357C4.74279 62.6393 4.65109 62.6412 4.55757 62.6357C4.38335 62.6283 4.21463 62.6008 4.04591 62.5568C3.86619 62.511 3.69381 62.4541 3.52326 62.3844C3.35821 62.3166 3.18215 62.2725 3.01894 62.2029C2.94192 62.1699 2.82088 62.2469 2.88507 62.3367C3.00794 62.5036 3.13264 62.6522 3.30686 62.7695C3.47741 62.8832 3.68464 62.9713 3.87903 63.0318C4.07709 63.0923 4.28248 63.129 4.48788 63.151C4.69877 63.173 4.97019 63.2078 5.14807 63.0721C5.26544 62.9841 5.31312 62.775 5.14991 62.698Z" fill="black"/>
<path d="M53.8102 39.4883C53.8909 39.5727 54.0138 39.558 54.0817 39.4682C54.2082 39.3013 54.2045 39.0702 54.2375 38.8703C54.276 38.6374 54.298 38.4027 54.3366 38.1716C54.4099 37.726 54.5438 37.2858 54.7217 36.8732C54.8977 36.4643 55.1343 36.0883 55.3984 35.7307C55.5396 35.54 55.6881 35.3529 55.8495 35.1787C55.9871 35.0283 56.1686 34.8853 56.2365 34.6872C56.2603 34.6194 56.209 34.524 56.1283 34.5277C55.91 34.5405 55.734 34.6762 55.5671 34.8064C55.3617 34.966 55.171 35.1384 54.9968 35.3328C54.6557 35.7142 54.3806 36.1433 54.1568 36.6018C53.9368 37.0548 53.7772 37.5261 53.6837 38.0212C53.636 38.2798 53.6012 38.5384 53.6177 38.8006C53.6324 39.0335 53.6415 39.3141 53.8102 39.4883Z" fill="black"/>
<path d="M50.8522 26.2624C51.2098 26.4843 51.6793 26.4788 52.0809 26.422C52.4679 26.3688 53.0125 26.2221 53.1152 25.7801C53.1739 25.5289 53.0511 25.2832 52.8292 25.1566C52.7155 25.0924 52.5889 25.0521 52.4605 25.0209C52.3799 24.9806 52.2918 24.9567 52.1983 24.9512C52.158 24.9494 52.1176 24.9531 52.0773 24.9549C51.8774 24.9329 51.6738 24.9347 51.4739 24.9531C51.2942 24.9696 51.109 25.0044 50.9531 25.1016C50.8779 25.1346 50.8064 25.175 50.744 25.2263C50.3864 25.5179 50.4855 26.035 50.8522 26.2624Z" fill="black"/>
<path d="M50.3513 27.4563C50.4173 27.5003 50.498 27.5334 50.5805 27.5297C50.6044 27.5297 50.6282 27.5297 50.652 27.5297C50.7217 27.5627 50.7988 27.581 50.8721 27.5939C51.0738 27.6269 51.2976 27.5535 51.4443 27.4123C51.503 27.3555 51.5305 27.2858 51.525 27.2051C51.5176 27.1207 51.4773 27.0694 51.4149 27.0162C51.2664 26.8878 51.0757 26.8236 50.8831 26.7998C50.6924 26.776 50.4797 26.809 50.3109 26.9043C50.1881 26.974 50.1056 27.1501 50.1899 27.2821C50.2339 27.3518 50.2798 27.4087 50.3513 27.4563Z" fill="black"/>
<path d="M53.2968 27.3279C53.5297 27.3408 53.5498 26.9795 53.3169 26.9666C53.084 26.9538 53.0639 27.3151 53.2968 27.3279Z" fill="black"/>
<path d="M51.8827 45.7969C51.9579 45.6887 51.8772 45.5328 51.747 45.5273C51.3619 45.5108 50.9621 45.8005 50.6155 45.9527C50.223 46.1251 49.8269 46.2847 49.4271 46.4406C48.6202 46.756 47.7913 47.0292 46.9679 47.297C46.8157 47.3465 46.8579 47.5684 47.0211 47.5427C47.9013 47.4033 48.7431 47.1759 49.5848 46.8844C49.9828 46.7468 50.3734 46.5909 50.7604 46.4259C51.1235 46.27 51.6498 46.1306 51.8827 45.7969Z" fill="black"/>
<path d="M28.0938 36.4569C29.0694 37.2143 30.2339 37.438 31.4168 37.3848C31.5562 37.526 31.7157 37.6251 31.9138 37.6874C31.9853 37.7094 32.0605 37.7241 32.1357 37.7351C32.783 37.9607 33.5808 37.7186 33.9494 37.1244C33.9915 37.0566 34.0062 36.9814 34.0026 36.908C34.2061 36.8475 34.4078 36.7852 34.6041 36.7191C35.653 36.3689 36.559 35.7949 36.8451 34.6597C37.0816 33.7244 37.0945 32.4737 36.5406 31.6429C35.8126 30.5518 34.3895 30.6692 33.2415 30.7388C32.1467 30.8067 31.0665 30.9277 29.9974 31.1368C29.2785 31.1771 28.5578 31.2872 27.9672 31.6631C27.1823 32.1619 26.7679 33.0422 26.7899 33.9628C26.8137 34.9733 27.3034 35.8444 28.0938 36.4569ZM28.1488 32.2921C28.5706 31.9602 29.1208 31.8483 29.6416 31.7897C30.2468 31.72 30.8593 31.7071 31.4663 31.6668C32.0898 31.6264 32.7152 31.5953 33.3387 31.5458C33.7385 31.5146 34.1346 31.4559 34.5307 31.4009C34.8296 31.4137 35.1267 31.4559 35.4 31.5733C36.2527 31.9382 36.3114 33.0092 36.2601 33.8088C36.2289 34.2837 36.1317 34.7734 35.8438 35.1658C35.587 35.5161 35.1964 35.7288 34.8021 35.8902C33.8632 36.2772 32.8014 36.5302 31.7927 36.6421C30.8519 36.7466 29.8506 36.6513 29.0052 36.1983C28.2772 35.8077 27.6793 35.1768 27.5124 34.3498C27.3676 33.6309 27.5473 32.7653 28.1488 32.2921Z" fill="black"/>
<path d="M29.5021 34.7459C29.7515 34.8229 30.0027 34.7 30.1513 34.4965C30.276 34.3259 30.2925 34.1022 30.2833 33.8986C30.2742 33.7079 30.265 33.508 30.1623 33.3393C30.1073 33.2476 30.0339 33.1742 29.9477 33.1229C29.8835 33.0294 29.801 32.9505 29.6965 32.9083C29.4562 32.8111 29.216 32.967 29.1353 33.1962C29.1041 33.2843 29.0931 33.3833 29.0785 33.4768C29.0656 33.5722 29.0601 33.6694 29.0583 33.7647C29.0565 33.939 29.0546 34.1279 29.106 34.2947C29.1665 34.4983 29.2894 34.6799 29.5021 34.7459Z" fill="black"/>
<path d="M33.8301 34.0051C33.9365 34.2086 34.1529 34.3187 34.3784 34.2728C34.593 34.2306 34.7452 34.0564 34.8204 33.8602C34.8442 33.796 34.8571 33.7282 34.8699 33.6621C34.8882 33.5649 34.9103 33.4678 34.9158 33.3706C34.9268 33.1762 34.8809 32.9854 34.7544 32.8314C34.7122 32.78 34.659 32.7397 34.604 32.7049C34.5912 32.6902 34.5453 32.6352 34.5783 32.6645C34.6022 32.6865 34.5765 32.6608 34.571 32.6517C34.5453 32.6132 34.5178 32.5746 34.4903 32.5361C34.4371 32.4646 34.3399 32.4389 34.2556 32.4444C34.1639 32.4518 34.096 32.4958 34.041 32.5691C33.9878 32.637 33.9456 32.7159 33.909 32.7965C33.8503 32.8717 33.8118 32.9634 33.8099 33.0625C33.8099 33.0661 33.8099 33.0716 33.8099 33.0771C33.7714 33.2165 33.7421 33.3651 33.7402 33.5081C33.7402 33.675 33.7512 33.8565 33.8301 34.0051Z" fill="black"/>
<path d="M24.0736 29.6662C24.224 29.7762 24.4221 29.8184 24.6054 29.7817C24.787 29.745 24.941 29.6295 25.0492 29.4828C25.2638 29.1967 25.2271 28.7823 25.0694 28.4778C24.8934 28.1367 24.4752 27.8507 24.092 28.0505C23.9251 28.1386 23.8059 28.3146 23.782 28.5017C23.7582 28.5842 23.7417 28.6686 23.7307 28.7566C23.683 29.1014 23.7857 29.4535 24.0736 29.6662Z" fill="black"/>
<path d="M36.3038 28.2192C36.4542 28.3292 36.6523 28.3714 36.8357 28.3347C37.0172 28.298 37.1713 28.1825 37.2795 28.0358C37.494 27.7479 37.4574 27.3352 37.2996 27.0308C37.1236 26.6897 36.7055 26.4036 36.3222 26.6035C36.1553 26.6915 36.0343 26.8676 36.0123 27.0547C35.9884 27.1372 35.9719 27.2215 35.9609 27.3096C35.9132 27.6562 36.0159 28.0083 36.3038 28.2192Z" fill="black"/>
<path d="M30.0669 30.2805C30.1421 30.2841 30.2118 30.3135 30.287 30.319C30.3604 30.3245 30.4374 30.3116 30.5107 30.3061C30.6556 30.2951 30.7987 30.2786 30.9417 30.2621C31.0811 30.2475 31.2223 30.231 31.3617 30.2163C31.4809 30.2034 31.7193 30.1869 31.7028 30.0091C31.6844 29.8257 31.4423 29.866 31.3213 29.8825C31.1819 29.9027 31.0426 29.921 30.905 29.9412C30.7656 29.9614 30.6263 29.9779 30.4887 30.0036C30.4209 30.0146 30.3475 30.0219 30.2815 30.0402C30.2008 30.0641 30.1366 30.1154 30.0578 30.1393C29.9844 30.1631 29.9826 30.275 30.0669 30.2805Z" fill="black"/>
<path d="M15.5169 36.5487C15.3775 36.424 15.2344 36.3084 15.1042 36.1709C14.8512 35.905 14.6366 35.6042 14.4642 35.2815C14.1268 34.6469 13.903 33.8675 13.9599 33.145C13.9782 32.9212 13.6481 32.9102 13.6151 33.1266C13.5546 33.5319 13.5326 33.9519 13.5766 34.359C13.6225 34.7698 13.7673 35.1769 13.9452 35.5474C14.1249 35.9233 14.3634 36.2736 14.6476 36.578C14.7851 36.7247 14.9337 36.8696 15.0932 36.9925C15.2803 37.1355 15.4508 37.1979 15.6837 37.1594C15.7608 37.1465 15.8231 37.053 15.8011 36.976C15.7461 36.7889 15.6636 36.6789 15.5169 36.5487Z" fill="black"/>
<path d="M17.2061 37.7994C17.1915 37.7847 17.175 37.77 17.1584 37.7572C17.1199 37.7242 17.0851 37.6894 17.0411 37.6655C16.9659 37.6233 16.8889 37.5812 16.8137 37.539C16.7788 37.5206 16.7422 37.5096 16.7036 37.5188C16.6688 37.5261 16.6321 37.55 16.6138 37.5812C16.5771 37.6435 16.5844 37.7425 16.6541 37.781C16.7312 37.8232 16.81 37.8654 16.887 37.9076C16.9145 37.9223 16.9421 37.9369 16.9732 37.9461C16.9934 37.9516 17.0136 37.9571 17.0319 37.9644C17.0521 37.9699 17.0723 37.9773 17.0924 37.9809C17.1254 37.9883 17.1584 37.9828 17.1915 37.9791C17.2428 37.9718 17.263 37.9094 17.2446 37.8672C17.2336 37.8434 17.2245 37.8177 17.2061 37.7994Z" fill="black"/>
<path d="M62.5538 40.8088C62.695 40.8308 62.8307 40.8088 62.9554 40.7592C63.0636 40.7427 63.17 40.7061 63.2635 40.6492C63.5496 40.4732 63.6982 40.1742 63.8045 39.8661C63.8944 39.6076 63.9567 39.3362 63.9971 39.0647C64.0008 39.0464 64.0044 39.0262 64.0063 39.0079C64.0888 38.4797 64.0906 37.5995 63.4671 37.4326C63.4634 37.4252 63.4616 37.4179 63.4598 37.4124C63.3644 37.1868 63.082 37.1887 62.9151 37.3115C62.4603 37.6453 62.1229 38.1075 61.9303 38.6374C61.7451 39.1454 61.6699 39.7634 61.89 40.2714C62.011 40.5483 62.2512 40.7611 62.5538 40.8088Z" fill="black"/>
<path d="M60.5204 42.4739C60.5882 42.5289 60.6634 42.5747 60.7423 42.6077C60.8541 42.6518 60.9715 42.6536 61.0889 42.6334C61.1384 42.6242 61.1952 42.6059 61.2392 42.5839C61.2998 42.5509 61.3364 42.5087 61.3658 42.4574C61.3731 42.4519 61.3805 42.4482 61.3878 42.4427C61.474 42.3767 61.5327 42.2868 61.5712 42.1915C61.6885 42.0796 61.7619 41.9237 61.7821 41.766C61.8041 41.5863 61.7326 41.4102 61.6225 41.2745C61.4318 41.0361 61.0595 40.9352 60.7716 41.0233C60.5809 41.082 60.4213 41.1957 60.3095 41.3625C60.2196 41.4982 60.1591 41.6725 60.1628 41.8357C60.1683 42.0301 60.2288 42.2245 60.3718 42.3638C60.4177 42.406 60.4672 42.4409 60.5204 42.4739Z" fill="black"/>
<path d="M26.5916 48.1187C26.1734 47.9683 25.7645 47.7904 25.372 47.5813C24.5981 47.1705 23.8279 46.6864 23.1695 46.1069C23.0137 45.9693 22.7753 46.1674 22.9238 46.327C23.5547 47.011 24.2387 47.6088 25.0529 48.0655C25.4509 48.2892 25.8654 48.4873 26.289 48.6578C26.6613 48.8064 27.2206 49.0741 27.624 48.9384C27.7598 48.8944 27.8441 48.7275 27.7304 48.6101C27.459 48.3241 26.9528 48.247 26.5916 48.1187Z" fill="black"/>
<path d="M29.1299 48.8706C29.1079 48.8486 29.0804 48.8339 29.0547 48.8174C29.0088 48.7899 28.963 48.7587 28.9116 48.7422C28.8255 48.7165 28.7393 48.689 28.6549 48.6633C28.6072 48.6487 28.554 48.6523 28.51 48.6743C28.4697 48.6945 28.4312 48.7367 28.4183 48.7825C28.4055 48.8302 28.4037 48.8834 28.4293 48.9274C28.4532 48.9678 28.4899 49.0081 28.5375 49.0191C28.6256 49.0411 28.7117 49.0631 28.7998 49.0851C28.8328 49.0943 28.8658 49.0998 28.9006 49.0998C28.9226 49.0998 28.9428 49.0998 28.9648 49.0998C28.996 49.0998 29.0308 49.1035 29.0602 49.0961C29.0804 49.0906 29.1005 49.0833 29.1189 49.076C29.1519 49.065 29.1794 49.0466 29.1904 49.0118C29.2014 48.9769 29.1922 48.9421 29.1702 48.9146C29.1537 48.8999 29.1427 48.8834 29.1299 48.8706Z" fill="black"/>
<path d="M76.906 58.0087C76.0496 57.266 74.9456 57.0166 73.8379 56.9616C72.6331 56.9011 71.4062 57.0698 70.2124 56.8424C69.7025 56.7452 69.1029 56.593 68.7269 56.2115C68.4115 55.8924 68.4665 55.4927 68.8003 55.2157C69.4898 54.6436 70.4966 54.7866 71.2723 54.385C71.6593 54.1851 71.9784 53.8348 72.0573 53.3947C72.1453 52.905 71.9546 52.4209 71.6391 52.0523C71.2925 51.6488 70.7735 51.4288 70.2692 51.2931C69.6659 51.1317 69.0387 51.04 68.4225 50.9483C67.1479 50.7612 65.8587 50.642 64.5695 50.6237C64.0285 50.6164 63.4875 50.642 62.9465 50.6769C62.9942 50.5668 63.0419 50.4568 63.0859 50.3431C63.4527 49.406 63.7644 48.445 64.0193 47.4713C64.2743 46.4993 64.4668 45.5053 64.5878 44.5059C64.6484 44.0052 64.6924 43.5046 64.7217 43.0021C64.7291 42.8847 64.7364 42.7692 64.7419 42.6518C64.7621 42.6316 64.7822 42.6096 64.7987 42.584C66.5318 39.9267 66.8875 36.6422 66.1191 33.6328C66.121 33.6328 66.1228 33.6328 66.1246 33.6328C66.2072 33.6328 66.286 33.631 66.3685 33.6236C66.5153 33.6089 66.6601 33.5943 66.8068 33.5796C66.9517 33.5649 67.0966 33.5429 67.2415 33.5228C67.4194 33.4989 67.6743 33.4182 67.6541 33.1927C67.6321 32.9432 67.3368 32.9396 67.1498 32.9634C67.0049 32.9818 66.86 33.0019 66.7151 33.0239C66.5703 33.0459 66.4272 33.0735 66.2842 33.0973C66.1962 33.112 66.0861 33.1303 65.9908 33.1706C65.5726 31.7604 64.9051 30.4217 64.0157 29.2498C63.7369 28.8812 63.4343 28.5364 63.1207 28.2027C64.5658 27.9404 65.5415 26.5485 65.4791 25.0649C65.4149 23.5373 64.3421 21.9491 62.7191 21.8208C61.9801 21.7621 61.2062 22.028 60.722 22.602C60.2856 23.121 60.1242 23.8729 60.3277 24.5239C60.4304 24.8558 60.6248 25.1749 60.9091 25.384C61.197 25.5967 61.639 25.6206 61.8535 25.2886C62.0974 24.9108 61.7362 24.6834 61.628 24.357C61.5216 24.0342 61.6866 23.6455 61.9691 23.4712C62.334 23.2438 62.8402 23.352 63.1464 23.6271C63.4857 23.9334 63.6159 24.4157 63.5755 24.8595C63.4802 25.8901 62.6476 26.466 61.914 27.062C60.6138 25.9763 59.1247 25.1327 57.5347 24.5441C57.6026 24.4946 57.6686 24.445 57.7328 24.3919C57.8043 24.3313 57.8777 24.2708 57.9492 24.2103C57.9969 24.1718 58.0317 24.1204 58.0702 24.0728C58.1087 24.0214 58.1436 23.9627 58.1399 23.8967C58.1362 23.8142 58.0886 23.7592 58.006 23.7482C57.9437 23.739 57.8832 23.7628 57.83 23.7958C57.7786 23.827 57.7236 23.8564 57.6796 23.8985L57.4706 24.1003C57.366 24.2011 57.2688 24.3112 57.1716 24.4212C57.0102 24.3662 56.8489 24.3093 56.6856 24.258C56.6967 24.2305 56.7095 24.2011 56.7205 24.1736C56.7553 24.0893 56.792 24.0067 56.825 23.9224C56.8672 23.8142 56.9314 23.673 56.8929 23.5574C56.869 23.4823 56.8324 23.4254 56.759 23.3906C56.693 23.3575 56.605 23.3502 56.5389 23.3906C56.4106 23.4676 56.3666 23.5978 56.317 23.7317C56.284 23.8197 56.2565 23.9095 56.2272 23.9994C56.2143 24.0397 56.1997 24.0801 56.1868 24.1204C54.6427 23.7005 53.0344 23.5024 51.4371 23.5464C49.9553 23.5868 48.479 23.8123 47.0468 24.1975C46.3316 24.39 45.631 24.6229 44.9415 24.8962C44.428 25.0997 43.9493 25.3381 43.4817 25.6114C43.3368 25.1951 43.1883 24.7806 43.0342 24.368C42.6583 23.3557 42.2823 22.3324 41.8661 21.3274C41.9431 21.3274 42.0201 21.3274 42.0971 21.3219C43.0251 21.2596 43.6633 20.6562 43.9934 19.8163C44.3418 18.9306 44.3583 17.9036 44.2263 16.972C44.0979 16.0752 43.81 15.1619 43.3515 14.3789C42.9169 13.638 42.319 13.0181 41.5378 12.6477C40.7437 12.2717 39.8396 12.1984 38.9777 12.3157C37.9837 12.4496 37.0503 12.8824 36.2214 13.4326C36.1315 13.4931 36.0453 13.5609 35.9573 13.6233C35.1265 13.1172 34.1307 12.8127 33.2138 12.5303C33.2633 12.4441 33.311 12.3579 33.355 12.2681C33.4522 12.0627 33.5787 11.8279 33.5274 11.5932C33.5054 11.4923 33.377 11.4171 33.2817 11.4777C33.0689 11.6115 32.9846 11.8683 32.9002 12.092C32.8617 12.1947 32.8324 12.2992 32.803 12.4038C32.803 12.4074 32.8012 12.4093 32.8012 12.4129C31.8897 12.1525 30.96 11.949 30.021 11.8206C28.9188 11.6684 27.8094 11.6225 26.7072 11.6886C26.7457 11.5932 26.7842 11.4997 26.8136 11.4025C26.8337 11.3383 26.8539 11.2741 26.8722 11.2099C26.8814 11.1806 26.8906 11.1512 26.8961 11.1201C26.9016 11.0925 26.9108 11.0632 26.9126 11.0339C26.9144 11.0027 26.9071 10.9678 26.9016 10.9367C26.8906 10.8615 26.8191 10.8028 26.7494 10.79C26.6687 10.7753 26.6027 10.8083 26.5531 10.8706C26.5018 10.9367 26.4816 11.0082 26.4633 11.0889C26.4486 11.1549 26.4321 11.2191 26.4174 11.2851C26.3844 11.4245 26.3661 11.5712 26.3422 11.7124C26.2469 11.7197 26.1515 11.7307 26.0543 11.7417C26.0342 11.6757 26.0121 11.6097 25.9865 11.5455C25.9406 11.43 25.8984 11.3126 25.8471 11.2007C25.7884 11.0742 25.6105 11.0155 25.4877 11.0852C25.429 11.1182 25.3758 11.1714 25.3556 11.2374C25.3519 11.2613 25.3464 11.2851 25.3428 11.3071C25.3409 11.3548 25.3501 11.4006 25.3721 11.4447C25.4161 11.5565 25.4712 11.6666 25.5225 11.7747C25.5262 11.7839 25.5317 11.7913 25.5353 11.8004C25.0237 11.8719 24.5157 11.9691 24.0095 12.0975C22.9624 12.3616 21.9538 12.754 21.013 13.2804C20.7031 13.1043 20.3876 12.9411 20.0832 12.7889C19.1131 12.3011 18.1008 11.8884 17.0518 11.6042C16.0927 11.3456 14.996 11.2172 14.1048 11.7546C13.3107 12.2332 12.8375 13.0695 12.5606 13.9314C11.9628 15.7873 11.9701 17.9274 12.6266 19.7631C12.9549 20.6782 13.4427 21.5915 14.1983 22.2242C14.2441 22.2627 14.2918 22.2994 14.3395 22.3342C14.0204 23.7078 13.705 25.0814 13.3877 26.4568C13.0594 27.8781 12.6927 29.2975 12.4268 30.7334C12.1828 32.052 12.0783 33.4366 12.4799 34.7368C13.2135 37.1135 15.2308 38.7566 17.4204 39.7598C17.5745 39.8313 17.7303 39.8992 17.8862 39.9652C17.8239 40.3998 17.9632 40.9041 18.0513 41.3149C18.165 41.8431 18.3208 42.3566 18.5079 42.8645C18.8802 43.8823 19.3772 44.8451 19.9897 45.7401C20.5729 46.591 21.2587 47.3649 22.0235 48.0526C22.2032 48.744 22.3737 49.4353 22.5736 50.1212C22.779 50.8273 22.9972 51.5315 23.2008 52.2375C23.3182 52.6446 23.43 53.0536 23.5437 53.4607C21.3963 53.5909 19.2506 53.7395 17.1031 53.888C15.9698 53.9669 14.8365 54.0457 13.7031 54.1246C12.8577 54.1833 11.7409 54.1191 11.1925 54.8985C10.9651 55.2212 10.8808 55.654 11.0623 56.0171C11.2054 56.3032 11.4731 56.4756 11.7684 56.5783C12.0581 56.6792 12.3662 56.7085 12.6633 56.7782C12.9054 56.8351 13.2153 56.9231 13.285 57.1982C13.3969 57.6365 12.9182 57.9519 12.568 58.0546C12.071 58.1995 11.5281 58.216 11.0165 58.2746C9.918 58.4012 8.81767 58.5222 7.71918 58.6451C6.60051 58.7698 5.48001 58.8853 4.36317 59.021C3.44073 59.1329 2.49445 59.3181 1.7774 59.9526C1.13554 60.5193 0.810944 61.3996 1.11537 62.2267C1.40696 63.0244 2.10566 63.5947 2.8924 63.8698C3.87719 64.2146 4.96102 64.1449 5.98616 64.1376C7.09382 64.1302 8.20332 64.1229 9.31099 64.1137C11.5557 64.0972 13.8003 64.0752 16.045 64.066C16.5236 64.0642 17.0463 64.0569 17.4828 64.2806C17.8202 64.453 18.1466 64.8051 18.0989 65.2122C18.0311 65.7844 17.3269 66.0906 16.9069 66.3712C16.3201 66.7618 15.7718 67.2808 15.8029 68.0456C15.8359 68.8635 16.4228 69.5659 17.1453 69.896C18.0091 70.2902 19.0031 70.2921 19.9365 70.3398C20.8406 70.3856 21.7502 70.4058 22.6543 70.3288C23.5602 70.2499 24.457 70.0757 25.2969 69.7199C26.1369 69.3623 26.8154 68.8121 27.4829 68.2015C27.8277 67.886 28.1725 67.5688 28.5686 67.3175C28.9812 67.0571 29.436 66.8921 29.9146 66.7967C30.8628 66.606 31.8494 66.6885 32.8085 66.7307C34.9835 66.8242 37.1658 66.7839 39.3371 66.6096C41.5048 66.4373 43.6633 66.1292 45.7942 65.6945C46.7185 65.5056 47.6758 65.3406 48.5561 64.9903C49.2364 64.7207 49.9131 64.3411 50.3276 63.7176C50.7604 63.0666 50.7439 62.2047 50.3129 61.5573C49.8581 60.8751 49.0842 60.4368 48.3011 60.2424C47.32 59.9985 46.282 60.0407 45.3211 59.7069C44.9818 59.5877 44.5784 59.3585 44.4317 59.0082C44.2666 58.6157 44.604 58.3058 44.8571 58.0564C45.4201 57.5026 45.7429 56.8479 45.6549 56.041C45.5723 55.2854 45.1982 54.5574 44.6334 54.0476C43.1993 52.7492 41.072 52.9711 39.2986 53.1178C38.3083 53.2003 37.3052 53.2517 36.3369 52.9931C36.5056 52.5474 36.6652 52.0981 36.8155 51.647C36.9513 51.2344 37.0833 50.8181 37.2007 50.4C37.2355 50.2771 37.2777 50.1359 37.3125 49.991C37.8058 50.101 38.3083 50.1304 38.8163 50.1579C39.4087 50.1891 40.0028 50.1946 40.597 50.1762C41.8294 50.1377 43.0599 50.0148 44.2758 49.8113C46.2454 49.483 48.1819 48.9347 50.0415 48.1993C50.0452 48.5734 50.1369 48.9659 50.1937 49.3253C50.2597 49.7526 50.3294 50.1799 50.4028 50.6054C50.5293 51.3426 50.6558 52.0853 50.8209 52.817C50.753 52.729 50.643 52.6721 50.5036 52.7015C49.6784 52.8812 48.7303 53.1655 48.1746 53.8477C47.5749 54.5867 47.7015 55.5862 48.3782 56.2299C49.2364 57.0459 50.3936 57.0478 51.5031 57.1028C52.0679 57.1303 52.6199 57.2073 53.1408 57.4384C53.5662 57.6273 53.9587 57.8859 54.3309 58.1628C55.1342 58.7625 55.8531 59.4722 56.704 60.0095C57.5824 60.5652 58.5746 60.8549 59.6052 60.9521C61.7838 61.1575 63.9405 60.5395 66.1173 60.5432C67.2616 60.545 68.3363 60.7706 69.3871 61.2217C70.4893 61.6948 71.5364 62.2982 72.6881 62.6503C73.7628 62.9786 74.964 63.0904 76.0184 62.6283C76.8712 62.2542 77.6286 61.5059 77.8413 60.578C78.0705 59.6079 77.6414 58.6469 76.906 58.0087ZM63.9882 23.9279C63.7498 23.2769 63.1538 22.7945 62.4477 22.7817C61.7728 22.7707 61.1933 23.2035 61.0631 23.8729C61.0063 24.1645 61.0411 24.4744 61.1897 24.733C61.252 24.8412 61.4849 25.1254 61.2007 24.9218C61.0705 24.8283 60.9733 24.6816 60.9036 24.5404C60.623 23.9682 60.7605 23.2053 61.2282 22.7725C61.7508 22.2902 62.5504 22.1839 63.2088 22.4149C63.8891 22.6533 64.3971 23.2255 64.685 23.871C65.0463 24.6834 65.0555 25.6939 64.6025 26.4733C64.1991 27.1702 63.4582 27.6525 62.6421 27.6378C62.6164 27.6378 62.5926 27.6397 62.5706 27.6433C62.4715 27.548 62.3725 27.4526 62.2698 27.3609C63.4618 26.697 64.4943 25.307 63.9882 23.9279ZM13.8792 36.1525C13.1951 35.1604 12.8485 34.0069 12.8485 32.8039C12.8485 31.4633 13.1786 30.1521 13.4757 28.8537C13.7912 27.4764 14.1048 26.0992 14.4202 24.722C14.5779 24.0306 14.7283 23.3355 14.8878 22.6423C15.5003 22.8972 16.1807 22.8807 16.7602 22.4333C17.1875 22.1032 17.4754 21.619 17.7377 21.1569C18.0513 20.6067 18.3337 20.0364 18.5831 19.4532C18.8325 18.8682 19.0471 18.2685 19.2268 17.6578C19.291 17.4378 19.3625 17.2085 19.423 16.9756C19.4634 16.9371 19.5 16.8913 19.5275 16.8381C19.5771 16.7446 19.6211 16.6492 19.6504 16.5465C19.7036 16.3595 19.7458 16.1229 19.6376 15.945C19.5661 15.8295 19.456 15.7579 19.3203 15.7506C19.1809 15.7451 19.0599 15.8276 18.9829 15.9377C18.9279 16.0165 18.8985 16.1082 18.8692 16.1981C18.8362 16.3008 18.8032 16.4053 18.7701 16.508C18.7591 16.541 18.75 16.574 18.739 16.607C18.7353 16.607 18.7316 16.607 18.728 16.6089C18.7188 16.6474 18.7115 16.6859 18.7023 16.7244C18.6895 16.7647 18.6766 16.8033 18.6656 16.8436C18.6454 16.9133 18.6234 16.983 18.6179 17.0545C18.6161 17.0655 18.6179 17.0765 18.6161 17.0875C18.6124 17.1022 18.6088 17.1168 18.6051 17.1315C18.4731 17.6157 18.319 18.0943 18.143 18.5638C17.7982 19.4844 17.3727 20.3885 16.8427 21.2174C16.6979 21.443 16.5273 21.674 16.3127 21.8446C16.2541 21.8134 16.1844 21.8024 16.1165 21.8006C15.9955 21.7951 15.8763 21.8189 15.7552 21.8134C15.625 21.8061 15.5003 21.7859 15.3756 21.7492C15.1299 21.6795 14.9043 21.564 14.6971 21.4118C14.2716 21.0982 13.9874 20.6507 13.6279 20.2766C13.5509 20.1226 13.4776 19.9667 13.4134 19.8127C12.7367 18.197 12.6853 16.3118 13.0925 14.6209C13.274 13.8617 13.5729 13.0621 14.1781 12.5395C14.8731 11.9416 15.8249 11.9856 16.6649 12.1874C17.7175 12.4404 18.75 12.8421 19.7293 13.3024C20.0905 13.4729 20.4445 13.6581 20.7948 13.8525C20.8571 13.9516 20.9598 14.0213 21.0827 14.0121C21.1304 14.0396 21.178 14.0653 21.2257 14.0928C21.6897 14.3624 22.15 14.6558 22.6396 14.874C22.7772 14.9364 22.8817 14.742 22.7937 14.6393C22.4856 14.2853 22.1115 13.9809 21.7117 13.7095C25.0952 11.9765 29.0326 11.9636 32.6545 12.9686C33.2211 13.1263 33.7841 13.306 34.338 13.5059C34.7341 13.649 35.1284 13.8085 35.5318 13.9406C35.3411 14.0909 35.1522 14.245 34.9688 14.4045C34.5764 14.7475 34.1766 15.0959 33.8685 15.5195C33.7731 15.6516 33.9382 15.835 34.0794 15.7561C34.7781 15.36 35.3631 14.7658 36.0215 14.3037C36.6817 13.8397 37.4024 13.4161 38.18 13.1887C39.6269 12.765 41.2627 12.9264 42.2787 14.1405C43.2946 15.3563 43.6761 17.2122 43.4524 18.7527C43.4249 18.9379 43.3827 19.1378 43.324 19.334C43.1626 19.5174 43.0397 19.7301 42.8472 19.8933C42.6069 20.0969 42.308 20.2253 42.0018 20.2913C41.6295 20.372 41.2352 20.3426 40.8666 20.2583C40.4705 20.1666 40.0689 20.0419 39.6801 19.9153C39.1391 19.6604 38.6293 19.3377 38.1708 18.9526C37.5418 18.4244 37.1035 17.7349 36.524 17.1645C36.3332 16.9756 35.9701 17.1242 36.0398 17.4121C36.236 18.2245 36.8577 18.9049 37.4666 19.4477C38.0974 20.0089 38.8035 20.4655 39.581 20.7938C39.7443 20.8616 39.913 20.9258 40.0854 20.9863C40.2284 21.2688 40.3513 21.564 40.4466 21.8629C40.5127 22.0738 40.5677 22.2902 40.608 22.5066C40.6465 22.712 40.6447 22.9963 40.8299 23.1301C40.8758 23.1632 40.9601 23.1613 41.0005 23.1173C41.1655 22.9339 41.0922 22.6497 41.0463 22.4314C40.995 22.1949 40.9289 21.9601 40.8464 21.7309C40.7731 21.5255 40.6887 21.3311 40.5933 21.1404C40.6997 21.1679 40.8061 21.1954 40.9143 21.2174C41.1398 21.7382 41.3526 22.2627 41.5561 22.7909C42.5006 25.2171 43.5386 27.7002 43.8448 30.3061C44.1291 32.7268 43.6321 35.2191 41.9743 37.0695C40.3494 38.8832 38.0626 39.89 35.7372 40.4622C30.551 41.7367 24.9687 41.4891 19.8723 39.9285C17.5928 39.2335 15.2729 38.1771 13.8792 36.1525ZM23.1348 49.9433C22.9771 49.4702 22.7992 49.0062 22.6158 48.5459C23.3182 49.1071 24.0756 49.6004 24.8806 50.0093C25.4253 50.2863 25.9865 50.5302 26.5641 50.7337C26.7549 50.8016 26.9493 50.8621 27.1437 50.9208C27.1583 50.9336 27.1748 50.9446 27.1932 50.952C27.4114 51.0345 27.6296 51.117 27.857 51.1684C27.8992 51.1775 27.9414 51.183 27.9854 51.1904C27.9542 51.6397 28.0147 52.1201 28.0349 52.5566C28.0606 53.1031 28.0991 53.6496 28.1339 54.1961C28.1688 54.7426 28.2018 55.2891 28.2403 55.8356C28.2495 55.953 28.2568 56.0722 28.266 56.1895C28.1266 56.2684 27.9817 56.3381 27.8314 56.3968C27.5306 56.5123 27.2023 56.582 26.8814 56.604C26.5623 56.626 26.2304 56.604 25.9168 56.5398C25.5812 56.4701 25.2804 56.3142 24.9522 56.2262C24.9467 56.2244 24.9412 56.2262 24.9338 56.2244C24.9081 55.9163 24.8036 55.6137 24.7248 55.3184C24.6257 54.9553 24.5249 54.5904 24.424 54.2273C24.2204 53.5011 24.0095 52.7767 23.7931 52.0541C23.5804 51.3481 23.3677 50.642 23.1348 49.9433ZM28.3999 58.2746C28.3137 58.5057 28.2403 58.7405 28.1633 58.9752C28.1321 59.0687 28.1028 59.1641 28.0716 59.2576C28.0239 59.1586 27.9322 59.0816 27.8167 59.0779C27.6975 59.0742 27.5765 59.1127 27.4572 59.1274C27.4114 59.1329 27.3637 59.1384 27.3179 59.1421C27.3105 59.1421 27.3032 59.1439 27.2959 59.1439C27.272 59.1476 27.2464 59.1476 27.2243 59.1476C27.1143 59.1512 27.0061 59.1494 26.8979 59.1402C26.8924 59.0229 26.8832 58.9055 26.8759 58.7881C26.8686 58.6873 26.8612 58.5864 26.8539 58.4855C26.8447 58.37 26.8154 58.2545 26.7989 58.1389C26.7897 58.0729 26.72 58.0197 26.6558 58.0179C26.5935 58.0142 26.5128 58.0583 26.5 58.1243C26.4798 58.2288 26.4504 58.3315 26.4303 58.436C26.4101 58.5442 26.3991 58.6543 26.3863 58.7643C26.3863 58.7716 26.3844 58.779 26.3844 58.7863C26.3624 58.7881 26.3386 58.7918 26.3166 58.7936C26.234 58.801 26.1515 58.8083 26.069 58.812C25.8746 58.823 25.6784 58.8285 25.484 58.8266C25.2016 58.8248 24.921 58.8046 24.6386 58.779C24.6899 58.4214 24.7431 58.0638 24.7908 57.7043C24.8201 57.4824 24.8568 57.2605 24.877 57.0368C24.8843 56.9579 24.8953 56.8699 24.9045 56.78C25.1521 56.9451 25.4436 57.046 25.7279 57.1156C26.1057 57.2092 26.4908 57.2477 26.8796 57.222C27.2665 57.1963 27.6406 57.123 28.0056 56.9891C28.0936 56.9579 28.2018 56.9194 28.3118 56.8736C28.3173 57.0936 28.3192 57.3284 28.4329 57.5099C28.4787 57.5814 28.5411 57.6236 28.6089 57.6401C28.6218 57.653 28.6364 57.664 28.6493 57.6768C28.5356 57.8547 28.4695 58.0839 28.3999 58.2746ZM28.7355 58.9624C28.796 58.7551 28.8528 58.5497 28.9042 58.3407C28.9335 58.2196 28.9739 58.0839 28.9995 57.9501C29.1848 58.0656 29.3828 58.1609 29.5754 58.2416C30.0027 58.4232 30.4538 58.5479 30.9123 58.6231C31.3597 58.6964 31.8146 58.7019 32.2657 58.6653C32.5206 58.6433 32.8654 58.6304 33.1478 58.5332C33.1606 58.5571 33.1808 58.5754 33.2065 58.5901L33.333 59.6831C33.3587 59.9068 33.3843 60.1287 33.41 60.3524C33.4229 60.4643 33.4375 60.5743 33.4485 60.6862C33.454 60.7394 33.476 60.8403 33.4375 60.8861C33.3623 60.9741 33.1203 60.9851 33.0194 61.0053C32.8103 61.0456 32.5976 61.0768 32.3867 61.0988C32.0309 61.1355 31.677 61.1245 31.3231 61.1153C31.2442 60.6862 31.169 60.2552 31.0608 59.8353C31.0003 59.595 30.6739 59.5822 30.5858 59.8096C30.4685 60.1104 30.3584 60.4111 30.2558 60.7137C30.2502 60.7137 30.2466 60.71 30.2429 60.71C29.8193 60.655 29.3957 60.5853 28.9739 60.512C28.8235 60.4845 28.6364 60.4716 28.4989 60.3983C28.3815 60.3341 28.398 60.2002 28.42 60.0847C28.4861 59.7051 28.6273 59.331 28.7355 58.9624ZM41.9688 53.6881C42.7775 53.7578 43.6541 53.9944 44.2501 54.5757C44.7453 55.058 45.0772 55.7714 45.0148 56.4719C44.9873 56.791 44.8608 57.0955 44.6481 57.3339C44.3913 57.6236 44.063 57.8639 43.8815 58.216C43.4652 59.0229 44.0374 59.8151 44.7618 60.1801C46.2857 60.9503 48.5139 60.3158 49.6784 61.7975C50.1075 62.3422 50.08 63.0611 49.6124 63.5709C49.1319 64.0936 48.4258 64.376 47.7583 64.5722C46.8047 64.8509 45.8144 65.038 44.8388 65.2232C43.7971 65.4231 42.75 65.5918 41.6992 65.7257C39.6177 65.9935 37.5198 66.1365 35.42 66.1567C34.3783 66.1658 33.3385 66.1383 32.2987 66.0961C31.3726 66.0595 30.4263 66.0393 29.5204 66.2685C28.6144 66.4978 27.8974 67.0186 27.217 67.6384C26.555 68.24 25.9095 68.814 25.075 69.1697C23.4465 69.8648 21.5998 69.8281 19.865 69.7382C18.9957 69.6942 18.0146 69.7144 17.2352 69.2724C16.6337 68.9295 16.1294 68.1098 16.5658 67.4532C16.9051 66.9452 17.5506 66.6977 18.0183 66.3327C18.5427 65.9219 18.8673 65.2929 18.5923 64.6327C18.2402 63.7818 17.3159 63.5159 16.4741 63.4829C15.427 63.4444 14.3725 63.4902 13.3254 63.4975L6.77289 63.5452C5.76976 63.5526 4.71895 63.6424 3.72498 63.4737C2.8924 63.3325 2.03231 62.9254 1.69121 62.0983C1.36111 61.2932 1.85259 60.512 2.54763 60.1012C3.40222 59.5969 4.48238 59.5712 5.4415 59.4593C7.59081 59.2099 9.74195 58.9605 11.8931 58.7129C12.6762 58.6231 13.6628 58.4104 13.8242 57.4861C13.9525 56.7452 13.3364 56.3619 12.7055 56.2299C12.2672 56.1382 11.2512 56.0575 11.5593 55.3459C11.7409 54.9278 12.2122 54.7976 12.6266 54.7444C13.1438 54.6784 13.672 54.6656 14.1909 54.6289L20.6517 54.1778C21.6622 54.1062 22.6726 54.0274 23.6831 53.9467C23.7216 54.0842 23.762 54.2218 23.7987 54.3611C23.8922 54.7078 23.9839 55.0544 24.0756 55.4028C24.1709 55.7659 24.2314 56.1749 24.4222 56.5013C24.435 56.5233 24.4515 56.5416 24.4699 56.5581C24.424 56.692 24.3965 56.8387 24.369 56.9634C24.3195 57.189 24.2828 57.4182 24.2406 57.6456C24.1544 58.1059 24.0792 58.5681 23.9949 59.0284C23.9637 59.1989 24.1343 59.3218 24.2773 59.3438C24.6807 59.4098 25.086 59.4392 25.495 59.4428C25.6986 59.4447 25.9021 59.4373 26.1057 59.4245C26.1772 59.419 26.2487 59.4135 26.3184 59.408C26.3202 59.5199 26.3991 59.6592 26.5165 59.6831C26.742 59.7289 26.9676 59.7583 27.1987 59.7564C27.3197 59.7564 27.4407 59.7473 27.5618 59.7326C27.6846 59.7179 27.8222 59.7032 27.9341 59.6464C27.9377 59.6446 27.9396 59.6427 27.9414 59.6409C27.9377 59.6537 27.9341 59.6647 27.9304 59.6776C27.8662 59.8738 27.802 60.0792 27.813 60.2882C27.8387 60.7761 28.233 60.9778 28.6584 61.0676C29.1683 61.1758 29.6799 61.2602 30.1952 61.3299C30.3236 61.3464 30.474 61.2419 30.5088 61.1172C30.5162 61.0915 30.5253 61.0603 30.5253 61.0346C30.5253 61.0291 30.5235 61.0236 30.5217 61.0181C30.573 60.9283 30.6225 60.8348 30.6702 60.7431C30.7069 60.9815 30.7472 61.2217 30.7821 61.4601C30.8022 61.5976 30.9288 61.6673 31.0517 61.6893C31.5596 61.7829 32.0933 61.759 32.605 61.7077C32.8489 61.682 33.0928 61.6435 33.333 61.5921C33.5476 61.5445 33.7621 61.4748 33.9107 61.3061C34.0849 61.108 34.0959 60.8586 34.0721 60.6092C34.0482 60.3451 34.0134 60.081 33.984 59.8169C33.9253 59.2814 33.8648 58.746 33.8061 58.2105C33.8025 58.1811 33.7933 58.1536 33.7805 58.1298C34.1858 57.5723 34.5232 56.9671 34.8405 56.3527C35.2311 55.599 35.596 54.8325 35.9224 54.0476C35.9811 53.9063 36.038 53.7651 36.0948 53.6239C38.0332 54.1686 40.0083 53.5194 41.9688 53.6881ZM48.0444 48.1351C45.7777 48.8998 43.4047 49.3803 41.0151 49.527C40.3586 49.5674 39.7021 49.5876 39.0437 49.5912C38.4862 49.5949 37.9324 49.5674 37.3767 49.5949C37.3804 49.4647 37.3675 49.34 37.318 49.2299C37.2648 49.1071 37.1071 49.1016 37.0154 49.1731C36.722 49.3987 36.6285 49.936 36.5313 50.2753C36.4194 50.6622 36.3021 51.0455 36.1774 51.4269C35.9114 52.2375 35.6143 53.0389 35.2861 53.8275C34.9633 54.6051 34.6204 55.3753 34.2426 56.129C33.9529 56.7085 33.6466 57.277 33.377 57.8639C33.179 57.8052 33.0047 57.8694 32.8067 57.9115C32.6068 57.9537 32.4032 57.9867 32.1997 58.0051C31.7944 58.0417 31.3873 58.0234 30.9856 57.9702C30.5803 57.9189 30.1861 57.8217 29.8028 57.6805C29.5185 57.5759 29.2471 57.4292 28.9629 57.3247C29.0032 57.1046 28.9482 56.8516 28.9335 56.6333C28.928 56.5545 28.9225 56.4774 28.917 56.3986C28.928 56.3729 28.9427 56.3472 28.9482 56.3197C28.9665 56.2354 28.9445 56.1584 28.8968 56.1033C28.8913 56.0245 28.8858 55.9456 28.8803 55.8668C28.8418 55.3019 28.796 54.7371 28.752 54.1704C28.7098 53.6331 28.6731 53.0958 28.6218 52.5584C28.5961 52.287 28.5704 52.0156 28.5392 51.7442C28.5209 51.5883 28.5081 51.4269 28.4879 51.2656C28.4952 51.2674 28.5007 51.2674 28.5081 51.2692C28.7373 51.3114 28.9684 51.3426 29.1994 51.3756C29.4397 51.4104 29.7844 51.5296 29.977 51.3352C30.0687 51.2435 30.1145 51.0895 30.0449 50.9685C29.9477 50.8016 29.8193 50.7649 29.6414 50.7447C29.524 50.7301 29.4048 50.7191 29.2875 50.7044C29.0601 50.6787 28.8327 50.6457 28.6053 50.6347C28.5998 50.6347 28.5943 50.6329 28.5869 50.6329C28.5686 50.609 28.5484 50.587 28.5227 50.5687C28.3082 50.4055 28.0734 50.3578 27.8167 50.2899C27.5673 50.2239 27.3197 50.1524 27.074 50.0717C26.5825 49.9103 26.102 49.7214 25.6344 49.5032C24.7028 49.0704 23.8225 48.5129 23.0229 47.8692C21.4164 46.5782 20.1474 44.8836 19.3111 43.0058C19.0782 42.4831 18.8838 41.9439 18.7133 41.3974C18.6289 41.1242 18.5537 40.8491 18.4822 40.5722C18.4474 40.4365 18.418 40.2953 18.3795 40.1577C20.6224 41.0398 23.0578 41.5313 25.4326 41.7936C28.2385 42.1053 31.092 42.0301 33.8777 41.5753C36.4579 41.1535 39.0657 40.409 41.1747 38.8025C42.1155 38.0854 42.9499 37.1997 43.5441 36.1727C44.1969 35.0467 44.549 33.7777 44.6572 32.4848C44.8424 30.2676 44.329 28.1 43.6302 26.0075C45.8456 25.1969 48.0682 24.4542 50.4413 24.2616C52.84 24.0673 55.2644 24.3607 57.5109 25.2373C59.5593 26.0368 61.4409 27.2986 62.8952 28.9527C64.3806 30.6417 65.3526 32.7067 65.6827 34.933C66.0164 37.174 65.6735 39.503 64.6209 41.5075C64.564 41.2984 64.2137 41.2526 64.1606 41.491C64.1019 41.7495 64.0248 41.9843 64.0028 42.252C63.9845 42.4868 63.979 42.7215 63.9643 42.9562C63.935 43.4257 63.8928 43.8934 63.8378 44.361C63.7204 45.3458 63.559 46.3232 63.3426 47.2915C63.1299 48.2433 62.8585 49.1804 62.5321 50.0974C62.29 50.7796 62.0388 51.4655 61.771 52.1422C61.7563 52.1367 61.7417 52.1311 61.7252 52.1293C61.5198 52.0981 61.3327 52.2082 61.142 52.2724C60.9696 52.331 60.7954 52.3806 60.6193 52.4246C60.2416 52.5181 59.8546 52.5823 59.4658 52.6043C59.077 52.6263 58.6882 52.6116 58.3013 52.5713C57.9694 52.5364 57.6264 52.4374 57.2908 52.4447C57.2175 52.1367 57.0029 51.8176 56.8874 51.5626C56.7113 51.172 56.5444 50.7777 56.3867 50.378C56.251 50.0332 56.1208 49.6884 55.9943 49.3418C56.0053 49.2171 56.0016 49.0924 55.9723 48.9695C55.9539 48.8907 55.8879 48.8503 55.8201 48.8503C55.7009 48.5056 55.5872 48.1608 55.4845 47.8105C54.9746 46.0958 54.595 44.3261 54.3309 42.5565C54.3108 42.4189 54.0852 42.4354 54.0852 42.5766C54.0925 43.444 54.1512 44.3023 54.2613 45.1551C54.0669 45.2046 53.9055 45.3201 53.7148 45.4393C53.4617 45.5952 53.2068 45.7474 52.95 45.896C52.4219 46.2004 51.8809 46.4846 51.3326 46.7524C50.2561 47.275 49.1704 47.7555 48.0444 48.1351ZM61.2924 54.7738C61.1273 54.8398 60.9256 54.8526 60.7495 54.8838C60.5441 54.9186 60.3369 54.9517 60.1297 54.9792C59.8179 55.0195 59.5062 55.0525 59.1944 55.08C59.1852 54.506 59.1467 53.932 59.1394 53.3598C59.1357 53.1471 58.8331 53.1288 58.8093 53.3415C58.7414 53.9247 58.6442 54.506 58.5782 55.0892C58.1656 55.058 57.753 55.0323 57.3422 55.0012C57.1405 54.9865 56.9406 54.97 56.7388 54.9535C56.6673 54.948 56.5756 54.9462 56.5188 54.9315C56.5169 54.9315 56.5151 54.9297 56.5133 54.9297C56.5426 54.8985 56.5573 54.7921 56.5738 54.7481C56.6105 54.6491 56.6471 54.55 56.6838 54.451C56.7553 54.2529 56.8269 54.0549 56.8984 53.855C57.0047 53.5616 57.1368 53.259 57.2065 52.9491C57.2395 52.9179 57.2652 52.8812 57.2798 52.839C57.5732 53.0004 57.951 53.0499 58.2665 53.0994C58.6882 53.1636 59.1192 53.1783 59.5465 53.1526C59.9591 53.1288 60.3699 53.0738 60.7734 52.9784C60.9091 52.9454 61.0429 52.9087 61.1768 52.8665C61.2208 53.2186 61.2649 53.5726 61.3107 53.9247C61.3364 54.1282 61.3786 54.3336 61.3896 54.539C61.3932 54.6491 61.3987 54.7316 61.2924 54.7738ZM50.7732 49.1988C50.7035 48.8082 50.665 48.3827 50.5311 48.0049C50.7952 47.8949 51.0575 47.783 51.316 47.6656C51.9286 47.3887 52.5264 47.0751 53.1114 46.7469C53.4122 46.5782 53.7074 46.4039 54.0009 46.2242C54.1292 46.1454 54.2576 46.0738 54.3731 45.9931C54.4868 46.6698 54.6317 47.3447 54.8078 48.0141C54.9691 48.6248 55.1489 49.2318 55.3524 49.8315C55.3524 49.8333 55.3524 49.8333 55.3506 49.8351C55.2607 50.1634 55.1764 50.4935 55.0847 50.8218C54.9141 51.4361 54.7216 52.0431 54.5198 52.6483C54.0687 52.8519 53.5992 52.9912 53.1077 53.0719C52.8583 53.1123 52.6071 53.1379 52.354 53.1416C52.0899 53.1453 51.8002 53.0903 51.5416 53.1471C51.5398 53.1361 51.5398 53.1269 51.5379 53.1159H51.5434C51.3857 52.2338 51.1803 51.3554 51.0098 50.4752C50.9291 50.0497 50.8484 49.6242 50.7732 49.1988ZM53.2966 54.1576C53.1738 54.0971 53.0051 54.1319 52.9317 54.2548C52.9189 54.2768 52.9115 54.3006 52.9005 54.3226C52.9005 54.3226 52.9005 54.3226 52.8987 54.3226C52.8987 54.3245 52.8969 54.3281 52.8969 54.33C52.8565 54.4162 52.8363 54.506 52.8308 54.5977C52.8088 54.6876 52.7868 54.7756 52.7648 54.8655C52.2972 54.8526 51.8314 54.8416 51.3637 54.8361C51.3986 54.4162 51.4408 53.9907 51.4261 53.5689C51.4352 53.5744 51.4389 53.5836 51.4499 53.5891C51.7213 53.734 52.0606 53.7303 52.3632 53.7321C52.6823 53.7321 53.0051 53.7101 53.3186 53.6588C53.6212 53.6093 53.9183 53.5304 54.2062 53.4314C54.3108 53.3947 54.4538 53.3543 54.595 53.303C54.617 53.5084 54.6354 53.712 54.6445 53.9192C54.6519 54.0916 54.6555 54.264 54.6519 54.4345C54.65 54.5482 54.661 54.6986 54.5602 54.7756C54.4685 54.8471 54.3181 54.8618 54.2099 54.8838C54.054 54.915 53.8926 54.948 53.7331 54.9278C53.6304 54.915 53.4488 54.8361 53.3975 54.7224C53.4122 54.6509 53.4268 54.5794 53.4415 54.5079C53.4727 54.363 53.436 54.2254 53.2966 54.1576ZM76.8107 61.3061C76.1743 62.0616 75.228 62.3679 74.2616 62.3257C71.9656 62.2248 70.1097 60.5505 67.8998 60.0957C65.8642 59.6757 63.7974 60.114 61.7582 60.2736C60.7807 60.3506 59.7776 60.3726 58.813 60.1599C57.8593 59.949 57.0359 59.485 56.2749 58.8817C55.5376 58.2985 54.8444 57.642 54.0357 57.156C53.6451 56.9212 53.2233 56.725 52.7813 56.6077C52.2183 56.4573 51.6315 56.4426 51.0538 56.4188C50.1625 56.3821 49.0145 56.2721 48.5487 55.3716C48.1361 54.5757 48.8843 53.9522 49.539 53.6588C49.9003 53.4974 50.2909 53.391 50.676 53.3067C50.8026 53.2792 50.8704 53.1966 50.8924 53.1031C50.9034 53.1508 50.9144 53.2003 50.9254 53.2498C50.9364 53.2957 50.9566 53.3323 50.9768 53.3653C50.8356 53.9284 50.8172 54.5299 50.7585 55.1057C50.742 55.2616 50.8814 55.4046 51.0318 55.412C51.681 55.4413 52.3302 55.4578 52.9794 55.4761C53.0711 55.478 53.1829 55.4321 53.2435 55.3514C53.6267 55.5862 54.1531 55.5055 54.5602 55.3826C54.7637 55.3221 54.9545 55.2212 55.0737 55.0397C55.2002 54.849 55.2094 54.6142 55.2112 54.3923C55.213 53.8862 55.169 53.3819 55.092 52.883C55.2057 52.619 55.2681 52.3035 55.3451 52.0358C55.4441 51.6947 55.5395 51.3499 55.6275 51.0051C55.6477 50.9245 55.6678 50.8419 55.688 50.7612C55.8421 51.1537 56.0034 51.5443 56.174 51.9294C56.3024 52.2173 56.4326 52.6593 56.6893 52.8922C56.6435 52.9894 56.6013 53.0884 56.5591 53.1875C56.4711 53.3984 56.3867 53.6111 56.3005 53.8238C56.2088 54.0531 56.1135 54.2805 56.0236 54.5097C55.9448 54.7133 55.8659 54.926 55.9393 55.1442C56.0933 55.6119 56.726 55.5605 57.1203 55.5972C57.6008 55.6394 58.0812 55.6815 58.5617 55.7072C58.6002 55.7091 58.6351 55.7035 58.6662 55.6944C58.7176 55.7366 58.7818 55.7641 58.8478 55.7604C59.3521 55.7421 59.8564 55.7035 60.3552 55.632C60.5992 55.5972 60.8431 55.5568 61.087 55.5128C61.3034 55.4725 61.5271 55.434 61.7123 55.3111C62.1635 55.0122 62.0553 54.4712 61.9947 54.0145C61.9434 53.6184 61.8884 53.2223 61.8352 52.828C62.1781 52.2559 62.4899 51.68 62.765 51.0785C65.1582 51.0675 67.6266 51.238 69.9556 51.801C70.4398 51.9184 70.9661 52.0926 71.2723 52.5108C71.5254 52.8537 71.6079 53.3268 71.2962 53.6606C71.0211 53.954 70.5828 54.0512 70.205 54.1301C69.8034 54.2126 69.4073 54.264 69.0258 54.4235C68.6481 54.583 68.2629 54.8251 68.0631 55.1974C67.8558 55.5843 67.887 56.0502 68.1364 56.4114C68.7122 57.2458 69.9648 57.4439 70.8964 57.5154C72.8421 57.6658 75.6003 57.0221 76.917 58.9165C77.447 59.6702 77.4067 60.6018 76.8107 61.3061Z" fill="black"/>
<path d="M7.39082 62.5237C7.35415 62.509 7.3193 62.5072 7.28079 62.5072C7.22027 62.5053 7.16342 62.5035 7.1029 62.5163C7.00571 62.5383 6.90851 62.5603 6.81315 62.5823C6.75813 62.5952 6.72512 62.652 6.73246 62.7052C6.7398 62.7621 6.78564 62.8006 6.84249 62.8024C6.94152 62.8079 7.04055 62.8134 7.13775 62.8152C7.19827 62.8171 7.25512 62.8024 7.3138 62.7914C7.34681 62.7841 7.37799 62.7804 7.40733 62.7621C7.45318 62.7327 7.48619 62.6832 7.47885 62.6282C7.47151 62.5805 7.43484 62.5438 7.39082 62.5237Z" fill="black"/>
<path d="M44.7177 64.2091C44.9671 64.2843 45.2183 64.3301 45.4787 64.3356C45.7391 64.3411 46.0106 64.2714 46.2526 64.1797C46.502 64.0844 46.7349 63.9615 46.9458 63.7983C47.0504 63.7176 47.1549 63.6314 47.2466 63.5342C47.3548 63.4168 47.4135 63.2921 47.4502 63.1381C47.4887 62.9822 47.3126 62.8208 47.1641 62.918C47.0614 62.9859 46.9623 63.0482 46.8762 63.1381C46.7955 63.2224 46.7166 63.305 46.6286 63.3802C46.4599 63.5232 46.2655 63.6406 46.0637 63.7304C45.8639 63.8203 45.653 63.8643 45.4402 63.9157C45.2165 63.9707 44.9799 63.989 44.7507 63.9652C44.6058 63.9505 44.5875 64.1706 44.7177 64.2091Z" fill="black"/>
<path d="M47.83 62.08C47.8593 62.0928 47.8942 62.0965 47.9235 62.0873C47.9565 62.0763 47.995 62.0543 48.0097 62.0213C48.0317 61.9681 48.0556 61.9149 48.0776 61.8618C48.0941 61.8232 48.1106 61.7847 48.1253 61.7462C48.1363 61.7205 48.1363 61.6912 48.1399 61.6637C48.1436 61.6362 48.1399 61.6105 48.1344 61.5812C48.1271 61.5537 48.1124 61.5298 48.0922 61.5097C48.0721 61.4895 48.0482 61.4748 48.0207 61.4675C47.9675 61.4528 47.8997 61.4656 47.863 61.5097C47.8447 61.5317 47.83 61.5518 47.8172 61.5757C47.8062 61.5995 47.7933 61.6233 47.7878 61.649C47.7823 61.6784 47.7768 61.7077 47.7731 61.7352C47.764 61.7939 47.7548 61.8508 47.7475 61.9094C47.742 61.9479 47.7401 61.9865 47.7621 62.0213C47.7787 62.0488 47.8007 62.0671 47.83 62.08Z" fill="black"/>
<path d="M60.2471 58.834C60.1316 58.8193 60.0087 58.8633 59.8932 58.8798C59.7868 58.8945 59.6768 58.9 59.5686 58.9C59.3485 58.9 59.1321 58.8798 58.9194 58.8266C58.4958 58.7239 58.0575 58.5149 57.7164 58.2453C57.6082 58.1609 57.4028 58.2746 57.5037 58.4085C57.6614 58.6176 57.8246 58.8065 58.0428 58.9532C58.2647 59.1035 58.5141 59.2191 58.7672 59.2998C59.0184 59.3805 59.2844 59.43 59.5466 59.4391C59.6731 59.4446 59.8015 59.4391 59.928 59.4263C60.0748 59.4116 60.2508 59.4025 60.3755 59.3163C60.6011 59.1622 60.5002 58.867 60.2471 58.834Z" fill="black"/>
<path d="M63.0861 58.6799C63.0366 58.6744 62.9889 58.6652 62.9394 58.6725C62.9009 58.678 62.8623 58.6854 62.8238 58.6927C62.7395 58.7074 62.6551 58.7202 62.5726 58.7367L62.0738 58.8394C62.0078 58.8523 61.9711 58.9293 61.9876 58.9916C62.0059 59.0595 62.0738 59.0907 62.1398 59.0778C62.3067 59.0448 62.4736 59.0136 62.6404 58.9806C62.723 58.9641 62.8055 58.9439 62.888 58.9256C62.9265 58.9164 62.965 58.9109 63.0017 58.8981C63.0457 58.8834 63.0861 58.8559 63.1264 58.8339C63.2034 58.7881 63.1613 58.689 63.0861 58.6799Z" fill="black"/>
<path d="M75.6645 58.326C75.538 58.2544 75.4023 58.2104 75.2592 58.1903C75.1125 58.1701 74.9585 58.1884 74.8154 58.2233C74.7439 58.2416 74.698 58.3168 74.7072 58.3883C74.7182 58.4672 74.7787 58.5112 74.8539 58.5185C74.8704 58.5204 74.8814 58.5204 74.9144 58.5277C74.9401 58.5332 74.964 58.5387 74.9896 58.546C75.0006 58.5497 75.0116 58.5534 75.0226 58.557C75.0263 58.5589 75.0281 58.5589 75.03 58.5607C75.0703 58.5809 75.1143 58.5955 75.1584 58.612C75.1565 58.612 75.1565 58.6121 75.1565 58.6102C75.1584 58.6102 75.1583 58.612 75.1602 58.612C75.1602 58.612 75.1602 58.612 75.162 58.612C75.1657 58.6139 75.173 58.6176 75.1767 58.6194C75.1804 58.6212 75.184 58.6231 75.1877 58.6249C75.2134 58.6377 75.239 58.6506 75.2647 58.6652C75.3142 58.6946 75.3656 58.7239 75.4151 58.7551C75.4298 58.7643 75.5105 58.8138 75.4499 58.7771C75.4701 58.7881 75.4866 58.8064 75.5031 58.8211C75.5471 58.8596 75.5893 58.9018 75.6278 58.9458C75.6315 58.9495 75.637 58.9568 75.6443 58.9623C75.6462 58.9642 75.648 58.966 75.6535 58.9752C75.67 58.999 75.6865 59.0228 75.703 59.0467C75.7159 59.0669 75.7269 59.087 75.7379 59.1072C75.7452 59.12 75.7507 59.1329 75.758 59.1457C75.7617 59.153 75.7654 59.1622 75.769 59.1695C75.78 59.1952 75.7782 59.1916 75.7635 59.153C75.7745 59.153 75.8112 59.2869 75.8167 59.3016C75.8497 59.3914 75.9121 59.4685 76.0111 59.4905C76.1046 59.5107 76.1927 59.4868 76.2623 59.419C76.4201 59.2667 76.2972 59.0173 76.2073 58.8615C76.079 58.6396 75.8882 58.4525 75.6645 58.326Z" fill="black"/>
<path d="M75.1602 58.6102C75.1806 58.6195 75.1824 58.6214 75.1769 58.6176C75.1713 58.6158 75.1657 58.6121 75.1602 58.6102Z" fill="black"/>
<path d="M75.9762 60.4221C75.8864 60.4019 75.813 60.4496 75.78 60.534C75.7782 60.5376 75.7782 60.5395 75.7763 60.5431C75.7433 60.6183 75.703 60.688 75.6535 60.7522C75.6425 60.7669 75.6315 60.7797 75.6223 60.7944C75.6315 60.7815 75.6406 60.7687 75.6516 60.7577C75.6205 60.7962 75.5893 60.8347 75.5599 60.8751C75.5691 60.8622 75.5783 60.8512 75.5874 60.8384C75.5618 60.8714 75.5361 60.9026 75.5068 60.9319C75.4884 60.9502 75.4701 60.9667 75.4536 60.9869C75.4316 61.0144 75.4206 61.0474 75.4077 61.0804C75.3747 61.1666 75.4591 61.2565 75.5416 61.2565C75.5948 61.2565 75.6425 61.2473 75.6883 61.218C75.7213 61.196 75.7525 61.1703 75.7855 61.1465C75.8093 61.1263 75.8332 61.1061 75.8552 61.0841C75.8864 61.0548 75.9102 61.0181 75.9359 60.9851C75.9781 60.9264 76.0056 60.8604 76.0331 60.7944C76.0569 60.7375 76.0753 60.6807 76.0881 60.622C76.1064 60.5358 76.0643 60.4423 75.9762 60.4221Z" fill="black"/>
<path d="M38.9118 54.583C39.3207 54.5903 39.7279 54.6307 40.1368 54.6453C40.5421 54.6582 40.9566 54.7077 41.3619 54.671C41.5948 54.649 41.6626 54.3226 41.4187 54.2492C41.0116 54.1282 40.5586 54.1282 40.1368 54.141C39.7095 54.1539 39.2932 54.2346 38.8769 54.3208C38.7247 54.3519 38.7651 54.5793 38.9118 54.583Z" fill="black"/>
<path d="M33.6741 68.3811C33.0744 68.0051 32.361 67.8016 31.6568 67.7594C31.2882 67.7374 30.9159 67.7667 30.551 67.8346C30.2539 67.8896 29.9256 67.9666 29.6579 68.1207C28.8473 68.3793 28.1651 69.0321 28.0422 69.9105C27.967 70.4497 28.1578 71.0145 28.5576 71.3868C28.9849 71.7848 29.5515 71.8655 30.1035 71.7169C30.7105 71.5519 31.2442 71.1796 31.8879 71.1484C32.5132 71.1172 33.1478 71.253 33.7493 71.0182C34.2609 70.8183 34.646 70.38 34.6277 69.8079C34.6075 69.1825 34.1802 68.6984 33.6741 68.3811ZM33.6704 70.4864C33.2303 70.7083 32.7168 70.6404 32.2418 70.6276C31.7082 70.6129 31.2405 70.7138 30.749 70.9173C30.3199 71.0952 29.8303 71.3611 29.3516 71.2493C28.9353 71.1521 28.6401 70.7688 28.5594 70.3635C28.453 69.828 28.7391 69.2815 29.1371 68.9386C29.2801 68.8157 29.4378 68.7204 29.6029 68.6415C29.6322 68.6452 29.6652 68.6452 29.7001 68.6378C29.9458 68.5847 30.1769 68.4801 30.4226 68.4178C30.683 68.3517 30.9489 68.3114 31.2185 68.3004C31.7283 68.2784 32.2363 68.3481 32.7186 68.5131C33.1863 68.6727 33.7273 68.9349 33.9803 69.3824C34.2169 69.8042 34.1069 70.2663 33.6704 70.4864Z" fill="black"/>
<path d="M70.0435 62.72C68.5196 61.4821 66.4638 60.9888 64.5401 61.3794C64.4924 61.3886 64.4539 61.4069 64.4227 61.4308C63.669 61.3372 62.9152 61.3611 62.2202 61.7517C61.5105 62.1515 61.0282 62.8869 61.1602 63.7176C61.2959 64.5667 62.0185 65.0765 62.8621 64.9757C63.3444 64.9188 63.7937 64.7189 64.2742 64.6547C64.7326 64.5942 65.1929 64.7152 65.6037 64.917C67.1002 65.656 68.4297 67.5486 70.3186 66.8756C71.1365 66.584 71.606 65.8192 71.5033 64.9555C71.3969 64.0385 70.7367 63.283 70.0435 62.72ZM70.4342 66.1805C69.8675 66.5436 69.1211 66.4574 68.5398 66.1805C67.8007 65.8284 67.2065 65.2489 66.5372 64.7904C65.8788 64.3411 65.0939 63.978 64.276 64.0697C63.8707 64.1156 63.4893 64.2513 63.095 64.343C62.7539 64.4218 62.3577 64.4658 62.0625 64.2329C61.428 63.7341 61.7196 62.808 62.2532 62.3734C62.8291 61.9021 63.6158 61.8122 64.3622 61.7975C64.419 61.9131 64.5401 61.9974 64.7014 61.9608C66.1575 61.6288 67.6888 61.9039 68.9671 62.665C69.6107 63.0482 70.2434 63.5691 70.6359 64.2164C71.0082 64.8271 71.1182 65.7404 70.4342 66.1805Z" fill="black"/>
<path d="M33.3657 69.7382C33.3309 69.762 33.296 69.784 33.2575 69.8024C33.2392 69.8115 33.2227 69.8207 33.2043 69.8299C33.197 69.8336 33.1897 69.8372 33.1823 69.8409C33.142 69.8537 33.1035 69.8684 33.0631 69.8776C33.0448 69.8831 33.0246 69.8849 33.0044 69.8904C33.0026 69.8904 33.0026 69.8904 33.0008 69.8904C32.9916 69.8922 32.9824 69.8922 32.9733 69.8941C32.8944 69.9014 32.8101 69.9014 32.7294 69.8941C32.711 69.8922 32.6909 69.8904 32.6725 69.8886C32.667 69.8886 32.6652 69.8886 32.6633 69.8886C32.656 69.8867 32.6487 69.8867 32.6413 69.8849C32.5918 69.8757 32.5313 69.8684 32.48 69.8831C32.4286 69.8996 32.3883 69.9564 32.4066 70.0114C32.4433 70.1233 32.5661 70.1838 32.6707 70.2205C32.7697 70.2553 32.8742 70.27 32.9806 70.2664C33.0833 70.2608 33.1878 70.2443 33.285 70.2113C33.4024 70.171 33.4978 70.1141 33.5931 70.0371C33.6646 69.9784 33.6591 69.8574 33.6078 69.7914C33.5546 69.718 33.4427 69.685 33.3657 69.7382Z" fill="black"/>
<path d="M70.159 64.132C70.0692 64 69.9334 63.8936 69.7996 63.8056C69.6767 63.7249 69.5502 63.9028 69.6474 64.0036C69.7299 64.0898 69.7666 64.1833 69.8014 64.2952C69.8197 64.3521 69.8399 64.4089 69.8528 64.4694C69.8564 64.4841 69.8583 64.4988 69.8619 64.5134C69.8619 64.5153 69.8619 64.5153 69.8619 64.5226C69.8619 64.5575 69.8638 64.5905 69.8619 64.6235C69.8619 64.6546 69.8601 64.684 69.8583 64.7152C69.8583 64.7207 69.8583 64.7243 69.8564 64.728C69.8546 64.7408 69.8528 64.7537 69.8491 64.7665C69.8436 64.7959 69.8344 64.8252 69.8271 64.8545C69.8234 64.8692 69.8179 64.8839 69.8124 64.8967C69.8106 64.9022 69.8087 64.9059 69.8069 64.9096C69.7812 64.9664 69.7501 65.0196 69.7152 65.0709C69.7134 65.0746 69.7134 65.0746 69.7115 65.0764C69.7115 65.0764 69.7115 65.0764 69.7097 65.0783C69.7005 65.0893 69.6895 65.1021 69.6804 65.1131C69.6584 65.1388 69.6327 65.1626 69.607 65.1846C69.5135 65.269 69.5135 65.4414 69.607 65.5257C69.7042 65.6156 69.8528 65.6193 69.9481 65.5257C70.1847 65.2947 70.3387 64.9462 70.3112 64.6125C70.3002 64.4529 70.2507 64.2677 70.159 64.132Z" fill="black"/>
<path d="M76.5852 62.8227C76.4843 62.8208 76.3834 62.8685 76.2936 62.907C76.2165 62.9401 76.1377 62.9694 76.0588 63.0006C75.892 63.0666 75.7177 63.1161 75.5398 63.1454C75.373 63.1748 75.2006 63.184 75.0319 63.1785C74.8521 63.173 74.6687 63.1913 74.4909 63.1638C74.4175 63.1528 74.346 63.1766 74.3148 63.25C74.2891 63.3123 74.3075 63.404 74.3753 63.4352C74.5716 63.5251 74.7641 63.6168 74.9787 63.6388C75.1987 63.6626 75.4151 63.6534 75.6334 63.6204C75.8351 63.5892 76.0313 63.5342 76.2184 63.459C76.4201 63.3765 76.6603 63.2481 76.7465 63.0391C76.7924 62.9327 76.6842 62.8245 76.5852 62.8227Z" fill="black"/>
<path d="M78.5602 61.009C78.5474 60.9576 78.4942 60.9338 78.4465 60.9448C78.3878 60.9576 78.3457 60.987 78.3035 61.0401C78.265 61.0878 78.2283 61.1373 78.1916 61.185C78.1256 61.2694 78.0742 61.3666 78.0174 61.4583C77.9037 61.6435 77.8047 61.8415 77.7001 62.0341C77.6708 62.0891 77.6873 62.1606 77.7423 62.1918C77.801 62.2267 77.8633 62.201 77.9 62.1496C78.0284 61.9717 78.1678 61.7994 78.287 61.616C78.3457 61.5261 78.4098 61.4381 78.4594 61.3427C78.485 61.2932 78.5107 61.2437 78.5345 61.1942C78.5657 61.1282 78.5767 61.0805 78.5602 61.009Z" fill="black"/>
<path d="M51.1013 63.3747C50.8574 63.7195 50.6813 64.1028 50.3897 64.4145C50.1128 64.7116 49.7772 64.9427 49.4178 65.1261C49.0638 65.3058 48.6861 65.436 48.3028 65.5424C47.9158 65.6506 47.4922 65.7203 47.1621 65.9642C47.0759 66.0284 47.0667 66.1897 47.1951 66.2173C47.6334 66.3089 48.0882 66.1732 48.5082 66.0467C48.941 65.9147 49.3683 65.7533 49.7626 65.5332C50.4961 65.1261 51.347 64.3467 51.358 63.4463C51.3617 63.2995 51.1765 63.2702 51.1013 63.3747Z" fill="black"/>
<path d="M46.1681 66.0907C45.871 66.1237 45.5758 66.1585 45.2787 66.2026C45.1375 66.2246 44.9926 66.2466 44.8569 66.2851C44.7157 66.3254 44.5616 66.3584 44.4369 66.4355C44.3507 66.4905 44.3562 66.6427 44.4663 66.6665C44.6057 66.6977 44.7505 66.6794 44.8917 66.6702C45.0458 66.661 45.2035 66.6335 45.3557 66.6042C45.6436 66.5492 45.9279 66.4831 46.2121 66.4153C46.39 66.3749 46.357 66.0705 46.1681 66.0907Z" fill="black"/>
</svg>
