<svg width="80" height="80" viewBox="0 0 80 80" fill="none" xmlns="http://www.w3.org/2000/svg">
<rect width="80" height="80" fill="white"/>
<path d="M39.5951 4.12402C41.2836 3.53796 43.1784 5.1237 42.8608 6.89035C42.6941 8.69845 40.4101 9.7688 38.9139 8.74179C37.1341 7.66955 37.5722 4.62999 39.5951 4.12402ZM39.8297 4.82879C38.5823 5.15103 38.0622 6.89223 38.9931 7.80994C39.8439 8.85391 41.8197 8.42615 42.0505 7.059C42.5019 5.76629 41.1243 4.38595 39.8297 4.82879Z" fill="black"/>
<path d="M31.8577 5.58628C32.6087 5.57026 33.255 6.34853 33.1278 7.08534C32.9912 7.94934 31.8483 8.51184 31.1228 7.94934C30.141 7.33031 30.6847 5.54482 31.8577 5.58628ZM31.7371 6.32215C31.0521 6.46725 31.4309 7.76844 32.0584 7.37742C32.6256 7.12208 32.3665 6.17987 31.7371 6.32215Z" fill="black"/>
<path d="M53.3326 9.75371C54.9409 9.40886 56.1903 11.4666 55.2452 12.7678C54.5131 14.0229 52.4893 13.8938 51.8712 12.5935C51.1805 11.4648 52.0596 9.90352 53.3326 9.75371ZM53.5719 10.4981C52.0069 10.483 52.1171 13.0053 53.6576 12.8809C55.1981 12.9129 55.1218 10.3548 53.5719 10.4981Z" fill="black"/>
<path d="M18.6329 15.7678C20.0537 13.8146 22.6203 12.5389 25.0295 13.2898C26.832 13.7166 27.9871 15.2524 29.1328 16.5621C30.8712 16.3888 32.6341 16.2455 34.3772 16.4528C36.2691 14.053 39.4529 12.6519 42.4887 13.3859C45.4679 13.9682 47.6143 16.5819 48.3746 19.4104C51.3398 21.5832 54.0185 24.3683 55.4054 27.8262C55.8059 29.3328 57.1523 30.2628 57.9692 31.5225C60.9635 35.7446 63.4575 40.4971 64.2688 45.6585C64.6033 45.602 64.9387 45.5407 65.2732 45.4832C65.668 41.0473 67.5137 36.7358 70.5053 33.4305C70.722 32.8887 71.6642 32.9189 71.4032 33.5756C68.4833 36.8479 66.4066 41.0143 66.1278 45.4371C67.8341 45.536 69.4726 46.5432 70.1924 48.1167C71.5294 50.7295 71.5436 53.7624 71.3193 56.6211C73.0002 54.1327 75.4848 52.1531 78.3388 51.1987C79.0605 50.9547 79.118 51.8856 78.8598 52.3237C77.2176 55.3501 75.4801 58.3614 74.3438 61.6224C75.157 62.4788 76.1095 63.3494 76.297 64.5884C76.5882 66.2166 75.4933 67.66 74.3287 68.6607C71.4286 71.1151 67.7361 72.3164 64.1303 73.3048C54.4802 75.7941 44.44 76.3359 34.511 76.1484C25.772 75.8601 16.9293 74.8651 8.66428 71.8726C5.73118 70.6873 2.2761 69.2787 1.09362 66.0705C0.492494 63.5567 2.9102 61.7637 4.80122 60.6415C4.16617 59.6183 3.39733 58.6902 2.69726 57.716C2.38728 57.3438 2.55216 56.736 3.03175 56.6145C4.14732 56.2612 5.35053 56.4656 6.46233 56.7361C5.9102 55.758 5.19506 54.8761 4.68909 53.8727C4.42151 53.3959 4.91523 52.8202 5.42967 53.0087C7.55812 53.59 9.35209 54.9741 10.8813 56.5203C10.1219 51.2449 8.20825 45.8931 4.3433 42.0875C3.90895 41.6126 4.65612 41.1321 5.08953 41.4544C9.54147 43.1692 12.8863 47.0181 14.9347 51.2298C15.1203 46.8315 18.3191 43.4613 19.8398 39.5549C17.0773 37.2643 13.9425 34.8777 12.9956 31.2286C12.419 28.3162 14.2883 25.6695 16.2359 23.7097C14.6831 20.982 15.8241 17.1812 18.6329 15.7678ZM19.8238 15.6463C20.2431 15.6001 20.7208 15.619 20.9865 16.0024C22.218 17.4403 22.1859 19.5555 21.4868 21.2298C22.1416 21.0018 22.7918 20.6523 23.5097 20.7455C21.1099 21.9478 18.7836 23.297 16.4846 24.6821C14.6812 26.3828 13.2076 28.988 13.9171 31.5244C14.9695 34.5338 17.5503 36.5728 19.9105 38.5467C20.9168 39.4267 22.0747 40.3369 22.3904 41.7069C21.8128 41.1745 21.337 40.5282 20.6633 40.1032C19.2302 43.2766 16.8285 46.0495 16.0729 49.5281C15.4689 52.8702 16.0408 56.2866 16.6976 59.5768C15.2918 60.3636 13.8898 61.1852 12.5518 62.085C11.995 62.3422 11.7811 63.3683 12.5631 63.4502C14.294 63.6302 15.9956 62.6371 17.098 61.3501C17.2893 61.0806 17.6379 61.1343 17.9253 61.1324C17.1168 62.2819 15.7959 63.2722 15.7431 64.7872C15.7478 65.5909 16.7032 65.8142 17.342 65.6541C18.7431 65.2329 19.4903 63.6114 21.0364 63.4502C22.739 62.9217 24.1429 64.7891 25.8238 64.1936C26.4051 63.91 26.0565 63.2392 25.755 62.8811C24.7855 61.9474 23.4287 61.4339 22.5515 60.3833C22.6099 59.9857 23.0301 60.2307 23.2431 60.3504C24.5669 61.1267 25.8869 62.1858 27.5 62.1679C27.9259 62.1914 28.592 61.9361 28.3612 61.3943C27.8081 60.2929 26.3844 60.4163 25.4234 59.9028C23.9083 59.3055 22.479 57.7084 20.7359 58.5328C21.9457 56.4138 21.5273 53.6871 21.2522 51.3362C20.3477 51.5652 19.7541 50.7125 19.5506 49.9474C20.0019 50.2763 20.4278 50.9481 21.0732 50.7483C21.9834 49.9361 22.6109 48.8366 23.5069 48.0121C23.913 48.1111 23.9535 48.6896 24.1796 49.0024C25.8841 52.6063 28.8304 55.5734 32.3929 57.3513C36.3784 59.4383 40.9557 61.1032 45.5103 60.4333C45.4001 57.9948 45.906 55.5705 46.7484 53.2904C44.1969 51.5577 41.9158 49.2295 40.8718 46.2785C42.7515 48.7876 44.879 51.2496 47.6529 52.7986C46.9255 55.5489 45.9277 58.3906 46.4667 61.2794C47.2223 61.5894 48.0383 61.9898 48.4114 62.7653C47.6435 62.3347 46.9359 61.6883 45.9824 61.8042C45.9748 61.6045 45.9701 61.4056 45.9654 61.2078C43.4101 60.8752 41.6171 63.1261 39.2069 63.4606C38.391 63.5143 37.2528 64.2502 37.82 65.1707C38.75 66.0545 40.0568 65.2037 41.0942 64.9832C42.3662 64.9248 42.6507 63.3513 44.0518 63.6632C43.2029 64.7552 41.8376 65.4289 41.2007 66.682C40.9538 68.0143 42.8957 68.2489 43.6985 67.5912C44.554 66.9581 45.5697 66.4672 46.6655 66.5982C49.2565 66.8045 51.7459 65.1387 52.7785 62.7963C54.3501 59.296 55.5816 55.6148 56.2996 51.8403C56.6736 50.4157 55.9707 49.0354 55.2829 47.8331C54.0486 45.8667 52.7597 43.9267 51.3059 42.1139C50.814 41.3743 49.9293 40.7241 50.0056 39.7471C51.6055 41.0615 52.852 42.7367 54.026 44.4261C55.3621 46.4499 57.1372 48.4908 57.1777 51.0385C56.7999 54.3645 55.7813 57.5935 54.565 60.7009C56.1611 60.6726 57.6752 60.1553 59.1837 59.6946C57.9475 58.579 57.0185 57.047 56.9648 55.3482C56.8413 53.0586 57.8825 50.9575 59.0028 49.0382C58.7116 46.3906 57.6827 43.4989 55.2292 42.1214C54.157 41.3347 52.6419 41.3733 51.7233 40.351C50.8376 39.3683 51.1947 37.9088 51.5122 36.765C51.9673 35.7417 53.3721 36.2383 53.9243 36.9233C54.8288 38.0426 56.081 40.3501 54.4189 41.3309C57.3954 42.4672 59.0989 45.5897 59.3533 48.6453C60.2559 47.6503 61.3884 46.8918 62.569 46.2643C62.3627 45.3344 61.9783 44.3366 62.2817 43.3925C62.5379 44.2979 62.6303 45.2373 62.8225 46.1579C63.0505 46.0759 63.2766 45.9911 63.5037 45.9054C63.3124 44.8953 63.0448 43.9032 62.7725 42.9129C62.6256 43.0618 62.4786 43.2097 62.3335 43.3586C60.6724 42.8319 59.5426 40.9955 59.6943 39.2892C59.7141 38.4798 60.5706 37.9569 60.482 37.1522C59.3646 38.6795 57.3539 37.4603 56.6444 36.1648C55.1642 34.1673 55.5844 31.5555 55.0898 29.3168C54.614 30.0772 53.6444 29.8379 53.1564 29.2282C51.5518 27.4776 51.1042 25.0194 50.7876 22.7458C50.163 21.8366 49.2349 21.1912 48.3784 20.5156C48.2795 21.5813 48.3322 22.7647 47.6378 23.6551C48.2116 20.0445 46.8087 15.6859 43.0568 14.4327C38.9638 12.7999 34.6495 16.0533 33.4208 19.9126C33.288 19.8118 33.1561 19.711 33.0242 19.6121C33.2154 18.7829 33.5405 17.9943 33.9183 17.2349C32.1319 17.1529 30.3021 17.1453 28.5694 17.6475C28.0088 16.0524 26.5766 14.7917 25.0352 14.1595C23.1894 13.4133 21.0685 14.1849 19.8238 15.6463ZM16.3555 20.2575C16.1737 21.5134 16.1888 23.2641 17.5305 23.8765C17.7001 23.102 17.0584 22.5574 16.805 21.8903C16.0484 19.9899 17.3411 16.6592 19.7569 17.1029C21.2974 18.0649 20.9921 20.2292 20.5663 21.733C21.7657 20.3074 21.9598 17.558 20.4607 16.2795C18.3229 16.1381 16.5685 18.2223 16.3555 20.2575ZM18.8505 17.706C17.718 17.9867 17.9733 19.9654 19.2076 19.6865C20.4749 19.5207 20.1338 17.2942 18.8505 17.706ZM51.141 23.0954C51.4444 25.0901 51.9136 27.1931 53.227 28.7892C53.537 29.2198 54.0646 29.3583 54.5659 29.4214C55.0926 28.8853 54.6441 28.1692 54.4086 27.6076C53.5728 25.9465 52.5204 24.3542 51.141 23.0954ZM55.8633 30.4333C55.6287 32.8831 56.1121 35.9924 58.4337 37.3246C59.0602 37.8391 60.4321 37.3859 60.0175 36.4757C58.8906 34.3124 57.6187 32.1397 55.8633 30.4333ZM52.0907 36.601C51.336 37.3614 51.4199 38.836 51.7628 39.8102C52.3602 40.6912 54.368 41.6513 54.841 40.2285C54.7883 38.7295 53.9214 36.3966 52.0907 36.601ZM60.6978 37.8655C59.4729 39.3061 60.1202 41.5156 61.542 42.552C61.8313 42.7951 62.5568 42.8969 62.5012 42.341C62.0932 40.7892 61.5251 39.2477 60.6978 37.8655ZM6.23243 42.8686C9.66867 47.0972 11.2902 52.5018 11.9413 57.8375C13.0814 57.569 14.1941 57.1996 15.3116 56.8519C15.1665 55.4876 15.1015 54.0998 14.7566 52.7675C13.0917 48.6641 10.0851 45.0771 6.23243 42.8686ZM64.0379 46.5856C60.0712 47.803 57.1617 52.1814 57.9692 56.3017C58.9924 59.9857 63.4622 61.0985 66.793 60.2364C64.8935 61.6289 62.0244 61.2587 60.0194 60.1468C59.4343 60.3871 58.8285 60.5708 58.2575 60.845C58.6428 61.1258 59.0405 61.3906 59.4748 61.5941C57.9626 62.0765 56.6077 62.9763 55.0596 63.3862C54.3614 63.5049 53.6501 64.5065 54.4227 65.0068C55.6061 65.7568 56.9233 64.8391 58.0408 64.3972C59.3354 64.0994 60.3068 62.8632 61.657 62.899C60.8985 63.7046 59.8281 64.1267 59.081 64.9446C58.5269 65.4713 58.9189 66.5435 59.6821 66.6019C60.6611 66.8092 61.5062 66.1968 62.2477 65.6522C63.7835 64.5017 65.961 64.8815 67.4327 63.5982C69.6017 61.6563 70.4874 58.6732 70.5769 55.8381C70.6673 53.2565 70.5637 50.5024 69.271 48.1977C68.2788 46.3944 65.8668 45.879 64.0379 46.5856ZM22.1605 51.8865C22.4639 53.7257 22.3772 55.6063 22.119 57.4455C23.1168 57.846 24.092 58.2945 25.0229 58.8296C25.7786 59.3215 26.4984 58.4405 27.2918 58.5168C26.9497 58.8457 26.5446 59.0972 26.1479 59.3545C28.6862 59.7464 31.2651 59.2056 33.8062 59.0303C29.359 57.0724 25.4356 53.7879 23.3618 49.319C22.935 50.1585 21.8138 50.8359 22.1605 51.8865ZM71.7433 57.3607C71.1789 58.0589 70.999 58.9587 70.7898 59.8095C71.7584 60.1431 72.6384 60.6547 73.542 61.1267C74.8338 58.1484 76.2358 55.2172 77.8375 52.3934C75.2681 53.2367 73.3319 55.2568 71.7433 57.3607ZM5.75944 54.0168C6.69694 55.6497 7.70228 57.2401 8.80938 58.7637C9.62156 58.5413 10.4328 58.3095 11.229 58.0354C9.72803 56.3366 7.95197 54.7329 5.75944 54.0168ZM3.51981 57.2712C4.20574 58.2511 4.80687 59.2894 5.52107 60.2514C5.97615 60.0168 6.4303 59.7813 6.8769 59.5316C6.75159 59.3742 6.62534 59.2197 6.50379 59.0633C6.72615 59.1839 6.94192 59.3139 7.15863 59.444C7.67307 59.2414 8.17056 59.0011 8.65862 58.7448C7.26698 57.5906 5.30153 57.1129 3.51981 57.2712ZM3.3163 62.6673C2.082 63.5859 1.25003 65.3629 2.24783 66.7574C3.7026 68.8858 6.18721 69.9741 8.49091 70.937C14.4325 73.2228 20.7736 74.248 27.0779 74.9207C37.1737 75.7282 47.3806 75.5576 57.3869 73.922C62.9553 72.8507 68.8291 71.7577 73.4789 68.3007C74.6943 67.3708 75.9899 65.8133 75.3482 64.1918C74.4795 62.2291 72.2992 61.4744 70.4864 60.649C69.6912 62.2989 68.7047 64.0401 66.9833 64.8654C65.9987 65.3818 64.8746 65.4694 63.8193 65.7624C62.3768 66.1977 61.2886 67.7656 59.635 67.4122C58.526 67.335 57.858 66.0988 58.282 65.0991C57.0279 65.7681 55.4582 66.5614 54.0891 65.7144C53.2562 65.3111 53.1969 64.2766 53.5078 63.5115C52.021 65.8152 49.5232 67.6223 46.6636 67.3811C45.0279 67.041 44.0753 68.8764 42.4896 68.7473C41.0329 68.8802 39.8533 67.1296 40.8718 65.932C39.7515 66.3843 38.3043 66.6764 37.3056 65.8058C36.4726 64.8551 37.0926 63.0498 38.3919 62.9066C39.793 62.7323 41.0942 62.1547 42.287 61.417C39.9334 61.1626 37.6589 60.4945 35.4315 59.7285C33.0807 59.9075 30.7261 60.1469 28.3725 60.3287C28.8803 60.7678 29.3364 61.4443 29.0311 62.1349C28.6533 62.9914 27.5462 63.0083 26.7528 62.8972C27.1796 63.8186 26.6624 65.0492 25.5637 65.0652C23.9912 65.4147 22.7371 63.9619 21.1891 64.2323C19.4177 64.4565 18.6696 66.829 16.7202 66.5077C15.288 66.569 14.6944 64.9144 15.2145 63.7659C14.1206 64.1022 12.8439 64.6723 11.766 63.9873C10.8935 63.4229 11.1837 62.1274 11.9234 61.579C13.1011 60.6556 14.4975 60.063 15.8025 59.346C15.6762 58.8051 15.5735 58.2587 15.4416 57.7188C11.2384 58.8579 6.77515 59.8614 3.3163 62.6673ZM54.3313 61.384C54.0769 61.9568 53.8347 62.5363 53.5766 63.1073C55.151 62.5966 56.7933 62.2536 58.2594 61.4518C57.2201 60.6293 55.624 61.7458 54.3313 61.384Z" fill="black"/>
<path d="M40.7095 16.2663C43.8961 16.1108 46.2638 19.4952 45.9105 22.4764C45.8172 24.6397 44.3964 26.819 42.217 27.3391C39.5478 28.108 36.3942 26.4977 35.6819 23.7587C34.588 20.4393 37.1979 16.4707 40.7095 16.2663ZM39.9595 17.0031C37.8791 17.4063 36.3518 19.2719 35.9212 21.2835C35.3681 23.4205 36.6137 25.8495 38.6715 26.6457C40.4975 27.4145 42.8869 27.0885 44.1721 25.4924C45.5327 23.8002 45.6128 21.3203 44.6932 19.4038C43.8546 17.6937 41.8637 16.5593 39.9595 17.0031Z" fill="black"/>
<path d="M8.05465 17.8444C9.82883 17.3055 11.3938 19.5866 10.2962 21.0621C9.56784 22.237 7.67682 22.2596 6.86935 21.1563C5.9196 20.052 6.64605 18.1233 8.05465 17.8444ZM8.17619 18.5822C6.49906 18.9694 7.25094 21.716 8.89981 21.1487C10.5477 20.7361 9.84956 18.0338 8.17619 18.5822Z" fill="black"/>
<path d="M27.3738 18.9355C27.6338 17.8586 29.1602 17.641 30.0007 18.1592C29.3958 18.96 28.2934 19.043 27.3738 18.9355ZM27.7978 18.7424C28.4884 18.8159 29.1979 18.6604 29.7783 18.2722C29.1734 18.0094 27.9985 18.0555 27.7978 18.7424Z" fill="black"/>
<path d="M39.8335 18.0971C43.5203 17.0418 46.0398 22.483 43.3573 24.9243C41.6717 26.6702 38.3617 26.1765 37.3017 23.9764C36.0392 21.7981 37.3413 18.6351 39.8335 18.0971ZM41.4126 19.0835C40.3799 18.9535 39.5734 20.3376 40.2603 21.1357C40.9048 22.0506 42.6299 21.5107 42.6036 20.3791C42.6818 19.6913 42.1136 19.0411 41.4126 19.0835Z" fill="black"/>
<path d="M29.1601 19.9305C30.1504 19.5819 31.8642 20.1077 31.6089 21.4013C31.0718 22.9032 28.509 23.6673 27.499 22.2493C26.9355 21.1385 28.1604 20.1275 29.1601 19.9305ZM29.5379 20.1897C28.6117 20.2481 27.3313 21.0763 27.7355 22.1363C28.6994 23.232 30.6554 22.5989 31.2895 21.4409C31.6881 20.4177 30.2898 20.0691 29.5379 20.1897Z" fill="black"/>
<path d="M19.3453 23.6032C20.3449 23.1312 21.5623 24.3052 21.0742 25.3115C20.7944 24.7669 20.4778 23.9066 19.7221 23.9905C18.7121 24.389 18.7441 25.6101 18.8204 26.5118C18.1034 25.6215 18.2617 24.1139 19.3453 23.6032Z" fill="black"/>
<path d="M48.9663 23.6145C50.9025 25.8164 51.3708 28.9597 51.172 31.7976C51.0109 33.1732 50.798 34.7081 49.7719 35.7304C51.4085 31.8221 50.912 27.3033 48.9663 23.6145Z" fill="black"/>
<path d="M69.1587 24.2392C70.5305 23.9396 71.9815 24.9223 72.2585 26.2885C72.5836 27.5718 71.8769 29.0313 70.6257 29.5005C69.3104 30.0611 67.6295 29.3865 67.0604 28.075C66.2765 26.5184 67.4476 24.4559 69.1587 24.2392ZM69.5243 24.9723C68.3154 25.0015 67.3072 26.2791 67.6794 27.4587C67.9884 28.7628 69.7231 29.444 70.7783 28.547C72.3264 27.4983 71.4492 24.748 69.5243 24.9723Z" fill="black"/>
<path d="M23.4343 26.0973C23.6671 24.7952 25.363 24.1526 26.5502 24.4164C27.8627 24.9195 27.3087 27.1036 25.966 27.1262C26.3806 26.5336 27.0797 25.6328 26.3062 25.0213C25.2613 24.8168 24.1372 25.3153 23.4343 26.0973Z" fill="black"/>
<path d="M19.8193 24.5757C20.3234 24.6379 20.2904 25.3728 19.9117 25.5942C19.4537 25.4755 19.4481 24.7999 19.8193 24.5757Z" fill="black"/>
<path d="M24.813 26.02C24.8648 25.4924 25.4226 25.2399 25.8701 25.5009C25.6205 25.7883 25.2408 26.2952 24.813 26.02Z" fill="black"/>
<path d="M14.3091 31.2333C16.6043 30.977 18.9372 30.4485 21.24 30.9601C24.8581 31.7449 28.4281 33.064 32.1856 32.9189C34.8134 32.9387 37.3753 32.2971 39.9758 32.0332C39.5057 31.4114 38.6963 31.4726 38.0028 31.4397C38.7085 30.75 39.924 30.9751 40.5892 31.6074C41.2553 32.2123 41.3326 33.6746 40.2641 33.8828C40.413 33.4974 40.495 33.0895 40.4413 32.6758C37.0323 32.7295 33.6715 33.8583 30.2287 33.3957C26.2441 33.2289 22.5685 31.254 18.5698 31.2729C17.1555 31.2145 15.6847 31.6978 14.3091 31.2333Z" fill="black"/>
<path d="M62.1082 48.7104C63.0249 47.216 65.6141 46.6271 66.6817 48.2685C66.9737 47.3574 68.5124 47.3404 68.6273 48.3589C68.7055 49.2776 67.5447 49.6111 66.8692 49.1909C66.5526 50.9924 64.1556 51.8668 62.6933 50.8445C62.0337 50.3903 61.704 49.4359 62.1082 48.7104ZM64.1292 47.6739C63.1333 47.9189 61.7954 48.8771 62.3955 50.0398C63.4141 51.668 66.1842 50.9019 66.6072 49.1607C66.6176 47.9867 65.1515 47.3329 64.1292 47.6739ZM66.9276 48.1318C66.5158 49.0062 68.0309 49.4886 68.3032 48.6388C68.6188 47.8247 67.3252 47.5769 66.9276 48.1318Z" fill="black"/>
<path d="M10.4602 47.7982C12.0007 50.5815 13.0569 53.6371 13.7853 56.7285C12.8506 53.6899 11.8349 50.6701 10.4602 47.7982Z" fill="black"/>
<path d="M4.32153 57.895C4.98296 58.0505 5.60576 58.3586 6.11738 58.8061C5.50306 58.5367 4.91041 58.2173 4.32153 57.895Z" fill="black"/>
<path d="M6.46724 63.9921C7.62427 63.782 9.78853 63.9751 9.81679 65.4827C8.86987 66.9478 6.50775 66.6331 5.25179 65.7135C4.37082 64.9531 5.69651 64.0373 6.46724 63.9921ZM7.09192 64.2286C6.45876 64.2908 5.19149 64.4444 5.29419 65.2857C6.30895 66.3862 8.67201 66.5822 9.57559 65.2792C9.12615 64.3963 7.99079 64.2163 7.09192 64.2286Z" fill="black"/>
<path d="M5.23657 66.3606C5.90366 66.5302 6.55095 66.7902 7.13324 67.1596C6.45862 67.2661 5.34964 67.2293 5.23657 66.3606Z" fill="black"/>
<path d="M18.4463 66.9957C19.7465 66.6302 21.3219 66.3824 22.5524 67.0598C21.2296 67.4207 19.7399 67.5008 18.4463 66.9957Z" fill="black"/>
<path d="M61.1772 68.0077C62.3899 67.6788 63.7532 67.5498 64.9414 68.0331C63.8041 68.5645 62.2853 68.6503 61.1772 68.0077Z" fill="black"/>
<path d="M25.0137 70.9739C26.4279 70.7185 27.9251 70.6724 29.3356 70.9814C27.9223 71.2443 26.41 71.3828 25.0137 70.9739Z" fill="black"/>
<path d="M46.8227 70.8636C47.5463 70.9692 47.176 71.4563 46.6201 71.233C46.6701 71.1407 46.7709 70.9569 46.8227 70.8636Z" fill="black"/>
</svg>
