<svg width="80" height="80" viewBox="0 0 80 80" fill="none" xmlns="http://www.w3.org/2000/svg">
<rect width="80" height="80" fill="white"/>
<path d="M5.99507 29.2966C7.76678 29.5966 9.56508 29.7709 11.359 29.8788C13.373 30 15.4122 30.0458 17.4232 29.8374C18.2566 29.7517 19.1004 29.632 19.8998 29.3749C21.1144 28.9848 22.2566 28.3746 23.5614 28.3539C24.8263 28.3332 26.1458 28.679 27.2984 29.1887C28.4037 29.6793 29.4203 30.3605 30.236 31.2589C31.0103 32.1101 31.5836 33.1474 31.8599 34.266C32.1658 35.5116 32.021 36.812 31.7166 38.0443C31.2275 40.0259 30.2005 42.068 28.4569 43.2265C27.4861 43.8722 26.3704 44.1544 25.209 44.1382C23.8673 44.1175 22.5581 43.7555 21.2696 43.4126C19.9042 43.0491 18.5418 42.7314 17.1321 42.6132C15.7299 42.495 14.3216 42.5556 12.9312 42.7713C12.2485 42.8763 11.5762 43.027 10.9097 43.2087C10.2433 43.392 9.57395 43.6033 8.88388 43.6845C7.74314 43.8205 6.60239 43.5501 5.60793 42.9871C3.49193 41.7887 2.35561 39.4983 2.03053 37.1548C1.85321 35.8796 1.86946 34.5305 2.25513 33.2937C2.59647 32.2002 3.23334 31.2087 4.07265 30.4315C4.49525 30.0414 4.98288 29.6749 5.52518 29.4725C5.81037 29.3661 6.09851 29.304 6.40291 29.2922C6.75754 29.2789 7.11366 29.3084 7.46829 29.2715C8.61347 29.1518 9.51041 28.4351 10.1118 27.4821C10.7502 26.4728 10.9851 25.3173 11.1698 24.1559C11.2703 23.5249 11.3649 22.891 11.5274 22.2719C11.6028 21.9822 11.6929 21.6926 11.8082 21.4163C11.9338 21.1149 12.1081 20.84 12.2574 20.5504C12.5839 19.912 12.6268 19.253 12.6105 18.5482C12.5972 18.0088 12.612 17.5552 12.8159 17.0528C13.141 16.2519 13.8857 15.6431 14.6763 15.2131C15.5791 14.7225 16.5337 14.4891 17.5267 14.2556C19.3338 13.83 21.1632 13.5123 23.0043 13.3409C24.1407 13.2345 25.2829 13.1828 26.4251 13.2124C27.0058 13.2271 27.5851 13.2626 28.1614 13.3247C28.649 13.3779 29.24 13.4163 29.6538 13.6128C31.0324 14.2674 31.9545 15.581 32.5751 16.9626C32.5914 16.9981 32.6061 17.035 32.6224 17.0705C32.6519 17.1341 32.5736 16.9464 32.6032 17.0232C32.6076 17.0365 32.6135 17.0498 32.6194 17.0616C32.6564 17.1533 32.6889 17.2493 32.7613 17.3217C32.8618 17.4222 33.0287 17.4636 33.1632 17.5079C33.673 17.6734 34.1931 17.8093 34.7162 17.9276C36.6564 18.3635 38.6837 18.5511 40.6608 18.2866C41.806 18.1344 42.9113 17.8285 43.9516 17.3217C43.724 17.2286 43.4964 17.137 43.2689 17.0439C43.3738 17.3069 43.4506 17.5847 43.5201 17.8581C43.591 18.1418 43.6486 18.4285 43.6915 18.7181C43.6944 18.7388 43.6974 18.7609 43.7004 18.7816C43.7137 18.8673 43.6856 18.656 43.6944 18.7432C43.6989 18.7787 43.7033 18.8156 43.7077 18.8511C43.7181 18.9397 43.727 19.0284 43.7343 19.1185C43.7491 19.2959 43.7565 19.4747 43.7565 19.652C43.7565 19.8367 43.7491 20.0214 43.7329 20.2046C43.7284 20.2534 43.7225 20.3021 43.7181 20.3509C43.7033 20.4913 43.7255 20.3184 43.7151 20.3731C43.6974 20.4706 43.6841 20.5681 43.6634 20.6656C43.6235 20.8577 43.5718 21.0469 43.5083 21.2316C43.4935 21.2759 43.4757 21.3188 43.4595 21.3616C43.4506 21.3853 43.4403 21.4089 43.4314 21.4325C43.4817 21.2981 43.4521 21.3853 43.4388 21.4148C43.396 21.5079 43.3516 21.5995 43.3029 21.6897C43.2571 21.7739 43.2083 21.8552 43.1566 21.9349C43.1329 21.9719 43.1078 22.0074 43.0827 22.0443C43.0679 22.0665 43.0517 22.0871 43.0354 22.1093C42.963 22.2127 43.0797 22.0605 43.0265 22.1211C42.8847 22.2807 42.7487 22.4388 42.5862 22.5792C42.5493 22.6102 42.5123 22.6413 42.4754 22.6723C42.4547 22.69 42.3705 22.7491 42.4769 22.6723C42.4532 22.69 42.4296 22.7078 42.4045 22.7255C42.3055 22.7979 42.202 22.8644 42.0971 22.9265C41.9951 22.987 41.8917 23.0432 41.7853 23.0949C41.7247 23.1245 41.6627 23.1511 41.6021 23.1806C41.5814 23.191 41.5208 23.2146 41.6183 23.1747C41.5755 23.1924 41.5312 23.2102 41.4883 23.2264C41.1795 23.3446 40.8603 23.4348 40.5367 23.5027C40.1156 23.5914 39.8983 23.6165 39.4654 23.6461C38.4783 23.714 37.4868 23.6461 36.5086 23.519C36.2589 23.4865 36.0432 23.7554 36.0432 23.9845C36.0432 24.2623 36.2574 24.4174 36.5086 24.4499C39.0044 24.7735 42.3483 24.8031 43.9294 22.4506C44.8278 21.1148 44.8071 19.3668 44.4702 17.8537C44.3904 17.499 44.2973 17.14 44.1629 16.8016C44.0476 16.509 43.7713 16.3819 43.4802 16.5238C41.803 17.3409 39.8969 17.5522 38.0528 17.4636C36.6712 17.3971 35.3442 17.1695 33.9907 16.7912C33.7291 16.7174 33.4676 16.642 33.2105 16.5504C33.3184 16.6582 33.4277 16.7676 33.5356 16.8755C33.1455 15.8441 32.5219 14.8614 31.7713 14.0591C31.4698 13.7369 31.1344 13.4458 30.7724 13.1946C30.4089 12.9419 29.97 12.6774 29.5326 12.5962C28.4864 12.4041 27.4225 12.3095 26.3586 12.2844C24.3195 12.2386 22.2788 12.441 20.2677 12.7691C18.9083 12.9907 17.5562 13.2729 16.2249 13.6276C15.0797 13.932 13.9685 14.4181 13.0656 15.2028C12.3844 15.7953 11.8776 16.6006 11.7328 17.499C11.6412 18.0709 11.7092 18.6383 11.6796 19.2131C11.6663 19.4569 11.6264 19.7007 11.5318 19.9283C11.4136 20.215 11.2319 20.475 11.0974 20.7543C10.1295 22.7536 10.5063 25.1784 9.27842 27.0698C8.76715 27.8574 8.05197 28.3539 7.10184 28.3672C6.46644 28.376 5.85174 28.3627 5.24738 28.5947C4.68439 28.8105 4.18642 29.1341 3.72096 29.5153C2.86245 30.2201 2.16056 31.1437 1.70544 32.1559C1.1927 33.2863 0.987305 34.5098 1.0006 35.754C1.0272 38.0576 1.68771 40.4189 3.20231 42.1951C4.65189 43.8944 6.89053 44.8947 9.12622 44.5829C10.394 44.4071 11.6013 43.9372 12.8632 43.7185C14.0985 43.5043 15.3619 43.4392 16.615 43.5072C17.8798 43.5752 19.1107 43.8116 20.3357 44.1293C21.5725 44.45 22.8019 44.8105 24.0727 44.979C25.2578 45.1356 26.4872 45.1046 27.6191 44.6879C28.5574 44.3421 29.3967 43.7776 30.0941 43.0624C31.5112 41.6084 32.3668 39.6431 32.7495 37.669C32.9888 36.4381 33.0524 35.1806 32.7391 33.9571C32.4598 32.8696 31.922 31.8677 31.223 30.9915C29.7823 29.1873 27.588 28.0643 25.3509 27.6136C24.6963 27.4821 24.0239 27.3978 23.356 27.4318C22.7132 27.4643 22.0838 27.6077 21.475 27.8101C20.5913 28.1041 19.7505 28.4972 18.8359 28.6908C18.0424 28.8592 17.3479 28.9287 16.5145 28.9819C15.5924 29.041 14.6659 29.0528 13.7424 29.0395C11.9086 29.0129 10.0749 28.8873 8.25293 28.679C8.05492 28.6568 7.85839 28.6332 7.66039 28.608C7.56582 28.5962 7.47125 28.5844 7.37816 28.5711C7.23039 28.5519 7.4284 28.5785 7.34122 28.5667C7.30427 28.5622 7.26585 28.5563 7.22891 28.5519C6.8994 28.5061 6.57136 28.4558 6.24332 28.4012C5.99655 28.3598 5.74239 28.4662 5.67147 28.7262C5.60941 28.9479 5.74683 29.2552 5.99507 29.2966Z" fill="#42403F"/>
<path d="M29.4483 13.4532C30.9925 13.7547 32.6342 13.301 33.7764 12.2076C33.871 12.1174 33.9877 11.9741 34.0896 11.9401C34.1872 11.9076 34.3231 11.946 34.4502 12.0066C34.7309 12.1411 34.9851 12.3849 35.1654 12.6154C35.5954 13.1666 35.7993 13.8581 35.8141 14.529C35.8348 15.4717 35.5274 16.3834 35.0989 17.2109C34.9836 17.434 35.0413 17.7163 35.2659 17.8478C35.4742 17.9704 35.786 17.9054 35.9027 17.6808C36.7287 16.0849 37.1321 14.1418 36.1983 12.4972C35.7978 11.7909 35.0738 11.0491 34.2152 11.0018C33.6966 10.9723 33.3863 11.3106 33.0361 11.6283C32.7627 11.8751 32.448 12.0761 32.1081 12.2401C31.3708 12.5947 30.4871 12.71 29.6966 12.5563C29.4498 12.5075 29.1942 12.6257 29.1247 12.8814C29.0597 13.1089 29.2001 13.4045 29.4483 13.4532Z" fill="#42403F"/>
<path d="M13.9833 14.6398C13.0716 14.8496 12.1126 14.8658 11.1964 14.6708C10.728 14.5718 10.2818 14.3694 9.81039 14.2955C9.29469 14.2142 8.8248 14.3383 8.4214 14.6693C7.64563 15.3047 7.58948 16.3804 7.7269 17.2981C7.86285 18.2083 8.25886 19.0875 8.87947 19.7702C9.56215 20.5179 10.5271 20.9833 11.5392 21.0262C11.7904 21.0365 12.0047 20.8045 12.0047 20.5607C12.0047 20.3007 11.7919 20.1056 11.5392 20.0953C10.8551 20.0672 10.1828 19.751 9.68036 19.2604C9.13806 18.7314 8.81298 18.031 8.66521 17.2936C8.53518 16.6479 8.50119 15.7702 9.05679 15.3431C9.13806 15.2811 9.25775 15.219 9.39222 15.1983C9.56067 15.1732 9.75868 15.2264 9.93008 15.2781C10.3468 15.4022 10.7531 15.5367 11.1831 15.6135C12.1968 15.7923 13.2267 15.7672 14.2301 15.5367C14.4753 15.4805 14.6187 15.1998 14.5551 14.9648C14.4857 14.7136 14.2286 14.5836 13.9833 14.6398Z" fill="#42403F"/>
<path d="M10.9703 20.1188C9.56952 20.6597 8.10074 21.233 6.57284 21.1901C5.17794 21.1502 3.60128 20.1986 2.2906 21.0911C1.69511 21.496 1.38332 22.1654 1.34491 22.8747C1.30501 23.6091 1.60202 24.3361 1.98621 24.9463C2.37187 25.5596 2.8595 26.1004 3.45943 26.5112C4.03423 26.9042 4.70657 27.1599 5.38185 27.3209C6.93782 27.6918 8.70657 27.7775 10.1754 27.0579C10.4014 26.9471 10.462 26.6264 10.3423 26.421C10.2079 26.1905 9.93303 26.1432 9.70547 26.2541C8.60462 26.7934 7.26143 26.7299 6.0867 26.5186C4.88241 26.3013 3.76235 25.8226 3.01761 24.8119C2.66593 24.3346 2.32311 23.7583 2.27731 23.1525C2.24184 22.6767 2.3704 22.1683 2.75902 21.895C3.21561 21.5743 3.8185 21.6127 4.35784 21.725C5.07598 21.8743 5.76457 22.0885 6.50339 22.1181C8.13916 22.1831 9.71581 21.595 11.2156 21.0158C11.4491 20.9256 11.6116 20.7025 11.5407 20.4439C11.4801 20.2193 11.2053 20.0272 10.9703 20.1188Z" fill="#42403F"/>
<path d="M39.0604 22.2142C38.3571 22.6531 37.8532 23.3934 37.7276 24.2164C37.5975 25.072 37.8591 25.9083 38.4339 26.5541C38.9969 27.1865 39.8731 27.5663 40.7228 27.4746C41.5857 27.3816 42.3452 26.8806 42.8196 26.1595C43.384 25.3025 43.4505 24.1898 43.1786 23.2205C43.0161 22.6457 42.1192 22.8895 42.2817 23.4672C42.4575 24.0938 42.4694 24.7927 42.1857 25.3912C41.933 25.9246 41.4734 26.3442 40.9208 26.4964C39.7387 26.823 38.592 25.7606 38.6216 24.6095C38.6289 24.3006 38.722 23.9815 38.8801 23.7037C39.0412 23.42 39.2599 23.1865 39.5333 23.0166C40.0357 22.7003 39.5702 21.895 39.0604 22.2142Z" fill="#42403F"/>
<path d="M8.28544 44.15C8.14802 44.7632 8.35341 45.3602 8.76125 45.8241C9.14987 46.2674 9.72911 46.5157 10.2891 46.6605C11.5437 46.9856 12.8765 47.0417 14.165 47.0447C15.4801 47.0476 16.7938 46.9767 18.1089 46.9974C19.4521 47.0181 20.7982 47.2043 22.1384 47.0196C23.3679 46.8496 24.5411 46.3118 25.2918 45.2981C25.441 45.0957 25.3243 44.7794 25.1248 44.6612C24.8884 44.5223 24.6386 44.6258 24.4879 44.8282C23.9619 45.5375 23.0708 45.9098 22.199 46.0724C21.0317 46.2896 19.82 46.1241 18.6453 46.0798C16.2618 45.9911 13.8503 46.3059 11.4801 45.9468C10.9157 45.8611 10.301 45.7709 9.80004 45.4784C9.58282 45.3513 9.41289 45.1947 9.29172 44.9804C9.18238 44.7883 9.13953 44.5829 9.18238 44.3953C9.23705 44.15 9.10702 43.8914 8.85729 43.8234C8.62382 43.7613 8.34159 43.9047 8.28544 44.15Z" fill="#42403F"/>
<path d="M25.1779 45.3129C27.1594 45.2242 29.1646 45.1962 31.1106 44.7632C32.046 44.5549 32.9651 44.2431 33.8088 43.785C34.623 43.3417 35.384 42.7817 36.0697 42.1596C37.4158 40.9376 38.4871 39.3846 39.0368 37.6439C39.3515 36.6465 39.455 35.5973 39.4801 34.5556C39.5082 33.4089 39.5333 32.2357 39.387 31.0949C39.2244 29.8389 38.8698 28.611 38.4797 27.4097C38.0881 26.1995 37.6271 25.0144 37.1084 23.8529C37.0065 23.6239 36.6725 23.5692 36.4716 23.686C36.2351 23.8249 36.2026 24.0923 36.3046 24.3228C37.1661 26.2556 37.899 28.2992 38.329 30.3753C38.5521 31.4525 38.5595 32.5386 38.5595 33.635C38.5595 34.6768 38.5506 35.7288 38.3172 36.7484C37.9389 38.3975 37.0464 39.8722 35.8628 41.072C34.6378 42.3133 33.1498 43.259 31.4549 43.723C29.4158 44.2815 27.2806 44.2904 25.1808 44.3849C24.9296 44.3968 24.7154 44.5903 24.7154 44.8504C24.7124 45.0913 24.9252 45.3247 25.1779 45.3129Z" fill="#42403F"/>
<path d="M36.5129 17.8463C36.6164 17.7917 36.7228 17.7414 36.8292 17.6912C36.9533 17.6321 37.0789 17.5744 37.206 17.5183C37.2799 17.4843 37.3552 17.4518 37.4291 17.4193C37.4734 17.4001 37.5163 17.3809 37.5606 17.3631C37.5828 17.3528 37.6064 17.3439 37.6286 17.3336C37.7098 17.2981 37.5887 17.3498 37.6419 17.3277C38.725 16.874 39.8362 16.4884 40.9622 16.1588C44.5026 15.126 48.2189 14.6694 51.9012 14.9679C55.5821 15.2649 59.3634 16.2771 62.3571 18.5098C64.6992 20.2549 66.5241 22.628 67.95 25.1548C69.4336 27.7865 70.5123 30.6339 71.2999 33.5464C72.015 36.187 72.5012 38.897 72.7066 41.6262C72.7908 42.7477 72.8278 43.8737 72.7893 44.9967C72.7657 45.6927 72.6948 46.3857 72.646 47.0817C72.5662 48.2269 72.5204 49.3735 72.5042 50.5202C72.4761 52.382 72.5337 54.2424 72.5958 56.1028C72.6194 56.7973 72.6416 57.4932 72.6401 58.1877C72.6386 58.467 72.6342 58.7463 72.6194 59.0256C72.6135 59.1423 72.6061 59.2576 72.5958 59.3743C72.5913 59.4319 72.5854 59.491 72.578 59.5487C72.5766 59.5693 72.5736 59.5915 72.5706 59.6122C72.5544 59.7496 72.5854 59.5176 72.5662 59.6521C72.5367 59.8442 72.5012 60.0363 72.4436 60.221C72.4303 60.2624 72.417 60.3023 72.4022 60.3422C72.3667 60.4397 72.414 60.3303 72.3785 60.3939C72.3564 60.4353 72.3327 60.4737 72.3076 60.5136C72.2633 60.5845 72.3121 60.5239 72.2397 60.6022C71.8954 60.9746 71.4107 61.2302 70.892 61.4268C69.3789 62.0001 67.7047 62.1848 66.0956 62.1626C65.2991 62.1508 64.5027 62.0843 63.7239 61.9085C63.0945 61.7666 62.6689 61.5642 62.4088 60.9672C62.1591 60.3939 62.1325 59.6757 62.1369 59.0389C62.1414 58.2794 62.2138 57.5243 62.2596 56.7662C62.2995 56.1087 62.3231 55.4482 62.2123 54.7951C62.1576 54.4729 61.7734 54.4035 61.5296 54.5173C61.4587 54.5498 61.3863 54.5823 61.3154 54.6148C61.2341 54.6502 61.1528 54.6872 61.0715 54.7226C61.0198 54.7448 60.9696 54.767 60.9179 54.7891C60.8868 54.8024 60.7287 54.8689 60.8174 54.832C60.1037 55.1334 59.3811 55.4142 58.6526 55.6772C56.479 56.4648 54.2433 57.115 51.9648 57.5169C50.5625 57.7637 49.141 57.904 47.7165 57.876C47.4742 57.8715 47.2378 58.0932 47.2511 58.3414C47.2865 59.0211 47.3013 59.7009 47.3072 60.3806C47.3161 61.5642 47.3131 62.8054 47.1417 63.958C47.1062 64.1988 47.0619 64.4382 46.9984 64.6732C46.9718 64.7707 46.9408 64.8667 46.9068 64.9613C46.8757 65.047 46.9348 64.914 46.8949 64.9909C46.8728 65.0322 46.8521 65.0721 46.827 65.112C46.7886 65.177 46.8728 65.0721 46.7989 65.146C46.7664 65.177 46.7354 65.2095 46.7028 65.2406C46.6408 65.2982 46.7398 65.2184 46.6689 65.2687C46.6216 65.3026 46.5713 65.3337 46.5211 65.3647C46.3054 65.4918 46.165 65.545 45.9286 65.6218C44.6548 66.0341 43.2525 66.074 41.9256 66.0607C41.1557 66.0533 40.3859 66.0104 39.619 65.9321C38.9821 65.8671 38.298 65.8124 37.6847 65.6174C37.3316 65.5051 36.9888 65.2332 36.7863 64.9258C36.507 64.5047 36.3593 64.1087 36.2248 63.6181C35.9278 62.5291 35.8362 61.3972 35.6574 60.286C35.5067 59.358 35.3131 58.2927 34.6378 57.5863C34.2507 57.1815 33.6803 56.9539 33.1528 56.7958C32.4952 56.5978 31.7992 56.5121 31.1151 56.4737C29.865 56.4042 28.5558 56.487 27.3367 56.7914C27.0028 56.8741 26.5876 56.9731 26.3378 57.2287C26.1236 57.4489 26.0526 57.7903 25.9921 58.0799C25.7867 59.0743 25.701 60.0939 25.5428 61.0958C25.3759 62.1552 25.1793 63.3477 24.7168 64.2727C24.6696 64.3673 24.6193 64.4589 24.5646 64.549C24.4967 64.6599 24.4538 64.7204 24.4169 64.7633C24.3592 64.8313 24.2972 64.8933 24.2322 64.9554C24.213 64.9731 24.1923 64.9909 24.1716 65.0056C24.176 65.0012 24.2322 64.9613 24.1878 64.9894C24.145 65.0175 24.1036 65.0426 24.0593 65.0662C23.9411 65.1298 23.9839 65.1091 23.8849 65.1431C23.7726 65.1815 23.6603 65.2199 23.5465 65.2509C23.2998 65.3189 23.0471 65.3691 22.7944 65.409C21.5251 65.6115 20.2011 65.5923 18.92 65.511C17.7231 65.4356 16.4893 65.3041 15.3441 64.9303C15.1003 64.8505 15.0323 64.8283 14.8313 64.7219C14.6141 64.6067 14.4043 64.4515 14.2994 64.221C14.0541 63.6757 14.3644 62.965 14.5402 62.4463C14.7353 61.8686 14.951 61.2775 14.9111 60.6584C14.886 60.2757 14.8446 59.8944 14.8062 59.5132C14.487 56.2875 14.2078 53.0544 14.1767 49.8109C14.1679 48.8697 14.1797 47.9299 14.2211 46.9901C14.2477 46.3916 13.3167 46.3931 13.2916 46.9901C13.132 50.6325 13.3788 54.2867 13.7201 57.9129C13.8103 58.8615 13.9625 59.8235 13.9876 60.7781C14.0039 61.4238 13.6743 62.0607 13.4911 62.6665C13.2872 63.3433 13.1616 64.1087 13.5295 64.7544C14.0896 65.7356 15.48 65.9853 16.4952 66.1626C17.8694 66.405 19.2732 66.5055 20.6681 66.4907C21.8251 66.4789 23.1018 66.4434 24.1938 66.0178C25.1631 65.641 25.6034 64.719 25.9049 63.7792C26.2699 62.6414 26.4339 61.4445 26.5964 60.2638C26.6659 59.757 26.7294 59.2487 26.8122 58.7433C26.8432 58.5512 26.8772 58.3592 26.923 58.17C26.9392 58.1035 26.9555 58.037 26.9762 57.972C26.985 57.9425 26.9969 57.9129 27.0057 57.8833C27.0235 57.8213 26.9422 57.9646 27.0042 57.8893C27.0959 57.7799 26.9762 57.9144 27.0087 57.8745C26.9673 57.9247 26.9171 57.9247 26.9939 57.8907C27.0264 57.876 27.0589 57.8567 27.09 57.8405C27.0914 57.839 27.0161 57.8641 27.1151 57.8316C27.1505 57.8198 27.186 57.8065 27.2215 57.7947C27.3249 57.7607 27.4298 57.7311 27.5347 57.7031C28.0682 57.5657 28.6178 57.4903 29.1661 57.443C30.4989 57.3277 31.947 57.3263 33.2163 57.8021C33.336 57.8464 33.4513 57.8996 33.565 57.9587C33.6271 57.9912 33.6877 58.0252 33.7483 58.0621C33.7704 58.0754 33.9064 58.173 33.8325 58.1139C33.9005 58.1685 33.961 58.2306 34.0201 58.2941C34.0985 58.3798 34.0778 58.3547 34.159 58.4862C34.2906 58.7005 34.3408 58.8231 34.4117 59.0256C34.4915 59.2546 34.5536 59.491 34.6083 59.7275C34.8624 60.8475 34.9378 61.9986 35.1579 63.1246C35.3545 64.1309 35.6707 65.2642 36.4716 65.9676C36.8986 66.3414 37.3892 66.5306 37.9404 66.6311C38.6821 66.767 39.4343 66.8586 40.1879 66.9177C41.7291 67.0404 43.2924 67.0404 44.8247 66.8187C45.769 66.6828 47.1284 66.4523 47.6589 65.542C47.8894 65.1475 47.9736 64.6554 48.0401 64.2107C48.1347 63.5797 48.1835 62.9443 48.2101 62.3074C48.2573 61.1844 48.247 60.057 48.2071 58.934C48.1997 58.7389 48.1923 58.5424 48.182 58.3473C48.0268 58.5025 47.8717 58.6576 47.7165 58.8128C50.2995 58.8645 52.8839 58.3828 55.3663 57.706C57.2518 57.1918 59.1048 56.552 60.909 55.8013C61.2755 55.6491 61.6404 55.4955 61.9995 55.3285C61.772 55.2354 61.5444 55.1438 61.3168 55.0507C61.4144 55.6225 61.3582 56.3776 61.3154 57.016C61.2622 57.808 61.1912 58.6 61.2119 59.395C61.2297 60.119 61.3183 60.8652 61.6434 61.5213C61.9773 62.1937 62.5595 62.5852 63.2733 62.7655C64.9341 63.1852 66.7177 63.1866 68.4096 62.9665C69.8473 62.7803 71.4831 62.4655 72.6342 61.5199C73.4469 60.8534 73.5252 59.7925 73.5607 58.8113C73.6124 57.3351 73.5134 55.8516 73.4705 54.3769C73.41 52.2476 73.407 50.1168 73.5223 47.989C73.5991 46.566 73.7528 45.1548 73.7336 43.7289C73.6981 41.044 73.3405 38.3562 72.7834 35.7318C72.1392 32.6953 71.192 29.7134 69.8828 26.8955C68.5869 24.1071 66.8979 21.4488 64.6859 19.2959C63.6161 18.2542 62.4177 17.3306 61.1129 16.5992C59.3915 15.6328 57.4749 15.0151 55.554 14.5911C51.4712 13.6882 47.22 13.7961 43.1402 14.662C40.8129 15.1555 38.5004 15.8796 36.3489 16.9036C36.2455 16.9523 36.1435 17.0011 36.0431 17.0543C35.5126 17.3218 35.9825 18.1241 36.5129 17.8463Z" fill="#42403F"/>
<path d="M24.6063 32.809C24.293 32.7912 23.9739 32.837 23.6768 32.9331C23.3562 33.038 23.0917 33.2079 22.8316 33.4207C22.3159 33.8448 21.88 34.4595 21.7042 35.1082C21.5165 35.8042 21.7027 36.6464 22.378 37.0114C22.9676 37.3306 23.7212 37.2626 24.3403 37.0705C25.5948 36.6804 26.7888 35.5559 26.8834 34.1861C26.9306 33.4961 26.5775 32.7942 25.9332 32.5075C25.2609 32.209 24.5191 32.3583 23.8985 32.71C23.2188 33.0941 22.6336 33.6719 22.2036 34.3221C21.7426 35.0166 21.4692 35.8973 22.0455 36.6095C22.1682 36.7617 22.4386 36.741 22.5642 36.6095C23.1774 35.9756 23.7537 35.3077 24.2901 34.6073C24.5309 34.2925 24.794 33.9601 24.8619 33.5581C24.9033 33.3173 24.8176 33.0897 24.5575 33.0247C24.3344 32.9685 24.1379 33.0838 23.9665 33.2124C23.3193 33.6985 22.6381 34.2733 22.2376 34.99C22.0485 35.3284 21.8933 35.7835 21.9997 36.1751C22.0603 36.3952 22.2539 36.5504 22.4844 36.5371C22.7474 36.5223 22.8937 36.3095 23.0311 36.113C23.3193 35.7022 23.6074 35.2914 23.897 34.8792C24.1852 34.4684 24.5501 34.062 24.4423 33.5256C24.3891 33.2567 24.0064 33.1666 23.8276 33.3631C23.4123 33.8167 23.0533 34.325 22.7799 34.8777C22.6454 35.1496 22.5287 35.4303 22.4312 35.717C22.3322 36.011 22.2095 36.3509 22.4238 36.6243C22.8479 37.1621 23.5675 36.6952 23.9088 36.3213C24.3152 35.8751 24.7068 35.383 25.023 34.8673C25.1796 34.6117 25.3126 34.3398 25.4131 34.0576C25.5121 33.7813 25.6111 33.4517 25.5446 33.1577C25.4633 32.7971 25.0895 32.6257 24.7496 32.7247C24.4393 32.8134 24.2147 33.069 24.0256 33.3173C23.6325 33.8315 23.3163 34.396 23.0651 34.9915C22.9558 35.2515 22.8361 35.5219 22.8671 35.8101C22.9055 36.1691 23.1922 36.4543 23.5645 36.444C23.897 36.4351 24.1689 36.2238 24.3994 36.0036C24.6122 35.8012 24.8132 35.5855 25.0023 35.3609C25.3939 34.8925 25.8076 34.3546 26.0352 33.7813C26.1416 33.5138 26.1386 33.1932 25.9184 32.9818C25.6155 32.6907 25.2254 32.8666 24.9462 33.0838C24.4792 33.4473 24.0906 33.9275 23.8453 34.4684C23.5764 35.0609 23.467 35.8455 24.0832 36.2711C24.6757 36.6804 25.3702 36.2741 25.7204 35.7569C26.0795 35.2264 26.2701 34.5659 26.3145 33.932C26.3381 33.5906 26.2066 33.2434 25.8268 33.1917C25.5032 33.1473 25.2387 33.3542 25.0141 33.5596C24.5856 33.9527 24.2679 34.461 24.0862 35.0107C23.9724 35.3535 23.9384 35.7303 24.2723 35.9623C24.5634 36.1632 24.9269 36.1041 25.2077 35.915C25.7027 35.5825 26.1002 35.0476 26.2332 34.461C26.3085 34.127 26.282 33.7783 26.0647 33.5035C25.8446 33.2257 25.4663 33.1001 25.1382 33.2596C24.8279 33.4104 24.6772 33.7384 24.7541 34.0709C24.8723 34.5836 25.6613 34.3664 25.5431 33.8537C25.5801 34.0118 25.4944 33.9556 25.4308 34.0147C25.4101 34.0339 25.4279 33.9837 25.4397 34.0472C25.4604 34.1669 25.4205 34.3354 25.3658 34.4698C25.2461 34.7639 25.0333 35.0417 24.7659 35.2161C24.6521 35.2899 24.7289 35.2323 24.723 35.2693C24.7215 35.2752 24.7851 35.485 24.8339 35.4259C24.8471 35.4096 24.8575 35.3402 24.8649 35.3151C24.9166 35.1451 24.9831 34.987 25.0688 34.8319C25.2284 34.5408 25.453 34.2216 25.7308 34.031C25.8076 33.9793 25.8475 34.031 25.651 33.8936C25.4604 33.7591 25.5062 33.7561 25.4988 33.9024C25.4973 33.9453 25.4929 33.9881 25.4899 34.031C25.4707 34.2305 25.4249 34.4299 25.3643 34.6206C25.2653 34.9338 25.1072 35.3357 24.8339 35.5397C24.6373 35.686 24.4674 35.5899 24.4467 35.3756C24.4127 35.0387 24.6565 34.6546 24.8368 34.3871C24.9299 34.2482 25.0348 34.1226 25.1515 34.0014C25.2816 33.867 25.4367 33.768 25.5697 33.6424C25.6879 33.533 25.224 33.5153 25.2904 33.4532C25.2904 33.4503 25.2919 33.4473 25.2919 33.4444C25.2964 33.4192 25.2919 33.4311 25.2816 33.4798C25.2668 33.4975 25.2565 33.5434 25.2712 33.5094C25.2505 33.5567 25.2225 33.6025 25.1974 33.6483C25.1013 33.8226 24.9993 33.994 24.89 34.1625C24.6787 34.4861 24.4437 34.7905 24.1852 35.0772C24.0581 35.2175 23.9266 35.3535 23.7892 35.4835C23.73 35.5397 23.6532 35.5781 23.5956 35.6313C23.5838 35.6431 23.5409 35.6727 23.5379 35.652C23.5306 35.6062 23.6458 35.7007 23.6443 35.7022C23.668 35.6948 23.7315 35.451 23.7566 35.386C23.8305 35.1924 23.9162 35.0048 24.0093 34.82C24.1955 34.4492 24.4112 34.0886 24.661 33.7576C24.7082 33.6941 24.7585 33.6335 24.8146 33.5773C24.8265 33.5655 24.9535 33.4798 24.9565 33.4665C24.9565 33.465 24.8132 33.338 24.8058 33.3394C24.8102 33.3394 24.8073 33.3823 24.8073 33.3808C24.7703 33.4399 24.7614 33.6039 24.7393 33.6808C24.6329 34.0472 24.4482 34.3812 24.2369 34.6959C24.0019 35.0476 23.733 35.3801 23.4582 35.7007C23.337 35.8426 23.2055 36.0007 23.0355 36.0849C23.0089 36.0982 22.9543 36.1174 22.9543 36.113C22.9543 36.11 23.3606 36.413 23.0459 36.2253C23.0459 36.2829 23.0518 36.2785 23.0636 36.2135C23.0695 36.1928 23.0754 36.1736 23.0814 36.1529C23.3222 35.3106 23.764 34.5304 24.3521 33.8817C24.1467 33.8271 23.9413 33.7739 23.7374 33.7192C23.767 33.8625 23.5911 34.0472 23.5173 34.1551C23.3739 34.362 23.2306 34.5674 23.0873 34.7728C22.9513 34.9693 22.8139 35.1658 22.678 35.3609C22.61 35.4584 22.542 35.5574 22.4726 35.6549C22.4268 35.7199 22.3809 35.8249 22.3085 35.8588C22.3691 35.8426 22.4297 35.8263 22.4918 35.8101C22.4962 35.8101 22.4992 35.8101 22.5036 35.8116C22.5568 35.8426 22.61 35.8736 22.6632 35.9046C22.6528 35.8928 22.641 35.881 22.6307 35.8677C22.6617 35.9209 22.6927 35.9741 22.7238 36.0273C22.6499 35.8367 22.7474 35.5736 22.8361 35.4022C22.9602 35.1614 23.1257 34.9516 23.306 34.7506C23.4966 34.5393 23.699 34.3383 23.9118 34.1492C24.0182 34.0546 24.1261 33.963 24.2384 33.8743C24.2842 33.8389 24.33 33.8034 24.3773 33.7694C24.4068 33.7458 24.4378 33.7251 24.4703 33.7059C24.4955 33.6941 24.4777 33.6956 24.4172 33.7103C24.3654 33.6808 24.3152 33.6512 24.2635 33.6202C24.2738 33.6305 24.2842 33.6394 24.293 33.6497C24.2635 33.536 24.2324 33.4237 24.2029 33.3099C24.1645 33.5906 24.0138 33.8108 23.8438 34.0325C23.668 34.2615 23.4848 34.4846 23.3 34.7063C22.9026 35.1836 22.4859 35.6446 22.0529 36.0894C22.2258 36.0894 22.3987 36.0894 22.5716 36.0894C22.2524 35.6904 22.5908 35.0949 22.8183 34.7462C23.1035 34.3073 23.47 33.9098 23.8911 33.5995C24.3004 33.2981 24.794 33.0232 25.3215 33.0838C25.7869 33.137 26.115 33.4813 26.1623 33.9468C26.2627 34.9427 25.3185 35.8647 24.4703 36.2179C24.0655 36.3864 23.5808 36.4942 23.1419 36.4263C22.938 36.3952 22.7223 36.3169 22.5923 36.1485C22.4578 35.9741 22.4223 35.7406 22.4401 35.5264C22.4829 34.99 22.8671 34.4595 23.2336 34.0886C23.5971 33.7192 24.0906 33.3808 24.6152 33.3158C24.9255 33.2774 24.9417 32.8267 24.6063 32.809Z" fill="#42403F"/>
<path d="M6.11915 33.3174C6.57427 33.3735 7.00131 33.6395 7.33969 33.938C7.70172 34.2572 8.03271 34.6813 8.19821 35.1379C8.34893 35.5516 8.36223 36.0983 7.91598 36.3303C7.52292 36.5342 6.99392 36.4471 6.58904 36.3303C5.67438 36.0673 4.79074 35.3078 4.59273 34.3458C4.49816 33.8878 4.65479 33.3602 5.11139 33.1637C5.56651 32.9672 6.07777 33.1268 6.48265 33.3632C6.98653 33.6558 7.43722 34.0739 7.77855 34.5468C8.04896 34.9236 8.53364 35.6284 8.16274 36.0909C8.33563 36.0909 8.50851 36.0909 8.6814 36.0909C8.24845 35.6462 7.83175 35.1851 7.43426 34.7079C7.24955 34.4862 7.06485 34.2631 6.89048 34.034C6.72055 33.8139 6.56983 33.5937 6.53141 33.3115C6.50186 33.4253 6.47083 33.5376 6.44128 33.6513C6.45162 33.641 6.46196 33.6321 6.47083 33.6218C6.41911 33.6513 6.36887 33.6809 6.31715 33.7119C6.25509 33.737 6.24032 33.6883 6.33193 33.7518C6.38808 33.7917 6.44276 33.8331 6.49743 33.8759C6.60086 33.9572 6.70134 34.0429 6.79887 34.1286C7.02052 34.3237 7.23182 34.532 7.42983 34.7522C7.60419 34.9458 7.76378 35.1467 7.88642 35.3772C7.98099 35.556 8.09034 35.8279 8.0135 36.0289C8.04453 35.9757 8.07556 35.9225 8.10659 35.8693C8.09625 35.8811 8.08443 35.8929 8.07408 35.9062C8.12728 35.8752 8.18048 35.8442 8.23367 35.8131C8.2381 35.8131 8.24106 35.8131 8.24549 35.8117C8.30608 35.8279 8.36666 35.8442 8.42872 35.8604C8.35927 35.8294 8.32824 35.7481 8.28539 35.6861C8.21742 35.5885 8.14945 35.4895 8.08 35.392C7.93666 35.1866 7.79333 34.9797 7.65 34.7743C7.51405 34.5778 7.37663 34.3813 7.24069 34.1862C7.16237 34.0739 6.9688 33.8715 6.99983 33.7208C6.79444 33.7755 6.58904 33.8287 6.38513 33.8833C6.90231 34.4537 7.31014 35.1275 7.56134 35.856C7.59237 35.9447 7.62045 36.0348 7.64704 36.1249C7.65148 36.1397 7.68103 36.2668 7.68694 36.2683C7.65886 36.2668 7.76673 36.1249 7.76673 36.1234C7.77264 36.0747 7.8155 36.1545 7.77412 36.1101C7.76821 36.1042 7.73718 36.1042 7.71797 36.0969C7.69728 36.0895 7.60567 36.0304 7.56429 35.9949C7.2732 35.7585 7.03973 35.4216 6.81217 35.1275C6.57722 34.8246 6.35705 34.5054 6.18564 34.1611C6.10881 34.006 6.04527 33.8479 5.99798 33.6809C5.97286 33.5937 5.94479 33.5006 5.93444 33.4105C5.93444 33.4105 5.92262 33.3203 5.93001 33.3336C5.96547 33.3898 5.74383 33.4046 5.77929 33.4666C5.79259 33.4888 5.87386 33.5331 5.89898 33.5568C5.964 33.6173 6.02162 33.6868 6.07482 33.7577C6.20042 33.9232 6.3142 34.0976 6.42355 34.2749C6.63485 34.6177 6.82103 34.9797 6.96732 35.3551C6.98949 35.4097 7.07224 35.6994 7.08849 35.7038C7.07519 35.6994 7.19636 35.6196 7.1934 35.6491C7.1934 35.6462 7.15942 35.6462 7.1476 35.6358C7.09144 35.5871 7.02643 35.556 6.97028 35.5028C6.68657 35.2383 6.42207 34.9487 6.18564 34.6414C5.9507 34.337 5.73939 34.0119 5.55321 33.675C5.51183 33.5996 5.47933 33.5154 5.45273 33.4784C5.45125 33.4711 5.44829 33.4637 5.44682 33.4563C5.43943 33.4267 5.43943 33.4267 5.44386 33.4518C5.48376 33.4711 5.13799 33.6218 5.13947 33.6277C5.14242 33.638 5.32713 33.7622 5.3419 33.774C5.41874 33.839 5.49262 33.907 5.56207 33.9794C5.81919 34.2409 6.03049 34.5497 6.1753 34.8867C6.25066 35.061 6.39695 35.46 6.18712 35.5944C6.1029 35.6476 5.96547 35.59 5.89898 35.5398C5.75712 35.4334 5.66403 35.2723 5.58128 35.1201C5.40101 34.7862 5.27984 34.4108 5.24438 34.0326C5.23995 33.9897 5.23699 33.9469 5.23551 33.904C5.23404 33.8745 5.23256 33.8449 5.23256 33.8154C5.23699 33.6735 5.13799 33.7356 4.93555 34.0001C4.94589 34.0163 5.0316 34.0562 5.07002 34.0902C5.20892 34.2114 5.34043 34.3458 5.45125 34.4951C5.57094 34.6561 5.67438 34.8335 5.7586 35.0152C5.79554 35.0965 5.82657 35.1792 5.85317 35.2635C5.86499 35.2989 5.87238 35.3403 5.88716 35.3743C5.88568 35.3994 5.89307 35.4201 5.90784 35.4378C5.94035 35.3846 5.97286 35.3299 6.00537 35.2768C6.0098 35.262 6.04527 35.2812 6.0364 35.2635C6.02458 35.2354 5.96991 35.2206 5.94479 35.2029C5.86943 35.1512 5.80145 35.0891 5.73644 35.0241C5.60788 34.8955 5.5074 34.7507 5.42317 34.5896C5.35373 34.4537 5.26507 34.2601 5.28428 34.1035C5.28871 34.0695 5.3094 34.0134 5.31531 34.0178C5.25324 33.9616 5.15424 34.0193 5.19118 33.8567C5.07297 34.3695 5.86204 34.5882 5.98025 34.0739C6.06152 33.7208 5.88568 33.378 5.5473 33.242C5.20744 33.1061 4.84393 33.2642 4.63706 33.5494C4.26322 34.0666 4.53954 34.8172 4.87644 35.2812C5.20744 35.7378 5.86943 36.3761 6.46196 35.9668C7.03973 35.5678 6.56097 34.662 6.26839 34.2173C6.11324 33.9809 5.92853 33.7562 5.72018 33.5642C5.49558 33.3588 5.23108 33.1504 4.90747 33.1962C4.14057 33.3026 4.44792 34.4241 4.60751 34.9014C4.80256 35.4851 5.12912 36.1515 5.74678 36.3761C6.43093 36.6229 7.04564 36.119 7.11213 35.4378C7.17124 34.8246 6.78705 34.1848 6.42355 33.7223C6.11028 33.3218 5.35668 32.4736 4.81881 32.9893C4.3371 33.4504 4.88826 34.1892 5.16311 34.6044C5.50001 35.1142 5.89455 35.59 6.33784 36.0111C6.56836 36.2298 6.84024 36.4426 7.17272 36.4515C7.54508 36.4618 7.83027 36.1766 7.87017 35.8176C7.90268 35.5132 7.76821 35.225 7.65295 34.9517C7.53031 34.6635 7.39436 34.3828 7.23773 34.1124C7.07962 33.839 6.90378 33.576 6.71317 33.3248C6.52107 33.0721 6.28612 32.8046 5.964 32.7263C5.62266 32.6436 5.2828 32.8165 5.19414 33.1667C5.12026 33.4548 5.2296 33.7947 5.32565 34.0666C5.53548 34.6517 5.88272 35.1585 6.26396 35.6447C6.59939 36.0732 6.99096 36.6805 7.54656 36.8342C7.81697 36.9096 8.13467 36.8623 8.31494 36.6318C8.53068 36.3584 8.40803 36.0185 8.30755 35.7245C8.11103 35.1408 7.83323 34.5823 7.48007 34.0784C7.3057 33.8301 7.11657 33.5937 6.91117 33.3706C6.7309 33.174 6.34966 33.2642 6.29647 33.5331C6.20338 34.0001 6.46344 34.3473 6.7176 34.7108C6.97914 35.0832 7.23921 35.4541 7.50076 35.8264C7.72093 36.1397 8.04158 36.7633 8.52034 36.4825C8.90009 36.2609 8.77301 35.6314 8.6415 35.3004C8.34006 34.5453 7.67364 33.9291 7.04859 33.4341C6.76045 33.2051 6.30977 32.7943 5.95661 33.1652C5.6596 33.4784 6.05118 34.0799 6.2477 34.3517C6.82842 35.1541 7.48302 35.9062 8.17161 36.617C8.29869 36.7485 8.56762 36.7707 8.69027 36.617C9.69064 35.3772 8.25731 33.7429 7.2732 33.0071C6.71317 32.5874 6.03049 32.2771 5.31678 32.3717C4.60455 32.4663 4.02975 32.9701 3.88937 33.6838C3.62044 35.0581 4.76119 36.3746 5.94035 36.9036C6.53733 37.1711 7.21852 37.3144 7.86869 37.1933C8.61195 37.0544 9.08923 36.4219 9.10401 35.6787C9.11879 34.9 8.63707 34.1183 8.09034 33.5952C7.82141 33.3381 7.5111 33.1016 7.15942 32.976C6.82842 32.8593 6.4797 32.7958 6.12802 32.8165C5.7852 32.8268 5.80145 33.2775 6.11915 33.3174Z" fill="#42403F"/>
<path d="M13.6583 23.7613C13.6612 23.7525 13.6642 23.7436 13.6671 23.7347C13.7115 23.5958 13.6346 23.4658 13.5253 23.3875C13.5149 23.3801 13.5061 23.3742 13.4957 23.3668C13.3864 23.287 13.1765 23.3136 13.0894 23.4185C12.7333 23.8515 12.9918 24.6908 13.2238 25.1385C13.5681 25.8005 14.2316 26.2275 14.9867 26.2364C16.615 26.2556 17.7602 24.7883 17.6716 23.2515C17.642 22.7447 16.8456 22.7432 16.881 23.2515C16.9505 24.2667 16.2545 25.1946 15.1995 25.2242C14.1089 25.2538 13.9656 24.3908 13.6494 23.5663C13.6213 23.6756 13.5918 23.7835 13.5637 23.8928C13.5711 23.8854 13.5799 23.8781 13.5873 23.8707C13.4632 23.8869 13.3391 23.9032 13.215 23.9194C13.2238 23.9239 13.2312 23.9283 13.2401 23.9327C13.4056 24.0229 13.6021 23.9401 13.6583 23.7613Z" fill="#42403F"/>
<path d="M25.9448 22.8629C26.0142 24.1514 27.2717 25.2892 28.5469 25.3911C29.2828 25.4502 29.9536 24.9774 30.3881 24.4159C30.7619 23.9327 31.1816 23.1421 30.8048 22.5732C30.6481 22.3353 30.3674 22.3132 30.1546 22.489C29.8251 22.7624 29.8162 23.1717 29.5975 23.5263C29.3316 23.9608 28.9237 24.3376 28.3903 24.3213C27.4727 24.2918 26.8993 23.4288 26.5107 22.7092C26.3703 22.4491 25.9285 22.5614 25.9448 22.8629Z" fill="#42403F"/>
<path d="M5.94037 24.8164C6.74569 25.1001 7.5983 25.1991 8.44795 25.0957C8.86465 25.0454 9.2843 24.9656 9.68031 24.8238C9.88719 24.7499 10.1177 24.676 10.3039 24.5593C10.4842 24.447 10.7043 24.3288 10.8107 24.1396C10.9068 23.9682 10.7856 23.751 10.5876 23.7495C10.3925 23.748 10.2137 23.8515 10.0305 23.9076C9.84581 23.9623 9.66997 24.0539 9.48674 24.116C9.11733 24.2401 8.74053 24.3421 8.35486 24.3938C7.60717 24.4957 6.82401 24.4558 6.09257 24.2726C5.73498 24.184 5.60051 24.6967 5.94037 24.8164Z" fill="#42403F"/>
<path d="M38.8507 20.2696C38.4784 20.5105 38.0705 20.6568 37.6361 20.7425C37.4425 20.7809 37.243 20.7853 37.0243 20.8075C36.9047 20.8193 36.8071 20.8385 36.6815 20.8415C36.5618 20.8444 36.4451 20.8533 36.3269 20.874C36.1304 20.908 36.1348 21.1754 36.2752 21.2685C36.3816 21.3394 36.4998 21.3867 36.6254 21.4163C36.7539 21.4473 36.8943 21.4872 37.0258 21.5005C37.2903 21.5256 37.5681 21.4857 37.8267 21.4325C38.3409 21.3261 38.8108 21.072 39.2216 20.7498C39.3398 20.6568 39.331 20.4558 39.2453 20.3494C39.1536 20.2356 38.9808 20.1854 38.8507 20.2696Z" fill="#42403F"/>
<path d="M50.0557 14.7374C50.5877 16.3111 49.7617 17.8996 49.4735 19.4349C49.3199 20.2535 49.2992 21.1002 49.5918 21.8922C49.8799 22.6739 50.3897 23.361 51.0221 23.8988C52.4643 25.1268 54.3409 25.5184 56.1614 25.8035C57.0982 25.9498 58.0853 26.074 58.9837 25.6883C59.4241 25.4991 59.7787 25.1874 60.1525 24.8963C60.4983 24.6259 60.884 24.4131 61.2844 24.2372C62.1917 23.8397 63.167 23.6166 64.0491 23.1571C64.884 22.7212 65.6036 22.0813 65.9272 21.177C66.0587 20.8106 65.4455 20.5446 65.2918 20.9096C64.649 22.4182 62.8626 22.8024 61.481 23.3152C61.0554 23.4733 60.6328 23.6491 60.2397 23.8782C59.8585 24.1013 59.5319 24.3968 59.1758 24.6539C58.836 24.8992 58.4739 25.0647 58.0558 25.1179C57.6346 25.1726 57.1987 25.1371 56.7791 25.081C55.8866 24.9642 54.9867 24.8032 54.1193 24.5608C53.3007 24.3318 52.5057 24.0141 51.8142 23.5132C51.2187 23.0832 50.7177 22.5099 50.4059 21.8434C50.0956 21.177 50.0705 20.4338 50.1843 19.7171C50.4503 18.0444 51.4329 16.1722 50.5315 14.535C50.3912 14.2852 49.9612 14.4552 50.0557 14.7374Z" fill="#42403F"/>
<path d="M54.2995 29.6262C53.6286 29.2139 52.8425 29.078 52.0697 29.2243C51.3397 29.3632 50.7088 29.8198 50.2226 30.3665C49.7601 30.8867 49.401 31.4836 48.9814 32.0363C48.5189 32.6436 47.9337 33.0795 47.3264 33.5272C46.6792 34.0045 46.1074 34.5276 45.6641 35.2044C45.2592 35.822 44.9696 36.5298 44.8292 37.2539C44.5647 38.6222 44.7095 40.5328 46.1236 41.2406C46.496 41.4268 46.8979 41.5154 47.3072 41.579C47.7505 41.6469 48.1968 41.7075 48.6415 41.7651C49.5399 41.8804 50.4487 41.9587 51.3545 41.9055C52.151 41.8582 52.9504 41.7149 53.6936 41.4194C54.4561 41.115 55.0871 40.6702 55.687 40.1176C55.95 39.8767 56.2101 39.6299 56.5145 39.4437C56.8558 39.2339 57.2356 39.1408 57.6271 39.0699C58.3645 38.9354 59.0649 38.7965 59.6944 38.3651C60.8425 37.5789 61.5355 36.2727 61.6966 34.9059C61.7882 34.1271 61.6981 33.2893 61.3154 32.5933C60.9415 31.9136 60.3224 31.4157 59.7047 30.9694C58.3911 30.0207 56.9001 29.0558 55.2082 29.1519C54.8033 29.1755 54.4059 29.2553 54.032 29.412C53.8517 29.4873 53.7232 29.6513 53.7793 29.8553C53.8266 30.0267 54.0409 30.1803 54.2226 30.1079C55.6604 29.5257 57.1587 30.1729 58.3763 30.9576C58.9748 31.3432 59.5909 31.7481 60.1052 32.2431C60.6164 32.7367 60.9253 33.3322 60.977 34.0474C61.0656 35.2457 60.6312 36.487 59.7742 37.3351C59.3457 37.7592 58.8255 38.0533 58.2389 38.1907C57.4868 38.368 56.7228 38.4005 56.0564 38.835C55.4639 39.2206 55.0117 39.7777 54.431 40.1737C53.8429 40.5756 53.1764 40.8298 52.482 40.9805C50.9068 41.3233 49.2725 41.0884 47.7003 40.8608C47.0545 40.7677 46.3453 40.6643 45.9448 40.0895C45.5872 39.5753 45.4882 38.9251 45.4941 38.3119C45.5074 36.9835 46.0734 35.6757 47.0353 34.7596C47.5776 34.2424 48.2322 33.8641 48.7982 33.3735C49.3109 32.9288 49.704 32.3732 50.0882 31.8191C50.4413 31.3107 50.7915 30.7847 51.2777 30.3931C51.7934 29.9779 52.4539 29.805 53.107 29.8316C53.4306 29.8449 53.7527 29.9217 54.0468 30.0592C54.3349 30.1951 54.5802 29.7976 54.2995 29.6262Z" fill="#42403F"/>
<path d="M69.967 29.4134C69.6139 29.898 69.1809 30.3251 68.7613 30.7521C68.3431 31.1792 67.9412 31.6284 67.5998 32.1204C67.2688 32.5977 66.994 33.1356 66.858 33.703C66.7132 34.3147 66.7561 34.9265 66.9496 35.5235C67.1373 36.1012 67.3782 36.645 67.4757 37.2494C67.5717 37.8493 67.5909 38.4596 67.7239 39.0536C67.9485 40.0628 68.5751 40.908 69.4557 41.4459C69.9094 41.7222 70.4236 41.9143 70.9497 41.9882C71.223 42.0266 71.4979 42.0458 71.7742 42.0237C72.0889 41.9971 72.4125 41.9749 72.6312 41.7252C72.7864 41.5478 72.7302 41.2686 72.4923 41.1991C72.3579 41.1607 72.2485 41.1415 72.1096 41.1666C71.9973 41.1858 71.9249 41.205 71.8244 41.2139C71.6116 41.2331 71.3944 41.2316 71.1816 41.208C70.8196 41.1681 70.4 41.0307 70.0645 40.8504C69.3228 40.4514 68.7716 39.8027 68.5559 38.9945C68.4066 38.4389 68.3756 37.8626 68.2987 37.2952C68.2204 36.7174 68.0505 36.1928 67.8466 35.6491C67.6574 35.1437 67.5112 34.6457 67.585 34.102C67.6545 33.5863 67.8791 33.1016 68.151 32.6627C68.4731 32.1426 68.8869 31.6919 69.277 31.2235C69.6877 30.7285 70.0867 30.2305 70.4088 29.6734C70.5788 29.3808 70.1576 29.1518 69.967 29.4134Z" fill="#42403F"/>
<path d="M22.3009 12.7868C22.0896 14.1049 22.0394 15.4584 22.595 16.7041C22.824 17.2168 23.1712 17.7 23.6027 18.0591C24.0711 18.4477 24.6208 18.6871 25.2001 18.8585C25.7734 19.0284 26.3659 19.1363 26.9319 19.3358C27.4254 19.5102 27.8406 19.7998 28.2455 20.1263C28.6799 20.4765 29.1099 20.8327 29.6345 21.038C30.2004 21.2582 30.8018 21.1902 31.3397 20.9257C31.9943 20.6036 32.5499 20.0554 33.1099 19.5959C33.732 19.0861 34.3822 18.594 34.9733 18.0502C35.2762 17.771 34.8683 17.2154 34.524 17.468C33.469 18.2394 32.5307 19.1688 31.4771 19.9416C31.0767 20.2357 30.6053 20.5031 30.0985 20.3864C29.664 20.2859 29.2946 20.0007 28.9533 19.7274C28.544 19.3993 28.1391 19.0536 27.6633 18.8245C27.1461 18.5778 26.5935 18.4359 26.0394 18.3044C25.5237 18.1817 24.9947 18.0606 24.5248 17.8094C24.0726 17.5685 23.7062 17.2094 23.4357 16.775C22.7073 15.6077 22.688 14.1817 22.7368 12.8474C22.7442 12.6021 22.3408 12.5371 22.3009 12.7868Z" fill="#42403F"/>
<path d="M13.9582 51.033C14.5389 51.2561 15.0354 51.7644 15.4033 52.2535C15.7801 52.7574 16.052 53.3263 16.2441 53.9232C16.4392 54.5261 16.5529 55.1527 16.584 55.7851C16.5987 56.0895 16.615 56.4264 16.4776 56.7071C16.3298 57.0086 15.984 57.1859 15.7151 57.3617C15.4018 57.5642 15.0812 57.743 14.7059 57.7903C14.3054 57.8405 13.8015 57.9292 13.7779 58.4316C13.7705 58.5749 13.8946 58.7581 14.0439 58.7803C14.2168 58.8069 14.3601 58.8054 14.5153 58.7168C14.7029 58.6089 14.6911 58.2528 14.4502 58.2158C14.3882 58.1981 14.3897 58.2099 14.4532 58.2498C14.4103 58.4153 14.366 58.5808 14.3232 58.7448C14.4827 58.6384 14.4414 58.6207 14.6157 58.5882C14.7679 58.5601 14.9748 58.5498 15.1477 58.5025C15.5452 58.3946 15.9028 58.1774 16.2411 57.9499C16.5869 57.7179 16.9445 57.4755 17.1337 57.0899C17.3139 56.7219 17.3435 56.3023 17.3257 55.8989C17.2652 54.4715 16.8411 53.0293 15.956 51.893C15.7166 51.5856 15.4462 51.3152 15.1359 51.0773C14.8078 50.8261 14.3911 50.5084 13.9552 50.6251C13.7424 50.6828 13.7749 50.962 13.9582 51.033Z" fill="#42403F"/>
<path d="M40.321 44.0155C39.5807 44.3923 38.861 44.7854 38.1813 45.2656C37.8651 45.4887 37.4617 45.7193 37.2873 46.0813C37.0982 46.4743 37.2164 46.8866 37.3923 47.2604C37.6715 47.8515 38.0616 48.5002 38.6409 48.8401C38.9837 49.041 39.3383 49.0706 39.7255 49.0307C39.9028 49.0129 40.0565 49.0026 40.2161 49.0913C40.3815 49.1829 40.5308 49.2952 40.7022 49.375C41.0716 49.5464 41.4617 49.6232 41.8622 49.6853C42.2936 49.7503 42.7207 49.8153 43.1536 49.7385C43.8141 49.6217 44.3801 49.14 44.7037 48.5667C45.4543 47.2368 44.8766 45.635 43.7964 44.6775C43.1433 44.0983 42.3276 43.7096 41.4469 43.686C40.6446 43.6638 39.7092 43.921 39.1773 44.5519C38.9704 44.7972 39.229 45.1932 39.5349 45.0144C40.0535 44.7115 40.5781 44.4278 41.1898 44.3879C41.8223 44.3465 42.4163 44.5297 42.9438 44.874C43.9013 45.4991 44.7007 46.7403 44.2899 47.9091C44.123 48.3835 43.7476 48.8268 43.2689 49.0026C42.9689 49.1134 42.6512 49.1031 42.3394 49.0602C41.9907 49.0129 41.6346 48.9598 41.2977 48.8548C40.9903 48.7603 40.7583 48.5578 40.4717 48.4248C40.3077 48.3495 40.1436 48.3066 39.9619 48.3022C39.7683 48.2963 39.5762 48.345 39.3827 48.3347C38.8803 48.3111 38.5345 47.8279 38.2966 47.4378C38.1355 47.1747 37.9183 46.8615 37.8873 46.5482C37.8695 46.3753 37.9715 46.266 38.0927 46.1566C38.2345 46.0296 38.3867 45.9128 38.5374 45.7961C39.1787 45.2996 39.854 44.8253 40.5633 44.4322C40.8381 44.28 40.5958 43.8751 40.321 44.0155Z" fill="#42403F"/>
<path d="M68.2118 24.7823C69.1693 24.8842 70.1549 25.2345 71.0105 25.7324C71.9059 26.254 72.6773 26.9234 73.3614 27.7154C74.8671 29.4576 75.6946 31.7095 76.1365 33.9674C76.4039 35.3313 76.5325 36.7173 76.6123 38.1048C76.627 38.356 76.8162 38.5703 77.0777 38.5703C77.3186 38.5703 77.558 38.3575 77.5432 38.1048C77.3925 35.5027 77.0718 32.8503 76.0626 30.4255C75.1686 28.2799 73.7427 26.3575 71.7611 25.1C70.6854 24.4173 69.4781 23.9858 68.2118 23.8514C67.9621 23.8248 67.7463 24.0848 67.7463 24.3168C67.7478 24.5917 67.9621 24.7557 68.2118 24.7823Z" fill="#42403F"/>
<path d="M69.8193 27.2427C71.1256 27.2442 72.3461 27.8914 73.2785 28.8179C74.3143 29.8448 74.963 31.1954 75.4344 32.5696C75.6871 33.307 75.8969 34.0591 76.0964 34.8127C76.3107 35.6151 76.5087 36.4337 76.4643 37.27C76.4215 38.0606 76.089 38.7964 75.8999 39.556C75.727 40.2549 75.693 40.9656 75.792 41.6794C76.0033 43.2072 76.8411 44.5977 78.0868 45.5035C78.3572 45.7 78.8241 45.44 78.7872 45.1016C78.6498 43.8899 79.3265 42.7861 79.5526 41.6188C79.7684 40.509 79.563 39.3417 78.9158 38.4049C78.5552 37.8833 78.0853 37.4414 77.5209 37.1474C77.2977 37.0321 77.0155 37.0898 76.884 37.3144C76.7613 37.5227 76.8264 37.8345 77.051 37.9512C77.8814 38.3812 78.4296 39.157 78.638 40.0658C78.6941 40.311 78.7118 40.4647 78.7148 40.7307C78.7163 40.9804 78.6897 41.2198 78.638 41.4636C78.5153 42.0369 78.3025 42.5837 78.1282 43.1422C77.9302 43.7732 77.7824 44.4396 77.8578 45.1031C78.0912 44.9686 78.3247 44.8356 78.5582 44.7012C77.5519 43.9697 76.8973 42.7935 76.7067 41.5405C76.6712 41.304 76.6549 40.9317 76.6712 40.6391C76.6889 40.3096 76.7407 40.0229 76.8337 39.6757C77.0539 38.8511 77.3672 38.065 77.4012 37.2006C77.4337 36.3332 77.2357 35.4688 77.0155 34.6339C76.816 33.8788 76.6062 33.1237 76.355 32.3834C75.8555 30.9117 75.1788 29.4651 74.1001 28.3258C72.9904 27.1511 71.4654 26.3147 69.8208 26.3132C69.2209 26.3118 69.2194 27.2412 69.8193 27.2427Z" fill="#42403F"/>
<path d="M14.0602 51.4777C13.809 53.6439 13.9656 55.8367 14.3173 57.9838C14.3468 58.164 14.5611 58.2763 14.7266 58.2512C14.9231 58.2217 15.0295 58.0739 15.0502 57.8848C15.2615 55.9402 15.2349 53.9705 15.0206 52.0288C15 51.8397 14.8744 51.6772 14.669 51.6772C14.4857 51.6772 14.3069 51.8382 14.3173 52.0288C14.3601 52.8711 14.4 53.7134 14.4577 54.5541C14.4857 54.9679 14.5168 55.3831 14.5522 55.7968C14.5833 56.1663 14.6084 56.5224 14.9453 56.7455C15.1522 56.8829 15.4122 56.7381 15.4831 56.5268C16.0594 54.8024 15.198 53.0868 14.9305 51.3949C14.8167 51.5442 14.7029 51.6934 14.5892 51.8426C14.6557 51.8367 14.8729 52.2387 14.9231 52.317C15.0709 52.5504 15.2098 52.7898 15.3324 53.0381C15.5644 53.5065 15.7506 54.0133 15.8215 54.532C15.9427 55.4141 15.7092 56.3584 15.0458 56.9775C15.2512 57.1356 15.4566 57.2952 15.6619 57.4533C16.4126 56.215 16.3106 54.6797 15.9013 53.3439C15.7595 52.8814 15.0576 53.0721 15.1758 53.5434C15.3649 54.297 15.4728 55.0595 15.492 55.8353C15.5009 56.1736 15.526 56.5549 15.8437 56.7573C16.1688 56.9642 16.5988 56.8711 16.7288 56.4943C16.4968 56.4633 16.2648 56.4322 16.0328 56.3997C16.0343 56.4899 16.0373 56.5785 16.0387 56.6687C16.0461 56.9435 16.3934 57.0233 16.5411 56.8046C16.5914 56.7292 16.6416 56.6539 16.6933 56.5785C16.8854 56.2933 16.4968 55.887 16.2087 56.0939C16.1363 56.1456 16.1437 56.1264 16.2279 56.1116C16.2323 56.1101 16.2752 56.1352 16.2693 56.1382C16.2707 56.1382 16.2471 55.9786 16.2471 55.9609C16.2338 55.6698 16.2235 55.3801 16.1954 55.0891C16.1378 54.5009 16.0417 53.9173 15.9028 53.3425C15.6605 53.409 15.4196 53.4755 15.1773 53.5419C15.5171 54.6857 15.6383 55.9963 14.9852 57.0543C14.7443 57.4444 15.2807 57.8242 15.6014 57.5301C16.4953 56.71 16.7569 55.42 16.5604 54.2616C16.451 53.6247 16.1983 53.0174 15.8762 52.4603C15.7166 52.184 15.5393 51.918 15.3502 51.6594C15.164 51.4038 14.9453 51.1038 14.5877 51.1334C14.3394 51.1526 14.2109 51.3417 14.2464 51.5811C14.4828 53.14 15.2911 54.7433 14.7754 56.3303C14.9541 56.2579 15.1344 56.184 15.3132 56.1116C15.3103 56.1101 15.2911 55.9387 15.2881 55.9047C15.2718 55.7348 15.2571 55.5634 15.2423 55.3934C15.2098 55.0152 15.1802 54.6384 15.1522 54.2601C15.0975 53.5168 15.0487 52.7721 15.0192 52.0274C14.7842 52.0274 14.5493 52.0274 14.3143 52.0274C14.5094 53.9779 14.4872 55.9343 14.301 57.8833C14.5463 57.8508 14.7901 57.8168 15.0354 57.7843C14.666 55.7008 14.5744 53.5892 14.5596 51.4762C14.5611 51.1452 14.0971 51.1629 14.0602 51.4777Z" fill="#42403F"/>
<path d="M14.1251 63.6594C15.2733 63.5589 16.0195 64.6391 16.6017 65.4592C16.779 65.2819 16.9548 65.106 17.1322 64.9287C16.2603 64.3657 15.3575 63.8249 14.2995 63.7407C13.9168 63.7097 13.8414 64.2327 14.1163 64.416C14.6335 64.7573 15.1698 65.0691 15.7299 65.3336C16.0284 65.474 16.3328 65.604 16.6401 65.7222C16.9519 65.8419 17.2282 65.9025 17.5607 65.8345C17.8577 65.7739 18.134 65.6188 18.3985 65.4769C18.6468 65.3425 18.9009 65.2257 19.1684 65.1341C19.7195 64.945 20.2958 64.8489 20.878 64.8445C21.537 64.8401 22.1783 64.9642 22.7931 65.1991C22.8256 64.9627 22.8566 64.7278 22.8891 64.4913C21.277 64.3539 19.5112 64.2667 18.2123 65.4045C17.9552 65.6291 18.1843 65.9897 18.4665 66.0177C19.9028 66.1626 21.342 65.935 22.7561 65.6956C23.0605 65.6439 23.1181 65.1578 22.8433 65.0262C22.1429 64.6908 21.3715 64.5371 20.5958 64.6155C20.1968 64.6554 20.1022 65.1844 20.4997 65.3203C21.2001 65.5612 21.9301 65.6129 22.6586 65.4858C23.0324 65.4208 23.0029 64.846 22.6586 64.7588C22.2567 64.6583 21.8444 64.5933 21.4307 64.5652C21.0213 64.5386 20.5913 64.5416 20.2589 64.8149C20.3135 64.7928 20.3697 64.7691 20.4244 64.747C20.1806 64.7603 19.9397 64.7499 19.6959 64.7736C19.4403 64.7987 19.2009 64.8652 18.9556 64.945C18.8063 64.9937 18.6955 65.1252 18.6955 65.2863C18.6955 65.4282 18.8049 65.607 18.9556 65.6276C19.7727 65.74 20.5943 65.7281 21.4026 65.5538C21.7838 65.4725 22.1429 65.3292 22.5182 65.2287C22.6763 65.1858 22.8374 65.1637 23.0014 65.1977C23.1418 65.2272 23.3309 65.2641 23.4447 65.3558C23.5866 65.1725 23.7269 64.9893 23.8688 64.8075C23.591 64.6805 23.2851 64.6716 23.025 64.8489C23.192 64.9169 23.359 64.9849 23.5274 65.0528C23.1107 63.9801 21.8355 63.8648 20.8366 63.9017C19.6782 63.9446 18.465 64.2786 17.6272 65.1193C17.2784 65.4695 17.8163 66.0074 18.1695 65.6616C18.8522 64.9923 19.7919 64.7455 20.7199 64.6672C21.1484 64.6317 21.5991 64.6051 22.0232 64.6938C22.3468 64.7603 22.7443 64.8933 22.8655 65.2361C22.9364 65.4341 23.1699 65.5671 23.3679 65.44C23.4151 65.4104 23.4595 65.3838 23.5141 65.4119C23.6693 65.4887 23.857 65.4666 23.9648 65.3218C24.0624 65.1917 24.0712 64.9775 23.9382 64.8637C23.6117 64.5829 23.2807 64.3982 22.8374 64.4012C22.3911 64.4041 21.9863 64.6036 21.5651 64.7248C20.7465 64.9612 19.8969 65.0277 19.0502 64.9331C19.0812 65.1651 19.1137 65.3971 19.1447 65.6291C19.3664 65.5508 19.5925 65.4858 19.8156 65.4075C20.0328 65.3306 20.2604 65.2449 20.4879 65.2065C20.4273 65.1991 20.3682 65.1903 20.3076 65.1829C20.6475 65.3631 21.0273 65.3292 21.3981 65.3439C21.7572 65.3572 22.1089 65.4075 22.4591 65.4873C22.4591 65.2449 22.4591 65.0026 22.4591 64.7603C21.8666 64.877 21.2592 64.8297 20.6904 64.6288C20.6578 64.8637 20.6268 65.0986 20.5943 65.3336C21.2415 65.273 21.8858 65.3735 22.4724 65.6587C22.502 65.4356 22.53 65.2124 22.5596 64.9893C21.2046 65.2095 19.8422 65.4311 18.465 65.2996C18.5492 65.5035 18.6349 65.7089 18.7192 65.9128C19.8496 64.9139 21.5016 65.0721 22.8891 65.2124C23.0649 65.2302 23.2245 65.0617 23.2437 64.8992C23.2659 64.71 23.158 64.5711 22.9851 64.5032C21.8887 64.0746 20.6578 64.0022 19.5156 64.2815C18.929 64.4248 18.4074 64.6849 17.871 64.9553C17.6523 65.0647 17.3937 65.1917 17.144 65.1341C16.8588 65.0676 16.5736 64.9272 16.3062 64.8075C15.6693 64.5238 15.0575 64.1869 14.4827 63.7924C14.4221 64.017 14.3616 64.2416 14.2995 64.4677C15.2097 64.5563 16.0032 65.106 16.7406 65.601C17.0568 65.8138 17.4883 65.3883 17.2711 65.0706C16.8913 64.515 16.4746 63.9431 15.9234 63.5456C15.3856 63.1585 14.7029 62.9886 14.0542 63.1393C13.7661 63.2013 13.8222 63.686 14.1251 63.6594Z" fill="#42403F"/>
<path d="M16.1775 57.3543C16.3755 56.877 16.5972 56.4115 16.7922 55.9342C16.8484 55.7953 16.742 55.6239 16.6149 55.5737C16.4819 55.5205 16.3016 55.5604 16.2322 55.6993C16.0239 56.113 15.8229 56.5283 15.6219 56.9464C15.8229 57.0011 16.0239 57.0558 16.2248 57.109C16.2115 56.7602 15.8923 56.5578 15.5628 56.6213C15.3205 56.6672 15.0855 56.8474 14.8861 56.9863C14.6807 57.1297 14.4827 57.2848 14.298 57.4518C14.1073 57.6232 13.896 57.8138 13.7586 58.031C13.5606 58.3458 14.0142 58.6945 14.2728 58.427C14.4043 58.2911 14.5285 58.099 14.3866 57.9217C14.2477 57.7473 14.0364 57.8079 13.8768 57.9143C14.0083 58.0857 14.1413 58.2571 14.2728 58.4285C14.4058 58.3088 14.5152 58.1596 14.6437 58.034C14.7678 57.9128 14.8979 57.7976 15.0338 57.6882C15.1565 57.5892 15.2895 57.4976 15.4239 57.4119C15.4934 57.3676 15.5643 57.3203 15.6382 57.2819C15.6323 57.2848 15.7135 57.242 15.715 57.2508C15.6958 57.2686 15.6707 57.2641 15.6411 57.236C15.6027 57.2065 15.582 57.1636 15.5776 57.109C15.585 57.2523 15.6736 57.3823 15.8155 57.4208C15.9441 57.4562 16.1199 57.4001 16.1805 57.2715C16.377 56.8519 16.5721 56.4307 16.7612 56.0066C16.575 55.9283 16.3888 55.85 16.2026 55.7702C16.1169 56.0111 16.049 56.2578 15.9692 56.5017C15.8909 56.7455 15.8007 56.9863 15.7165 57.2272C15.6736 57.3483 15.7653 57.4887 15.8835 57.5212C16.0209 57.5582 16.1273 57.4739 16.1775 57.3543Z" fill="#42403F"/>
<path d="M13.8001 63.7097C13.9774 64.1116 14.3601 64.348 14.7487 64.5106C14.9423 64.5918 15.1418 64.6554 15.3368 64.7322C15.4166 64.7632 15.5038 64.8002 15.6013 64.8489C15.7299 64.914 15.8289 65.0011 15.9796 65.0085C16.1451 65.0174 16.321 64.8179 16.2515 64.6509C16.2086 64.549 16.1673 64.4899 16.0757 64.4293C16.0343 64.4012 15.9914 64.3761 15.9471 64.3525C15.8466 64.2978 15.7417 64.252 15.6338 64.2121C15.4344 64.1382 15.229 64.0865 15.0265 64.0229C14.7118 63.9239 14.3631 63.7865 14.1843 63.4821C14.1237 63.3787 13.9833 63.3403 13.8784 63.4023C13.7661 63.4703 13.7513 63.5989 13.8001 63.7097Z" fill="#42403F"/>
<path d="M18.3763 65.765C18.728 65.3498 19.2363 65.1518 19.7446 64.9937C20.2292 64.8415 20.7376 64.7706 21.2444 64.775C21.7527 64.778 22.2522 64.8637 22.7353 65.0203C22.9599 65.0942 23.1786 65.1784 23.3899 65.2848C23.6308 65.406 23.8436 65.5774 24.083 65.6985C24.4612 65.8892 24.872 65.4133 24.5484 65.0942C24.3401 64.8873 24.046 64.7395 23.783 64.611C23.5126 64.478 23.2289 64.3627 22.9393 64.277C22.3748 64.1101 21.7734 64.0362 21.1853 64.0569C20.0046 64.0997 18.7575 64.5208 18.0275 65.4961C17.8798 65.6971 18.2137 65.9571 18.3763 65.765Z" fill="#42403F"/>
<path d="M35.984 64.416C36.6446 64.611 37.2799 64.8386 37.8651 65.211C38.4222 65.5656 38.9275 66.0251 39.3147 66.5601C39.5097 66.365 39.7062 66.1685 39.9013 65.9734C38.9024 65.4016 37.8326 64.9435 36.7391 64.5844C36.3106 64.4441 36.0239 65.1105 36.4303 65.3174C37.0642 65.638 37.7232 65.9114 38.4059 66.1109C38.7458 66.2099 39.0915 66.2911 39.4417 66.3547C39.8171 66.4226 40.1761 66.4566 40.5116 66.2394C40.7835 66.0636 41.0273 65.8552 41.3095 65.6912C41.574 65.5375 41.8503 65.406 42.1399 65.3055C42.731 65.1001 43.3575 65.0115 43.9826 65.0868C44.6372 65.1666 45.2859 65.4341 45.7883 65.8656C45.9213 65.6365 46.0542 65.4075 46.1872 65.1799C44.216 64.6849 42.1355 64.6687 40.1584 65.1371C39.8703 65.2051 39.7624 65.607 39.9811 65.8094C40.584 66.3635 41.407 66.3059 42.1592 66.1773C43.0886 66.0192 44.0166 65.8464 44.9445 65.6809C45.3863 65.6025 45.2829 64.8829 44.8396 64.9007C43.656 64.9479 42.4842 65.1652 41.3686 65.57C40.9386 65.7252 41.0154 66.3222 41.475 66.3591C42.7709 66.4611 44.0668 66.4138 45.3538 66.2365C45.577 66.2054 45.6981 65.9202 45.6449 65.7237C45.5799 65.4858 45.3553 65.4001 45.1322 65.4326C43.922 65.6114 42.6941 65.6483 41.475 65.5553C41.5105 65.8183 41.5459 66.0813 41.5814 66.3443C42.6276 65.9601 43.724 65.7341 44.8381 65.6956C44.8027 65.4356 44.7672 65.1755 44.7332 64.9154C43.8924 65.0617 43.0531 65.2065 42.2123 65.3528C41.7011 65.4415 40.9726 65.6291 40.5485 65.242C40.4894 65.4666 40.4303 65.6897 40.3712 65.9143C42.2138 65.4755 44.1348 65.4947 45.9685 65.9734C46.3468 66.0724 46.6867 65.5686 46.3675 65.2878C45.3376 64.382 43.9397 64.0806 42.6084 64.3347C41.9478 64.4603 41.308 64.7307 40.7406 65.0868C40.6091 65.1696 40.482 65.2582 40.3579 65.3513C40.2545 65.4282 40.1274 65.5612 40.0018 65.5981C39.8762 65.635 39.7181 65.5892 39.5925 65.5671C39.4063 65.5331 39.2231 65.4947 39.0398 65.4503C38.2744 65.2671 37.5341 64.9967 36.8381 64.6273C36.7347 64.8711 36.6327 65.1164 36.5293 65.3602C37.5548 65.7178 38.5286 66.1803 39.4713 66.7167C39.6368 66.8113 39.8555 66.7847 39.9914 66.6502C40.117 66.5246 40.1688 66.2823 40.0579 66.1301C39.1418 64.8696 37.6686 63.8515 36.0727 63.7806C35.6959 63.7599 35.6383 64.314 35.984 64.416Z" fill="#42403F"/>
<path d="M61.9892 59.6402C63.3058 60.1012 64.3121 61.2065 65.0878 62.328C65.212 62.1108 65.3376 61.8936 65.4617 61.6779C65.1809 61.6557 64.9223 61.4193 64.7081 61.2538C64.4199 61.0336 64.1259 60.8238 63.8215 60.6272C63.2083 60.2327 62.5743 59.8795 61.9079 59.584C61.7291 59.5042 61.5267 59.5175 61.3996 59.686C61.2873 59.8367 61.2844 60.0672 61.4306 60.2032C62.2212 60.9361 63.0088 61.6705 63.7964 62.4063C64.0018 62.5984 64.3756 62.529 64.4465 62.2349C64.5352 61.867 64.3254 61.5109 64.1421 61.2035C63.9707 60.9154 63.7624 60.645 63.5319 60.4026C63.322 60.1825 63.0132 59.8293 62.6837 59.8293C62.2847 59.8293 62.0749 60.2756 62.0439 60.6154C61.9774 61.3188 62.5803 61.8744 63.1137 62.229C63.3959 62.4167 63.7107 62.563 64.0328 62.6679C64.1953 62.7196 64.3786 62.7787 64.5514 62.7713C64.6593 62.7669 64.7672 62.7403 64.8618 62.6886C64.9061 62.662 64.9489 62.6324 64.9874 62.5984C65.0406 62.5526 65.0391 62.5467 64.9829 62.5792C65.2681 62.5349 65.311 62.0842 65.0642 61.9616C64.8869 61.8729 64.7391 61.8847 64.5618 61.9571C64.4731 61.9926 64.5352 61.9763 64.479 61.9793C64.4244 61.9808 64.3549 61.9483 64.3002 61.9335C64.0254 61.8537 63.7712 61.734 63.5319 61.5774C63.322 61.44 63.1063 61.2685 62.9571 61.0661C62.8906 60.976 62.8315 60.8725 62.8182 60.7602C62.8137 60.7262 62.8152 60.6731 62.8226 60.6405C62.8241 60.6184 62.83 60.5992 62.8418 60.5814C62.892 60.5105 62.8758 60.5149 62.7901 60.5962C62.7206 60.5962 62.6527 60.5962 62.5832 60.5962C62.5758 60.5947 62.5729 60.577 62.5817 60.5888C62.6054 60.6228 62.666 60.6568 62.6985 60.6849C62.7591 60.7381 62.8196 60.7927 62.8773 60.8489C63.0029 60.9701 63.1226 61.1001 63.2304 61.239C63.3309 61.369 63.421 61.5094 63.5038 61.6513C63.5437 61.7207 63.5821 61.7931 63.619 61.864C63.6383 61.9025 63.6604 61.9438 63.6767 61.9837C63.6885 62.0118 63.6885 62.0798 63.7003 62.0295C63.9175 61.9719 64.1333 61.9158 64.3505 61.8581C63.5629 61.1223 62.7753 60.3864 61.9907 59.649C61.8311 59.8544 61.673 60.0613 61.5134 60.2667C62.2153 60.5844 62.895 60.9582 63.526 61.403C64.1333 61.8301 64.6844 62.4802 65.4646 62.5452C65.7823 62.5718 66.0158 62.1537 65.8385 61.8951C65.3671 61.208 64.8174 60.5726 64.1806 60.0332C63.5747 59.5205 62.8802 59.0993 62.0793 59.0048C61.9212 58.9856 61.7764 59.1422 61.7602 59.287C61.7365 59.4496 61.834 59.5855 61.9892 59.6402Z" fill="#42403F"/>
<path d="M65.6834 62.1582C65.741 62.3577 65.7839 62.4198 65.809 62.3414C65.8223 62.3252 65.8371 62.3119 65.8548 62.2986C65.9169 62.2587 65.9745 62.1922 66.0262 62.1405C66.137 62.0297 66.2449 61.9174 66.3602 61.8125C66.567 61.6233 66.7843 61.4416 67.0163 61.282C67.4935 60.9525 68.0181 60.7042 68.584 60.5712C69.6391 60.323 70.8316 60.5668 71.6295 61.3233C71.8009 61.1017 71.9723 60.8801 72.1437 60.6569C71.1507 60.1619 70.0277 60.1634 68.9623 60.4042C67.8467 60.6569 66.8079 61.1623 65.7115 61.4785C65.3376 61.5864 65.3199 62.1553 65.7115 62.2557C67.4581 62.6976 69.3672 62.3991 70.8833 61.4179C71.2586 61.1756 71.0281 60.5417 70.57 60.6747C69.7647 60.9096 68.9682 61.1741 68.1821 61.4682C68.0137 61.5302 67.8866 61.6676 67.8866 61.8568C67.8866 62.0178 68.0107 62.2203 68.1821 62.2454C69.2372 62.4006 70.2745 62.2602 71.2497 61.8257C71.526 61.7031 71.495 61.2687 71.2497 61.1372C70.5774 60.7751 69.8164 60.6348 69.0598 60.7426C68.7037 60.7943 68.3624 60.9022 68.0388 61.0588C67.857 61.1475 67.6856 61.248 67.597 61.4371C67.4994 61.6455 67.5526 61.8996 67.7654 62.0119C68.1068 62.1922 68.5116 61.7327 68.1969 61.4534C68.188 61.446 68.1806 61.4386 68.1718 61.4312C68.2028 61.4844 68.2338 61.5376 68.2649 61.5893C68.2634 61.579 68.2619 61.5686 68.2604 61.5583C68.2604 61.6233 68.2604 61.6868 68.2604 61.7519C68.1703 61.8509 68.1673 61.876 68.2501 61.8257C68.2767 61.811 68.3018 61.7977 68.3284 61.7844C68.3742 61.7607 68.4215 61.7386 68.4688 61.7179C68.5796 61.6706 68.6949 61.6351 68.8116 61.6041C69.0362 61.5435 69.2593 61.5154 69.4913 61.5095C69.9642 61.4977 70.4311 61.5997 70.8478 61.8257C70.8478 61.5967 70.8478 61.3662 70.8478 61.1372C70.0898 61.4726 69.2179 61.5923 68.3979 61.4696C68.3979 61.7282 68.3979 61.9883 68.3979 62.2469C69.1854 61.9558 69.9819 61.6942 70.7887 61.4608C70.6838 61.2125 70.5804 60.9658 70.4754 60.7175C69.1337 61.5805 67.4788 61.8686 65.9287 61.48C65.9287 61.7386 65.9287 61.9972 65.9287 62.2572C66.966 61.9573 67.9501 61.4948 69.0007 61.2406C69.8873 61.0249 70.8818 60.9687 71.7181 61.3928C72.1319 61.6026 72.5944 61.0751 72.2324 60.7264C71.399 59.927 70.2124 59.5708 69.0702 59.6861C67.9147 59.8028 66.8035 60.3658 65.9937 61.1963C65.7721 61.4238 65.5475 61.6647 65.3923 61.9425C65.2711 62.1597 65.2017 62.5926 65.5548 62.6414C65.8681 62.6828 65.9863 62.2764 65.6834 62.1582Z" fill="#42403F"/>
<path d="M39.3133 45.3957C38.5538 45.4932 37.7293 46.4551 38.1607 47.2649C38.5464 47.9904 39.5807 47.5737 39.5748 46.832C39.5704 46.2305 38.7695 45.4105 38.1829 45.8863C37.4913 46.4463 38.1563 47.6653 38.6676 48.0953C38.9143 48.3022 39.4079 48.348 39.563 47.9801C39.9369 47.1009 39.3458 45.8597 38.2863 46.0059C38.0854 46.034 37.9494 46.2335 37.8874 46.4049C37.6568 47.0447 38.0957 48.3864 38.9424 48.3539C39.9413 48.3155 39.8851 46.8645 39.6177 46.2409C39.4079 45.7518 38.706 45.9572 38.5686 46.3783C38.3735 46.9709 38.3602 47.8175 38.9424 48.2091C39.4965 48.5815 40.1851 48.2254 40.4836 47.7112C40.8205 47.1275 40.9786 46.1951 40.6875 45.5656C40.4068 44.9553 39.7064 44.8194 39.235 45.3085C38.8271 45.7311 38.437 46.7522 38.7784 47.2885C39.1345 47.8486 39.9428 47.7762 40.3639 47.3388C41.4263 46.235 39.5482 44.7145 38.7296 46.0976C38.3617 46.7182 39.2557 47.1822 39.6679 46.6458C40.0625 46.133 40.4393 45.7208 41.0362 45.4474C40.8116 45.1563 40.587 44.8652 40.3624 44.5741C39.9398 44.9923 39.4995 45.2922 38.9675 45.5508C39.2143 45.7976 39.4611 46.0444 39.7078 46.2911C39.959 45.7385 40.5915 45.2922 41.2269 45.3587C41.9598 45.4356 41.8682 46.3768 41.5771 46.8659C41.9598 46.8659 42.341 46.8659 42.7237 46.8659C42.2376 46.0606 41.286 44.9465 40.2841 45.641C39.4404 46.2261 39.2601 47.4186 39.8896 48.2298C40.6136 49.1607 41.7603 48.9701 42.2169 47.9239C42.6277 46.9842 42.5804 45.6291 41.4278 45.2597C40.2915 44.8962 39.529 46.0946 39.7714 47.1068C40.0034 48.0747 41.1825 48.9287 42.0913 48.2003C42.8981 47.553 43.1404 45.8537 42.3351 45.1208C41.4145 44.2815 40.454 45.245 40.361 46.2172C40.259 47.2945 41.1027 48.7706 42.3706 48.1072C43.7004 47.4112 42.938 45.9099 42.3425 45.0351C42.3055 45.3233 42.2686 45.6099 42.2317 45.8981C42.0233 45.9129 42.0292 45.9734 42.2464 46.0798C42.3055 46.1389 42.3661 46.1966 42.4252 46.2557C42.6351 46.4611 42.8523 46.6827 43.0266 46.9206C43.5867 47.6905 42.5021 47.655 42.0071 47.5205C41.7189 47.4422 41.3185 47.5663 41.184 47.856C40.7525 48.7765 41.6569 49.3912 42.5183 49.3115C43.5217 49.2169 44.1275 48.3259 44.1969 47.3787C44.2546 46.594 43.8733 45.4563 42.8597 45.7813C42.1208 46.0178 41.6051 47.2989 41.9391 47.9801C42.0883 48.286 42.4459 48.3539 42.7444 48.3081C42.7666 48.3052 42.7887 48.3007 42.8094 48.2978C43.1271 48.2475 43.3163 47.8988 43.3325 47.6107C43.334 47.5929 43.334 47.5752 43.3355 47.5575C43.3857 46.6399 41.9598 46.6428 41.9095 47.5575C41.9081 47.5752 41.9081 47.5929 41.9066 47.6107C42.0809 47.3816 42.2553 47.1526 42.4297 46.9236C42.4075 46.9265 42.3853 46.931 42.3646 46.9339C42.6336 47.0433 42.901 47.1526 43.17 47.2619C43.3768 47.6846 43.2675 47.1585 43.4936 47.0492C43.3103 47.0728 43.1271 47.0965 42.9439 47.1216C42.6232 47.0477 42.8331 47.3417 42.7001 47.6062C42.6085 47.788 42.341 47.8604 42.3942 47.9505C42.3942 48.1958 42.3942 48.4396 42.3942 48.6849C42.4105 48.6539 42.4252 48.6243 42.4415 48.5933C42.1666 48.7056 41.8933 48.8164 41.6184 48.9287C42.4134 49.1726 43.2911 49.2125 43.9768 48.6702C44.5545 48.2121 44.8279 47.4777 44.5989 46.7669C44.3743 46.0724 43.6546 45.3942 43.1094 44.9376C42.5139 44.4396 41.8209 44.3731 41.2254 44.8933C41.0037 45.0868 40.9446 45.5109 41.1146 45.7562C41.2727 45.9867 41.4943 46.2217 41.6066 46.4773C41.6953 46.6798 41.648 46.894 41.7603 46.7034C41.7381 46.5394 41.7411 46.3768 41.7677 46.2143C41.4677 46.2704 41.3377 46.4463 41.3761 46.7403C41.2342 47.1644 41.2387 47.0122 41.0983 46.7418C41.1013 46.6857 41.0865 46.6339 41.0554 46.5896C41.1352 46.7832 41.1338 46.9768 41.051 47.1703C40.9372 47.2989 40.9328 47.4141 41.0377 47.5146C40.9195 47.4481 40.8471 47.3521 40.8235 47.228C40.7673 47.123 40.7644 47.0122 40.8146 46.897C40.8855 46.6502 40.9461 46.6014 40.9949 46.7507C41.218 46.7625 41.4899 47.3683 41.5771 47.5412C41.8164 48.0215 42.4607 47.9195 42.7237 47.5412C43.3665 46.6177 43.2084 44.6701 41.9805 44.2623C40.6816 43.8294 39.4153 44.6746 38.7725 45.7488C38.5464 46.1286 38.9291 46.7152 39.3842 46.5438C40.0699 46.2867 40.655 45.9084 41.1485 45.3646C41.5741 44.8962 41.0422 44.1929 40.4747 44.4913C39.798 44.846 39.2985 45.4119 38.8153 45.9926C39.099 46.2113 39.3842 46.4315 39.6679 46.6502C39.665 46.6073 39.6605 46.5645 39.6576 46.5202C39.7152 46.6591 39.7728 46.798 39.8305 46.9369C39.8305 46.6916 39.9295 46.2039 40.1585 46.0857C40.0093 46.1049 39.8585 46.1256 39.7093 46.1448C39.7389 46.1508 39.5379 46.9502 39.5409 47.0004C39.4522 47.1112 39.4773 47.1969 39.6162 47.259C39.5734 47.0595 39.5955 46.8704 39.6798 46.6901C39.3296 46.7359 38.9808 46.7817 38.6306 46.8275C38.7326 47.0433 38.703 47.228 38.542 47.3831C38.7281 47.3344 38.9128 47.2856 39.099 47.2354C38.9941 47.0758 38.9587 46.9029 38.9941 46.7152C38.8611 46.8482 38.7281 46.9812 38.5952 47.1142C38.6395 47.1083 38.6838 47.1024 38.7281 47.095C38.5819 47.0758 38.4341 47.0566 38.2878 47.0373C38.4297 47.126 38.5272 47.2501 38.5833 47.4097C38.8434 47.3417 39.1035 47.2738 39.3635 47.2043C39.3813 47.2176 38.873 46.6472 38.9084 46.6118C38.7887 46.662 38.6676 46.7108 38.5479 46.761C38.4607 46.9029 38.5213 46.8349 38.7267 46.5542C38.8537 46.6073 38.9823 46.6591 39.1094 46.7123C39.0769 46.6812 39.0444 46.6487 39.0119 46.6177C39.065 46.7448 39.1168 46.8718 39.17 46.9989C39.1655 46.6975 39.2276 46.3665 39.5438 46.232C39.9369 46.0591 39.7433 45.341 39.3133 45.3957Z" fill="#42403F"/>
<path d="M46.9556 39.9816C45.8164 38.2704 47.5245 35.9919 48.6742 34.7433C49.3598 33.9985 50.1415 33.338 50.8847 32.6539C51.6058 31.9904 52.2087 31.3003 53.1987 31.0846C54.8064 30.7329 56.5885 31.2028 57.8681 32.2239C58.5035 32.7307 59.1566 33.4518 59.3532 34.2616C59.6029 35.29 58.9424 36.3007 58.4326 37.1371C57.9981 37.8508 58.935 38.4167 59.5068 37.966C61.7603 36.1929 61.9642 32.8755 59.823 30.9398C59.2512 30.4226 58.5301 31.0654 58.8109 31.72C59.4034 33.1016 59.2778 34.7167 58.4459 35.9712C58.0898 36.5076 57.6095 36.9819 57.0643 37.3247C56.4791 37.6942 55.8157 37.8419 55.1921 38.1286C53.9479 38.699 53.1928 40.0215 51.7329 40.1072C50.9867 40.1515 50.2272 40.0126 49.4883 39.9284C49.116 39.8855 48.7421 39.8441 48.3698 39.8013C47.8467 39.7407 47.727 39.819 47.6886 39.2664C47.5777 37.6424 48.4643 36.0924 49.4913 34.9073C50.4695 33.7784 51.6368 32.6199 52.9298 31.8589C54.273 31.0684 55.8718 30.9162 57.0613 32.0569C57.5903 32.5637 58.109 33.2449 58.2272 33.9867C58.3616 34.826 57.8681 35.5294 57.3036 36.0939C56.3092 37.0883 55.0547 37.8951 53.7809 38.4832C53.1189 38.7876 52.4274 39.027 51.7196 39.1954C51.2069 39.3166 49.7706 39.7318 49.311 39.3447C48.7805 38.8984 49.1825 37.7075 49.4204 37.2331C49.7588 36.5608 50.2153 35.9269 50.7 35.3536C51.6103 34.2749 52.6904 33.3543 53.9065 32.6376C54.9084 32.048 57.0554 30.9162 57.3613 32.812C57.5918 34.2409 56.126 35.4555 55.1551 36.2712C54.0558 37.1962 52.8086 37.9867 51.4359 38.4345C51.0162 38.5719 49.9582 38.9841 49.5194 38.8172C49.2002 38.6945 49.4544 38.9354 49.3938 38.6531C49.3583 38.4832 49.4233 38.2926 49.4647 38.1271C49.5578 37.7562 49.741 37.4178 49.9464 37.0972C50.799 35.7643 52.0905 34.5807 53.4307 33.7518C54.0765 33.3528 54.7621 33.0292 55.4906 32.812C55.8482 32.7056 56.2412 32.5889 56.6165 32.5697C57.2253 32.5371 56.9549 32.9139 56.6978 33.2479C55.7418 34.4876 54.5212 35.6033 53.246 36.5061C52.6018 36.9627 51.925 37.3735 51.2216 37.7296C50.8759 37.904 50.5257 38.065 50.1666 38.2084C49.9834 38.2823 49.7987 38.3547 49.6125 38.4182C49.5386 38.4463 49.4632 38.4729 49.3893 38.501C49.1958 38.5113 49.1884 38.5468 49.3701 38.6073C49.3864 38.7359 49.4041 38.8645 49.4204 38.993C49.5622 38.1241 50.307 37.4858 50.9261 36.9213C51.5393 36.3628 52.157 35.8234 52.8367 35.3432C54.208 34.3753 55.7093 33.6099 57.2904 33.0469C57.0702 32.7603 56.85 32.4751 56.6313 32.1884C56.287 32.8652 55.6457 33.205 55.0148 33.5789C54.2789 34.0148 53.5622 34.4832 52.8751 34.993C51.529 35.9934 50.2937 37.1208 49.1736 38.3694C48.6845 38.9162 49.4056 39.587 49.9597 39.1556C51.7743 37.7444 53.7041 36.4913 55.7181 35.3861C55.5393 35.0802 55.3605 34.7743 55.1817 34.4684C54.0499 35.1821 52.9209 35.8988 51.7935 36.6184C50.7754 37.2671 49.7322 38.0916 48.6328 38.5896C48.3565 38.7137 47.9205 38.9738 48.1496 38.4522C48.2545 38.2158 48.386 37.9912 48.519 37.7695C48.7702 37.3543 49.0539 36.9612 49.3332 36.5652C49.9183 35.7363 50.4592 34.9029 50.7473 33.9202C50.8965 33.4075 50.1873 32.9494 49.8164 33.3779C48.3269 35.1053 47.3295 37.1637 46.9468 39.4141C46.8655 39.8885 47.2113 40.2342 47.6856 40.153C48.5175 40.0111 49.2283 39.256 49.9124 38.7965C50.7399 38.2394 51.5984 37.7267 52.4806 37.2612C53.3524 36.8016 54.2464 36.385 55.164 36.0244C55.5009 35.8914 56.2516 35.7776 56.5087 35.5353C56.6993 35.5235 56.7022 35.4718 56.5175 35.3801C56.3964 35.2028 56.2988 35.2339 56.222 35.4747C56.0299 35.6107 55.8674 35.8988 55.7196 36.0761C55.399 36.4603 55.5837 37.1341 56.1526 37.1208C56.8308 37.1046 57.4943 37.0144 58.1563 36.8726C57.9006 36.7278 57.645 36.583 57.3894 36.4367C57.4012 36.4736 57.413 36.5106 57.4233 36.549C57.444 36.3879 57.4647 36.2268 57.4869 36.0658C57.2076 36.6317 56.85 37.007 57.3096 37.635C57.7854 38.2837 58.5833 38.198 59.2497 37.9261C59.0325 37.5538 58.8153 37.1814 58.5996 36.809C58.341 37.0469 58.0839 37.2863 57.8253 37.5242C57.181 38.1182 58.1563 39.0979 58.7887 38.4877C59.0414 38.2438 59.294 37.9986 59.5467 37.7547C60.1334 37.1873 59.3901 36.4204 58.737 36.7041C58.4562 36.8253 58.4961 36.8519 58.3203 37.0721C58.4001 36.9701 58.4858 36.8741 58.5434 36.7588C58.6557 36.5372 58.6779 36.3406 58.5936 36.1057C58.4784 35.785 58.174 35.5796 57.8267 35.6698C57.2726 35.8146 56.7274 35.8826 56.154 35.8958C56.2988 36.2446 56.4422 36.5918 56.587 36.9405C57.0968 36.3288 58.5168 35.0935 57.3731 34.3547C56.5087 33.7961 55.1744 34.6088 54.3794 34.9442C53.1544 35.4629 51.9664 36.0599 50.8256 36.744C50.2301 37.1001 49.6479 37.4799 49.0805 37.8789C48.5692 38.2394 47.9959 38.8778 47.3694 38.9915C47.6162 39.2383 47.8629 39.4851 48.1082 39.7304C48.4318 37.6735 49.2667 35.7599 50.6069 34.1611C50.2966 33.9808 49.9863 33.8005 49.676 33.6188C49.3184 34.9132 48.42 35.9195 47.7285 37.0425C47.2689 37.7887 46.4133 39.29 47.6753 39.7629C48.2471 39.9771 48.7879 39.6727 49.2637 39.3757C49.9523 38.9442 50.632 38.501 51.3251 38.0769C52.7909 37.1785 54.2582 36.2845 55.7211 35.3801C56.3033 35.0196 55.7876 34.1374 55.1847 34.4625C53.116 35.5722 51.1492 36.8475 49.2889 38.2778C49.5135 38.5689 49.7381 38.86 49.9627 39.1511C51.195 37.7917 52.5648 36.5652 54.0809 35.5279C55.2734 34.7108 56.9475 34.1241 57.6435 32.7736C57.8592 32.3539 57.4957 31.7363 56.9845 31.9151C54.8138 32.6731 52.8101 33.8064 51.0532 35.293C50.4651 35.7895 47.1271 39.0359 49.0391 39.5309C49.8474 39.7392 50.9704 39.0639 51.6753 38.7256C52.6727 38.2468 53.6095 37.6528 54.4872 36.9804C55.3443 36.3229 56.1452 35.5974 56.8796 34.8053C57.447 34.1936 58.3114 33.3986 58.1991 32.4751C57.9346 30.3044 54.4651 31.7865 53.4159 32.3332C51.5881 33.2863 49.7898 34.8763 48.7451 36.6672C48.3033 37.4237 47.8777 38.5601 48.29 39.4171C48.7052 40.28 49.7395 40.0806 50.5138 39.9535C52.6594 39.5988 54.6276 38.4359 56.2309 37.0026C57.6346 35.7481 59.2482 33.8877 58.3099 31.8899C57.3169 29.7739 54.969 30.6738 53.4278 31.5752C51.5822 32.6539 49.9848 34.1906 48.8485 36.0022C48.3003 36.877 47.8452 37.8907 47.99 38.9457C48.1259 39.9387 48.6668 40.5918 49.6937 40.6007C51.925 40.6199 54.1459 39.7895 56.0033 38.594C57.6317 37.5464 59.7477 35.9801 59.3945 33.7798C59.0798 31.816 57.1559 30.068 55.1714 30.0163C52.8603 29.9572 50.9822 31.6919 49.4573 33.2183C47.8585 34.8186 46.3986 36.8888 46.5138 39.2605C46.5552 40.1057 46.8419 40.7573 47.7344 40.9007C48.952 41.0972 50.2479 41.2863 51.4817 41.3114C52.5811 41.3336 53.4618 40.9864 54.3203 40.3185C54.6941 40.0274 55.0532 39.7067 55.4669 39.4703C55.9738 39.1821 56.5589 39.0625 57.0923 38.8305C58.9498 38.0207 60.2309 36.2594 60.4673 34.2542C60.5973 33.1445 60.3801 32.0746 59.928 31.0624C59.5911 31.3225 59.2542 31.5826 58.9158 31.8426C60.5441 33.3114 60.1718 35.7082 58.5434 36.9908C58.901 37.2671 59.2601 37.5434 59.6177 37.8198C60.2634 36.7588 60.9032 35.5915 60.7481 34.3074C60.618 33.2287 59.9294 32.2564 59.1537 31.5279C57.5933 30.0635 55.3709 29.3631 53.2549 29.6882C52.0565 29.8729 51.2955 30.4271 50.4326 31.2294C49.4056 32.1855 48.287 33.0986 47.396 34.1877C46.0173 35.8737 44.3594 38.4921 45.942 40.5682C46.3838 41.1607 47.3856 40.6273 46.9556 39.9816Z" fill="#42403F"/>
<path d="M69.9508 30.3413C68.3166 31.3298 66.9409 33.9202 67.8851 35.7687C68.2545 36.4913 69.1987 35.9431 69.0953 35.2589C69.0051 34.6605 68.918 34.0605 68.819 33.4636C68.7126 32.8311 67.6664 32.8415 67.5526 33.4636C67.4063 34.2615 67.3191 35.0949 67.823 35.7879C68.1215 36.1972 68.8559 36.2164 68.9874 35.6357C69.3554 34.0251 69.9494 32.5046 70.7576 31.0653C70.3646 31.0136 69.973 30.9634 69.58 30.9117C69.8666 32.6908 70.3542 34.4359 70.7163 36.2002C71.0502 37.8271 70.9409 39.5146 71.6265 41.0572C71.7772 40.6893 71.9265 40.3199 72.0772 39.9519C70.669 40.2164 69.8888 38.5009 69.6849 37.3986C69.5578 36.7129 69.5563 36.0066 69.5622 35.3106C69.5667 34.8718 69.4514 34.0399 69.9139 33.799C69.5578 33.6542 69.2032 33.5094 68.847 33.3646C69.3391 34.5541 69.1441 35.7894 69.0938 37.0365C69.0583 37.9335 68.9593 39.5352 69.8651 40.0583C71.0606 40.7469 71.4152 39.2648 71.495 38.4285C71.6147 37.1607 71.427 35.8781 70.997 34.6826C70.6867 33.8212 69.4307 34.1551 69.6213 35.0624C69.7942 35.8825 69.9656 36.7041 70.1385 37.5242C70.2567 38.0842 70.8094 39.4643 70.1518 39.7717C70.4385 39.8086 70.7237 39.8456 71.0103 39.8825C70.7207 39.584 70.3277 39.4333 70.0366 39.1466C69.7277 38.8422 69.6169 38.3915 69.5415 37.9793C69.3642 37.004 69.3864 36.0938 68.9608 35.1762C68.5781 34.3502 67.3561 35.0683 67.7373 35.8914C68.1836 36.8518 67.9856 37.9734 68.3313 38.9678C68.4614 39.3402 68.6387 39.7007 68.8988 39.9992C69.2194 40.3686 69.6745 40.5415 70.0085 40.8858C70.2434 41.1267 70.5818 41.1296 70.867 40.9966C71.8437 40.54 71.956 39.4658 71.792 38.5171C71.5704 37.2345 71.2615 35.9593 70.997 34.6856C70.539 34.8127 70.0794 34.9383 69.6213 35.0653C70.0617 36.2992 70.3941 37.963 69.8829 39.2249C69.9937 39.0816 70.103 38.9383 70.2139 38.7949C70.6187 38.9457 70.7473 38.8703 70.5981 38.5659C70.5833 38.4684 70.5685 38.3709 70.5537 38.2733C70.5257 38.0295 70.5227 37.7813 70.5242 37.536C70.5257 36.9952 70.5759 36.4573 70.6054 35.9179C70.6601 34.9176 70.635 33.9187 70.2479 32.9804C70.0646 32.5371 69.6361 32.3095 69.181 32.5459C68.3269 32.9892 68.1496 33.9202 68.1141 34.8038C68.0713 35.8751 68.0831 36.9863 68.3254 38.0354C68.7805 40.0111 70.3232 41.7059 72.4776 41.406C72.8544 41.3542 73.1367 40.8223 73.0037 40.4795C72.4067 38.9427 72.522 37.2611 72.1718 35.6667C71.7979 33.963 71.362 32.2297 70.8227 30.5718C70.6542 30.0561 69.9331 29.9216 69.645 30.4181C68.7613 31.9431 68.1348 33.5788 67.758 35.3003C68.1466 35.2501 68.5353 35.1983 68.9224 35.1481C68.618 34.7358 68.7155 34.2881 68.819 33.8167C68.3964 33.8167 67.9752 33.8167 67.5526 33.8167C67.6339 34.4181 67.7285 35.0166 67.8186 35.615C68.222 35.4451 68.6254 35.2752 69.0288 35.1052C68.3387 33.7532 69.7381 31.9194 70.4976 30.8939C70.7443 30.557 70.273 30.1462 69.9508 30.3413Z" fill="#42403F"/>
<path d="M57.7056 34.2999C57.2032 34.7447 56.7865 35.2146 56.4318 35.7864C56.6889 35.7185 56.946 35.652 57.2032 35.584C57.0761 35.5072 56.9475 35.4244 56.7909 35.4421C56.9017 35.4879 57.0125 35.5337 57.1234 35.5796C57.1248 35.5766 57.1278 35.5722 57.1293 35.5692C57.0007 35.3003 56.55 35.3018 56.42 35.5692C56.386 35.6401 56.3535 35.7096 56.3358 35.7879C56.3757 35.7185 56.417 35.649 56.4569 35.581C56.451 35.5869 56.4451 35.5914 56.4407 35.5973C56.3136 35.717 56.2368 35.9504 56.3033 36.1189C56.3579 36.2578 56.4097 36.3671 56.519 36.4706C56.7702 36.7085 57.2327 36.6878 57.4041 36.3568C57.6612 35.8603 57.9627 35.3476 58.3158 34.9131C58.6646 34.4846 58.1296 33.9246 57.7056 34.2999Z" fill="#42403F"/>
<path d="M52.0593 31.2516C52.7493 30.1448 54.3925 29.8833 55.551 30.1773C56.2514 30.3546 56.9045 30.6797 57.5355 31.0225C58.2299 31.3993 58.8033 31.7289 59.056 32.5135C59.2968 33.2582 60.4464 33.1474 60.4464 32.3258C60.4464 31.2235 59.6056 30.4891 58.7205 29.9704C57.7852 29.4222 56.7553 28.9287 55.678 28.7425C53.8206 28.4233 51.9573 29.0587 51.4032 30.9753C51.2879 31.3727 51.8465 31.5929 52.0593 31.2516Z" fill="#42403F"/>
<path d="M50.6055 14.9677C50.7385 16.435 50.5227 17.8063 50.2287 19.2396C49.9701 20.5016 49.9317 21.7812 50.7547 22.8495C52.2339 24.772 54.9971 25.4561 57.3229 25.366C58.6602 25.3143 59.7965 24.571 60.9594 23.9829C62.1903 23.3593 63.5748 22.8141 64.6299 21.9024C65.6317 21.0365 64.8944 20.0937 64.0447 19.4982C62.8331 18.6501 61.6524 17.7531 60.426 16.9286C57.7972 15.1628 54.8493 14.7535 51.7581 14.5171C51.3221 14.4831 50.8892 15.0135 51.0591 15.4347C51.5334 16.6153 51.6192 17.7472 51.4817 19.0017C51.3709 20.0095 51.2896 21.0365 51.7241 21.9851C52.5855 23.8706 55.2025 24.4365 57.0747 24.3213C59.1434 24.1942 61.3392 23.2544 62.8611 21.8344C64.5013 20.305 60.9786 18.6116 59.9177 18.059C57.5401 16.8192 55.2483 15.8115 52.5309 15.6962C52.59 16.1321 52.6491 16.5666 52.7082 17.0025C53.0998 16.8444 53.7071 17.3039 54.0514 17.4694C54.5139 17.6925 54.9764 17.9157 55.4374 18.1403C56.3181 18.5688 57.1973 19.0017 58.0721 19.445C59.7448 20.2917 61.4012 21.4088 63.2793 21.7206C63.2261 21.3098 63.1714 20.8976 63.1183 20.4868C62.2287 21.1429 61.2623 21.6733 60.2058 22.0102C59.201 22.3309 57.976 22.6338 56.9343 22.3427C54.7473 21.731 54.2036 19.1214 54.0351 17.1768C53.9834 16.5858 53.082 16.1661 52.7791 16.837C52.1349 18.2644 52.4363 19.8898 53.0613 21.2773C53.6051 22.486 54.6956 23.9238 56.2073 23.3652C56.6402 23.2057 56.7983 22.7978 56.6077 22.3811C56.1984 21.4916 55.4832 20.8133 55.0192 19.9593C54.4799 18.9663 54.4607 17.8004 54.4311 16.6981C54.0336 16.7513 53.6362 16.8059 53.2401 16.8591C53.6583 18.7609 54.4282 20.54 55.6029 22.0974C55.8556 22.4328 56.5013 22.5939 56.7171 22.0974C57.0481 21.3364 56.6978 20.6877 56.4112 19.9563C56.0521 19.0416 55.6664 18.1373 55.2941 17.2285C54.9232 17.3852 54.5523 17.5418 54.1814 17.6984C54.6454 18.7505 55.037 19.8396 55.464 20.9064C55.7743 21.6837 56.0846 22.4388 56.7097 23.021C57.1338 23.417 57.8844 23.1466 57.8785 22.5363C57.8608 20.8015 57.577 19.1199 57.1264 17.4472C56.9417 16.7646 55.829 16.8813 55.8689 17.6172C55.962 19.38 56.4777 21.0424 57.4618 22.5126C57.7884 23.0017 58.4814 22.9013 58.6735 22.3545C59.0089 21.4029 59.1301 20.4277 59.0473 19.4229C58.5996 19.4834 58.1533 19.544 57.7056 19.6046C57.8814 20.4779 57.8637 22.0664 58.8434 22.4565C59.6251 22.7668 60.4393 22.2201 60.6772 21.4665C60.9225 20.6877 60.8412 19.5337 59.9945 19.1598C58.9261 18.6899 58.4282 19.7967 57.9804 20.5429C57.8534 20.7542 57.8578 21.0291 57.9804 21.2404C58.3632 21.8994 59.1212 22.254 59.8792 22.0767C60.7112 21.8832 61.2254 21.1532 61.4322 20.37C60.9771 20.308 60.522 20.2474 60.0684 20.1853C60.126 20.9685 60.5989 21.4192 61.2564 21.793C61.3111 21.3704 61.3672 20.9463 61.4219 20.5237C60.7998 20.7646 60.0964 20.8857 59.4537 20.6301C58.8803 20.4025 58.5331 19.8809 58.1415 19.4362C57.4559 18.6574 56.5028 17.9792 55.4123 18.2939C54.5035 18.5555 53.4396 19.5322 53.1958 20.4557C52.9195 21.5019 53.6938 22.2452 54.5094 22.7432C55.0207 23.0564 55.6827 22.5378 55.5187 21.9674C55.2424 21.001 54.0898 19.7036 52.9446 20.1188C51.5778 20.6139 53.0229 22.5466 53.614 23.0801C54.2612 23.6652 55.2276 22.6914 54.57 22.124C54.341 21.926 54.14 21.7265 53.976 21.4694C53.911 21.3719 53.8534 21.2685 53.8046 21.1621C53.7026 20.8503 53.679 20.7838 53.7307 20.9611C53.6288 21.0941 53.5268 21.2271 53.4248 21.3601C53.2623 21.434 53.7159 21.6054 53.8135 21.6925C54.0159 21.8728 54.1208 22.0753 54.1932 22.3324C54.5301 22.0738 54.867 21.8152 55.2025 21.5566C54.9439 21.397 54.4991 21.1857 54.5257 20.8222C54.5523 20.469 55.136 20.0302 55.396 19.8499C56.2959 19.2249 56.9225 20.1602 57.4707 20.7912C58.5863 22.0738 60.1881 22.4831 61.7898 21.8625C62.3188 21.6571 62.5154 20.9109 61.9553 20.5932C61.8342 20.5237 61.4692 20.3597 61.4559 20.1853C61.4012 19.4347 60.3018 19.2056 60.092 20.0006C60.0034 20.3331 59.5202 21.1355 59.1744 20.5429C59.1744 20.7749 59.1744 21.0084 59.1744 21.2404C59.2291 21.1488 59.5926 20.404 59.6738 20.404C59.3901 20.4025 59.3488 21.0498 59.368 21.1C59.1774 20.5961 59.1404 19.81 59.0237 19.2411C58.8715 18.4964 57.6169 18.6515 57.682 19.4229C57.7573 20.3109 57.6628 21.1532 57.3953 22.0028C57.7987 21.9497 58.2036 21.8979 58.607 21.8447C57.7086 20.5946 57.1884 19.1628 57.15 17.6186C56.7304 17.6748 56.3122 17.7324 55.8925 17.7886C56.2649 19.3445 56.4393 20.9404 56.5102 22.5363C56.9003 22.3752 57.2889 22.2142 57.679 22.0516C57.0658 21.5182 56.8013 20.7321 56.488 20.0036C56.0891 19.08 55.6605 18.1639 55.2956 17.2271C55.0163 16.5075 53.8475 16.8089 54.1208 17.5507C54.3794 18.2511 54.6365 18.95 54.8951 19.6504C55.0237 20.0006 55.1567 20.3494 55.2941 20.6966C55.3901 20.9389 55.6517 21.3261 55.5408 21.598C55.8999 21.5034 56.259 21.4088 56.6181 21.3128C55.5172 19.912 54.7606 18.2792 54.4119 16.5341C54.276 15.8558 53.215 16.0213 53.2209 16.6951C53.2313 17.8758 53.2593 19.0889 53.7233 20.1942C54.1592 21.2345 55.0045 22.0221 55.4551 23.0549C55.5881 22.7269 55.7226 22.3989 55.8556 22.0708C54.9394 22.3885 54.3484 20.967 54.1046 20.308C53.7854 19.4509 53.5416 18.3811 53.9479 17.5137C53.5298 17.4 53.1101 17.2877 52.6919 17.1739C52.8722 19.6608 53.6302 22.4846 56.191 23.4968C57.4219 23.9829 58.8419 23.7539 60.0876 23.4288C61.4263 23.0786 62.6883 22.4654 63.8054 21.6512C64.2191 21.3497 64.2767 20.5252 63.6443 20.4173C62.5597 20.2311 61.6051 19.7214 60.6402 19.2175C59.6886 18.721 58.7296 18.2378 57.7647 17.7649C56.7998 17.2921 55.8305 16.8296 54.8611 16.37C54.1193 16.0184 53.2047 15.3726 52.3609 15.7199C51.6945 15.9932 51.7403 16.9966 52.5383 17.0261C54.9734 17.1133 57.0288 18.0147 59.167 19.1096C60.1925 19.6342 61.0229 20.2178 61.911 20.9389C62.1208 21.1931 62.1327 21.1842 61.9465 20.9123C61.7943 21.035 61.6391 21.1517 61.4795 21.2655C61.2756 21.4118 61.0673 21.5507 60.853 21.6822C60.3698 21.9807 59.8659 22.2481 59.3355 22.4535C58.2981 22.8584 57.1899 23.052 56.0787 22.9456C55.1138 22.854 53.7839 22.4742 53.1825 21.6482C52.5427 20.7675 52.8973 19.4834 52.983 18.4905C53.0835 17.3113 52.9047 16.1454 52.4659 15.0475C52.2324 15.3534 51.9989 15.6593 51.7669 15.9652C53.9494 16.138 56.2413 16.2888 58.239 17.2729C59.2424 17.7679 60.1526 18.4402 61.0791 19.0608C61.5431 19.3711 62.0085 19.6815 62.4725 19.9932C62.7045 20.1499 62.935 20.308 63.1641 20.4676C63.2764 20.5459 63.3887 20.639 63.5084 20.7084C63.5704 20.7675 63.6443 20.8059 63.727 20.8252C63.8659 20.8414 63.8659 20.8798 63.7285 20.9419C63.5852 21.2744 62.6676 21.6024 62.3587 21.7576C61.8297 22.0221 61.2963 22.2762 60.7658 22.5363C59.798 23.0106 58.6853 23.779 57.5963 23.9031C55.7714 24.1115 53.382 23.5898 52.0994 22.2053C51.1094 21.1369 51.6192 19.7317 51.8083 18.4535C51.9886 17.2359 51.894 16.0243 51.6206 14.8288C51.4817 14.2821 50.5523 14.3885 50.6055 14.9677Z" fill="#42403F"/>
<path d="M22.4886 13.3896C22.0911 15.1909 22.7427 16.8769 24.2145 17.9792C24.711 18.3516 25.4202 17.7354 25.2459 17.1872C24.8646 15.9888 24.4494 14.7993 24.0372 13.6113C23.8864 13.8758 23.7357 14.1418 23.5865 14.4063C24.7213 14.1329 25.9182 14.0901 27.0826 14.1447C28.1051 14.192 29.1173 14.2954 29.8532 15.0727C30.9082 16.1854 31.4018 17.6778 32.7893 18.4816C32.7405 18.1078 32.6933 17.7354 32.6445 17.3616C32.1377 17.9984 31.1816 19.0712 30.2699 18.8762C29.4542 18.7018 28.7125 17.8847 27.9869 17.4931C27.2126 17.0749 26.3763 16.8961 25.5813 16.5503C24.7982 16.209 25.0966 14.7565 25.0804 14.0398C24.6932 14.2009 24.3061 14.3605 23.9175 14.5215C24.3667 14.9338 24.6149 15.414 24.7878 15.9948C24.8632 16.2474 24.9208 16.5045 24.9769 16.7631C25.008 16.9109 25.039 17.0572 25.0686 17.2049C25.0597 17.5492 25.2474 17.5714 25.6301 17.2729C25.7365 17.4118 25.8443 17.5507 25.9507 17.6911C25.9419 17.6542 25.9315 17.6172 25.9226 17.5788C25.636 17.8655 25.3493 18.1521 25.0627 18.4388C25.868 18.591 28.0963 19.318 27.848 17.7088C27.65 16.4321 26.5388 15.4643 26.5211 14.124C26.196 14.3102 25.8695 14.4979 25.5444 14.6841C26.7294 15.3062 26.8654 16.9508 27.4195 18.0472C27.783 18.7668 28.9518 18.2674 28.7184 17.499C28.5012 16.7883 28.312 16.0701 28.1598 15.3416C28.1214 15.1599 28.0859 14.9781 28.0534 14.7949C28.0726 14.3915 27.8658 14.3812 27.4343 14.7653C27.418 14.8555 27.8229 15.3667 27.8835 15.482C28.4716 16.6095 28.6962 17.9098 28.9326 19.1466C29.0878 19.9578 30.4635 19.7849 30.3881 18.9501C30.261 17.5537 30.1325 16.1588 30.001 14.7639C29.5444 14.888 29.0878 15.0106 28.6327 15.1348C29.4084 16.3642 29.438 17.8669 30.397 19.0151C30.7605 19.451 31.4683 19.1806 31.6116 18.6944C31.8761 17.7916 31.9973 16.8695 31.9722 15.9297C31.4964 15.9948 31.0205 16.0583 30.5447 16.1233C30.7117 16.9567 30.7176 18.2585 31.6678 18.6117C32.4022 18.885 33.2385 18.4225 33.4099 17.666C33.1114 17.8359 32.8144 18.0044 32.5159 18.1743C32.8292 18.2748 33.1026 18.4063 33.3818 18.5792C34.1812 19.0712 34.9112 17.8137 34.1162 17.3246C33.732 17.0882 33.3316 16.9109 32.9031 16.7735C32.5411 16.6582 32.0933 16.9094 32.0091 17.2818C32.2544 17.3571 32.3238 17.2951 32.2174 17.0941C32.1908 16.9582 32.1628 16.8237 32.1362 16.6878C32.0726 16.3716 32.0091 16.0553 31.947 15.7391C31.786 14.9323 30.4975 15.12 30.5196 15.9327C30.5418 16.7498 30.4413 17.5271 30.2108 18.3117C30.6157 18.2053 31.0205 18.0975 31.4254 17.9911C30.5891 16.9892 30.5891 15.5012 29.902 14.3959C29.5444 13.8196 28.4657 14.0014 28.5337 14.7668C28.6563 16.1632 28.7819 17.5581 28.909 18.953C29.3937 18.888 29.8783 18.8215 30.3645 18.7565C30.165 17.7177 29.9611 16.6774 29.5621 15.6933C29.2636 14.956 28.8351 13.864 28.0667 13.5034C27.2954 13.1414 26.5817 13.7443 26.5905 14.5437C26.6024 15.6372 27.025 16.8459 27.3501 17.8788C27.783 17.6955 28.216 17.5138 28.6489 17.3305C27.9456 15.9726 27.7269 14.2925 26.2004 13.5625C25.7571 13.3512 25.24 13.6039 25.2237 14.1226C25.203 14.823 25.373 15.4672 25.6522 16.1071C25.7926 16.4277 25.9537 16.738 26.1059 17.0528C26.1738 17.1931 26.2448 17.3335 26.3054 17.4754C26.3704 17.6276 26.4339 18.0915 26.4901 17.8182C26.5965 17.6808 26.7028 17.5419 26.8092 17.4044C26.7088 17.4606 25.6094 17.1237 25.4365 17.0897C24.9164 16.9877 24.442 17.4059 24.5765 17.9497C24.7065 18.4713 25.2222 18.7654 25.7453 18.6353C26.3733 18.4787 26.5639 17.8536 26.4989 17.2729C26.3512 15.9371 25.865 14.5053 24.8809 13.5581C24.4583 13.1517 23.7195 13.4414 23.718 14.0398C23.7165 15.154 23.4092 16.6937 24.3888 17.4946C24.7302 17.7738 25.1484 17.9127 25.5636 18.0443C26.2389 18.2585 26.8802 18.4979 27.4949 18.8525C28.4494 19.4037 29.3257 20.3361 30.5048 20.3376C31.7446 20.3391 32.9267 19.2811 33.6508 18.3708C33.93 18.0191 33.9389 17.502 33.506 17.2508C32.015 16.3863 31.5939 14.4417 30.1487 13.4798C29.2548 12.8858 28.1229 12.7986 27.0782 12.7572C25.7749 12.7055 24.513 12.9138 23.2378 13.1621C22.8994 13.2271 22.6925 13.6423 22.7871 13.9571C23.1447 15.1614 23.4993 16.3671 23.8879 17.5625C24.2322 17.298 24.575 17.0335 24.9193 16.7705C23.9189 16.0317 23.384 14.7535 23.4786 13.5271C23.5259 12.9567 22.6112 12.8341 22.4886 13.3896Z" fill="#42403F"/>
<path d="M15.8554 14.4034C15.8702 15.2648 15.9086 15.9268 15.0663 16.3908C14.5358 16.6819 13.633 16.9671 13.0922 16.5711C13.2015 16.7144 13.3123 16.8563 13.4217 16.9996C13.4749 17.1636 13.7024 16.8193 13.7808 16.7499C13.9876 16.5667 14.2152 16.4189 14.4516 16.2785C14.8727 16.0288 15.319 15.8249 15.7638 15.621C15.4801 15.2545 15.1978 14.8866 14.9141 14.5201C14.4235 14.9767 13.9994 15.4776 13.6108 16.0244C13.4084 16.3095 13.5399 16.8252 13.8591 16.9715C15.0294 17.5094 16.2987 16.7617 16.4819 15.4776C16.6637 14.1995 14.8018 13.966 14.5861 15.2057C14.5196 15.584 14.8358 16.0598 15.2761 15.8958C15.3219 15.8781 15.6825 15.7924 15.551 15.7466C15.415 15.6416 15.2776 15.5367 15.1417 15.4318C15.1505 15.4436 14.7324 15.8559 14.5595 15.7746C14.6422 16.0908 14.725 16.4071 14.8077 16.7218C15.1313 16.2756 15.4993 15.8825 15.9056 15.5101C16.5366 14.9338 15.7342 14.1064 15.056 14.4093C14.0615 14.8526 13.0006 15.3446 12.3134 16.2253C11.5687 17.1784 12.2071 17.9128 13.2163 18.1108C14.2713 18.3162 15.5037 17.9246 16.2795 17.1814C16.6045 16.8696 16.8794 16.4662 16.9799 16.0229C17.1188 15.4126 16.8528 14.8703 16.7301 14.2852C16.6267 13.7887 15.8465 13.9039 15.8554 14.4034Z" fill="#42403F"/>
<path d="M64.1687 47.8353C64.244 48.71 64.0327 49.5759 63.6914 50.3783C63.5244 50.7728 63.3235 51.1526 63.1092 51.525C62.8979 51.8944 62.6171 52.2786 62.496 52.6864C62.431 52.9036 62.7102 53.0499 62.8654 52.9021C63.0294 52.7455 63.1402 52.5519 63.2614 52.3613C63.3826 52.1692 63.5008 51.9771 63.6101 51.7791C63.8332 51.3713 64.0372 50.9546 64.21 50.5231C64.5499 49.6749 64.7272 48.7499 64.6194 47.8367C64.5883 47.553 64.1436 47.5427 64.1687 47.8353Z" fill="#42403F"/>
<path d="M38.7977 56.6213C39.2291 56.3878 39.6828 56.2253 40.1601 56.1101C40.3847 56.0554 40.6107 56.0125 40.8398 55.9874C41.0895 55.9593 41.3658 55.9844 41.6037 55.9047C41.8091 55.8352 41.7973 55.5722 41.6037 55.4983C41.3555 55.4037 41.0481 55.451 40.7895 55.4806C40.5324 55.5101 40.2753 55.5545 40.0256 55.6209C39.5188 55.7539 39.0267 55.9771 38.5804 56.2504C38.3411 56.3938 38.5524 56.7543 38.7977 56.6213Z" fill="#42403F"/>
<path d="M23.9324 56.3775C23.7182 56.116 23.4729 55.8662 23.1847 55.6874C23.0355 55.5943 22.8789 55.516 22.7163 55.4495C22.641 55.4185 22.5656 55.3904 22.4888 55.3638C22.4341 55.3461 22.3794 55.3239 22.3218 55.3239C22.2715 55.3239 22.2154 55.3402 22.1637 55.3476C22.2065 55.3476 22.2494 55.3476 22.2922 55.3476C22.1105 55.3225 21.9346 55.3062 21.7514 55.3151C21.5578 55.3254 21.5091 55.6032 21.7041 55.6594C21.8593 55.7037 22.0144 55.7525 22.1637 55.8116C22.1282 55.7909 22.0928 55.7702 22.0573 55.7495C22.0972 55.782 22.1341 55.8234 22.1785 55.8485C22.2184 55.8721 22.2642 55.8825 22.307 55.8958C22.3794 55.9194 22.4503 55.9445 22.5198 55.9726C22.6262 56.0155 22.7843 56.0908 22.9069 56.1588C23.17 56.3066 23.4197 56.4588 23.6369 56.6701C23.7182 56.7484 23.8512 56.7499 23.931 56.6701C24.0181 56.5858 24.0034 56.4662 23.9324 56.3775Z" fill="#42403F"/>
<path d="M50.0839 58.8851C50.4164 59.0595 50.7488 59.2353 51.0798 59.4097C51.0237 59.1969 50.969 58.9856 50.9128 58.7728C50.6439 59.2619 50.3971 59.8072 50.5626 60.3746C50.7281 60.9435 51.263 61.2833 51.8482 61.2095C52.1423 61.1725 52.3964 61.0528 52.6284 60.8711C52.8545 60.6923 53.0082 60.4706 53.1884 60.249C53.181 60.2579 53.2461 60.2061 53.2209 60.2135C53.1825 60.2253 53.2668 60.2253 53.2697 60.2253C53.4116 60.246 53.5638 60.2401 53.7071 60.2416C53.9938 60.2446 54.2789 60.2327 54.5641 60.2076C55.2453 60.1455 55.9162 60.0111 56.5649 59.7953C56.4142 59.7555 56.2634 59.7156 56.1127 59.6757C56.1349 59.6934 56.1556 59.7111 56.1733 59.7318C56.1171 59.6683 56.1689 59.7229 56.1703 59.7392C56.1822 59.8545 56.16 59.7008 56.1807 59.7658C56.1895 59.7939 56.1984 59.8219 56.2058 59.85C56.2413 59.9771 56.2679 60.1057 56.3166 60.2298C56.4733 60.6332 56.7806 60.8371 57.2077 60.8726C57.8475 60.9257 58.6306 60.7366 58.8804 60.0761C59.0045 59.7481 58.9055 59.4274 58.9203 59.0935C58.9173 59.1614 58.938 59.0344 58.9232 59.0713C58.9069 59.1068 58.969 59.0166 58.9424 59.0403C58.9084 59.0713 59.0163 58.9974 59.0399 58.9841C59.1847 58.9058 59.3355 58.8393 59.4803 58.758C60.0551 58.4344 60.5782 58 61.0008 57.4946C61.4958 56.9021 61.8696 56.2268 62.0972 55.4865C62.273 54.9132 61.3761 54.6679 61.2003 55.2397C60.9195 56.1574 60.3565 56.9715 59.5867 57.5759C59.4286 57.7 59.2069 57.8434 59.0104 57.9542C58.7784 58.0842 58.5242 58.1758 58.3218 58.3532C58.0854 58.56 57.9849 58.8659 57.9893 59.1733C57.9908 59.2929 58.01 59.4126 58.0174 59.5323C58.0204 59.587 58.0248 59.6431 58.0218 59.6978C58.0204 59.7141 58.0056 59.8131 58.0115 59.7584C58.0056 59.8072 57.9716 59.819 57.9184 59.85C57.8992 59.8618 57.8785 59.8722 57.8593 59.8811C57.8815 59.8707 57.9273 59.8618 57.8416 59.8855C57.7884 59.9003 57.7352 59.915 57.6805 59.9269C57.6569 59.9313 57.6332 59.9357 57.6096 59.9402C57.6317 59.9372 57.682 59.9357 57.5874 59.9416C57.5386 59.9446 57.4899 59.9475 57.4411 59.949C57.3672 59.9505 57.221 59.9475 57.1899 59.9402C57.2077 59.9446 57.2269 59.9874 57.2032 59.949C57.1707 59.8929 57.249 59.9948 57.2032 59.9461C57.1751 59.915 57.1988 59.9475 57.2062 59.9638C57.1973 59.9446 57.1914 59.9239 57.184 59.9032C57.153 59.8042 57.1308 59.7023 57.1027 59.6033C57.0333 59.355 56.9077 59.0802 56.6742 58.9442C56.4792 58.8304 56.2826 58.9102 56.0876 58.9708C55.9339 59.0166 55.7802 59.0595 55.6236 59.0964C55.3414 59.1644 55.0562 59.2205 54.768 59.2545C54.4607 59.29 54.1519 59.3092 53.843 59.3107C53.5431 59.3122 53.2017 59.2442 52.9121 59.3373C52.5693 59.4466 52.423 59.7673 52.1925 60.0111C52.1009 60.1086 52.0078 60.1928 51.8851 60.249C51.8142 60.283 51.7211 60.3007 51.6251 60.2889C51.6783 60.2948 51.5202 60.2431 51.5601 60.2652C51.5615 60.2652 51.5024 60.2209 51.5216 60.2416C51.5453 60.2652 51.4744 60.1766 51.5039 60.2224C51.4418 60.1263 51.4374 60.0909 51.4359 59.9919C51.4315 59.7392 51.5807 59.4806 51.7137 59.2397C51.8305 59.027 51.7743 58.7226 51.5468 58.6029C51.2143 58.4285 50.8818 58.2527 50.5508 58.0783C50.3292 57.9616 50.0455 58.0222 49.914 58.2453C49.7943 58.4581 49.8608 58.7669 50.0839 58.8851Z" fill="#42403F"/>
</svg>
