<svg width="80" height="80" viewBox="0 0 80 80" fill="none" xmlns="http://www.w3.org/2000/svg">
<g clip-path="url(#clip0_111_21998)">
<rect width="80" height="80" fill="white"/>
<path d="M32.3542 3.13233C31.7523 1.91528 33.6238 0.63642 34.4016 1.81887C34.8308 2.85217 34.4584 4.03379 34.4584 5.11983C35.1877 4.1508 35.4056 2.60085 36.6924 2.18637C37.7523 1.88561 38.5647 3.39436 37.592 4.01649C38.2893 4.0684 39.123 4.79517 38.6289 5.51453C37.8173 6.39868 36.5165 5.69498 35.4936 5.84578C38.3337 8.3285 40.9024 11.1062 43.4399 13.8938C45.7554 13.5164 47.9985 16.173 46.8037 18.3253C46.3235 18.8469 47.1968 19.1485 47.4533 19.5333C50.8345 23.135 52.4008 28.1771 52.6607 33.0346C52.6977 37.8501 48.6448 41.5342 44.2983 42.795C44.6519 45.0437 46.0925 47.6113 48.5042 48.0142C53.4945 46.1495 58.095 42.9573 61.4334 38.773C62.7366 37.2552 63.5951 35.299 65.2708 34.1388C66.3315 33.445 67.5189 34.358 67.9752 35.3361C69.0524 37.2329 69.0762 39.5385 68.4637 41.5911C69.1305 41.2244 70.3631 40.6781 70.65 41.7724C71.0768 44.1958 69.665 46.5409 68.0665 48.2532C68.7728 48.1164 69.9306 48.3273 69.6905 49.3021C69.0705 51.8145 66.9252 53.6586 64.6558 54.7109C65.4164 55.0166 65.3185 55.9708 64.9033 56.5253C63.9807 58.0234 62.2737 58.8919 60.5502 59.0254C60.3036 59.5956 59.7239 59.8634 59.3193 60.2729C58.8095 62.4565 57.8623 64.5998 56.249 66.1926C53.9171 68.5369 50.7193 69.8322 47.4944 70.3332C48.6966 70.367 49.902 70.4362 51.105 70.4115C52.5094 69.3329 54.7887 69.9105 55.8256 71.2462C56.1059 71.2915 56.3913 71.2783 56.6758 71.2816C57.6107 69.3024 58.5645 67.3099 58.9658 65.1411C60.2156 65.5021 59.6244 67.3866 59.5742 68.3869C61.0485 66.0747 63.0302 63.92 65.6524 62.9468C65.9541 62.7688 66.6021 62.9122 66.2732 63.3473C64.4486 65.2985 62.7925 67.4541 61.7302 69.9245C63.4528 68.8879 65.7116 67.9238 67.6809 68.6844C67.6973 68.9892 67.3997 69.1071 67.1563 69.1796C65.2897 69.7086 63.6452 70.9067 62.4472 72.4221C63.8689 72.8876 65.5636 73.1991 66.4837 74.5002C66.9589 75.4775 65.867 76.2051 65.1146 76.5726C63.0483 77.5844 60.7624 78.0121 58.5226 78.4521C50.8566 79.8546 43.037 80.1001 35.2617 79.9691C28.7873 79.8249 22.2815 79.3552 15.9502 77.9198C14.3402 77.4682 12.5452 77.1354 11.306 75.9265C10.7502 75.4511 10.8744 74.5884 11.4171 74.1607C12.6463 73.1068 14.253 72.6478 15.7939 72.2647C14.2588 70.2978 11.82 69.2603 9.4609 68.6489C9.01442 68.405 9.45515 67.8752 9.82352 67.8521C11.801 67.4228 13.8279 68.1051 15.5867 68.9876C14.4117 67.1047 13.1002 65.2499 11.283 63.9307C10.8892 63.5813 10.2486 63.2987 10.2371 62.7013C10.793 62.2547 11.5207 62.5768 12.1045 62.787C14.6419 63.7239 16.5981 65.7493 18.0765 67.9576C18.3413 68.4166 18.7047 68.8821 18.6505 69.4457C16.6524 66.7282 14.3624 63.5203 10.7683 62.9485C13.2022 64.8066 15.4527 67.2003 16.557 70.0761C14.5721 68.8978 12.2303 67.7293 9.86463 68.2584C12.2632 68.9415 14.6699 70.0662 16.2618 72.0653C18.1045 71.748 19.943 71.3879 21.7981 71.1391C21.6714 68.0589 20.4668 65.1181 19.4201 62.3247C18.7919 61.6416 18.0412 60.9832 17.1367 60.7228C18.5929 63.5434 20.2942 66.5255 20.401 69.7547C19.3979 66.7603 18.4087 63.681 16.7288 60.9577C16.3769 60.1864 17.5001 60.1881 17.9047 60.53C20.2719 61.9663 21.8523 64.5058 22.6433 67.113C23.043 66.1942 23.1005 64.7341 24.2237 64.421C24.472 66.1192 23.8866 67.9807 24.1941 69.7556C25.1233 69.1343 26.4052 69.0033 27.3393 69.6781C28.3778 69.5265 29.5034 69.8404 30.204 70.6488C30.8355 70.4032 31.8337 70.8169 32.1388 70.0267C32.3805 69.5866 32.6346 69.1475 32.7785 68.6654C29.5429 66.6474 27.0967 63.3844 26.4126 59.5898C25.2548 59.3912 23.8899 58.9479 23.5273 57.6847C22.1508 57.379 19.8024 56.6053 20.147 54.8436C18.7121 54.2148 17.1605 53.2714 16.6746 51.6868C16.5151 50.7911 17.5971 50.7392 18.213 50.773C16.9393 49.8311 15.7668 48.6849 15.1271 47.2059C14.8788 46.6192 14.503 45.8726 14.924 45.2777C15.3252 44.8377 15.9839 45.0338 16.483 45.1607C15.7109 43.7582 14.8656 42.0575 15.4626 40.4449C15.9526 39.5344 17.0742 40.1112 17.6818 40.5702C19.4941 41.877 21.0021 43.5547 22.7963 44.8846C24.9901 46.5788 27.5966 47.7398 30.3282 48.2037C31.4505 46.7411 32.3032 44.9786 32.4685 43.1237C28.3646 42.1934 24.5477 39.0111 24.0502 34.639C23.6309 30.0147 24.5682 25.0953 27.2546 21.2448C25.6997 20.0936 26.0343 17.5483 27.5695 16.5348C27.9428 16.1936 28.6253 16.2546 28.7889 15.7042C30.1933 12.6422 31.5665 9.55957 33.1403 6.58079C32.383 7.08426 32.2054 8.13321 31.4686 8.63668C30.6044 8.80807 30.2961 7.5218 30.9687 7.07684C29.316 7.13617 29.4196 4.67981 31.0402 4.81907C29.5585 4.13432 31.259 1.98614 32.3542 3.13233ZM32.6584 2.67501C32.8147 3.63662 33.5457 4.3741 33.9889 5.21706C34.2166 4.2711 34.312 3.24687 34.1402 2.28278C33.9938 1.37802 32.4948 1.86913 32.6584 2.67501ZM36.6349 2.64946C35.8011 3.15623 35.4689 4.16316 34.9114 4.92372C35.7271 4.52243 36.5839 4.1747 37.3552 3.69842C37.976 3.23203 37.2984 2.30091 36.6349 2.64946ZM30.9851 4.28017C31.763 4.84049 32.7423 4.98716 33.604 5.37774C33.0729 4.62543 32.7283 3.54021 31.7507 3.27488C31.1989 3.08289 30.6538 3.81461 30.9851 4.28017ZM35.2296 5.31429C36.0659 5.34231 36.889 5.58869 37.7219 5.56974C38.2276 5.56891 38.5787 4.87098 38.0582 4.59411C37.0822 4.08488 36.0618 4.8372 35.2296 5.31429ZM30.5148 5.31841C29.8225 5.6233 30.1473 6.69038 30.8774 6.6566C31.8206 6.58408 32.7004 6.12099 33.5744 5.77574C32.5935 5.51947 31.5303 4.92042 30.5148 5.31841ZM33.8499 6.31299C33.3483 7.42539 32.6708 8.4521 32.2366 9.595C33.9987 9.74661 35.8907 9.44338 37.3256 8.34745C36.5411 7.41386 35.6071 6.60304 34.6927 5.79634C34.2923 5.52606 33.9872 5.98586 33.8499 6.31299ZM31.1882 8.25352C31.8428 7.81927 32.3476 7.17242 32.8212 6.55195C32.138 6.7802 30.5724 7.32074 31.1882 8.25352ZM32.1314 9.80594C31.7424 10.5756 31.3683 11.3518 31.0197 12.1403C33.8195 12.7081 37.2047 12.4032 39.3171 10.3028C38.7497 9.65597 38.161 9.02314 37.527 8.44139C36.0494 9.70624 34.0012 9.92377 32.1314 9.80594ZM30.9753 12.3422C30.6184 13.0039 30.292 13.6854 30.019 14.3858C33.7751 15.4701 38.3164 15.0829 41.3571 12.4469C40.719 11.7926 40.1665 11.0518 39.4536 10.4734C37.2721 12.5812 33.8392 12.9264 30.9753 12.3422ZM29.954 14.6008C29.6621 15.1513 29.4072 15.7223 29.1992 16.309C32.4989 17.7502 36.3216 17.3209 39.6912 16.3386C40.8391 15.8665 42.2427 15.4784 42.9235 14.3676C42.6111 13.7002 42.0149 13.153 41.4895 12.6306C38.3682 15.2905 33.7899 15.6251 29.954 14.6008ZM43.7589 14.5127C42.047 16.4837 39.3311 17.1313 36.8569 17.5664C34.1254 17.915 31.1249 18.0188 28.6302 16.6847C27.0811 17.1379 26.2489 19.4682 27.5522 20.5955C28.7124 21.3577 30.1637 21.4846 31.5114 21.6419C35.9261 21.9015 40.5875 21.4862 44.5623 19.4056C45.3779 18.9376 46.3301 18.3369 46.451 17.311C46.6368 15.8129 45.2299 14.4286 43.7589 14.5127ZM39.4429 21.7664C35.6424 22.4775 31.6495 22.6481 27.9 21.5736C26.2769 23.5058 25.5089 26.0001 24.9934 28.4334C24.5263 30.9458 24.2147 33.6147 25.0542 36.0834C25.934 38.9287 28.3654 41.0563 31.1216 42.0187C33.6131 42.8675 36.306 43.2127 38.9249 43.0207C36.7212 42.5296 35.4369 40.5809 33.9124 39.1133C33.0523 38.4063 31.925 37.93 31.4061 36.8827C31.2006 36.4147 31.8132 36.1897 32.1774 36.2046C33.6213 36.3109 34.5653 35.0287 35.4623 34.0992C36.5502 32.6712 38.531 31.9494 40.2545 32.5435C42.0938 33.0083 43.0197 35.2182 45.0046 35.3064C45.4758 35.3608 46.423 34.7107 46.4781 35.5058C46.1163 36.9725 44.67 37.7661 43.7869 38.8949C42.8544 40.3749 42.1572 42.3006 40.3375 42.8905C45.1337 42.5502 50.5705 39.9579 51.771 34.8853C52.4781 31.0125 51.1749 27.0408 49.5246 23.5668C48.6842 21.9114 47.5898 20.3277 46.0678 19.2342C44.0714 20.5435 41.7822 21.342 39.4429 21.7664ZM36.0716 34.0613C35.0191 35.2397 33.817 36.6635 32.1454 36.7773C31.962 37.3351 32.6905 37.7183 33.0696 38.019C34.8695 38.9419 35.7871 40.9072 37.5007 41.9471C38.429 42.5156 39.6945 42.8345 40.6771 42.2149C41.9278 41.5285 42.5477 40.1656 43.2138 38.9724C43.8494 37.7109 45.4783 37.1365 45.859 35.7357C45.3031 35.7143 44.8665 36.0414 44.7226 36.5762C44.4784 37.3384 43.6134 37.4356 43.0362 37.8254C42.852 37.7257 42.6563 37.6491 42.4573 37.5897C42.3825 37.71 42.3085 37.8303 42.2345 37.9515C41.4056 37.5436 40.4872 37.2156 39.5514 37.317C38.9405 37.6927 39.2423 38.4665 39.137 39.0474C38.7604 38.553 38.7678 37.6482 38.0475 37.5049C37.1841 37.6326 36.4384 38.15 35.6136 38.4178C36.5107 39.7882 37.8773 41.2533 39.6073 41.3447C41.0233 40.9929 41.6909 39.4742 42.2994 38.2827C42.3923 38.0256 42.6834 38.0306 42.9112 38.033C42.204 39.6695 41.1433 42.0014 39.0096 41.7666C37.4423 41.2294 35.8406 40.0865 35.3135 38.45C34.2676 38.5027 33.0893 37.6853 32.7333 36.741C33.4552 37.2642 34.1977 38.1591 35.1935 37.8954C36.4474 37.462 37.5854 36.685 38.9191 36.4864C40.3589 36.2103 41.7296 36.8662 43.0987 37.1851C43.962 37.378 44.4282 36.4921 44.7876 35.8717C43.5402 35.4407 42.5017 34.6002 41.5429 33.7161C39.993 32.3606 37.4374 32.5237 36.0716 34.0613ZM64.4469 35.6764C62.6108 38.0372 60.8545 40.4927 58.5612 42.4423C56.6042 44.2864 54.2172 45.5636 51.9963 47.0411C54.5478 46.3547 56.5072 44.452 58.8753 43.4014C60.3883 42.9952 60.491 44.9522 60.0166 45.9023C60.5692 45.5265 61.5238 45.3329 61.8856 46.058C62.2967 47.0699 61.6233 48.1073 60.9893 48.8613C61.6973 48.8465 62.3362 49.4233 62.0805 50.1673C61.6332 51.6283 60.4294 52.7135 59.1467 53.4634C59.4895 53.6422 59.9179 53.9306 59.7798 54.3871C59.6532 55.8126 58.3441 56.6869 57.1255 57.1607C57.91 57.8009 57.3985 58.9735 56.693 59.4547C55.3067 60.4237 53.4583 60.3496 51.8952 59.9021C51.6658 60.8077 50.6371 60.9346 49.8617 60.7756C46.118 60.1765 42.9317 56.9613 42.4935 53.1651C42.4433 52.2356 42.5206 51.2328 43.0419 50.4351C42.1004 55.0215 45.859 59.823 50.4644 60.2202C50.7629 60.2424 51.077 60.1913 51.2999 59.9746C50.8731 59.3492 50.0928 59.1152 49.5846 58.5681C51.7463 59.4868 54.5313 60.329 56.6273 58.8499C57.4783 58.1058 56.6059 57.1944 55.7195 57.1879C56.9948 56.5814 58.7849 56.218 59.3062 54.6697C59.4575 53.7724 58.3162 53.732 57.7036 53.7262C59.1878 52.7127 61.2895 51.887 61.6488 49.8822C61.4144 48.9264 60.2542 49.5699 59.6523 49.7693C60.5091 48.8028 61.7433 47.7596 61.5287 46.3201C60.5354 45.5348 59.4583 46.8557 58.7955 47.5412C59.2207 46.5359 59.8373 45.5406 59.7979 44.4108C59.7929 44.0227 59.4221 43.6832 59.0357 43.8604C57.7307 44.3564 56.6692 45.3074 55.4588 45.9814C52.5061 47.6162 49.1324 49.1167 45.7307 48.9083C46.2331 48.7303 46.7766 48.7105 47.2749 48.5144C45.3705 47.2586 44.0895 45.2439 43.6241 43.0207C40.1977 43.8241 36.6308 43.9898 33.1732 43.2704C32.7481 46.2368 30.7426 48.5515 29.2041 50.9996C28.1278 52.7473 27.3713 54.7018 27.0844 56.7396C26.688 59.6426 27.7142 62.6131 29.4862 64.8981C32.8862 69.0667 38.5343 71.191 43.8403 70.4074C44.0944 69.8413 44.2441 69.0098 43.7597 68.5072C43.5904 68.2369 43.268 67.684 43.6709 67.4953C43.7976 67.8043 43.9193 68.1183 44.1117 68.3951C45.1008 67.0133 46.7034 68.204 47.8579 68.6267C47.7403 68.9703 47.5964 69.3048 47.4147 69.6213C52.4453 69.1128 57.5901 65.7855 58.5678 60.5383C57.4865 60.8052 56.3715 60.9997 55.2549 60.8728C56.7761 60.2878 58.5999 60.2045 59.8275 58.985C59.2955 58.7403 58.4592 58.9323 58.1641 58.3283C60.2731 58.5878 62.8065 58.3958 64.1928 56.5567C64.5423 56.1587 64.8737 55.16 64.0662 55.1048C62.7095 55.1591 61.384 55.7483 60.0034 55.5769C59.9755 55.183 60.5248 55.286 60.7854 55.1855C63.859 54.8065 66.9343 53.2499 68.5508 50.5208C68.8131 50.024 69.1889 49.4175 68.9373 48.8522C66.6662 48.7591 65.0538 50.7136 62.9907 51.3448C64.6278 50.2044 66.4952 49.2922 67.7828 47.7102C69.0902 46.1684 70.2019 44.2427 70.0835 42.1555C70.0301 41.5548 69.3501 41.69 69.0162 41.9677C67.0535 43.3446 65.6589 45.3947 63.6707 46.7403C64.7487 45.5933 66.0109 44.602 66.9178 43.2993C68.5516 40.833 68.8477 37.2057 66.8348 34.8705C66.0002 34.0201 64.9863 34.9842 64.4469 35.6764ZM15.9148 41.0983C15.7545 43.553 17.3595 45.6081 18.8914 47.3418C17.834 46.8161 16.9846 45.7927 15.7726 45.6353C15.1452 45.6015 15.4075 46.4107 15.581 46.7469C16.6063 48.9668 18.6118 50.7054 20.9298 51.4487C20.5244 50.7128 19.8954 49.6696 20.5869 48.9165C21.706 48.2342 23.2691 48.9626 24.0856 49.8443C23.0767 49.5518 21.6821 48.4864 20.7834 49.4463C20.7193 50.731 21.7652 51.7989 22.719 52.5429C21.3886 52.0139 20.0532 51.6959 18.6702 51.2608C18.2196 51.297 17.1507 51.1644 17.3628 51.9093C18.2517 53.4518 20.0129 54.2124 21.6797 54.5832C21.3721 54.0896 21.0556 53.2763 21.8359 53.0571C22.668 52.9937 23.3291 53.7476 23.9828 54.1876C23.2518 54.2346 22.5438 53.1997 21.914 53.6759C22.1895 55.1147 23.7994 55.5893 24.9268 56.2098C23.3595 56.3803 22.2519 54.5008 20.7061 55.2696C21.1879 56.7116 23.0939 56.9786 24.4235 57.1813C24.3347 57.2851 24.2451 57.3881 24.1547 57.4936C24.3273 58.5236 25.5582 58.7749 26.415 58.9702C26.1281 55.2457 27.8038 51.7305 29.9417 48.7945C26.5219 48.0661 23.4048 46.3003 20.8056 43.9848C19.4686 42.893 18.2854 41.5771 16.7593 40.7407C16.4394 40.5042 15.9016 40.6501 15.9148 41.0983ZM20.0993 63.2072C21.3088 65.6141 22.1689 68.3795 22.0382 71.0723C22.4666 71.0641 22.8917 71.0146 23.3151 70.9512C23.4352 70.5351 23.843 70.1956 23.7304 69.7325C23.5306 68.1727 23.7583 66.6128 23.8965 65.0612C23.1918 66.4027 22.7807 67.9164 22.978 69.4309C22.1525 67.3783 21.7323 64.908 20.0993 63.2072ZM59.7305 68.9406C59.4048 69.3518 59.4032 70.0481 58.8786 70.2648C59.0603 68.8871 59.5027 67.4228 59.1837 66.0591C58.8013 67.9543 57.9157 69.6987 57.0425 71.4036C58.6796 71.6903 60.3702 71.9499 61.976 72.2564C63.1913 70.6859 64.8556 69.4738 66.7493 68.8566C64.5489 68.7264 62.4834 69.8717 60.7649 71.0575C61.7466 68.2196 63.5128 65.6875 65.552 63.4915C63.0146 64.4976 61.1579 66.687 59.7305 68.9406ZM44.4225 69.089C44.4513 70.4626 44.1034 72.366 42.5313 72.7269C40.7906 73.2815 39.1214 74.047 37.555 74.988C39.1995 74.7367 40.7445 73.8682 42.3989 73.7767C40.3252 74.8059 37.7992 74.8603 35.8644 76.1713C37.9538 76.5231 40.0949 76.0551 42.0585 75.3341C42.0947 76.2899 41.108 77.0653 41.4064 78.0937C42.9876 77.8555 44.0516 76.4687 44.994 75.2921C45.5934 75.0902 45.9149 76.0946 46.5595 75.9241C46.7906 74.6708 45.5153 73.7602 45.7069 72.5176C45.8771 71.5511 46.1994 70.5862 46.7602 69.7753C48.1152 68.4388 44.3041 67.3083 44.4225 69.089ZM31.4144 71.4588C29.2206 73.0961 26.3706 73.3828 24.0593 74.7869C26.147 75.0968 28.1459 74.3008 30.1662 73.9596C30.0519 74.9081 28.9887 75.6101 29.0676 76.669C30.8503 76.6269 32.4003 75.3629 33.3171 73.902C33.9058 72.7459 35.3489 73.6927 36.3405 73.3911C35.8726 72.577 34.8128 72.3817 34.1328 71.776C34.0785 71.0254 34.608 70.4304 34.8407 69.758C34.2873 69.4886 33.734 69.2191 33.2011 68.911C32.7045 69.8182 32.3016 70.8556 31.4144 71.4588ZM23.7411 70.8441C23.695 71.2594 24.102 71.4992 24.3684 71.7488C23.8981 71.8518 23.6375 71.2684 23.163 71.4349C19.8288 71.9293 16.4402 72.3512 13.268 73.5443C12.5246 73.8888 11.6563 74.2802 11.3357 75.0951C12.1546 76.7711 14.3632 76.9607 15.965 77.4897C22.284 78.9638 28.7938 79.3874 35.2609 79.5571C44.2737 79.6947 53.4106 79.3857 62.1972 77.1963C63.5252 76.8016 65.0036 76.4671 65.9854 75.4214C66.5133 74.5249 65.2963 73.958 64.6418 73.649C61.7524 72.4838 58.6056 72.0183 55.532 71.7093C55.2672 70.5647 54.0018 70.3423 53.0151 70.1989C52.4379 70.1206 51.6674 70.1626 51.4158 70.7955C52.0711 71.4538 53.1409 70.9141 53.7979 71.4687C52.9329 71.5709 51.9059 71.6533 51.2949 70.9001C49.7803 70.8325 48.2526 70.8729 46.7314 70.8367C46.3351 71.7093 45.9083 72.7821 46.3951 73.7026C46.7569 74.4854 47.4517 75.4791 46.8498 76.3105C46.2783 76.7266 45.6608 76.1004 45.151 75.8565C44.1207 77.0579 42.972 78.5617 41.2897 78.7125C40.5423 78.0368 41.0529 76.8453 41.4237 76.0633C39.771 76.6607 37.9669 76.8214 36.2213 76.7102C35.7238 76.7234 34.5718 76.2883 35.2362 75.7098C37.3938 74.5925 39.4865 73.3079 41.8061 72.5341C42.565 72.263 43.5484 71.9861 43.7367 71.074C40.9188 71.4069 38.0056 71.0493 35.3653 70.0003C35.0019 70.4527 34.6187 70.9446 34.5743 71.5486C35.2987 72.202 36.9301 72.511 36.7689 73.7001C35.9639 74.0297 34.9558 73.7998 34.0785 73.7792C32.8064 75.4486 31.1249 77.4015 28.7955 77.1757C28.1229 76.3138 29.0964 75.3456 29.4442 74.5504C27.4667 74.9789 25.0147 75.9735 23.2033 74.7787C23.4171 74.3173 23.9302 74.1426 24.3553 73.9333C26.3871 73.134 28.5611 72.6511 30.4836 71.5947C29.7345 70.676 28.6746 69.3757 27.3434 70.1437C26.2999 69.0024 24.3372 69.4902 23.7411 70.8441ZM30.3454 71.0699C30.403 71.238 30.4663 71.4044 30.5296 71.5717C30.8413 71.411 31.1323 71.2132 31.4029 70.9891C31.0493 71.0064 30.6982 71.0394 30.3454 71.0699Z" fill="black"/>
<path d="M16.7805 20.331C18.4497 19.6924 19.9807 21.9543 18.758 23.2603C17.893 24.2615 16.1177 23.8816 15.6211 22.6893C15.1771 21.754 15.802 20.5815 16.7805 20.331ZM16.8808 20.7397C15.9426 20.9424 15.5734 22.2278 16.2559 22.9002C16.9079 23.7201 18.4562 23.5528 18.7111 22.4643C19.0631 21.4137 17.8971 20.3368 16.8808 20.7397Z" fill="black"/>
<path d="M44.4469 23.5741C45.9048 23.0319 47.2829 24.6692 47.5501 25.9819C46.7542 25.3556 45.8513 24.8456 44.8276 24.7376C44.2512 24.731 43.8146 23.8567 44.4469 23.5741Z" fill="black"/>
<path d="M28.2849 27.4973C28.3655 26.1509 29.4854 24.4724 30.9721 24.4831C31.7351 24.4889 31.6109 25.6079 30.9482 25.7125C29.8743 26.0058 29.0833 26.7804 28.2849 27.4973Z" fill="black"/>
<path d="M59.6028 25.7957C60.9455 25.4521 62.2505 26.9032 61.6963 28.2002C61.1536 29.6133 58.9417 29.6586 58.3077 28.2916C57.7379 27.2962 58.5232 25.9679 59.6028 25.7957ZM59.602 26.2217C58.7567 26.4071 58.1992 27.5253 58.7748 28.2521C59.3413 29.1832 60.9406 29.0654 61.3065 28.0205C61.7497 27.0037 60.6265 25.9028 59.602 26.2217Z" fill="black"/>
<path d="M44.8246 27.0689C47.8357 26.7566 48.8363 31.6224 46.4987 33.1418C45.2365 34.082 43.1981 33.1921 42.9679 31.6438C42.5781 30.0032 43.0633 27.6902 44.8246 27.0689ZM43.865 28.094C44.5861 27.8608 45.4824 27.8657 46.0193 28.4805C47.4295 29.859 47.006 32.6928 44.9356 33.1484C47.5931 33.4533 48.13 29.6959 46.5439 28.169C45.9132 27.2964 44.5326 27.2304 43.865 28.094ZM45.2595 28.4739C44.4652 28.6766 44.8607 29.9966 45.6427 29.8203C46.8646 30.1128 46.155 28.1204 45.2595 28.4739Z" fill="black"/>
<path d="M31.2351 28.1581C33.3862 28.1399 34.3589 30.7924 33.9724 32.6085C33.6633 34.2961 31.2935 35.0855 30.0996 33.8124C28.2857 32.3011 28.6458 28.5272 31.2351 28.1581ZM30.5946 28.7917C29.0241 29.7863 28.9295 32.3053 30.2714 33.533C30.9103 34.1889 31.9809 34.2318 32.767 33.828C30.5074 34.3785 29.1088 31.1821 30.5428 29.6009C31.0148 28.9161 31.8905 28.9095 32.6264 29.0472C32.0599 28.6088 31.2343 28.35 30.5946 28.7917ZM31.5706 29.7953C31.1422 30.7792 32.9471 31.1583 32.9709 30.1563C33.0548 29.352 31.9678 29.2466 31.5706 29.7953Z" fill="black"/>
<path d="M40.2915 33.9723C40.4362 33.9698 40.5818 33.9682 40.7273 33.9666C40.8482 34.1783 40.914 34.4132 40.9279 34.6562C40.576 34.6266 40.3367 34.3036 40.2915 33.9723Z" fill="black"/>
<path d="M36.5906 34.9874C36.5857 34.5746 36.8949 33.8602 37.3751 34.3084C37.1876 34.6076 36.9549 34.9067 36.5906 34.9874Z" fill="black"/>
<path d="M22.5552 47.1227C23.5156 47.6583 24.4299 48.3241 25.3056 48.9948C24.286 48.5902 23.2582 47.9805 22.5552 47.1227Z" fill="black"/>
<path d="M24.4719 71.7398C25.5787 72.1839 26.0622 70.6365 27.0349 70.9809C26.4289 71.6557 25.3287 72.4905 24.4719 71.7398Z" fill="black"/>
<path d="M52.2166 73.7561C52.8868 73.7132 53.6663 73.6646 54.2147 74.1244C54.482 74.4713 54.1473 74.9303 53.7502 74.9443C52.9361 75.0646 51.9782 75.0968 51.2834 74.5933C51.0466 74.014 51.7833 73.7882 52.2166 73.7561ZM51.5251 74.3444C52.2758 74.7029 53.2395 74.8026 54.0067 74.4549C53.3382 73.8879 52.2545 73.9151 51.5251 74.3444Z" fill="black"/>
<path d="M15.8153 74.2991C16.5833 74.1631 18.2541 74.0288 18.1966 75.161C17.3949 75.8251 16.1335 75.7155 15.2216 75.3357C14.6181 74.9517 15.331 74.3147 15.8153 74.2991ZM15.3483 74.9731C16.0644 75.395 17.4171 75.5367 17.9104 74.791C17.1597 74.4556 15.8729 74.2389 15.3483 74.9731Z" fill="black"/>
</g>
<defs>
<clipPath id="clip0_111_21998">
<rect width="80" height="80" fill="white"/>
</clipPath>
</defs>
</svg>
