<svg width="80" height="80" viewBox="0 0 80 80" fill="none" xmlns="http://www.w3.org/2000/svg">
<rect width="80" height="80" fill="white"/>
<path d="M51.2583 35.6944C51.4746 35.5255 51.782 35.8272 51.5638 35.9999C49.8996 37.3206 49.2734 39.1707 49.3417 41.241C49.3436 41.2884 49.2734 41.296 49.2601 41.2524C48.6681 39.1954 49.6225 36.9771 51.2583 35.6944Z" fill="#1D1D1B"/>
<path d="M54.619 39.0076C54.6816 38.4801 54.8581 37.0094 55.507 36.833C55.638 36.7969 55.7746 36.8994 55.7746 37.036C55.7746 37.0626 55.7746 37.0891 55.7746 37.1176C55.7746 37.2163 55.6873 37.315 55.5848 37.3074C55.581 37.3074 55.5772 37.3074 55.5734 37.3074C55.5621 37.3909 55.5146 37.4744 55.4292 37.5597C55.2964 37.8425 55.1901 38.1366 55.1085 38.4364C54.9966 38.8444 54.9321 39.2657 54.9112 39.6888C54.8713 40.5617 55.0307 41.4118 55.3135 42.2354C55.3268 42.2714 55.2698 42.2961 55.2509 42.262C54.7062 41.2524 54.4842 40.1518 54.619 39.0076Z" fill="#1D1D1B"/>
<path d="M59.8316 36.4325C59.8885 36.2807 60.1352 36.2902 60.1295 36.4724C60.1105 37.1176 60.0119 37.6811 60.1883 38.3206C60.3762 39.0019 60.7557 39.5598 61.2282 40.0778C61.2681 40.1195 61.2149 40.2011 61.1637 40.1632C60.1314 39.3947 59.361 37.7077 59.8316 36.4325Z" fill="#1D1D1B"/>
<path d="M63.5527 33.5368C63.5869 33.4704 63.6799 33.4799 63.7178 33.5368C63.8241 33.7019 63.8146 33.8689 63.8583 34.0567C63.9171 34.3205 64.0177 34.5729 64.1562 34.8044C64.4313 35.2655 64.826 35.6014 65.2966 35.8481C65.3573 35.8803 65.3156 35.979 65.2492 35.96C64.7198 35.7949 64.27 35.4553 63.9512 35.0017C63.697 34.6412 63.3288 33.9657 63.5527 33.5368Z" fill="#1D1D1B"/>
<path d="M65.6287 30.3261C65.8564 30.4665 65.9968 30.6999 66.2473 30.8271C66.5282 30.9694 66.8413 31.0263 67.1544 31.0054C67.236 30.9998 67.2549 31.1307 67.1733 31.1478C66.8451 31.218 66.5263 31.1952 66.2151 31.0605C65.9532 30.9485 65.5718 30.7132 65.511 30.4153C65.4997 30.3508 65.5661 30.2863 65.6287 30.3261Z" fill="#1D1D1B"/>
<path d="M45.7782 45.7117C45.9338 45.4973 46.2924 45.7079 46.1349 45.9205C45.6966 46.5068 45.9053 47.2488 46.4518 47.6738C46.5372 47.7402 46.4442 47.8977 46.3436 47.8579C45.5106 47.541 45.2791 46.4062 45.7782 45.7117Z" fill="#1D1D1B"/>
<path d="M15.7737 51.9776C17.2291 53.1256 18.9901 53.8106 20.3222 55.1257C21.7966 56.583 22.7549 58.4559 24.0054 60.0916C24.9124 61.2776 26.2104 62.7995 27.8044 62.9855C29.5843 63.1923 30.9904 61.697 31.9715 60.4161C34.3036 57.38 35.6053 53.4064 35.2448 49.5714C35.2391 49.505 35.1822 49.4747 35.1309 49.4822C35.1594 49.4291 35.1537 49.357 35.0892 49.3115C31.609 46.837 29.5558 42.5864 28.0624 38.6983C27.9941 38.518 27.774 38.5199 27.6753 38.6224C27.6393 38.5787 27.588 38.5484 27.514 38.5484C23.1951 38.5028 18.7681 40.2315 15.8761 43.503C13.6313 46.0457 12.8248 49.653 15.7737 51.9776ZM17.7092 42.3644C20.4664 40.112 23.9693 38.9488 27.5159 38.9867C27.5899 38.9867 27.6431 38.9563 27.6791 38.9127C29.1384 42.7003 31.2352 47.4936 34.962 49.5316C34.9981 49.5506 35.0304 49.5525 35.0607 49.5449C35.0588 49.5544 35.055 49.5619 35.055 49.5733C35.0171 53.6854 33.8595 57.7728 31.0587 60.8848C30.3281 61.697 29.3338 62.5623 28.1763 62.5775C27.089 62.5908 26.1383 61.7976 25.4134 61.0708C24.254 59.9114 23.4152 58.4844 22.493 57.1428C21.715 56.0099 20.8687 54.9169 19.7719 54.0725C18.5631 53.1408 17.1304 52.5374 15.9482 51.5677C12.5269 48.7612 14.9767 44.5998 17.7092 42.3644Z" fill="#1D1D1B"/>
<path d="M49.2619 29.2786C49.9621 27.8478 51.742 28.3203 52.7212 29.1401C52.9375 29.3204 52.6263 29.6297 52.4119 29.4494C51.5523 28.7264 49.9128 28.3412 49.5143 29.7701C49.1955 30.9105 50.0228 31.6392 50.8255 32.2616C50.8464 32.2787 50.8236 32.311 50.8008 32.3053C49.5617 31.9675 48.668 30.4969 49.2619 29.2786Z" fill="#1D1D1B"/>
<path d="M38.5369 41.7116C39.8671 40.5901 41.7703 41.4079 42.8994 42.4023C42.9696 42.463 42.8804 42.5655 42.8045 42.5256C41.6546 41.9222 40.1915 41 38.9467 41.9431C37.5919 42.9678 38.2124 44.5579 38.886 45.7629C38.9847 45.9413 38.7361 46.1538 38.5938 45.9887C37.5975 44.8274 37.237 42.8084 38.5369 41.7116Z" fill="#1D1D1B"/>
<path d="M32.8308 38.5199C32.9542 38.4269 33.0813 38.5787 33.0624 38.6982C33.0035 39.0607 32.7891 39.3738 32.7436 39.7514C32.6961 40.1499 32.736 40.5655 32.8498 40.9507C32.8726 41.0304 32.7625 41.0702 32.7189 41.0057C32.29 40.351 32.1041 39.0607 32.8308 38.5199Z" fill="#1D1D1B"/>
<path d="M43.9564 24.9465C44.7287 24.3127 45.8217 24.1229 46.7269 24.5897C46.8085 24.6315 46.7516 24.7624 46.6643 24.7377C45.7838 24.4778 44.9185 24.5935 44.205 25.1969C44.0342 25.3412 43.7818 25.0888 43.9564 24.9465Z" fill="#1D1D1B"/>
<path d="M11.9973 51.4386C13.2706 53.0591 15.0809 54.1104 16.8134 55.1654C19.0241 56.5108 20.749 57.9093 22.2367 60.0555C23.3904 61.7197 24.6182 63.5603 26.6315 64.2435C26.8213 64.308 27.011 64.3535 27.2027 64.3896C26.9332 65.3972 26.9181 66.4504 27.0945 67.494C24.9901 67.6686 23.0527 67.2132 21.434 65.7502C21.4113 65.7293 21.3847 65.7198 21.36 65.716C21.417 65.5661 21.4397 65.4124 21.4264 65.2606C21.6845 64.6382 21.2424 63.7482 20.7642 63.3497C19.6693 62.4351 17.3732 63.0025 17.0089 61.2813C16.9804 61.1428 16.747 61.1371 16.7223 61.2813C16.4756 62.7823 16.3808 64.5926 17.4795 65.809C18.3315 66.7521 19.7452 67.1525 20.8553 66.4352C20.8686 66.4257 20.878 66.4143 20.8875 66.4029C22.546 68.0614 25.0186 69.1392 27.3849 68.7218C28.161 71.2342 29.939 73.5758 31.8537 74.98C33.626 76.2817 35.9012 77.1983 38.129 76.8188C39.6452 76.5607 41.1689 75.6252 41.8501 74.221C41.8748 74.2551 41.8976 74.2931 41.9223 74.3272C42.5997 75.2457 43.484 75.9516 44.4707 76.407C44.5106 76.4715 44.596 76.5057 44.6794 76.5C46.3968 77.2211 48.3911 77.1926 50.1274 76.2153C51.3893 75.5056 52.7802 74.128 52.9681 72.6156C52.97 72.6023 52.97 72.5891 52.9719 72.5777C54.0061 72.8775 54.9776 72.3158 55.5583 71.4752C55.5659 71.4828 55.5735 71.4903 55.5849 71.496C57.9227 72.6498 60.6932 72.2513 62.6135 70.4751C64.475 68.754 65.1069 65.9228 64.7635 63.4674C64.4618 61.3174 62.7084 60.12 60.585 60.5185C59.2206 60.7747 58.2263 61.6495 57.528 62.7558C56.6627 62.7691 55.8657 62.5565 55.1313 62.0897C55.1086 62.0764 55.0877 62.0688 55.0668 62.065C54.6816 57.7234 54.7499 53.0686 53.0193 49.0647C53.0079 49.04 52.9909 49.0248 52.9719 49.0154C54.1085 47.799 55.0516 46.429 55.6702 44.9507C58.6817 44.4801 61.6192 42.945 63.6515 40.9449C68.0823 36.5824 69.2285 29.8251 68.181 23.8989C69.1545 23.8629 70.1564 23.6029 70.8244 22.8742C71.3879 22.2575 71.5815 21.36 71.1014 20.6313C70.1678 19.2138 69.1488 20.2518 68.1791 21.0734C68.1564 21.0602 68.1298 21.0526 68.1032 21.0564C66.8508 21.248 65.1468 18.7641 64.086 20.5193C64.0747 20.5402 64.0633 20.5592 64.0519 20.5801C64.0538 20.47 63.9836 20.3486 63.845 20.3315C61.7843 20.0639 59.8772 19.0032 58.6514 17.3067C57.5602 15.7981 57.1466 13.9366 56.4046 12.2554C55.2034 9.53802 52.784 7.53417 49.7896 7.16794C46.6605 6.78462 43.6111 8.31977 41.8938 10.9233C41.0095 12.2629 40.4459 13.8019 39.9545 15.32C39.3529 17.1796 38.907 19.1018 39.0645 21.062C38.2258 21.1038 37.3908 21.2082 36.5711 21.3865C30.3033 22.7471 25.863 28.2975 26.5063 34.7759C21.379 34.6374 15.6881 36.1516 12.4262 40.3605C9.9897 43.5048 9.4413 48.1823 11.9973 51.4386ZM63.9741 20.7376C63.8413 21.0222 63.7938 21.2898 63.8128 21.5402C60.5983 21.267 57.6684 19.7129 56.2433 16.6881C55.1503 14.3693 54.6512 11.7316 51.7916 11.0542C49.3513 10.4754 46.9869 11.6766 45.5353 13.6235C43.8597 15.8703 43.5105 18.7071 43.52 21.4321C42.1746 21.1493 40.8084 21.0127 39.4516 21.0469C39.3909 17.5515 40.5408 13.3104 42.7154 10.5361C45.0039 7.61956 49.1483 6.69544 52.4273 8.4545C54.025 9.31031 55.194 10.6462 55.9473 12.2819C56.6399 13.7886 57.0232 15.4338 57.8601 16.8741C59.1333 19.0658 61.3554 20.4415 63.8469 20.7641C63.902 20.7717 63.9418 20.7584 63.9741 20.7376ZM58.232 65.1334C58.7595 62.7766 60.6685 60.5773 63.3042 61.547C63.3365 61.5584 63.3574 61.5356 63.3612 61.5091C64.2454 62.2719 64.4067 63.5205 64.3916 64.6363C64.365 66.754 63.8204 68.8527 62.1809 70.2968C61.1694 71.1867 59.9531 71.6479 58.6912 71.7465C57.564 69.9742 57.7917 67.1012 58.232 65.1334ZM55.6551 71.3253C55.805 71.0805 55.9264 70.8148 56.0042 70.5435C56.2718 69.6098 56.1238 68.6117 55.9435 67.6762C55.6816 66.3175 55.4008 64.9778 55.23 63.6021C55.1845 63.2321 55.1446 62.8563 55.1086 62.4806C55.8107 62.9285 56.6361 63.0822 57.4464 62.8981C56.9587 63.7122 56.6209 64.6382 56.4103 65.5338C56.3667 65.7198 56.6494 65.7976 56.6968 65.6135C57.1921 63.6325 58.2225 61.4692 60.3744 60.9056C61.3004 60.6627 62.3554 60.7956 63.1505 61.344C63.16 61.3497 63.1676 61.3573 63.1771 61.3648C61.0879 60.2415 58.9417 61.9835 58.1637 63.9342C57.5735 65.4143 57.5223 67.1069 57.5185 68.68C57.5147 69.7825 57.6267 70.8585 58.2377 71.7655C57.3762 71.775 56.5014 71.6213 55.6608 71.3272C55.657 71.3253 55.6551 71.3253 55.6551 71.3253ZM54.1655 72.2361C54.1541 71.2114 54.3609 69.6345 55.5943 69.6895C55.5393 70.8679 55.1864 71.9363 54.1655 72.2361ZM52.5563 71.1355C52.4538 70.8831 52.321 70.6516 52.1673 70.4334C52.192 70.4182 52.2147 70.3973 52.2261 70.3632C52.4728 69.7161 53.1787 70.0045 53.4975 70.3954C53.655 70.5909 53.7044 70.885 53.7461 71.1241C53.8144 71.5131 53.8296 71.9059 53.8808 72.2968C53.6228 72.3329 53.3305 72.3291 52.9985 72.274C52.9928 72.274 52.989 72.274 52.9833 72.274C52.9662 71.8357 52.8125 71.4467 52.5563 71.1355ZM44.9622 76.1603C45.5011 74.8737 46.2355 73.7048 47.2374 72.7219C48.226 71.7503 49.8276 70.4543 51.3134 70.8471C53.9055 71.5321 51.7574 74.536 50.5031 75.4487C49.3399 76.295 47.9433 76.6916 46.5087 76.5417C45.9432 76.4829 45.4309 76.3501 44.9622 76.1603ZM49.3968 70.5302C49.0894 69.9135 49.1748 69.3024 49.6283 68.811C50.4576 69.3404 51.2641 69.8831 51.9111 70.6156C51.6758 70.4922 51.4121 70.4068 51.1293 70.367C50.5354 70.2835 49.949 70.4068 49.3949 70.644C49.4101 70.6099 49.4158 70.5681 49.3968 70.5302ZM47.0799 70.2474C47.7744 69.7617 48.6435 70.1355 49.0268 70.8072C49.0287 70.811 49.0325 70.8129 49.0344 70.8167C48.3513 71.1735 47.7232 71.6801 47.2013 72.1583C47.1121 72.2399 47.0268 72.3253 46.9395 72.4107C46.4252 71.7978 46.3702 70.7427 47.0799 70.2474ZM46.6245 72.4733C46.6302 72.4904 46.6396 72.5056 46.6434 72.5245C46.6529 72.5568 46.6795 72.5777 46.7099 72.5834C46.7174 72.5928 46.725 72.6042 46.7326 72.6137C46.1634 73.2058 45.6719 73.8642 45.262 74.572C44.8806 73.9971 44.4328 73.4714 44.6263 72.7105C44.8464 71.849 45.9148 71.5131 46.4309 72.1279C46.4859 72.2475 46.5486 72.3651 46.6245 72.4733ZM36.1175 73.8547C36.2466 73.2475 36.5009 72.6593 36.85 72.145C37.554 71.1127 38.5825 70.4846 39.6489 69.8983C40.1822 71.2607 40.7913 72.6365 41.5978 73.849C40.408 75.9155 38.4724 76.574 36.4686 76.3615C36.3016 76.0635 36.1062 75.369 36.0986 75.3197C36.0113 74.8358 36.0151 74.3386 36.1175 73.8547ZM27.383 64.4219C29.0699 64.6685 30.7872 63.8924 32.125 62.8848C35.9145 60.0327 36.0967 55.4861 36.7855 51.1976C37.0967 52.5942 38.1935 53.7309 39.5711 54.2413C41.835 55.08 44.4498 54.3457 46.5808 53.4519C48.8029 52.5202 51.0364 51.0325 52.8201 49.1748C53.7784 53.1616 54.1882 57.082 54.545 61.1599C54.7082 63.029 54.9245 64.8906 55.3002 66.7312C55.4463 67.4485 55.6228 68.5187 55.5981 69.5301C55.1275 69.5017 54.6835 69.7332 54.3704 70.1165C54.1807 70.348 54.0649 70.6137 53.9947 70.8945C53.8979 70.4353 53.7082 70.0235 53.2793 69.8034C52.7916 69.5529 52.2337 69.7351 52.0003 70.2057C51.1426 69.1449 49.7631 68.4751 48.6511 67.7142C48.6359 67.7028 48.6207 67.6914 48.6055 67.6819C49.9984 66.3858 51.1198 64.6458 51.8827 62.7463C52.1256 62.7634 52.3722 62.7292 52.617 62.7406C52.8979 62.7539 53.1711 62.8013 53.4425 62.8734C53.5279 62.8962 53.5639 62.7672 53.4785 62.7406C53.0136 62.6021 52.4254 62.4787 51.9377 62.6002C52.8599 60.2339 53.23 57.6323 52.877 55.321C52.8694 55.266 52.784 55.2831 52.7821 55.3343C52.6986 57.5203 52.4785 59.6494 51.7404 61.7254C50.9585 63.9266 49.7156 65.6477 48.2868 67.4523C46.1501 65.8242 45.1197 63.475 44.9204 60.7994C44.9015 60.5508 44.539 60.547 44.5295 60.7994C44.4422 62.9436 45.3702 65.1278 46.8104 66.6914C47.5714 67.5187 48.5164 68.1051 49.4462 68.6952C48.9794 69.0501 48.7991 69.7389 48.9832 70.2949C48.5277 69.7161 47.5201 69.6042 46.9205 70.014C46.3645 70.3935 46.1842 71.0634 46.2981 71.6858C45.8294 71.4182 45.1576 71.4809 44.7383 71.9078C43.9375 72.7238 44.1899 74.2191 45.0988 74.8586C44.9015 75.221 44.7231 75.5948 44.5694 75.98C43.5371 75.462 42.7325 74.6403 42.0627 73.6764C42.0665 73.6669 42.0703 73.6574 42.0722 73.646C42.1063 73.5284 42.002 73.4392 41.9033 73.4392C41.4213 72.7029 41.0095 71.8964 40.6357 71.0805C39.4023 68.3935 38.7457 65.6059 37.8766 62.8013C37.8481 62.7121 37.7001 62.7254 37.7077 62.8241C37.8633 64.7539 38.4478 66.6629 39.11 68.4827C39.0095 68.4922 38.907 68.5054 38.8045 68.5206C38.7931 68.496 38.7761 68.4713 38.7514 68.4485C37.5142 67.3555 36.7172 66.0234 36.0758 64.5186C36.0511 64.4617 35.9771 64.5072 35.9847 64.5566C36.2428 66.1392 37.1422 67.5358 38.3093 68.6098C36.7551 68.9457 35.1915 69.8034 34.478 71.238C34.4572 71.2797 34.5065 71.3196 34.5425 71.2873C35.9544 70.0501 37.2561 69.0823 39.1935 68.9039C39.2182 68.902 39.2391 68.8926 39.2599 68.885C39.2675 68.9077 39.277 68.9305 39.2846 68.9533C39.3757 69.1962 39.4687 69.4429 39.5636 69.6895C37.869 70.2626 36.3396 71.6213 35.831 73.3652C35.7001 73.8168 35.535 75.388 35.8576 76.2666C34.1991 75.9516 32.5387 75.0787 31.2578 73.9439C29.9143 72.7541 28.846 71.2323 28.178 69.5662C27.5006 67.8755 27.4456 66.2094 27.383 64.4219ZM27.3602 68.6307C24.9085 68.5377 22.8136 67.9305 21.0317 66.1562C20.9786 66.1031 20.9141 66.1088 20.8667 66.1411C20.8192 66.1031 20.7509 66.0898 20.6807 66.1335C19.5592 66.8318 18.0943 66.2891 17.4263 65.2055C16.8172 64.2169 16.8001 63.0138 16.9368 61.8848C17.2575 62.4085 17.8362 62.7007 18.4624 62.8715C19.1759 63.067 19.9634 63.0727 20.5574 63.5679C21.0355 63.9664 21.1095 64.3478 21.1399 64.7729C21.102 64.7957 21.0792 64.8412 21.1095 64.8924C21.1247 64.919 21.1399 64.9475 21.1532 64.9759C21.1646 65.1562 21.176 65.346 21.2177 65.549C21.2196 65.5566 21.231 65.5604 21.2367 65.5547C21.2462 65.5452 21.2538 65.5338 21.2614 65.5243C21.2538 65.6325 21.2291 65.7388 21.1817 65.8393C21.1646 65.8735 21.1836 65.9058 21.2101 65.919C21.2177 65.9304 21.2234 65.9437 21.2367 65.9551C22.8212 67.3821 25.0205 68.1468 27.1249 67.6553C27.1856 67.9798 27.2634 68.3062 27.3602 68.6307ZM14.024 39.258C17.4928 36.0169 22.1172 35.3717 26.6619 35.1364C26.7283 35.1326 26.7738 35.1023 26.8023 35.0605C26.8934 35.0453 26.9693 34.9789 26.956 34.8594C26.2653 28.3696 30.7758 22.9331 37.0606 21.7319C40.1309 21.1436 43.2866 21.5649 46.1861 22.694C49.1919 23.8648 51.5904 25.787 54.0972 27.7548C54.2395 27.8668 54.4273 27.6922 54.3002 27.5518C51.6379 24.6485 47.9034 22.4568 43.9489 21.5289C43.9527 21.5137 43.9584 21.5004 43.9584 21.4814C43.9432 18.4472 44.3929 15.1719 46.6947 12.967C48.9889 10.7696 52.8865 10.6557 54.5545 13.6653C55.2091 14.8475 55.5071 16.1909 56.1598 17.375C56.6836 18.3219 57.4027 19.1607 58.2396 19.8438C59.7842 21.1038 61.8393 21.8989 63.8469 21.7604C64.0063 22.4359 64.6496 22.9596 65.365 23.2993C65.3479 23.3335 65.3403 23.3733 65.3536 23.4226C66.3081 26.8421 63.3042 30.3754 60.2283 31.5993C60.0802 30.6581 59.7083 29.7587 59.1239 29.0642C57.9246 27.6353 55.8031 26.9635 54.1199 27.9085C54.0554 27.9446 54.0991 28.0471 54.1693 28.0281C55.9397 27.5176 57.9037 28.0262 59.0005 29.5841C60.1523 31.2179 59.8715 32.9884 59.4654 34.7873C57.5735 35.5292 55.4577 35.6772 53.5184 34.9865C51.3077 34.1971 48.5505 32.0225 46.4233 34.2351C44.7155 36.0131 44.7193 39.1346 46.0742 41.0967C46.0969 41.1309 46.1634 41.11 46.1463 41.0664C45.429 39.3092 45.1292 37.3718 46.0002 35.5956C47.0249 33.5026 49.0021 33.4362 50.932 34.2882C52.2812 34.884 53.5165 35.5975 55.0042 35.7968C56.1352 35.9486 57.2946 35.8689 58.4009 35.59C63.828 34.2256 66.6933 28.7833 66.8584 23.5099C66.8622 23.3771 66.7635 23.3126 66.6611 23.3145C66.6478 23.3088 66.6364 23.3012 66.6193 23.2974C65.7578 23.1399 64.5965 22.8173 64.2758 21.8818C63.9741 20.9937 64.6231 19.9975 65.5984 20.3467C66.329 20.6085 67.0273 21.4643 67.8395 21.3562C67.5377 21.5877 67.2417 21.7661 66.9571 21.804C66.773 21.8287 66.8337 22.1019 66.9988 22.1095C68.2228 22.1702 68.5833 20.7148 69.6346 20.4264C70.3139 20.2404 70.9363 20.8514 70.9534 21.5232C70.9686 22.064 70.608 22.5403 70.2001 22.8515C69.4126 23.453 68.4087 23.4454 67.4732 23.601C67.3005 23.6295 67.3575 23.8819 67.5131 23.8913C67.5947 23.897 67.6782 23.8989 67.7617 23.9008C68.7522 29.679 67.7294 36.201 63.4693 40.5142C59.5053 44.5276 53.8372 45.4915 48.653 43.5655C48.5999 43.5465 48.5733 43.6243 48.6169 43.6528C49.2147 44.0399 49.8466 44.3435 50.5012 44.5693C49.4633 45.9963 47.8579 46.7781 46.1121 46.8977C46.0666 46.9015 46.0685 46.9622 46.1121 46.966C48.0059 47.1652 49.7479 46.2715 50.8561 44.7458C50.8694 44.7268 50.8751 44.7097 50.8807 44.6908C52.3153 45.1196 53.8448 45.1936 55.3647 44.9944C53.3837 48.0305 51.2033 50.6017 47.9053 52.3513C46.1406 53.2868 44.131 54.0459 42.1196 54.154C39.7286 54.2831 36.9866 52.9111 37.1422 50.1729C37.1479 50.059 37.0796 49.9945 36.9961 49.9736C36.979 49.7459 36.6261 49.6662 36.5768 49.9205C35.6602 54.6683 35.8519 60.0935 31.2256 62.9816C28.8498 64.4655 26.4076 64.2776 24.4569 62.2434C23.0204 60.7462 22.1418 58.8107 20.6389 57.3666C18.0943 54.9225 14.375 53.8922 12.2289 51.0097C9.46407 47.3056 10.8664 42.2106 14.024 39.258ZM65.7369 23.4568C65.976 23.546 66.2151 23.6162 66.439 23.6617C66.3081 25.5385 65.9153 27.419 65.1601 29.1287C63.9191 30.8251 62.5129 32.0699 60.3326 32.4608C60.3193 32.4627 60.3117 32.4684 60.3023 32.4722C60.3004 32.2521 60.2814 32.0301 60.2548 31.8119C61.9721 31.5557 63.6268 29.7947 64.5946 28.5063C65.6914 27.0489 66.2569 25.2348 65.7369 23.4568ZM60.2985 32.755C60.3326 32.7777 60.3744 32.7891 60.4237 32.7796C61.7994 32.5273 63.2359 31.8327 64.2682 30.7929C63.8223 31.4855 63.3004 32.1344 62.6894 32.7227C61.8848 33.4988 60.9323 34.1345 59.9057 34.5975C60.1448 34.0263 60.2738 33.3963 60.2985 32.755Z" fill="#1D1D1B"/>
<path d="M42.8785 67.3631C43.3833 66.8033 44.2277 66.5604 44.9602 66.6344C45.0475 66.6439 45.0532 66.7786 44.9602 66.7748C44.1803 66.7502 43.611 67.0196 43.0189 67.5054C42.9222 67.587 42.7912 67.4618 42.8785 67.3631Z" fill="#1D1D1B"/>
<path d="M42.8443 66.8223C43.0474 66.2075 43.814 65.9418 44.4042 66.0651C44.5104 66.0879 44.4649 66.2454 44.3586 66.2264C43.7666 66.1202 43.3358 66.439 42.9961 66.8849C42.9449 66.9551 42.8121 66.9191 42.8443 66.8223Z" fill="#1D1D1B"/>
<path d="M52.0021 63.4882C52.5221 63.3193 53.1653 63.5414 53.6265 63.7862C53.6929 63.8222 53.634 63.9152 53.5676 63.8848C53.3096 63.7653 53.0458 63.6856 52.7631 63.6438C52.5145 63.6078 52.264 63.6306 52.0154 63.5964C51.9585 63.5888 51.9395 63.5091 52.0021 63.4882Z" fill="#1D1D1B"/>
<path d="M33.4875 67.2284C33.8215 66.7293 34.4363 66.4713 35.0227 66.4827C35.127 66.4846 35.127 66.6402 35.0227 66.644C34.4477 66.6629 34.0189 66.9324 33.6431 67.3499C33.5691 67.4315 33.4249 67.3233 33.4875 67.2284Z" fill="#1D1D1B"/>
<path d="M32.8196 66.9932C32.9847 66.367 33.6697 65.961 34.2731 65.8604C34.387 65.8414 34.4382 66.0084 34.3206 66.035C33.6982 66.1792 33.3547 66.5758 32.9847 67.0616C32.9258 67.1413 32.7911 67.1014 32.8196 66.9932Z" fill="#1D1D1B"/>
<path d="M74.557 42.6357C74.5095 42.3264 74.1224 42.2429 73.8814 42.1461C73.2799 41.9052 72.6119 41.518 71.963 41.4573C71.9781 41.4308 71.9876 41.4004 71.98 41.3624C71.889 40.7951 71.7371 40.2429 71.5075 39.7153C71.3785 39.4193 71.1508 38.7191 70.7732 38.6451C70.4316 38.5768 70.147 39.0702 69.9686 39.2865C69.5777 39.759 69.2304 40.2675 68.9686 40.8235C67.9249 40.685 66.8091 40.7799 65.7617 40.833C65.6782 40.8368 65.5909 40.9222 65.625 41.0114C66.0083 42.0361 66.5188 43.0475 67.2532 43.8654C67.2551 43.8673 67.255 43.8673 67.2569 43.8673C66.9647 44.4859 66.7958 45.1747 66.5909 45.8256C66.5112 46.0817 66.2266 46.577 66.5207 46.8066C66.7845 47.0135 67.2399 46.7573 67.479 46.6567C68.1602 46.3721 68.8984 46.059 69.4866 45.6092C69.4885 45.6073 69.4885 45.6054 69.4904 45.6054C70.2153 46.3891 71.1963 46.9603 72.1622 47.3949C72.2666 47.4423 72.3614 47.3854 72.3747 47.2734C72.481 46.3797 72.5607 45.4423 72.4525 44.5447C72.4601 44.5447 72.4677 44.5447 72.4753 44.5409C72.9668 44.3853 73.4089 44.0494 73.7865 43.7041C74.0142 43.4953 74.612 43.0001 74.557 42.6357ZM74.1034 42.9602C74.0446 43.0342 73.9839 43.1044 73.9194 43.1727C73.7941 43.3113 73.6594 43.4422 73.519 43.5655C73.1641 43.8748 72.7713 44.0684 72.388 44.3284C72.369 44.3417 72.3577 44.3587 72.3482 44.3777C72.2818 44.3625 72.2096 44.3967 72.2059 44.4878C72.1831 45.3512 72.1983 46.1994 72.1129 47.0571C71.1925 46.615 70.405 46.0343 69.5815 45.4252C69.5511 45.4024 69.5189 45.4043 69.4942 45.4195C69.4638 45.3967 69.4202 45.3872 69.3709 45.41C68.9648 45.5941 68.5853 45.8369 68.1849 46.0343C67.9173 46.1652 67.6479 46.2886 67.3727 46.4024C67.2494 46.4537 66.9989 46.6188 66.8774 46.5884C66.4941 46.4954 66.9514 45.6054 67.0254 45.3645C67.1792 44.8673 67.3613 44.3644 67.4372 43.8502C67.4391 43.835 67.4372 43.8217 67.4315 43.8084C67.4353 43.7857 67.4334 43.7629 67.4182 43.7401C66.8566 42.8862 66.3461 42.057 65.9685 41.1082C66.9647 41.074 67.9761 41.1347 68.9667 41.0493C68.9951 41.0474 69.0179 41.0342 69.0369 41.0152C69.0691 41.0171 69.1033 41.0057 69.128 40.9677C69.3519 40.6072 70.4012 38.7153 70.8377 39.0284C71.1034 39.2182 71.2912 39.8956 71.3918 40.1708C71.5417 40.5825 71.6404 41.0057 71.7087 41.4383C71.7258 41.5408 71.8206 41.5579 71.8946 41.5218C71.8946 41.5351 71.8984 41.5484 71.9117 41.5579C72.1546 41.7533 72.4279 41.8482 72.7163 41.9659C73.0882 42.1177 73.7619 42.2486 74.0541 42.5105C74.278 42.5541 74.297 42.704 74.1034 42.9602Z" fill="#1D1D1B"/>
<path d="M7.44127 36.6603C7.15283 36.5389 6.87958 36.8254 6.67085 36.981C6.15091 37.3681 5.47347 37.7363 5.08257 38.2581C5.06739 38.2315 5.04652 38.2069 5.01046 38.1936C4.47914 37.9753 3.92884 37.816 3.35767 37.7363C3.03697 37.6926 2.32159 37.5218 2.06162 37.8027C1.82442 38.0588 2.09767 38.5579 2.18875 38.8236C2.388 39.4042 2.64038 39.9659 2.97815 40.4783C2.314 41.2961 1.81493 42.298 1.31207 43.2184C1.27222 43.2924 1.29879 43.41 1.39367 43.429C2.4677 43.6377 3.59676 43.7307 4.67839 43.5296C4.68028 43.5296 4.68028 43.5277 4.68218 43.5277C5.0579 44.1008 5.55697 44.6036 6.0048 45.1179C6.18127 45.3209 6.45642 45.82 6.80558 45.689C7.12058 45.5714 7.13765 45.0495 7.1775 44.7934C7.29136 44.0647 7.40901 43.2715 7.33121 42.5333C7.33121 42.5315 7.32931 42.5296 7.32931 42.5277C8.37678 42.3189 9.3768 41.78 10.2497 41.1823C10.3446 41.1177 10.3446 41.0077 10.2573 40.9375C9.55138 40.3815 8.79235 39.8236 7.97069 39.446C7.97449 39.4384 7.97828 39.4327 7.98018 39.4251C8.10352 38.9241 8.04849 38.3719 7.95172 37.8691C7.89289 37.5712 7.78283 36.8026 7.44127 36.6603ZM7.48301 37.2163C7.51527 37.3036 7.54374 37.3928 7.56841 37.4839C7.62154 37.6641 7.66329 37.8463 7.69365 38.0304C7.77145 38.4934 7.7335 38.9298 7.75247 39.3928C7.75437 39.4156 7.76196 39.4346 7.77334 39.4517C7.7259 39.4991 7.71642 39.5807 7.79422 39.63C8.5191 40.1006 9.24967 40.5295 9.93849 41.0513C9.08078 41.6054 8.17374 41.9736 7.22684 42.3588C7.19079 42.3739 7.1775 42.4005 7.17561 42.4309C7.13955 42.4442 7.10919 42.4764 7.1035 42.5314C7.04847 42.9736 7.05796 43.4252 7.01621 43.8692C6.98775 44.1653 6.95169 44.4594 6.90615 44.7535C6.88528 44.8864 6.89476 45.1843 6.80558 45.2735C6.52663 45.5524 6.00669 44.6985 5.83781 44.5068C5.49435 44.1159 5.16037 43.7004 4.75998 43.3645C4.7486 43.355 4.73531 43.3512 4.72203 43.3474C4.70495 43.3322 4.68408 43.3227 4.65561 43.3227C3.63471 43.355 2.65936 43.3588 1.65364 43.1861C2.14321 42.317 2.72387 41.4859 3.16791 40.5997C3.18119 40.575 3.18119 40.5485 3.1755 40.5219C3.19447 40.4953 3.20206 40.4593 3.18119 40.4194C2.99143 40.0399 1.92499 38.1575 2.41836 37.9507C2.72008 37.8235 3.39562 38.0171 3.68215 38.074C4.11101 38.1613 4.52468 38.2979 4.92887 38.4649C5.02564 38.5048 5.09016 38.4327 5.09775 38.3492C5.10914 38.3568 5.12432 38.3587 5.1376 38.3549C5.43173 38.2486 5.65374 38.0664 5.90612 37.8824C6.22871 37.6452 6.69362 37.1385 7.06744 37.0266C7.22684 36.8539 7.36347 36.9165 7.48301 37.2163Z" fill="#1D1D1B"/>
<path d="M38.5864 13.3769C38.5921 13.2573 38.5105 13.1947 38.4061 13.1606C38.1974 13.0941 37.9735 13.0543 37.7552 13.0334C37.7268 12.8019 37.649 12.5704 37.5939 12.3465C37.5655 12.2288 37.5408 12.0106 37.3909 11.9727C37.2486 11.9366 37.1822 12.0941 37.129 12.1928C37 12.4281 36.8653 12.6615 36.7533 12.9063C36.3909 12.8702 36.0341 12.8892 35.6755 12.9556C35.6394 12.9632 35.6129 13.0106 35.6242 13.0448C35.7666 13.4509 36.0095 13.7868 36.37 14.0202C36.3719 14.0221 36.3738 14.0221 36.3776 14.0221C36.1404 14.3541 36.0759 14.7925 36.1043 15.191C36.1081 15.2346 36.1499 15.2802 36.1973 15.2631C36.5427 15.1416 36.9601 14.9614 37.203 14.671C37.3947 14.9576 37.7287 15.1473 38.038 15.2802C38.0911 15.3029 38.1423 15.2764 38.148 15.2175C38.186 14.8115 38.1063 14.4206 37.9222 14.0581C38.0816 13.9803 38.2277 13.8797 38.3511 13.7526C38.446 13.6558 38.5788 13.5173 38.5864 13.3769ZM38.167 13.7336C38.0626 13.8228 37.9469 13.8892 37.8235 13.9462C37.7818 13.9651 37.7799 14.005 37.797 14.0353C37.7837 14.0543 37.778 14.0809 37.7932 14.1075C37.9564 14.4225 38.0247 14.7545 38.0114 15.1018C37.7363 14.9652 37.5104 14.7735 37.2562 14.5989C37.2619 14.5629 37.2144 14.5306 37.1803 14.5496C37.019 14.6369 36.8786 14.764 36.7211 14.8589C36.5711 14.9481 36.4136 15.0202 36.2523 15.0828C36.2467 14.7071 36.3529 14.3826 36.4801 14.0259C36.4895 13.9993 36.4668 13.9746 36.4421 13.9689C36.4402 13.9594 36.4383 13.9518 36.4288 13.9443C36.1537 13.7071 35.9317 13.4167 35.7969 13.079C36.1176 13.0239 36.4402 13.0106 36.7647 13.041C36.7932 13.0429 36.8121 13.0296 36.8235 13.0106C36.833 13.0069 36.8425 12.9993 36.852 12.9879C36.9393 12.855 37.0152 12.7165 37.093 12.5799C37.1309 12.5116 37.1689 12.4414 37.2068 12.3731C37.2315 12.3275 37.2581 12.2801 37.2827 12.2345C37.2941 12.1586 37.3207 12.1453 37.3624 12.1947C37.4554 12.2364 37.4915 12.5742 37.5161 12.671C37.5541 12.8247 37.5845 12.9841 37.6471 13.1302C37.6679 13.1795 37.7439 13.1644 37.759 13.1207C37.8691 13.1625 37.981 13.1966 38.0968 13.2251C38.2334 13.2592 38.4706 13.2877 38.3985 13.4794C38.3663 13.5704 38.241 13.671 38.167 13.7336Z" fill="#1D1D1B"/>
<path d="M73.8415 27.3394C73.8472 27.2199 73.7656 27.1572 73.6612 27.1231C73.4525 27.0567 73.2286 27.0168 73.0104 26.9959C72.9819 26.7644 72.9041 26.5329 72.8491 26.309C72.8206 26.1914 72.7959 25.9731 72.646 25.9352C72.5037 25.8991 72.4373 26.0566 72.3842 26.1553C72.2551 26.3906 72.1204 26.624 72.0084 26.8688C71.646 26.8328 71.2893 26.8517 70.9306 26.9181C70.8946 26.9257 70.868 26.9732 70.8794 27.0073C71.0217 27.4134 71.2646 27.7493 71.6251 27.9827C71.627 27.9846 71.6289 27.9846 71.6327 27.9846C71.3955 28.3167 71.331 28.755 71.3595 29.1535C71.3633 29.1971 71.405 29.2427 71.4524 29.2256C71.7978 29.1042 72.2153 28.9239 72.4582 28.6336C72.6498 28.9201 72.9838 29.1099 73.2931 29.2427C73.3462 29.2655 73.3975 29.2389 73.4032 29.1801C73.4411 28.774 73.3614 28.3831 73.1773 28.0206C73.3367 27.9428 73.4829 27.8423 73.6062 27.7151C73.703 27.6184 73.8339 27.4798 73.8415 27.3394ZM73.424 27.6962C73.3197 27.7853 73.2039 27.8518 73.0806 27.9087C73.0388 27.9277 73.0369 27.9675 73.054 27.9979C73.0407 28.0168 73.035 28.0434 73.0502 28.07C73.2115 28.385 73.2817 28.7171 73.2684 29.0643C72.9933 28.9277 72.7675 28.736 72.5132 28.5615C72.5189 28.5254 72.4714 28.4931 72.4373 28.5121C72.276 28.5994 72.1356 28.7265 71.9781 28.8214C71.8282 28.9106 71.6707 28.9827 71.5094 29.0453C71.5037 28.6696 71.6099 28.3451 71.7371 27.9884C71.7466 27.9618 71.7238 27.9371 71.6991 27.9315C71.6972 27.922 71.6953 27.9144 71.6858 27.9068C71.4107 27.6696 71.1887 27.3793 71.054 27.0415C71.3746 26.9865 71.6972 26.9732 72.0217 27.0035C72.0502 27.0054 72.0692 26.9921 72.0786 26.9732C72.0881 26.9694 72.0976 26.9618 72.1071 26.9504C72.1944 26.8176 72.2703 26.679 72.3481 26.5424C72.3861 26.4741 72.424 26.4039 72.4639 26.3356C72.4885 26.29 72.5151 26.2426 72.5398 26.1971C72.5511 26.1212 72.5777 26.1079 72.6195 26.1572C72.7124 26.199 72.7485 26.5367 72.7732 26.6335C72.8111 26.7872 72.8415 26.9466 72.9041 27.0927C72.925 27.1421 73.0009 27.1269 73.0161 27.0832C73.1261 27.125 73.2381 27.1591 73.3538 27.1876C73.4904 27.2218 73.7276 27.2502 73.6555 27.4419C73.6214 27.533 73.4961 27.6335 73.424 27.6962Z" fill="#1D1D1B"/>
<path d="M78.6064 46.9793C78.6121 46.8597 78.5305 46.7971 78.4261 46.763C78.2174 46.6966 77.9935 46.6567 77.7753 46.6358C77.7468 46.4043 77.669 46.1728 77.614 45.9489C77.5855 45.8313 77.5608 45.613 77.4109 45.5751C77.2686 45.539 77.2022 45.6965 77.1491 45.7952C77.02 46.0305 76.8853 46.2639 76.7733 46.5068C76.4109 46.4707 76.0541 46.4897 75.6955 46.5561C75.6594 46.5637 75.6329 46.6112 75.6443 46.6453C75.7866 47.0514 76.0295 47.3873 76.39 47.6207C76.3919 47.6226 76.3938 47.6226 76.3976 47.6226C76.1604 47.9547 76.0959 48.393 76.1244 48.7915C76.1282 48.8351 76.1699 48.8807 76.2173 48.8636C76.5627 48.7422 76.9802 48.5619 77.2231 48.2716C77.4147 48.5581 77.7487 48.7478 78.058 48.8807C78.1111 48.9034 78.1624 48.8769 78.1681 48.8181C78.206 48.412 78.1263 48.0211 77.9422 47.6586C78.1016 47.5808 78.2478 47.4803 78.3711 47.3531C78.4679 47.2582 78.5988 47.1197 78.6064 46.9793ZM78.1889 47.336C78.0846 47.4252 77.9688 47.4916 77.8455 47.5486C77.8037 47.5675 77.8018 47.6074 77.8189 47.6378C77.8056 47.6567 77.7999 47.6833 77.8151 47.7099C77.9783 48.0249 78.0466 48.3569 78.0333 48.7042C77.7582 48.5676 77.5324 48.3759 77.2781 48.2013C77.2838 48.1653 77.2363 48.133 77.2022 48.152C77.0409 48.2393 76.9005 48.3664 76.743 48.4613C76.5931 48.5505 76.4356 48.6226 76.2743 48.6852C76.2686 48.3095 76.3748 47.985 76.502 47.6283C76.5115 47.6017 76.4887 47.577 76.464 47.5713C76.4621 47.5619 76.4602 47.5543 76.4507 47.5467C76.1756 47.3095 75.9536 47.0191 75.8207 46.6814C76.1414 46.6263 76.464 46.6131 76.7885 46.6434C76.817 46.6453 76.836 46.632 76.8473 46.6131C76.8568 46.6093 76.8663 46.6017 76.8758 46.5903C76.9631 46.4575 77.039 46.3189 77.1168 46.1823C77.1547 46.114 77.1927 46.0438 77.2325 45.9755C77.2572 45.9299 77.2838 45.8825 77.3084 45.837C77.3198 45.761 77.3464 45.7478 77.3881 45.7971C77.4811 45.8389 77.5172 46.1766 77.5419 46.2734C77.5798 46.4271 77.6102 46.5865 77.6728 46.7326C77.6937 46.7819 77.7696 46.7668 77.7847 46.7231C77.8948 46.7649 78.0068 46.799 78.1225 46.8275C78.2591 46.8616 78.4963 46.8901 78.4242 47.0818C78.3863 47.1728 78.261 47.2734 78.1889 47.336Z" fill="#1D1D1B"/>
<path d="M16.4433 67.5322C16.449 67.4126 16.3674 67.35 16.263 67.3158C16.0543 67.2494 15.8304 67.2096 15.6122 67.1887C15.5837 66.9572 15.5059 66.7257 15.4509 66.5018C15.4224 66.3841 15.3977 66.1659 15.2478 66.1279C15.1055 66.0919 15.0391 66.2494 14.986 66.3481C14.8569 66.5834 14.7222 66.8168 14.6102 67.0597C14.2478 67.0236 13.8911 67.0426 13.5324 67.109C13.4964 67.1166 13.4698 67.164 13.4812 67.1982C13.6235 67.6043 13.8664 67.9401 14.2269 68.1735C14.2288 68.1754 14.2307 68.1754 14.2345 68.1754C13.9973 68.5075 13.9328 68.9459 13.9613 69.3443C13.9651 69.388 14.0068 69.4335 14.0543 69.4165C14.3996 69.295 14.8171 69.1147 15.06 68.8244C15.2516 69.1109 15.5856 69.3007 15.8949 69.4335C15.948 69.4563 15.9993 69.4297 16.005 69.3709C16.0429 68.9648 15.9632 68.5739 15.7792 68.2115C15.9386 68.1337 16.0847 68.0331 16.208 67.906C16.3029 67.8111 16.4357 67.6726 16.4433 67.5322ZM16.0239 67.8889C15.9196 67.9781 15.8038 68.0445 15.6805 68.1014C15.6387 68.1204 15.6368 68.1603 15.6539 68.1906C15.6406 68.2096 15.6349 68.2362 15.6501 68.2627C15.8133 68.5777 15.8816 68.9098 15.8683 69.2571C15.5932 69.1204 15.3674 68.9288 15.1131 68.7542C15.1188 68.7181 15.0714 68.6859 15.0372 68.7049C14.8759 68.7921 14.7355 68.9193 14.578 69.0142C14.4281 69.1034 14.2706 69.1755 14.1093 69.2381C14.1036 68.8624 14.2099 68.5379 14.337 68.1811C14.3465 68.1546 14.3237 68.1299 14.299 68.1242C14.2971 68.1147 14.2952 68.1071 14.2858 68.0995C14.0106 67.8623 13.7886 67.572 13.6539 67.2342C13.9746 67.1792 14.2971 67.1659 14.6216 67.1963C14.6501 67.1982 14.6691 67.1849 14.6805 67.1659C14.6899 67.1621 14.6994 67.1545 14.7089 67.1432C14.7962 67.0103 14.8721 66.8718 14.9499 66.7352C14.9879 66.6669 15.0258 66.5966 15.0638 66.5283C15.0884 66.4828 15.115 66.4354 15.1397 66.3898C15.1511 66.3139 15.1776 66.3006 15.2194 66.35C15.3124 66.3917 15.3484 66.7295 15.3731 66.8263C15.411 66.98 15.4414 67.1394 15.504 67.2855C15.5249 67.3348 15.6008 67.3196 15.616 67.276C15.726 67.3177 15.838 67.3519 15.9537 67.3803C16.0904 67.4145 16.3276 67.443 16.2554 67.6346C16.2213 67.7257 16.098 67.8263 16.0239 67.8889Z" fill="#1D1D1B"/>
<path d="M26.6013 27.347C26.607 27.2274 26.5254 27.1648 26.421 27.1307C26.2123 27.0642 25.9883 27.0244 25.7701 27.0035C25.7417 26.772 25.6639 26.5405 25.6088 26.3166C25.5804 26.1989 25.5557 25.9807 25.4058 25.9428C25.2635 25.9067 25.1971 26.0642 25.1439 26.1629C25.0149 26.3982 24.8802 26.6316 24.7682 26.8745C24.4058 26.8384 24.049 26.8574 23.6904 26.9238C23.6543 26.9314 23.6278 26.9788 23.6391 27.013C23.7815 27.4191 24.0244 27.755 24.3849 27.9884C24.3868 27.9903 24.3887 27.9903 24.3925 27.9903C24.1553 28.3223 24.0908 28.7607 24.1192 29.1592C24.123 29.2028 24.1648 29.2484 24.2122 29.2313C24.5576 29.1098 24.975 28.9296 25.2179 28.6392C25.4096 28.9258 25.7436 29.1155 26.0529 29.2484C26.106 29.2711 26.1572 29.2446 26.1629 29.1857C26.2009 28.7796 26.1212 28.3887 25.9371 28.0263C26.0965 27.9485 26.2426 27.8479 26.366 27.7208C26.4627 27.6259 26.5937 27.4874 26.6013 27.347ZM26.1838 27.7056C26.0794 27.7948 25.9637 27.8612 25.8403 27.9181C25.7986 27.9371 25.7967 27.977 25.8138 28.0073C25.8005 28.0263 25.7948 28.0529 25.81 28.0794C25.9713 28.3944 26.0415 28.7265 26.0282 29.0738C25.753 28.9372 25.5272 28.7455 25.273 28.5709C25.2787 28.5349 25.2312 28.5026 25.1971 28.5216C25.0358 28.6089 24.8953 28.736 24.7378 28.8309C24.5879 28.9201 24.4304 28.9922 24.2691 29.0548C24.2634 28.6791 24.3697 28.3546 24.4968 27.9978C24.5063 27.9713 24.4836 27.9466 24.4589 27.9409C24.457 27.9314 24.4551 27.9238 24.4456 27.9162C24.1705 27.6791 23.9484 27.3887 23.8156 27.051C24.1363 26.9959 24.4589 26.9826 24.7834 27.013C24.8118 27.0149 24.8308 27.0016 24.8422 26.9826C24.8517 26.9769 24.8612 26.9713 24.8707 26.9599C24.958 26.827 25.0339 26.6885 25.1117 26.5519C25.1496 26.4836 25.1876 26.4134 25.2274 26.3451C25.2521 26.2995 25.2787 26.2521 25.3033 26.2065C25.3147 26.1306 25.3413 26.1173 25.383 26.1667C25.476 26.2084 25.5121 26.5462 25.5367 26.643C25.5747 26.7967 25.605 26.9561 25.6677 27.1022C25.6885 27.1515 25.7644 27.1363 25.7796 27.0927C25.8897 27.1344 26.0016 27.1686 26.1174 27.1971C26.254 27.2312 26.4912 27.2597 26.4191 27.4513C26.3811 27.5424 26.2559 27.643 26.1838 27.7056Z" fill="#1D1D1B"/>
<path d="M13.7944 35.3946C13.8001 35.275 13.7185 35.2124 13.6141 35.1783C13.4054 35.1118 13.1815 35.072 12.9632 35.0511C12.9348 34.8196 12.857 34.5881 12.8019 34.3642C12.7735 34.2465 12.7488 34.0283 12.5989 33.9904C12.4566 33.9543 12.3902 34.1118 12.337 34.2105C12.208 34.4458 12.0733 34.6792 11.9613 34.924C11.5989 34.8879 11.2421 34.9069 10.8835 34.9733C10.8474 34.9809 10.8209 35.0283 10.8323 35.0625C10.9746 35.4686 11.2175 35.8045 11.578 36.0379C11.5799 36.0398 11.5818 36.0398 11.5856 36.0398C11.3484 36.3718 11.2839 36.8102 11.3123 37.2087C11.3161 37.2523 11.3579 37.2979 11.4053 37.2808C11.7507 37.1593 12.1682 36.9791 12.411 36.6887C12.6027 36.9753 12.9367 37.165 13.246 37.2979C13.2991 37.3206 13.3504 37.2941 13.356 37.2352C13.394 36.8292 13.3143 36.4383 13.1302 36.0758C13.2896 35.998 13.4357 35.8974 13.5591 35.7703C13.654 35.6735 13.7868 35.535 13.7944 35.3946ZM13.375 35.7532C13.2707 35.8424 13.1549 35.9088 13.0316 35.9658C12.9898 35.9847 12.9879 36.0246 13.005 36.0549C12.9917 36.0739 12.986 36.1005 13.0012 36.127C13.1625 36.442 13.2327 36.7741 13.2194 37.1214C12.9443 36.9848 12.7185 36.7931 12.4642 36.6185C12.4699 36.5825 12.4224 36.5502 12.3883 36.5692C12.227 36.6565 12.0866 36.7836 11.9291 36.8785C11.7792 36.9677 11.6217 37.0398 11.4604 37.1024C11.4547 36.7267 11.5609 36.4022 11.6881 36.0455C11.6976 36.0189 11.6748 35.9942 11.6501 35.9885C11.6482 35.979 11.6463 35.9714 11.6368 35.9639C11.3617 35.7267 11.1397 35.4363 11.0068 35.0986C11.3275 35.0435 11.6501 35.0302 11.9746 35.0606C12.0031 35.0625 12.022 35.0492 12.0315 35.0302C12.041 35.0264 12.0505 35.0189 12.06 35.0075C12.1473 34.8746 12.2232 34.7361 12.301 34.5995C12.3389 34.5312 12.3769 34.461 12.4167 34.3927C12.4414 34.3471 12.468 34.2997 12.4926 34.2541C12.504 34.1782 12.5306 34.1649 12.5723 34.2143C12.6653 34.256 12.7014 34.5938 12.726 34.6906C12.764 34.8443 12.7944 35.0037 12.857 35.1498C12.8779 35.1991 12.9538 35.1839 12.9689 35.1403C13.079 35.1821 13.191 35.2162 13.3067 35.2447C13.4433 35.2788 13.6805 35.3073 13.6084 35.4989C13.5743 35.59 13.449 35.6906 13.375 35.7532Z" fill="#1D1D1B"/>
<path d="M8.57983 51.4083C8.29519 51.3457 7.90998 51.192 7.61775 51.2527C7.61775 51.2508 7.61775 51.247 7.61775 51.2451C7.55703 50.6683 7.2648 50.0952 6.95929 49.6113C6.92134 49.5506 6.84164 49.5411 6.78851 49.5885C6.35396 49.9946 5.9289 50.5449 5.80176 51.1427C5.43553 51.0763 5.0674 51.0497 4.69547 51.0687C4.50192 51.0782 4.19641 51.0687 4.17933 51.3267C4.16415 51.5639 4.43171 51.8467 4.58162 52.008C4.79225 52.2319 5.04653 52.4084 5.33875 52.5051C5.34255 52.507 5.34824 52.507 5.35204 52.507C5.21731 52.9643 5.1471 53.452 5.0674 53.9226C5.03514 54.1162 4.9877 54.3913 5.16038 54.5393C5.33686 54.6893 5.55318 54.5659 5.72396 54.4748C6.0864 54.2775 6.41848 54.0251 6.70501 53.7291C6.73727 53.6968 6.73917 53.6589 6.72779 53.6285C7.17941 53.9985 7.74489 54.213 8.31417 54.3192C8.39387 54.3344 8.47167 54.2699 8.4489 54.1845C8.30847 53.6608 8.16046 53.1332 7.96691 52.6266C8.20411 52.5488 8.43182 52.3723 8.62158 52.2281C8.77148 52.1142 9.08459 51.9321 9.077 51.7081C9.06941 51.4634 8.75441 51.4463 8.57983 51.4083ZM7.76007 52.526C7.72402 52.5602 7.7373 52.6323 7.77905 52.6531C7.91757 53.1237 8.06369 53.5905 8.19082 54.063C7.69555 53.9416 7.25721 53.7329 6.80559 53.4843C6.74297 53.4501 6.66896 53.5165 6.68604 53.5754C6.65188 53.5526 6.60444 53.5488 6.5627 53.5849C6.34827 53.767 6.13005 53.9435 5.89475 54.0991C5.72396 54.2111 5.24957 54.5374 5.26665 54.12C5.29131 53.583 5.48297 53.0554 5.51902 52.5184C5.52282 52.4653 5.47918 52.4387 5.43553 52.4387C5.43933 52.4084 5.43174 52.3761 5.39948 52.3571C5.09586 52.1674 4.64424 51.8998 4.50951 51.545C4.38806 51.2281 4.81502 51.2679 5.01996 51.2679C5.26475 51.2698 5.50764 51.2945 5.75053 51.3305C5.78089 51.3343 5.80746 51.3267 5.82643 51.3116C5.85869 51.3286 5.89854 51.3248 5.92131 51.2831C6.19646 50.7556 6.43176 50.2698 6.84354 49.8409C7.1092 50.2963 7.25152 50.7688 7.42799 51.2679C7.44507 51.3135 7.49251 51.3362 7.53426 51.3343C7.53616 51.34 7.53805 51.3457 7.54375 51.3495C7.68986 51.4747 7.87582 51.488 8.05989 51.5279C8.17754 51.5525 8.29709 51.5791 8.41474 51.6038C8.47926 51.6171 8.73353 51.6284 8.77148 51.6759C8.95745 51.9112 7.90049 52.3913 7.76007 52.526Z" fill="#1D1D1B"/>
<path d="M24.0659 20.0678C23.7813 20.0051 23.3961 19.8514 23.1038 19.9122C23.1038 19.9103 23.1038 19.9065 23.1038 19.9046C23.0431 19.3277 22.7509 18.7546 22.4454 18.2707C22.4074 18.21 22.3277 18.2005 22.2746 18.248C21.84 18.6541 21.415 19.2044 21.2878 19.8021C20.9216 19.7357 20.5535 19.7091 20.1816 19.7281C19.988 19.7376 19.6825 19.7281 19.6654 19.9862C19.6502 20.2234 19.9178 20.5061 20.0677 20.6674C20.2783 20.8913 20.5326 21.0678 20.8248 21.1646C20.8286 21.1665 20.8343 21.1665 20.8381 21.1665C20.7034 21.6238 20.6332 22.1115 20.5535 22.5821C20.5212 22.7756 20.4738 23.0508 20.6465 23.1988C20.8229 23.3487 21.0393 23.2253 21.21 23.1342C21.5725 22.9369 21.9046 22.6845 22.1911 22.3885C22.2234 22.3562 22.2253 22.3183 22.2139 22.2879C22.6655 22.658 23.231 22.8724 23.8003 22.9786C23.8799 22.9938 23.9577 22.9293 23.935 22.8439C23.7946 22.3202 23.6465 21.7927 23.453 21.286C23.6902 21.2082 23.9179 21.0317 24.1077 20.8875C24.2576 20.7737 24.5707 20.5915 24.5631 20.3676C24.5555 20.1247 24.2386 20.1057 24.0659 20.0678ZM23.2462 21.1854C23.2101 21.2196 23.2234 21.2917 23.2651 21.3126C23.4037 21.7832 23.5498 22.25 23.6769 22.7225C23.1816 22.601 22.7433 22.3923 22.2917 22.1437C22.2291 22.1096 22.155 22.176 22.1721 22.2348C22.138 22.212 22.0905 22.2082 22.0488 22.2443C21.8344 22.4265 21.6161 22.6029 21.3808 22.7585C21.21 22.8705 20.7357 23.1969 20.7527 22.7794C20.7774 22.2424 20.9691 21.7149 21.0051 21.1778C21.0089 21.1247 20.9653 21.0981 20.9216 21.0981C20.9254 21.0678 20.9178 21.0355 20.8856 21.0165C20.5819 20.8268 20.1303 20.5592 19.9956 20.2044C19.8741 19.8875 20.3011 19.9273 20.506 19.9273C20.7508 19.9292 20.9937 19.9539 21.2366 19.99C21.267 19.9937 21.2935 19.9862 21.3125 19.971C21.3448 19.9881 21.3846 19.9843 21.4074 19.9425C21.6825 19.415 21.9178 18.9292 22.3296 18.5003C22.5953 18.9558 22.7376 19.4283 22.9141 19.9273C22.9312 19.9729 22.9786 19.9956 23.0203 19.9937C23.0222 19.9994 23.0241 20.0051 23.0298 20.0089C23.1759 20.1342 23.3619 20.1475 23.546 20.1873C23.6636 20.212 23.7832 20.2385 23.9008 20.2632C23.9653 20.2765 24.2196 20.2879 24.2576 20.3353C24.4435 20.5706 23.3866 21.0507 23.2462 21.1854Z" fill="#1D1D1B"/>
<path d="M64.0366 12.1246C63.752 12.062 63.3668 11.9083 63.0745 11.969C63.0745 11.9671 63.0745 11.9633 63.0745 11.9614C63.0138 11.3846 62.7216 10.8115 62.4161 10.3276C62.3781 10.2669 62.2984 10.2574 62.2453 10.3049C61.8107 10.7109 61.3857 11.2612 61.2585 11.859C60.8923 11.7926 60.5242 11.766 60.1523 11.785C59.9587 11.7945 59.6532 11.785 59.6361 12.0411C59.6209 12.2783 59.8885 12.5611 60.0384 12.7224C60.249 12.9463 60.5033 13.1228 60.7955 13.2195C60.7993 13.2214 60.805 13.2214 60.8088 13.2214C60.6741 13.6788 60.6039 14.1664 60.5242 14.637C60.4919 14.8306 60.4445 15.1057 60.6172 15.2538C60.7936 15.4037 61.01 15.2803 61.1807 15.1892C61.5432 14.9919 61.8753 14.7395 62.1618 14.4435C62.1941 14.4112 62.196 14.3733 62.1846 14.3429C62.6362 14.7129 63.2017 14.9274 63.7709 15.0336C63.8506 15.0488 63.9285 14.9843 63.9057 14.8989C63.7653 14.3752 63.6172 13.8476 63.4237 13.341C63.6609 13.2632 63.8886 13.0867 64.0784 12.9425C64.2283 12.8286 64.5414 12.6465 64.5338 12.4226C64.5262 12.1797 64.2093 12.1626 64.0366 12.1246ZM63.2169 13.2423C63.1808 13.2765 63.1941 13.3486 63.2358 13.3695C63.3744 13.8401 63.5205 14.3069 63.6476 14.7794C63.1523 14.6579 62.714 14.4492 62.2624 14.2006C62.1998 14.1664 62.1257 14.2329 62.1428 14.2917C62.1087 14.2689 62.0612 14.2651 62.0195 14.3012C61.8051 14.4833 61.5868 14.6598 61.3515 14.8154C61.1807 14.9274 60.7064 15.2538 60.7234 14.8363C60.7481 14.2993 60.9398 13.7717 60.9758 13.2347C60.9796 13.1816 60.936 13.155 60.8923 13.155C60.8961 13.1247 60.8885 13.0924 60.8563 13.0734C60.5526 12.8837 60.101 12.6161 59.9663 12.2613C59.8448 11.9444 60.2718 11.9842 60.4767 11.9842C60.7215 11.9861 60.9644 12.0108 61.2073 12.0468C61.2377 12.0506 61.2642 12.043 61.2832 12.0279C61.3155 12.0449 61.3553 12.0411 61.3781 11.9994C61.6532 11.4719 61.8885 10.9861 62.3003 10.5572C62.566 11.0127 62.7083 11.4852 62.8848 11.9842C62.9019 12.0298 62.9493 12.0525 62.991 12.0506C62.9929 12.0563 62.9948 12.062 63.0005 12.0658C63.1466 12.1911 63.3326 12.2043 63.5167 12.2442C63.6343 12.2689 63.7539 12.2954 63.8715 12.3201C63.936 12.3334 64.1903 12.3448 64.2283 12.3922C64.4142 12.6275 63.3573 13.1076 63.2169 13.2423Z" fill="#1D1D1B"/>
<path d="M70.6631 64.4294C70.3784 64.3668 69.9932 64.2131 69.701 64.2739C69.701 64.272 69.701 64.2682 69.701 64.2663C69.6403 63.6894 69.3481 63.1163 69.0425 62.6324C69.0046 62.5717 68.9249 62.5622 68.8718 62.6097C68.4372 63.0157 68.0122 63.566 67.885 64.1638C67.5188 64.0974 67.1507 64.0708 66.7787 64.0898C66.5852 64.0993 66.2797 64.0898 66.2626 64.3479C66.2474 64.5851 66.515 64.8678 66.6649 65.0291C66.8755 65.253 67.1298 65.4295 67.422 65.5263C67.4258 65.5281 67.4315 65.5282 67.4353 65.5282C67.3006 65.9855 67.2303 66.4731 67.1507 66.9437C67.1184 67.1373 67.071 67.4124 67.2436 67.5605C67.4201 67.7104 67.6364 67.587 67.8072 67.4959C68.1697 67.2986 68.5017 67.0462 68.7883 66.7502C68.8205 66.7179 68.8224 66.68 68.811 66.6496C69.2627 67.0197 69.8281 67.2341 70.3974 67.3403C70.4771 67.3555 70.5549 67.291 70.5321 67.2056C70.3917 66.6819 70.2437 66.1544 70.0502 65.6477C70.2874 65.5699 70.5151 65.3934 70.7048 65.2492C70.8547 65.1354 71.1678 64.9532 71.1602 64.7293C71.1527 64.4864 70.8358 64.4674 70.6631 64.4294ZM69.8433 65.5471C69.8073 65.5813 69.8206 65.6534 69.8623 65.6743C70.0008 66.1449 70.1469 66.6117 70.2741 67.0842C69.7788 66.9627 69.3405 66.754 68.8888 66.5073C68.8262 66.4731 68.7522 66.5396 68.7693 66.5984C68.7351 66.5756 68.6877 66.5718 68.6459 66.6079C68.4315 66.79 68.2133 66.9665 67.978 67.1221C67.8072 67.2341 67.3328 67.5605 67.3499 67.143C67.3746 66.606 67.5662 66.0785 67.6023 65.5414C67.6061 65.4883 67.5624 65.4617 67.5188 65.4617C67.5226 65.4314 67.515 65.3991 67.4827 65.3801C67.1791 65.1904 66.7275 64.9228 66.5928 64.568C66.4713 64.2511 66.8983 64.2909 67.1032 64.2909C67.348 64.2928 67.5909 64.3175 67.8338 64.3535C67.8641 64.3573 67.8907 64.3497 67.9097 64.3346C67.9419 64.3516 67.9818 64.3479 68.0046 64.3061C68.2797 63.7786 68.515 63.2928 68.9268 62.8639C69.1925 63.3194 69.3348 63.7919 69.5112 64.2909C69.5283 64.3365 69.5758 64.3592 69.6175 64.3573C69.6194 64.363 69.6213 64.3687 69.627 64.3725C69.7731 64.4978 69.9591 64.511 70.1431 64.5509C70.2608 64.5756 70.3803 64.6021 70.498 64.6268C70.5625 64.6401 70.8168 64.6515 70.8547 64.6989C71.0407 64.9323 69.9837 65.4124 69.8433 65.5471Z" fill="#1D1D1B"/>
<path d="M26.2331 72.4733C25.9485 72.4107 25.5633 72.2569 25.2711 72.3177C25.2711 72.3158 25.2711 72.312 25.2711 72.3101C25.2103 71.7332 24.9181 71.1601 24.6126 70.6763C24.5747 70.6155 24.495 70.606 24.4418 70.6535C24.0073 71.0596 23.5822 71.6099 23.4551 72.2076C23.0889 72.1412 22.7207 72.1146 22.3488 72.1336C22.1552 72.1431 21.8497 72.1336 21.8327 72.3917C21.8175 72.6289 22.085 72.9116 22.2349 73.0729C22.4456 73.2968 22.6998 73.4733 22.9921 73.5701C22.9959 73.572 23.0016 73.572 23.0054 73.572C22.8706 74.0293 22.8004 74.517 22.7207 74.9876C22.6885 75.1811 22.641 75.4563 22.8137 75.6043C22.9902 75.7542 23.2065 75.6309 23.3773 75.5398C23.7397 75.3424 24.0718 75.09 24.3583 74.794C24.3906 74.7618 24.3925 74.7238 24.3811 74.6934C24.8327 75.0635 25.3982 75.2779 25.9675 75.3842C26.0472 75.3993 26.125 75.3348 26.1022 75.2494C25.9618 74.7257 25.8138 74.1982 25.6202 73.6915C25.8574 73.6137 26.0851 73.4372 26.2749 73.293C26.4248 73.1792 26.7379 72.997 26.7303 72.7731C26.7227 72.5283 26.4058 72.5112 26.2331 72.4733ZM25.4134 73.5909C25.3773 73.6251 25.3906 73.6972 25.4324 73.7181C25.5709 74.1887 25.717 74.6555 25.8441 75.128C25.3489 75.0065 24.9105 74.7978 24.4589 74.5492C24.3963 74.5151 24.3223 74.5815 24.3394 74.6403C24.3052 74.6175 24.2578 74.6137 24.216 74.6498C24.0016 74.832 23.7834 75.0084 23.5481 75.164C23.3773 75.276 22.9029 75.6024 22.92 75.1849C22.9446 74.6479 23.1363 74.1204 23.1723 73.5834C23.1761 73.5302 23.1325 73.5037 23.0889 73.5037C23.0926 73.4733 23.0851 73.441 23.0528 73.4221C22.7492 73.2323 22.2995 72.9647 22.1628 72.6099C22.0414 72.293 22.4683 72.3328 22.6733 72.3328C22.9181 72.3347 23.161 72.3594 23.4038 72.3955C23.4342 72.3993 23.4608 72.3917 23.4798 72.3765C23.512 72.3936 23.5519 72.3898 23.5746 72.348C23.8498 71.8205 24.0851 71.3347 24.4969 70.9059C24.7625 71.3613 24.9048 71.8338 25.0813 72.3328C25.0984 72.3784 25.1458 72.4012 25.1876 72.3993C25.1895 72.405 25.1914 72.4107 25.1971 72.4144C25.3432 72.5397 25.5291 72.553 25.7132 72.5928C25.8309 72.6175 25.9504 72.6441 26.0681 72.6687C26.1326 72.682 26.3869 72.6934 26.4248 72.7408C26.6108 72.9761 25.5538 73.4562 25.4134 73.5909Z" fill="#1D1D1B"/>
<path d="M61.0935 46.7346C60.8089 46.672 60.4237 46.5183 60.1314 46.579C60.1314 46.5771 60.1314 46.5733 60.1314 46.5714C60.0707 45.9946 59.7785 45.4215 59.473 44.9376C59.435 44.8769 59.3553 44.8674 59.3022 44.9148C58.8676 45.3209 58.4426 45.8712 58.3154 46.469C57.9492 46.4025 57.5811 46.376 57.2091 46.395C57.0156 46.4044 56.7101 46.395 56.693 46.6511C56.6778 46.8883 56.9454 47.1711 57.0953 47.3324C57.3059 47.5563 57.5602 47.7328 57.8524 47.8295C57.8562 47.8314 57.8619 47.8314 57.8657 47.8314C57.731 48.2887 57.6608 48.7764 57.5811 49.247C57.5488 49.4406 57.5014 49.7157 57.674 49.8637C57.8505 50.0136 58.0669 49.8903 58.2376 49.7992C58.6001 49.6019 58.9322 49.3495 59.2187 49.0535C59.2509 49.0212 59.2528 48.9833 59.2415 48.9529C59.6931 49.3229 60.2586 49.5374 60.8278 49.6436C60.9075 49.6588 60.9853 49.5943 60.9626 49.5089C60.8221 48.9852 60.6741 48.4576 60.4806 47.951C60.7178 47.8732 60.9455 47.6967 61.1352 47.5525C61.2852 47.4386 61.5983 47.2565 61.5907 47.0325C61.585 46.7897 61.2681 46.7726 61.0935 46.7346ZM60.2756 47.8504C60.2396 47.8846 60.2529 47.9567 60.2946 47.9775C60.4331 48.4481 60.5793 48.9149 60.7064 49.3874C60.2111 49.266 59.7728 49.0573 59.3212 48.8087C59.2585 48.7745 59.1845 48.8409 59.2016 48.8998C59.1675 48.877 59.12 48.8732 59.0783 48.9093C58.8638 49.0914 58.6456 49.2679 58.4103 49.4235C58.2395 49.5355 57.7651 49.8618 57.7822 49.4444C57.8069 48.9074 57.9985 48.3798 58.0346 47.8428C58.0384 47.7897 57.9947 47.7631 57.9511 47.7631C57.9549 47.7328 57.9473 47.7005 57.915 47.6815C57.6114 47.4918 57.1598 47.2242 57.0251 46.8694C56.9036 46.5525 57.3306 46.5923 57.5355 46.5923C57.7803 46.5942 58.0232 46.6189 58.2661 46.6549C58.2965 46.6587 58.323 46.6511 58.342 46.636C58.3743 46.653 58.4141 46.6492 58.4369 46.6075C58.712 46.08 58.9473 45.5942 59.3591 45.1653C59.6248 45.6207 59.7671 46.0932 59.9436 46.5923C59.9606 46.6378 60.0081 46.6606 60.0498 46.6587C60.0517 46.6644 60.0536 46.6701 60.0593 46.6739C60.2054 46.7991 60.3914 46.8124 60.5755 46.8523C60.6931 46.8769 60.8127 46.9035 60.9303 46.9282C60.9948 46.9415 61.2491 46.9528 61.2871 47.0003C61.473 47.2375 60.4142 47.7157 60.2756 47.8504Z" fill="#1D1D1B"/>
<path d="M33.5502 16.0089C34.1289 15.155 33.9221 13.9083 32.8765 13.489C32.3433 13.2745 31.7532 13.4187 31.3604 13.7679C27.5443 10.2612 21.696 9.25355 17.0734 11.7735C12.5382 14.248 9.92904 19.4796 11.0999 24.5689C11.6862 27.1174 13.1834 29.7361 15.4244 31.1858C14.6426 31.6754 14.1151 32.7608 14.7736 33.4629C15.8172 34.5749 17.5156 33.3794 17.8609 32.2048C18.2367 32.8443 19.0925 33.165 19.7946 32.8443C20.5327 32.5084 20.7775 31.6564 20.5403 30.9429C21.324 31.2447 22.307 31.0568 22.7112 30.2427C23.1192 29.423 22.658 28.4495 21.8535 28.1326C22.7131 27.0453 22.4038 25.3735 20.9692 24.9238C19.6029 24.4968 18.4587 25.5595 18.4283 26.8536C18.1437 26.5766 17.785 26.5462 17.4681 26.6677C15.8495 24.2369 14.9557 20.14 17.0431 17.7149C18.9502 15.4985 22.7624 14.9387 25.2198 16.4814C25.0528 16.7945 25.0129 17.1589 25.0775 17.508C23.3298 15.5782 19.1912 16.1551 17.6636 18.0526C16.6389 19.3259 16.4434 21.03 16.6712 22.5993C16.8552 23.8801 17.2177 25.4134 18.4511 26.0699C18.5346 26.1136 18.5972 25.9997 18.5232 25.9447C16.3979 24.3621 16.2897 20.1741 17.8761 18.2158C19.3373 16.4112 23.419 15.8723 24.9902 17.8382C25.0471 17.9084 25.123 17.8951 25.1742 17.8458C25.326 18.2234 25.605 18.5441 25.9845 18.6997C25.2217 18.9749 24.6031 19.732 24.9351 20.5802C25.1629 21.1628 25.7891 21.3848 26.3052 21.1742C26.1154 22.0205 26.6999 22.9105 27.6715 22.8839C28.8878 22.8497 29.4419 21.5442 28.9182 20.5404C28.9144 20.5328 28.9087 20.5309 28.9049 20.5252C29.5083 20.6827 30.2749 20.8326 30.7721 20.3468C30.9562 20.1666 31.07 19.9313 31.0795 19.6979C32.1858 20.5537 34.2561 19.8819 34.9828 18.8212C35.7628 17.6845 35.0986 15.5573 33.5502 16.0089ZM11.1814 23.3109C10.8076 20.1647 11.8665 17.0355 13.95 14.6655C18.4245 9.57614 26.2502 9.48505 31.1516 14.0013C30.9998 14.2157 30.9106 14.4757 30.9201 14.7603C30.5596 13.9823 29.6165 13.5117 28.7834 13.7318C28.774 13.7091 28.7588 13.6882 28.736 13.673C24.2254 10.4187 17.8572 11.1682 14.3352 15.5004C11.0429 19.5498 11.1814 25.9883 15.1588 29.5786C15.0677 30.1497 15.3656 30.6868 15.8305 30.9942C15.747 31.0207 15.6654 31.0568 15.5857 31.0966C13.2232 29.0397 11.5591 26.4988 11.1814 23.3109ZM17.5573 27.0054C17.8723 26.903 18.25 26.9865 18.4359 27.2749C18.4511 27.2977 18.4701 27.311 18.489 27.3185C18.5612 27.3963 18.6959 27.3072 18.6807 27.199C18.4758 25.8441 19.675 24.7075 20.9958 25.2198C22.2311 25.6999 22.3848 27.1952 21.5024 28.0966C21.4284 28.1725 21.4588 28.3148 21.5669 28.3395C22.4797 28.552 22.9009 29.7057 22.2026 30.3869C21.658 30.9164 20.8686 30.8803 20.2709 30.4477C20.1494 30.3604 19.9768 30.535 20.0621 30.6564C20.4682 31.2276 20.4322 32.1574 19.7433 32.5312C19.0431 32.9126 18.2955 32.4136 17.9748 31.7949C17.9141 31.6754 17.7357 31.7361 17.7262 31.8519C17.6845 31.8614 17.6484 31.8898 17.6351 31.9468C17.4606 32.7191 16.9122 33.3775 16.0981 33.5047C14.7072 33.7191 14.6483 31.7931 15.6199 31.3035C15.6635 31.33 15.7072 31.3604 15.7508 31.3851C15.804 31.4154 15.8704 31.3376 15.8191 31.2959C15.8002 31.2788 15.7812 31.2617 15.7603 31.2447C15.9444 31.1839 16.1588 31.1706 16.4036 31.2257C16.582 31.2598 16.6598 30.9923 16.4795 30.9505C15.7622 30.812 15.1322 30.0511 15.5421 29.2863C15.8685 28.6772 16.5934 28.5994 17.1778 28.7721C17.2556 28.7949 17.2993 28.6867 17.2347 28.6431C17.2328 28.6355 17.2309 28.6279 17.2272 28.6203C17.0032 28.1782 16.8476 27.5633 17.2651 27.1705C17.2727 27.1629 17.2822 27.1592 17.2898 27.1516C17.3315 27.1421 17.3771 27.1345 17.4264 27.1288C17.4719 27.0851 17.5156 27.0434 17.5573 27.0054ZM16.7774 17.6276C14.8381 19.9958 15.3865 24.4817 17.305 26.7474C16.804 27.0396 16.4776 27.7189 16.8609 28.3489C16.8856 28.4078 16.9122 28.4647 16.9444 28.5178C16.7034 28.4419 16.4453 28.4381 16.2025 28.4951C16.1987 28.478 16.1911 28.4609 16.1759 28.4457C12.8969 25.1496 12.3655 19.9407 15.3846 16.2765C18.4606 12.544 23.5727 12.2157 27.495 14.7452C27.6107 14.8192 27.7587 14.637 27.6449 14.5497C23.8156 11.5857 18.0773 12.4832 15.1076 16.1949C12.1739 19.861 12.5173 25.3602 15.9937 28.5615C15.637 28.7038 15.3372 28.9846 15.2081 29.3736C11.7507 25.4077 11.1511 19.6523 14.711 15.4966C18.1703 11.4585 24.1609 10.8153 28.4817 13.8495C28.4779 13.8514 28.4722 13.8533 28.4684 13.8552C27.6734 14.2613 27.3375 15.2955 27.6468 16.1019C27.4039 15.9065 27.0984 15.785 26.7853 15.7452C25.5044 14.5231 23.751 14.0222 21.9939 14.1322C20.2007 14.2461 17.6484 14.8002 16.4605 16.2784C15.2973 17.7263 14.2859 19.5783 14.2916 21.4759C14.2973 23.641 15.3751 25.772 16.5156 27.5538C16.5744 27.6468 16.711 27.5652 16.6617 27.4685C15.7888 25.7056 14.728 23.9693 14.5724 21.9598C14.4244 20.0603 15.2973 18.4094 16.3467 16.8932C17.4719 15.2651 19.7433 14.6332 21.6409 14.4396C23.3393 14.267 25.0566 14.6408 26.3564 15.7414C25.9788 15.785 25.6202 15.952 25.3697 16.2556C25.3678 16.2575 25.3678 16.2594 25.3659 16.2594C22.8857 14.4681 18.6617 15.3258 16.7774 17.6276ZM34.1308 19.2386C33.2295 19.8212 31.7152 20.0565 30.9524 19.1494C30.8499 19.028 30.6412 19.1874 30.7304 19.3202C30.7759 19.3866 30.8252 19.4455 30.8765 19.5024C30.8992 19.8155 30.7095 20.1381 30.4324 20.288C29.9884 20.529 29.4248 20.3829 28.9675 20.2633C28.8328 20.2273 28.7645 20.3905 28.8309 20.474C28.7455 20.4664 28.6525 20.5613 28.6999 20.6656C29.0738 21.4892 28.6962 22.586 27.6753 22.6163C26.7549 22.6429 26.2672 21.6637 26.6885 20.9066C26.7606 20.7776 26.5879 20.6391 26.4817 20.7472C25.7549 21.4759 24.9294 20.5461 25.1628 19.7624C25.3241 19.2216 25.7928 18.9578 26.2691 18.7623C26.3507 18.7282 26.3242 18.6105 26.235 18.6257C26.2274 18.6124 26.2179 18.5991 26.2008 18.5916C25.4532 18.2424 25.0148 17.2291 25.5291 16.4985C25.7966 16.1171 26.2255 15.9729 26.6487 16.0089C26.6771 16.0374 26.7075 16.064 26.7359 16.0943C26.81 16.1702 26.9048 16.1342 26.9504 16.0678C27.2825 16.1645 27.5861 16.3714 27.7701 16.6617C27.8479 16.7832 28.0149 16.713 28.0187 16.5972C28.0643 16.5782 28.0984 16.5232 28.0681 16.472C27.6012 15.7129 27.6923 14.5915 28.5406 14.119C29.4096 13.6351 30.4799 14.2252 30.7664 15.1057C30.8101 15.2423 30.9922 15.2158 31.0207 15.1038C31.0624 15.1095 31.1061 15.0829 31.1042 15.0336C31.0909 14.711 31.1877 14.4093 31.3528 14.1683C31.4761 14.2043 31.6033 14.0658 31.5387 13.9501C31.8784 13.6313 32.3775 13.5098 32.8879 13.7793C33.8045 14.2613 33.7817 15.3865 33.1517 16.0905C33.0397 16.2139 33.2162 16.3942 33.3357 16.2746C33.3528 16.2575 33.3661 16.2386 33.3832 16.2215C33.3851 16.2215 33.3889 16.2215 33.3908 16.2215C35.3472 15.8913 35.4724 18.3714 34.1308 19.2386Z" fill="#1D1D1B"/>
<path d="M75.405 52.9738C74.7313 51.7081 73.1601 51.672 72.2645 52.5753C72.3366 51.3077 71.4941 50.1464 70.1411 49.9338C68.4124 49.6644 67.0708 50.9244 66.6476 52.4842C66.122 51.2337 65.2681 50.1217 63.7348 50.6663C62.5773 51.0781 61.5849 52.209 61.7158 53.4482C61.3704 52.5904 60.3401 52.1161 59.4861 52.7214C59.0061 53.0611 58.7252 53.6569 58.8315 54.2413C58.9586 54.9397 59.4444 55.1104 59.9529 55.4672C60.3268 55.7291 60.1826 55.3381 60.156 55.8315C60.137 56.194 60.0383 56.4938 60.1085 56.8733C60.2186 57.4691 60.5583 57.9872 61.0744 58.3079C61.9056 58.8259 63.2832 58.7538 63.7823 57.9151C64.0726 59.3458 65.3516 60.547 66.881 60.4882C68.4617 60.4256 69.6629 59.0271 69.7654 57.5204C70.4713 58.5299 71.7275 59.1105 72.9248 58.4711C73.9173 57.9397 74.219 56.7291 73.6687 55.8334C75.0824 55.7879 76.1336 54.3419 75.405 52.9738ZM73.441 55.5374C73.4068 55.5013 73.3746 55.4634 73.3385 55.4292C73.2171 55.3173 73.0349 55.4956 73.1563 55.6114C73.1677 55.6228 73.1753 55.6342 73.1867 55.6437C73.181 55.7196 73.2265 55.805 73.3233 55.8182C73.329 55.8182 73.3347 55.8201 73.3423 55.8201C74.1013 56.8183 73.4827 58.1997 72.1981 58.4198C71.0842 58.6115 70.2075 57.8885 69.7464 56.934C69.6876 56.8145 69.475 56.8676 69.4902 57.0042C69.6496 58.5337 68.5092 60.1656 66.8867 60.232C65.2624 60.2984 63.9569 58.8373 63.9758 57.2699C63.9777 57.1086 63.7329 57.1105 63.7253 57.2699C63.6551 58.7462 61.657 58.5565 60.9283 57.8828C60.2471 57.2509 60.1863 56.2547 60.5924 55.4615C60.6361 55.378 60.5829 55.2755 60.4843 55.2736C59.3495 55.2603 58.5677 53.9301 59.4691 53.0478C60.3021 52.2318 61.5222 52.9073 61.7348 53.9188C61.7443 53.9681 61.8145 53.9624 61.8278 53.9226C61.8828 54.0155 62.0441 53.9662 62.0118 53.8485C61.6665 52.5961 62.5526 51.4026 63.7045 50.9604C65.3117 50.3437 66.0935 51.672 66.5603 52.9719C66.6002 53.0819 66.7918 53.1123 66.8146 52.9719C67.0442 51.5487 68.0423 50.2318 69.5908 50.1729C71.1772 50.1122 72.458 51.6056 71.8641 53.1464C71.8034 53.3058 72.0614 53.414 72.1392 53.2622C72.7673 52.0382 74.5795 51.8428 75.1811 53.2261C75.7143 54.4634 74.6972 55.6133 73.441 55.5374Z" fill="#1D1D1B"/>
<path d="M17.0735 58.1067C16.7794 56.2091 14.6351 55.9112 13.3125 56.9169C13.0468 56.1047 12.5535 55.2205 11.5933 55.1958C10.6976 55.173 10.3352 55.9586 10.153 56.712C9.7697 56.1484 9.18714 55.5582 8.46796 55.8998C7.71462 56.2565 7.81709 57.5033 7.92904 58.2775C7.08841 57.5962 6.24019 58.8581 6.40528 59.7424C6.57607 60.6476 7.70323 61.5565 8.40534 60.8221C8.53627 61.8753 9.00308 63.0176 10.1986 63.1505C11.284 63.2719 11.9975 62.1656 12.1132 61.1656C12.3846 61.4654 12.802 61.6001 13.2404 61.4939C13.9842 61.3136 14.267 60.5698 14.3049 59.8752C15.5478 60.7311 17.3202 59.695 17.0735 58.1067ZM14.2708 59.5033C14.1911 59.4274 14.0393 59.4786 14.0431 59.5982C14.0582 59.991 14.0412 60.3553 13.7964 60.6874C13.7148 60.9986 13.506 61.1428 13.1683 61.1201C12.7148 61.3781 12.3656 61.2282 12.1208 60.6703C12.0791 60.5394 11.8551 60.5527 11.8684 60.7045C11.9633 61.8013 11.0752 63.308 9.80955 62.7672C8.9025 62.3782 8.68238 61.361 8.62735 60.4749C8.61976 60.3553 8.45467 60.2946 8.39205 60.4104C7.62733 60.8867 7.13206 60.8278 6.90245 60.2377C6.76962 60.0764 6.68613 59.8961 6.65387 59.6912C6.48878 58.9416 7.19278 57.9966 7.9651 58.4995C7.96889 58.5204 7.97269 58.5431 7.97459 58.564C8.00305 58.7405 8.27061 58.6646 8.24214 58.49C8.17004 58.0365 8.05808 57.3799 8.20419 56.915C8.20229 56.2926 8.66531 56.1294 9.59702 56.4254C9.79057 56.6456 9.95756 56.8846 10.098 57.1427C10.1549 57.2395 10.3295 57.2319 10.3523 57.1105C10.487 56.3875 10.6957 55.3229 11.8134 55.5089C12.5781 55.636 12.9254 56.5602 13.1076 57.1921C13.1379 57.2964 13.2632 57.323 13.3391 57.2528C14.3979 56.304 16.2841 56.3419 16.749 57.9037C17.1874 59.3705 15.4321 60.5944 14.2708 59.5033Z" fill="#1D1D1B"/>
<path d="M41.184 5.44694C40.6223 4.17936 38.7627 4.05601 38.0834 5.22493C38.0473 4.3786 37.423 3.57403 36.5672 3.41084C35.7304 3.25144 34.867 3.7524 34.5349 4.50954C34.144 3.94975 33.4096 3.66132 32.7473 4.03135C32.2805 4.28942 32.273 4.70119 32.0168 5.07881C31.8441 5.33309 31.6278 5.15851 31.2748 5.12815C31.1439 5.11676 31.0243 5.11676 30.9067 5.12246C30.8953 5.10158 30.8763 5.0845 30.846 5.0883C30.7188 5.09779 30.5993 5.13005 30.4854 5.17559C30.4342 5.18508 30.3811 5.19646 30.3279 5.20785C30.2957 5.21544 30.2881 5.2439 30.2957 5.27047C29.7738 5.59116 29.493 6.27239 29.7662 6.88721C30.1363 7.71835 31.1667 7.76579 31.8403 7.32176C31.6335 8.32178 31.8213 9.54003 32.9808 9.79241C34.218 10.0619 35.0301 8.99922 35.1611 7.90811C35.3205 8.31229 35.7095 8.6197 36.163 8.6197C36.5027 8.6197 36.8063 8.43184 36.9885 8.16239C37.1782 9.27058 37.9486 10.4471 39.2181 9.96509C40.1441 9.61404 40.4307 8.37302 39.8234 7.69368C40.1897 7.66522 40.5616 7.49444 40.8197 7.26483C41.3396 6.80372 41.463 6.07504 41.184 5.44694ZM39.4117 7.39386C39.3832 7.38058 39.3566 7.3635 39.3244 7.35212C39.2997 7.34263 39.2769 7.35591 39.2618 7.37489C39.2352 7.37109 39.2105 7.3692 39.1859 7.3654C39.091 7.35022 39.0378 7.46407 39.1194 7.521C39.2314 7.5988 39.3547 7.64624 39.4838 7.67281C39.7798 7.9916 39.9677 8.3901 39.8766 8.85311C39.7665 9.4053 39.2333 9.78103 38.6849 9.78292C37.5539 9.78672 37.3186 8.49257 37.1801 7.63106C37.1782 7.61398 37.1725 7.6007 37.1649 7.58932C37.1649 7.57034 37.1649 7.55136 37.163 7.53049C37.1592 7.47546 37.07 7.45269 37.0587 7.51721C37.0568 7.5267 37.053 7.53618 37.0511 7.54567C36.996 7.55516 36.9429 7.59691 36.9429 7.66142C36.9429 7.71456 36.9467 7.76959 36.9505 7.82651C36.812 8.09597 36.571 8.3066 36.2503 8.33696C35.7683 8.38251 35.3945 7.9916 35.3508 7.53049C35.3413 7.42992 35.2465 7.38817 35.1744 7.40715C35.1744 7.40525 35.1744 7.40335 35.1744 7.40145C35.163 7.26483 34.9618 7.26103 34.958 7.40145C34.9448 8.03335 34.8309 8.70889 34.328 9.15103C33.8328 9.58747 33.0073 9.7222 32.4722 9.23642C31.846 8.66714 31.9693 7.67471 32.2103 6.96122C32.2502 6.84167 32.0737 6.73161 31.9902 6.83408C31.4817 7.46407 30.5708 7.54567 30.142 6.80561C29.8099 6.23254 30.0167 5.57977 30.6107 5.30842C31.1211 5.3255 31.6031 5.38432 32.0946 5.557C32.1686 5.58357 32.2502 5.51526 32.2483 5.43935C32.2008 4.0655 33.8878 3.74481 34.4324 4.82264C34.4229 4.86438 34.4134 4.90613 34.4077 4.94788C34.3982 5.01809 34.4704 5.05414 34.5159 5.02188C34.5273 5.05984 34.5387 5.09779 34.5501 5.13764C34.588 5.29134 34.8176 5.22493 34.7854 5.07312C34.7588 4.94598 34.7132 4.82454 34.6582 4.70878C34.9979 4.01237 35.7019 3.48674 36.5197 3.65562C37.4458 3.84538 37.9031 4.72017 37.8329 5.60634C37.8234 5.73348 38.034 5.76384 38.0587 5.6367C38.0644 5.61014 38.0663 5.58167 38.0701 5.55511C38.0758 5.55131 38.0796 5.54751 38.0834 5.54182C38.7836 4.6158 40.22 4.15848 40.9013 5.42038C41.1878 5.9536 41.1442 6.59308 40.6982 7.02384C40.3073 7.40335 39.8842 7.4451 39.4117 7.39386Z" fill="#1D1D1B"/>
<path d="M11.7505 30.6753C11.278 29.5386 9.73719 29.457 9.08442 30.3489C8.92312 29.2938 7.77888 28.6031 6.68777 28.8669C5.96669 29.0415 5.40121 29.55 5.10518 30.2237C4.92302 30.6354 4.73515 31.2768 4.94768 31.7171C4.02356 31.8954 3.42392 32.9068 3.94007 33.7721C4.31199 34.3945 5.04067 34.4913 5.57768 34.146C5.46193 34.9335 5.66118 35.8272 6.67259 35.7513C7.66502 35.6773 8.02367 34.7456 8.09578 33.8765C8.46581 34.1687 9.01231 34.2219 9.42598 33.9372C9.82068 33.6678 9.99336 33.1516 9.89089 32.7C11.02 33.1687 12.2363 31.8461 11.7505 30.6753ZM9.8074 32.4666C9.77324 32.3964 9.73149 32.3281 9.68026 32.2655C9.58538 32.1478 9.4127 32.2977 9.47722 32.4211C9.70113 32.8423 9.68026 33.4268 9.24192 33.7114C8.89276 33.9391 8.42785 33.8651 8.10716 33.6184C8.10906 33.5273 8.10906 33.4382 8.10526 33.3528C8.09957 33.1953 7.86237 33.1934 7.85858 33.3528C7.85858 33.3698 7.85858 33.385 7.85668 33.4021C7.80734 33.4002 7.7618 33.4457 7.79027 33.5065C7.80734 33.5425 7.82822 33.5767 7.84909 33.6108C7.82822 34.1725 7.7599 34.7987 7.32346 35.1858C6.74849 35.6963 5.86612 35.5654 5.77124 34.6336C5.74467 34.3642 5.84334 34.0606 5.91925 33.8063C5.96669 33.6507 5.76175 33.5919 5.67636 33.7038C5.05964 34.5046 4.04443 33.9543 4.03684 33.0757C4.03115 32.423 4.47329 32.0795 5.03118 31.8575C5.04446 31.8745 5.05774 31.8935 5.07482 31.9106C5.10708 31.9448 5.15642 31.9542 5.20196 31.9448C5.24371 31.9353 5.28545 31.9239 5.3272 31.9144C5.45434 31.884 5.41829 31.7038 5.29684 31.6962C5.06154 31.681 5.18678 30.8271 5.20386 30.7626C5.25699 30.5519 5.33289 30.3451 5.43347 30.1515C5.7219 29.5975 6.24184 29.2198 6.85286 29.1022C7.94207 28.8953 8.79219 29.6411 8.90604 30.6639C8.87758 30.7341 8.85291 30.8081 8.83394 30.8878C8.79978 31.032 8.98195 31.0908 9.05595 30.9827C9.06165 30.977 9.06354 30.9713 9.06734 30.9637C9.06924 30.9599 9.07114 30.958 9.07303 30.9542C9.50758 29.7929 11.1661 29.6316 11.5342 30.9352C11.8473 32.051 10.7562 32.6696 9.8074 32.4666Z" fill="#1D1D1B"/>
<path d="M78.8494 36.3035C78.728 35.4401 77.8095 34.4818 76.9423 34.9543C76.8835 33.9391 76.282 32.7494 75.1131 32.8746C74.3939 32.9505 73.6899 33.8898 74.0238 34.5881C73.0713 34.0644 71.5703 34.3035 71.5247 35.6299C71.502 36.2864 72.1813 36.8102 72.7638 36.7115C72.2857 37.5104 72.4526 38.7761 73.299 39.2429C74.2421 39.7609 74.8948 38.9355 75.225 38.0911C75.3104 38.5939 75.8493 39.0152 76.3731 39.0057C77.0163 38.9924 77.616 38.3529 77.6843 37.7058C77.8949 37.8842 78.2289 37.8728 78.4661 37.7002C78.8817 37.4003 78.912 36.7608 78.8494 36.3035ZM78.6065 36.8709C78.5553 37.2998 78.1378 37.9051 77.6881 37.4762C77.6824 37.425 77.6748 37.3738 77.6615 37.3225C77.6425 37.2504 77.5344 37.2504 77.5154 37.3225C77.3674 37.8671 77.263 38.4478 76.6653 38.6812C75.9916 38.945 75.3009 38.3226 75.4186 37.6299C75.4224 37.6034 75.411 37.5806 75.392 37.5654C75.4167 37.4611 75.4375 37.3605 75.4508 37.2675C75.4698 37.1328 75.2781 37.0702 75.2402 37.2106C75.1301 37.6167 75.0542 38.0474 74.8398 38.4174C74.5324 38.9488 73.8265 39.3928 73.2591 38.9013C72.5665 38.3036 72.6879 37.3415 73.0447 36.6071C73.1453 36.5464 73.2401 36.461 73.3179 36.3453C73.3863 36.2447 73.2363 36.1365 73.1529 36.2181C72.5172 36.8386 71.5456 36.1745 71.817 35.3452C72.1433 34.3452 73.3217 34.3984 74.1016 34.7684C74.1282 34.7817 74.1529 34.7741 74.17 34.7589C74.2212 34.7627 74.2724 34.719 74.2629 34.6507C74.2098 34.275 74.1719 33.9543 74.3806 33.6128C74.6045 33.2446 74.9954 33.0587 75.4205 33.1251C76.3769 33.2712 76.6501 34.2352 76.7753 35.0644C76.764 35.072 76.7545 35.0777 76.7431 35.0872C76.6786 35.1403 76.7317 35.2219 76.8 35.2295C76.8038 35.2561 76.8076 35.2826 76.8114 35.3092C76.8228 35.3927 76.9366 35.3965 76.9442 35.3092C76.948 35.2674 76.948 35.2238 76.948 35.1821C77.6312 34.9164 78.2934 35.3016 78.5249 36.0037C78.6141 36.2827 78.6407 36.5806 78.6065 36.8709Z" fill="#1D1D1B"/>
</svg>
