<svg width="80" height="80" viewBox="0 0 80 80" fill="none" xmlns="http://www.w3.org/2000/svg">
<rect width="80" height="80" fill="white"/>
<path d="M72.8703 38.8186C72.857 41.6634 72.4626 44.472 71.8281 47.2291C71.2564 49.7194 70.4886 52.166 69.3015 54.4544C69.0214 54.9936 68.7203 55.5195 68.3374 55.992C68.2383 56.114 68.1316 56.2302 68.0211 56.3407C67.9429 56.4189 67.8496 56.497 67.7276 56.4436C67.5981 56.3865 67.6133 56.2607 67.6285 56.1521C67.6628 55.9063 67.72 55.6643 67.8515 55.4509C68.0515 55.1251 68.2421 54.7955 68.4612 54.483C69.3682 53.1892 69.8807 51.7506 70.1265 50.1977C70.2923 49.1535 70.6429 48.1551 71.0183 47.17C71.1555 46.8099 71.2774 46.4498 71.325 46.0706C71.7023 43.0181 72.1748 39.9733 72.1806 36.8865C72.1806 36.6312 72.0891 36.2425 72.4225 36.2006C72.8132 36.1491 72.7103 36.5721 72.7579 36.8027C72.9008 37.4677 72.8665 38.146 72.8703 38.8186Z" fill="#0C1212"/>
<path d="M15.5899 40.924C15.5422 39.8398 15.8242 38.8299 16.4168 37.9268C17.2133 36.7111 18.2517 35.7813 19.6693 35.3259C20.3991 35.0915 21.0622 34.7085 21.7253 34.3256C22.8952 33.651 23.5335 32.5364 24.1775 31.4255C24.511 30.8501 24.7834 30.7072 25.437 30.8501C26.0124 30.9759 26.4545 31.2998 26.826 31.7456C27.5558 32.6221 27.9369 33.6206 28.0188 34.7638C28.1236 36.2462 27.8607 37.6067 27.0661 38.8909C26.4526 39.8855 25.8791 40.903 25.2255 41.8748C24.5167 42.9323 24.0384 44.0889 23.9279 45.375C23.9051 45.6456 23.9051 45.9142 23.9527 46.1829C24.1394 47.2328 24.4252 47.4557 25.4675 47.6844C27.2643 48.0769 28.6762 47.4443 29.9052 46.1867C30.5225 45.5541 31.0541 44.8644 31.4886 44.0946C31.721 43.683 31.9764 43.2867 32.2241 42.8846C32.6471 42.1987 32.9176 41.4861 32.7557 40.6496C32.6737 40.2285 32.7157 39.7903 32.9176 39.3958C33.0358 39.1653 33.0567 38.9233 33.0834 38.6775C33.4054 35.7413 34.28 32.9651 35.4899 30.2842C36.1473 28.8285 37.1495 27.6052 38.1746 26.4143C40.1144 24.1602 42.3742 22.272 45.0303 20.9115C48.7192 19.0213 52.6176 17.8743 56.7943 17.8076C56.9734 17.8038 57.1563 17.8114 57.3335 17.7885C59.7134 17.4875 61.9198 18.1105 64.0958 18.9889C66.2927 19.8769 68.3734 20.9744 70.3417 22.2853C71.1306 22.8112 71.7841 23.4743 72.3615 24.246C73.2913 25.4845 74.3145 26.6525 75.3129 27.8396C75.7169 28.3197 76.2637 28.5712 76.8639 28.7389C77.7499 28.9866 78.171 29.5277 78.2225 30.4404C78.2282 30.5509 78.2187 30.6672 78.1882 30.7739C78.1063 31.0597 77.9367 31.1245 77.6814 30.9739C77.4413 30.8329 77.2774 30.6119 77.144 30.3795C76.9897 30.1127 76.7896 29.9241 76.4867 29.844C74.6613 29.3601 73.4209 28.1425 72.3748 26.6449C71.847 25.8903 71.2354 25.1968 70.6523 24.4822C70.5246 24.326 70.376 24.1812 70.2122 24.0649C68.3906 22.7826 66.5443 21.5479 64.4292 20.7705C63.2079 20.3208 62.0399 19.732 60.7709 19.3967C60.0049 19.1947 59.2332 19.1033 58.4425 19.0613C54.2391 18.8346 50.3216 19.9302 46.5832 21.7099C43.6565 23.1027 41.2519 25.2025 39.1959 27.6986C38.7672 28.2187 38.3728 28.7675 37.9574 29.301C37.3439 30.0879 36.8713 30.9511 36.5322 31.8904C36.3416 32.4182 36.132 32.9422 35.9034 33.4548C35.166 35.1068 34.8211 36.8807 34.2876 38.5975C34.2247 38.7975 34.2971 38.9443 34.3715 39.1081C34.5868 39.5845 34.5849 40.0646 34.4134 40.5524C33.937 41.911 33.4035 43.239 32.7042 44.5081C31.7039 46.3277 30.2729 47.6882 28.4494 48.6142C26.9899 49.3535 25.4827 49.2335 24.0308 48.5266C23.4249 48.2312 23.1162 47.6748 23.0019 47.0213C22.8152 45.9409 22.8571 44.8739 23.221 43.8259C23.5621 42.8446 23.987 41.9015 24.5624 41.0383C25.2388 40.0227 25.759 38.9233 26.2925 37.8372C26.9423 36.5149 26.948 35.0782 26.5974 33.6796C26.424 32.9899 25.9572 32.3992 25.3513 31.959C25.115 31.7876 24.9454 31.8104 24.8101 32.0696C24.7472 32.1896 24.6691 32.302 24.6158 32.424C23.7679 34.4151 22.1521 35.5488 20.2029 36.2272C18.5547 36.8007 17.5448 37.9287 16.9522 39.4987C16.5902 40.4553 16.5083 41.4175 16.996 42.3759C17.2304 42.8351 17.3733 43.3362 17.501 43.8393C17.5391 43.9917 17.6344 44.1384 17.4343 44.2413C17.2666 44.327 17.1237 44.2584 17.0094 44.1384C16.7445 43.8621 16.4854 43.582 16.232 43.2962C15.809 42.8218 15.3288 42.4197 14.7686 42.1168C13.5778 41.4727 11.5809 41.3222 10.2566 42.6236C9.02002 43.8373 7.77579 45.0416 6.60015 46.3163C6.11999 46.8365 5.55027 47.229 4.9253 47.5491C4.52135 47.7549 4.10216 47.9073 3.64486 47.9359C3.51149 47.9435 3.37239 47.9568 3.24854 48.0026C2.90176 48.1302 2.8465 48.3436 3.09992 48.6085C3.35143 48.8714 3.64105 49.0829 4.01261 49.1515C5.12537 49.3573 6.05902 49.8584 6.90121 50.6416C8.02349 51.6838 9.41253 52.0687 10.9483 51.9982C12.1296 51.9449 13.2576 51.6362 14.3875 51.3485C15.3784 51.0969 16.2987 51.1941 17.2018 51.6286C17.5486 51.7962 17.8878 51.9906 18.1107 52.3107C18.6557 53.0938 19.3607 53.7188 20.0276 54.3876C21.0431 55.407 22.0206 56.4683 23.08 57.4439C24.4214 58.6767 25.8219 59.8428 27.3329 60.8679C27.5006 60.9822 27.6797 61.0794 27.8359 61.207C29.6232 62.6628 31.5991 63.8308 33.615 64.9245C35.5299 65.9629 37.5821 66.5993 39.7523 66.8337C40.0019 66.8604 40.2801 66.9595 40.3411 66.5212C40.3735 66.2869 40.745 66.2716 40.9108 66.0106C40.4535 66.0906 40.0362 66.1687 39.617 66.2335C39.2607 66.2888 38.9044 66.3497 38.5462 66.3707C37.9041 66.4069 37.3839 66.2868 37.4544 65.3265C37.4925 64.8006 37.5135 64.29 37.9174 63.8918C38.63 63.1906 38.8549 62.3827 38.6815 61.3747C38.5024 60.3363 38.9825 59.6675 39.9448 59.2921C39.9772 59.3226 40.0381 59.3626 40.0343 59.3759C39.7218 60.1343 39.8209 60.9231 39.9105 61.6948C40.0153 62.5865 39.659 63.2687 39.0892 63.886C38.9216 64.0671 38.7367 64.2347 38.5653 64.4138C38.2623 64.7301 38.2642 64.732 38.3118 65.3608C39.1693 65.2122 40.0534 65.2313 40.8689 64.873C42.2541 64.2652 43.5765 63.5392 44.7369 62.5618C46.3889 61.1689 47.5588 59.4312 48.2733 57.3905C48.5496 56.6036 48.5363 55.7976 48.3952 54.9897C48.2924 54.4009 47.9589 54.0313 47.3416 53.917C46.3374 53.7283 45.4724 54.0599 44.6816 54.62C44.0909 55.0373 43.5936 55.5594 43.1592 56.1425C42.8086 56.6112 42.4428 57.0666 42.0712 57.5182C41.9435 57.6725 41.7892 57.8097 41.6311 57.9335C41.4939 58.0422 41.3376 58.1832 41.149 58.0745C40.9241 57.9469 40.9832 57.7201 41.0328 57.5277C41.0937 57.2895 41.1719 57.0513 41.2786 56.8303C41.8902 55.5594 42.6828 54.4162 43.7765 53.513C44.7388 52.7184 45.8249 52.2002 47.1186 52.3412C48.4486 52.486 49.106 53.1395 49.3556 54.4657C49.6433 55.9957 49.3842 57.4686 48.8983 58.911C48.2943 60.7059 47.1853 62.1578 45.7582 63.3963C45.9277 63.5354 46.044 63.3678 46.1431 63.2954C46.4536 63.0743 46.7642 62.8457 47.0443 62.5865C48.5534 61.1918 49.8853 59.6408 51.1009 57.9869C51.261 57.7697 51.4039 57.5391 51.5373 57.3048C52.45 55.7042 53.3588 54.0999 54.2696 52.4974C54.3134 52.4193 54.3477 52.3336 54.4011 52.2612C54.5116 52.1106 54.6393 51.9791 54.8508 52.0573C55.0928 52.1468 55.1213 52.3469 55.0642 52.5565C55.0013 52.7947 54.9346 53.0367 54.8298 53.2577C53.9095 55.2412 52.8539 57.1466 51.4896 58.8672C51.2667 59.1492 51.0476 59.435 50.8418 59.7303C50.5045 60.2124 50.1254 60.6659 49.67 61.0317C48.6525 61.8511 47.7169 62.7618 46.7223 63.6059C45.3104 64.8044 43.7327 65.7514 41.9817 66.3916C41.6063 66.5288 41.2385 66.687 40.867 66.9366C41.0518 66.9461 41.2366 66.9576 41.4215 66.9614C43.4926 67.0033 45.5657 67.0452 47.6312 66.9347C50.213 66.7956 52.7929 66.5612 55.2833 65.7781C55.6282 65.6695 55.9559 65.5514 56.2512 65.3284C56.4627 65.1684 56.7124 65.0274 56.9658 64.9588C58.0633 64.6615 59.0027 64.0175 60.0449 63.604C60.487 63.4287 60.8623 63.1315 61.2453 62.8552C61.6283 62.5789 62.0094 62.3007 62.419 62.0645C63.4346 61.4776 64.393 60.8221 65.1895 59.9437C65.5973 59.4941 66.087 59.1263 66.5881 58.7795C67.4322 58.1984 68.0343 57.3657 68.7755 56.6779C69.3681 56.1272 69.9473 55.5537 70.4675 54.9363C71.1973 54.0713 71.6736 53.0386 72.1576 52.0287C73.4628 49.3097 74.5432 46.5068 75.3606 43.5954C75.6978 42.393 75.8426 41.1717 76.0427 39.9598C76.2142 38.9157 76.4771 37.8944 76.6677 36.8559C76.8068 36.0976 76.7496 35.3297 76.8773 34.5733C76.9592 34.0855 77.0392 33.5958 77.1898 33.1251C77.2507 32.9365 77.3517 32.7555 77.4603 32.5859C77.5499 32.4468 77.6985 32.3706 77.87 32.4316C78.0339 32.4906 78.1082 32.6259 78.1082 32.7993C78.1082 32.8222 78.112 32.8451 78.1101 32.866C78.0358 34.1903 78.1806 35.5202 78.0034 36.8426C77.7633 38.6242 77.5175 40.4038 77.2698 42.1854C77.2412 42.3854 77.2069 42.5874 77.144 42.7798C76.6296 44.3385 76.1208 45.8971 75.4616 47.4043C74.4688 49.6698 73.3504 51.8724 72.1824 54.0522C71.7308 54.8944 71.1725 55.6471 70.4884 56.3082C70.1969 56.5902 69.9187 56.8799 69.6806 57.2133C66.569 61.5538 62.48 64.5644 57.4212 66.2964C54.3039 67.3634 51.1085 67.8798 47.8274 67.9712C44.6492 68.0608 41.4786 67.9503 38.3309 67.5025C35.8215 67.1462 33.413 66.4355 31.2904 64.9664C31.0332 64.7892 30.7455 64.652 30.4578 64.5243C29.3183 64.0175 28.3104 63.3068 27.3195 62.5618C25.0674 60.8698 22.9638 59.0082 20.9612 57.0323C20.6735 56.7484 20.3591 56.4778 20.1266 56.152C19.3911 55.1231 18.4766 54.2485 17.6496 53.3015C16.9637 52.5146 16.0167 52.3126 15.0087 52.4593C14.5419 52.526 14.1036 52.7223 13.673 52.9166C11.9829 53.675 10.2604 53.7988 8.47888 53.2481C7.44044 52.9261 6.52775 52.4193 5.81703 51.6057C5.29495 51.0074 4.68331 50.5863 3.92496 50.3805C3.18376 50.1804 2.67311 49.6927 2.26916 49.0753C1.72421 48.2446 2.03289 47.288 2.95892 46.9184C3.12469 46.8517 3.29999 46.7983 3.47719 46.7698C4.45657 46.6135 5.21301 46.0705 5.90277 45.3998C6.80593 44.5195 7.62335 43.5592 8.46364 42.6217C8.80852 42.2368 9.17245 41.8672 9.53829 41.5013C11.0683 39.9675 13.473 39.9618 15.0678 40.722C15.2297 40.802 15.3555 40.9602 15.5899 40.924Z" fill="#0B1111"/>
<path d="M50.3806 46.0211C49.6661 46.063 48.9935 45.8972 48.3457 45.619C48.0122 45.4761 47.7016 45.2837 47.4825 44.9883C47.1605 44.552 47.3815 44.0642 47.9189 44.0071C48.218 43.9766 48.5038 44.0394 48.7725 44.1652C49.9348 44.7102 51.0971 44.6473 52.3203 44.3272C55.2794 43.5517 58.0518 42.3684 60.6546 40.7755C62.2342 39.8094 63.6137 38.5786 65.0542 37.4277C65.7744 36.8523 66.4794 36.254 67.253 35.7528C68.2381 35.1145 69.0498 34.2628 70.012 33.5902C71.3573 32.647 72.8435 32.0354 74.3621 31.4752C74.888 31.2808 75.4272 31.1208 75.9626 30.9493C76.1132 30.9017 76.2637 30.8464 76.418 30.8255C76.8696 30.7626 77.2564 31.0046 77.365 31.399C77.4755 31.801 77.2735 32.1688 76.7934 32.3231C76.0884 32.5498 75.3662 32.7251 74.6593 32.9462C73.2055 33.4016 71.7079 33.7426 70.3798 34.5448C69.8768 34.8478 69.4042 35.1812 68.966 35.5737C66.9729 37.361 64.9113 39.0721 62.7353 40.6307C61.5882 41.4519 60.323 42.1093 59.1074 42.8352C57.5983 43.7365 55.9921 44.4434 54.3591 45.0741C53.0806 45.5657 51.7735 45.9963 50.3806 46.0211Z" fill="#0C1111"/>
<path d="M56.0378 63.3544C56.6704 62.6646 57.2992 61.9729 57.9375 61.2889C58.3529 60.8449 58.774 60.4086 59.2084 59.9837C59.6619 59.5378 60.0316 59.0386 60.3136 58.467C60.4813 58.1259 60.6985 57.8077 60.9138 57.4933C61.8932 56.0624 62.7754 54.5781 63.4213 52.9642C63.7814 52.0629 64.2921 51.2436 64.7532 50.3938C65.7764 48.5055 66.3004 46.4687 66.4814 44.3479C66.5919 43.0504 66.7748 41.7566 66.7862 40.4514C66.7862 40.3618 66.7977 40.2704 66.8243 40.1865C66.8663 40.057 66.9215 39.916 67.0797 39.9083C67.2702 39.8969 67.3617 40.0455 67.3941 40.2018C67.4398 40.4209 67.4588 40.6457 67.476 40.8687C67.737 44.1231 67.1121 47.2137 65.763 50.1747C65.1857 51.4418 64.6255 52.7146 64.071 53.9912C63.6385 54.9858 63.0212 55.8737 62.4514 56.7864C61.9637 57.5676 61.4378 58.3241 60.9633 59.1148C60.588 59.7417 60.1192 60.2714 59.559 60.7344C59.0751 61.1346 58.5892 61.5423 58.1509 61.9901C57.5565 62.5941 56.8629 63.0324 56.0378 63.3544Z" fill="#0C1212"/>
<path d="M47.5588 66.1117C48.1914 65.6525 48.7802 65.2181 49.3747 64.7932C50.5599 63.9433 51.7012 63.0497 52.753 62.0227C54.0829 60.7232 55.1633 59.2713 56.1846 57.7222C57.2878 56.0454 58.1834 54.2639 59.2085 52.549C59.4295 52.1813 59.5629 51.7754 59.6829 51.3639C60.4203 48.8392 61.0491 46.2917 61.3864 43.6774C61.4111 43.4774 61.4416 43.2773 61.5769 43.1173C61.7865 43.1134 61.7636 43.2811 61.7846 43.4012C61.9885 44.5692 61.8837 45.7353 61.7274 46.8938C61.4169 49.1898 60.6566 51.3372 59.5172 53.355C59.2637 53.8047 59.0027 54.2544 58.8007 54.7288C58.0005 56.6037 56.8191 58.2462 55.693 59.9248C55.1214 60.7747 54.3383 61.4206 53.6428 62.1523C52.1737 63.7014 50.476 64.9284 48.5859 65.9021C48.2905 66.0526 48.0028 66.2508 47.5588 66.1117Z" fill="#0C1212"/>
<path d="M34.9832 20.1476C34.9813 19.8637 35.0746 19.6198 35.2842 19.4254C35.5986 19.1377 35.9016 18.8367 36.2312 18.568C37.0124 17.9278 37.9194 17.9164 38.8531 18.0859C39.5181 18.206 40.1697 18.3718 40.7242 18.7871C40.848 18.8805 40.9871 18.9739 41.0729 19.0996C41.2825 19.4102 41.0729 19.8161 40.7185 19.736C39.7295 19.515 38.9826 19.9799 38.2262 20.481C37.8527 20.7268 37.4716 20.9726 37.0658 21.1594C36.4275 21.4528 35.713 21.2908 35.2766 20.8088C35.0861 20.5992 34.9927 20.3877 34.9832 20.1476Z" fill="#0C1212"/>
<path d="M40.1198 15.2316C40.116 14.5856 40.1541 14.1188 40.3085 13.6672C40.6991 12.524 41.728 11.8723 42.9246 12.021C43.54 12.0972 44.085 12.7583 44.1059 13.4595C44.125 14.1226 43.8449 14.6771 43.4524 15.1839C43.1761 15.5402 42.8407 15.8394 42.4616 16.0852C41.9871 16.392 41.627 16.7654 41.6651 17.3866C41.6765 17.5886 41.5889 17.7429 41.3869 17.7886C41.183 17.8363 41.0554 17.7143 40.9487 17.5524C40.4456 16.7959 40.0055 16.0185 40.1198 15.2316Z" fill="#0D1212"/>
<path d="M49.8242 38.348C49.807 38.872 49.6622 39.4036 49.0734 39.6742C48.6028 39.8914 47.974 39.6608 47.5243 39.1464C46.9622 38.5061 46.8517 37.481 47.2652 36.7589C47.6996 36.0024 48.5628 35.8805 49.1935 36.4902C49.5841 36.8694 49.828 37.563 49.8242 38.348Z" fill="#0C1212"/>
<path d="M48.6599 52.8595C49.283 51.3676 49.4125 49.8432 49.7689 48.3742C49.8279 48.1341 49.866 47.8902 49.9365 47.6539C49.9765 47.5167 50.1042 47.4272 50.2471 47.4405C50.4148 47.4558 50.5386 47.5568 50.5596 47.7397C50.5825 47.9416 50.5634 48.1417 50.512 48.3399C50.2147 49.4907 49.8756 50.6321 49.4697 51.7486C49.3192 52.1545 49.1725 52.587 48.6599 52.8595Z" fill="#121717"/>
<path d="M55.8606 49.0203C55.9864 47.7055 56.3693 46.4651 56.8762 45.2037C57.1544 45.3828 57.1696 45.5772 57.1753 45.7754C57.1963 46.5928 56.5142 48.3705 55.8606 49.0203Z" fill="#181D1D"/>
<path d="M51.8003 66.1536C51.9927 65.7706 52.2938 65.7154 52.5625 65.6373C53.0198 65.5058 53.4523 65.34 53.8048 65.0066C53.8677 64.9456 53.9496 64.9018 54.0296 64.8618C54.1401 64.8065 54.2545 64.8084 54.325 64.9189C54.3764 65.0009 54.344 65.0942 54.2792 65.1628C53.9667 65.4886 53.6238 65.7706 53.1817 65.9097C52.7511 66.0431 52.3128 66.106 51.8003 66.1536Z" fill="#212424"/>
<path d="M35.8899 20.4047C36.9264 19.3739 37.5495 19.1357 38.727 19.3701C38.0678 19.7759 37.4771 20.1589 36.8674 20.5057C36.5396 20.6924 36.1909 20.7019 35.8899 20.4047Z" fill="#F5F6F6"/>
<path d="M41.046 16.0414C40.9412 15.0811 40.8307 14.2751 41.2328 13.4977C41.5205 12.9413 42.0216 12.726 42.6104 12.6898C43.0829 12.6593 43.323 12.9356 43.222 13.4062C43.0963 13.9855 42.8638 14.5209 42.3779 14.8943C41.9549 15.2183 41.5129 15.5193 41.046 16.0414Z" fill="#FDFDFD"/>
</svg>
