<svg width="80" height="80" viewBox="0 0 80 80" fill="none" xmlns="http://www.w3.org/2000/svg">
<rect width="80" height="80" fill="white"/>
<path d="M20.7487 8.61416C20.0414 6.08015 22.0531 3.12685 24.7421 3.11318C26.5824 3.03478 28.0673 4.65363 28.317 6.3928C28.6087 7.49756 28.3052 8.76821 29.0317 9.73715C31.707 8.34527 34.6666 7.49027 37.6883 7.36904C38.2908 5.48402 39.5788 3.37843 41.719 3.11409C42.8429 2.9172 44.0789 3.87247 43.6122 5.07384C44.5538 4.70194 45.933 4.64999 46.4206 5.72649C46.8636 6.5505 46.3586 7.42464 45.9858 8.16296C48.9328 9.17019 51.6737 10.8255 53.8312 13.0815C55.1548 11.2111 55.6625 8.42548 58.1409 7.64523C61.0687 6.68631 63.764 9.87023 63.1579 12.6713C62.796 15.7395 59.5893 17.619 56.6797 17.351C58.304 20.7191 59.458 24.325 60.0933 28.0103C60.5354 30.97 60.2228 34.0892 58.9339 36.811C58.799 37.1172 58.408 37.4782 58.737 37.7963C61.6666 41.4132 64.0566 45.4229 66.2689 49.5047C66.7438 48.8511 67.2834 48.0754 67.0664 47.225C66.9944 46.5323 67.1002 45.3901 68.0107 45.3692C68.1174 44.9243 68.3088 44.5069 68.5631 44.1277C69.4582 44.3829 69.5375 45.5414 69.749 46.3089C69.8074 46.1449 69.8657 45.9817 69.924 45.8176C70.6013 45.8304 70.3725 46.658 70.2923 47.0865C70.0051 48.9487 68.3034 50.0142 67.1175 51.2995C68.482 54.4551 69.4382 57.8524 69.4674 61.3116C71.7425 58.9562 74.8489 57.3073 78.1586 57.1742C78.6408 57.1086 79.298 57.702 78.8514 58.1413C75.9236 60.7464 73.9365 64.2612 72.4526 67.8489C74.2902 67.8991 76.9892 68.0568 77.7849 69.9682C75.3238 70.1733 72.7916 70.4978 70.6058 71.7347C68.9332 72.5624 67.2679 74.0454 65.2653 73.4894C64.4057 74.5659 63.0539 75.0681 61.745 75.3334C58.8272 75.9222 55.6843 75.7727 52.9799 74.4501C51.2744 76.2659 48.5162 76.1364 46.2228 76.2066C44.1573 76.007 41.6698 75.9368 40.2943 74.1366C38.9416 74.2924 37.5662 74.1521 36.2591 73.7747C34.9282 75.6752 32.3049 75.7627 30.2002 75.8092C28.1894 75.7554 25.6828 75.6624 24.5042 73.7428C23.4195 74.894 21.6976 74.8621 20.2346 74.9369C18.1217 75.0617 15.8329 74.637 14.2669 73.1093C12.8887 73.802 11.2954 73.4438 10.1022 72.5505C7.88726 70.9946 5.25116 70.1997 2.57678 69.96C2.61688 69.7148 2.61871 69.4058 2.85843 69.2609C4.1382 68.5362 5.63764 68.3019 7.0906 68.4314C5.65314 65.3851 3.84834 62.4637 1.41733 60.1056C1.04543 59.7565 1.51486 59.2023 1.95239 59.3554C4.16099 59.5824 6.15538 60.8859 7.59102 62.5348C8.02034 60.267 8.97652 58.0201 10.589 56.3392C11.6053 55.9783 11.4896 57.3538 11.7001 57.9581C13.638 55.4195 16.5375 53.5965 19.7652 53.2547C19.6658 49.8009 20.3358 46.3736 21.4697 43.1223C21.6001 42.8789 21.2984 42.7558 21.1507 42.631C19.201 41.3193 17.4782 39.6029 16.4683 37.4572C13.5478 34.3289 13.3919 29.0321 15.9842 25.6558C16.7472 24.9731 16.9678 23.9185 17.6787 23.1957C18.8482 21.7391 20.6494 20.9205 21.714 19.3874C22.6264 17.0776 23.6109 14.7459 25.2388 12.8327C23.1606 12.304 21.2619 10.758 20.7487 8.61416ZM23.9545 3.9545C22.013 4.47589 20.8554 6.80025 21.5035 8.67979C22.1005 10.4919 23.805 11.737 25.6126 12.16C25.9061 12.1946 26.0711 11.8564 26.2871 11.7069C25.5615 10.604 24.794 9.43453 24.7676 8.06452C24.7831 7.24234 24.1432 6.68631 23.5033 6.29527C26.2178 6.36637 25.0565 10.027 27.0026 11.1737C27.5094 10.8765 27.9679 10.5092 28.4419 10.1647C27.4529 8.69255 28.0955 6.78293 27.1694 5.28805C26.5815 4.16233 25.1732 3.52153 23.9545 3.9545ZM38.3975 7.48206C38.1732 7.95058 38.2963 8.81379 37.5716 8.77368C37.537 8.58135 37.5015 8.38902 37.4613 8.1976C33.9484 8.25412 30.4983 9.53753 27.6553 11.5729C25.1012 13.4206 23.7139 16.3502 22.59 19.2032C21.8945 21.2751 19.4398 21.8703 18.397 23.6742C20.6193 22.4491 23.2381 22.4364 25.6846 22.3233C23.9682 20.6954 25.1304 17.3155 27.5714 17.3766C29.976 17.7968 29.9122 21.8958 27.6726 22.6141C31.6541 23.0316 35.806 23.8009 39.1932 26.0451C34.5564 24.3797 29.7062 23.0626 24.7421 23.0945C22.569 23.1328 20.2556 23.2841 18.3688 24.4782C14.4347 26.9247 13.8276 32.9644 16.6177 36.4837C18.8063 38.8181 22.3019 39.1836 25.3282 38.9548C25.9535 38.9858 26.6362 38.5383 27.1977 38.9621C30.1984 40.8326 33.8116 41.5955 37.3201 41.3193C40.7884 41.0796 44.4818 39.1326 45.6139 35.6688C45.2648 35.6242 44.9121 35.6378 44.563 35.6734C45.0524 34.2186 47.6575 35.6451 46.7032 36.9304C46.5254 36.6469 46.3732 36.3452 46.2711 36.0261C44.7626 40.0614 40.3946 42.2299 36.2518 42.0877C32.2666 44.5916 26.3536 44.5424 22.9254 41.0932C22.3566 40.5928 22.167 39.5455 21.2911 39.5218C20.0997 39.3422 18.9685 38.9129 17.8765 38.4152C19.5118 40.8107 21.9674 42.6146 24.5689 43.8497C32.7124 47.184 42.2103 47.4429 50.3693 44.0137C55.564 42.0038 59.4015 36.8793 59.4708 31.2589C55.6625 30.5315 54.1694 24.3442 57.8483 22.5011C57.0717 19.5934 55.8448 16.7266 53.8832 14.4087C51.753 11.6632 48.6256 9.88299 45.397 8.73266C44.9403 8.96966 44.4855 9.31694 43.9422 9.25861C44.5839 8.23406 46.2666 7.41188 45.7051 5.97077C44.6049 4.94805 43.2166 6.16493 42.3316 6.89869C42.193 5.96895 43.4546 4.80495 42.6606 4.09761C41.3408 4.31729 40.9133 6.03002 39.9197 6.64712C40.0646 5.52778 40.947 4.71653 41.6224 3.87976C39.9033 4.24528 38.9635 5.96622 38.3975 7.48206ZM57.429 8.82199C55.8101 10.0288 55.5704 12.2274 54.2314 13.664C54.5851 14.1744 54.9624 14.6666 55.3507 15.1506C56.7599 14.7295 57.4108 13.3477 58.0133 12.1399C58.5629 11.1391 59.9922 10.7726 60.8709 11.5711C60.1289 11.4654 59.2684 11.5483 58.8127 12.2274C58.098 13.6412 57.3615 15.2691 55.7281 15.8142C55.9523 16.1114 56.1064 16.5881 56.5485 16.589C58.6313 16.8196 61.0486 15.9746 61.9619 13.9538C62.8735 12.3003 62.5134 10.006 60.9939 8.83749C59.9748 8.05541 58.4389 7.98522 57.429 8.82199ZM27.6407 18.6837C26.6945 19.0638 27.153 20.7182 28.1757 20.5067C29.3972 20.3763 28.7609 18.0966 27.6407 18.6837ZM59.5537 30.7503C59.5665 28.0622 58.8509 25.4407 58.0415 22.8967C54.6908 24.4946 56.1957 30.1241 59.5537 30.7503ZM45.1053 47.8795C38.7457 49.8593 31.3022 49.574 25.7238 45.6526C24.6473 44.7812 23.4167 44.1441 22.2072 43.4841C20.6931 47.5668 20.1198 52.0615 20.9456 56.3602C21.7186 60.8348 24.1277 64.8364 24.8287 69.3301C25.2525 70.8442 24.7384 72.6389 25.649 73.9789C25.7475 73.1904 25.9188 72.2652 26.6863 71.8496C27.73 71.1659 29.0134 72.03 29.3315 73.0974C29.6068 72.3436 30.1601 71.5251 31.0397 71.4813C31.964 71.4093 32.6586 72.1677 33.1289 72.8677C33.2985 71.3318 35.2418 70.9581 35.93 72.3527C36.1296 69.4723 35.1689 66.6375 34.0614 64.016C32.5911 60.4256 30.4746 57.155 28.4829 53.8472C30.8592 56.4286 32.6959 59.5113 34.2501 62.6524C35.178 65.4152 38.2097 66.5418 40.7009 67.5007C41.5641 63.0617 42.3106 58.5469 43.8438 54.2801C42.9906 60.3125 41.369 66.2474 40.9488 72.3427C41.7026 70.6482 43.9304 71.4385 44.202 73.0336C44.6423 72.3144 45.3295 71.5059 46.2666 71.6226C47.9729 71.8414 48.7577 73.8184 48.4515 75.3489C49.6975 75.1994 51.124 75.1246 52.0893 74.2259C53.3089 72.5879 53.0163 70.4158 53.1576 68.497C53.4028 65.7023 53.7747 62.8064 54.8549 60.2159C54.8066 61.6388 54.3508 63.0097 54.2469 64.428C55.9906 61.9177 57.9786 59.4685 58.8163 56.4714C58.8983 58.0675 58.037 59.5368 57.3342 60.9205C59.077 59.4265 61.0468 57.9344 63.3775 57.6053C59.8691 59.1339 56.7107 61.6999 54.7956 65.0661C53.1166 67.6511 54.3554 70.949 53.2442 73.7164C53.823 74.0591 54.4538 74.3207 55.1219 74.421C54.3754 71.9963 54.4611 68.9017 56.4746 67.0969C57.7389 65.8946 60.0888 66.19 60.8198 67.8444C61.7888 66.993 63.2289 67.5135 63.9636 68.4132C64.835 69.5024 65.1677 70.9435 65.1304 72.3181C69.9541 66.2082 69.4947 57.3765 65.9152 50.7899C65.1996 51.2512 64.3091 51.0452 63.6729 50.5475C61.8854 49.2039 61.096 46.5313 62.1215 44.4968C62.4159 44.0265 61.7787 43.702 61.5718 43.3347C60.797 44.0338 59.5209 43.9563 58.9138 43.0785C58.0689 42.0476 58.3888 40.5764 59.0296 39.5273C58.7862 39.1417 58.5082 38.7798 58.2047 38.4417C55.1311 42.9846 50.3301 46.2871 45.1053 47.8795ZM22.8142 39.7159C23.6382 41.292 25.3209 42.198 26.9908 42.61C27.1631 41.7669 27.5368 40.983 28.0764 40.313C26.6089 39.015 24.5826 39.9065 22.8142 39.7159ZM59.3067 39.9229C58.8555 40.8344 58.5565 42.0695 59.3395 42.8962C59.8782 43.5224 60.7906 43.4003 61.4123 42.9691C60.736 41.9382 60.0696 40.8909 59.3067 39.9229ZM28.5504 40.4889C28.0244 41.1616 27.483 41.8635 27.2314 42.6902C29.5922 43.2472 32.2457 43.2554 34.4451 42.1351C32.428 41.817 30.3898 41.4187 28.5504 40.4889ZM25.7338 45.1595C33.1982 50.0954 43.4937 49.2732 50.9235 44.6837C42.9587 47.9825 33.8381 47.9889 25.7338 45.1595ZM64.4631 50.4563C64.866 50.6924 65.3263 50.5766 65.6673 50.2913C64.8296 48.3234 63.702 46.4803 62.5909 44.6545C61.5144 46.6271 62.4159 49.4929 64.4631 50.4563ZM68.812 45.505C68.6324 45.8942 68.4747 46.2934 68.2505 46.6599C67.7145 45.2735 67.709 47.1794 68.0335 47.7355C68.1037 47.7838 68.245 47.8813 68.3161 47.9296C68.9852 47.369 69.1328 46.2807 68.812 45.505ZM67.6999 48.0326C67.267 48.729 66.9853 49.5065 66.5478 50.2011C66.6161 50.3187 66.6863 50.4363 66.7574 50.5548C67.5787 50.346 67.9424 49.553 68.4665 48.9751C68.1949 48.6743 67.946 48.3553 67.6999 48.0326ZM14.4064 56.3857C15.6114 57.9216 14.1712 60.1813 12.2561 59.5177C11.2152 61.7445 11.6509 64.3861 12.2015 66.7041C12.834 65.0251 15.0335 64.3141 16.4491 65.4927C18.9977 67.4798 20.406 71.0839 19.6914 74.2541C21.7824 73.843 22.2819 71.3309 22.1206 69.5197C22.93 70.9107 22.3539 73.0427 21.086 74.1202C22.3539 74.1466 24.6336 73.7546 24.3355 72.041C24.2243 65.7196 20.1973 60.3162 19.8044 54.034C17.8501 54.3029 15.8612 55.0157 14.4064 56.3857ZM12.361 58.8751C13.8741 59.8504 15.0436 57.7548 13.9525 56.6236C13.3299 57.3009 12.6973 58.0037 12.361 58.8751ZM8.08415 64.4608C6.75242 62.5594 4.98956 60.7756 2.64514 60.2551C4.89111 62.5457 6.38144 65.4188 7.93101 68.1926C8.13246 68.6365 8.56452 68.8671 9.03212 68.9309C8.63835 66.2128 9.02483 63.347 10.1241 60.8339C9.80691 63.2039 8.99202 65.5774 9.3393 67.9975C9.41678 68.4296 9.42134 68.9637 9.85431 69.2062C9.98283 67.7168 10.2481 66.2191 11.0174 64.9157C10.6191 62.4099 11.3829 59.8777 10.7394 57.3893C9.14697 59.3965 8.40865 61.9533 8.08415 64.4608ZM69.4555 62.5065C69.4081 63.5356 69.2039 64.5465 69.0891 65.5674C70.2731 64.14 71.0023 62.2194 72.5793 61.1001C70.6943 63.5849 69.2559 66.4188 68.4018 69.4149C69.3361 68.7987 70.3634 68.384 71.4189 68.0394C73.0332 64.3852 74.9693 60.771 77.8615 57.9563C74.5737 58.2607 71.6149 60.0737 69.4555 62.5065ZM35.3594 65.2201C35.8507 66.6302 36.2828 68.0622 36.6428 69.5097C37.8223 70.0521 39.0857 70.4914 40.3982 70.5215C40.4648 69.6747 40.6106 68.8361 40.6425 67.9875C38.7247 67.3895 36.9819 66.3832 35.3594 65.2201ZM14.3453 65.5674C13.3126 65.6613 12.834 66.7806 12.8058 67.6958C12.8386 70.9162 15.5011 74.3471 18.8911 74.1448C19.7862 71.9371 18.6513 69.3639 17.4636 67.4424C16.7645 66.4233 15.6607 65.4644 14.3453 65.5674ZM10.651 70.3164C8.71856 69.4614 6.4817 68.693 4.39342 69.455C6.46439 69.7996 8.4843 70.5242 10.2235 71.7174C11.2316 72.4111 12.4986 73.05 13.7292 72.5305C12.5269 70.5853 11.7895 68.4004 11.2507 66.19C10.7695 67.5126 10.6938 68.9236 10.651 70.3164ZM56.8474 67.5873C55.0545 69.3702 54.8822 72.3427 55.7755 74.5978C56.986 74.9314 58.2931 74.9633 59.5501 74.874C59.2712 72.783 59.8363 70.7439 60.2027 68.7103C60.3486 66.942 57.9066 66.5063 56.8474 67.5873ZM60.6676 69.2718C59.9794 71.0274 59.6449 72.9625 59.9384 74.8421C61.4734 74.6689 63.1989 74.42 64.351 73.3034C64.7056 71.5588 64.4495 69.1989 62.7285 68.2309C61.8772 67.7104 60.9638 68.4761 60.6676 69.2718ZM67.8412 69.5088C67.9096 69.5015 68.0454 69.4878 68.1138 69.4805C68.1949 69.1041 68.2487 68.7213 68.2441 68.3366C68.0345 68.6975 67.9105 69.0986 67.8412 69.5088ZM68.194 70.424C66.9024 70.0284 66.4958 72.0127 65.7593 72.7903C67.2496 72.9525 68.4775 71.9744 69.7226 71.3254C71.6905 70.1815 73.9256 69.5799 76.1807 69.3575C73.6539 68.0814 70.3315 68.6629 68.194 70.424ZM36.6528 70.3948C36.7622 71.2954 36.7795 72.2023 36.6255 73.0993C37.8032 73.3982 39.0292 73.4693 40.2369 73.3754C40.1804 72.6954 40.1968 72.0127 40.1932 71.3318C38.9644 71.2297 37.7995 70.8177 36.6528 70.3948ZM33.6467 74.6488C35.1014 74.6744 36.2581 72.8623 34.8252 71.9134C33.4297 71.6746 33.6047 73.7428 33.6467 74.6488ZM41.2997 74.1056C41.9168 74.8649 43.0161 74.9314 43.9048 75.1702C43.7535 74.0144 43.81 72.309 42.5376 71.7849C41.3745 71.7229 41.2305 73.2542 41.2997 74.1056ZM29.863 75.09C30.9194 75.1219 31.9859 75.0736 33.0186 74.8357C33.0369 73.6562 32.4571 71.9553 31.0534 71.9562C29.7171 72.2862 29.8074 74.0071 29.863 75.09ZM26.185 74.3954C27.1348 74.8639 28.2131 74.9606 29.2559 75.0399C29.0098 73.9734 28.8676 72.3482 27.5732 72.0784C26.4047 72.0692 26.1075 73.4657 26.185 74.3954ZM44.3524 75.2459C45.52 75.4036 46.7214 75.5157 47.8936 75.3689C48.2327 74.0828 47.6703 72.144 46.1016 72.103C44.7279 72.391 44.5329 74.0946 44.3524 75.2459Z" fill="black"/>
<path d="M7.81427 5.39119C9.19339 5.29457 9.95633 6.74661 10.9745 7.44757C12.2078 7.26162 13.8339 6.42576 14.8493 7.51137C15.4263 8.92149 14.214 10.2541 13.7181 11.492C14.1019 12.5657 15.3416 13.6213 14.7664 14.8317C13.7601 15.87 12.2078 15.0469 10.9781 15.0368C9.93172 15.6694 9.1943 17.3111 7.77051 16.9784C6.55638 16.2947 6.79155 14.6567 6.48893 13.4964C5.47532 12.9878 3.99229 12.6386 3.69604 11.3871C3.88837 9.98887 5.48626 9.56684 6.53541 8.9543C6.92189 7.80761 6.57005 6.05477 7.81427 5.39119ZM8.00933 6.05204C7.3257 7.06473 7.54264 8.38916 7.17256 9.49118C6.24555 10.0536 5.00771 10.2915 4.40156 11.2741C4.89195 12.3178 6.27107 12.4591 7.12699 13.1053C7.51164 14.1399 7.27556 15.4069 7.9273 16.3412C9.14599 16.2756 9.75306 14.9101 10.7512 14.3614C11.8596 14.2356 13.1311 14.9676 14.1466 14.4252C14.3589 13.3177 13.1302 12.4463 12.9689 11.3926C13.4237 10.2733 14.3608 9.20497 14.297 7.96622C13.2597 7.25524 11.9188 8.18134 10.773 8.15034C9.79863 7.52869 9.15146 6.41026 8.00933 6.05204Z" fill="black"/>
<path d="M42.5139 8.68522C43.1082 8.17022 43.9714 7.37993 44.7771 7.71081C44.2503 8.40174 43.2303 8.50474 42.8338 9.33331C42.4956 9.32693 42.2404 9.09449 41.9861 8.90216C42.0453 8.67519 42.1347 8.45917 42.2677 8.26684C42.3507 8.40539 42.4327 8.54394 42.5139 8.68522Z" fill="black"/>
<path d="M27.6352 12.1646C28.2951 11.8619 29.6442 12.2265 29.3598 13.139C28.6296 13.9985 27.2733 14.1316 26.226 13.9329C25.6818 13.0533 26.9561 12.4243 27.6352 12.1646ZM26.8422 13.4379C27.5103 13.4461 28.2988 13.427 28.8065 12.9357C28.1438 12.5647 27.307 12.9029 26.8422 13.4379Z" fill="black"/>
<path d="M25.5141 16.8498C25.2862 15.7223 26.8777 15.2337 27.6342 15.8955C26.8102 15.8946 26.205 16.4989 25.5141 16.8498Z" fill="black"/>
<path d="M47.6903 15.5901C49.0366 15.5509 50.732 16.714 50.5342 18.187C49.8898 18.9107 48.929 18.084 48.2782 17.7586C47.5426 17.4076 46.3221 15.8754 47.6903 15.5901ZM47.7741 16.2755C47.951 17.1424 49.0074 17.5908 49.7886 17.8078C49.7002 16.8726 48.6219 16.3393 47.7741 16.2755Z" fill="black"/>
<path d="M72.2594 18.2196C73.057 18.3263 72.8975 17.2525 73.52 17.021C74.3696 17.0064 74.1891 18.3764 75.0714 18.2515C75.7459 18.1804 75.9647 19.0017 75.4388 19.3563C74.8299 19.7811 75.3102 20.5832 74.9475 21.1201C74.54 21.5257 74.035 20.9943 73.6403 20.8266C73.2803 21.0189 72.933 21.358 72.4973 21.3151C71.831 20.8165 72.4855 19.7747 71.7954 19.2834C71.2494 18.9042 71.6633 18.1713 72.2594 18.2196ZM72.2084 18.8458C72.8254 19.2086 72.8519 19.895 72.7197 20.5276C73.2721 20.2049 73.8874 20.0718 74.4252 20.5112C74.417 20.2076 74.3933 19.9032 74.3705 19.5997C74.5856 19.3636 74.7825 19.112 74.9757 18.8577C74.2556 18.9652 73.8154 18.5049 73.6157 17.8605C73.366 18.4703 72.8883 18.8686 72.2084 18.8458Z" fill="black"/>
<path d="M47.7988 19.453C48.9473 18.9489 50.4249 19.9279 50.0867 21.2076C49.3575 20.72 48.9227 19.5387 47.7988 19.453Z" fill="black"/>
<path d="M45.2814 26.2119C43.5578 24.491 45.0463 20.9716 47.4773 21.0637C50.1179 21.6087 50.3577 26.3204 47.4937 26.7223C48.0935 27.1571 48.8154 26.7397 49.4662 26.9375C48.2047 27.7642 46.3315 27.2045 45.2814 26.2119ZM46.1501 22.1201C44.9159 22.5886 45.7891 24.6423 46.9805 24.0088C48.1946 23.5539 47.3342 21.4966 46.1501 22.1201Z" fill="black"/>
<path d="M72.3779 25.6851C74.2766 25.1947 74.0587 27.8418 74.1791 29.0277C75.1918 29.7268 76.58 30.2764 76.9911 31.5681C76.9883 32.6992 75.6603 33.0684 74.8135 33.4576C72.9257 33.6819 74.1171 36.5504 72.3196 37.0244C70.9523 37.0554 70.4464 35.4329 69.4911 34.7255C68.3517 34.6426 66.753 35.2788 65.9991 34.1039C65.7412 32.8578 66.9024 31.9245 67.3336 30.8543C66.9325 29.6758 65.7166 28.3304 66.4303 27.0871C67.5387 26.1847 68.9451 27.1818 70.1502 27.2283C70.9003 26.7288 71.542 26.0534 72.3779 25.6851ZM70.2085 28.0815C69.1475 27.9092 67.9735 27.1454 66.9435 27.5984C66.8131 28.8098 67.793 29.8289 68.102 30.9646C67.6444 31.9281 66.6436 32.7394 66.6901 33.8751C67.6781 34.4029 68.8813 33.7794 69.9314 34.0756C70.729 34.814 71.2285 35.8868 72.2248 36.4109C73.0196 35.5906 72.8874 34.3372 73.2694 33.3309C74.1654 32.6628 75.6657 32.7384 76.2172 31.661C75.8161 30.4897 74.4015 30.2336 73.5337 29.5226C73.211 28.4999 73.7142 27.0442 72.8109 26.2813C71.7827 26.5967 71.0972 27.5191 70.2085 28.0815Z" fill="black"/>
<path d="M7.94654 26.5073C8.56728 26.3423 8.85532 27.0661 9.11875 27.4863C9.57997 27.5501 10.3447 27.3951 10.4423 28.0259C10.3867 28.4233 9.9938 28.6886 9.86528 29.0668C9.88077 29.5828 10.2281 30.3229 9.55901 30.5681C8.86261 30.0968 8.16166 30.3685 7.52633 30.7732C6.53369 30.6082 7.45523 29.1461 6.49541 28.7998C5.6322 28.117 6.80897 27.5847 7.46161 27.5829C7.6029 27.2183 7.69132 26.8154 7.94654 26.5073ZM8.18627 27.2602C8.04772 27.9192 7.69587 28.4187 6.97122 28.4279C7.17813 28.6275 7.39143 28.8216 7.60746 29.0121C7.61657 29.3111 7.62204 29.6092 7.63571 29.9082C8.16075 29.5363 8.76052 29.4433 9.32566 29.7933C9.03033 29.2154 9.27371 28.6667 9.64378 28.1954C9.33204 28.1644 9.01939 28.1444 8.70583 28.148C8.55726 27.8381 8.36948 27.5501 8.18627 27.2602Z" fill="black"/>
<path d="M20.7842 27.1389C22.5416 26.5345 23.5106 29.4924 22.2326 30.4951C22.0841 30.0302 22.1242 29.3055 21.5208 29.1825C21.4925 29.7175 21.6083 30.248 21.5709 30.7849C20.6311 29.9363 19.5254 28.1707 20.7842 27.1389Z" fill="black"/>
<path d="M33.5967 32.2971C33.5484 30.3884 36.8335 28.8407 37.8097 30.7348C38.2418 32.865 35.6896 33.2323 34.1774 33.4311C34.0078 32.3637 35.2539 32.1084 35.5063 31.2653C34.7607 31.3619 34.0725 31.7092 33.5967 32.2971Z" fill="black"/>
<path d="M4.04527 37.6923C4.49373 36.8273 4.41352 35.2905 5.63313 35.1C6.57654 35.3005 7.05691 36.2521 7.68312 36.8966C8.76236 36.83 10.26 36.243 11.0038 37.3341C11.3337 38.5127 10.301 39.5199 9.7313 40.4588C10.0403 41.373 10.7048 42.331 10.3885 43.32C9.55993 44.2798 8.20269 43.423 7.18908 43.2854C6.27666 43.7347 5.60578 44.9443 4.46274 44.7237C3.31515 44.1212 3.75632 42.599 3.58587 41.5517C2.81564 40.9227 1.46659 40.6566 1.32349 39.5135C1.64343 38.3386 3.06539 38.1043 4.04527 37.6923ZM5.54198 35.8638C4.94767 36.4837 4.98413 37.4553 4.71614 38.2392C3.84473 38.6193 2.50846 38.6503 2.10648 39.6293C2.56132 40.3813 3.60865 40.5417 4.24033 41.1451C4.49191 42.0639 4.10634 43.1459 4.61405 43.9818C5.35329 44.1787 5.89473 43.3291 6.44984 42.9436C7.39326 41.9309 8.63748 43.3747 9.7632 43.0502C9.82883 42.1132 9.2728 41.3065 9.01393 40.4424C9.33479 39.4762 10.5261 38.7068 10.2873 37.6021C9.38401 37.1728 8.35764 37.6012 7.41514 37.6577C6.71965 37.1454 6.40882 36.1236 5.54198 35.8638Z" fill="black"/>
<path d="M74.6894 44.3247C74.8498 43.2008 76.1214 42.8425 76.4386 44.0959C76.7849 44.1788 77.1304 44.2691 77.4804 44.3429C77.8368 45.1277 76.6601 45.5725 77.0019 46.4047C77.1477 47.3354 76.0512 47.1203 75.559 46.8003C74.6666 47.5806 73.9957 46.8441 74.2081 45.8268C73.4716 45.2808 73.5609 44.1141 74.6894 44.3247ZM74.3758 44.9746C74.9182 45.3045 74.9938 45.8651 74.7842 46.4312C75.2408 45.9554 75.8242 46.0739 76.3565 46.3391C76.1195 45.7074 76.4167 45.2006 76.8843 44.7914C76.6236 44.7886 76.3647 44.7941 76.1059 44.8005C75.9254 44.5371 75.7595 44.2645 75.6118 43.9819C75.425 44.5562 74.9865 44.9226 74.3758 44.9746Z" fill="black"/>
<path d="M57.5347 64.5975C59.2082 63.3223 62.3338 62.6578 63.8378 64.4252C61.8024 63.5484 59.5701 63.9686 57.5347 64.5975Z" fill="black"/>
</svg>
