<svg width="80" height="80" viewBox="0 0 80 80" fill="none" xmlns="http://www.w3.org/2000/svg">
<rect width="80" height="80" fill="white"/>
<path d="M67.8426 20.4591C67.7785 20.3516 67.703 20.2667 67.6201 20.197C67.8294 19.8066 67.7332 19.2767 67.3485 19.0278C67.1015 18.8675 66.7941 18.8675 66.5414 18.9882C66.9525 18.0699 67.16 17.0629 67.1072 16.054C67.0317 14.6039 66.3378 12.4127 64.7255 11.9998C63.398 11.6603 62.5268 12.6918 62.1194 13.8214C62.1119 13.81 62.1044 13.8006 62.093 13.7912C61.5971 13.414 60.9616 13.4989 60.4902 13.8968C59.9207 14.3795 59.849 15.1621 59.949 15.8579C60.1809 17.4834 61.0653 19.1032 62.2269 20.2969C62.1326 20.2743 62.0402 20.2648 61.9535 20.2799C61.8611 20.2969 61.7725 20.3403 61.697 20.3987C60.9145 20.0235 60.3393 19.4955 59.7717 18.8204C59.7284 18.7695 59.6605 18.8355 59.685 18.8883C60.0376 19.6539 60.807 20.2309 61.6141 20.4798C61.6046 20.4911 61.5914 20.5024 61.5839 20.5156C60.2884 20.493 59.1815 20.0404 58.3631 18.926C58.3122 18.8562 58.1953 18.9184 58.2424 18.9958C58.9062 20.0668 60.23 20.8117 61.5066 20.6986C61.4934 20.7778 61.5009 20.8607 61.5405 20.9437C61.7706 21.4189 62.8662 21.4623 63.2829 21.5415C64.4728 21.7659 65.6344 22.0016 66.5735 22.8238C66.6112 22.8577 66.681 22.8124 66.6489 22.7653C66.449 22.4768 66.2171 22.2486 65.9569 22.0657C65.9512 22.0487 65.9418 22.0299 65.9248 22.0148C65.8041 21.9167 65.6834 21.8243 65.559 21.7357C66.2152 21.8451 66.9846 21.8451 67.5428 21.4906C67.9067 21.2605 68.0802 20.8513 67.8426 20.4591ZM67.2316 19.1636C67.5465 19.3578 67.6163 19.7764 67.4617 20.0914C66.9506 19.8217 66.2322 20.08 65.6495 20.461C65.9625 20.065 66.2322 19.635 66.4528 19.1806C66.6885 19.0391 66.9884 19.0127 67.2316 19.1636ZM62.8228 20.5628C62.7625 20.5307 62.6984 20.4949 62.6305 20.4591C61.9309 19.6426 61.3142 18.777 60.8692 17.7889C60.6297 17.2571 60.4204 16.6914 60.3016 16.12C60.0998 15.1489 60.5298 13.1576 61.9837 13.9779C62.012 13.9948 62.0384 13.9967 62.0629 13.9911C61.978 14.2551 61.9196 14.5228 61.8856 14.7755C61.6197 16.7819 62.0874 18.9222 63.166 20.6363C63.0529 20.6099 62.9397 20.5835 62.8228 20.5628ZM64.6614 21.187C64.2446 20.972 63.8109 20.8042 63.3565 20.6835C62.5814 19.239 62.0704 17.7116 62.0384 16.0522C62.0233 15.3299 62.0666 14.5756 62.2967 13.8855C62.6795 12.739 63.8656 11.6698 65.1158 12.4014C66.4698 13.1953 66.8903 15.2206 66.8054 16.6575C66.7036 18.3848 65.8475 19.8255 64.6991 21.0663C64.6614 21.104 64.6538 21.1474 64.6614 21.187ZM67.4296 21.2982C67.292 21.4038 67.0732 21.4472 66.9073 21.483C66.3698 21.5999 65.8381 21.5716 65.3044 21.4547C65.2573 21.4434 65.2196 21.4623 65.195 21.4906C65.0876 21.4227 64.9801 21.3586 64.8707 21.2963C64.882 21.2944 64.8933 21.2907 64.9028 21.2794C65.3874 20.7344 66.2642 20.08 67.0506 20.2347C67.4805 20.3214 68.1537 20.7382 67.4296 21.2982Z" fill="#1D1D1B"/>
<path d="M26.6944 18.202C27.3827 17.6721 27.9843 17.0253 28.4595 16.2748C29.6399 14.4136 29.9699 11.683 28.1031 10.1368C26.4248 8.74698 24.4071 9.39378 23.27 11.1004C21.9556 13.0728 21.7859 15.5676 21.8877 17.9059C21.5936 17.1988 21.092 16.1371 20.5527 16.303C19.821 13.9855 19.5249 11.6793 19.7418 9.22973C19.7493 9.14675 19.6079 9.12601 19.5966 9.21087C19.2572 11.5963 19.5287 14.1156 20.4508 16.3502C20.4188 16.3709 20.3848 16.3936 20.3528 16.4218C20.2849 16.4841 20.2396 16.5557 20.2113 16.6349C18.9404 15.3734 18.4708 13.6913 17.924 11.998C17.9013 11.9282 17.7995 11.9565 17.8146 12.0281C18.1955 13.7366 18.8065 15.6072 20.1812 16.7632C20.1095 17.359 20.7846 18.2793 21.2127 18.8469C19.7757 18.9053 18.5123 18.4226 17.1753 17.8908C16.1005 17.4628 14.7861 16.8933 13.6151 17.2893C11.8652 17.8814 11.439 20.4158 12.0537 21.9319C12.8853 23.9836 15.4971 24.1759 17.3997 23.8855C18.5613 23.7082 19.64 23.2538 20.5225 22.558C19.87 23.8648 19.6381 26.1106 21.3447 26.4293C23.1983 26.7763 23.9168 23.6215 24.0054 22.375C24.0054 22.3637 24.0035 22.3543 24.0016 22.3449C24.2072 22.5372 24.4203 22.7201 24.6409 22.888C24.7069 22.9389 24.8049 22.8389 24.7559 22.7729C24.7559 22.771 24.754 22.771 24.754 22.7692C24.8879 22.7767 25.0105 22.6164 24.8823 22.5146C24.6993 22.3694 24.5296 22.211 24.3675 22.0488C25.8534 22.5466 28.0163 22.426 28.8517 21.0117C29.7889 19.4258 28.088 18.4264 26.6944 18.202ZM22.7193 13.0125C23.4057 10.9269 25.3876 8.60555 27.6901 10.2424C29.7304 11.6944 29.2609 14.5324 28.0125 16.3389C26.8038 18.0869 24.8483 19.2089 22.7552 19.4824C22.7099 19.488 22.676 19.5106 22.6496 19.537C22.4667 19.1788 22.2913 18.8167 22.1159 18.4565C22.114 18.4528 22.1121 18.4471 22.1103 18.4433C22.1348 16.6161 22.1423 14.7624 22.7193 13.0125ZM21.19 17.2497C21.3164 17.3798 21.4314 17.5948 21.5351 17.8324C21.4201 17.6362 21.3051 17.442 21.19 17.2497ZM16.9095 23.6083C14.8371 23.8138 12.3309 23.2764 12.1311 20.8099C12.0575 19.9123 12.2951 18.9204 12.8835 18.2246C13.815 17.1252 15.2557 17.5269 16.4305 17.9512C18.0201 18.5263 19.6475 19.4239 21.3748 19.06C21.422 19.1241 21.4635 19.1788 21.4936 19.224C21.6709 19.4842 21.8538 19.7482 22.0424 20.0122C22.0292 20.0273 22.016 20.0443 22.0065 20.0669C21.158 22.1884 19.1214 23.3877 16.9095 23.6083ZM23.7848 22.3486C23.4868 23.5008 23.2719 25.3243 22.1159 25.9579C20.9637 26.5896 20.3377 25.3318 20.3264 24.372C20.3169 23.629 20.5451 22.9709 20.8261 22.3072C21.4276 21.766 21.9217 21.1003 22.2592 20.3196C22.7646 21.0117 23.3133 21.6905 23.9243 22.2751C23.8696 22.26 23.8017 22.2808 23.7848 22.3486ZM27.8466 21.5434C26.6925 22.1865 25.3556 22.079 24.1185 21.7905C23.5887 21.1965 23.1681 20.5214 22.7929 19.8142C24.0921 19.6389 25.3311 19.1618 26.3908 18.4245C26.9301 18.5301 27.4789 18.6432 27.9597 18.9261C29.0667 19.5766 28.9347 20.9362 27.8466 21.5434Z" fill="#1D1D1B"/>
<path d="M5.90807 37.8851C5.99104 37.6908 6.0759 37.4966 6.16264 37.3024C8.69893 38.2509 10.9844 36.4199 12.2328 34.3079C12.2686 34.2475 12.2346 34.1551 12.163 34.1419C11.5464 34.0326 10.9184 33.9345 10.3018 33.9402C11.0259 33.1934 10.8543 32.0394 11.3804 31.1757C11.4125 31.1229 11.3823 31.0305 11.3144 31.023C9.90201 30.8589 8.67253 31.6867 7.93899 32.837C8.0955 32.2091 8.19356 31.5679 8.20487 30.9042C8.20676 30.9042 8.20676 30.9042 8.20864 30.9042C10.628 29.2259 9.55316 26.0484 8.31047 23.9987C8.2671 23.9289 8.12944 23.9308 8.11813 24.027C8.00499 24.9849 7.53921 25.8467 7.24693 26.7537C6.74156 26.1842 6.16641 25.7411 5.47813 25.3922C5.40836 25.3564 5.33293 25.4035 5.32916 25.4808C5.26881 26.7895 5.2047 28.251 5.9703 29.3899C6.46059 30.1197 7.22996 30.6402 8.10304 30.6119C8.09927 30.6175 8.0955 30.6213 8.09361 30.6288C8.08796 30.6854 8.07664 30.742 8.07099 30.7986C8.07099 30.8004 8.07099 30.8023 8.0691 30.8042C8.0691 30.8061 8.0691 30.8061 8.0691 30.808C7.89939 32.1336 7.48076 33.3631 6.98293 34.5643C7.15076 33.6403 7.26013 32.622 6.96219 31.7697C6.58881 30.7005 5.47624 30.6119 4.78419 29.8406C4.73139 29.7822 4.64087 29.8199 4.62013 29.8859C4.02047 31.8338 4.2807 34.5926 6.61521 35.1772C6.63407 35.2168 6.65104 35.2564 6.66802 35.2941C6.66802 35.296 6.6699 35.2979 6.67179 35.2979C6.18527 36.4123 5.66104 37.5192 5.23864 38.6714C5.38007 37.2571 5.19716 35.8183 3.9507 34.9038C3.8979 34.866 3.83756 34.9113 3.8187 34.9603C3.51699 35.7504 3.40196 36.5575 3.55659 37.3835C3.25299 37.1779 2.96636 36.963 2.83436 36.582C2.79853 36.4802 2.63636 36.4953 2.64013 36.6122C2.6439 36.7423 2.6439 36.8913 2.64201 37.0516C2.62693 37.0704 2.62127 37.0968 2.62881 37.127C2.63259 37.1402 2.63636 37.1534 2.64013 37.1666C2.61939 38.7544 2.50436 41.4453 4.43156 41.5245C4.43533 41.532 4.4391 41.5396 4.44287 41.5471C4.45796 41.5754 4.48436 41.5848 4.51076 41.5867C4.37499 42.8426 4.51264 44.1079 5.17264 45.2054C5.23487 45.3091 5.42156 45.2375 5.37253 45.1187C4.95579 44.0796 4.81247 43.0425 4.85773 42.0129C6.72836 42.771 8.7687 40.1838 9.84167 39.0052C9.90013 38.9411 9.87561 38.8336 9.78699 38.811C9.67007 38.7808 9.55316 38.7582 9.43624 38.7374C9.42493 38.7318 9.41173 38.7299 9.39664 38.7299C7.54487 38.4338 5.71384 39.3672 4.96333 40.9965C5.13116 39.9443 5.47436 38.9071 5.90807 37.8851ZM11.7085 34.7171C11.5501 35.0131 11.288 35.296 11.0655 35.5449C10.6657 35.9918 10.2056 36.401 9.68516 36.699C8.65933 37.2873 7.49584 37.4646 6.37007 37.144C8.24824 36.4161 10.0604 35.5487 11.8066 34.5455C11.7802 34.5888 11.7481 34.6435 11.7085 34.7171ZM10.8109 32.0582C10.6544 32.7144 10.6035 33.3688 10.0887 33.8647C10.0623 33.8911 10.0548 33.9194 10.0604 33.9477C9.49659 33.9798 8.94596 34.108 8.42361 34.4097C7.92013 34.7001 7.49019 35.098 7.11304 35.5468C8.10681 33.827 9.44756 32.5711 11.0466 31.3775C11.0334 31.3944 11.0202 31.4114 11.0033 31.4303C11.0014 31.6019 10.8524 31.8847 10.8109 32.0582ZM7.75984 33.4668C8.42739 32.4372 9.16847 31.451 10.4809 31.2379C10.611 31.2096 10.743 31.1946 10.8769 31.1964C10.9863 31.1889 11.0542 31.2021 11.0787 31.2342C9.47019 32.0299 8.15773 33.414 7.20921 34.949C7.41476 34.4606 7.60333 33.9684 7.75984 33.4668ZM5.62333 25.6864C5.75344 25.6279 6.40401 26.2012 6.5115 26.2917C6.75664 26.4991 6.97161 26.7292 7.17716 26.9724C7.09796 27.2496 7.03761 27.5325 7.0131 27.8248C6.98859 28.1246 7.0131 28.4094 7.07344 28.6828C6.7491 28.2717 6.42287 27.8719 6.16076 27.4137C5.88356 26.9272 5.69121 26.4143 5.49887 25.8957C5.52527 25.7901 5.56299 25.7128 5.62333 25.6864ZM5.52339 27.31C5.51019 27.1516 5.44607 26.6406 5.45927 26.2332C5.7591 27.2346 6.37196 28.2528 7.10927 28.9242C7.1187 28.9336 7.13001 28.9374 7.14133 28.9374C7.31481 29.488 7.6335 29.9877 7.99744 30.461C6.44739 30.28 5.6535 28.7959 5.52339 27.31ZM7.20167 27.9719C7.21299 27.6796 7.26767 27.3948 7.34687 27.1158C7.41287 27.1063 7.46944 27.0139 7.41099 26.9442C7.40721 26.9404 7.40344 26.9366 7.40156 26.9328C7.54299 26.4803 7.73533 26.039 7.8975 25.6015C7.92767 25.5204 8.09361 24.9038 8.19356 24.5814C8.63481 26.5142 8.65367 28.5168 8.16527 30.4403C7.67499 29.6766 7.16396 28.9355 7.20167 27.9719ZM8.6235 28.8996C8.7951 27.4024 8.68007 25.9051 8.3331 24.4418C8.46133 24.6134 8.69516 25.1244 8.73476 25.2055C9.12887 26.0107 9.43624 26.8914 9.45133 27.7965C9.46453 28.6338 9.23824 29.5728 8.66876 30.2159C8.19544 30.7495 8.38213 30.3347 8.46887 29.8915C8.53487 29.5634 8.5839 29.2315 8.6235 28.8996ZM7.90881 35.0339C8.37459 34.636 8.91956 34.3418 9.5211 34.2174C10.034 34.1118 11.2013 34.0062 11.6652 34.2834C11.701 34.306 11.733 34.323 11.7576 34.3362C10.0208 35.3488 8.2143 36.2143 6.33801 36.9384C6.80756 36.2577 7.27899 35.5732 7.90881 35.0339ZM4.49379 31.4529C4.50321 31.3152 4.54847 30.5402 4.65973 30.3007C5.19904 31.9055 5.82887 33.4725 6.53979 35.0075C5.09721 34.4229 4.39573 32.9935 4.49379 31.4529ZM6.72647 34.8679C6.61521 34.8396 6.4455 34.3475 6.40401 34.2532C5.8119 32.9275 5.29521 31.5736 4.82944 30.1989C4.84264 30.2159 4.85961 30.2649 5.03687 30.3441C5.60447 30.5968 6.26447 30.9834 6.58504 31.5038C6.95464 32.1016 6.94333 32.7993 6.89807 33.4838C6.89053 33.5894 6.74156 34.8717 6.72647 34.8679ZM3.67916 36.1219C3.70744 35.9258 3.71499 35.5562 3.84133 35.411C3.86207 35.3884 3.88093 35.3695 3.90167 35.3544C4.15436 36.435 4.40893 37.5174 4.66161 38.5979C4.52584 38.2886 4.34481 38.0133 4.0959 37.7814C3.96767 37.6607 3.82247 37.5607 3.67539 37.4608C3.63767 37.0139 3.61504 36.5726 3.67916 36.1219ZM2.82304 37.7776C3.20961 39.0071 3.7131 40.1894 4.32784 41.3265C2.83059 40.9192 2.79099 39.2409 2.82304 37.7776ZM4.55036 41.0568C4.49944 41.1172 4.48624 41.1549 4.48247 41.1738C4.47681 41.153 4.45607 41.1134 4.38441 41.055C4.10721 40.8324 3.94127 40.1819 3.7923 39.8519C3.40384 38.9844 3.0927 38.0887 2.83436 37.1742C2.83624 37.1157 2.83624 37.0572 2.83624 37.0007C2.99276 37.21 3.1983 37.3627 3.4359 37.5324C4.4259 38.2396 4.82379 39.1504 4.67481 40.3629C4.66727 40.427 4.65973 40.5628 4.64464 40.7004C4.62767 40.7834 4.6107 40.8664 4.59561 40.9512C4.58619 40.9965 4.5711 41.0342 4.55036 41.0568ZM4.71441 38.0623L4.06573 35.3111C4.16379 35.3318 4.26184 35.428 4.38441 35.5543C5.04441 36.2351 5.1519 37.3646 5.10099 38.2584C5.08779 38.4847 4.94636 39.3201 5.01424 39.3276C4.94824 39.3201 4.7427 38.183 4.71441 38.0623ZM8.2011 40.3044C7.60144 40.8532 6.92447 41.5434 6.13624 41.8055C5.89864 41.8847 4.95767 42.1128 4.98596 41.6471C4.99727 41.4755 5.86659 40.9682 6.01367 40.8645C7.09419 40.097 8.25767 39.5407 9.40796 38.8996C9.43247 38.9166 9.45133 38.9373 9.46076 38.9637C9.56824 39.2315 8.41984 40.1046 8.2011 40.3044ZM7.34876 39.0938C7.53921 39.0278 8.57636 38.7827 9.12699 38.8242C7.67122 39.3918 6.30596 40.3139 5.07081 41.285C5.50076 40.2856 6.25316 39.4672 7.34876 39.0938Z" fill="#1D1D1B"/>
<path d="M29.423 73.2177C29.6267 73.2743 29.8304 73.3346 30.034 73.3969C29.4155 76.0312 31.52 78.0678 33.7715 79.0389C33.8356 79.0672 33.9224 79.0219 33.9261 78.9484C33.9563 78.3223 33.9752 77.6869 33.8903 77.0759C34.7219 77.7001 35.8458 77.3833 36.7698 77.7943C36.8264 77.8189 36.915 77.7793 36.9131 77.7095C36.8961 76.2877 35.9193 75.1732 34.688 74.5905C35.331 74.6659 35.9797 74.6829 36.6378 74.6094C36.6378 74.6112 36.6378 74.6113 36.6397 74.6131C38.6102 76.8006 41.6255 75.3335 43.5018 73.84C43.5659 73.7891 43.5452 73.6514 43.449 73.6533C42.4854 73.6627 41.5708 73.3101 40.6336 73.1347C41.1333 72.5615 41.501 71.9354 41.7594 71.2075C41.7858 71.134 41.7292 71.0661 41.6538 71.0718C40.3489 71.1774 38.8893 71.2999 37.8578 72.2032C37.1978 72.7821 36.7773 73.6099 36.915 74.4736C36.9093 74.4698 36.9056 74.4679 36.898 74.4679C36.8414 74.4698 36.7849 74.4661 36.7283 74.4661C36.7264 74.4661 36.7245 74.4661 36.7226 74.4661C36.7208 74.4661 36.7208 74.4661 36.7189 74.4661C35.3819 74.4661 34.1109 74.2058 32.855 73.8645C33.7922 73.9135 34.8162 73.8928 35.6252 73.4893C36.6397 72.982 36.585 71.8675 37.2638 71.0831C37.3148 71.0227 37.2657 70.9379 37.1978 70.9266C35.1896 70.5796 32.4854 71.1849 32.2007 73.576C32.1649 73.5986 32.1272 73.6213 32.0913 73.6439C32.0894 73.6458 32.0894 73.6458 32.0876 73.6477C30.9203 73.3063 29.7568 72.9273 28.5594 72.6539C29.9812 72.6143 31.3842 72.2522 32.1347 70.9002C32.1668 70.8436 32.1121 70.7889 32.0612 70.7757C31.2409 70.5777 30.4244 70.5645 29.6248 70.8229C29.7908 70.4966 29.968 70.1836 30.3282 70.0045C30.4262 69.9554 30.3904 69.797 30.2735 69.8159C30.1453 69.8366 29.9982 69.8555 29.8379 69.8743C29.8172 69.863 29.7908 69.8593 29.7606 69.8706C29.7474 69.8762 29.7361 69.8819 29.7229 69.8875C28.1445 70.0686 25.463 70.2949 25.6271 72.2164C25.6196 72.2221 25.6139 72.2258 25.6064 72.2315C25.58 72.2503 25.5743 72.2767 25.5743 72.3031C24.3128 72.3277 23.0738 72.6237 22.0688 73.4176C21.9745 73.493 22.0669 73.6684 22.18 73.6062C23.1568 73.0612 24.1676 72.7878 25.1953 72.7029C24.6805 74.6546 27.5053 76.3499 28.8102 77.2663C28.8818 77.3173 28.9856 77.2777 28.9969 77.1871C29.012 77.0665 29.0195 76.9477 29.0252 76.8289C29.0308 76.8157 29.0308 76.8025 29.027 76.7893C29.0874 74.9149 27.9296 73.2158 26.2192 72.6784C27.2809 72.7105 28.3538 72.9179 29.423 73.2177ZM33.2982 78.5713C32.9852 78.4525 32.6721 78.2262 32.3949 78.0376C31.9009 77.6982 31.437 77.2946 31.0749 76.8138C30.3602 75.869 30.0378 74.7395 30.2132 73.5817C31.173 75.3523 32.2629 77.0401 33.4792 78.6448C33.434 78.6259 33.3755 78.6014 33.2982 78.5713ZM35.8232 77.3455C35.1537 77.2739 34.4956 77.3059 33.9393 76.8571C33.911 76.8345 33.8809 76.8307 33.8545 76.8402C33.7526 76.2858 33.5546 75.7559 33.1888 75.275C32.8381 74.813 32.3893 74.4359 31.8952 74.1191C33.7262 74.8866 35.1424 76.0595 36.5284 77.4945C36.5096 77.4851 36.4907 77.4738 36.47 77.4587C36.2984 77.4757 36.0004 77.3644 35.8232 77.3455ZM34.0393 74.4962C35.1462 75.028 36.2173 75.639 36.5944 76.9137C36.6397 77.0401 36.6698 77.1683 36.6849 77.3003C36.7076 77.4078 36.7019 77.4757 36.6736 77.5058C35.6798 76.0105 34.1411 74.8847 32.4986 74.1379C33.0097 74.2794 33.5226 74.4057 34.0393 74.4962ZM41.486 71.3923C41.5595 71.513 41.0749 72.2315 40.9994 72.3484C40.8241 72.6181 40.6242 72.8613 40.4073 73.0951C40.1226 73.0518 39.8341 73.0273 39.5418 73.0405C39.2401 73.0537 38.961 73.114 38.6989 73.2083C39.0647 72.8349 39.4192 72.4597 39.8416 72.1429C40.2885 71.8053 40.7732 71.5507 41.2634 71.2943C41.3709 71.3075 41.452 71.3377 41.486 71.3923ZM39.8642 71.4979C40.0189 71.464 40.5186 71.3358 40.9259 71.2981C39.9698 71.7205 39.0383 72.4578 38.465 73.2762C38.4575 73.2875 38.4556 73.2988 38.4556 73.3101C37.9314 73.5515 37.4769 73.9305 37.0508 74.351C37.0338 72.7915 38.4066 71.8166 39.8642 71.4979ZM39.4192 73.246C39.7096 73.2196 40 73.2385 40.2866 73.2818C40.3036 73.3459 40.4036 73.3912 40.4658 73.3233C40.4696 73.3195 40.4733 73.3158 40.4752 73.312C40.9429 73.395 41.403 73.5307 41.8593 73.6363C41.9442 73.6552 42.5759 73.7419 42.9097 73.8004C41.0485 74.483 39.0628 74.7546 37.0941 74.5132C37.7881 73.9343 38.4575 73.3327 39.4192 73.246ZM38.6781 74.7753C40.1848 74.7565 41.6557 74.4529 43.0643 73.923C42.9097 74.0719 42.4345 74.3699 42.359 74.4189C41.6104 74.9111 40.775 75.3297 39.8793 75.4579C39.0515 75.5767 38.0898 75.4711 37.3808 74.9865C36.7905 74.5848 37.228 74.7169 37.6768 74.747C38.0106 74.7697 38.3444 74.7791 38.6781 74.7753ZM32.5024 74.8432C32.955 75.2543 33.317 75.7597 33.515 76.3386C33.6848 76.8326 33.9374 77.9791 33.7206 78.4751C33.7036 78.5147 33.6904 78.5467 33.6791 78.5731C32.4553 76.9778 31.3672 75.2958 30.4112 73.527C31.1504 73.9041 31.8877 74.285 32.5024 74.8432ZM35.6233 71.002C35.7609 70.9926 36.536 70.9417 36.7886 71.0209C35.265 71.7601 33.7904 72.5822 32.3572 73.4798C32.7532 71.9769 34.0808 71.0982 35.6233 71.002ZM32.5194 73.6477C32.5326 73.5345 33.0002 73.3026 33.087 73.2498C34.3259 72.4955 35.6044 71.811 36.9093 71.1755C36.8942 71.1906 36.8471 71.2132 36.7924 71.3999C36.6133 71.9958 36.3134 72.6973 35.8382 73.0819C35.2914 73.5232 34.5974 73.6005 33.9129 73.6439C33.8073 73.6514 32.5175 73.6646 32.5194 73.6477ZM30.8882 70.7851C31.0862 70.7889 31.454 70.7493 31.6142 70.8568C31.6406 70.8738 31.6595 70.8907 31.6784 70.9096C30.6374 71.2981 29.5984 71.6865 28.5575 72.075C28.8479 71.9015 29.0968 71.6865 29.2967 71.4112C29.4004 71.2679 29.4815 71.1114 29.5607 70.953C29.9982 70.8568 30.4338 70.7776 30.8882 70.7851ZM29.1383 70.144C27.9673 70.6833 26.8585 71.332 25.8081 72.0863C26.0231 70.5513 27.6825 70.2986 29.1383 70.144ZM26.1042 72.2749C26.0382 72.2315 26.0005 72.2239 25.9797 72.2239C26.0005 72.2164 26.0363 72.19 26.0853 72.1108C26.272 71.8091 26.8962 71.5602 27.2036 71.3716C28.0144 70.8757 28.8649 70.4551 29.738 70.0818C29.7964 70.0761 29.853 70.0686 29.9096 70.0629C29.7229 70.2439 29.5965 70.4683 29.457 70.7248C28.8818 71.7959 28.0276 72.3069 26.8076 72.3126C26.7434 72.3126 26.6077 72.3239 26.4681 72.3239C26.3833 72.3182 26.2984 72.3126 26.2136 72.3069C26.1683 72.3013 26.1287 72.2899 26.1042 72.2749ZM29.0949 72.058L31.7425 71.0661C31.7349 71.1661 31.652 71.2754 31.5426 71.4112C30.9524 72.1504 29.8436 72.4012 28.9497 72.4653C28.7234 72.4804 27.8768 72.4465 27.8786 72.5143C27.8768 72.4483 28.978 72.1014 29.0949 72.058ZM27.311 75.8011C26.6906 75.275 25.9213 74.6923 25.5611 73.9437C25.4536 73.7193 25.1066 72.8142 25.5724 72.784C25.744 72.7727 26.3569 73.5722 26.4794 73.7042C27.377 74.6773 28.0766 75.7634 28.8573 76.8232C28.8422 76.8496 28.8253 76.8703 28.8008 76.8835C28.55 77.0193 27.5373 75.9916 27.311 75.8011ZM28.4048 74.8017C28.4934 74.9827 28.8686 75.9803 28.8988 76.5309C28.1502 75.1581 27.064 73.9211 25.9439 72.8198C26.9886 73.1197 27.8956 73.7608 28.4048 74.8017Z" fill="#1D1D1B"/>
<path d="M54.0882 27.0931C53.9713 26.9159 53.8581 26.7386 53.7431 26.5576C55.9362 24.9717 55.6779 22.0545 54.6124 19.8463C54.5823 19.7841 54.4861 19.7596 54.4352 19.8124C54.0034 20.2668 53.5734 20.7345 53.2359 21.2512C53.0152 20.2348 51.9592 19.7388 51.5312 18.8224C51.5048 18.7677 51.4124 18.7394 51.3671 18.7922C50.4488 19.8784 50.4563 21.3605 51.0069 22.607C50.5713 22.1299 50.0905 21.6905 49.5455 21.3153C49.5455 21.3134 49.5474 21.3134 49.5474 21.3115C49.4908 18.3679 46.2493 17.5024 43.8544 17.4024C43.7733 17.3987 43.6979 17.5156 43.7715 17.5778C44.505 18.202 44.967 19.0675 45.5591 19.8124C44.8067 19.918 44.1184 20.1518 43.4452 20.5308C43.3773 20.5685 43.3736 20.6572 43.4358 20.7024C44.4918 21.4775 45.6742 22.3411 47.0451 22.3336C47.9238 22.3279 48.7837 21.9772 49.2438 21.2342C49.2457 21.2399 49.2476 21.2455 49.2532 21.2512C49.2966 21.287 49.3381 21.3266 49.3815 21.3643C49.3834 21.3662 49.3833 21.3662 49.3852 21.3681C49.3852 21.37 49.3871 21.3681 49.389 21.37C50.3997 22.2449 51.1899 23.2745 51.9159 24.3551C51.2389 23.7045 50.4525 23.0501 49.5776 22.8257C48.4801 22.5448 47.7899 23.4216 46.7641 23.5706C46.6868 23.5819 46.6679 23.6781 46.7113 23.7328C48.0011 25.3111 50.4431 26.6217 52.2213 25.0019C52.2647 25.0075 52.3062 25.0169 52.3496 25.0226C52.3515 25.0226 52.3534 25.0226 52.3552 25.0226C53.0134 26.0465 53.6451 27.0931 54.3711 28.0831C53.2717 27.1817 51.9724 26.5368 50.5204 27.0686C50.4601 27.0912 50.4639 27.1685 50.494 27.21C50.9843 27.8983 51.5934 28.4414 52.3666 28.7714C52.0271 28.9091 51.6877 29.0297 51.2992 28.9298C51.1936 28.9034 51.1182 29.0467 51.2163 29.1071C51.3275 29.1749 51.4501 29.2579 51.584 29.3484C51.5915 29.3711 51.6104 29.3918 51.6405 29.4012C51.6537 29.405 51.6669 29.4088 51.6801 29.4125C52.9907 30.3101 55.1668 31.8941 56.3001 30.3328C56.3077 30.3328 56.3171 30.3347 56.3247 30.3347C56.3567 30.3365 56.3793 30.3215 56.3963 30.3007C57.3675 31.1078 58.497 31.6961 59.7774 31.7546C59.8981 31.7603 59.9415 31.566 59.817 31.5396C58.7214 31.3115 57.7785 30.857 56.9469 30.2479C58.6139 29.1089 57.5881 25.9787 57.2015 24.4324C57.1808 24.3475 57.0771 24.3098 57.0092 24.3701C56.9187 24.4512 56.8357 24.5361 56.7546 24.6228C56.7433 24.6285 56.7339 24.6398 56.7263 24.653C55.4535 26.0296 55.2159 28.0737 56.1568 29.5992C55.3724 28.8808 54.6992 28.0209 54.0882 27.0931ZM54.6633 20.5101C54.8217 20.8061 54.9123 21.1814 54.9971 21.5039C55.148 22.0847 55.2347 22.6937 55.1932 23.2934C55.114 24.4739 54.6181 25.5412 53.728 26.3011C54.1617 24.3343 54.4446 22.3449 54.5747 20.3347C54.5955 20.38 54.6237 20.4365 54.6633 20.5101ZM51.9517 19.7841C52.4118 20.2781 52.9285 20.6836 53.0548 21.3869C53.0605 21.4228 53.0831 21.4454 53.1076 21.4567C52.821 21.9432 52.6249 22.4731 52.5853 23.0747C52.5476 23.6536 52.64 24.2325 52.8059 24.7963C51.9253 23.0162 51.6217 21.204 51.5142 19.2127C51.5217 19.2316 51.5293 19.2542 51.5349 19.2787C51.6783 19.373 51.831 19.654 51.9517 19.7841ZM51.435 23.1048C50.9466 21.9772 50.5374 20.8156 51.088 19.6049C51.1371 19.4805 51.1974 19.3636 51.2728 19.2523C51.3275 19.1561 51.3747 19.109 51.4161 19.1052C51.188 20.8853 51.6142 22.7447 52.3666 24.3833C52.0705 23.944 51.7669 23.5121 51.435 23.1048ZM43.7733 20.5742C43.796 20.4347 44.6332 20.2084 44.769 20.1707C45.0764 20.082 45.3894 20.0292 45.7062 19.9934C45.8929 20.214 46.0947 20.4196 46.3247 20.6025C46.5604 20.7892 46.8112 20.9268 47.0715 21.0268C46.551 21.0701 46.0362 21.1192 45.5101 21.0852C44.9519 21.0475 44.4183 20.9231 43.8789 20.7948C43.8054 20.7156 43.7639 20.6402 43.7733 20.5742ZM45.0688 21.5567C44.9293 21.4812 44.4692 21.2512 44.1354 21.0136C45.1348 21.3191 46.3228 21.3719 47.2902 21.1286C47.3034 21.1248 47.3128 21.1173 47.3204 21.1097C47.8748 21.27 48.4669 21.2813 49.0628 21.2417C48.0539 22.4316 46.3794 22.2713 45.0688 21.5567ZM46.551 20.5271C46.3134 20.3555 46.1079 20.1518 45.9193 19.9331C45.9476 19.8727 45.9023 19.7747 45.8118 19.7841C45.8061 19.7841 45.8024 19.786 45.7967 19.786C45.4988 19.4164 45.2385 19.0128 44.9632 18.6357C44.9123 18.5659 44.4899 18.0869 44.2768 17.8248C46.1305 18.5282 47.8088 19.6219 49.1401 21.0928C48.2331 21.0758 47.3336 21.0928 46.551 20.5271ZM48.1105 19.8576C46.9583 18.8865 45.6477 18.1511 44.2391 17.6306C44.4541 17.6193 45.0085 17.706 45.0971 17.7173C45.9853 17.8361 46.8904 18.0662 47.6523 18.5546C48.3575 19.0072 49.0137 19.7162 49.2325 20.5459C49.4154 21.2361 49.1721 20.8495 48.8516 20.5327C48.614 20.2989 48.3669 20.0726 48.1105 19.8576ZM52.8229 23.8478C52.7493 23.2406 52.8078 22.6221 53.036 22.0545C53.2321 21.5699 53.7903 20.5384 54.2787 20.3045C54.3164 20.2857 54.3484 20.2706 54.3748 20.2555C54.256 22.2619 53.9769 24.2457 53.5395 26.2087C53.2321 25.445 52.9228 24.6737 52.8229 23.8478ZM47.9502 24.7096C47.8408 24.6266 47.2204 24.1571 47.0828 23.9327C48.7177 24.372 50.3715 24.7152 52.0422 24.9755C50.7561 25.8523 49.1778 25.6449 47.9502 24.7096ZM52.029 24.7416C51.9441 24.8189 51.4407 24.6869 51.3388 24.67C49.9076 24.4286 48.4933 24.108 47.0922 23.7347C47.113 23.7328 47.1639 23.746 47.3279 23.6423C47.854 23.3085 48.5404 22.9747 49.1514 22.9955C49.8548 23.02 50.428 23.416 50.973 23.8308C51.0579 23.8968 52.0422 24.7303 52.029 24.7416ZM51.386 27.9737C51.2389 27.8417 50.9353 27.6305 50.8844 27.4439C50.8768 27.4137 50.8731 27.3873 50.8712 27.3628C51.9121 27.7512 52.953 28.1378 53.992 28.5263C53.6601 28.4678 53.3302 28.4659 52.9983 28.5451C52.8267 28.5847 52.6626 28.6507 52.4985 28.7186C52.1063 28.5017 51.7254 28.2755 51.386 27.9737ZM52.2911 29.603C53.53 29.9613 54.7916 30.1989 56.0795 30.3158C54.9104 31.336 53.4904 30.4403 52.2911 29.603ZM55.9777 29.9801C56.0003 30.0556 56.023 30.0876 56.038 30.1008C56.0173 30.0933 55.9739 30.0895 55.8853 30.1178C55.5459 30.2234 54.9123 30.0028 54.5559 29.9443C53.6187 29.7878 52.7003 29.5502 51.7971 29.2598C51.748 29.2259 51.7009 29.1938 51.6538 29.1617C51.914 29.1467 52.1572 29.0618 52.4288 28.9562C53.5659 28.5244 54.5445 28.6979 55.4723 29.4917C55.5213 29.5332 55.6307 29.6143 55.7363 29.7048C55.7967 29.7652 55.857 29.8255 55.9173 29.884C55.9456 29.9179 55.9683 29.9519 55.9777 29.9801ZM53.5753 28.1868L50.924 27.2044C50.9956 27.1346 51.1295 27.1063 51.3011 27.0743C52.2327 26.9027 53.234 27.4382 53.9505 27.9737C54.1316 28.1095 54.7501 28.6903 54.7916 28.6394C54.752 28.6884 53.6903 28.2302 53.5753 28.1868ZM57.3731 26.5236C57.4976 27.3269 57.6975 28.2717 57.4787 29.0731C57.4127 29.3145 57.0827 30.2253 56.7112 29.9424C56.5755 29.8387 56.6339 28.8336 56.6283 28.6526C56.5868 27.3288 56.7697 26.0503 56.8715 24.7379C56.8998 24.7284 56.9281 24.7228 56.9545 24.7284C57.2373 24.7925 57.3279 26.2313 57.3731 26.5236ZM55.8928 26.5632C55.9437 26.3671 56.3133 25.3677 56.6528 24.9321C56.319 26.4595 56.3303 28.1057 56.4567 29.6709C55.8627 28.762 55.5968 27.6833 55.8928 26.5632Z" fill="#1D1D1B"/>
<path d="M43.7751 4.84167C43.4771 4.7191 43.198 4.58144 42.9359 4.43058C42.7719 3.7951 42.5418 3.13133 42.0836 2.65613C41.516 2.06778 40.6448 2.00933 40.0018 1.54167C39.9263 1.48698 39.8509 1.5775 39.8622 1.64916C39.9886 2.50904 40.1564 3.46133 40.741 4.14395C41.3406 4.84355 42.2439 4.92841 43.1019 4.78698C43.3036 4.89258 43.5073 4.98876 43.7128 5.07361C43.8543 5.13018 43.9165 4.90013 43.7751 4.84167ZM42.6908 4.28161C41.7423 3.68007 41.005 2.88618 40.3167 1.93956C40.8202 2.17527 41.3859 2.29596 41.8102 2.66367C42.2948 3.08041 42.5098 3.68384 42.6908 4.28161ZM42.8039 4.66064C42.8077 4.67007 42.8115 4.67761 42.8171 4.68516C41.944 4.65498 41.1483 4.54373 40.6448 3.6895C40.311 3.12378 40.1771 2.4619 40.0772 1.81698C40.096 1.8283 40.1168 1.83773 40.1356 1.84904C40.6636 3.01441 41.6668 3.96858 42.7888 4.61727C42.7945 4.63047 42.8002 4.64556 42.8039 4.66064Z" fill="#1D1D1B"/>
<path d="M12.5156 62.9895C12.2176 62.8669 11.9385 62.7293 11.6764 62.5784C11.5124 61.9429 11.2823 61.2792 10.8241 60.804C10.2565 60.2156 9.38527 60.1572 8.74224 59.6895C8.66681 59.6348 8.59138 59.7253 8.60269 59.797C8.72904 60.6569 8.89687 61.6092 9.48144 62.2918C10.0811 62.9914 10.9844 63.0762 11.8424 62.9348C12.0441 63.0404 12.2478 63.1366 12.4533 63.2214C12.5929 63.278 12.6551 63.048 12.5156 62.9895ZM11.4294 62.4294C10.4809 61.8279 9.74355 61.034 9.05527 60.0874C9.55875 60.3231 10.1245 60.4438 10.5488 60.8115C11.0334 61.2282 11.2484 61.8317 11.4294 62.4294ZM11.5425 62.8085C11.5463 62.8179 11.5501 62.8254 11.5557 62.833C10.6826 62.8028 9.88687 62.6916 9.38338 61.8373C9.04961 61.2716 8.91572 60.6097 8.81578 59.9648C8.83464 59.9761 8.85538 59.9856 8.87424 59.9969C9.40224 61.1622 10.4054 62.1164 11.5274 62.7651C11.535 62.7783 11.5388 62.7934 11.5425 62.8085Z" fill="#1D1D1B"/>
<path d="M73.656 25.2244C73.4938 24.9453 73.3543 24.6681 73.2374 24.3872C73.4919 23.7837 73.7126 23.1162 73.6352 22.4581C73.541 21.6453 72.8829 21.0721 72.6547 20.3084C72.6283 20.2179 72.5133 20.2461 72.4774 20.3084C72.0569 21.0683 71.6119 21.9282 71.6647 22.8239C71.7175 23.7441 72.385 24.3589 73.1525 24.7681C73.2487 24.9736 73.3543 25.1735 73.4655 25.3659C73.5447 25.5016 73.7333 25.3564 73.656 25.2244ZM73.1337 24.1213C72.7433 23.0672 72.6396 21.9904 72.666 20.8175C72.9243 21.3097 73.2996 21.7491 73.4146 22.2978C73.5466 22.9257 73.3524 23.5367 73.1337 24.1213ZM72.9941 24.4909C72.9903 24.5003 72.9903 24.5097 72.9903 24.5192C72.3134 23.9667 71.7495 23.3953 71.8665 22.4091C71.9438 21.7566 72.2379 21.1494 72.551 20.5761C72.5585 20.5969 72.5698 20.6157 72.5793 20.6365C72.2926 21.8848 72.5133 23.2501 73.0111 24.4475C73.0054 24.4626 72.9998 24.4777 72.9941 24.4909Z" fill="#1D1D1B"/>
<path d="M52.4776 75.5163C52.1514 75.3202 51.8138 75.1392 51.4763 74.9638C50.9464 74.1228 50.3712 73.2968 49.5359 72.7311C48.5214 72.0428 47.29 71.8203 46.1058 71.6072C46.0284 71.594 45.9436 71.6563 45.9719 71.7411C46.7148 74.1115 49.0437 75.8369 51.5498 75.4239C51.5743 75.4277 51.5988 75.4239 51.6215 75.4126C51.6234 75.4126 51.6234 75.4126 51.6252 75.4126C51.8836 75.5182 52.1419 75.6163 52.4022 75.7011C52.5096 75.737 52.5738 75.5729 52.4776 75.5163ZM49.0286 72.6727C49.9243 73.1611 50.5428 73.9342 51.0897 74.7658C50.4712 74.4528 49.8489 74.1473 49.2549 73.7928C48.2649 73.2026 47.322 72.5482 46.3773 71.8901C46.9034 71.7223 48.7495 72.5218 49.0286 72.6727ZM48.4686 74.6244C48.016 74.3623 47.6068 74.0266 47.2579 73.6363C47.1354 73.4986 46.1114 72.2126 46.2642 71.9655C47.7331 73.2233 49.5132 74.4924 51.3405 75.2919C50.3373 75.307 49.3699 75.1467 48.4686 74.6244Z" fill="#1D1D1B"/>
<path d="M68.5496 29.503C68.2234 29.3069 67.8858 29.1259 67.5483 28.9505C67.0184 28.1095 66.4433 27.2835 65.6079 26.7178C64.5934 26.0295 63.362 25.807 62.1778 25.5939C62.1005 25.5807 62.0156 25.643 62.0439 25.7278C62.7869 28.0982 65.1157 29.8236 67.6218 29.4106C67.6464 29.4144 67.6709 29.4106 67.6935 29.3993C67.6954 29.3993 67.6954 29.3993 67.6973 29.3993C67.9556 29.5049 68.214 29.603 68.4742 29.6878C68.5817 29.7255 68.6458 29.5615 68.5496 29.503ZM65.1006 26.6612C65.9964 27.1496 66.6149 27.9228 67.1617 28.7544C66.5432 28.4414 65.9209 28.1359 65.3269 27.7814C64.3369 27.1911 63.3941 26.5368 62.4493 25.8787C62.9736 25.7108 64.8216 26.5085 65.1006 26.6612ZM64.5406 28.613C64.088 28.3508 63.6788 28.0152 63.33 27.6248C63.2074 27.4872 62.1834 26.2011 62.3362 25.9541C63.8052 27.2119 65.5853 28.481 67.4125 29.2805C66.4093 29.2937 65.442 29.1353 64.5406 28.613Z" fill="#1D1D1B"/>
<path d="M21.8179 69.3802C21.4917 69.1841 21.1542 69.0031 20.8166 68.8277C20.2867 67.9867 19.7116 67.1607 18.8762 66.595C17.8617 65.9067 16.6303 65.6842 15.4461 65.4711C15.3688 65.4579 15.2839 65.5202 15.3122 65.605C16.0552 67.9754 18.384 69.7008 20.8902 69.2878C20.9147 69.2916 20.9392 69.2878 20.9618 69.2765C20.9637 69.2765 20.9637 69.2765 20.9656 69.2765C21.2239 69.3821 21.4823 69.4802 21.7425 69.565C21.85 69.6008 21.9141 69.4368 21.8179 69.3802ZM18.3689 66.5366C19.2647 67.025 19.8832 67.7981 20.43 68.6297C19.8115 68.3167 19.1892 68.0112 18.5952 67.6567C17.6052 67.0664 16.6624 66.4121 15.7176 65.754C16.2419 65.5862 18.0899 66.3857 18.3689 66.5366ZM17.8089 68.4883C17.3563 68.2262 16.9471 67.8905 16.5983 67.5002C16.4757 67.3625 15.4517 66.0764 15.6045 65.8294C17.0735 67.0872 18.8536 68.3544 20.6808 69.1558C19.6776 69.1709 18.7103 69.0106 17.8089 68.4883Z" fill="#1D1D1B"/>
<path d="M23.6866 35.0809C23.8657 34.7453 24.0298 34.4002 24.1863 34.0513C24.9991 33.4781 25.7948 32.8633 26.3172 31.9997C26.9527 30.9512 27.1129 29.7104 27.2638 28.5168C27.2732 28.4395 27.2072 28.3584 27.1224 28.3885C24.7935 29.2522 23.1888 31.6659 23.73 34.1475C23.7262 34.172 23.7337 34.1965 23.7451 34.2173C23.7451 34.2192 23.7451 34.2192 23.7451 34.2211C23.6527 34.4851 23.5678 34.7472 23.4961 35.0112C23.4679 35.1243 23.6338 35.1809 23.6866 35.0809ZM26.3492 31.4905C25.908 32.4108 25.1669 33.067 24.3655 33.6553C24.6464 33.0217 24.9199 32.3863 25.2442 31.7734C25.7835 30.7551 26.3888 29.7802 26.996 28.8015C27.1903 29.3201 26.4869 31.2058 26.3492 31.4905ZM24.3711 31.0323C24.6106 30.5665 24.9236 30.1423 25.297 29.7727C25.429 29.6425 26.6604 28.5564 26.9149 28.694C25.7345 30.2252 24.5578 32.0676 23.8525 33.9344C23.7865 32.9331 23.8959 31.9601 24.3711 31.0323Z" fill="#1D1D1B"/>
<path d="M34.4257 33.0312C34.422 33.0312 34.4182 33.0312 34.4144 33.0312C35.6929 31.3774 34.1071 28.8958 33.2283 27.4174C33.1868 27.3477 33.0605 27.3533 33.0435 27.4419C32.8531 28.4187 32.6155 29.3823 32.3364 30.3365C31.4312 29.9952 30.3715 29.8745 29.5097 29.8311C29.4418 29.8274 29.3758 29.9066 29.4022 29.9726C29.7793 30.9569 30.198 32.0337 31.0447 32.7163C32.0196 33.5045 33.2924 33.4253 34.4408 33.1236C34.4899 33.1123 34.4804 33.0274 34.4257 33.0312ZM32.5438 30.4119C32.7324 29.7727 32.9021 29.1297 33.0435 28.4772C33.0416 28.4847 33.0963 28.1547 33.1491 27.9567C33.4584 29.0052 33.6658 30.0405 33.6432 31.1436C33.3415 30.8381 32.9624 30.6024 32.5381 30.4214C32.54 30.4176 32.5438 30.4157 32.5438 30.4119ZM30.6128 30.131C31.1767 30.1913 31.7179 30.2894 32.2477 30.4968C33.217 30.8777 33.9864 31.6527 34.1071 32.6937C32.7871 31.7187 31.3313 30.8626 29.8755 30.1159C30.0358 30.0159 30.3205 30.0989 30.6128 30.131ZM31.369 32.6861C30.9579 32.4165 30.6392 31.9997 30.3847 31.5886C30.2263 31.3341 29.702 30.5213 29.7605 30.2875C29.7661 30.2667 29.7718 30.2479 29.7812 30.229C31.2276 31.1436 32.6645 32.0883 34.1278 32.9746C34.1297 33.0123 34.1485 33.0369 34.1749 33.0519C33.2095 33.1293 32.2327 33.2518 31.369 32.6861ZM34.3277 32.8653C34.3258 32.2581 34.1485 31.7753 33.8544 31.385C33.8751 31.3661 33.8883 31.3397 33.8902 31.3039C33.9279 30.1121 33.7601 28.9128 33.2434 27.8342C33.3565 27.9643 33.6432 28.613 33.679 28.6809C34.3597 30.0178 35.1065 31.4962 34.3428 32.9388C34.3447 32.9143 34.3409 32.8879 34.3277 32.8653Z" fill="#1D1D1B"/>
<path d="M60.8671 70.2835C60.8652 70.2872 60.8633 70.291 60.8614 70.2948C60.0298 68.377 57.09 68.5693 55.3721 68.6259C55.291 68.6278 55.2344 68.7428 55.3042 68.7994C56.0679 69.4368 56.7977 70.11 57.4992 70.8152C56.7619 71.4432 56.1471 72.3125 55.6927 73.0479C55.6568 73.1064 55.6946 73.2007 55.7643 73.212C56.809 73.3572 57.9536 73.5099 58.9587 73.0969C60.1184 72.6236 60.6634 71.4696 60.9538 70.3193C60.9689 70.2665 60.8897 70.2344 60.8671 70.2835ZM57.6651 70.6681C57.1956 70.1948 56.7147 69.7347 56.2131 69.2972C56.2188 69.301 55.9567 69.0954 55.8077 68.954C56.875 69.1878 57.882 69.5065 58.838 70.0591C58.4251 70.176 58.0347 70.3947 57.6727 70.6776C57.667 70.6738 57.667 70.67 57.6651 70.6681ZM56.4866 72.2238C56.8128 71.76 57.1579 71.3319 57.5954 70.9698C58.3968 70.3061 59.4471 70.0063 60.4183 70.4004C58.9286 71.0849 57.4766 71.9485 56.1188 72.8631C56.1075 72.6745 56.3168 72.4633 56.4866 72.2238ZM59.0888 72.7933C58.6551 73.0234 58.1366 73.1007 57.6519 73.1252C57.3521 73.1403 56.3866 73.2082 56.2112 73.0441C56.1943 73.029 56.1811 73.014 56.1698 72.9989C57.6689 72.1729 59.1888 71.3696 60.6728 70.5173C60.7068 70.5324 60.737 70.5286 60.7615 70.5135C60.3655 71.396 60.0015 72.3125 59.0888 72.7933ZM60.6728 70.291C60.1411 70.0006 59.63 69.9214 59.1492 69.9912C59.1416 69.9648 59.1247 69.9384 59.0945 69.9214C58.0687 69.3123 56.9372 68.8805 55.7417 68.8145C55.9095 68.7786 56.6167 68.839 56.694 68.8409C58.1931 68.8899 59.8488 68.9502 60.7445 70.3155C60.7256 70.2985 60.7011 70.2891 60.6728 70.291Z" fill="#1D1D1B"/>
<path d="M43.4713 10.5497C43.4694 10.5535 43.4675 10.5572 43.4657 10.561C42.6341 8.64323 39.6942 8.83557 37.9763 8.89214C37.8953 8.89403 37.8387 9.00906 37.9085 9.06563C38.6722 9.703 39.4019 10.3762 40.1034 11.0815C39.3661 11.7094 38.7514 12.5787 38.2969 13.3141C38.2611 13.3726 38.2988 13.4669 38.3686 13.4782C39.4133 13.6234 40.5579 13.7761 41.563 13.3632C42.7227 12.8899 43.2677 11.7358 43.5581 10.5855C43.5731 10.5327 43.4958 10.4988 43.4713 10.5497ZM40.2694 10.9344C39.7998 10.4611 39.319 10.0009 38.8174 9.56346C38.823 9.56723 38.5609 9.36168 38.4119 9.22026C39.4793 9.45408 40.4862 9.77277 41.4423 10.3253C41.0293 10.4422 40.639 10.6609 40.2769 10.9438C40.2713 10.9381 40.2713 10.9363 40.2694 10.9344ZM39.0908 12.4882C39.417 12.0243 39.7621 11.5963 40.1996 11.2342C41.001 10.5704 42.0514 10.2706 43.0225 10.6647C41.5328 11.3492 40.0808 12.2129 38.7231 13.1275C38.7118 12.9408 38.9211 12.7296 39.0908 12.4882ZM41.6931 13.0596C41.2594 13.2896 40.7408 13.3669 40.2562 13.3915C39.9563 13.4065 38.9909 13.4744 38.8155 13.3104C38.8004 13.2953 38.7853 13.2802 38.774 13.2651C40.2731 12.4392 41.793 11.6359 43.2771 10.7835C43.311 10.7986 43.3412 10.7948 43.3657 10.7797C42.9697 11.6623 42.6058 12.5768 41.6931 13.0596ZM43.2771 10.5553C42.7453 10.2649 42.2343 10.1857 41.7534 10.2555C41.7459 10.2291 41.7289 10.2027 41.6987 10.1857C40.6729 9.57666 39.5415 9.14483 38.3459 9.07883C38.5138 9.043 39.2209 9.10334 39.2982 9.10523C40.7974 9.15426 42.453 9.2146 43.3487 10.5799C43.3299 10.5648 43.3054 10.5553 43.2771 10.5553Z" fill="#1D1D1B"/>
<path d="M61.7723 8.16431C61.7705 8.16808 61.7686 8.17185 61.7667 8.17562C60.9351 6.25785 57.9953 6.45019 56.2774 6.50677C56.1963 6.50865 56.1397 6.62368 56.2095 6.68025C56.9732 7.31762 57.703 7.99082 58.4045 8.69608C57.6671 9.32402 57.0524 10.1933 56.5979 10.9288C56.5621 10.9872 56.5998 11.0815 56.6696 11.0928C57.7143 11.238 58.8589 11.3908 59.864 10.9778C61.0237 10.5045 61.5687 9.35042 61.8591 8.20014C61.8742 8.14734 61.795 8.11528 61.7723 8.16431ZM58.5704 8.54899C58.1009 8.07568 57.62 7.61557 57.1184 7.17808C57.1241 7.18185 56.8619 6.97631 56.713 6.83488C57.7803 7.06871 58.7873 7.38739 59.7433 7.93991C59.3303 8.05682 58.94 8.27557 58.5779 8.55842C58.5723 8.55465 58.5723 8.55088 58.5704 8.54899ZM57.3918 10.1028C57.7181 9.63894 58.0631 9.21088 58.5006 8.84882C59.3021 8.18505 60.3524 7.88522 61.3235 8.27934C59.8338 8.96385 58.3818 9.82751 57.0241 10.7421C57.0128 10.5554 57.2221 10.3442 57.3918 10.1028ZM59.9941 10.6742C59.5604 10.9043 59.0418 10.9816 58.5572 11.0061C58.2574 11.0212 57.2919 11.0891 57.1165 10.925C57.0995 10.9099 57.0863 10.8948 57.075 10.8797C58.5742 10.0538 60.0941 9.25048 61.5781 8.39814C61.6121 8.41322 61.6422 8.40945 61.6667 8.39437C61.2707 9.27688 60.9068 10.1915 59.9941 10.6742ZM61.5781 8.16997C61.0463 7.87957 60.5353 7.80037 60.0545 7.87014C60.0469 7.84374 60.0299 7.81734 59.9998 7.80037C58.9739 7.19128 57.8425 6.75945 56.647 6.69345C56.8148 6.65762 57.5219 6.71797 57.5993 6.71985C59.0984 6.76888 60.7541 6.82922 61.6498 8.19448C61.6309 8.1794 61.6064 8.16997 61.5781 8.16997Z" fill="#1D1D1B"/>
<path d="M60.4521 38.1378V38.43C62.4207 39.6011 63.8086 41.8639 64.6572 43.9137C64.727 43.8967 64.7986 43.8798 64.8703 43.8647C64.8891 43.8722 64.9099 43.8779 64.9382 43.876C68.5512 43.5196 69.9165 38.1208 67.7479 35.5939C65.3738 32.8295 60.5935 34.2796 60.403 38.002C60.3974 38.0567 60.4181 38.1038 60.4521 38.1378ZM60.7764 38.1227C60.7896 38.1038 60.799 38.0812 60.8047 38.0548C61.0743 36.5406 61.9286 35.1715 63.4786 34.6963C64.9382 34.2494 66.5863 34.8415 67.5065 36.0314C69.5827 38.711 67.7856 42.4542 64.9646 43.563C64.9419 43.5083 64.9212 43.4517 64.8967 43.397C64.0293 41.434 62.6678 39.3012 60.7764 38.1227Z" fill="#1D1D1B"/>
<path d="M41.9647 38.0361C42.0288 38.0644 42.091 38.0606 42.1457 38.0399C42.1665 38.0682 42.1891 38.0946 42.2117 38.1229C42.1155 38.0003 42.1929 38.0946 42.2381 38.1493C43.7222 36.9405 45.4929 36.2296 47.4238 36.107C47.4238 36.0542 47.4238 36.0014 47.4219 35.9505C47.4219 35.943 47.4201 35.9279 47.4182 35.909C47.4823 35.9185 47.5502 35.8958 47.5992 35.8223C48.4365 34.5344 47.3409 32.5562 46.3358 31.6681C45.1553 30.6215 43.5223 30.3462 42.0627 30.9534C38.9381 32.247 38.8042 36.6878 41.9647 38.0361ZM41.9496 31.4965C43.2413 30.8176 44.7782 30.9892 45.9002 31.9C46.86 32.6807 47.85 34.3458 47.2805 35.6186C45.4495 35.6696 43.6373 36.4898 42.1683 37.6364C39.5227 36.4842 39.3888 32.841 41.9496 31.4965Z" fill="#1D1D1B"/>
<path d="M8.30105 52.0807C8.05968 52.7087 8.08042 53.5063 8.54619 54.0211C8.85922 54.3662 9.37402 54.5849 9.82282 54.4661C9.80208 54.947 10.0529 55.3713 10.4508 55.673C10.8053 55.9427 11.3672 56.152 11.8123 55.9917C11.8349 56.1293 11.8575 56.2689 11.8858 56.4065C13.2322 62.999 20.677 66.5064 26.798 67.0043C29.274 67.206 32.9549 67.2664 34.7124 65.1129C36.1267 65.4995 37.6861 65.5673 39.0646 65.0224C39.1099 65.0054 39.1268 64.9696 39.1249 64.9337C41.0144 66.3725 43.3735 67.3229 45.6099 67.9565C47.5409 68.5053 49.9207 68.7712 51.433 67.157C52.5248 65.9916 52.8812 64.2077 52.1741 62.7614C53.7732 62.784 55.3685 62.5973 56.8318 61.9901C56.3358 63.6307 56.6244 65.5843 58.1461 66.4442C60.4524 67.7491 64.0975 67.2494 66.2472 65.8672C68.312 64.5396 69.6603 61.8035 68.7118 59.4388C68.4252 58.3375 67.6369 57.3513 66.6205 56.8497C67.1976 55.2638 67.0675 53.4441 65.9379 52.3013C66.4885 50.0875 66.2887 47.6512 65.6343 45.4223C70.0016 44.4926 71.4687 37.6493 68.6232 34.6058C65.4099 31.1719 60.0771 32.8276 58.5101 36.9403C57.8029 35.9126 56.2642 35.3092 54.948 35.6712C55.0215 35.543 55.0762 35.3997 55.1045 35.2375C55.2157 34.6228 54.9046 34.1023 54.3559 33.8421C52.7341 33.0727 50.4072 34.4021 49.2965 35.7335C49.9565 31.5491 45.708 28.1453 41.7517 29.669C37.6861 31.2341 36.9677 36.6424 40.2979 39.3653C40.3224 39.3842 40.3469 39.3974 40.3733 39.4049C40.0282 39.8349 39.7189 40.2875 39.4342 40.7532C34.322 35.196 25.4931 34.4474 19.4419 38.9505C17.0131 40.7589 14.8577 43.446 13.4302 46.4537C13.2492 46.1709 12.9022 46.0012 12.5533 46.0672C12.2271 46.1275 11.8651 46.4311 11.8575 46.7724C11.2861 46.2425 10.3829 46.1709 9.71534 46.5857C9.03271 47.0081 8.73665 47.8416 8.88562 48.6072C7.25071 48.9504 7.09419 51.1077 8.30105 52.0807ZM60.2996 64.0625C59.1757 64.0965 58.1329 63.9739 57.0882 63.5515C57.0751 62.6671 57.29 61.728 57.7822 60.9794C57.8124 61.0001 57.8482 61.0133 57.8935 61.0077C59.3794 60.8172 60.7088 61.3037 61.6008 62.5483C61.6498 62.6162 61.7478 62.5596 61.7139 62.4823C61.118 61.1435 59.5585 60.2949 58.1047 60.5608C59.6905 58.8203 63.4506 59.5085 65.21 60.6419C65.2892 60.6928 65.3778 60.574 65.31 60.5136C64.9687 60.21 64.5425 59.9441 64.0635 59.7254C65.1459 59.2691 65.9832 58.3224 66.4753 57.2212C67.2617 57.6983 67.8199 58.3262 68.1668 59.0767C68.1423 59.1201 68.1348 59.171 68.1593 59.2276C69.1436 61.5677 68.1065 64.1267 66.0228 65.4749C64.2615 66.6158 61.8704 66.9251 59.8169 66.5309C60.4674 66.365 61.0577 65.9879 61.399 65.3844C61.4499 65.2958 61.333 65.2128 61.2613 65.2788C60.6089 65.8747 59.8602 66.2651 58.957 66.2292C58.9136 66.2273 58.8797 66.2405 58.8514 66.2594C57.8671 65.8559 57.2448 65.1185 57.1147 63.9626C58.1367 64.3624 59.2493 64.5 60.3223 64.2172C60.4052 64.1927 60.3864 64.0588 60.2996 64.0625ZM41.9479 59.9668C39.8792 58.858 38.0275 57.2117 36.9752 55.0865C35.7759 52.6615 35.9645 48.9033 39.24 48.4092C39.487 48.3715 39.4267 47.9453 39.1815 47.9755C38.414 48.066 37.7653 48.3753 37.2449 48.8222C37.788 45.7145 38.5837 42.5333 40.494 39.9688C40.6165 39.8028 40.7448 39.6463 40.8768 39.4898C40.8428 39.4502 40.8089 39.4125 40.7731 39.3729C40.8089 39.3427 40.8296 39.2918 40.8013 39.2315C40.6769 38.9712 40.4996 38.7525 40.2847 38.5564C40.1564 38.4376 39.9811 38.2697 39.7963 38.2019C37.7182 35.5392 38.4895 31.4303 41.9026 30.1046C45.7589 28.6073 49.2795 31.9092 48.9457 35.7938C48.9307 35.79 48.9175 35.7881 48.9024 35.7844C48.9118 35.8956 48.9156 36.0088 48.9175 36.1238C48.9439 36.1257 48.9703 36.1257 48.9985 36.1295C48.9325 36.252 49.1041 36.3689 49.2041 36.2747C50.0319 35.4921 50.839 34.7906 51.9271 34.3946C52.4079 34.2192 52.9378 34.0684 53.4526 34.0853C54.3219 34.0344 54.6123 34.6077 54.3238 35.8051C53.9467 36.0842 53.5337 36.2803 53.0868 36.3935C52.9661 36.4312 52.9831 36.6367 53.1169 36.6235C53.6638 36.5632 54.2748 36.3878 54.6783 36.0069C55.5646 35.8956 56.4528 35.7976 57.2749 36.2897C58.5799 37.0704 58.7213 38.7676 57.571 39.7312C55.7871 41.2247 52.836 40.6872 52.1552 38.3414C52.0741 38.0623 51.6404 38.1811 51.7196 38.4621C51.7649 38.6224 51.8233 38.7751 51.8893 38.9222C51.7856 39.3804 51.5084 39.7859 51.0031 39.8858C50.3072 40.0235 49.7547 39.3559 49.7755 38.711C49.783 38.4545 49.3908 38.4564 49.3776 38.711C49.3323 39.5879 50.13 40.4176 51.0313 40.2743C51.5141 40.1969 51.9535 39.8292 52.1383 39.3748C53.4715 41.4189 56.8299 41.6791 58.3875 39.5577C58.8439 38.9373 58.9664 38.3263 58.8627 37.7757C58.8929 37.7832 58.9212 37.7945 58.9495 37.8021V37.3589C58.9136 37.3514 58.8797 37.3382 58.8439 37.3307C60.1978 33.2801 65.4288 31.6283 68.4139 35.0603C69.8677 36.731 69.9262 38.9863 69.2549 41.0097C68.6873 42.7163 67.6501 43.8986 66.2057 44.7887C65.9172 44.8754 65.6154 44.9471 65.3382 45.0677C65.2534 45.1055 65.2685 45.1941 65.3213 45.2431C65.3137 45.2601 65.31 45.2789 65.3119 45.2997C65.2591 45.3129 65.2081 45.3242 65.1553 45.3355C65.804 47.5418 65.8662 49.7707 65.7097 52.092C65.3816 51.8167 64.9875 51.5923 64.5161 51.4339C64.4218 51.4019 64.386 51.532 64.4539 51.5829C65.8267 52.6125 66.7563 54.0475 66.498 55.8276C66.4508 56.1539 66.3697 56.4537 66.2641 56.7309C66.1623 56.7611 66.1057 56.8968 66.1491 56.9987C65.6305 58.098 64.6632 58.8316 63.5921 59.5349C61.6328 58.8089 59.0513 58.8467 57.7652 60.2666C57.4277 60.6381 57.158 61.102 56.96 61.6073C52.2627 63.065 46.2605 62.2768 41.9479 59.9668ZM34.9387 64.8187C35.6835 63.7043 35.7665 62.2975 35.7495 60.9926C35.7457 60.7343 35.7401 60.4721 35.7307 60.2081C36.2907 62.1467 37.4957 63.6628 39.0212 64.8508C37.6032 65.0827 36.3265 65.1619 34.9387 64.8187ZM32.3779 66.0897C30.2791 66.0501 30.3451 62.3937 30.3111 60.8512C30.2659 58.8146 30.0339 55.871 32.623 55.3562C32.6815 55.3449 32.7154 55.3072 32.7343 55.2619C32.7908 55.2732 32.8455 55.2808 32.9021 55.2977C35.6156 56.0652 35.6043 60.8719 35.1612 63.0499C34.8236 64.7018 33.7318 65.6051 32.3779 66.0897ZM12.6212 50.2195C14.0751 44.6774 17.988 39.2597 23.515 37.2892C29.1307 35.2865 35.0895 36.9328 39.2456 41.0681C37.8219 43.5592 37.177 46.4839 36.7112 49.288C36.7056 49.3219 36.7075 49.354 36.715 49.3823C36.0211 50.2799 35.6929 51.4867 35.7985 52.686C36.0305 55.3166 37.854 57.6379 39.8887 59.1842C42.3571 61.0586 45.3968 61.9637 48.4253 62.4125C49.5529 62.5785 50.7296 62.718 51.9063 62.752C51.8837 62.7859 51.8724 62.8255 51.8875 62.8727C52.01 63.2724 52.0741 63.6816 52.0855 64.0871C51.2124 64.1738 50.3317 64.0041 49.519 63.6779C49.4492 63.6496 49.387 63.7589 49.4455 63.8042C50.2186 64.4189 51.1068 64.6188 52.076 64.5264C52.0119 65.4259 51.6668 66.2726 51.0483 66.8987C51.0049 66.8855 50.9635 66.8704 50.9182 66.8628C50.8843 66.8553 50.8541 66.8609 50.8277 66.8741C49.9452 66.7082 49.2701 66.0953 48.8024 65.3392C48.7534 65.26 48.6459 65.3147 48.661 65.3995C48.8364 66.3876 49.6661 67.0533 50.5957 67.2852C50.2884 67.5002 49.9357 67.6718 49.5341 67.7868C47.6899 68.3129 45.6288 67.5492 43.8977 66.9269C40.3657 65.656 36.8847 63.4327 36.0248 59.5349C36.0267 59.5236 36.0324 59.5142 36.0286 59.501C35.9626 59.2785 35.8834 59.0616 35.8061 58.8429C35.7363 58.6487 35.6835 58.4393 35.576 58.264C35.5609 58.2395 35.5421 58.2319 35.5213 58.2319C35.4384 57.8095 35.3252 57.3965 35.1668 56.9968C34.3013 54.8225 31.9724 54.1135 30.0961 55.5712C29.0552 56.3801 28.5593 57.4192 28.3971 58.5468C28.3349 54.8716 28.2161 50.7909 25.1235 48.4149C21.4483 45.5901 17.5807 48.8335 15.8647 52.1882C15.7327 52.4465 16.123 52.6766 16.255 52.4164C17.2431 50.4873 18.6404 48.5695 20.8411 47.9642C22.7871 47.4287 24.5936 48.2395 25.8533 49.7236C28.4216 52.752 27.7729 56.9459 28.284 60.6004C28.2934 60.6664 28.3707 60.672 28.4141 60.64C28.5706 61.811 28.9251 62.9915 29.2759 64.0418C29.3682 64.319 29.8076 64.1983 29.7133 63.9211C29.1024 62.0939 28.382 60.012 28.927 58.0792C29.2495 56.9364 30.2017 55.7654 31.3709 55.3562C29.5003 56.4669 29.8585 59.8781 29.9076 61.7375C29.9396 63.0103 29.8925 64.534 30.7976 65.5541C31.0975 65.8936 31.4784 66.1331 31.8819 66.2443C30.6675 66.58 29.3004 66.6309 28.0992 66.612C25.099 66.563 22.1064 65.8332 19.4249 64.4831C16.9395 63.2309 14.5861 61.4301 13.2605 58.9296C11.8405 56.25 11.8669 53.0952 12.6212 50.2195ZM8.97802 48.8656C9.09871 48.9768 9.34762 48.8769 9.29105 48.6789C9.10248 48.0019 9.33631 47.2325 9.97179 46.8724C10.5847 46.5254 11.2937 46.6895 11.85 47.0591C11.9009 47.093 11.948 47.076 11.9782 47.0421C12.0197 47.0477 12.0668 47.0308 12.0895 46.9949C12.229 46.7781 12.2988 46.5084 12.5779 46.4273C12.8664 46.3444 13.153 46.5518 13.2661 46.812C11.9839 49.65 11.3578 52.7501 11.7613 55.6541C11.3653 55.6636 11.0391 55.6636 10.6846 55.4071C10.3508 55.1657 10.1227 54.7829 10.0435 54.3775C10.0831 54.3549 10.1208 54.3304 10.1566 54.3021C10.2961 54.1908 10.1434 53.9664 9.98877 54.0136C9.49471 54.1588 9.01196 54.0607 8.72345 53.5931C8.45002 53.148 8.49905 52.6257 8.52356 52.1279C8.62351 52.0619 8.66499 51.8846 8.53488 51.7865C7.32614 50.8701 7.84471 49.452 8.97802 48.8656Z" fill="#1D1D1B"/>
<path d="M43.5939 55.1339C43.9069 58.6658 46.7241 60.6383 50.0807 61.0682C53.0903 61.4548 56.3413 60.1706 57.5689 57.2364C58.5928 54.7869 57.4614 51.37 54.663 50.7741C54.6611 50.7741 54.6592 50.7741 54.6573 50.7741C54.1161 49.7087 51.9476 49.4975 51.033 49.3051C50.1788 49.126 48.9889 48.9808 48.4119 49.5559C45.1571 48.4264 43.3676 52.5655 43.5939 55.1339ZM53.8521 52.1563C53.3562 52.7616 52.6132 52.9163 51.8703 53.0181C51.6063 53.0068 51.3441 52.9785 51.0858 52.9276C51.0839 52.9276 51.082 52.9257 51.0783 52.9257C50.1335 52.7277 49.1567 52.194 48.7173 51.287C48.2365 50.2913 49.2755 49.4616 50.258 49.6125C50.6936 49.6804 51.1329 49.786 51.561 49.8859C52.6095 50.1329 55.1533 50.5667 53.8521 52.1563ZM48.1761 49.9255C48.1026 50.1122 48.063 50.3347 48.0743 50.6119C48.1365 51.9244 49.3227 52.8559 50.5125 53.2048C50.3145 53.9496 49.9487 54.6964 49.1944 55.0056C48.2384 55.3979 47.1729 54.7209 47.1748 53.6819C47.1748 53.4575 46.858 53.4707 46.8335 53.6819C46.7147 54.7247 47.7613 55.5581 48.7551 55.4752C49.6545 55.4016 50.3372 54.6681 50.5974 53.8346C50.439 55.7279 53.145 57.227 54.4725 55.4356C54.548 55.3319 54.399 55.1867 54.2953 55.2583C53.5693 55.7731 52.6849 56.0711 51.8514 55.5789C51.0537 55.1093 50.8105 54.1646 50.9764 53.3085C50.9821 53.3123 50.9877 53.3198 50.9953 53.3217C52.2738 53.7139 54.6196 53.0351 54.7761 51.4341C54.7875 51.3209 54.7837 51.2172 54.7686 51.1173C56.9919 52.2223 58.1478 54.6907 57.1333 57.0799C56.0679 59.5898 53.3675 60.8212 50.7445 60.6703C47.8084 60.5006 44.7573 58.9732 44.1558 55.8806C43.5901 52.9823 44.9044 49.7275 48.1761 49.9255Z" fill="#1D1D1B"/>
<path d="M59.6206 47.4005C60.258 47.6098 60.9481 48.3188 61.231 49.0844C61.512 49.075 61.8325 48.9845 62.0664 48.8336C62.1192 48.7997 62.1814 48.8789 62.1343 48.9223C62.0023 49.043 61.9023 49.1372 61.7307 49.2051C61.5912 49.2598 61.446 49.2881 61.297 49.2975C61.346 49.4842 61.3705 49.6728 61.363 49.8557C61.6666 49.8632 61.9476 49.784 62.1927 49.5804C62.2719 49.5144 62.3869 49.6256 62.3077 49.6954C62.0381 49.9292 61.6968 50.0575 61.3441 50.0367C61.3177 50.1914 61.2649 50.3403 61.1801 50.4799C61.5742 50.6288 61.9966 50.5364 62.3304 50.28C62.4265 50.2064 62.5359 50.3611 62.4567 50.444C62.0739 50.8476 61.4856 50.9249 60.9877 50.6986C60.9085 50.7156 60.8199 50.6439 60.8124 50.5572C60.7671 50.0612 60.9029 49.6162 60.7332 49.1203C60.5427 48.5659 60.1147 48.085 59.5697 47.8682C58.3628 47.3892 57.1522 48.2623 56.7411 49.3805C56.7015 49.4899 56.5016 49.4861 56.5186 49.3503C56.6921 47.9228 58.2535 46.9498 59.6206 47.4005Z" fill="#1D1D1B"/>
<path d="M41.3707 47.1554C41.6007 47.3628 41.8534 47.4232 42.1363 47.4175C42.1231 47.2063 42.1476 46.997 42.1966 46.7933C41.9496 46.7764 41.7233 46.633 41.6215 46.3766C41.5762 46.2653 41.7497 46.205 41.8082 46.2974C41.9044 46.4464 42.0967 46.5463 42.2777 46.5312C42.3531 46.3313 42.4588 46.1428 42.5851 45.9674C42.4097 45.8976 42.2476 45.7882 42.1118 45.6638C42.025 45.5827 42.1382 45.4356 42.24 45.4978C42.4191 45.611 42.6039 45.6676 42.7963 45.709C43.2866 45.1829 43.9918 44.851 44.7084 44.9189C46.0887 45.0528 47.1184 46.535 46.7601 47.8644C46.7318 47.9681 46.5564 47.9512 46.5658 47.838C46.6639 46.7292 46.0435 45.5827 44.8706 45.3847C43.5129 45.1546 42.6492 46.3332 42.5398 47.5401C42.5247 47.706 42.306 47.789 42.2023 47.6909C41.844 47.7475 41.4518 47.5702 41.2274 47.3006C41.1425 47.1988 41.2707 47.0668 41.3707 47.1554Z" fill="#1D1D1B"/>
<path d="M61.7082 44.342C62.4003 44.5664 62.8547 45.166 62.8321 45.892C62.8283 46.0184 62.6285 46.058 62.6021 45.9222C62.504 45.3942 62.1099 44.9096 61.597 44.7455C61.3405 44.6626 61.4499 44.259 61.7082 44.342Z" fill="#1D1D1B"/>
<path d="M42.074 42.4185C42.2683 41.7246 42.8095 41.2833 43.5317 41.2362C43.8183 41.2173 43.8164 41.6642 43.5317 41.6812C43.0225 41.7133 42.5021 42.0451 42.2683 42.4996C42.2136 42.6071 42.042 42.5335 42.074 42.4185Z" fill="#1D1D1B"/>
<path d="M31.3406 64.5944C31.8686 65.5599 32.9737 65.5071 33.6902 64.7716C34.6142 63.8212 35.0272 61.9431 34.7481 60.6664C34.4577 59.3464 32.6248 59.4784 31.5914 59.8311C31.5047 59.7575 31.3538 59.7651 31.3105 59.9103C30.9126 61.2114 30.6542 63.3366 31.3406 64.5944ZM31.5613 60.5439C31.5952 60.5382 31.6291 60.5194 31.6518 60.4798C31.8102 60.2139 32.0798 60.0404 32.374 59.9706C32.5871 59.965 32.8039 59.9668 33.0133 59.9857C33.0604 60.0008 33.1094 60.014 33.1566 60.0347C33.1867 60.0479 33.2113 60.0328 33.2207 60.0121C33.8449 60.112 34.3483 60.41 34.3823 61.1775C34.4238 62.109 34.2352 63.2027 33.7374 64.0117C33.215 64.8622 32.2307 65.3694 31.6254 64.1588C31.4387 63.7854 31.4462 63.3215 31.433 62.9123C31.4085 62.1184 31.4444 61.3302 31.5613 60.5439Z" fill="#1D1D1B"/>
<path d="M34.1996 59.2107C34.5202 59.2597 34.9011 59.0523 34.9784 58.7242C35.0878 58.2716 34.6446 57.9868 34.2675 57.9095C34.2071 57.8963 34.1619 57.985 34.2222 58.0151C34.2279 58.017 34.2335 58.0208 34.2392 58.0246C33.7357 58.1717 33.5 59.1051 34.1996 59.2107ZM34.5503 58.2546C34.5598 58.2565 34.5692 58.2565 34.5767 58.2565C34.6899 58.3659 34.7729 58.496 34.754 58.6393C34.7276 58.8411 34.4994 58.9731 34.3109 58.9787C33.747 58.9957 34.0469 58.1075 34.5503 58.2546Z" fill="#1D1D1B"/>
<path d="M32.5303 58.9656C33.0451 59.2202 33.328 58.8128 33.4505 58.3791C33.4826 58.3942 33.5297 58.3791 33.5429 58.3414C33.6316 58.0925 33.6297 57.8115 33.575 57.5324C33.5863 57.0874 33.4581 56.6443 33.1752 56.3463C33.1922 56.2916 33.1696 56.2162 33.1073 56.1936C31.7232 55.6543 31.5629 58.4866 32.5303 58.9656ZM32.2437 57.6116C32.189 57.11 32.2946 56.4783 32.8396 56.4029C33.1262 56.9177 33.3864 57.6173 33.2299 58.2019C33.1714 58.3546 33.0941 58.5017 33.0055 58.6488C32.5642 59.1787 32.2757 57.902 32.2437 57.6116Z" fill="#1D1D1B"/>
<path d="M30.9428 59.1804C31.2445 59.484 31.616 59.1446 31.699 58.8221C31.7819 58.5034 31.682 58.1923 31.4953 57.9453C31.4708 57.8642 31.4199 57.8114 31.3539 57.7831C31.2973 57.7265 31.237 57.6737 31.1729 57.6285C31.1238 57.5945 31.0748 57.6681 31.1106 57.7077C31.1257 57.7227 31.137 57.7416 31.1521 57.7586C31.0013 57.7774 30.8447 57.8547 30.7637 57.9528C30.511 58.2639 30.6807 58.9164 30.9428 59.1804ZM30.9277 58.2093C31.0107 57.9999 31.1785 57.9679 31.3539 58.0716C31.4067 58.1772 31.4501 58.2885 31.4746 58.3941C31.5161 58.5751 31.4708 59.2841 31.0767 58.9805C30.9183 58.8579 30.8674 58.3639 30.9277 58.2093Z" fill="#1D1D1B"/>
<path d="M43.1999 25.7429C43.1641 25.7373 43.1301 25.7316 43.0943 25.726C42.472 24.4927 42.0213 23.1011 40.4863 22.7899C39.7509 22.6409 39.0004 22.8088 38.3008 23.0407C37.9746 23.1482 37.5446 23.2293 37.3334 23.5103C37.1845 23.3952 37.0336 23.2783 36.8809 23.1595C36.7715 23.0747 36.6376 23.2029 36.7281 23.3123C36.8714 23.4839 37.0336 23.6536 37.209 23.8157C36.994 24.8868 38.1179 26.0465 38.9778 26.435C40.2827 27.0252 41.7743 26.6368 42.9434 25.924C42.9623 25.9127 42.9755 25.8976 42.983 25.8825C43.0566 25.8731 43.1282 25.8617 43.198 25.8485C43.2527 25.8391 43.2527 25.7524 43.1999 25.7429ZM39.0287 23.086C39.7509 22.9276 40.5241 22.9031 41.1784 23.2953C42.125 23.8591 42.3607 24.8246 42.8831 25.6939C41.9044 25.5468 40.9502 25.4676 39.9998 25.115C39.0796 24.7718 38.3366 24.2721 37.5918 23.7101C37.8916 23.3349 38.6251 23.1746 39.0287 23.086ZM39.4718 26.3577C38.6101 26.1069 37.3259 25.0905 37.4579 24.0364C38.7854 25.1471 40.7786 25.9466 42.4701 25.9164C41.5518 26.3935 40.492 26.6556 39.4718 26.3577Z" fill="#1D1D1B"/>
<path d="M53.5224 4.61908C53.496 4.64171 53.4696 4.66622 53.4432 4.69074C52.0949 4.38902 50.7334 3.85348 49.519 4.84348C48.9363 5.31679 48.5893 6.00319 48.3253 6.69148C48.2028 7.01205 47.9916 7.39674 48.0745 7.73805C47.8897 7.78142 47.7049 7.82291 47.5164 7.86628C47.3825 7.89645 47.3957 8.08314 47.5371 8.08125C47.7615 8.07937 47.9934 8.06239 48.231 8.02845C48.9212 8.87514 50.5316 8.74125 51.3783 8.32262C52.6625 7.68714 53.3093 6.28794 53.4978 4.93211C53.5016 4.90948 53.4978 4.89062 53.4903 4.87365C53.5299 4.81142 53.5657 4.74919 53.6016 4.68508C53.6298 4.63982 53.562 4.58325 53.5224 4.61908ZM48.8213 6.15594C49.1569 5.49782 49.6284 4.88497 50.3468 4.62662C51.3821 4.25325 52.2778 4.68319 53.2829 4.83028C52.5474 5.49405 51.8818 6.18045 51.0068 6.69148C50.1582 7.18554 49.3002 7.44199 48.3913 7.66074C48.2933 7.19497 48.6327 6.52554 48.8213 6.15594ZM51.6329 7.89079C50.8918 8.39805 49.2927 8.74691 48.561 7.97565C50.262 7.65319 52.1439 6.61982 53.1942 5.29417C52.9793 6.30491 52.5078 7.29114 51.6329 7.89079Z" fill="#1D1D1B"/>
<path d="M74.6669 55.3147C74.6122 55.2751 74.5594 55.2355 74.5047 55.1959C74.5104 55.1808 74.516 55.1657 74.516 55.1468C74.5782 53.6251 74.4972 51.8808 73.4261 50.6834C72.4644 49.6085 70.6258 49.0975 69.4849 50.1987C68.5572 51.0926 68.5949 53.2272 69.3812 54.2078C69.813 54.7471 70.4938 54.9715 71.1538 55.0714C72.0853 55.2128 73.1112 55.2619 74.0521 55.1996C74.2124 55.3166 74.3746 55.4297 74.5386 55.5353C74.6782 55.6277 74.8008 55.409 74.6669 55.3147ZM73.6524 51.4565C74.2558 52.5295 74.3029 53.8136 74.2614 55.0186C72.4813 53.6552 71.3122 51.9864 70.3128 49.9687C71.5083 49.4897 73.032 50.3496 73.6524 51.4565ZM70.5089 54.649C69.615 54.336 69.2134 53.6006 69.138 52.6954C69.0776 51.9675 69.0569 51.1133 69.5509 50.5287C69.747 50.2968 69.9677 50.1308 70.2034 50.0177C70.771 51.9656 72.1683 53.759 73.7938 55.0111C72.702 54.8866 71.5498 55.0148 70.5089 54.649Z" fill="#1D1D1B"/>
<path d="M20.2169 32.9426C20.1622 32.903 20.1094 32.8634 20.0547 32.8238C20.0604 32.8087 20.0661 32.7936 20.0661 32.7748C20.1283 31.253 20.0472 29.5087 18.9761 28.3113C18.0144 27.2364 16.1758 26.7254 15.035 27.8267C14.1072 28.7205 14.1449 30.8551 14.9313 31.8357C15.3631 32.375 16.0438 32.5994 16.7038 32.6993C17.6354 32.8408 18.6612 32.8898 19.6022 32.8276C19.7625 32.9445 19.9246 33.0576 20.0887 33.1632C20.2282 33.2537 20.3508 33.035 20.2169 32.9426ZM19.2024 29.0825C19.8058 30.1555 19.8549 31.4397 19.8115 32.6447C18.0314 31.2813 16.8622 29.6124 15.8628 27.5947C17.0583 27.1176 18.582 27.9756 19.2024 29.0825ZM16.0589 32.2751C15.1651 31.962 14.7634 31.2266 14.688 30.3215C14.6277 29.5936 14.6069 28.7393 15.101 28.1548C15.2971 27.9228 15.5177 27.7569 15.7534 27.6437C16.321 29.5917 17.7183 31.385 19.3438 32.6371C18.252 32.5145 17.0998 32.6409 16.0589 32.2751Z" fill="#1D1D1B"/>
<path d="M52.3796 10.9307C51.3368 10.3159 49.8886 10.5573 49.2701 11.634C48.8496 11.5058 48.4272 11.4134 48.0104 11.3606C47.8784 11.3436 47.8577 11.5548 47.9803 11.5888C48.3536 11.6944 48.7213 11.7981 49.0834 11.9131C48.9514 12.9163 49.0777 14.0968 49.9414 14.7455C51.0163 15.5526 52.4513 14.7794 53.6336 14.802C53.6827 14.802 53.7411 14.7643 53.7505 14.7134C54.0315 13.2954 53.7072 11.7114 52.3796 10.9307ZM50.9503 14.8662C49.4153 14.7304 49.2795 13.1879 49.2625 11.9716C49.8528 12.1639 50.4279 12.3883 50.9917 12.6995C51.8912 13.1954 52.6644 13.8328 53.4243 14.5098C53.1999 14.6267 52.8511 14.6022 52.6153 14.6436C52.0704 14.7398 51.5103 14.9152 50.9503 14.8662ZM53.5657 14.3966C53.5582 14.4079 53.5469 14.4155 53.5375 14.4249C52.5418 13.2218 51.0559 12.2318 49.5077 11.7114C50.1809 10.8006 51.3595 10.5705 52.3457 11.1947C52.8228 11.4964 53.1641 11.9546 53.3734 12.4732C53.5318 12.8579 53.8543 13.9987 53.5657 14.3966Z" fill="#1D1D1B"/>
<path d="M71.1953 45.6446C71.5272 46.5196 72.5172 46.9759 73.4261 46.7817C74.8498 46.4762 75.127 44.9375 76.3131 44.3171C76.4017 44.2699 76.3791 44.1266 76.2924 44.1115C76.2961 44.1115 76.2999 44.1115 76.3056 44.1115C76.3169 44.1115 76.3244 44.1078 76.332 44.104C76.3527 44.1172 76.3734 44.1285 76.3942 44.1417C76.4319 44.1662 76.4866 44.1153 76.4508 44.0795C76.4262 44.0531 76.398 44.0304 76.3734 44.0059C76.3659 43.9682 76.3395 43.9343 76.2961 43.9324H76.2942C75.3816 43.1178 74.0125 42.8104 72.8302 43.1121C71.8326 43.3686 70.8954 44.2718 71.118 45.3731C70.837 45.5541 70.5654 45.7446 70.3071 45.9501C70.1713 46.0576 70.3448 46.265 70.4806 46.1575C70.7144 45.9727 70.952 45.803 71.1953 45.6446ZM74.9271 45.3184C74.2652 46.2424 73.0904 47.074 71.976 46.2612C71.6667 46.0368 71.4819 45.7842 71.3914 45.5239C72.8604 44.6263 74.4858 44.2209 76.2471 44.1172C75.6248 44.2926 75.2873 44.8149 74.9271 45.3184ZM73.1112 43.2894C74.1558 43.0914 75.1326 43.4176 76.0227 43.9211C74.3802 43.8683 72.7378 44.385 71.331 45.2392C71.2537 44.3623 72.1457 43.4723 73.1112 43.2894Z" fill="#1D1D1B"/>
<path d="M34.3957 22.7012C35.3065 22.4863 35.8892 21.566 35.8156 20.6383C35.7006 19.1882 34.2109 18.7092 33.7508 17.4533C33.7168 17.359 33.5697 17.3628 33.5452 17.4476C33.5452 17.4439 33.5452 17.4401 33.5452 17.4344C33.5452 17.4231 33.5433 17.4156 33.5415 17.4062C33.5565 17.3873 33.5716 17.3684 33.5867 17.3496C33.6169 17.3138 33.5735 17.2553 33.532 17.2855C33.5037 17.3062 33.4773 17.3307 33.4491 17.3534C33.4113 17.3552 33.3736 17.3779 33.3661 17.4194C33.3661 17.4194 33.3661 17.4194 33.3661 17.4212C32.4383 18.2189 31.9537 19.537 32.0989 20.7495C32.2215 21.7735 32.9946 22.82 34.1166 22.7427C34.258 23.0444 34.4127 23.3386 34.5824 23.6215C34.671 23.7704 34.8992 23.6252 34.8105 23.4763C34.6559 23.2217 34.5183 22.9615 34.3957 22.7012ZM34.5597 18.96C35.3895 19.7388 36.0589 21.0116 35.1066 22.0092C34.8426 22.2845 34.5692 22.4372 34.2976 22.4919C33.5999 20.9174 33.4113 19.2542 33.5396 17.4929C33.6357 18.1322 34.1091 18.5357 34.5597 18.96ZM32.312 20.4931C32.2535 19.4314 32.7023 18.5055 33.3189 17.689C33.0512 19.3107 33.3472 21.0079 34.011 22.5146C33.1304 22.475 32.3667 21.4736 32.312 20.4931Z" fill="#1D1D1B"/>
<path d="M28.7382 6.27474C29.0701 7.14971 30.0601 7.60606 30.969 7.41183C32.3928 7.10634 32.67 5.5676 33.8561 4.9472C33.9447 4.90006 33.9221 4.75674 33.8353 4.74166C33.8391 4.74166 33.8429 4.74166 33.8485 4.74166C33.8598 4.74166 33.8674 4.73789 33.8749 4.73412C33.8957 4.74731 33.9164 4.75863 33.9372 4.77183C33.9749 4.79634 34.0296 4.74543 33.9937 4.7096C33.9692 4.6832 33.9409 4.66057 33.9164 4.63606C33.9089 4.59834 33.8825 4.5644 33.8391 4.56252H33.8372C32.9245 3.74789 31.5555 3.44052 30.3732 3.74223C29.3756 3.99869 28.4384 4.90194 28.6609 6.0032C28.38 6.18423 28.1084 6.37469 27.8501 6.58023C27.7143 6.68771 27.8878 6.89514 28.0236 6.78766C28.2574 6.60097 28.4969 6.43126 28.7382 6.27474ZM32.4701 5.94663C31.8082 6.87063 30.6334 7.70223 29.5189 6.88949C29.2097 6.66509 29.0249 6.4124 28.9344 6.15217C30.4033 5.25457 32.0288 4.84914 33.7901 4.74543C33.1678 4.92269 32.8302 5.44503 32.4701 5.94663ZM30.656 3.91949C31.7007 3.72149 32.6775 4.04771 33.5676 4.5512C31.9251 4.4984 30.2826 5.01509 28.8759 5.86931C28.7986 4.99246 29.6905 4.1024 30.656 3.91949Z" fill="#1D1D1B"/>
<path d="M76.9412 34.2626C76.7488 33.2198 76.1058 32.3524 75.4194 31.5755C75.3685 31.517 75.2648 31.534 75.2289 31.6C74.2748 33.3217 74.1258 35.9051 76.1001 36.9498C76.1058 36.9611 76.1152 36.9724 76.1228 36.9856C76.251 37.3759 76.3924 37.755 76.5414 38.1189C76.598 38.2547 76.8148 38.2057 76.7696 38.0567C76.6319 37.6211 76.4924 37.1893 76.3622 36.7537C76.466 36.4199 76.8714 35.8165 76.9261 35.5751C77.0241 35.1433 77.0204 34.6945 76.9412 34.2626ZM75.327 31.9319C75.2742 33.4876 75.5589 35.1753 76.036 36.7141C74.5274 35.5487 74.5105 33.563 75.327 31.9319ZM76.7507 35.0923C76.7262 35.4431 76.6376 35.7995 76.4716 36.1106C76.4188 36.2106 76.334 36.3067 76.2585 36.4067C76.1152 35.9107 75.9832 35.4129 75.8795 34.9019C75.6853 33.9439 75.5985 32.9747 75.4703 32.0073C76.2001 32.8804 76.8337 33.91 76.7507 35.0923Z" fill="#1D1D1B"/>
<path d="M15.1783 39.2276C15.5932 38.2527 15.5366 37.1722 15.3933 36.1464C15.382 36.0691 15.2877 36.0276 15.2217 36.0615C13.4736 36.9704 11.9236 39.0428 12.9947 41.0021C12.9947 41.0153 12.9947 41.0304 12.9947 41.0436C12.8853 41.4396 12.7948 41.8337 12.7193 42.2203C12.6911 42.3636 12.9004 42.4428 12.9437 42.2938C13.0701 41.8544 13.1927 41.4169 13.3228 40.9832C13.5943 40.7626 14.2637 40.4835 14.4429 40.3119C14.7616 40.0083 15.0067 39.6312 15.1783 39.2276ZM15.1217 36.3934C14.2185 37.6606 13.5227 39.2239 13.072 40.772C12.4572 38.9674 13.5377 37.3023 15.1217 36.3934ZM14.5617 39.8141C14.3467 40.0932 14.0771 40.3402 13.7678 40.5099C13.6679 40.5646 13.5453 40.5967 13.4265 40.6381C13.5792 40.146 13.7471 39.6576 13.9413 39.1748C14.309 38.2678 14.7729 37.4136 15.1991 36.5367C15.3254 37.6663 15.2839 38.875 14.5617 39.8141Z" fill="#1D1D1B"/>
</svg>
