<svg width="80" height="80" viewBox="0 0 80 80" fill="none" xmlns="http://www.w3.org/2000/svg">
<rect width="80" height="80" fill="white"/>
<path d="M50.4262 39.0499C50.9002 38.5851 51.3904 38.7377 51.8274 38.7262C54.7985 38.6429 57.6842 38.1342 60.4588 37.0591C65.0162 35.2925 68.3897 32.2358 70.4869 27.7987C70.5678 27.6253 70.6695 27.4611 70.5516 27.1443C68.8753 27.5166 67.3769 26.8576 65.8833 26.1362C64.1144 25.283 62.2924 25.216 60.4103 25.7732C59.1293 26.1524 57.8715 26.6218 56.535 26.7998C54.8379 27.0264 53.5199 26.3327 52.7846 24.8021C51.5985 22.3349 52.4702 19.5048 54.8587 18.1522C56.5651 17.1857 58.3917 16.9776 60.2993 17.3961C60.5213 17.4446 60.7455 17.4978 60.9675 17.5417C60.9976 17.5487 61.0346 17.514 61.0669 17.4978C60.8242 15.0492 58.4333 12.3925 55.9338 11.8398C53.0066 11.1924 50.0516 10.8433 47.0457 11.1046C45.085 11.2734 43.1982 11.7635 41.3878 12.5034C38.9969 13.4792 37.8038 15.4723 37.0246 17.8285C37.4778 18.0134 37.82 17.766 38.1738 17.6943C40.0582 17.3036 41.8386 17.5926 43.4872 18.5522C45.8411 19.9256 46.6573 22.8344 45.4017 25.2483C44.6988 26.5986 43.6005 27.2831 42.049 27.1906C41.4317 27.1536 40.8421 26.9963 40.2525 26.8368C39.5149 26.6356 38.7773 26.4299 38.0536 26.1894C35.9425 25.4865 33.9008 25.6622 31.9355 26.6657C30.5828 27.3571 29.1932 27.8102 27.4428 27.4819C28.4556 29.5375 29.4591 31.3525 30.9297 32.8786C33.5216 35.5723 36.6824 37.2695 40.2756 38.2105C42.3589 38.7562 44.4815 39.0036 46.6272 39.1054C46.9879 39.1216 47.3694 39.0499 47.7995 39.2719C47.4712 39.7828 47.0157 39.7921 46.5763 39.8222C44.4977 39.9701 42.4444 39.769 40.4328 39.2487C39.8548 39.0984 39.5472 39.1377 39.286 39.7459C37.5796 43.7298 36.0905 47.7715 35.5726 52.1138C35.0569 56.4423 35.9864 60.3245 38.9738 63.6055C39.0779 63.7188 39.1773 63.8344 39.2883 63.9385C39.3415 63.9893 39.4178 64.0171 39.4941 64.061C39.6929 63.6841 39.3923 63.4136 39.2767 63.1246C37.9379 59.7696 37.3553 56.2897 37.5264 52.685C37.5541 52.1162 37.5957 51.545 38.0351 51.1103C38.516 51.3092 38.368 51.6907 38.3634 52.0098C38.3056 56.1232 39.0571 60.0748 40.745 63.8321C41.0409 64.4911 41.4155 65.12 41.7901 65.742C42.2271 66.4703 42.8999 66.8773 43.7185 67.0761C44.4283 67.2495 45.0688 67.2518 45.3879 66.4773C45.8873 66.6414 45.5544 67.3536 46.1902 67.3906C46.87 67.4299 46.9648 66.9027 47.1475 66.4842C47.5082 66.542 47.3972 66.7825 47.4411 66.9328C47.5082 67.1663 47.6561 67.2264 47.8689 67.1709C48.0284 67.127 48.151 67.0183 48.1463 66.8518C48.1301 66.2622 48.0168 65.705 47.4758 65.3535C47.2839 65.2287 47.0735 65.1339 46.8654 65.0368C45.8619 64.572 45.2584 63.7743 44.9277 62.7407C44.5162 61.4575 44.3127 60.1279 44.2341 58.7938C44.0306 55.2723 44.1208 51.7601 44.6433 48.264C44.7266 47.7091 44.8052 47.1542 45.2145 46.5738C45.4665 47.0894 45.3254 47.4964 45.2746 47.8756C44.8653 50.9577 44.7867 54.0515 44.9555 57.1521C45.0457 58.7938 45.226 60.4262 45.6838 62.0193C45.989 63.076 46.5463 63.8367 47.5845 64.3061C48.7776 64.8448 49.1267 65.6264 48.9464 66.9073C48.8608 67.5039 48.5741 67.8345 47.8712 67.8993C46.6203 68.0126 45.3694 68.1629 44.1069 68.0866C42.8444 68.0102 41.8479 67.4484 41.0895 66.438C40.886 66.1674 40.7473 65.8483 40.4213 65.668C39.7368 65.2888 39.1218 65.0229 38.3264 65.5454C37.4917 66.0934 36.4628 66.2114 35.4916 66.4102C34.939 66.5235 34.3471 66.5513 33.8222 66.2137C33.5563 66.0426 33.2511 66.0009 32.9436 65.9825C31.6349 65.9038 30.8742 64.246 31.8938 62.9997C32.0372 62.824 32.2152 62.6714 32.3956 62.5303C32.6361 62.3407 32.7655 62.1557 32.5389 61.8644C32.347 61.617 32.2106 61.4135 31.8014 61.5338C30.2822 61.9823 29.1423 62.8494 28.4972 64.3177C28.0926 65.2402 27.9238 66.2137 27.8452 67.2125C27.7342 68.5837 27.7573 69.9687 27.4845 71.326C26.481 76.3481 21.7363 79.3909 16.7998 78.11C14.217 77.4394 12.0135 76.0775 10.2886 74.0289C7.87928 71.1687 7.53707 67.8877 8.49895 64.4055C9.39609 61.1592 11.2713 58.5464 13.9049 56.4816C17.0587 54.0098 20.6473 52.604 24.6474 52.2803C26.1087 52.1624 27.5423 52.3173 28.8787 52.8792C29.2117 52.5717 29.1747 52.204 29.2464 51.8757C29.8938 48.8513 32.1829 46.7657 35.272 46.4605C35.7737 46.4119 35.8893 46.1622 36.0304 45.7807C36.4789 44.5622 36.9414 43.346 37.4293 42.1413C37.8732 41.043 38.4698 40.0164 39.094 39.0059C38.657 38.6799 38.153 38.6082 37.6905 38.4348C34.3656 37.1978 31.48 35.3319 29.1608 32.615C27.8775 31.1121 27.2047 29.3479 26.8278 27.4472C26.6706 26.6565 26.8093 26.4854 27.6278 26.4946C30.8649 26.527 32.5574 24.4437 33.9471 21.928C34.102 21.6482 34.0581 21.4609 33.8315 21.2297C29.7088 17.0215 29.4753 12.0387 30.9505 6.716C31.4268 4.99803 32.3563 3.50203 33.2488 1.98985C33.5124 1.54359 33.8546 1.49041 34.1621 1.84418C35.4639 3.34711 37.1634 4.31824 38.7958 5.38185C39.9519 6.13563 41.1057 6.8871 41.9936 7.97152C42.4791 8.56576 43.004 9.15768 43.2028 9.8999C43.3624 10.4895 43.6352 10.5057 44.1115 10.3577C45.9613 9.78429 47.8642 9.67331 49.788 9.71955C50.9395 9.7473 52.0748 9.90684 53.2101 10.0664C53.6263 10.1242 54.0448 10.1727 54.461 10.2121C54.7061 10.2352 54.8795 10.1704 54.9673 9.88372C55.4899 8.14494 56.7246 6.95647 58.1351 5.93678C59.0646 5.26393 60.0565 4.68357 61.0068 4.03846C62.082 3.30781 63.1641 2.5864 64.0219 1.5829C64.3942 1.14589 64.6971 1.16902 65.0046 1.64764C66.385 3.78643 67.4163 6.06858 67.844 8.60276C68.0752 9.96927 68.1515 11.3381 68.0868 12.7185C67.9365 15.877 66.6995 18.5591 64.5075 20.8135C64.2693 21.0563 64.1075 21.232 64.2994 21.5881C65.0902 23.0517 66.0174 24.3997 67.4509 25.3131C68.4151 25.9281 69.4764 26.1686 70.621 26.1431C71.4164 26.1246 71.5759 26.3327 71.4233 27.1096C71.0395 29.0496 70.3389 30.8415 69.0163 32.3653C66.0474 35.7874 62.267 37.8175 57.9293 38.8926C56.0286 39.3643 54.1003 39.6464 52.1326 39.5424C51.5661 39.5031 51.0019 39.4661 50.4262 39.0499ZM19.1721 66.3732C18.9802 66.3894 18.5987 66.4079 18.2195 66.4518C17.9929 66.4773 17.7686 66.5281 17.5466 66.5836C14.7512 67.2842 12.913 69.1178 11.6297 71.5988C11.0724 72.6763 11.0794 72.7457 11.9534 73.5457C13.6205 75.074 15.5743 76.0498 17.7686 76.5885C21.4311 77.4903 24.6451 75.0833 25.7966 72.3803C26.0347 71.8208 26.0625 71.3167 25.8636 70.7294C25.0081 68.179 22.3144 66.3524 19.1721 66.3732ZM63.3745 19.3453C63.5456 19.2666 63.689 19.2135 63.8185 19.1372C65.4393 18.1822 66.1052 16.6192 66.4567 14.8873C66.9839 12.2884 66.7341 9.7103 66.1214 7.15531C65.733 5.53677 65.2798 3.93904 64.4451 2.34593C63.5664 3.41185 62.6022 4.20725 61.5641 4.92173C60.7779 5.46278 60.0056 6.03158 59.2611 6.62813C57.957 7.67325 57.0946 9.05132 56.313 10.5635C57.3397 10.9335 58.2322 11.4306 59.1455 11.9231C60.0912 9.81435 62.0496 8.70912 63.4878 6.83623C63.5271 7.57845 63.2034 7.87904 62.9537 8.1935C62.4057 8.88022 61.8323 9.54845 61.2612 10.219C60.7872 10.7762 60.3964 11.3843 60.0473 12.0248C59.8646 12.3578 59.8091 12.6191 60.1051 12.9428C61.2958 14.2376 61.934 15.8376 62.5606 17.4469C62.808 18.0782 62.9676 18.751 63.3745 19.3453ZM39.1241 12.3208C39.9426 11.7844 40.7103 11.3658 41.545 11.0884C41.8872 10.9751 41.9103 10.7762 41.7346 10.4756C40.8606 8.97965 39.8733 7.59001 38.4582 6.53564C36.8766 5.35642 35.1217 4.38992 33.9401 2.85924C33.6742 2.86617 33.6349 2.97947 33.591 3.0789C32.1089 6.53564 31.2765 10.1196 31.584 13.9023C31.6927 15.2434 32.0095 16.5429 32.6939 17.7267C33.2026 18.61 33.8985 19.2782 34.8928 19.6667C35.0038 19.4609 35.1101 19.3013 35.1795 19.1279C35.9934 17.0284 36.6685 14.8573 38.2478 13.1509C38.4883 12.8919 38.3472 12.663 38.2223 12.4248C37.9033 11.8121 37.5403 11.2294 37.094 10.7022C36.5021 10.0016 35.9101 9.30104 35.3298 8.58888C35.0754 8.27673 34.7702 7.97846 34.8604 7.47902C36.2431 9.07213 38.146 10.1843 39.1241 12.3208ZM35.4269 47.568C34.9159 47.5033 34.5344 47.649 34.1482 47.8039C31.221 48.9762 29.6672 51.8687 30.2684 55.0596C30.6961 57.3279 31.762 59.2979 33.1563 61.1083C34.139 62.3847 34.1321 62.4401 32.9806 63.55C32.7309 63.7905 32.4696 64.0217 32.4788 64.4101C32.4835 64.6599 32.6014 64.8911 32.8187 64.9628C33.0384 65.0368 33.1101 64.794 33.2049 64.6298C33.4985 64.1281 33.8685 63.7442 34.5621 63.7489C33.8592 65.3466 33.9401 65.5131 35.3598 65.5547C35.5263 64.2367 35.6142 64.1142 36.4859 64.0055C36.5992 64.1674 36.4651 64.2783 36.405 64.4078C36.0812 65.0946 36.2177 65.342 36.9414 65.2287C37.531 65.1362 38.1669 65.1662 38.6917 64.8263C38.6779 64.5674 38.4975 64.4772 38.3634 64.35C36.7148 62.78 35.6188 60.8817 35.0153 58.6967C34.3933 56.4492 34.398 54.1648 34.6431 51.8664C34.7957 50.4375 35.1587 49.0386 35.4269 47.568ZM27.3573 64.1165C27.9978 63.3419 28.1319 62.6644 27.9192 61.7904C26.9272 57.7209 23.7294 55.4342 19.5998 55.1243C19.2484 55.0989 18.9224 55.1752 18.5987 55.3139C16.0252 56.4215 13.787 57.9776 12.0459 60.195C11.7985 60.5095 11.5071 60.81 11.3453 61.439C14.0829 59.6609 16.8691 58.8331 19.9582 59.3048C23.1121 59.788 25.6416 61.2378 27.3573 64.1165ZM33.9101 24.7512C34.0904 24.9454 34.2477 24.9061 34.3887 24.8899C35.9379 24.6911 37.4362 24.9639 38.9183 25.3824C39.8733 25.6506 40.812 25.9836 41.8016 26.1316C43.4364 26.3744 44.5509 25.6021 44.8908 23.9766C45.2815 22.1153 44.4907 20.3256 42.8005 19.4123C40.9808 18.4296 39.0802 18.4042 37.1379 19.0516C36.6061 19.2273 36.3356 19.5742 36.1668 20.0782C35.8246 21.0933 35.4153 22.0829 34.909 23.0286C34.5899 23.6205 34.2338 24.1963 33.9101 24.7512ZM64.5838 24.668C63.3121 22.9222 62.5837 21.165 61.9317 19.373C61.8138 19.0493 61.5687 18.8851 61.2773 18.7765C59.1039 17.9603 56.9882 18.0342 55.0251 19.3406C53.4575 20.3834 52.8517 22.4043 53.4922 24.1153C53.9384 25.3061 54.7777 25.868 56.0402 25.8287C56.8541 25.8033 57.6171 25.5373 58.3871 25.3177C60.3317 24.7558 62.2693 24.1662 64.5838 24.668Z" fill="#231F20"/>
<path d="M59.5086 38.7747C60.119 39.0475 60.2763 39.5007 60.4913 39.8799C61.4601 41.5817 62.1908 43.3898 62.7873 45.2488C62.9954 45.8986 63.2521 46.2061 64.0243 46.257C67.0765 46.4604 69.7286 49.5287 69.6638 52.5808C69.6153 54.7867 69.2846 56.9162 68.2996 58.9117C67.8927 59.7371 67.3747 60.4955 66.7736 61.1938C66.1793 61.8828 66.1701 61.8944 66.8036 62.5118C67.1736 62.8748 67.4325 63.284 67.4926 63.7973C67.5759 64.5003 67.384 65.2124 66.7458 65.4598C65.7007 65.8621 64.6371 66.4148 63.4579 66.1858C62.4497 65.9916 61.4416 65.7558 60.5005 65.3072C60.1976 65.1639 59.8924 64.8263 59.571 64.9581C59.0878 65.1569 58.4843 65.2725 58.2022 65.735C57.0438 67.6379 55.2888 68.0518 53.2448 67.8414C52.5651 67.772 51.8783 67.7767 51.1985 67.7003C50.3037 67.6009 50.0332 67.2356 49.9893 66.35C49.9315 65.2194 50.3592 64.4193 51.4344 64.0124C52.4171 63.6401 52.9211 62.8886 53.2125 61.9152C53.7998 59.9545 53.9662 57.9359 54.0333 55.9104C54.1258 53.1173 54.0333 50.3287 53.6564 47.5541C53.6079 47.2003 53.4922 46.8281 53.6865 46.4072C54.1096 46.6801 54.135 47.1032 54.1859 47.4431C54.8819 52.0768 55.1339 56.7197 54.3085 61.3672C54.0194 62.995 53.3605 64.3523 51.6957 64.9951C51.0829 65.2309 50.8864 65.765 50.7985 66.3593C50.7546 66.6529 50.7893 66.9096 51.15 66.9512C51.4829 66.9905 51.4922 66.7362 51.5176 66.5049C51.5292 66.3986 51.5292 66.2807 51.7512 66.2691C52.0356 66.5512 52.0171 67.1963 52.7153 67.1639C53.3697 67.1339 53.0645 66.4564 53.5154 66.2552C53.8784 66.3685 53.8899 67.0483 54.505 66.9489C55.275 66.824 56.0149 66.6945 56.6091 66.1535C57.097 65.7072 57.4184 65.1384 57.7236 64.5627C59.0855 61.9984 59.8392 59.2446 60.2693 56.3914C60.5075 54.8006 60.6647 53.2051 60.563 51.5935C60.5468 51.3299 60.5121 51.0455 60.8751 50.8814C61.3699 51.3207 61.3907 51.9311 61.4162 52.5277C61.5757 56.0538 61 59.4573 59.726 62.7476C59.5942 63.0898 59.3144 63.395 59.4231 63.9361C61.4208 61.8875 62.7734 59.6099 63.259 56.8538C63.8394 53.5705 63.2914 50.3773 62.4474 47.2188C61.7954 44.7771 60.8959 42.421 59.8994 40.0996C59.7398 39.7319 59.4832 39.3828 59.5086 38.7747ZM66.0152 64.8309C66.54 64.4286 66.5747 64.0355 66.2302 63.6077C66.0891 63.432 65.8972 63.2933 65.7307 63.1384C64.9145 62.3823 64.8822 62.0909 65.5319 61.1961C65.8232 60.7938 66.14 60.4076 66.4198 59.9984C67.5088 58.403 68.332 56.6896 68.6788 54.7728C69.2545 51.5889 67.6661 48.6917 64.7319 47.5541C64.3481 47.4061 63.9689 47.2535 63.5804 47.3483C63.4856 47.6212 63.5758 47.7969 63.6197 47.9795C64.2463 50.597 64.614 53.2398 64.3689 55.9358C64.0775 59.1359 62.8798 61.9198 60.526 64.1627C60.4057 64.2783 60.1768 64.3523 60.2832 64.6136C60.7086 64.9165 61.2335 64.8425 61.7075 64.9627C62.0335 65.0436 62.4243 65.1615 62.6694 64.8355C62.9492 64.4633 62.459 64.2413 62.4012 63.9245C62.385 63.8297 62.3966 63.7719 62.6116 63.7025C63.5711 63.795 63.407 64.706 63.555 65.3835C64.022 65.3535 64.4637 65.4136 64.7411 64.9951C65.1203 64.424 64.3619 64.0817 64.3781 63.5546C65.3146 63.7488 65.3146 63.7488 66.0152 64.8309Z" fill="#231F20"/>
<path d="M54.8357 29.6693C55.0068 31.2509 53.3304 32.7376 51.3003 32.6104C50.7269 32.5734 50.1465 32.4902 49.6355 32.2197C49.076 31.9237 48.6089 31.9908 48.0216 32.2243C46.3152 32.9018 44.7267 32.5156 43.2862 31.4335C43.1382 31.3225 43.018 31.1607 42.9209 30.9988C42.8723 30.9179 42.87 30.7769 42.907 30.6867C42.9556 30.5641 43.1013 30.5641 43.203 30.6058C43.3417 30.6636 43.462 30.763 43.5961 30.8393C45.1522 31.7202 46.7476 31.7295 48.306 30.911C49.0297 30.5295 49.6656 30.504 50.3639 30.8786C50.6321 31.022 50.9211 31.1353 51.2102 31.2254C52.4981 31.6208 53.4299 31.3133 54.2391 30.252C54.3917 30.0531 54.438 29.7502 54.8357 29.6693Z" fill="#231F20"/>
<path d="M49.6355 26.2425C50.1072 26.298 50.8216 26.0506 50.965 26.5962C51.1315 27.2252 50.3522 27.3731 49.9268 27.6136C49.099 28.0853 48.299 27.7801 47.5475 27.3361C47.3764 27.2367 47.2562 27.0587 47.3024 26.8575C47.3464 26.6656 47.4967 26.5431 47.7071 26.5107C48.3476 26.4043 48.9742 26.1985 49.6355 26.2425Z" fill="#231F20"/>
<path d="M40.3496 23.3501C40.419 22.6842 40.5878 22.0622 41.1265 21.6229C41.8618 21.0217 42.7982 21.3547 42.9323 22.2957C43.0387 23.0379 42.7936 23.7339 42.3474 24.3281C42.0445 24.7305 41.5959 24.8415 41.1149 24.6495C40.5323 24.416 40.419 23.8911 40.3496 23.3501Z" fill="#231F20"/>
<path d="M55.2678 22.2703C55.2979 21.7431 55.4436 21.2691 55.973 21.0564C56.5002 20.846 56.958 21.0402 57.3003 21.4564C57.7835 22.0437 58.0078 22.7143 57.8066 23.4819C57.6795 23.9652 57.3927 24.3097 56.8887 24.3929C56.3754 24.4785 55.9962 24.2103 55.7488 23.7894C55.4759 23.3247 55.3557 22.7998 55.2678 22.2703Z" fill="#231F20"/>
</svg>
