<svg width="80" height="80" viewBox="0 0 80 80" fill="none" xmlns="http://www.w3.org/2000/svg">
<rect width="80" height="80" fill="white"/>
<path d="M43.2608 6.42132C45.866 3.93713 48.9106 1.55566 52.5787 1.03447C54.5394 0.750105 56.2572 2.26706 56.8751 4.03414C58.1421 7.12416 57.8279 10.5889 57.0924 13.7636C60.0915 18.3372 62.4954 24.0189 60.9864 29.5513C62.8143 28.4147 64.5179 27.0928 66.3553 25.9715C67.3167 25.4522 67.0196 24.0208 68.0493 23.5814C68.4963 23.0992 67.5463 23.0992 67.2635 22.9651C66.5612 22.3821 67.4514 21.083 68.279 21.3131C68.9993 21.4025 68.9823 22.2756 69.2641 22.7835C70.0879 22.0835 71.1044 21.6184 71.8294 20.8081C71.446 20.5656 70.8291 20.538 70.6896 20.0311C70.5795 19.2208 71.5485 18.4742 72.2793 18.9364C72.6324 19.255 72.5185 19.7981 72.6153 20.2223C73.3907 20.1604 73.7076 18.9279 74.5039 19.3206C75.8544 19.664 76.9952 20.83 77.5115 22.0787C77.242 23.3427 78.0506 25.0708 76.8234 25.9229C77.2913 26.0875 77.912 25.9239 78.2831 26.2986C78.6608 27.1422 77.5561 28.0828 76.7513 27.8289C76.2549 27.4798 76.4523 26.8074 76.2853 26.3034C75.1464 26.6058 74.1281 27.3277 73.3166 28.1722C73.7722 28.7638 74.6966 28.2302 75.1198 28.8408C75.5621 29.7681 73.9819 30.8523 73.3071 30.042C72.9076 29.5589 73.5188 28.8446 73.0528 28.4357C72.062 28.5203 71.5723 30.0211 70.4837 29.6654C69.3989 29.3668 68.4745 30.1619 67.6422 30.7306C63.5223 33.8615 59.3398 36.9116 55.2218 40.0415C55.8349 40.927 56.486 41.7848 57.1532 42.6294C60.0848 40.3896 61.8652 37.0409 64.5482 34.5586C65.2107 33.9148 66.3932 33.6846 67.0623 34.4426C68.1025 35.5991 67.9013 37.3082 67.5112 38.691C68.968 37.4213 70.6621 36.282 72.5972 35.9529C73.5795 35.7342 74.5855 36.5502 74.5874 37.5526C74.5703 38.9431 73.7409 40.1566 72.9047 41.2047C70.924 43.5462 68.187 45.2639 65.223 46.0295C65.4081 47.108 64.7267 48.1399 63.7045 48.4689C64.3888 49.2897 65.1196 50.3635 64.7513 51.4829C64.4685 52.2656 63.602 52.4996 62.875 52.6632C63.3249 54.2286 62.0921 56.0261 60.3828 55.6733C59.6017 61.6136 55.4373 66.5411 50.299 69.3382C50.2791 70.7087 50.3987 72.0801 50.5173 73.4449C52.3386 74.6261 55.2721 75.4469 55.3253 78.0585C54.7444 79.683 52.4819 78.8917 51.5024 78.0462C51.5015 78.847 51.1105 80.0035 50.1187 79.8979C48.9257 79.6164 48.2083 78.5008 47.5496 77.5564C46.834 78.2897 46.0102 79.1104 44.9235 79.1589C44.1206 79.2255 43.4411 78.4675 43.5009 77.68C43.5208 76.1174 44.6379 74.8744 45.7891 73.9499C45.5793 73.1529 45.8451 71.1462 44.5487 71.597C40.3187 72.7278 35.8439 72.9523 31.5323 72.1657C31.4962 72.7193 31.4497 73.2728 31.4383 73.8292C33.177 74.5349 35.2222 76.0176 34.9802 78.1337C34.4165 79.5812 32.4121 78.9145 31.5731 78.0671C31.4791 78.7614 31.1963 79.761 30.3422 79.78C29.4092 79.8513 28.8721 78.943 28.4611 78.2469C27.9591 78.9535 27.401 79.9559 26.4007 79.8922C25.6063 79.7163 25.4573 78.7309 25.4792 78.0462C24.6677 78.7785 23.527 79.3244 22.4222 79.0562C21.588 78.6672 21.7664 77.5554 22.1233 76.8849C23.0116 75.1635 24.9135 74.4122 26.5943 73.6989C26.7082 72.7564 26.7708 71.8081 26.8022 70.858C21.681 69.0015 16.8769 65.5054 14.5507 60.4476C14.21 59.8437 14.191 58.9725 13.4897 58.6492C11.9759 57.6125 11.5735 55.5943 11.8972 53.8815C10.6748 53.9262 9.36031 53.268 8.93418 52.0687C8.55835 50.8732 9.23978 49.6578 10.0465 48.8142C8.76904 48.4499 7.78866 47.0423 8.43118 45.7432C5.03638 44.6656 2.14839 41.7953 1.30373 38.2944C1.0304 37.3234 1.50113 35.9881 2.65329 35.9615C4.50586 35.9035 5.82221 37.4499 7.14615 38.5246C7.03891 36.9268 7.26573 34.9248 8.7586 34.0127C10.149 33.5134 11.0867 34.9847 11.5773 36.0594C13.0142 38.8289 14.6931 41.6603 17.3789 43.3817C18.0205 42.7587 18.6108 42.0863 19.1869 41.4044C16.4422 39.9902 14.1255 37.681 12.961 34.7907C10.8703 29.362 11.8886 23.1611 14.4919 18.0938C13.3881 15.2272 12.4163 12.0726 13.0512 8.95686C13.2942 7.20975 14.4264 5.37134 16.3293 5.18874C19.9329 4.81211 23.3087 6.52974 26.3969 8.17033C28.2077 7.40662 30.0679 6.6686 32.023 6.3167C32.7262 5.0689 33.6212 3.7355 35.0505 3.27614C35.8315 2.98036 36.6914 3.68034 36.5595 4.50587C37.7629 3.77735 39.3696 4.44405 39.4646 5.90489C40.7515 5.87541 42.0223 6.26439 43.2608 6.42132ZM52.3794 1.685C48.8536 2.32507 45.9077 4.64092 43.4297 7.10799C41.8913 6.79128 40.3415 6.4451 38.7594 6.4898C38.8239 5.89633 38.8391 5.04798 38.114 4.87013C37.0834 4.55532 36.4342 5.58628 35.6237 5.99239C35.3172 5.31142 36.4712 4.16063 35.5288 3.84773C33.9211 4.01322 33.1485 5.67663 32.3286 6.85786C30.2786 7.28774 28.2742 7.94398 26.3931 8.87983C23.6408 7.35432 20.6959 5.85924 17.4909 5.74416C15.9563 5.57297 14.3438 6.42607 13.9196 7.97346C12.7997 11.3992 13.8124 15.0989 15.3109 18.2421C12.6963 22.1615 11.9854 27.2116 12.7095 31.8186C13.3597 35.9795 16.297 39.6697 20.2318 41.1657C17.5896 43.7764 15.4182 46.9701 14.4188 50.5813C13.3065 54.4825 13.8598 58.9107 16.2733 62.2166C17.4549 61.5984 18.6241 60.8014 19.5447 59.8076C20.0771 60.4933 20.5346 61.9551 21.6146 61.5908C20.3694 62.5124 18.999 63.2676 17.6627 64.0541C20.3457 67.3143 24.1913 69.4704 28.1954 70.6707C37.7648 73.7531 49.5237 71.6084 56.2136 63.7374C58.9355 60.4476 60.2566 56.0471 59.8437 51.7986C59.4594 47.5607 57.455 43.5871 54.6619 40.4305C54.1086 41.0573 52.2598 41.3987 53.1652 42.4202C55.6081 45.7356 55.0301 50.8799 51.6068 53.2985C49.6423 54.8649 47.0741 55.134 44.7964 56.0109C43.3329 56.5844 42.2956 57.8179 41.4462 59.0924C39.4664 61.8866 36.1039 63.8487 32.6171 63.4996C29.8752 63.2989 27.4314 61.7487 25.6623 59.7049C24.718 60.4676 23.4026 60.4562 22.4393 61.2009C21.7038 60.3801 21.254 59.3492 20.5906 58.498C21.7408 57.9159 22.4166 56.689 23.5165 55.9976C21.9221 51.1881 24.1097 45.7784 27.8309 42.5999C29.6475 41.0696 32.246 40.8994 33.922 39.1694C36.1561 37.0742 39.2434 35.8502 42.3203 36.2991C45.66 36.8479 49.2892 36.3447 52.0795 34.3313C55.7628 31.733 57.6116 26.777 56.466 22.4011C55.5046 18.6283 52.7761 15.1711 49.0463 13.8663C43.7201 11.9299 37.5674 15.6714 36.2529 21.0678C36.1058 21.0639 35.9597 21.0601 35.8154 21.0563C34.9717 19.7477 34.09 18.4209 32.8363 17.4689C29.7604 15.0408 25.2315 14.9638 21.9468 17.0143C17.9085 19.4766 15.7968 24.5277 16.465 29.1594C16.8892 32.8439 19.1081 36.4494 22.6244 37.8722C27.5054 39.9331 33.0071 37.7742 36.7977 34.4997C35.4367 33.5981 34.5494 32.142 33.9828 30.6517C34.1375 29.2041 35.3656 27.4485 36.997 27.6881C38.2004 27.9554 39.1058 29.0006 39.5092 30.1276C39.5025 32.1924 38.4937 34.3076 36.6791 35.3623C33.3365 37.8712 29.1644 39.7971 24.8974 39.0648C20.9161 38.4884 17.5422 35.3918 16.446 31.5409C14.2366 25.1279 17.8876 16.9297 24.7047 15.3157C29.0296 14.124 33.8774 16.3733 35.917 20.3411C37.4706 15.5639 42.4873 12.1268 47.524 12.9285C54.0649 14.047 58.5625 21.3788 57.0174 27.768C55.8881 33.2367 50.5686 37.1693 45.0631 37.04C46.1184 37.447 46.9792 38.2421 47.9976 38.6882C51.7758 36.1222 55.4686 33.4335 59.2278 30.8381C60.6058 30.0211 60.6666 28.2131 60.8602 26.7913C61.0642 22.1101 59.0323 17.643 56.3977 13.891C57.3306 10.5822 57.6324 6.8046 56.0513 3.62328C55.4059 2.27181 53.8846 1.34833 52.3794 1.685ZM73.6668 20.1747C71.9291 21.5471 70.1173 22.7968 68.3255 24.1007C67.4476 24.5848 67.6261 25.7527 67.0917 26.5031C67.0044 26.4451 66.9181 26.3871 66.8326 26.33C57.6808 32.298 48.9609 38.9117 39.8223 44.8996C39.9315 45.0403 40.0416 45.1811 40.1469 45.3228C45.8128 41.8058 51.0403 37.604 56.7375 34.1554C54.3392 36.0899 51.6277 37.604 49.1573 39.4481C46.3642 41.6251 43.2826 43.3883 40.3586 45.3751C40.5095 45.5178 40.6945 45.6129 40.8976 45.6623C40.9517 45.8335 41.0248 46.1512 41.2763 46.0504C42.5158 45.2686 43.6556 44.2919 44.9995 43.6946C43.8511 44.6209 42.4873 45.2534 41.3665 46.2197C41.4794 46.3433 41.5942 46.4669 41.711 46.5896C42.1238 46.253 42.5319 45.8973 43.0207 45.6785C42.5983 46.1512 42.027 46.4489 41.524 46.8255C41.6227 46.9805 41.7233 47.1365 41.8239 47.2915C43.0093 46.4708 44.1396 45.5425 45.4209 44.8796C44.2972 45.7841 43.089 46.6182 41.8657 47.3961C41.9758 47.67 42.0868 47.9459 42.194 48.2217C45.2671 46.3481 48.0479 44.0313 51.1228 42.1596C55.7362 39.0781 60.0933 35.62 64.552 32.3208C64.4382 32.3217 64.2094 32.3255 64.0965 32.3265C64.2683 32.1705 64.4799 32.1334 64.6992 32.1981C65.9434 31.1643 67.3869 30.3682 68.5533 29.246C68.2989 29.1689 68.0446 29.2498 67.8016 29.3249C67.9525 29.1699 68.1006 29.013 68.2515 28.857C67.7542 28.43 67.3214 29.0586 66.8431 29.1889C67.0794 28.9198 68.0826 28.4623 67.4249 28.2312C64.925 29.6083 62.7175 31.5713 60.2015 32.8867C62.4726 31.1196 65.168 29.7757 67.2635 27.8536C65.0066 28.584 63.1247 30.6298 60.902 31.6702C62.7631 30.2931 64.7523 29.071 66.6675 27.7633C66.8716 27.6415 66.6912 27.4447 66.5802 27.3372C65.4707 27.9468 64.4638 28.7257 63.361 29.3344C64.5131 28.2512 66.0326 27.6567 67.236 26.6296C67.8814 26.9206 68.3208 25.981 68.9082 25.7717C68.4812 26.3785 67.6431 26.5792 67.3233 27.2592C67.4856 27.2497 67.6498 27.2402 67.813 27.2297C67.8443 27.6073 68.149 27.9649 68.5011 27.6368C69.7482 27.1118 70.8823 25.5264 72.3382 26.019C72.5659 27.0034 71.8665 28.1313 70.8605 27.2582C70.9582 26.7247 71.4565 26.4337 71.6833 25.9686C70.3688 26.4232 69.3277 27.4161 68.0778 28.0096C68.2325 28.1684 68.3853 28.3282 68.5371 28.4908C68.9804 28.2207 69.415 27.9173 69.9152 27.7623C69.4786 28.0971 68.9424 28.2949 68.5789 28.7248C68.7792 28.7334 69.0041 28.6963 69.1721 28.837C68.9652 28.9103 68.7554 28.9768 68.5476 29.0415C69.5859 29.0301 71.0114 29.3164 71.8114 28.3472C73.3869 27.0519 75.1407 25.96 76.9582 25.0394C76.5899 23.7726 77.5694 22.1377 76.3147 21.2076C75.6418 20.5684 74.6121 19.2826 73.6668 20.1747ZM34.5133 30.6764C35.506 30.4871 36.2406 31.3355 37.1156 31.6351C37.6642 31.0749 38.1102 30.392 38.7841 29.9992C38.3798 29.0691 37.4791 28.1389 36.3934 28.2207C35.3153 28.5165 34.7971 29.6892 34.5133 30.6764ZM37.0179 32.0535C36.2975 31.9194 35.7414 31.3735 35.0286 31.2175C35.3352 32.4406 36.2301 33.5962 37.3795 34.1354C38.1738 33.1939 38.7955 31.9917 38.7983 30.7411C38.1226 31.073 37.8046 31.9175 37.0179 32.0535ZM8.28882 35.2795C6.68396 38.6901 8.49382 42.6817 11.1199 45.0289C8.88198 44.192 7.80385 41.6565 7.28281 39.4738C6.01961 38.2792 4.70042 36.8383 2.90954 36.5388C1.90353 36.3676 1.64634 37.5849 1.88645 38.3249C2.87917 41.8838 6.00633 44.6371 9.55012 45.495C9.28818 45.9039 8.62574 46.1331 8.78992 46.7218C8.94842 47.9116 10.2458 48.2749 11.2442 48.4594C10.2733 49.206 9.30431 50.2493 9.39922 51.5742C9.61086 52.9837 11.36 53.639 12.5738 53.0578C12.2398 54.7308 12.1088 56.9411 13.6861 58.0424C12.4514 53.1054 14.1369 47.9383 17.0249 43.9076C13.9452 41.841 12.1781 38.4827 10.4707 35.3024C10.0721 34.3323 8.6656 34.2391 8.28882 35.2795ZM64.9554 34.9733C62.2525 37.5098 60.4578 40.9327 57.4009 43.1192C59.6312 46.6419 60.8156 50.8599 60.4568 55.037C62.2259 55.4498 62.7071 53.3346 62.1234 52.0706C62.8437 52.0098 63.8896 52.1191 64.2132 51.2917C64.4306 50.1267 63.5992 49.0757 62.8181 48.3082C63.1598 47.7423 64.0728 47.9316 64.3916 47.2877C64.8814 46.7313 64.6318 46.0418 64.032 45.7166C67.5074 45.0242 70.794 43.0964 72.9199 40.226C73.4599 39.3967 74.0854 38.4704 73.9819 37.4328C73.8481 36.6253 72.8516 36.4132 72.1806 36.6348C70.6165 37.0542 69.2214 37.9682 67.9658 38.9706C66.5887 39.9502 66.0829 41.7097 64.6992 42.6893C66.2528 40.7301 67.6261 38.225 67.0974 35.6429C66.9124 34.6404 65.67 34.1906 64.9554 34.9733ZM36.8821 37.7885C35.4576 38.4799 34.3823 39.6716 33.0802 40.5437C31.519 41.53 29.6038 41.8505 28.1764 43.0697C25.6813 45.1811 24.0442 48.3206 23.5697 51.5438C23.0961 56.5806 26.7082 61.8086 31.7268 62.793C34.6395 63.433 37.7477 62.267 39.7948 60.1585C40.8502 59.0952 41.5477 57.7266 42.642 56.7014C45.0991 54.4883 48.8223 54.8934 51.3421 52.7811C54.6467 50.3245 54.9675 45.1526 52.2133 42.1605C49.051 43.9809 46.1839 46.2777 43.1042 48.2359C42.8461 48.4261 42.3449 48.5232 42.4275 48.9426C42.5917 50.6574 41.9359 52.4311 40.6281 53.5638C38.5259 55.4774 35.0941 55.4098 32.9568 53.5847C32.7983 53.6694 32.6398 53.7521 32.4804 53.832C32.5867 53.6817 32.6996 53.5372 32.8116 53.3926C32.7025 53.3023 32.5905 53.2157 32.4776 53.133C32.2308 52.7402 32.0305 52.2846 31.6348 52.0174C31.6471 51.7711 31.6025 51.5295 31.5313 51.2955C31.2457 51.3982 30.9752 51.5371 30.6971 51.6569C30.8907 51.3649 31.4659 51.1909 31.259 50.7601C30.849 49.2888 31.1223 47.652 31.9945 46.3985C33.6221 44.0588 36.941 43.2866 39.4693 44.5667C42.0953 42.6941 44.8495 40.9974 47.4167 39.0458C44.4357 36.8383 40.2627 35.9424 36.8821 37.7885ZM35.8183 44.5325C33.5282 44.9671 31.4848 47.0167 31.6073 49.4485C31.6111 52.3921 34.4051 54.8991 37.3405 54.4711C39.6629 54.2419 41.747 52.2894 41.9103 49.9193C42.1314 46.7665 38.9492 43.8449 35.8183 44.5325ZM16.3995 62.481C16.7212 62.8843 16.9851 63.4483 17.4577 63.6584C18.0015 63.0973 18.5653 62.559 19.1689 62.0635C19.0265 61.7677 18.869 61.4814 18.6915 61.2066C17.843 61.4577 17.2053 62.1282 16.3995 62.481ZM45.8508 71.208C46.145 72.1876 46.2788 73.2053 46.4667 74.2096C45.3098 74.9295 44.2621 76.0347 44.0485 77.4289C43.9137 78.0243 44.3788 78.7614 45.0507 78.5712C46.2826 78.4076 46.8824 77.1075 47.8267 76.5739C48.2604 77.7304 49.0709 79.061 50.3588 79.3168C51.4094 78.8356 50.6502 77.5079 50.7024 76.6614C51.7948 77.5003 53.2762 79.0115 54.7084 78.166C54.734 75.6543 51.7131 75.0884 50.0665 73.8891C49.7078 72.5072 49.8615 71.0482 49.7021 69.6349C48.4256 70.178 47.1453 70.7106 45.8508 71.208ZM27.3526 71.014C27.2966 72.0602 27.2748 73.1225 27.0632 74.1506C25.2096 74.9952 22.3634 75.8816 22.3795 78.3467C23.7452 78.9773 25.2761 77.5802 26.1644 76.5473C26.4263 77.3842 25.5636 78.6007 26.4292 79.2531C27.7455 79.2854 27.7712 77.5374 28.5798 76.9144C28.7838 77.8959 29.3333 79.1057 30.4608 79.2065C31.5209 78.6777 30.6696 77.3491 30.9885 76.5834C31.7439 77.5041 33.0223 78.9278 34.2988 78.1822C34.7515 76.1859 32.506 74.8173 30.8679 74.2914C30.8243 73.54 30.941 72.7915 30.9163 72.0402C29.7158 71.7435 28.5247 71.4115 27.3526 71.014Z" fill="black"/>
<path d="M47.8655 9.35633C49.4485 8.19508 51.7111 7.60637 53.6301 8.09331C53.4203 8.47755 52.9439 8.34059 52.5871 8.37673C50.9594 8.391 49.4162 8.94452 47.8655 9.35633Z" fill="black"/>
<path d="M16.6479 11.8083C18.5005 11.192 20.8343 11.4355 22.4534 12.3989C20.8855 12.1773 19.3034 11.8244 17.7109 12.0166C17.7849 12.3238 17.859 12.6309 17.895 12.9458C17.4603 12.5853 17.1168 12.1297 16.6479 11.8083Z" fill="black"/>
<path d="M42.8831 17.7439C43.7695 16.2022 46.3766 15.8218 47.5467 17.2513C46.6413 17.6574 45.5471 17.0392 44.5752 17.3882C44.002 17.3939 43.3861 17.9855 42.8831 17.7439Z" fill="black"/>
<path d="M24.6428 19.2179C25.4827 17.6477 28.2749 17.8883 29.3805 19.2427C27.8431 19.1561 26.1281 18.9193 24.6428 19.2179Z" fill="black"/>
<path d="M41.2544 28.1115C38.8571 25.0405 40.9336 19.9418 44.821 19.5148C47.6435 19.0031 49.9516 21.2447 50.8466 23.7242C51.1664 23.728 51.4815 23.7936 51.7672 23.941C50.2164 24.6068 50.9538 26.6069 50.019 27.8109C48.2908 31.0303 43.218 31.1397 41.2544 28.1115ZM44.7176 20.0245C42.8688 20.3726 41.3009 21.8782 40.8691 23.7128C40.2712 25.9173 41.4613 28.4776 43.5607 29.3906C46.1734 30.7345 49.6802 28.9427 50.1187 26.0343C50.9719 22.8749 48.0222 19.316 44.7176 20.0245Z" fill="black"/>
<path d="M45.2168 20.8881C47.4765 20.5638 49.4288 22.7503 49.3585 24.9263C49.4031 27.0776 47.4689 29.0739 45.2909 28.9113C42.4645 28.8752 40.668 25.4342 42.0137 23.0147C42.6031 21.8002 43.8872 21.0022 45.2168 20.8881ZM45.7008 21.8582C44.5829 22.1711 44.7565 24.0066 45.8242 24.2691C46.6433 24.5725 47.6455 23.8269 47.5316 22.9433C47.4775 22.0845 46.462 21.5795 45.7008 21.8582Z" fill="black"/>
<path d="M22.352 26.2121C22.7677 23.5872 24.9743 21.2095 27.7474 21.2856C30.0859 21.2894 32.2023 23.0736 32.8145 25.2991C33.4845 27.7614 32.302 30.6279 29.9796 31.7502C26.8781 33.4526 22.8569 31.0654 22.4355 27.6511C22.5247 26.8427 21.4912 27.2336 21.2891 26.6829C21.6412 26.5241 21.9971 26.369 22.352 26.2121ZM26.6788 21.8867C24.3631 22.424 22.743 24.8188 22.9309 27.1622C23.1037 28.8257 24.0148 30.4577 25.5162 31.2547C27.0774 32.1373 29.1236 31.8805 30.5187 30.7953C32.5516 29.3392 33.1258 26.2283 31.7544 24.1369C30.7835 22.3983 28.6196 21.4111 26.6788 21.8867Z" fill="black"/>
<path d="M71.7771 22.3413C72.1976 22.3451 73.0422 22.7265 72.6351 23.2239C72.2754 23.5967 71.7468 23.7127 71.2646 23.8421C71.5114 23.3666 71.5266 22.814 71.7771 22.3413Z" fill="black"/>
<path d="M26.9206 22.7426C28.926 22.2709 31.0614 23.7222 31.5435 25.6948C32.1888 27.9773 30.4796 30.5975 28.1022 30.8324C25.8358 31.1196 23.7953 29.0149 23.8722 26.7856C23.821 24.9482 25.1164 23.1583 26.9206 22.7426ZM27.4113 23.727C25.8121 24.154 26.7906 26.5935 28.2493 26.0847C29.8058 25.651 28.9668 23.0546 27.4113 23.727Z" fill="black"/>
<path d="M70.0639 23.6119C71.0983 23.5615 70.025 25.4408 69.3692 24.6932C68.8396 24.1987 69.4774 23.5339 70.0639 23.6119Z" fill="black"/>
<path d="M73.9731 24.9244C74.423 24.2653 75.2999 24.3946 75.318 25.2563C74.8766 26.0095 74.0529 25.7528 73.9731 24.9244Z" fill="black"/>
<path d="M58.3262 32.784C59.727 31.6608 61.2569 30.6232 62.8048 29.6997C61.4002 30.8353 59.8646 31.832 58.3262 32.784Z" fill="black"/>
<path d="M62.7324 31.9537C63.653 31.1805 64.7112 30.5509 65.7552 29.9536C64.8431 30.7392 63.7707 31.3498 62.7324 31.9537Z" fill="black"/>
<path d="M58.4155 34.0536C58.6291 33.7331 58.9669 33.5419 59.3276 33.4307C59.0913 33.7255 58.7743 33.9395 58.4155 34.0536Z" fill="black"/>
<path d="M60.8923 34.6576C61.2777 34.2144 61.7958 33.9082 62.3159 33.6486C61.9088 34.067 61.4124 34.399 60.8923 34.6576Z" fill="black"/>
<path d="M54.7605 36.3495C55.8861 35.4831 57.0876 34.6823 58.3518 34.0365C57.2537 34.9276 56.0265 35.7113 54.7605 36.3495Z" fill="black"/>
<path d="M49.0254 41.1097C52.0928 38.6569 55.4306 36.4942 58.8235 34.5388C57.8042 35.4281 56.5201 35.9626 55.4847 36.8385C53.1965 37.9826 51.2775 39.86 49.0254 41.1097Z" fill="black"/>
<path d="M58.8879 36.0499C59.1527 35.6695 59.5656 35.4336 59.9794 35.2472C59.6889 35.601 59.3055 35.8692 58.8879 36.0499Z" fill="black"/>
<path d="M55.8765 37.2246C56.5845 36.6263 57.3617 36.0861 58.1912 35.6696C57.5041 36.2897 56.7183 36.8375 55.8765 37.2246Z" fill="black"/>
<path d="M48.0449 41.0973C50.0275 39.4034 52.1344 37.7276 54.471 36.5474C52.2303 37.9159 50.2316 39.665 48.0449 41.0973Z" fill="black"/>
<path d="M53.3445 38.8832C54.0088 38.284 54.806 37.8246 55.5947 37.4033C54.9342 38.0101 54.1388 38.4771 53.3445 38.8832Z" fill="black"/>
<path d="M47.8108 42.7056C48.9364 41.7992 50.191 40.9785 51.422 40.2338C50.3372 41.2029 49.073 41.9875 47.8108 42.7056Z" fill="black"/>
<path d="M46.4316 42.832C47.1491 42.2528 47.9568 41.7716 48.7474 41.298C48.1153 41.9789 47.2687 42.445 46.4316 42.832Z" fill="black"/>
<path d="M48.3447 43.1555C48.6636 42.8616 49.0423 42.6419 49.4409 42.4764C49.1704 42.8302 48.7566 43.0204 48.3447 43.1555Z" fill="black"/>
<path d="M44.1936 43.4627C44.5894 43.0375 45.1218 42.7636 45.6533 42.5525C45.2404 42.9557 44.7118 43.2201 44.1936 43.4627Z" fill="black"/>
<path d="M43.5786 45.3248C44.2259 44.7551 44.9823 44.2795 45.7643 43.92C45.1246 44.503 44.353 44.9462 43.5786 45.3248Z" fill="black"/>
<path d="M45.8328 44.6648C46.1023 44.312 46.499 44.0847 46.927 43.9829C46.61 44.2777 46.2342 44.505 45.8328 44.6648Z" fill="black"/>
<path d="M41.8503 45.0689C42.2499 44.6228 42.7738 44.3033 43.3015 44.0322C42.9029 44.4783 42.4017 44.8397 41.8503 45.0689Z" fill="black"/>
<path d="M36.5748 45.1668C38.3287 45.0917 40.1215 46.0789 40.8323 47.7205C41.8972 49.8033 40.6235 52.4748 38.5489 53.3403C36.3926 54.3817 33.3746 53.3546 32.6457 50.976C31.447 48.3453 33.7609 45.1402 36.5748 45.1668Z" fill="black"/>
<path d="M54.6171 50.162C55.7389 50.744 57.1407 52.5273 55.6962 53.5307C56.4194 54.7756 56.482 56.8518 55.067 57.626C53.893 58.1472 52.1144 56.9754 52.1514 55.8342C52.9534 56.265 53.9357 57.8999 55.1087 57.0506C55.9012 56.0871 56.0739 54.2383 55.0622 53.3947C55.1277 52.9439 55.9373 52.9515 55.8205 52.4189C55.7617 51.5125 54.9711 50.9428 54.6171 50.162Z" fill="black"/>
<path d="M28.275 51.835C28.815 52.0775 29.1311 52.7109 29.4111 53.2273C29.4851 53.2359 29.635 53.253 29.7091 53.2616C29.6464 53.5031 29.7204 53.7276 29.8533 53.9292C29.952 53.9159 30.1513 53.8893 30.25 53.876C30.2054 53.9501 30.1153 54.0976 30.0697 54.1717C30.1542 54.2925 30.2377 54.4143 30.325 54.536C30.4645 54.4713 30.6069 54.4085 30.7492 54.3477C30.6505 54.4666 30.5518 54.5845 30.4512 54.7015C30.7635 55.3501 31.3424 54.3315 31.8055 54.3087C31.5265 54.6701 31.1222 54.8917 30.7464 55.1352C31.1051 55.7933 31.4705 56.4486 31.8169 57.1143C31.3747 57.3531 30.9419 57.6213 30.5926 57.9874C29.4215 56.4419 28.4943 54.731 27.4351 53.1094C26.9008 52.533 27.9856 52.2506 28.275 51.835Z" fill="black"/>
<path d="M29.207 52.5795C29.5924 52.1686 30.0944 51.8899 30.6116 51.6826C30.2605 52.1211 29.7556 52.4539 29.207 52.5795Z" fill="black"/>
<path d="M51.8584 58.0653C52.5655 58.9802 52.4838 61.1277 50.9796 61.1382C49.5769 61.0764 48.8717 59.5823 48.5139 58.4096C49.3975 59.0487 49.798 60.7835 51.1865 60.5457C52.0814 60.1034 51.717 58.8709 51.8584 58.0653Z" fill="black"/>
<path d="M46.9619 58.4619C47.7762 60.3593 47.5512 63.1982 45.7831 64.5402C44.538 65.3629 42.7433 63.7641 43.5614 62.445C43.6838 63.3837 44.5588 64.7047 45.6199 64.0152C47.1707 62.6476 46.9856 60.3431 46.9619 58.4619Z" fill="black"/>
<path d="M52.383 61.0459C53.0587 62.2547 52.6943 64.3984 51.3352 65.0832C51.9606 63.823 52.4504 62.4801 52.383 61.0459Z" fill="black"/>
<path d="M38.4993 64.1597C38.4671 63.086 39.4199 63.047 38.9691 64.155C38.8106 64.1578 38.655 64.1597 38.4993 64.1597Z" fill="black"/>
<path d="M40.4715 66.4508C42.14 66.4308 42.4551 64.504 43.1783 63.4131C43.4127 65.0356 42.1239 66.9767 40.3947 66.972C39.9125 66.9406 39.9714 66.3167 40.4715 66.4508Z" fill="black"/>
<path d="M48.7625 63.7051C49.4543 64.8635 48.8317 66.7818 47.4736 67.1736C48.2148 66.1474 48.6429 64.9671 48.7625 63.7051Z" fill="black"/>
<path d="M33.6565 64.3804C34.4784 65.6719 35.6457 66.8883 37.2942 66.914C35.7492 67.9697 33.7324 65.9668 33.6565 64.3804Z" fill="black"/>
<path d="M27.6342 66.1312C28.2995 67.3058 28.9487 68.6763 30.3353 69.1452C30.5792 69.2222 31.3612 69.5066 30.7965 69.6977C29.0559 69.5988 27.5602 67.8698 27.6342 66.1312Z" fill="black"/>
<path d="M30.9609 67.3629C31.723 68.0058 32.6617 68.3254 33.5367 68.76C32.4965 69.129 31.2627 68.3996 30.9609 67.3629Z" fill="black"/>
</svg>
