<svg width="80" height="80" viewBox="0 0 80 80" fill="none" xmlns="http://www.w3.org/2000/svg">
<rect width="80" height="80" fill="white"/>
<path d="M8.78364 76.6452C9.37084 76.1941 9.99345 75.8063 10.6105 75.4074C10.8398 75.2583 11.0728 75.1091 11.3449 75.0476C11.5108 75.0103 11.4847 74.9376 11.412 74.837C10.8304 74.0391 10.5732 73.0996 10.26 72.1862C9.92262 71.2038 9.93194 70.1841 9.96549 69.1607C10.0046 67.9323 10.1333 66.7206 10.4613 65.5295C10.5937 65.0485 10.7223 64.5713 10.9423 64.122C11.1119 63.7753 11.2555 63.4174 11.3692 63.0483C11.5724 62.3828 11.8632 61.7565 12.1689 61.132C12.9891 59.4599 13.1774 57.7058 12.7822 55.8808C12.6256 55.1631 12.5436 54.4286 12.4354 53.6998C12.4075 53.5134 12.428 53.3232 12.4895 53.1424C12.5044 53.0977 12.5193 53.0399 12.5846 53.0324C12.6591 53.025 12.702 53.079 12.7151 53.1331C12.8027 53.4873 13.0189 53.7837 13.1531 54.1155C13.4495 54.8481 13.8242 55.5303 14.2902 56.1735C14.6314 56.6469 14.773 57.2285 14.8718 57.8064C14.924 58.1121 14.9949 58.4104 15.1365 58.6882C15.3546 59.1169 15.323 59.5904 15.3658 60.0471C15.4833 61.2811 15.5746 62.5264 15.0769 63.6989C14.6314 64.7484 14.2455 65.8184 13.8466 66.8828C13.0823 68.924 12.5603 71.0193 12.6163 73.2208C12.6274 73.6905 12.6722 74.1622 12.9089 74.589C12.9593 74.6823 13.0059 74.7438 13.1233 74.7177C13.4011 74.6562 13.6844 74.6543 13.9677 74.6599C14.1243 74.6636 14.1318 74.5928 14.1076 74.4697C13.8335 73.0362 13.9528 71.6083 14.2921 70.214C14.5754 69.0508 15.0377 67.9379 15.5187 66.8399C15.7331 66.3534 15.9456 65.8687 16.0854 65.3542C16.2065 64.9068 16.3836 64.48 16.5272 64.04C16.8515 63.052 17.0473 62.0342 17.0007 60.9885C16.9671 60.2205 16.9727 59.4468 16.777 58.6937C16.7714 58.6695 16.7527 58.6378 16.7621 58.621C16.7751 58.595 16.8254 58.5577 16.8292 58.5614C16.982 58.6956 17.0547 58.2855 17.2896 58.539C17.9719 59.2754 18.3615 60.131 18.5758 61.0947C18.7138 61.7155 18.8424 62.3325 18.8331 62.9719C18.8126 64.178 18.9263 65.3878 18.7324 66.5901C18.5292 67.8503 18.3205 69.1011 17.9141 70.324C17.5674 71.3679 17.2318 72.4285 17.1237 73.5358C17.0696 74.082 17.0845 74.6301 17.1628 75.1762C17.1852 75.3254 17.2523 75.413 17.3865 75.4876C17.998 75.8361 18.6597 76.0319 19.3439 76.1605C19.4091 76.1735 19.4762 76.2034 19.5545 76.1568C19.3811 75.6777 19.2246 75.1893 19.027 74.7195C18.7119 73.9739 18.628 73.1984 18.6765 72.4043C18.7156 71.7724 18.7287 71.1367 18.8927 70.5178C19.0176 70.0443 19.1519 69.5764 19.4389 69.1682C19.4688 69.1272 19.4967 69.0806 19.5116 69.0321C19.7912 68.1392 20.3542 67.4178 20.919 66.6945C21.3235 66.1763 21.7784 65.7196 22.3339 65.3654C22.3563 65.3524 22.3768 65.3375 22.3991 65.3263C22.5073 65.2629 22.6452 65.1734 22.7421 65.2592C22.8503 65.3542 22.7328 65.481 22.6769 65.5817C22.1251 66.5845 21.8623 67.6713 21.6554 68.7917C21.4484 69.9083 21.4018 71.0249 21.4745 72.1415C21.5361 73.094 21.6945 74.0447 22.1046 74.9339C22.3003 75.3608 22.4569 75.8045 22.6713 76.2239C22.7384 76.3544 22.8055 76.401 22.9416 76.3879C24.0321 76.2835 25.1226 76.1829 26.0994 75.6087C26.187 75.5565 26.284 75.5192 26.3753 75.4745C26.4648 75.4316 26.5524 75.4354 26.5934 75.5323C26.6288 75.618 26.5654 75.6758 26.4946 75.715C26.0901 75.9368 25.6949 76.1773 25.2792 76.3767C23.7096 77.1336 22.0524 77.1914 20.3598 76.9714C19.0736 76.8036 17.8526 76.4644 16.7285 75.7877C16.2699 75.5118 15.72 75.4242 15.1943 75.2993C13.9267 75.001 12.6964 75.2154 11.4717 75.5304C11.3412 75.564 11.2144 75.6274 11.097 75.6963C9.82009 76.442 8.64011 77.3162 7.53842 78.3024C7.09289 78.7013 6.60822 79.0573 6.29319 79.5812C6.25777 79.6389 6.19812 79.7023 6.12542 79.652C6.06017 79.6072 6.08627 79.5271 6.11423 79.4637C6.26523 79.1319 6.48892 78.8541 6.75176 78.6025C6.89343 78.4664 7.09662 78.3285 7.12831 78.1626C7.16559 77.9706 6.88411 77.9128 6.75176 77.7823C6.36962 77.4057 6.13847 76.9453 5.94646 76.4532C5.37418 74.9805 5.33503 73.478 5.55313 71.9271C5.747 70.5458 6.00425 69.1701 6.06949 67.772C6.13287 66.4112 5.87563 65.1305 5.06474 63.999C4.97712 63.8778 4.87087 63.7623 4.91561 63.5815C4.94916 63.4454 5.00136 63.3895 5.12252 63.4715C5.72836 63.8834 6.39944 64.2115 6.80955 64.8658C7.02206 65.2051 7.30167 65.4996 7.52164 65.8389C8.09019 66.7169 8.34744 67.6956 8.50589 68.7078C8.72213 70.0891 8.70721 71.4629 8.44437 72.8461C8.15544 74.3113 8.29897 75.523 8.78364 76.6452ZM22.278 65.6711C22.2575 65.6842 22.2351 65.6972 22.2146 65.7103C22.1549 65.7587 22.0897 65.7998 22.0356 65.8538C21.1185 66.7728 20.2703 67.7403 19.8509 69.0042C19.8024 69.1496 19.7279 69.2875 19.6514 69.4199C19.5042 69.6752 19.4203 69.9511 19.3401 70.2308C19.1425 70.9149 19.1258 71.6158 19.1071 72.3167C19.0866 73.0381 19.1313 73.7539 19.4408 74.4287C19.7055 75.0029 19.9609 75.5808 20.2107 76.1624C20.2554 76.2649 20.302 76.3078 20.4101 76.3152C20.9134 76.3581 21.4186 76.3786 21.9238 76.3842C22.0692 76.3861 22.127 76.3767 22.0431 76.2052C21.1166 74.3038 20.837 72.285 21.0588 70.2047C21.2229 68.663 21.5528 67.1494 22.2761 65.7531C22.2854 65.7345 22.2966 65.7159 22.3059 65.6972C22.3115 65.6786 22.3264 65.645 22.3208 65.6413C22.2966 65.6264 22.2854 65.6488 22.278 65.6711ZM5.63143 64.1873C5.61465 64.1426 5.58669 64.1239 5.54008 64.1537C5.55873 64.178 5.5755 64.2003 5.59414 64.2246C6.33047 65.4008 6.57653 66.6889 6.49824 68.0572C6.42367 69.349 6.2093 70.6259 6.03967 71.9066C5.83461 73.4557 5.94833 74.9432 6.55043 76.3898C6.69956 76.7496 6.88598 77.0814 7.16373 77.3591C7.5235 77.7208 7.5235 77.7226 7.91124 77.3778C7.98207 77.3163 8.04918 77.2491 8.12748 77.1951C8.31762 77.0627 8.48166 76.936 8.23187 76.7067C8.18153 76.6601 8.17035 76.5687 8.14239 76.496C7.7211 75.4074 7.69873 74.2759 7.88887 73.1518C8.08646 71.9812 8.23373 70.8179 8.17035 69.6305C8.12748 68.8494 8.01004 68.0814 7.80126 67.3302C7.50486 66.2639 6.82632 65.4176 6.15897 64.5713C6.02662 64.4054 5.86444 64.2376 5.63143 64.1873ZM16.1077 66.5212C16.0481 66.5883 16.0183 66.6684 16.0034 66.756C15.748 67.209 15.569 67.6937 15.418 68.1895C15.4068 68.225 15.3975 68.2622 15.3863 68.2977C15.2614 68.5829 15.1626 68.8755 15.0788 69.1757C15.0042 69.3043 14.9501 69.4404 14.924 69.5858C14.6985 70.0723 14.6388 70.5961 14.5829 71.1199C14.5587 71.1721 14.5512 71.2262 14.568 71.2821C14.5326 71.3828 14.5177 71.4853 14.5233 71.5897C14.5214 71.6232 14.5177 71.6587 14.5158 71.6922C14.3331 72.5907 14.4487 73.4799 14.5997 74.3672C14.6183 74.5425 14.5997 74.7494 14.8793 74.7139C15.0452 74.7643 15.2148 74.7848 15.3882 74.7922C15.4236 74.7997 15.4609 74.8072 15.4963 74.8127C15.6305 74.8407 15.7648 74.8687 15.9008 74.8985C15.9884 74.9227 16.0779 74.947 16.1655 74.9712C16.2811 75.0234 16.3967 75.0756 16.5253 75.0886C16.585 75.111 16.5812 75.0737 16.5756 75.0346C16.5645 74.2255 16.5533 73.4165 16.7285 72.6187C16.7676 72.5553 16.7882 72.4882 16.7844 72.4136C16.9522 71.9569 17.079 71.4909 17.1535 71.01C17.1628 70.982 17.174 70.9522 17.1833 70.9242C17.3101 70.5066 17.4387 70.0872 17.5655 69.6697C17.627 69.5839 17.6568 69.487 17.6643 69.3807C17.7705 69.1104 17.847 68.8327 17.8731 68.5419C17.8824 68.5139 17.8898 68.4859 17.8992 68.458C17.9551 68.2548 17.9961 68.0497 18.0091 67.8391C18.0203 67.7738 18.0334 67.7086 18.0446 67.6434C18.1415 67.1978 18.231 66.7523 18.272 66.2975C18.2776 66.2471 18.2832 66.1949 18.2888 66.1446C18.3018 66.0868 18.3242 66.029 18.326 65.9713C18.4081 64.0326 18.5087 62.0939 17.9364 60.1962C17.7631 59.6202 17.394 59.1933 17.0305 58.6788C17.2318 59.8868 17.3753 61.0351 17.2803 62.2001C17.2337 62.2579 17.2337 62.3232 17.2449 62.3903C17.1684 62.7109 17.1293 63.039 17.092 63.3671C17.0603 63.4677 17.0249 63.5665 17.0342 63.6747C17.01 63.7567 16.9839 63.8406 16.9597 63.9226C16.9503 63.9599 16.941 63.9971 16.9298 64.0344C16.7993 64.3308 16.6763 64.6291 16.6036 64.9441C16.557 65.0299 16.529 65.1193 16.5272 65.2163C16.4526 65.4717 16.378 65.727 16.3035 65.9806C16.2532 66.0607 16.2196 66.1483 16.2103 66.2434C16.1581 66.3292 16.1171 66.4186 16.1077 66.5212ZM12.922 54.4454C12.8288 54.5088 12.8623 54.561 12.8698 54.6057C12.9574 55.0774 13.032 55.5509 13.1419 56.0169C13.5856 57.8866 13.3358 59.6743 12.5156 61.3893C12.2565 61.9317 12.0123 62.476 11.8333 63.0483C11.7308 63.3745 11.6227 63.7026 11.4792 64.0121C10.9125 65.2331 10.6384 66.5286 10.5396 67.8577C10.4613 68.8979 10.357 69.9493 10.5378 70.9857C10.7671 72.3018 11.2368 73.5377 11.9415 74.6841C12.0831 74.9134 12.2472 74.8538 12.3963 74.8016C12.5492 74.7475 12.3832 74.6189 12.3926 74.5201C12.3982 74.4716 12.3739 74.4213 12.3627 74.371C12.1167 73.15 12.208 71.9252 12.4149 70.7173C12.6685 69.2428 12.9816 67.7757 13.6061 66.3981C13.7254 66.1334 13.8112 65.8538 13.9062 65.5779C14.0274 65.2219 14.115 64.8491 14.3014 64.521C15.0284 63.231 15.1291 61.8404 14.9837 60.4087C14.9129 59.7227 14.9054 59.0218 14.5531 58.3918C14.4804 58.2631 14.4711 58.0954 14.4412 57.9462C14.3014 57.2714 14.1131 56.619 13.6676 56.0672C13.567 55.9442 13.5054 55.7857 13.4402 55.6366C13.265 55.2451 13.0431 54.8723 12.922 54.4454ZM12.894 54.3634C12.8791 54.3336 12.8679 54.2926 12.8586 54.2926C12.812 54.2926 12.8213 54.3336 12.8269 54.3615C12.8306 54.3821 12.8511 54.4007 12.8623 54.4193C12.8735 54.4007 12.8828 54.3802 12.894 54.3634Z" fill="#303440"/>
<path d="M59.4485 65.4735C59.0533 65.4362 58.6581 65.4027 58.2629 65.3617C56.7269 65.2051 55.1871 65.1436 53.6455 65.1865C51.8727 65.2349 50.1018 65.3225 48.3402 65.535C47.3876 65.6487 46.4463 65.8296 45.5366 66.1446C45.1638 66.2732 44.804 66.4373 44.4908 66.6796C44.1236 66.9648 44.1273 67.2053 44.5095 67.4663C45.0016 67.7999 45.5739 67.9248 46.1443 68.0404C47.4939 68.3126 48.864 68.3554 50.2342 68.389C52.555 68.4449 54.8758 68.5027 57.1966 68.3965C58.522 68.3368 59.8474 68.266 61.1429 67.9416C61.3927 67.8801 61.6332 67.7888 61.8606 67.6676C62.0116 67.5874 62.1533 67.4905 62.2707 67.3619C62.679 66.9126 62.6305 66.5715 62.0862 66.3105C61.3871 65.9768 60.6359 65.8109 59.8754 65.6804C59.6498 65.6413 59.4224 65.6226 59.2005 65.5947C59.1931 65.5779 59.1912 65.5705 59.1875 65.563C59.1912 65.5686 59.1949 65.5798 59.1987 65.5798C60.0916 65.5854 60.9752 65.6655 61.8327 65.9302C62.0787 66.0067 62.3136 66.111 62.5149 66.277C62.8132 66.5212 62.8784 66.7933 62.72 67.1438C62.5615 67.4961 62.2912 67.7347 61.952 67.9062C61.3443 68.21 60.6862 68.3219 60.0245 68.4039C57.2525 68.7506 54.4676 68.6835 51.6844 68.6369C50.4858 68.6164 49.2853 68.6034 48.0904 68.5083C47.0409 68.4244 45.9952 68.3014 44.996 67.9379C44.722 67.8372 44.4573 67.7142 44.241 67.511C43.9521 67.2388 43.9409 66.948 44.2112 66.6572C44.4684 66.3832 44.804 66.2229 45.1433 66.0812C46.0828 65.6879 47.0763 65.494 48.0774 65.3747C50.3162 65.1082 52.5662 64.9926 54.8199 65.0168C56.2664 65.0317 57.7092 65.1361 59.139 65.3654C59.2453 65.3822 59.3478 65.4139 59.4522 65.4381C59.4522 65.4511 59.4503 65.4623 59.4485 65.4735Z" fill="#303440"/>
<path d="M70.1001 16.2758C70.0982 17.4502 69.1792 18.3617 67.8911 18.4698C66.6887 18.5705 65.5647 17.7354 65.3447 16.5535C65.231 15.944 65.3727 15.3717 65.7623 14.8889C66.3849 14.1209 67.2181 13.858 68.1707 14.0258C69.0841 14.1861 69.7067 14.7286 70.0087 15.6177C70.0795 15.8302 70.1019 16.0521 70.1001 16.2758ZM67.6599 14.2718C66.5303 14.2681 65.6187 15.1163 65.6169 16.1695C65.6169 17.2376 66.5284 18.1082 67.6543 18.1194C68.7728 18.1306 69.716 17.2432 69.7104 16.1882C69.7049 15.1592 68.756 14.2737 67.6599 14.2718Z" fill="#303440"/>
<path d="M45.3558 78.2408C44.036 78.2314 42.7274 78.0972 41.4263 77.8698C41.3592 77.8586 41.2939 77.8381 41.2268 77.8195C41.0609 77.771 40.8764 77.7225 40.8484 77.5212C40.8223 77.3273 40.9752 77.2099 41.115 77.113C41.5773 76.7942 42.1197 76.6935 42.6529 76.578C44.0864 76.2685 45.546 76.166 47.0056 76.0672C47.6878 76.0206 48.372 75.9889 49.058 76.0094C49.7197 76.0299 50.3274 76.2704 50.9426 76.481C51.0209 76.5071 51.0917 76.563 51.1588 76.6171C51.4161 76.8222 51.4272 77.0645 51.1886 77.2882C51.0171 77.4485 50.8065 77.5417 50.5847 77.6163C49.8166 77.8717 49.0188 77.9723 48.2191 78.0581C47.2721 78.1606 46.3158 78.2408 45.3558 78.2408ZM45.1713 78.032C46.7278 78.0021 48.1427 77.894 49.5464 77.6461C50.0254 77.5622 50.5082 77.4727 50.9333 77.2118C51.2296 77.0309 51.2241 76.8669 50.9277 76.6842C50.8773 76.6525 50.8233 76.6246 50.7692 76.6003C50.072 76.2983 49.345 76.1175 48.5845 76.1213C48.0029 76.1231 47.4213 76.1753 46.8415 76.2163C45.5273 76.3095 44.2131 76.4121 42.9213 76.6879C42.3621 76.8072 41.7935 76.9079 41.2921 77.208C41.1802 77.2751 41.0162 77.3534 41.046 77.5007C41.074 77.6331 41.2473 77.6386 41.3703 77.661C42.6715 77.8978 43.9838 78.0077 45.1713 78.032Z" fill="#303440"/>
<path d="M64.4016 52.4974C65.2237 52.5347 65.8873 52.8833 66.3124 53.6178C66.9275 54.6822 66.4503 55.9777 65.3001 56.4083C64.3047 56.7793 63.1266 56.3897 62.5785 55.4949C62.1908 54.863 62.133 54.1956 62.5058 53.5469C62.9141 52.8348 63.5721 52.5161 64.4016 52.4974ZM64.4016 56.1791C65.7233 56.2052 66.5528 54.9525 65.9656 53.8228C65.5443 53.0157 64.5396 52.5906 63.6672 52.8535C62.737 53.135 62.2747 54.0894 62.6307 54.9972C62.9066 55.7018 63.6001 56.1641 64.4016 56.1791Z" fill="#303440"/>
<path d="M40.8038 69.0581C40.6341 68.991 40.4775 69.0432 40.3881 68.9705C41.1151 68.9798 41.8682 69.1065 42.6082 69.3265C42.6977 69.3526 42.7872 69.388 42.8711 69.429C43.2327 69.608 43.2588 69.854 42.9251 70.0815C42.4628 70.3965 41.9297 70.5289 41.3928 70.6407C39.7338 70.9856 38.071 71.0862 36.4063 70.6705C36.2311 70.6277 36.0577 70.5792 35.9011 70.4878C35.5917 70.3089 35.5749 70.1057 35.8695 69.9025C36.2497 69.6415 36.6934 69.5316 37.1352 69.4346C38.2276 69.1904 39.3404 69.1699 40.4514 69.1252C40.5447 69.1214 40.6397 69.1196 40.7329 69.114C40.7441 69.1121 40.7553 69.0954 40.8038 69.0581ZM38.4382 70.732C39.6462 70.7209 40.664 70.6127 41.665 70.3574C42.021 70.266 42.3734 70.1579 42.6958 69.9771C42.7909 69.923 42.9214 69.8671 42.9214 69.7534C42.9214 69.6285 42.776 69.5949 42.6772 69.5577C42.4125 69.4589 42.1441 69.3712 41.8756 69.2911C41.6799 69.2314 41.473 69.1252 41.2828 69.1476C40.3825 69.2557 39.4728 69.2333 38.5743 69.334C37.782 69.4234 36.9972 69.5446 36.2591 69.8634C36.095 69.9342 35.8452 70.0106 35.8527 70.1747C35.8601 70.3723 36.1267 70.4021 36.3019 70.4468C37.0625 70.6407 37.8305 70.747 38.4382 70.732Z" fill="#303440"/>
<path d="M69.7718 71.7573C69.0653 71.7703 68.3849 71.7069 67.7157 71.5448C67.5404 71.5019 67.3708 71.446 67.2142 71.3546C66.7762 71.0992 66.7351 70.7078 67.1247 70.3797C67.4342 70.1168 67.8182 70.0181 68.2059 69.9435C68.8975 69.8111 69.6003 69.8055 70.2975 69.731C70.9685 69.6601 71.5968 69.8111 72.225 69.992C72.5083 70.0721 72.8122 70.1951 72.8513 70.5251C72.8904 70.8625 72.65 71.0936 72.3927 71.2763C71.9882 71.5615 71.511 71.6324 71.0338 71.692C70.6069 71.7442 70.18 71.7666 69.7718 71.7573ZM69.7326 71.5578C70.3664 71.5466 70.9984 71.5261 71.6191 71.3789C71.964 71.2968 72.2902 71.1719 72.5232 70.883C72.7395 70.6127 72.7115 70.4244 72.4076 70.2641C72.0031 70.0516 71.5707 69.9248 71.1121 69.8988C70.2117 69.8466 69.3169 69.9342 68.4278 70.0702C68.0065 70.1336 67.5814 70.2231 67.2422 70.512C66.9458 70.7656 66.9737 71.0079 67.3186 71.1906C67.4379 71.254 67.5703 71.3006 67.7008 71.336C68.3644 71.5112 69.0466 71.5578 69.7326 71.5578Z" fill="#303440"/>
<path d="M16.779 79.2622C16.3055 79.2678 15.7425 79.2343 15.1926 79.0945C15.0174 79.0497 14.7862 79.0311 14.7695 78.7925C14.7527 78.5502 14.9708 78.4681 15.1497 78.3992C15.6586 78.1997 16.2011 78.1102 16.7249 77.9611C17.0232 77.8772 17.3158 77.8623 17.6178 77.8604C17.9515 77.8567 18.2479 77.9779 18.5368 78.1195C18.7475 78.2221 18.8985 78.3992 18.8798 78.6471C18.8612 78.9006 18.6673 79.0274 18.4436 79.0963C17.931 79.2548 17.4016 79.2641 16.779 79.2622ZM16.7827 79.0497C17.3047 79.0479 17.8266 79.0441 18.3318 78.8932C18.4697 78.8521 18.6245 78.8111 18.6375 78.6303C18.6506 78.4625 18.5368 78.3544 18.4064 78.2892C18.0186 78.0972 17.6365 77.907 17.1667 78.0114C16.4826 78.1643 15.8022 78.3171 15.1516 78.5837C15.0659 78.6191 14.9503 78.6676 14.9559 78.7645C14.9615 78.8727 15.0901 78.8745 15.1777 78.8969C15.7053 79.0292 16.244 79.0516 16.7827 79.0497Z" fill="#303440"/>
<path d="M55.9979 73.4984C55.4927 73.4705 54.995 73.394 54.5327 73.1741C54.3612 73.092 54.1748 72.9895 54.1748 72.7751C54.1748 72.544 54.3556 72.421 54.5476 72.3278C54.7266 72.2401 54.9205 72.2047 55.1162 72.1805C55.5151 72.132 55.9066 72.1078 56.2999 72.2457C56.7473 72.4005 56.9766 72.6316 56.9356 72.9336C56.889 73.2691 56.5832 73.4816 56.1265 73.4966C56.0837 73.4984 56.0408 73.4984 55.9979 73.4984ZM55.5319 72.311C55.0472 72.3035 54.6856 72.3986 54.4936 72.557C54.3239 72.6987 54.3109 72.8236 54.4898 72.9187C55.0789 73.2337 55.7071 73.3567 56.3707 73.2505C56.5497 73.2225 56.6876 73.1181 56.7212 72.9224C56.7529 72.736 56.6448 72.6223 56.5049 72.5198C56.1843 72.283 55.8432 72.1525 55.5319 72.311Z" fill="#303440"/>
<path d="M35.8433 10.1837C35.8675 13.0805 33.4572 15.5132 30.5455 15.5337C27.6859 15.5524 25.3278 13.252 25.3409 10.3813C25.3539 7.15266 27.9339 5.05553 30.6182 4.97164C33.4964 4.87844 35.8191 7.25891 35.8433 10.1837ZM30.5492 14.9652C33.2093 14.9614 35.3213 12.8028 35.3139 10.0719C35.3102 8.79867 34.846 7.69884 33.9717 6.7761C32.7917 5.53088 31.2911 5.17856 29.6582 5.35378C28.7187 5.45445 27.9096 5.93539 27.2348 6.60274C26.286 7.54412 25.7771 8.68869 25.7734 10.029C25.7678 12.7991 27.8723 14.967 30.5492 14.9652Z" fill="#303440"/>
<path d="M32.0626 6.81166C32.7244 6.83775 33.3097 7.01857 33.6713 7.62814C33.964 8.12027 34.0348 8.6329 33.7161 9.13434C33.3954 9.63765 32.8959 9.79983 32.331 9.70476C31.6525 9.59105 31.1511 9.21264 30.8808 8.57138C30.5079 7.68406 31.1007 6.80793 32.0626 6.81166ZM32.538 9.28347C33.1214 9.29279 33.511 8.8976 33.4961 8.35701C33.4831 7.81828 32.715 7.06331 32.1838 7.03349C31.4307 6.99248 30.9497 7.58154 31.1716 8.30108C31.3449 8.85845 31.9228 9.27229 32.538 9.28347Z" fill="#303440"/>
<path d="M26.9642 10.3367C27.0946 10.5865 27.0723 10.8157 27.1226 11.0301C27.542 12.8122 29.6373 14.1674 31.3523 13.7573C31.5014 13.7219 31.6431 13.6604 31.7866 13.6063C31.8873 13.569 32.0103 13.4777 32.0756 13.625C32.1464 13.7834 31.9917 13.8226 31.8854 13.8673C31.4604 14.0425 31.0149 14.1301 30.5563 14.1078C28.8786 14.0295 27.3034 12.7116 26.9343 11.073C26.8859 10.8512 26.8262 10.6107 26.9642 10.3367Z" fill="#303440"/>
<path d="M33.9659 9.99182C34.2622 9.99182 34.471 10.195 34.4692 10.4839C34.4654 10.8344 34.1429 11.1513 33.7906 11.1494C33.483 11.1476 33.2817 10.9556 33.2855 10.6629C33.2892 10.333 33.634 9.99182 33.9659 9.99182ZM33.5446 10.6126C33.5427 10.7542 33.6061 10.8381 33.7552 10.84C33.9342 10.8419 34.1467 10.6443 34.1485 10.4709C34.1485 10.3255 34.0702 10.2565 33.9248 10.2547C33.7161 10.2491 33.5483 10.4057 33.5446 10.6126Z" fill="#303440"/>
<path d="M32.9089 13.2894C32.9014 13.3528 32.8735 13.4012 32.7989 13.3994C32.7393 13.3975 32.7094 13.3528 32.7057 13.2987C32.702 13.2428 32.7244 13.1999 32.7859 13.1887C32.8604 13.1775 32.8921 13.2223 32.9089 13.2894Z" fill="#303440"/>
<path d="M33.2874 12.8776C33.3545 12.885 33.4179 12.8999 33.4067 12.9764C33.3974 13.0397 33.3433 13.077 33.28 13.0752C33.2259 13.0733 33.183 13.0416 33.1812 12.982C33.1812 12.9093 33.224 12.8776 33.2874 12.8776Z" fill="#303440"/>
<path d="M54.7899 53.8842C56.6801 53.9103 58.2422 55.0866 58.8313 56.9246C59.5434 59.1522 58.5461 61.6408 56.4918 62.7612C53.9044 64.1723 50.7914 62.6959 50.2116 59.7823C49.768 57.551 50.9163 55.2786 52.9705 54.3205C53.7124 53.9756 54.1337 53.8749 54.7899 53.8842ZM54.4171 62.9084C54.7097 62.9122 55.0639 62.8656 55.4125 62.7649C58.177 61.9633 59.4912 58.5893 58.0036 56.1007C56.7435 53.9905 54.1076 53.6363 52.2938 54.9431C50.6124 56.1547 49.9674 58.3935 50.7093 60.3285C51.3114 61.8981 52.7561 62.9233 54.4171 62.9084Z" fill="#303440"/>
<path d="M57.2486 56.2238C57.2523 56.9079 56.7117 57.4727 56.0499 57.4764C55.4348 57.4783 54.9389 56.975 54.9315 56.3412C54.924 55.6216 55.6119 55.0866 56.1133 55.0773C56.7378 55.0661 57.2448 55.5825 57.2486 56.2238ZM56.8944 56.2946C56.8925 55.7559 56.5421 55.398 56.0201 55.398C55.5224 55.398 55.1645 55.7782 55.1645 56.3076C55.1663 56.8128 55.5448 57.2024 56.0294 57.1968C56.5029 57.1912 56.8962 56.783 56.8944 56.2946Z" fill="#303440"/>
<path d="M6.10123 55.3272C3.52502 55.3029 1.59567 53.2263 1.70565 50.5979C1.79699 48.415 3.39267 46.4465 5.52895 45.8407C8.36054 45.0391 11.414 47.0244 11.1716 50.529C10.9908 53.1723 8.65507 55.3514 6.10123 55.3272ZM6.21121 54.9935C6.43491 54.9991 6.73316 54.973 7.02769 54.9096C9.13042 54.451 10.6348 52.7864 10.8901 50.6035C11.2145 47.8316 8.80606 45.1566 5.51031 46.0308C3.47469 46.5696 2.14744 48.415 1.9573 50.2978C1.70006 52.8498 3.58468 55.001 6.21121 54.9935Z" fill="#303440"/>
<path d="M6.33602 47.9211C6.29501 47.196 6.96609 46.6927 7.52532 46.6517C8.40332 46.5864 9.23845 47.2072 9.38944 48.0386C9.52552 48.7935 9.12474 49.3957 8.3735 49.5597C7.37992 49.7778 6.33416 48.9352 6.33602 47.9211ZM8.04914 49.3304C8.79665 49.3379 9.26827 48.732 9.08186 48.0032C8.90663 47.319 8.17217 46.8027 7.4694 46.8716C6.89153 46.9276 6.52616 47.3451 6.54666 47.9267C6.56903 48.6649 7.27367 49.323 8.04914 49.3304Z" fill="#303440"/>
<path d="M9.15457 50.8608C8.86563 50.8571 8.61584 50.6036 8.62143 50.3165C8.62516 50.0444 8.91969 49.7517 9.18626 49.7573C9.46774 49.7629 9.70448 50.0257 9.69702 50.3221C9.6877 50.6129 9.43605 50.8646 9.15457 50.8608ZM9.47892 50.2886C9.45469 50.1021 9.33352 50.0015 9.12288 49.9922C8.91223 49.9828 8.82648 50.1077 8.82462 50.2904C8.82089 50.4917 8.94019 50.6055 9.14152 50.6166C9.33166 50.6297 9.47892 50.4955 9.47892 50.2886Z" fill="#303440"/>
<path d="M42.293 3.21946C42.2986 4.35657 41.5455 5.42285 40.44 5.846C39.3644 6.25611 38.1863 5.99699 37.4761 5.18983C36.5869 4.17948 36.6727 2.61922 37.6588 1.57532C38.8816 0.279756 40.6973 0.447526 41.6387 1.48397C42.0581 1.94814 42.2892 2.54838 42.293 3.21946ZM37.0772 3.45993C37.0902 3.59415 37.0884 3.75074 37.12 3.89987C37.3568 5.03511 38.3205 5.7472 39.5266 5.68569C40.9564 5.61112 42.1457 4.20558 41.909 2.79631C41.6107 1.03286 39.8211 0.453118 38.3578 1.26401C37.5283 1.72444 37.1145 2.48314 37.0772 3.45993Z" fill="#303440"/>
<path d="M41.2619 2.39929C41.26 2.86719 40.9114 3.22137 40.4566 3.22137C40.0148 3.22137 39.655 2.84855 39.655 2.39184C39.655 1.93886 40.039 1.56417 40.4976 1.56976C40.9319 1.57536 41.2638 1.93513 41.2619 2.39929ZM40.4305 1.77854C40.1397 1.76736 39.8974 2.01342 39.8862 2.33032C39.875 2.65468 40.1304 2.94548 40.4342 2.95294C40.7157 2.96039 40.9823 2.69942 40.9972 2.40116C41.0158 2.06748 40.7642 1.78973 40.4305 1.77854Z" fill="#303440"/>
<path d="M37.9254 2.56897C37.9943 2.63421 37.9291 2.69759 37.9161 2.75725C37.6886 3.83657 38.479 4.83014 39.5882 4.86369C39.728 4.86742 39.961 4.79845 39.9517 5.02401C39.9423 5.25889 39.7056 5.18246 39.5583 5.175C38.6076 5.12653 37.8005 4.3958 37.6774 3.48052C37.6327 3.13566 37.7427 2.72928 37.9254 2.56897Z" fill="#303440"/>
<path d="M41.0735 3.37231C41.2581 3.37231 41.4408 3.54754 41.4482 3.73022C41.4557 3.93155 41.2879 4.09559 41.0698 4.09932C40.8387 4.10491 40.6634 3.94087 40.6709 3.7265C40.6765 3.54008 40.8666 3.37231 41.0735 3.37231ZM41.1649 3.73395C41.1667 3.6482 41.1034 3.61092 41.0269 3.59228C40.9319 3.56805 40.8759 3.62024 40.8666 3.70413C40.8592 3.77683 40.9095 3.82716 40.9859 3.84021C41.0698 3.85139 41.1369 3.83648 41.1649 3.73395Z" fill="#303440"/>
<path d="M16.7568 35.2672C16.0652 35.916 15.1928 36.1881 14.3129 36.4491C13.118 36.8051 11.8877 36.9785 10.6574 37.1481C10.1131 37.2227 9.58368 37.37 9.06173 37.534C8.79702 37.6179 8.55842 37.7596 8.36268 37.9534C7.97868 38.3374 7.5201 38.6264 7.10814 38.9731C6.97765 39.0831 6.89749 39.0868 6.71108 38.9638C6.23387 38.6469 5.93747 38.1492 5.44721 37.8472C5.0166 37.5825 4.6997 37.1705 4.46669 36.7119C4.33061 36.4435 4.17216 36.19 3.98574 35.9532C3.81611 35.737 3.67071 35.5003 3.57937 35.2411C3.25688 34.3221 2.91015 33.418 2.73865 32.4431C2.50937 31.1438 2.49259 29.8501 2.64358 28.5546C2.79085 27.2926 3.0425 26.0361 3.57191 24.8804C4.08268 23.7638 4.74071 22.7255 5.52923 21.7599C6.50789 20.5594 7.75125 19.6982 9.0058 18.8574C9.90058 18.2572 10.965 17.9683 11.9772 17.5917C13.4312 17.0511 14.9337 16.8759 16.4734 16.9691C17.3813 17.025 18.2425 17.2618 19.0646 17.6514C19.4821 17.849 19.9351 17.9571 20.362 18.136C20.7423 18.2945 21.1132 18.4678 21.4898 18.6338C22.0509 18.8835 22.4162 19.357 22.8357 19.7709C23.0258 19.9573 23.2141 20.1418 23.4415 20.2854C23.6018 20.386 23.7528 20.5035 23.8665 20.6545C24.4463 21.4281 25.0577 22.183 25.5535 23.0126C26.2265 24.1385 26.7839 25.3297 27.0821 26.614C27.2555 27.3559 27.4382 28.096 27.5836 28.8435C27.6134 28.9982 27.632 29.0933 27.8147 28.9759C27.8986 28.9218 28.016 28.8696 28.1037 28.8864C28.4019 28.9442 28.4261 28.7373 28.4933 28.5434C29.9957 24.1888 32.4694 20.5072 36.261 17.849C41.3202 14.3034 46.8212 13.7274 52.6056 15.7891C55.8491 16.9449 58.6453 18.8425 61.1656 21.1671C62.4779 22.3769 63.6859 23.6836 64.7689 25.106C64.8211 25.1749 64.8584 25.2029 64.9553 25.1824C66.0048 24.955 66.6256 25.242 67.1382 26.1871C67.278 26.4444 67.3787 26.7184 67.4402 27.0036C67.4682 27.136 67.5204 27.2068 67.6583 27.2441C68.3778 27.438 69.0974 27.63 69.843 27.6989C70.0723 27.7194 70.2997 27.7716 70.5216 27.8332C70.954 27.9525 71.1405 28.2768 71.0398 28.7186C70.9224 29.2368 70.5775 29.6302 70.2848 30.0515C69.8505 30.6778 69.2465 31.0543 68.5046 31.2258C67.8447 31.3787 67.1904 31.5502 66.5324 31.7068C66.4354 31.7292 66.387 31.7664 66.3702 31.869C66.1875 32.9427 65.9321 33.9978 65.5313 35.0137C65.4586 35.1983 65.6078 35.1945 65.6954 35.2281C66.6479 35.5916 67.5893 35.9831 68.5027 36.4342C70.7248 37.5321 72.876 38.755 74.8836 40.2146C75.9294 40.9733 76.7738 41.9352 77.512 42.9772C78.4198 44.2597 78.0116 45.7566 76.7011 46.629C75.482 47.438 74.1286 47.7083 72.684 47.5984C72.6206 47.5928 72.5367 47.5536 72.4994 47.6301C72.464 47.7028 72.5404 47.7531 72.5814 47.8034C72.8033 48.0886 73.0083 48.3832 73.1388 48.7224C73.4911 49.634 73.191 50.4393 72.3223 50.8867C71.6736 51.2203 70.9708 51.3135 70.255 51.3266C68.9986 51.3471 67.7869 51.0861 66.5939 50.717C64.2227 49.9863 62.0249 48.9182 60.0807 47.3579C59.7265 47.0727 59.3872 46.7707 59.0983 46.4184C59.0069 46.3084 58.9436 46.2991 58.8336 46.3979C55.3775 49.4942 48.909 51.4888 43.0184 50.5959C42.5785 50.5287 42.5785 50.5287 42.7388 50.95C43.2645 52.3369 43.5628 53.7704 43.7231 55.245C43.833 56.2553 43.8424 57.2601 43.7883 58.2704C43.7771 58.4773 43.7473 58.6787 43.6839 58.8763C43.5702 59.236 43.354 59.4635 42.9718 59.5753C41.9056 59.8885 40.8542 59.95 39.7581 59.6685C38.7515 59.4094 37.7635 59.1093 36.783 58.7756C36.6133 58.7178 36.4344 58.6712 36.2797 58.5836C35.1985 57.9591 34.0688 57.4241 33.0976 56.6151C32.201 55.8694 31.3453 55.0809 30.4972 54.2831C30.4636 54.2514 30.4394 54.1861 30.376 54.2104C30.3182 54.2327 30.3275 54.2961 30.3238 54.3427C30.266 54.9579 30.0013 55.5078 29.813 56.0857C29.5409 56.9189 29.045 57.6534 28.8139 58.4997C28.799 58.5575 28.771 58.6115 28.7468 58.6656C28.2621 59.7282 27.5966 59.9761 26.521 59.5324C25.8238 59.2435 25.2273 58.839 24.7688 58.2331C24.5935 58.0001 24.3847 57.7969 24.1666 57.6031C24.0511 57.5005 23.9336 57.3924 23.8535 57.2657C22.4256 55.038 21.2586 52.7098 21.102 50.0031C21.007 48.331 21.1691 46.6905 21.6575 45.0762C22.0677 43.7154 22.5169 42.3695 22.9699 41.0236C23.1731 40.4215 23.229 39.784 23.2812 39.1521C23.2886 39.0551 23.3259 38.9153 23.242 38.8631C23.147 38.8035 23.065 38.9302 22.9811 38.9787C22.5318 39.2378 22.1758 39.6144 21.7657 39.9238C21.3406 40.2444 20.8951 40.5296 20.4049 40.744C20.17 40.8465 19.9426 40.9696 19.7207 41.0982C18.0691 42.0526 16.2814 42.3788 14.4024 42.1924C13.2523 42.0787 12.1599 41.7506 11.1961 41.0758C11.0433 40.9677 10.9016 40.8391 10.7637 40.7142C10.5642 40.5315 10.5512 40.4029 10.7189 40.181C11.0433 39.7523 11.5 39.4932 11.966 39.2546C12.24 39.1148 12.5215 38.9862 12.8123 38.8855C14.0669 38.4493 15.0903 37.6869 15.9739 36.7157C16.2535 36.4062 16.4455 36.0409 16.6226 35.6718C16.6822 35.5469 16.8071 35.4704 16.8295 35.3288C16.8705 35.2952 16.9246 35.271 16.9283 35.2076C17.0215 35.0883 17.0774 34.9522 17.124 34.749C17.0029 34.9261 16.9134 35.0585 16.8239 35.189C16.7997 35.215 16.7792 35.2411 16.7568 35.2672ZM11.198 40.4439C11.3285 40.5557 11.4627 40.6079 11.5932 40.6694C12.0592 40.8913 12.5774 40.9547 13.0453 41.1709C13.4331 41.3498 13.8469 41.4188 14.2682 41.4356C16.0149 41.5008 17.6758 41.1877 19.2044 40.2985C19.4709 40.1438 19.745 39.9965 20.0302 39.8847C20.6752 39.6311 21.2418 39.2546 21.788 38.8352C22.584 38.2256 23.4508 37.8099 24.4966 37.9758C24.6625 38.0019 24.8396 37.9851 24.9813 38.11C25.4827 38.5499 25.904 39.0495 26.1668 39.6721C26.398 40.2202 26.5732 40.7813 26.659 41.3704C26.8286 42.5485 27.0001 43.7266 27.1753 44.9047C27.4251 46.5806 27.8427 48.2061 28.5678 49.7495C29.2557 51.211 30.0889 52.5905 31.2335 53.7182C32.5477 55.0119 33.929 56.259 35.6365 57.0532C35.7913 57.1259 35.9348 57.2209 36.0783 57.3141C36.412 57.5304 36.7718 57.6851 37.1521 57.8007C37.6274 57.9461 38.0972 58.1138 38.5762 58.2369C39.7432 58.537 40.8989 58.9135 42.1367 58.7383C42.5263 58.6842 42.5487 58.6954 42.5748 58.3058C42.6531 57.0532 42.5822 55.8061 42.4089 54.5664C42.1926 53.0285 41.6912 51.5727 41.1245 50.1354C40.5112 48.5789 39.5307 47.2516 38.5296 45.9337C37.8455 45.0352 37.1166 44.1703 36.4866 43.2307C36.1566 42.7405 35.7875 42.2707 35.3644 41.8625C34.3186 40.8503 33.2412 39.8716 32.1842 38.8724C31.6268 38.3468 31.1459 37.7614 30.8215 37.0531C30.6258 36.6262 30.4282 36.1937 30.1486 35.8116C29.7944 35.3269 29.5465 34.7994 29.3768 34.2271C29.2296 33.7293 29.0208 33.254 28.6424 32.8886C28.0533 32.3145 27.5724 31.6676 27.2052 30.9332C26.9926 30.5063 26.6702 30.1167 26.5732 29.6507C26.4278 28.9554 26.2489 28.2656 26.1333 27.5647C25.8779 25.997 25.1882 24.6101 24.3978 23.2605C24.3754 23.2232 24.3512 23.1878 24.3232 23.1561C24.0306 22.8299 23.805 22.4552 23.5589 22.0935C23.339 21.7711 23.1619 21.4038 22.8357 21.1671C22.5355 20.949 22.2634 20.7048 22.0266 20.4196C21.6091 19.9163 21.117 19.5173 20.5018 19.2787C20.3732 19.2303 20.2464 19.1781 20.1234 19.1184C19.6294 18.878 19.0888 18.7549 18.6041 18.4958C17.9741 18.1621 17.2937 17.985 16.5927 17.9235C14.902 17.78 13.2597 18.0037 11.6827 18.6449C10.8438 18.9861 9.9565 19.2396 9.21086 19.769C8.02342 20.6116 6.83038 21.4523 5.96357 22.6565C5.93374 22.6975 5.89646 22.7348 5.86291 22.774C5.24961 23.4991 4.78918 24.3305 4.41076 25.1861C3.89627 26.3493 3.67071 27.6095 3.53276 28.8715C3.40414 30.057 3.41533 31.2426 3.65766 32.4245C3.89999 33.6156 4.20012 34.7733 4.91034 35.7855C5.00355 35.9178 5.07439 36.0669 5.1359 36.2161C5.27944 36.5609 5.48449 36.8685 5.74174 37.1332C6.12948 37.534 6.53212 37.918 6.83225 38.3934C6.89563 38.4959 6.94782 38.5108 7.04476 38.4101C7.31878 38.1268 7.60585 37.8584 7.88734 37.5825C8.14645 37.329 8.42793 37.1053 8.76906 36.9729C9.36931 36.7436 9.96582 36.5032 10.5996 36.3783C11.7852 36.1452 12.9559 35.8544 14.1209 35.5357C15.2543 35.2244 16.2908 34.7397 17.0774 33.8244C17.1371 33.7536 17.2135 33.6939 17.2918 33.6417C17.3682 33.5877 17.4558 33.5336 17.5509 33.5989C17.6311 33.6529 17.6385 33.7405 17.6292 33.83C17.6143 33.9829 17.6012 34.1376 17.5845 34.2904C17.5099 34.9708 17.1688 35.5506 16.9078 36.1639C16.5667 36.9655 16.0298 37.6086 15.4109 38.1939C15.0493 38.535 14.6392 38.783 14.1526 38.947C13.5654 39.1465 12.9652 39.3254 12.4097 39.6162C11.9697 39.8455 11.5857 40.1382 11.198 40.4439ZM28.8829 29.0113C28.9891 29.0336 29.0637 29.056 29.1382 29.0635C29.869 29.1511 30.5568 29.3431 31.1701 29.783C31.4702 29.9974 31.7387 30.2528 32.0388 30.4597C33.1815 31.2501 34.0632 32.2958 34.9319 33.3584C35.2898 33.7965 35.6515 34.2327 36.0933 34.5906C36.4735 34.9 36.8109 35.2505 37.1334 35.6177C37.6125 36.1639 38.0375 36.7623 38.6601 37.1686C40.377 38.2946 42.2206 39.111 44.2581 39.4391C45.4586 39.6311 46.6572 39.6908 47.8409 39.3012C48.32 39.1427 48.8233 39.0719 49.3285 39.0178C50.1822 38.9246 50.9838 38.6637 51.7238 38.2256C51.9979 38.0634 52.2831 37.9217 52.5851 37.8285C53.2897 37.6123 53.8825 37.2208 54.41 36.7138C54.6897 36.4454 55.0066 36.2273 55.3458 36.0409C55.892 35.7445 56.3804 35.3716 56.811 34.9242C57.0962 34.6279 57.4131 34.365 57.7132 34.0854C58.8317 33.0508 59.9651 32.0255 60.735 30.6797C60.8245 30.5249 60.9344 30.3795 61.0481 30.2416C61.859 29.248 62.5283 28.1668 63.0633 27.0036C63.2422 26.614 63.4025 26.217 63.6225 25.8479C63.7343 25.6596 63.6989 25.5272 63.5684 25.3688C62.0249 23.501 60.351 21.7655 58.4179 20.2947C55.8995 18.3784 53.1462 16.9449 50.0406 16.2402C46.8436 15.5151 43.6951 15.6325 40.6137 16.8069C37.825 17.8695 35.5098 19.6124 33.5208 21.8121C31.8897 23.6184 30.609 25.6615 29.4943 27.8126C29.293 28.2078 29.0916 28.6012 28.8829 29.0113ZM44.8043 44.5356C45.412 44.5673 45.9786 44.5804 46.5342 44.4443C47.2351 44.2728 47.949 44.1814 48.6611 44.0864C49.8355 43.9279 50.9931 43.7173 52.0594 43.1524C52.5086 42.9157 53.0064 42.8039 53.5041 42.7069C54.0447 42.6025 54.5312 42.3882 54.9711 42.0582C55.2377 41.8569 55.508 41.6481 55.8193 41.5288C57.0664 41.0516 57.9407 40.0636 58.9249 39.2397C59.5569 38.7103 60.0714 38.0392 60.6175 37.4147C60.9083 37.081 61.16 36.7101 61.4247 36.354C61.8199 35.8246 62.3176 35.3791 62.6699 34.818C63.3317 33.7666 64.0904 32.7824 64.8025 31.7646C65.563 30.6759 66.2043 29.5407 66.5864 28.26C66.8157 27.4902 66.6834 26.806 66.2341 26.1666C65.9377 25.7453 65.4176 25.5813 64.9367 25.7398C64.8491 25.7677 64.7876 25.8106 64.7466 25.8945C64.1258 27.1453 63.4529 28.3644 62.6792 29.5314C62.079 30.4373 61.3706 31.265 60.8133 32.2008C60.7779 32.2586 60.7275 32.307 60.6828 32.3592C59.5457 33.7275 58.1961 34.8832 56.9042 36.093C56.6414 36.3391 56.345 36.5498 56.03 36.7231C55.59 36.9636 55.2004 37.2637 54.8351 37.6048C54.3392 38.0653 53.7762 38.4157 53.1275 38.6227C52.7417 38.7438 52.3819 38.919 52.0221 39.1036C51.2336 39.51 50.4041 39.8064 49.5167 39.907C48.9873 39.9667 48.4616 40.0506 47.9546 40.209C46.8902 40.5445 45.8109 40.5203 44.7222 40.4085C42.791 40.209 41.0052 39.5696 39.3238 38.6208C38.3712 38.0839 37.4801 37.4706 36.8109 36.5759C36.55 36.2273 36.2685 35.8824 35.9404 35.5991C35.1649 34.9298 34.4808 34.1786 33.8395 33.3845C33.0249 32.376 32.1096 31.4663 31.1291 30.6181C30.596 30.1558 30.0088 29.8128 29.306 29.6786C29.0208 29.6246 28.7393 29.55 28.4746 29.4214C28.4131 29.3916 28.4131 29.2555 28.3013 29.3226C28.2062 29.3785 28.1558 29.4568 28.154 29.5742C28.1447 30.4672 28.2901 31.2836 29.0338 31.9081C29.6937 32.4618 30.0852 33.2055 30.3275 34.0295C30.4189 34.3426 30.5158 34.6558 30.7153 34.9205C31.1049 35.4369 31.4069 36.0054 31.6753 36.587C31.9512 37.1836 32.3557 37.672 32.8217 38.1193C33.0063 38.2964 33.2076 38.4586 33.3921 38.6376C34.0222 39.2415 34.6821 39.8138 35.2842 40.4495C36.0616 41.2716 37.0514 41.8252 37.9816 42.4497C38.5576 42.8374 39.169 43.1767 39.814 43.4283C41.4302 44.064 43.0799 44.5673 44.8043 44.5356ZM73.1761 46.5955C74.2256 46.5526 75.2918 46.3848 76.2463 45.751C77.0702 45.203 77.2958 44.3343 76.7142 43.5383C75.9778 42.528 75.1912 41.5549 74.1622 40.8111C70.9093 38.4549 67.3749 36.628 63.6113 35.2411C63.5349 35.2132 63.4864 35.2076 63.4379 35.2784C62.9868 35.9458 62.4164 36.5199 61.9653 37.1873C61.4937 37.8845 60.9699 38.5406 60.3603 39.1204C60.1963 39.277 60.1869 39.3963 60.3062 39.5771C60.8468 40.3898 61.4079 41.1895 62.0473 41.9277C62.545 42.5019 63.0763 43.0518 63.7082 43.4917C64.918 44.3324 66.2173 44.9961 67.6229 45.4472C69.4143 46.0195 71.2299 46.4706 73.1761 46.5955ZM29.5409 53.2131C29.6024 53.0602 29.5446 53.0006 29.4943 52.9446C29.0338 52.4171 28.7225 51.7945 28.3814 51.1924C27.4083 49.4774 26.7671 47.6412 26.4371 45.7007C26.1855 44.2243 25.9842 42.7386 25.7195 41.2641C25.5405 40.2631 25.2329 39.2993 24.5059 38.5332C24.45 38.4754 24.4127 38.3635 24.3065 38.4195C24.1256 38.5145 23.9001 38.4884 23.7435 38.6376C23.7286 38.6525 23.7454 38.7028 23.7528 38.7364C23.9448 39.5771 23.8553 40.4122 23.6428 41.2268C23.3893 42.1943 23.0444 43.1357 22.7742 44.0976C22.3174 45.7175 21.9223 47.3374 21.9744 49.0431C22.0471 51.4347 22.7704 53.5989 24.0753 55.5991C24.4985 56.2478 24.9589 56.8406 25.4883 57.4036C25.945 57.8883 26.4241 58.2928 27.043 58.5426C27.5109 58.7309 27.5836 58.7178 27.8222 58.2648C27.8389 58.235 27.8576 58.2052 27.8669 58.1716C28.0887 57.3663 28.5566 56.6673 28.8754 55.903C29.2445 55.0082 29.3526 54.0724 29.5409 53.2131ZM61.6969 42.7051C61.6801 42.7274 61.6614 42.7442 61.6521 42.7647C61.1525 43.9056 60.3976 44.8637 59.5308 45.738C59.3816 45.889 59.3909 45.9579 59.5531 46.0828C60.3901 46.726 61.2569 47.3132 62.189 47.8165C64.48 49.0561 66.8903 49.921 69.4851 50.2361C70.201 50.3237 70.9224 50.3684 71.6307 50.1783C72.3596 49.9826 72.5702 49.5631 72.3186 48.8622C72.175 48.4596 71.9141 48.1315 71.6717 47.7885C71.5077 47.5574 71.3026 47.4325 71.0268 47.3672C70.1022 47.1472 69.1701 46.9571 68.266 46.6588C65.8035 45.8461 63.52 44.7351 61.7658 42.7461C61.7472 42.7293 61.7211 42.72 61.6969 42.7051ZM50.1375 49.3879C50.1132 49.3394 50.1039 49.3078 50.0853 49.2798C49.6286 48.6162 49.198 47.9414 48.8941 47.1883C48.6443 46.5694 48.3945 45.9505 48.1783 45.3185C48.1261 45.1657 48.059 45.1172 47.9005 45.1508C47.6321 45.2067 47.3581 45.2291 47.0915 45.2925C45.699 45.6261 44.3028 45.5068 42.9047 45.3502C42.4909 45.3036 42.4909 45.2794 42.6102 45.6765C43.0128 47.013 43.4099 48.3515 44.2879 49.4811C44.4445 49.6843 44.5917 49.8055 44.8695 49.8185C46.0625 49.8726 47.25 49.8129 48.4318 49.6731C49.0004 49.606 49.5652 49.524 50.1375 49.3879ZM55.2806 47.5872C55.0159 47.4343 54.8612 47.2516 54.7344 47.0466C54.123 46.0605 53.601 45.0315 53.3102 43.9C53.2673 43.7303 53.1984 43.7285 53.0586 43.7732C52.7156 43.8832 52.3856 44.0249 52.0575 44.174C51.4573 44.4499 50.8514 44.7034 50.186 44.7929C49.7199 44.8562 49.2576 44.9569 48.7916 45.0203C48.5847 45.0483 48.5567 45.1172 48.6406 45.298C48.7636 45.5609 48.8717 45.833 48.978 46.1033C49.2819 46.8751 49.6938 47.5797 50.24 48.2079C50.4581 48.4596 50.6911 48.7094 50.8533 48.9964C50.9596 49.1847 51.0397 49.1978 51.2224 49.1493C52.4117 48.8399 53.5581 48.413 54.6673 47.8892C54.8612 47.7978 55.0494 47.7009 55.2806 47.5872ZM55.7131 47.3486C55.81 47.2982 55.8846 47.261 55.9591 47.2199C56.4755 46.931 56.9713 46.6104 57.4541 46.2692C58.2818 45.6839 59.0554 45.0371 59.7395 44.2858C59.8104 44.2094 59.9129 44.1479 59.7843 44.0155C59.0629 43.2736 58.5055 42.4124 58.0357 41.4953C57.9537 41.3349 57.8959 41.3498 57.7766 41.4505C57.3945 41.7749 56.9564 42.0079 56.4978 42.2055C56.1977 42.3341 55.9107 42.4851 55.6478 42.6827C55.0867 43.104 54.4865 43.4414 53.793 43.5868C53.683 43.6092 53.6346 43.6427 53.6793 43.7751C54.054 44.8656 54.6132 45.8498 55.3794 46.711C55.5416 46.8937 55.7093 47.0615 55.7131 47.3486ZM38.1997 43.8347C38.5464 44.2579 38.8689 44.6549 39.1951 45.0464C40.006 46.0176 40.8281 46.9813 41.4339 48.1054C41.6409 48.4894 41.8496 48.8734 42.0249 49.2723C42.0659 49.3674 42.105 49.4625 42.2243 49.4867C42.6065 49.5669 42.9905 49.6396 43.4062 49.6768C43.2925 49.4476 43.175 49.2481 43.093 49.0356C42.6382 47.8593 42.3213 46.6439 42.0845 45.4062C42.051 45.2309 41.9838 45.1713 41.8179 45.1303C40.6678 44.8488 39.5419 44.4983 38.5017 43.9149C38.4308 43.8757 38.3619 43.8161 38.1997 43.8347ZM61.2718 42.1757C61.2495 42.1346 61.2308 42.0974 61.2085 42.0619C60.7462 41.3424 60.2261 40.6583 59.8309 39.8958C59.7936 39.825 59.7563 39.7765 59.6799 39.8567C59.2772 40.2817 58.7627 40.5725 58.3377 40.9733C58.2688 41.0385 58.2221 41.0907 58.2874 41.1877C58.8243 42.006 59.4152 42.7759 60.1646 43.4172C60.2988 43.5309 60.3827 43.5383 60.4852 43.3817C60.7126 43.0294 60.9549 42.6864 61.188 42.3378C61.2215 42.2894 61.2439 42.2334 61.2718 42.1757ZM66.592 30.5902C66.5603 30.7449 66.6368 30.743 66.7505 30.7132C67.0636 30.6293 67.3768 30.5343 67.6956 30.4783C68.7302 30.2957 69.5038 29.7606 70.0183 28.8416C70.1655 28.5807 70.1804 28.5564 69.8729 28.5154C69.1049 28.411 68.3685 28.2004 67.6639 27.8854C67.5446 27.8313 67.5129 27.8481 67.4812 27.9786C67.2911 28.8044 67.0692 29.619 66.6685 30.3739C66.6349 30.4411 66.6181 30.5175 66.592 30.5902ZM65.8874 31.8019C65.8613 31.8335 65.8333 31.8671 65.8072 31.9007C65.2816 32.555 64.8435 33.2689 64.3663 33.9586C64.2376 34.145 63.9394 34.3221 64.0065 34.4992C64.0624 34.6484 64.4017 34.6819 64.6067 34.7844C64.7391 34.8497 64.8118 34.8199 64.8659 34.6931C64.9553 34.4806 65.056 34.2737 65.138 34.0574C65.4176 33.3137 65.6917 32.5699 65.8874 31.8019ZM38.1941 43.7956C38.1922 43.7993 38.1885 43.8049 38.1866 43.8086C38.196 43.8086 38.2072 43.8086 38.2165 43.8086C38.2146 43.803 38.2127 43.7974 38.209 43.7956C38.2053 43.7937 38.1997 43.7956 38.1941 43.7956Z" fill="#303440"/>
<path d="M28.3459 44.6158C28.441 44.6848 28.4541 44.7594 28.4708 44.8321C28.592 45.3484 28.8101 45.8312 28.9742 46.3327C29.2016 47.0336 29.4961 47.7065 29.813 48.3664C30.1038 48.9723 30.4897 49.5334 30.8513 50.1038C31.459 51.0601 32.214 51.9045 32.9149 52.7881C33.0584 52.9708 33.2281 53.1293 33.4238 53.2541C33.8675 53.5356 34.1862 53.9644 34.6187 54.2626C35.0586 54.5646 35.5247 54.8125 36.0168 55.0139C36.4064 55.1723 36.7717 55.3774 37.1408 55.575C37.2005 55.6067 37.2564 55.6495 37.3049 55.6961C37.4074 55.7949 37.4466 55.9161 37.3627 56.0429C37.2807 56.1678 37.152 56.1976 37.0234 56.1361C36.8556 56.054 36.6953 55.9534 36.5331 55.8565C36.0708 55.5768 35.5508 55.4165 35.0885 55.1332C34.8107 54.9617 34.5367 54.7902 34.2925 54.5739C33.0883 53.5114 32.0388 52.3109 31.1123 50.9986C30.622 50.3051 30.238 49.5502 29.7739 48.8418C29.4831 48.3963 29.3321 47.878 29.1419 47.3878C28.8325 46.5881 28.5137 45.7846 28.3609 44.9309C28.3478 44.8377 28.3534 44.7426 28.3459 44.6158Z" fill="#303440"/>
<path d="M14.9595 29.8055C14.9409 30.1876 14.9111 30.5194 14.7638 30.827C14.6184 31.129 14.3872 31.3135 14.0405 31.3135C13.7124 31.3135 13.4813 31.129 13.3638 30.8438C13.1215 30.2547 13.0786 29.6563 13.4589 29.1046C13.6546 28.8212 13.9212 28.6031 14.3052 28.7038C14.6892 28.8044 14.8756 29.0896 14.9316 29.4681C14.9502 29.5948 14.9539 29.7234 14.9595 29.8055Z" fill="#303440"/>
<path d="M7.76599 31.3769C7.76785 31.664 7.7343 31.9417 7.58144 32.1915C7.29996 32.6538 6.74818 32.6706 6.44061 32.2288C6.09947 31.7367 6.09761 30.8904 6.43501 30.402C6.76683 29.9229 7.31674 29.9602 7.58144 30.4803C7.72498 30.7599 7.75108 31.0675 7.76599 31.3769Z" fill="#303440"/>
<path d="M15.3119 18.7811C15.6624 18.796 16.0128 18.7998 16.3409 18.9508C16.6765 19.1055 16.8424 19.3814 16.8331 19.7262C16.8237 20.0618 16.6858 20.3694 16.3428 20.5073C15.668 20.7776 14.9727 20.9323 14.2382 20.8298C14.0182 20.8 13.7945 20.7925 13.5764 20.7515C13.0247 20.6508 12.8494 20.2668 13.0955 19.7673C13.3695 19.2117 13.8505 18.975 14.4172 18.8594C14.7117 18.7979 15.0099 18.7718 15.3119 18.7811ZM14.6744 20.6042C15.1889 20.5707 15.668 20.4663 16.1377 20.2967C16.4024 20.2016 16.5068 19.9854 16.5199 19.7393C16.5311 19.5007 16.3838 19.3348 16.1657 19.2229C15.4592 18.8576 14.7527 18.9247 14.0332 19.1838C13.6883 19.3087 13.4571 19.5361 13.3043 19.8605C13.1402 20.209 13.2409 20.429 13.6212 20.4868C13.9735 20.5427 14.3314 20.5688 14.6744 20.6042Z" fill="#303440"/>
<path d="M14.449 40.828C13.8804 40.8112 13.3118 40.7646 12.7694 40.5502C12.6557 40.5055 12.5513 40.4477 12.4637 40.3657C12.4171 40.321 12.3425 40.2725 12.3966 40.1961C12.445 40.1252 12.5196 40.155 12.583 40.1811C13.2559 40.457 13.9624 40.5502 14.6708 40.4328C15.3941 40.3116 16.1322 40.2222 16.8145 39.9407C17.2787 39.7487 17.7913 39.6722 18.2051 39.3553C18.2797 39.2976 18.3673 39.2976 18.4363 39.3777C18.5053 39.4579 18.481 39.5399 18.4288 39.6126C18.2909 39.8009 18.0858 39.8885 17.8771 39.9724C16.9543 40.3452 15.9943 40.5875 15.0175 40.7683C14.8348 40.8038 14.6447 40.8093 14.449 40.828Z" fill="#303440"/>
<path d="M4.28398 29.3488C4.34363 30.2342 4.34363 31.1066 4.50581 31.9678C4.66799 32.8216 4.92337 33.6418 5.38567 34.38C5.65783 34.8162 5.84424 35.2971 6.12945 35.7259C6.20588 35.8415 6.2152 35.9775 6.08285 36.067C5.94863 36.1584 5.82933 36.0913 5.74917 35.9813C5.64851 35.8452 5.54226 35.7017 5.48447 35.5451C5.33907 35.1499 5.12097 34.7901 4.95133 34.4098C4.57851 33.5803 4.34363 32.7098 4.24483 31.8019C4.16468 31.0693 4.10316 30.3405 4.18891 29.6041C4.19637 29.5184 4.19077 29.4326 4.28398 29.3488Z" fill="#303440"/>
<path d="M17.6253 22.9772C17.2431 22.9809 16.8032 22.8635 16.395 22.6267C15.7145 22.2297 15.709 21.6369 16.3912 21.251C17.1462 20.8241 18.2348 20.8111 19.0066 21.5399C19.1203 21.648 19.2116 21.7711 19.2787 21.909C19.3924 22.1476 19.3235 22.4105 19.1128 22.5689C18.7251 22.8635 18.2367 23.007 17.6253 22.9772ZM17.5097 21.1671C17.0362 21.1336 16.6391 21.2435 16.298 21.5176C15.9923 21.7636 15.9923 22.0395 16.2924 22.2893C16.9057 22.8001 18.192 22.8951 18.7792 22.4291C19.0923 22.1812 19.1352 22.0283 18.8425 21.7487C18.4623 21.3871 18.041 21.0981 17.5097 21.1671Z" fill="#303440"/>
<path d="M13.5802 23.4154C13.4795 23.4042 13.3435 23.3967 13.2093 23.3707C12.5773 23.2458 12.3723 22.6865 12.7693 22.1776C13.1179 21.7302 13.5951 21.6352 14.1227 21.6911C14.2233 21.7023 14.3221 21.7358 14.4209 21.7582C14.7024 21.8234 14.9056 21.9875 14.9634 22.2746C15.0212 22.5598 14.9447 22.8207 14.7248 23.0202C14.4116 23.3017 14.0295 23.4023 13.5802 23.4154ZM13.4628 23.0743C13.8486 23.0929 14.1562 23.009 14.4265 22.8114C14.585 22.6958 14.6558 22.5299 14.6241 22.3398C14.5962 22.1683 14.4489 22.0956 14.2998 22.0453C14.1711 22.0024 14.0369 21.9744 13.9046 21.939C13.5206 21.8328 13.2204 21.9726 12.9762 22.2634C12.8346 22.4311 12.7712 22.6362 12.8551 22.8357C12.9352 23.0277 13.1384 23.0631 13.3323 23.0724C13.3938 23.0761 13.4535 23.0743 13.4628 23.0743Z" fill="#303440"/>
<path d="M11.2407 21.5848C11.0394 21.5904 10.8586 21.5494 10.6908 21.4562C10.4503 21.3219 10.2434 21.1523 10.2583 20.8447C10.2732 20.5278 10.4391 20.2855 10.7206 20.1569C11.1289 19.9705 11.5651 19.8847 12.0162 19.9313C12.2716 19.9574 12.5456 20.196 12.6108 20.4346C12.6835 20.6975 12.6015 20.9081 12.3592 21.1057C12.0292 21.3779 11.6825 21.6016 11.2407 21.5848ZM11.5837 20.183C11.3768 20.1718 11.1792 20.2296 10.9835 20.2892C10.6927 20.3787 10.4541 20.6564 10.4764 20.8634C10.5007 21.0833 10.8101 21.2921 11.127 21.3126C11.5986 21.3424 11.936 21.0777 12.2511 20.7851C12.361 20.6825 12.3387 20.539 12.2362 20.4141C12.0628 20.2035 11.8242 20.1923 11.5837 20.183Z" fill="#303440"/>
<path d="M18.7365 20.7272C18.2761 20.703 17.948 20.5855 17.6404 20.414C17.4242 20.2929 17.3068 20.099 17.3291 19.8417C17.3515 19.5789 17.4876 19.3981 17.7262 19.2918C18.1885 19.0886 19.0031 19.3254 19.2659 19.7523C19.4002 19.9722 19.3871 20.2127 19.2678 20.4383C19.1336 20.6955 18.8968 20.7402 18.7365 20.7272ZM18.5501 20.3917C18.7216 20.3898 18.9024 20.4122 18.9789 20.2015C19.0572 19.9815 18.9099 19.8734 18.757 19.7672C18.6526 19.6945 18.552 19.6143 18.4495 19.5398C18.2332 19.3832 17.9778 19.3794 17.7635 19.5286C17.4988 19.7113 17.5081 20.0412 17.7933 20.1903C18.0282 20.3134 18.2817 20.3861 18.5501 20.3917Z" fill="#303440"/>
<path d="M8.24158 23.074C7.99365 23.0274 7.7625 23.0312 7.67116 22.8037C7.57795 22.5689 7.68607 22.3694 7.85011 22.2016C8.14092 21.9071 8.49883 21.7337 8.89588 21.6387C8.97604 21.62 9.06738 21.62 9.15127 21.6331C9.63407 21.7002 9.74592 21.9574 9.47562 22.3601C9.16991 22.8187 8.70015 22.9715 8.24158 23.074ZM8.9313 21.8624C8.80081 21.8232 8.67592 21.9593 8.5212 21.991C8.24903 22.0451 8.07381 22.2333 7.93959 22.4533C7.82588 22.6397 7.89112 22.759 8.1055 22.7478C8.54543 22.7217 8.9313 22.5577 9.22583 22.2166C9.27989 22.1532 9.37123 22.0879 9.33954 22.0022C9.30599 21.9108 9.196 21.8941 9.10093 21.8791C9.05992 21.8736 9.01705 21.8698 8.9313 21.8624Z" fill="#303440"/>
<path d="M21.2064 21.8848C20.6825 21.8736 20.4495 21.6555 20.416 21.2696C20.4029 21.1186 20.5017 21.1037 20.567 21.0534C20.8745 20.8092 21.2175 20.8371 21.4822 21.1186C21.6183 21.264 21.7078 21.4318 21.6258 21.6294C21.5382 21.8382 21.3443 21.8848 21.2064 21.8848ZM20.608 21.1764C20.6732 21.4821 20.8634 21.6163 21.1392 21.5697C21.2977 21.5436 21.294 21.4747 21.2101 21.3628C21.0591 21.1615 20.8428 21.1764 20.608 21.1764Z" fill="#303440"/>
<path d="M11.043 22.1384C11.3021 22.1384 11.4419 22.2615 11.4233 22.4441C11.399 22.6958 11.2201 22.8282 11.0113 22.9195C10.8156 23.0071 10.6422 22.9325 10.5005 22.7927C10.3477 22.6436 10.3626 22.4125 10.5471 22.3155C10.7186 22.2279 10.9106 22.1832 11.043 22.1384Z" fill="#303440"/>
<path d="M27.8425 35.7688C27.8518 35.9198 27.822 36.0111 27.7176 36.041C27.6132 36.0708 27.5685 35.9813 27.5331 35.903C27.3653 35.5414 27.1845 35.1928 26.7557 35.0753C26.6867 35.0567 26.642 34.9971 26.6569 34.9169C26.6718 34.833 26.7445 34.8106 26.8116 34.8088C26.9682 34.8069 27.1174 34.8442 27.2497 34.9262C27.5815 35.1331 27.7512 35.45 27.8425 35.7688Z" fill="#303440"/>
<path d="M27.1714 37.2097C27.1732 37.3047 27.1732 37.3812 27.0931 37.4054C27.0036 37.4334 26.9421 37.3793 26.916 37.301C26.7501 36.8145 26.3642 36.5386 25.9522 36.2851C25.887 36.2459 25.8031 36.2105 25.8348 36.1154C25.8609 36.0315 25.9429 36.0334 26.0063 36.0614C26.4966 36.2664 26.9328 36.5367 27.1397 37.0605C27.162 37.1146 27.1658 37.1761 27.1714 37.2097Z" fill="#303440"/>
<path d="M15.7928 23.8869C15.461 23.8794 15.2746 23.7731 15.2727 23.5923C15.2709 23.4171 15.5486 23.2307 15.817 23.2251C15.8264 23.2251 15.8338 23.2251 15.8431 23.2251C16.1805 23.2381 16.4005 23.3761 16.3893 23.5644C16.3763 23.7526 16.1116 23.8943 15.7928 23.8869ZM15.5281 23.5681C15.7089 23.5961 15.8599 23.6259 15.9923 23.5345C16.0333 23.5066 15.9792 23.4507 15.9494 23.4357C15.7891 23.3519 15.6716 23.4432 15.5281 23.5681Z" fill="#303440"/>
<path d="M40.498 56.8295C40.4998 57.0774 40.3414 57.262 40.1456 57.262C39.9536 57.2639 39.8381 57.1613 39.825 56.9693C39.812 56.7624 40.0319 56.5182 40.2146 56.5331C40.4104 56.5499 40.4942 56.6767 40.498 56.8295Z" fill="#303440"/>
<path d="M39.1834 56.4082C39.3531 56.4324 39.4444 56.5219 39.4407 56.6804C39.437 56.8258 39.3493 56.9246 39.2021 56.9246C39.0474 56.9246 38.9467 56.837 38.943 56.671C38.9392 56.5051 39.0436 56.4343 39.1834 56.4082Z" fill="#303440"/>
<path d="M38.4103 56.3448C38.3842 56.4996 38.304 56.5909 38.153 56.5872C37.9871 56.5835 37.9032 56.4809 37.9126 56.3206C37.92 56.1771 38.0002 56.069 38.1549 56.082C38.3078 56.095 38.3954 56.1957 38.4103 56.3448Z" fill="#303440"/>
<path d="M19.126 39.277C18.9825 39.2677 18.8912 39.195 18.8986 39.0552C18.9079 38.8837 19.031 38.8035 19.1913 38.7998C19.3292 38.7961 19.4262 38.8762 19.4168 39.0179C19.4075 39.1894 19.2808 39.2565 19.126 39.277Z" fill="#303440"/>
<path d="M20.4437 38.3207C20.4326 38.481 20.33 38.5612 20.1772 38.5705C20.0411 38.578 19.9367 38.5034 19.9348 38.3636C19.933 38.2014 20.0504 38.1194 20.2014 38.1082C20.3393 38.0989 20.427 38.1716 20.4437 38.3207Z" fill="#303440"/>
<path d="M7.02036 37.0028C7.16016 37.0196 7.24964 37.0942 7.24591 37.234C7.24405 37.3719 7.1583 37.4595 7.01849 37.4577C6.87868 37.4558 6.7948 37.3682 6.79666 37.2302C6.79853 37.0886 6.88614 37.0159 7.02036 37.0028Z" fill="#303440"/>
<path d="M6.8078 36.5815C6.79662 36.6709 6.76306 36.7474 6.65867 36.753C6.55055 36.7585 6.47785 36.697 6.46667 36.5945C6.45548 36.4882 6.51513 36.4155 6.62512 36.41C6.73883 36.4044 6.78729 36.4808 6.8078 36.5815Z" fill="#303440"/>
<path d="M41.9389 25.1264C40.7459 24.9829 39.523 25.0127 38.3934 24.4945C38.0653 24.3435 37.7428 24.1888 37.4576 23.9632C36.7269 23.3872 36.5181 22.4701 36.9282 21.6387C37.6794 20.1138 38.8221 18.9711 40.3209 18.1789C40.5166 18.0745 40.7161 17.9701 40.895 17.8396C41.6649 17.2748 42.5429 17.1257 43.4712 17.1313C44.9607 17.1406 46.3215 17.6625 47.6692 18.2068C48.3794 18.4939 48.8995 19.0308 49.2873 19.6944C49.4998 20.0598 49.565 20.4475 49.4755 20.8576C49.2202 22.0301 48.5547 22.9119 47.5182 23.4953C46.9907 23.7917 46.424 24.0229 45.8685 24.2708C45.4752 24.4442 45.0632 24.5653 44.6363 24.6175C44.0976 24.6846 43.5775 24.817 43.0593 24.968C42.692 25.0742 42.3211 25.132 41.9389 25.1264ZM41.8961 24.3547C42.2167 24.3566 42.528 24.3062 42.8337 24.213C43.3333 24.0602 43.8347 23.9166 44.3548 23.8533C44.8171 23.7973 45.2571 23.6538 45.6783 23.4599C46.1612 23.2381 46.6495 23.0274 47.1118 22.7702C47.8966 22.3321 48.441 21.6778 48.7057 20.8092C48.7951 20.5165 48.7635 20.2406 48.6218 19.9647C48.3049 19.3514 47.8183 18.9301 47.1976 18.6524C46.3438 18.2702 45.436 18.0465 44.5524 17.7501C44.4741 17.724 44.3828 17.7184 44.2989 17.724C43.1804 17.7949 42.0806 17.9198 41.1467 18.6375C40.9864 18.7605 40.7906 18.8406 40.6098 18.9376C39.2882 19.6478 38.2946 20.6787 37.6216 22.0171C37.3905 22.4775 37.5023 22.9305 37.8938 23.2642C38.1044 23.4431 38.3505 23.5624 38.5966 23.6855C39.6367 24.2074 40.7757 24.2298 41.8961 24.3547Z" fill="#303440"/>
<path d="M58.4756 30.7431C58.5092 31.7833 57.9164 32.5382 57.2994 33.2652C56.4288 34.2905 55.3327 35.0529 54.1751 35.7016C53.2729 36.2068 52.2663 36.52 51.241 36.6691C50.0275 36.8462 48.7878 35.985 48.4038 34.7957C48.1559 34.0295 48.1466 33.2578 48.4057 32.4972C48.7039 31.6248 49.0917 30.799 49.7441 30.1205C49.9268 29.9303 50.0853 29.7141 50.2474 29.5034C50.555 29.1045 50.9092 28.7671 51.3696 28.5453C51.5449 28.4595 51.7145 28.3496 51.8599 28.2191C52.4508 27.6915 53.1443 27.4175 53.9253 27.3355C54.095 27.3168 54.2646 27.2852 54.4305 27.2479C54.9524 27.1323 55.4502 27.1547 55.905 27.4753C55.9516 27.507 56.015 27.5219 56.0728 27.5312C56.7159 27.6356 57.2155 27.9618 57.5809 28.5006C57.6237 28.5639 57.6629 28.6348 57.7188 28.6851C58.3302 29.2406 58.4439 29.9769 58.4756 30.7431ZM57.6834 30.484C57.7468 29.5407 57.2341 28.8119 56.6041 28.2359C56.4792 28.1221 56.33 28.1818 56.2182 28.0867C55.7503 27.6859 55.2022 27.5927 54.6132 27.6971C54.2758 27.7568 53.9421 27.8351 53.6103 27.9134C53.2822 27.9898 52.9709 28.1091 52.7081 28.3272C51.886 29.0039 51.0192 29.6172 50.3891 30.5213C49.9622 31.1327 49.5801 31.7423 49.3321 32.4432C49.1215 33.0378 49.0973 33.6269 49.2632 34.2346C49.5801 35.3922 50.5326 35.9253 51.6735 35.5656C52.0072 35.4593 52.3278 35.3046 52.667 35.217C53.8489 34.9131 54.7642 34.1563 55.6925 33.4311C56.0262 33.1702 56.3207 32.8495 56.6208 32.5457C57.1819 31.9715 57.7113 31.3676 57.6834 30.484Z" fill="#303440"/>
<path d="M44.0472 32.6855C42.705 32.8626 41.5027 32.253 40.4047 31.3377C39.4186 30.5157 39.2023 29.4755 39.5099 28.2787C39.5509 28.1184 39.6348 27.9786 39.7429 27.8537C39.9871 27.5666 40.1978 27.2367 40.4886 27.0074C41.2454 26.4127 41.9184 25.6615 42.9697 25.5553C43.8235 25.4695 44.5952 25.6969 45.3185 26.1294C45.3688 26.1592 45.4117 26.2114 45.4676 26.2282C46.396 26.5339 46.9105 27.2553 47.3243 28.0755C47.4361 28.2974 47.5592 28.5117 47.699 28.7187C48.0532 29.2443 48.1165 29.7887 47.891 30.4001C47.5163 31.4104 46.7259 31.9995 45.8591 32.5196C45.6764 32.6296 45.4564 32.6594 45.2421 32.6818C44.8898 32.719 44.5393 32.6967 44.0472 32.6855ZM44.1963 31.8243C44.3678 31.8243 44.5393 31.8168 44.7089 31.8261C45.134 31.8485 45.5198 31.7627 45.8591 31.4831C46.1704 31.2259 46.5022 30.9705 46.7259 30.648C47.177 29.9993 47.2963 29.5985 46.8713 28.9778C46.7893 28.8585 46.7203 28.7261 46.67 28.5919C46.4836 28.096 46.2356 27.6281 45.833 27.2851C45.3539 26.8788 44.9009 26.4239 44.2243 26.3121C43.3705 26.1685 42.5876 26.2245 41.9277 26.862C41.7991 26.985 41.6443 27.0857 41.4877 27.1733C40.9807 27.4585 40.7235 27.9711 40.3581 28.385C40.332 28.4148 40.3171 28.4614 40.3115 28.5024C40.1754 29.3133 40.263 30.044 40.9695 30.6051C41.9202 31.3582 42.9063 31.9809 44.1963 31.8243Z" fill="#303440"/>
<path d="M55.588 24.6158C53.9066 24.586 52.5178 23.8813 51.3117 22.7573C51.1924 22.6454 51.0936 22.5131 51.0228 22.3677C50.6984 21.7022 50.5064 20.9882 50.5624 20.2594C50.6276 19.4168 51.0601 18.8706 51.8281 18.673C52.6185 18.468 53.394 18.5798 54.1694 18.7196C55.1052 18.8874 55.8937 19.3683 56.6357 19.9294C57.0514 20.2445 57.4577 20.5763 57.7634 21.0087C58.5781 22.1682 58.0953 23.8217 56.7848 24.3642C56.3486 24.5412 55.9888 24.6177 55.588 24.6158ZM53.187 19.167C52.6949 19.1484 52.365 19.1912 52.0425 19.2863C51.4255 19.469 51.0936 19.9835 51.198 20.621C51.2521 20.9491 51.3378 21.2734 51.4236 21.5959C51.5131 21.9278 51.7051 22.1906 51.9716 22.4124C52.6539 22.9791 53.4163 23.3985 54.257 23.6595C54.7883 23.8254 55.3438 23.9074 55.9049 23.831C56.5685 23.7415 57.0719 23.3929 57.2956 22.761C57.5137 22.1477 57.3422 21.581 56.9004 21.1001C56.5984 20.772 56.2945 20.4439 55.9478 20.1662C55.5824 19.8735 55.2469 19.538 54.7827 19.3851C54.2123 19.1987 53.6195 19.2099 53.187 19.167Z" fill="#303440"/>
<path d="M44.664 38.3152C43.5101 38.2891 42.4401 37.9983 41.4428 37.4018C40.0149 36.5461 40.3411 35.2207 41.07 34.4863C41.4652 34.0892 41.9443 33.8022 42.4271 33.5244C42.6135 33.4163 42.8297 33.3771 43.0459 33.3753C43.7413 33.366 44.431 33.4088 45.076 33.7071C45.3239 33.8227 45.5681 33.9476 45.8104 34.0743C46.09 34.2216 46.3715 34.3465 46.6847 34.4229C47.4042 34.6 47.6876 35.0735 47.559 35.8042C47.3204 37.1948 46.0006 38.3394 44.664 38.3152ZM43.3796 33.9121C42.5072 33.9252 41.9107 34.4397 41.4801 35.1145C41.0961 35.7185 41.2135 36.2069 41.8809 36.5629C42.6247 36.96 43.4057 37.2228 44.239 37.3943C45.1915 37.59 46.5989 36.712 46.6511 35.5526C46.6567 35.4258 46.6586 35.3102 46.5505 35.2282C46.2038 34.9598 45.8962 34.6429 45.5028 34.4248C44.8374 34.0557 44.1346 33.9028 43.3796 33.9121Z" fill="#303440"/>
<path d="M32.3593 26.506C32.2549 25.5162 33.4703 24.0286 34.3129 23.9112C34.6485 23.8646 34.9728 23.8031 35.2804 24.01C35.3904 24.0827 35.5265 24.0715 35.6532 24.0883C36.0745 24.1461 36.4641 24.2766 36.8257 24.5096C37.9107 25.2067 37.9051 26.5545 37.2414 27.4679C37.1501 27.5947 37.0345 27.7009 36.8966 27.7699C36.4361 27.9973 35.9813 28.2415 35.506 28.4317C34.3297 28.9014 33.0416 28.1446 32.57 27.4511C32.3761 27.1678 32.3649 26.8416 32.3593 26.506ZM33.1106 26.26C33.1516 26.5825 33.1124 26.8323 33.2895 27.0317C33.763 27.5649 34.6746 27.7438 35.3195 27.4269C35.5656 27.3057 35.7986 27.1492 36.0559 27.0671C36.5554 26.9087 36.8779 26.1985 36.7885 25.7567C36.7642 25.6355 36.7307 25.5274 36.6449 25.4342C36.4399 25.2123 36.218 25.0092 35.944 24.8805C35.4761 24.6606 34.9765 24.545 34.4695 24.4518C34.3838 24.4369 34.298 24.4425 34.2234 24.4947C33.5803 24.9476 33.2205 25.5703 33.1106 26.26Z" fill="#303440"/>
<path d="M50.73 23.7675C51.3657 23.8308 51.8299 24.2223 52.2567 24.6734C53.0975 25.5626 52.4226 27.1546 51.4011 27.3484C50.8214 27.4584 50.2491 27.6262 49.6619 27.6672C48.9423 27.7175 48.275 27.4715 47.6803 27.08C47.3262 26.847 47.1919 26.2523 47.3858 25.818C47.8295 24.8281 48.4707 24.0545 49.6358 23.9035C49.99 23.8569 50.346 23.8141 50.73 23.7675ZM49.3748 26.9271C49.4177 26.9253 49.4606 26.929 49.5034 26.9197C50.0981 26.7948 50.6853 26.6456 51.2576 26.4387C51.4198 26.3809 51.513 26.2467 51.5782 26.0901C51.8578 25.4284 51.3881 24.4441 50.6927 24.2335C50.6126 24.2093 50.5418 24.2204 50.4672 24.2391C50.1671 24.308 49.8669 24.3752 49.5687 24.446C48.7056 24.6529 48.2843 25.2979 48.0028 26.064C47.9339 26.2542 47.9637 26.4704 48.1762 26.5767C48.5527 26.765 48.9517 26.8917 49.3748 26.9271Z" fill="#303440"/>
<path d="M60.5243 24.2616C61.1413 24.1982 61.7453 24.3529 62.3008 24.6959C62.8097 25.0091 62.998 25.518 62.8284 26.0921C62.6326 26.7595 62.2002 27.2349 61.5738 27.5033C60.7443 27.8593 59.8849 28.0532 58.9715 27.8556C58.5745 27.7699 58.2259 27.6114 57.9146 27.3616C57.6144 27.1211 57.5436 26.7744 57.5082 26.4221C57.4448 25.8051 57.6051 25.3036 58.1401 24.8991C58.8503 24.3623 59.6407 24.2355 60.5243 24.2616ZM59.6389 27.1827C60.3249 27.0671 61.0631 26.8844 61.667 26.3513C61.818 26.2189 61.9243 26.0549 62.0044 25.8722C62.1275 25.5926 62.0958 25.408 61.8572 25.2104C60.776 24.3175 59.1915 24.3734 58.2669 25.3912C57.8139 25.8871 58.0618 26.8471 58.6938 27.0578C58.9715 27.1528 59.266 27.1472 59.6389 27.1827Z" fill="#303440"/>
<path d="M39.113 34.6168C39.0515 34.6075 38.9136 34.6 38.7812 34.5683C37.9349 34.3707 37.6628 33.7108 38.1157 32.9727C38.4103 32.4936 38.7551 32.1375 39.3591 31.994C39.7823 31.8933 40.0992 31.9064 40.4328 32.1487C40.8374 32.4451 40.979 32.8273 40.8579 33.3175C40.6528 34.1638 40.0712 34.6243 39.113 34.6168ZM39.1149 33.6698C39.5884 33.6717 39.9034 33.4629 40.0097 33.0901C40.088 32.8142 39.9109 32.6632 39.745 32.4992C39.5903 32.3445 39.4672 32.4656 39.3312 32.5253C39.0124 32.6669 38.9285 32.9727 38.8222 33.2597C38.6992 33.5859 38.7607 33.6698 39.1149 33.6698Z" fill="#303440"/>
<path d="M38.5535 30.4896C38.5144 31.0264 38.2087 31.5297 37.5917 31.8112C36.9989 32.0834 36.4545 31.9865 36.0034 31.5503C35.6921 31.2501 35.571 30.8754 35.6176 30.4542C35.666 30.0142 35.8748 29.6433 36.1693 29.3189C36.2998 29.1754 36.4639 29.0878 36.6596 29.0635C36.9746 29.0225 37.2934 28.9852 37.6047 29.0393C38.1938 29.1437 38.5517 29.6582 38.5535 30.4896ZM36.8553 31.1047C37.6271 31.0991 38.1006 30.3721 37.7706 29.701C37.6476 29.4494 37.4537 29.3506 37.1909 29.4084C36.6466 29.5258 36.298 29.99 36.3278 30.553C36.3464 30.8661 36.5739 31.1066 36.8553 31.1047Z" fill="#303440"/>
<path d="M58.9173 37.987C58.8894 38.1939 58.7608 38.3263 58.6564 38.4661C58.1325 39.1726 57.4372 39.6871 56.7214 40.1736C54.7902 41.4859 52.6315 42.2595 50.3946 42.8505C50.0311 42.9455 49.6676 43.0481 49.3153 43.1786C48.6367 43.4321 47.9247 43.529 47.2219 43.6632C47.0672 43.6931 46.9255 43.6241 46.7354 43.6073C46.9255 43.4824 47.1138 43.5029 47.2797 43.4544C48.5696 43.0853 49.8559 42.7125 51.1291 42.2856C53.3045 41.5549 55.3811 40.6229 57.2601 39.2826C57.7374 38.9414 58.127 38.5071 58.5837 38.1454C58.675 38.0727 58.7552 37.9795 58.9173 37.987Z" fill="#303440"/>
<path d="M31.0955 33.7592C31.2353 33.7927 31.2614 33.8785 31.3024 33.9456C31.4683 34.2159 31.651 34.475 31.7889 34.7602C32.2139 35.6456 32.8589 36.3745 33.5169 37.0754C34.4322 38.0522 35.3419 39.0458 36.4548 39.8138C36.5387 39.8716 36.6263 39.9331 36.6915 40.0095C36.9693 40.3339 37.3067 40.5744 37.6851 40.7645C37.7615 40.8018 37.8342 40.8502 37.9013 40.9006C38.0542 41.0143 38.1418 41.1634 38.0281 41.3424C37.9125 41.5232 37.7317 41.5139 37.577 41.4058C37.2135 41.1504 36.8313 40.9174 36.5592 40.552C36.4417 40.3935 36.3206 40.2388 36.1659 40.1121C35.355 39.4503 34.6559 38.6786 33.9457 37.9143C33.4629 37.3923 33.0304 36.8312 32.5569 36.3018C32.0946 35.7873 31.815 35.1572 31.4925 34.5551C31.3564 34.3035 31.2371 34.0444 31.0955 33.7592Z" fill="#303440"/>
<path d="M65.6954 28.2695C65.7513 28.6722 65.6413 29.0264 65.4474 29.3544C65.1809 29.8037 64.946 30.266 64.7764 30.7637C64.6496 31.1365 64.424 31.4684 64.1948 31.7871C63.8331 32.2867 63.4827 32.79 63.1881 33.3325C63.0931 33.5058 62.9831 33.6699 62.8302 33.7985C62.7128 33.8973 62.5786 33.9756 62.4406 33.8488C62.3064 33.7239 62.3586 33.5823 62.4555 33.4574C63.0837 32.6577 63.6411 31.8058 64.2451 30.9874C64.2544 30.9744 64.2693 30.9613 64.2749 30.9464C64.6123 30.0759 65.248 29.3619 65.5835 28.4914C65.6133 28.4131 65.6581 28.3422 65.6954 28.2695Z" fill="#303440"/>
<path d="M39.9834 42.1814C40.1773 42.1796 40.3637 42.325 40.3581 42.489C40.3544 42.6456 40.2723 42.7444 40.1083 42.7537C39.9573 42.7612 39.7411 42.5412 39.7429 42.3883C39.7429 42.2653 39.8399 42.1833 39.9834 42.1814Z" fill="#303440"/>
<path d="M61.2178 35.381C61.1973 35.545 61.1078 35.6606 60.9233 35.6587C60.7574 35.6569 60.6753 35.5506 60.6809 35.3903C60.6884 35.2114 60.7909 35.0976 60.9717 35.0995C61.1358 35.0995 61.2122 35.2095 61.2178 35.381Z" fill="#303440"/>
<path d="M59.728 37.0606C59.5789 37.0662 59.4913 37.0196 59.4987 36.8742C59.5081 36.7027 59.6143 36.6114 59.7746 36.5983C59.9107 36.589 60.0151 36.6748 60.0076 36.809C59.9983 36.9786 59.8641 37.0439 59.728 37.0606Z" fill="#303440"/>
<path d="M39.1464 41.8458C39.1371 41.9707 39.0719 42.0564 38.9451 42.0639C38.8184 42.0713 38.7326 42.0024 38.7252 41.87C38.7196 41.7395 38.7923 41.6575 38.9209 41.6519C39.0495 41.6444 39.1278 41.7153 39.1464 41.8458Z" fill="#303440"/>
<path d="M70.3184 45.2254C70.2252 45.2068 70.0724 45.203 69.9419 45.1471C69.3826 44.9048 68.801 44.7351 68.2176 44.5655C68.0871 44.5282 67.9566 44.4742 67.8429 44.4015C66.4709 43.5402 64.9815 42.8748 63.7008 41.8514C63.0931 41.3648 62.4295 40.9566 61.9914 40.2892C61.9541 40.2314 61.9075 40.1811 61.8721 40.1215C61.8181 40.032 61.7565 39.9164 61.8702 39.8493C61.9728 39.7878 62.0045 39.9276 62.0455 39.9854C62.8228 41.074 63.986 41.6631 65.0858 42.3304C65.7588 42.7387 66.51 43.0052 67.1886 43.3855C68.0144 43.8478 68.8719 44.1685 69.761 44.4462C70.0052 44.5226 70.2364 44.6382 70.4713 44.7407C70.6055 44.7985 70.7583 44.8656 70.7192 45.0483C70.6819 45.2329 70.5179 45.2254 70.3184 45.2254Z" fill="#303440"/>
<path d="M73.4739 45.1415C73.4701 45.3354 73.2651 45.5032 73.0432 45.4901C72.8568 45.4789 72.7655 45.3708 72.7674 45.19C72.7711 44.9943 72.965 44.8078 73.1495 44.8097C73.3266 44.8134 73.4776 44.9682 73.4739 45.1415Z" fill="#303440"/>
<path d="M72.0052 45.0614C71.9885 45.218 71.9083 45.3 71.7685 45.2944C71.5895 45.287 71.4758 45.1863 71.4852 44.9999C71.4926 44.8507 71.5951 44.7631 71.7443 44.7762C71.9139 44.793 71.9847 44.9179 72.0052 45.0614Z" fill="#303440"/>
<path d="M23.2493 46.2394C23.2997 46.491 23.281 46.7129 23.2568 46.9291C23.0648 48.6012 23.3276 50.2267 23.816 51.8149C23.9969 52.4059 24.215 52.9968 24.543 53.5374C24.7723 53.9177 24.8581 54.3669 25.1041 54.7453C25.2719 55.0044 25.4602 55.2468 25.6317 55.5022C25.6746 55.5655 25.7118 55.6345 25.7473 55.7016C25.8293 55.8675 25.9225 56.0539 25.71 56.1751C25.4863 56.3019 25.3968 56.0987 25.298 55.9496C25.1191 55.6793 24.9103 55.4239 24.7611 55.1368C24.1236 53.9121 23.6184 52.6389 23.3612 51.2706C23.2139 50.4896 23.0443 49.7104 22.979 48.9181C22.9082 48.0699 22.9809 47.2274 23.1692 46.3978C23.1785 46.3531 23.2102 46.3139 23.2493 46.2394Z" fill="#303440"/>
<path d="M26.5602 56.6654C26.5509 56.835 26.4707 56.932 26.3216 56.9301C26.165 56.9282 26.0326 56.8518 26.0308 56.6747C26.0289 56.5125 26.137 56.4249 26.2955 56.4268C26.4539 56.4305 26.536 56.533 26.5602 56.6654Z" fill="#303440"/>
<path d="M26.8881 57.5472C26.752 57.5118 26.6551 57.4372 26.6625 57.2844C26.67 57.1557 26.7483 57.0812 26.8769 57.083C27.0186 57.083 27.0987 57.1688 27.0987 57.3067C27.1006 57.4409 27.0242 57.5248 26.8881 57.5472Z" fill="#303440"/>
<path d="M61.0425 45.9132C61.3184 45.9524 61.5104 46.0959 61.7098 46.2245C62.9066 46.9944 64.1761 47.6133 65.5425 48.0215C65.6077 48.0402 65.6767 48.0551 65.7363 48.0868C66.3366 48.3925 66.9685 48.536 67.6433 48.467C67.7086 48.4596 67.7794 48.482 67.8465 48.4931C67.9956 48.5174 68.1205 48.5789 68.1 48.7541C68.0795 48.9312 67.9304 48.9629 67.7906 48.9517C67.1773 48.9051 66.577 48.8324 66.0048 48.5453C65.4809 48.2825 64.8993 48.1371 64.3662 47.891C63.2925 47.3915 62.187 46.9459 61.255 46.1854C61.1226 46.081 61.1189 46.0847 61.0425 45.9132Z" fill="#303440"/>
<path d="M70.2438 49.3955C70.0313 49.3936 69.9101 49.3041 69.9157 49.1196C69.9213 48.9201 70.0499 48.8064 70.2513 48.8064C70.4265 48.8064 70.5532 48.8996 70.5551 49.0842C70.5551 49.3004 70.3929 49.3638 70.2438 49.3955Z" fill="#303440"/>
<path d="M68.7468 48.9033C68.7543 48.7486 68.8419 48.6274 69.0227 48.62C69.1942 48.6106 69.3079 48.7132 69.293 48.8884C69.28 49.0375 69.3079 49.2407 69.0749 49.265C68.9221 49.2799 68.7524 49.0972 68.7468 48.9033Z" fill="#303440"/>
<path d="M71.133 49.4495C70.9764 49.429 70.8794 49.3414 70.8832 49.1829C70.8869 49.0152 70.9857 48.9126 71.1591 48.9164C71.3231 48.9182 71.4107 49.0226 71.4107 49.1773C71.4088 49.3451 71.3044 49.4364 71.133 49.4495Z" fill="#303440"/>
<path d="M38.9153 21.458C38.8016 21.6481 38.7531 21.8103 38.7438 21.9837C38.7345 22.1869 38.8109 22.3341 38.9731 22.4684C39.4335 22.8468 39.9741 23.0127 40.5464 22.9884C41.5959 22.9437 42.6398 22.8114 43.639 22.4665C44.1814 22.2801 44.7351 22.2708 45.2999 22.2409C45.2887 22.3957 45.1881 22.4367 45.1023 22.4385C44.1963 22.4534 43.3929 22.9083 42.5149 23.0332C41.6723 23.1525 40.8372 23.3519 39.9723 23.1786C39.5025 23.0835 39.1017 22.8785 38.7531 22.5672C38.4679 22.3118 38.4847 21.6854 38.7736 21.486C38.7979 21.4673 38.8352 21.4711 38.9153 21.458Z" fill="#303440"/>
<path d="M46.7522 21.5717C46.7149 21.6816 46.6329 21.732 46.5191 21.7208C46.4353 21.7133 46.3663 21.6649 46.3756 21.5735C46.3924 21.4132 46.5396 21.4505 46.6347 21.4319C46.7074 21.4188 46.7503 21.4896 46.7522 21.5717Z" fill="#303440"/>
<path d="M45.9284 21.7506C46.016 21.7562 46.0682 21.8065 46.0682 21.8774C46.0682 21.9948 45.9917 22.0656 45.8762 22.0731C45.8035 22.0768 45.7345 22.0284 45.7364 21.9538C45.7364 21.8326 45.8426 21.7953 45.9284 21.7506Z" fill="#303440"/>
<path d="M50.2642 32.4358C50.1318 32.803 50.1356 33.1199 50.1915 33.4424C50.2232 33.6288 50.2865 33.791 50.4245 33.9159C50.8663 34.313 51.3472 34.5721 51.981 34.4267C52.5813 34.2887 53.1424 34.1023 53.6233 33.6959C53.8619 33.4927 54.1471 33.3455 54.4118 33.1721C54.4827 33.1274 54.5554 33.1087 54.6206 33.1777C54.6915 33.2504 54.6448 33.3212 54.6057 33.3884C54.5572 33.4722 54.4789 33.5282 54.3969 33.5748C54.0987 33.7425 53.806 33.9196 53.5432 34.1396C53.0156 34.5851 52.3706 34.7212 51.7182 34.8163C51.1459 34.8983 50.2772 34.4118 50.033 33.8805C49.8671 33.5207 49.8858 33.133 49.9827 32.7527C50.0181 32.6222 50.1001 32.5309 50.2642 32.4358Z" fill="#303440"/>
<path d="M55.8377 31.897C55.9793 31.8877 56.0614 31.9287 56.0632 32.0462C56.0651 32.186 55.9607 32.2382 55.8395 32.2419C55.7389 32.2456 55.6438 32.2009 55.6419 32.0853C55.6382 31.9399 55.7519 31.9101 55.8377 31.897Z" fill="#303440"/>
<path d="M55.2411 32.7414C55.2299 32.8215 55.1815 32.8719 55.105 32.8644C55.0305 32.857 54.9839 32.7954 54.9895 32.719C54.9932 32.6519 55.0454 32.609 55.1106 32.6109C55.1908 32.6109 55.2318 32.665 55.2411 32.7414Z" fill="#303440"/>
<path d="M41.3408 28.6012C41.3054 28.7932 41.2867 28.9423 41.2513 29.0859C41.1693 29.4009 41.2588 29.6731 41.4974 29.8725C41.8068 30.1335 42.0846 30.4392 42.5115 30.5417C42.8246 30.6163 43.1322 30.7319 43.4435 30.812C44.0419 30.9649 44.6291 30.881 45.1622 30.5399C45.1846 30.5268 45.2051 30.51 45.2275 30.4989C45.33 30.4467 45.4493 30.3386 45.5388 30.4858C45.6264 30.6312 45.481 30.6983 45.3841 30.7561C44.6738 31.1886 43.9282 31.3153 43.1322 31.0059C42.998 30.9537 42.8545 30.9202 42.7128 30.8885C42.0715 30.7487 41.5831 30.3777 41.1991 29.8651C40.9381 29.5165 41.0015 28.8622 41.3408 28.6012Z" fill="#303440"/>
<path d="M46.0067 30.2584C45.878 30.2509 45.865 30.1671 45.8575 30.0944C45.8464 29.9937 45.906 29.9285 46.0067 29.934C46.0924 29.9378 46.1446 29.9974 46.1409 30.0888C46.1372 30.1876 46.0682 30.2304 46.0067 30.2584Z" fill="#303440"/>
<path d="M52.0739 21.0796C52.2529 21.5512 52.4207 22.034 52.8531 22.2764C53.4515 22.6119 54.0629 22.9493 54.775 23.0089C55.0472 23.0313 55.3175 23.0816 55.5822 22.9605C55.6474 22.9307 55.7462 22.9102 55.791 22.9922C55.8432 23.091 55.7537 23.1488 55.6866 23.1991C55.5654 23.2886 55.4275 23.3203 55.2765 23.3258C54.6166 23.3519 54.0089 23.186 53.4385 22.8598C53.2987 22.7797 53.1495 22.7126 53.0041 22.6399C52.4691 22.3733 52.1839 21.9091 52.0031 21.3685C51.9789 21.2884 51.9639 21.1821 52.0739 21.0796Z" fill="#303440"/>
<path d="M56.6096 22.5019C56.4865 22.4982 56.3728 22.4553 56.3766 22.3229C56.3821 22.1291 56.5686 22.1663 56.686 22.1347C56.796 22.1048 56.8743 22.1775 56.8687 22.2857C56.8612 22.4385 56.7494 22.4963 56.6096 22.5019Z" fill="#303440"/>
<path d="M56.4082 22.7423C56.3933 22.8318 56.3392 22.8858 56.2535 22.8895C56.1771 22.8933 56.1193 22.8411 56.1211 22.7647C56.1211 22.6733 56.1976 22.6286 56.2759 22.6211C56.3486 22.6137 56.4008 22.6621 56.4082 22.7423Z" fill="#303440"/>
<path d="M44.191 36.7847C43.4771 36.7026 42.7855 36.5647 42.4425 35.8023C42.4108 35.7314 42.3754 35.6643 42.3474 35.5916C42.3232 35.5301 42.3344 35.4667 42.394 35.4332C42.4816 35.3829 42.4816 35.4742 42.5096 35.5171C43.0054 36.3112 43.6206 36.5703 44.575 36.3895C44.6701 36.3708 44.7745 36.3503 44.8099 36.4715C44.8416 36.5796 44.7726 36.6505 44.6775 36.6896C44.5266 36.7548 44.3625 36.7679 44.191 36.7847Z" fill="#303440"/>
<path d="M45.5254 36.3615C45.5104 36.4492 45.4564 36.492 45.3688 36.4864C45.2905 36.4809 45.2439 36.4361 45.2551 36.3541C45.2663 36.2683 45.3184 36.2161 45.4079 36.2236C45.4862 36.2311 45.5235 36.2833 45.5254 36.3615Z" fill="#303440"/>
<path d="M34.0051 25.5013C33.9958 25.5852 33.992 25.6262 33.9864 25.6672C33.882 26.3477 34.4916 26.9032 35.1701 26.741C35.4106 26.6832 35.6474 26.6086 35.886 26.5415C35.9643 26.5191 36.0593 26.452 36.1059 26.5602C36.1414 26.6385 36.0649 26.7167 35.996 26.7428C35.638 26.8752 35.282 27.0392 34.8887 27.0094C34.5084 26.9796 34.1971 26.7988 33.9417 26.5117C33.7311 26.2731 33.7329 25.7418 34.0051 25.5013Z" fill="#303440"/>
<path d="M48.6366 25.6729C49.1866 26.3905 49.8017 26.4875 50.5138 25.9991C50.5865 25.9506 50.6685 25.8798 50.7356 25.9748C50.7934 26.0587 50.689 26.1053 50.6368 26.1538C50.1839 26.5788 49.345 26.6273 48.8547 26.2526C48.6814 26.1202 48.5546 25.9543 48.6366 25.6729Z" fill="#303440"/>
<path d="M58.5464 25.9001C59.3629 26.6812 60.2241 26.3662 61.0853 26.0959C61.1711 26.0698 61.2848 25.9356 61.3426 26.0549C61.4041 26.1779 61.2438 26.2357 61.1506 26.2804C60.5764 26.5619 59.9631 26.6607 59.333 26.5899C58.9248 26.5451 58.5986 26.2469 58.5464 25.9001Z" fill="#303440"/>
</svg>
