<svg width="80" height="80" viewBox="0 0 80 80" fill="none" xmlns="http://www.w3.org/2000/svg">
<rect width="80" height="80" fill="white"/>
<path d="M8.26501 49.9562C7.36784 49.3434 6.76972 48.4924 6.31194 47.5393C5.81734 46.5135 5.94387 45.5695 6.72371 44.7162C7.31263 44.0739 8.01196 43.5656 8.7297 43.0822C9.33701 42.6737 9.65907 42.1835 9.82701 41.4301C10.6506 37.7129 11.5891 34.016 13.5077 30.6642C15.4033 27.3486 18.1155 24.9635 21.8077 23.6904C25.4033 22.449 29.0955 21.7727 32.8912 21.6683C34.8006 21.6161 36.6846 21.868 38.4905 22.5352C38.9483 22.7032 39.3991 22.8938 39.8638 23.0368C42.5576 23.8606 44.5774 25.6307 46.4546 27.5982C46.5834 27.7344 46.7099 27.8842 46.7973 28.0453C47.6876 29.6679 48.6492 31.2565 49.107 33.0765C49.3462 34.0342 49.574 34.9941 50.0226 35.8974C50.7311 37.3248 51.8422 38.4073 52.9625 39.4943C53.6112 40.1229 54.4532 40.595 54.7316 41.5413C54.7569 41.6275 54.8696 41.6979 54.957 41.7546C55.7415 42.2584 56.3396 42.9234 56.7536 43.8515C57.5473 42.5943 57.9959 41.2962 58.2144 39.8778C56.7905 39.6804 55.47 39.2016 54.1795 38.6547C52.1965 37.815 51.0049 36.29 50.4942 34.243C50.317 33.5349 50.4896 32.8564 50.8346 32.2255C51.2372 31.4925 51.7019 30.8026 52.3943 30.2216C51.5201 28.7602 51.3798 27.158 51.5063 25.5104C51.6375 23.7879 52.2908 22.2402 53.1351 20.756C53.1627 20.7084 53.1949 20.6653 53.2225 20.6199C55.3987 17.1092 58.6906 15.3935 62.7233 14.8557C64.2163 14.6559 65.7001 14.6991 67.1861 14.926C69.1369 15.2256 70.8185 16.1401 72.4702 17.1296C74.0322 18.0646 75.0697 19.408 75.8542 21.0329C76.8388 23.0731 77.3104 25.229 77.6347 27.4326C77.7405 28.152 77.8832 28.8532 78.1316 29.5385C78.9483 31.7852 78.3985 33.9162 77.5381 36.0154C77.3817 36.3966 77.0688 36.6689 76.7675 36.939C75.8818 37.7401 74.9041 38.4209 73.8574 38.9905C73.0407 39.4331 72.53 40.0617 72.3 40.9445C71.5984 43.645 70.2664 46.0778 68.8724 48.4675C67.8257 50.2625 66.4362 51.7989 64.8052 53.131C63.0246 54.5857 61.0141 55.6115 58.9092 56.4897C58.4583 56.6781 57.9982 56.8324 57.5013 56.871C56.2314 56.9686 54.9685 57.1773 53.6895 57.0775C53.4111 57.0548 53.3306 57.2205 53.1903 57.3907C52.5139 58.2099 50.6253 58.5844 49.6683 58.0896C49.8086 57.7946 50.11 57.7174 50.3653 57.6017C50.784 57.4111 51.2211 57.2613 51.6421 57.0775C52.04 56.9027 52.5277 56.8392 52.438 56.1788C52.3966 55.877 52.7555 55.7181 53.066 55.6478C53.4433 55.5615 53.8229 55.5888 54.2025 55.6024C56.5834 55.6977 58.7619 55.0487 60.7978 53.8731C61.8284 53.2785 62.8406 52.6658 63.7769 51.9192C65.5505 50.5054 67.0458 48.8986 68.1109 46.8789C69.2174 44.7842 70.2457 42.6624 70.9842 40.4202C71.4604 38.9746 72.3345 37.9489 73.7539 37.3543C74.3773 37.0933 74.9639 36.7416 75.5942 36.501C76.1578 36.2854 76.5029 35.8996 76.6455 35.3618C77.1378 33.485 77.5588 31.6082 76.7652 29.6929C76.4454 28.9235 76.3396 28.0907 76.2016 27.2714C75.8542 25.2108 75.4493 23.1639 74.5843 21.2349C73.9816 19.8914 73.0845 18.8407 71.7916 18.0941C68.7527 16.3398 65.493 15.6341 62.0125 16.1447C59.7166 16.4805 57.7543 17.4904 56.1946 19.2424C54.9363 20.6539 53.9333 22.1835 53.5031 24.0376C53.1673 25.4877 53.0775 26.9492 53.2915 28.4266C53.3329 28.717 53.3605 29.0121 53.3927 29.3048C53.4847 30.1059 53.3145 30.7549 52.7164 31.4131C51.3361 32.9267 51.4603 34.2157 52.8521 35.7362C53.908 36.8891 55.1594 37.6629 56.6984 37.9875C57.3978 38.135 58.0074 38.4754 58.6308 38.8067C59.1392 39.0768 59.3048 39.4512 59.3485 39.955C59.4636 41.2849 59.0679 42.5058 58.4882 43.67C57.7589 45.1383 56.7859 46.4091 55.2469 47.1626C54.5061 47.5257 54.0483 48.152 53.701 48.8669C52.9993 50.3057 52.5875 51.8216 52.4173 53.4079C52.3644 53.9026 52.2402 54.3883 52.1298 54.9692C51.5938 54.5857 51.4948 54.1046 51.4488 53.6484C51.2395 51.6378 51.4465 49.6907 52.4817 47.891C53.0039 46.981 53.6573 46.2253 54.6925 45.8554C55.0237 45.7374 55.3228 45.549 55.608 45.3402C55.8841 45.1383 55.9623 44.9113 55.8519 44.5777C55.4953 43.5089 54.0644 43.0164 53.1443 43.67C52.2011 44.3417 51.5178 45.2427 50.9243 46.2094C49.8293 47.9977 49.1898 49.9562 48.8217 51.9986C48.5365 53.5758 48.2443 55.1576 48.3478 56.8619C47.9453 56.5714 47.9039 56.197 47.8348 55.8475C47.5381 54.3542 47.6669 52.8587 47.8671 51.3677C48.0074 50.3329 48.2075 49.3049 48.4836 48.2972C49.0518 46.2253 50.0847 44.437 51.8238 43.0981C52.2678 42.7554 52.3161 42.145 52.8015 41.8568C52.652 41.5753 52.4104 41.4437 52.1896 41.3053C51.3614 40.7833 50.5724 40.2205 49.9835 39.4262C49.6844 39.0246 49.3301 38.9292 48.8585 39.1516C47.4484 39.8188 45.9094 40.0617 44.398 40.359C43.0499 40.6245 41.7617 40.2795 41.0532 39.0654C40.0985 37.4269 39.1967 35.7362 38.9229 33.8073C38.7849 32.8314 38.9598 31.9713 39.5395 31.1453C40.5747 29.6702 41.6168 28.2064 42.9924 26.931C42.2241 26.2752 41.458 25.7464 40.6092 25.3288C40.3032 25.1791 40.1054 25.2767 39.9144 25.5059C39.2473 26.307 38.5618 27.0899 37.9959 27.9727C37.4645 28.801 36.7007 29.4115 35.8749 29.9402C35.5758 30.1309 35.2584 30.2625 34.8903 30.2806C32.6658 30.3918 30.4435 30.5325 28.2144 30.4281C26.7582 30.3601 25.4355 29.9833 24.3405 28.9871C23.816 28.5083 23.4249 27.9296 23.0223 27.3577C22.5944 26.7472 22.0285 26.2184 21.8445 25.4037C20.4665 25.996 19.1898 26.6678 18.0787 27.6663C19.7603 29.0824 19.9351 30.8593 19.452 32.7974C19.0886 34.2566 18.594 35.6681 17.9291 37.0252C17.0389 38.8476 15.2399 39.8574 13.2133 39.6282C12.7992 39.5806 12.4288 39.4285 12.04 39.1948C11.5362 40.2001 11.0416 41.1805 10.5539 42.1608C10.3975 42.4763 10.547 42.8417 10.3423 43.1685C10.0202 43.6813 9.61767 44.1012 9.12307 44.4461C8.65838 44.7706 8.18909 45.0883 7.77271 45.4787C7.31263 45.9099 7.1585 46.3774 7.37244 46.9946C7.74741 48.068 8.31102 49.0212 9.08856 49.8972C8.79871 50.1718 8.49965 49.8609 8.2351 49.9471L8.26501 49.9562Z" fill="#0B1111"/>
<path d="M47.338 65.0315C47.8142 64.85 47.805 64.4211 47.8533 64.0307C47.9637 63.1548 48.0534 62.2765 48.1615 61.3983C48.249 60.7016 48.4974 60.048 48.7781 59.408C48.9161 59.0926 49.0817 58.7862 49.459 58.616C49.7373 58.9337 49.7442 59.3059 49.7281 59.6781C49.7212 59.8642 49.6867 60.0502 49.6476 60.2341C49.3693 61.5435 49.1231 62.8507 49.1185 64.2009C49.1162 65.0293 48.6607 65.676 47.9177 66.0868C47.0366 66.5724 46.1303 66.9945 45.0905 66.9991C43.5147 67.0082 41.9412 66.9469 40.3884 66.6541C39.7166 66.5271 39.0817 66.2933 38.4698 66.0051C37.3288 65.4673 37.0205 64.7365 37.4645 63.5882C37.8441 62.6124 38.3732 61.7046 38.8701 60.7833C39.1599 60.2499 39.4659 59.7257 39.6476 59.1016C36.8273 59.6349 34.0461 59.0268 31.2303 59.0653C31.2809 59.2764 31.3246 59.4307 31.3568 59.585C31.6214 60.8627 31.4466 61.2825 30.347 62.0246C30.0065 62.2538 29.6407 62.4331 29.2381 62.5102C27.9821 62.7508 26.7169 62.8892 25.4378 62.6873C24.7431 62.5761 24.0368 62.5193 23.3536 62.3287C22.8015 62.1767 22.2747 61.9724 21.7778 61.6933C20.7817 61.135 20.4551 60.4723 20.6598 59.3558C20.7564 58.8293 20.8553 58.2983 21.0302 57.7945C21.1659 57.4041 21.0371 57.268 20.6874 57.1636C19.9536 56.9435 19.2749 56.6121 18.6906 56.1151C18.4422 55.9041 18.2052 55.6817 18.0718 55.3776C18.0074 55.2278 17.9752 55.0644 18.1178 54.9351C18.2558 54.808 18.4146 54.8307 18.5733 54.8965C18.6239 54.9169 18.6745 54.9396 18.7159 54.9714C19.4843 55.5274 20.3976 55.6794 21.2901 55.9064C23.1006 56.3693 24.8995 56.8822 26.7399 57.2181C28.3134 57.5063 29.9076 57.6742 31.5041 57.7786C33.2639 57.8943 35.0283 57.9624 36.7905 58.0645C37.6692 58.1167 38.5273 58.0373 39.3555 57.74C39.7442 57.5993 40.133 57.5222 40.5931 57.6129C40.7541 56.5304 41.2993 55.6703 42.162 55.0168C42.8912 54.4676 43.724 54.1476 44.6442 54.1181C45.9669 54.0772 47.0182 54.6673 47.361 55.6635C46.9745 55.5501 46.6318 55.4389 46.2821 55.3481C44.4555 54.8806 42.7854 55.5841 41.8514 57.1999C41.6582 57.5335 41.5754 57.9738 41.0394 57.9896C40.8185 57.9965 40.8899 58.2415 40.8393 58.3777C40.715 58.7113 40.156 58.8248 40.1928 59.0109C40.2526 59.3082 40.3976 59.5964 40.3585 59.9209C40.3032 60.3816 40.0962 60.7901 39.8869 61.1963C39.3969 62.1517 38.8931 63.1003 38.41 64.058C38.2167 64.4392 38.2052 64.7842 38.7919 64.9589C38.923 64.564 39.0817 64.176 39.3716 63.8628C39.6131 63.6018 39.8754 63.3726 40.2204 63.2591C40.7863 63.0708 41.1636 63.266 41.3545 63.8333C41.4972 64.2509 41.4512 64.682 41.465 65.1087C41.4719 65.2948 41.4627 65.4854 41.4995 65.667C41.5225 65.7759 41.649 65.8009 41.764 65.8031C41.8998 65.8054 41.9527 65.7305 41.9504 65.6102C41.9412 65.3424 41.9113 65.0747 41.9228 64.8091C41.9435 64.3076 42.2011 63.94 42.675 63.7607C43.1627 63.5746 43.6481 63.595 44.0461 63.9649C44.49 64.378 44.8673 64.8681 44.8259 65.4945C44.796 65.9756 44.9892 66.0528 45.3826 65.9869C45.5045 65.8485 45.6702 65.7714 45.8289 65.6851C46.2821 65.44 46.7422 65.2063 47.2276 65.0247C47.2621 65.0293 47.3012 65.0293 47.338 65.0315Z" fill="#0C1111"/>
<path d="M29.6334 43.7811C28.6235 43.8083 27.6297 43.7289 26.6704 43.3772C26.3691 43.266 26.0424 43.207 25.7203 43.1638C24.37 42.9823 23.1945 42.3832 22.0604 41.6887C21.6164 41.4164 21.2552 41.0533 20.9883 40.6085C20.6847 40.107 20.5467 39.576 20.7284 38.9973C20.825 38.6909 20.9124 38.3823 21.0252 38.0827C21.5543 36.6802 22.0903 35.28 22.624 33.8798C22.6608 33.7822 22.7022 33.6778 22.7068 33.5734C22.7298 32.6453 23.4038 32.323 24.2136 32.2322C26.2564 32.003 28.2715 32.2368 30.2936 32.4592C31.9108 32.6362 33.528 32.8109 35.1544 32.8745C35.5639 32.8904 35.9688 32.9357 36.353 33.0742C37.1167 33.3533 37.6366 33.8412 37.7608 34.6832C37.9472 35.954 38.168 37.2203 38.359 38.4889C38.5775 39.9572 38.2324 41.2462 37.0937 42.2833C36.4013 42.9142 35.5317 43.1616 34.653 43.2932C32.9874 43.5406 31.3196 43.763 29.6334 43.7811Z" fill="#0C1111"/>
<path d="M8.2397 49.9334C8.28801 50.3328 8.16609 50.6459 7.83022 50.9069C7.51276 51.1543 7.22751 51.447 6.94915 51.7398C6.02668 52.7088 4.98688 53.5099 3.62732 54.0114C4.67632 54.5856 5.72532 54.9101 6.79963 55.1507C7.45985 55.2982 8.13388 55.3889 8.79641 55.5296C9.19898 55.6159 9.38302 55.4548 9.51184 55.0985C9.8178 54.2633 9.94662 53.3874 10.1652 52.5295C10.2526 52.1869 10.1721 51.7284 10.6506 51.6104C10.9358 51.5401 11.1106 51.9395 11.1659 52.6543C11.3039 54.4835 10.8852 56.1628 9.8247 57.6788C9.60846 57.9851 9.41292 58.3051 9.16218 58.6841C10.2227 58.8339 10.3768 59.6281 10.4849 60.4247C10.5355 60.7901 10.4849 61.1736 10.4573 61.5458C10.4458 61.7001 10.4619 61.7977 10.6253 61.8476C10.8254 61.9089 10.8576 61.7659 10.8852 61.6411C10.9772 61.2213 11.0853 60.806 11.2993 60.4292C11.4304 60.1978 11.5546 59.9504 11.7295 59.753C12.3621 59.0472 13.3352 59.206 13.7009 60.0684C13.9241 60.5949 13.9494 61.16 13.9816 61.7228C13.9954 61.9702 13.7953 62.365 14.3083 62.3764C14.7821 62.3877 14.6924 62.0564 14.6947 61.7614C14.697 61.1123 14.9754 60.5677 15.4171 60.1047C16.0083 59.4852 16.8778 59.4716 17.2298 60.3861C17.2689 60.486 17.308 60.5858 17.3586 60.6811C17.3931 60.747 17.4461 60.806 17.4898 60.8695C17.7451 60.7628 17.66 60.5473 17.6646 60.3839C17.6738 59.7144 17.6393 59.0449 17.6715 58.3755C17.706 57.6788 17.89 57.0206 18.3984 56.476C18.6837 56.7302 18.6676 57.0433 18.6607 57.3225C18.64 58.237 18.7642 59.138 18.8493 60.0434C18.9942 61.6184 18.3915 62.542 16.8847 63.0504C15.8496 63.3999 14.7936 63.6155 13.6871 63.4725C12.3414 63.3 10.9979 63.1253 9.72578 62.6192C9.14377 62.3877 8.58707 62.1131 8.08327 61.7432C7.26892 61.1418 7.03887 60.4497 7.33563 59.4829C7.59558 58.6342 8.01426 57.8512 8.43984 57.0728C8.58017 56.8164 8.7826 56.5917 8.86312 56.2377C6.6754 56.4669 4.77754 55.634 2.89808 54.7444C2.52081 54.5652 2.02622 54.4335 1.99631 53.9207C1.96411 53.3692 2.4794 53.2648 2.85898 53.0878C4.21853 52.4456 5.41246 51.5696 6.51667 50.5665C7.00667 50.1217 7.52887 49.7382 8.26501 49.9492C8.26501 49.9561 8.2397 49.9334 8.2397 49.9334Z" fill="#0C1111"/>
<path d="M46.2773 52.5863C45.9253 52.6635 45.5227 52.6204 45.1317 52.6022C43.9331 52.5523 42.8749 52.9494 41.9663 53.6643C40.1903 55.06 38.1636 55.6999 35.9299 55.6659C33.8181 55.6341 31.6902 55.6273 29.5991 55.3731C27.2941 55.0917 24.9982 54.6447 22.7737 53.9366C22.2308 53.7642 21.6971 53.5576 21.2715 53.165C21.076 52.9835 20.8367 52.7815 21.0415 52.4842C21.214 52.2323 21.4602 52.3231 21.6971 52.4184C23.1694 53.0107 24.7383 53.1764 26.2865 53.4351C26.8754 53.5327 27.4689 53.5985 28.0394 53.7732C29.0125 54.0728 30.0063 54.1454 31.0139 54.1091C32.6978 54.0478 34.3794 54.0456 36.0541 54.2271C37.3102 54.3633 38.4627 53.9639 39.6267 53.6166C40.1075 53.4737 40.4411 53.1015 40.7976 52.7702C41.6189 52.0031 42.523 51.3836 43.6916 51.261C44.6716 51.1589 45.5135 51.4312 46.1807 52.1665C46.2635 52.2641 46.3808 52.3594 46.2773 52.5863Z" fill="#0C1212"/>
<path d="M65.8082 37.3383C64.3635 37.4904 63.0269 37.0411 61.6559 36.9004C60.5056 36.7823 59.4313 36.4397 58.4122 35.9154C57.9522 35.6794 57.5312 35.3889 57.1539 35.0372C56.9538 34.8488 56.7881 34.6355 56.703 34.3768C56.634 34.1703 56.5949 33.9434 56.8456 33.8163C57.0665 33.7028 57.17 33.8458 57.2896 34.0182C57.5335 34.3677 57.9407 34.4857 58.3202 34.6196C60.1882 35.28 62.1344 35.6477 64.0598 36.0879C64.9915 36.299 65.9577 36.2218 66.8986 36.0902C68.104 35.9223 69.3324 35.8882 70.4964 35.4729C71.3936 35.1529 71.6076 34.8897 71.6306 33.9592C71.6444 33.3919 71.4925 32.845 71.412 32.2912C71.3384 31.7874 71.2602 31.2836 71.2303 30.7776C71.2096 30.4417 71.3775 30.3441 71.6973 30.4803C72.2471 30.714 72.6267 31.1202 72.8383 31.6717C73.3651 33.0469 73.1304 34.3564 72.438 35.6091C72.2517 35.9449 71.9319 36.1378 71.5684 36.2967C69.9788 36.9911 68.2926 37.2135 66.5811 37.3361C66.3119 37.3542 66.0382 37.3383 65.8082 37.3383Z" fill="#0C1212"/>
<path d="M22.4125 48.8214C22.7921 48.4446 23.2154 48.6035 23.6111 48.7555C24.6486 49.1481 25.6999 49.4954 26.7581 49.8244C27.9589 50.1943 29.185 50.3713 30.4411 50.3827C31.987 50.3963 33.5237 50.6074 35.0742 50.5574C35.6309 50.5393 36.1439 50.4462 36.6362 50.1898C36.9467 50.0287 37.2734 49.8948 37.5977 49.7631C37.9773 49.6088 38.3201 49.4091 38.5984 49.0982C39.3484 48.2608 40.2985 47.7933 41.4142 47.6322C41.8973 47.5618 42.3758 47.4643 42.8588 47.4098C43.4593 47.3417 44.0344 47.428 44.5658 47.7479C44.5083 48.0543 44.2552 48.0679 44.0735 48.1292C43.0751 48.4651 42.0698 48.7828 41.0645 49.105C40.494 49.2888 39.9971 49.5929 39.4979 49.9265C38.1084 50.8547 36.5717 51.4198 34.8786 51.4833C32.4057 51.5764 29.9488 51.4039 27.5218 50.9364C26.2635 50.6936 25.0903 50.1989 23.9837 49.5634C23.4708 49.2684 22.9578 48.9802 22.3918 48.7964L22.4125 48.8214Z" fill="#0C1212"/>
<path d="M52.6564 64.0966C51.7455 64.2668 50.8621 63.7313 49.9074 63.788C49.7142 63.7993 49.5002 63.7154 49.5002 63.4839C49.5025 63.2116 49.7418 63.1231 49.9603 63.1367C50.8069 63.1843 51.6282 62.9778 52.4632 62.9211C52.9509 62.8871 53.434 62.8235 53.9194 62.7645C54.2507 62.7237 54.5382 62.5784 54.8074 62.3878C55.1363 62.154 55.2352 61.8568 55.111 61.4755C54.9615 61.0125 54.7429 60.5859 54.4968 60.1683C54.1816 59.6373 53.8734 59.1017 53.5812 58.5593C53.4823 58.3733 53.388 58.1736 53.3949 57.9489C53.4087 57.5132 53.8021 57.2794 54.1954 57.4746C54.2437 57.4973 54.2944 57.5268 54.3266 57.5654C55.2352 58.6955 56.2198 59.7735 56.3532 61.328C56.4361 62.297 56.0588 62.9846 55.2766 63.5066C54.4968 64.0263 53.6249 64.1579 52.6564 64.0966Z" fill="#0C1212"/>
<path d="M9.84738 46.6134C9.75996 46.0006 10.1073 45.8508 10.4754 45.7533C11.0919 45.5876 11.7176 45.6307 12.3272 45.7987C13.3831 46.0869 14.3838 46.5112 15.2442 47.183C16.7809 48.3835 18.1635 49.7406 19.3827 51.2656C19.1734 51.4676 19.0215 51.3019 18.872 51.2247C18.1451 50.8526 17.5032 50.3556 16.8729 49.845C16.2219 49.3185 15.5755 48.7852 14.9221 48.2609C13.8708 47.419 12.6378 46.9311 11.3657 46.5339C10.8757 46.3842 10.3765 46.3183 9.84738 46.6134Z" fill="#0D1313"/>
<path d="M15.9897 54.3973C15.7252 54.479 15.6423 54.311 15.5342 54.2067C15.0833 53.7755 14.7176 53.2785 14.3702 52.7656C14.0688 52.3208 13.779 51.8692 13.4707 51.4289C12.5253 50.0877 11.7431 49.8721 10.2133 50.5303C10.1144 50.5734 10.027 50.6369 9.92806 50.68C9.57609 50.8321 9.35065 50.6823 9.37595 50.3124C9.40126 49.9516 9.6336 49.7201 9.92806 49.5726C11.26 48.9054 12.9876 48.6898 14.0688 50.3896C14.8694 51.6513 15.4767 52.9971 15.9897 54.3973Z" fill="#0E1313"/>
<path d="M61.0874 26.9605C61.0966 27.403 61.0115 27.7071 60.8022 27.9704C60.3927 28.4901 59.7486 28.5581 59.231 28.1338C58.4557 27.4983 58.2924 25.9801 58.9112 25.1995C59.254 24.766 59.7163 24.6979 60.1994 25.0202C60.9448 25.5126 61.0207 26.291 61.0874 26.9605Z" fill="#0C1212"/>
<path d="M69.3253 26.1005C69.3069 25.54 69.5186 25.0521 69.8544 24.6254C70.3582 23.9877 71.1174 24.0717 71.4854 24.7888C71.5821 24.9772 71.6465 25.1837 71.7293 25.3788C72.1112 26.2752 71.9225 26.888 71.0967 27.4304C70.5193 27.8094 70.0293 27.7186 69.6405 27.1558C69.4242 26.8381 69.323 26.484 69.3253 26.1005Z" fill="#0E1313"/>
<path d="M22.3921 48.7987C22.3921 49.3252 22.7326 49.8018 22.6567 50.3397C22.4542 50.3578 22.422 50.2126 22.3576 50.1014C21.7066 48.978 20.883 47.9886 19.9537 47.0808C19.857 46.9878 19.7328 46.9129 19.6638 46.804C19.4637 46.4885 19.6753 46.1322 20.0549 46.1436C20.4046 46.1527 20.6599 46.3501 20.8922 46.5884C21.3684 47.074 21.7181 47.6436 22.0425 48.2337C22.1529 48.4356 22.169 48.6989 22.4105 48.8237C22.4128 48.8214 22.3921 48.7987 22.3921 48.7987Z" fill="#121717"/>
<path d="M45.8816 65.8487C45.7528 66.0279 45.5642 66.003 45.3801 65.9894C44.9223 65.2541 45.2099 64.0263 45.9506 63.5611C46.3509 63.3092 46.7351 63.3659 46.9904 63.7676C47.2274 64.1466 47.4321 64.5551 47.3401 65.0317L47.3654 65.0271C47.2067 65.1156 47.0571 65.0453 46.9122 64.9931C46.6339 64.891 46.3923 64.5392 46.0565 64.8297C45.7252 65.1111 45.7758 65.481 45.8816 65.8487Z" fill="#151919"/>
<path d="M64.2645 32.6883C63.7699 32.5589 63.2983 32.3184 62.9786 31.8554C62.8037 31.6013 62.852 31.3403 63.0729 31.1338C63.2661 30.9545 63.5077 30.9114 63.7423 31.0543C64.2622 31.3698 64.4945 31.8736 64.6096 32.4341C64.6556 32.6452 64.4991 32.7064 64.2645 32.6883Z" fill="#191E1E"/>
<path d="M67.9888 31.1634C67.9842 30.9478 68.0095 30.7662 68.1061 30.6005C68.3178 30.2397 68.817 30.1331 69.1505 30.3781C69.4565 30.6005 69.5071 31.0567 69.2448 31.3608C69.1597 31.4584 69.047 31.5423 68.932 31.6013C68.7042 31.7148 68.5064 32.003 68.2211 31.851C67.9474 31.708 68.044 31.3835 67.9888 31.1634Z" fill="#131818"/>
<path d="M39.0196 24.7297C38.8701 25.2494 38.4537 25.4695 38.219 25.8235C37.8763 26.3387 37.5519 26.8652 37.2252 27.3894C36.9538 27.8251 36.6432 28.2268 36.2568 28.5717C35.6517 29.1118 35.0053 29.4159 34.1335 29.3524C32.4564 29.2321 30.7679 29.4954 29.0863 29.3025C28.3318 29.2162 27.5749 29.1822 26.8273 29.0188C25.9945 28.8373 25.3159 28.4356 24.75 27.8342C23.9586 26.9945 23.188 26.1344 22.3391 25.2085C23.8229 24.7433 25.2308 24.3098 26.6823 24.0307C28.686 23.6426 30.7127 23.4497 32.7509 23.4225C34.9248 23.3953 37.0021 23.865 39.0196 24.7297Z" fill="white"/>
<path d="M48.6605 37.815C47.5264 38.5208 46.3508 38.8295 45.1753 39.1313C44.568 39.2856 43.9607 39.4036 43.3281 39.3219C42.7575 39.247 42.2423 39.0224 42.0145 38.4981C41.3336 36.9345 40.4065 35.4662 40.0798 33.7574C39.9487 33.0675 40.0476 32.4525 40.4272 31.842C41.2922 30.4418 42.2745 29.1392 43.4201 27.95C43.7007 27.6596 43.871 27.6006 44.1884 27.916C44.7865 28.5128 45.2834 29.1574 45.663 29.9131C46.3623 31.3065 46.9881 32.718 47.248 34.2703C47.4573 35.5252 47.9197 36.6917 48.6605 37.815Z" fill="white"/>
<path d="M12.5781 37.4291C13.7629 34.0682 14.9867 30.8366 17.5333 28.1973C18.58 29.046 18.8767 30.1648 18.7203 31.3517C18.557 32.5908 18.1843 33.8026 17.6207 34.9396C17.4182 35.3458 17.225 35.7588 17.0387 36.1741C16.7258 36.8686 16.1806 37.2725 15.4307 37.3724C14.5243 37.4926 13.6133 37.4949 12.5781 37.4291Z" fill="white"/>
<path d="M22.0168 57.613C24.752 58.0851 27.3952 58.6751 30.1121 58.8657C30.0729 59.4649 29.9901 59.9732 30.1282 60.4611C30.234 60.8333 30.0522 61.0058 29.7808 61.1737C29.3092 61.4664 28.7893 61.6094 28.2418 61.6412C26.3462 61.7569 24.5105 61.4188 22.7161 60.8537C21.8029 60.5655 21.6993 60.3408 21.819 59.4353C21.8972 58.8567 21.9478 58.2712 22.0168 57.613Z" fill="white"/>
<path d="M44.2806 66.0029C43.74 66.0937 43.2661 66.0188 42.7899 65.9757C42.5346 65.953 42.3827 65.835 42.4563 65.5627C42.5691 65.1474 42.4724 64.5664 43.036 64.4461C43.648 64.3168 43.6986 64.934 43.924 65.2881C44.0528 65.4855 44.1357 65.7056 44.2806 66.0029Z" fill="#F7F9F9"/>
<path d="M45.8815 65.8486C45.7159 65.8418 45.5755 65.8214 45.5571 65.6035C45.5226 65.2041 45.7964 64.6663 46.1369 64.4575C46.3094 64.3531 46.4359 64.3917 46.5601 64.5165C46.7879 64.7502 47.0915 64.8592 47.363 65.0248C46.9857 65.506 46.3439 65.5196 45.8815 65.8486Z" fill="#FCFCFC"/>
<path d="M39.332 65.279C39.5989 64.7434 39.8611 64.3349 40.4155 64.1715C40.6755 64.614 40.6456 65.1042 40.8273 65.5286C40.5536 65.7555 40.3373 65.5377 40.1165 65.5104C39.8818 65.4809 39.6564 65.3765 39.332 65.279Z" fill="#E9E9E9"/>
<path d="M26.9925 33.6529C29.4701 33.6824 31.9569 33.8662 34.4183 34.2906C34.6047 34.3224 34.7933 34.3519 34.9774 34.3927C35.771 34.5698 36.2771 34.8784 36.3369 35.8542C36.4036 36.9344 36.7901 37.9942 37.0063 39.0699C37.2916 40.486 36.7303 41.4097 35.3477 41.8431C35.1154 41.9157 34.8761 41.9929 34.6369 42.0065C32.6079 42.12 30.5927 42.4649 28.5499 42.3356C28.3866 42.3265 28.2187 42.3447 28.0645 42.3038C26.3093 41.8635 24.5035 41.5912 22.8954 40.6789C21.8626 40.0934 21.7199 39.8029 22.0351 38.6683C22.4446 37.2 22.9231 35.7476 23.1462 34.2339C23.2129 33.7891 23.3624 33.6711 23.9583 33.6688C24.9681 33.6665 25.9688 33.569 26.9925 33.6529Z" fill="white"/>
<path d="M9.98564 61.5753C9.42664 61.4573 9.03786 61.2168 8.66749 60.9558C8.1798 60.6108 8.1568 60.393 8.49036 59.8914C8.56397 59.7802 8.64449 59.6713 8.74111 59.5805C9.2518 59.0972 9.54626 59.1743 9.7464 59.8483C9.90513 60.3862 9.96724 60.9354 9.98564 61.5753Z" fill="#F8F9F9"/>
<path d="M13.1625 62.3334C12.5115 62.2403 11.941 62.1609 11.2646 62.0656C11.5982 61.4529 11.8122 60.8606 12.2745 60.4044C12.592 60.0935 12.7622 60.1298 12.898 60.5406C12.9739 60.7675 13.0245 61.0035 13.0567 61.2395C13.105 61.5731 13.1257 61.9113 13.1625 62.3334Z" fill="#F8FAFA"/>
<path d="M17.2318 61.6252C16.4635 62.045 15.8607 62.2107 15.0901 62.2311C15.1982 61.6388 15.4352 61.1191 15.8745 60.697C16.1391 60.4428 16.3898 60.4247 16.6245 60.731C16.8361 61.0056 17.0754 61.2621 17.2318 61.6252Z" fill="#F5F6F6"/>
</svg>
