<svg width="80" height="80" viewBox="0 0 80 80" fill="none" xmlns="http://www.w3.org/2000/svg">
<rect width="80" height="80" fill="white"/>
<path d="M37.8963 75.3723C31.16 75.7048 26.1425 74.397 22.7552 72.9058C21.0202 72.1703 19.519 70.9553 18.1891 69.8974C16.9014 68.8737 16.1015 67.4611 15.5272 65.9277C15.4707 65.7766 15.4304 65.6194 15.3922 65.4642C15.2813 65.0229 15.1282 64.6239 14.7473 64.3177C14.3866 64.0295 14.2214 63.5922 14.1126 63.1469C14.0582 62.9273 14.0159 62.7056 13.9635 62.486C13.9232 62.3127 13.8184 62.2159 13.633 62.1918C13.1232 62.1253 12.829 61.7827 12.6859 61.3334C12.5408 60.8759 12.4079 60.4024 12.3696 59.9268C12.2426 58.343 12.3756 56.7733 12.6779 55.2136C12.96 53.7547 13.3267 52.324 13.9292 50.9578C14.0159 50.7603 14.0965 50.5125 14.0562 50.313C13.8325 49.2249 14.2053 48.2818 14.7191 47.369C15.102 46.6899 15.5937 46.0955 16.1921 45.5917C16.3392 45.4668 16.4883 45.3418 16.6133 45.1947C16.6536 45.1484 16.6475 44.9852 16.6113 44.963C15.3841 44.2396 15.4929 43.1051 15.7226 41.9706C15.8637 41.2775 16.1579 40.6206 16.5266 40.01C17.3206 38.6982 18.3825 37.6181 19.5271 36.6207C19.9079 36.2882 20.4076 36.0947 20.853 35.8348C21.0787 35.7018 21.0988 35.5789 20.9174 35.3754C20.7683 35.2061 20.589 35.061 20.46 34.8776C20.2384 34.5633 20.0349 34.2348 19.8434 33.9003C19.6621 33.584 19.7366 33.1749 20.1658 33.048C20.1961 33.0399 20.2283 33.0298 20.2565 33.0137C20.5124 32.8747 20.5225 32.8344 20.3411 32.5885C20.1699 32.3548 19.9643 32.1432 19.8152 31.8974C19.4968 31.3775 19.1885 30.8475 18.9064 30.3075C18.6948 29.9004 18.6384 29.4471 18.6525 28.9917C18.6686 28.5483 18.8701 28.3388 19.2933 28.2965C19.3578 28.2904 19.4223 28.2884 19.4868 28.2924C20.2202 28.3468 20.0832 28.1514 19.8757 27.6456C19.654 27.1035 19.4868 26.5474 19.4303 25.9711C19.392 25.5923 19.4243 25.2013 19.4666 24.8205C19.525 24.3107 19.785 23.9862 20.3492 24.0024C20.5124 24.0064 20.5729 23.8956 20.5568 23.7505C20.5306 23.5268 20.4641 23.3072 20.454 23.0835C20.4318 22.5838 20.6877 22.3238 21.2096 22.2956C21.3386 22.2876 21.4676 22.3057 21.5965 22.3097C21.7557 22.3117 21.8242 22.2291 21.8141 22.074C21.8121 22.0417 21.8061 22.0095 21.8061 21.9772C21.8041 21.542 21.7073 21.2155 21.2258 21.0241C20.3411 20.6735 20.3613 20.0609 20.998 19.4584C21.4152 19.0655 21.9149 18.7531 22.3965 18.4348C22.6625 18.2595 22.9708 18.1466 23.2569 17.9975C23.3073 17.9713 23.3597 17.9088 23.3698 17.8544C23.3778 17.8161 23.3275 17.7456 23.2851 17.7234C23.0574 17.6066 22.8076 17.524 22.594 17.3869C22.2635 17.1733 22.2051 16.7965 22.4046 16.4519C22.6141 16.0852 22.9627 15.9139 23.3456 15.8333C23.9118 15.7144 24.4841 15.6318 25.0564 15.5492C25.4453 15.4948 25.4654 15.4847 25.5219 15.0757C25.5823 14.6283 25.6065 14.1709 25.7254 13.7397C25.9128 13.0606 26.5495 12.6838 27.2226 12.8349C27.4624 12.8893 27.6961 13.0324 27.9016 13.1775C28.5122 13.6067 29.155 13.9674 29.8562 14.2213C30.0013 14.2737 30.1081 14.183 30.092 14.0359C30.0517 13.6853 29.9812 13.3346 29.9872 12.984C29.9913 12.7745 30.088 12.5488 30.1968 12.3614C30.3399 12.1176 30.628 12.039 30.8738 12.1699C31.2426 12.3654 31.5932 12.5951 31.9539 12.8087C32.1333 12.9155 32.2683 12.8551 32.2622 12.6415C32.2441 11.9664 32.5504 11.4687 33.0763 11.0818C33.441 10.8138 33.7977 10.8279 34.1121 11.1624C34.2853 11.3478 34.4324 11.5674 34.5473 11.7951C34.7367 12.1679 34.8899 12.5588 35.0551 12.9437C35.2244 13.3346 35.2747 13.3729 35.571 13.115C36.0143 12.7261 36.4052 12.8389 36.7699 13.1855C37.0218 13.4253 37.2233 13.7256 37.4188 14.0178C37.5417 14.2031 37.6283 14.4187 37.7009 14.6303C37.8097 14.9467 38.0051 15.0696 38.3457 15.0958C39.4036 15.1784 40.4655 15.259 41.5154 15.4142C42.668 15.5855 43.7642 15.9683 44.8181 16.466C45.0196 16.5608 45.2311 16.6353 45.4427 16.7058C45.475 16.7159 45.5757 16.6353 45.5717 16.6131C45.5314 16.4257 45.485 16.2383 45.4206 16.055C45.2594 15.5875 45.2473 15.1059 45.2835 14.6223C45.2936 14.4973 45.3339 14.3704 45.3803 14.2515C45.4588 14.05 45.751 13.9533 45.9546 14.048C46.2891 14.2072 46.5168 14.4792 46.6981 14.7855C46.9782 15.257 47.2361 15.7386 47.5041 16.2162C47.6613 16.4943 47.7117 16.5205 48.0482 16.4338C49.2693 16.1195 50.4804 16.2383 51.6773 16.5567C51.9514 16.6293 52.2153 16.7764 52.4592 16.9295C52.6163 17.0282 52.7493 17.1854 52.8501 17.3426C53.0677 17.6811 52.9891 18.0378 52.6546 18.2715C52.2758 18.5355 51.8426 18.6584 51.3831 18.6826C51.0285 18.7007 50.6738 18.7048 50.3212 18.7169C50.293 18.7169 50.2426 18.741 50.2446 18.7491C50.2527 18.8075 50.2507 18.8902 50.2869 18.9164C50.4441 19.0292 50.6174 19.1159 50.7746 19.2267C51.6773 19.8473 52.6224 20.4156 53.4647 21.1087C54.1317 21.6568 54.6777 22.35 55.2641 22.9928C55.4596 23.2064 55.6309 23.4462 55.7759 23.6961C56.0097 24.0971 56.2979 24.3087 56.7936 24.216C57.0394 24.1696 57.3094 24.2099 57.5613 24.2502C58.1578 24.3449 58.3713 24.5646 58.4358 25.2054C58.4701 25.5338 58.5205 25.6386 58.9335 25.5519C59.3426 25.4673 59.7537 25.3726 60.1688 25.3242C60.4186 25.294 60.6846 25.3061 60.9285 25.3605C61.3738 25.4613 61.5612 25.7535 61.5148 26.2189C61.4624 26.7469 61.3012 27.2285 60.8479 27.561C60.7693 27.6174 60.6947 27.6799 60.6242 27.7463C60.5194 27.8451 60.5476 27.9821 60.6887 28.0446C61.0413 28.2018 61.406 28.3347 61.7466 28.5161C62.1818 28.7478 62.2443 29.1972 61.9078 29.5659C61.5954 29.9085 61.1824 30.0919 60.7673 30.2712C60.5698 30.3559 60.5476 30.4989 60.7229 30.5936C61.3174 30.914 61.9158 31.2284 62.5183 31.5347C62.6614 31.6072 62.8266 31.6314 62.9717 31.6999C63.7757 32.0767 64.0055 33.0177 63.4594 33.725C63.3223 33.9003 63.143 34.0454 62.9758 34.1966C62.7601 34.39 62.5345 34.5734 62.3168 34.7648C62.1798 34.8857 62.1617 35.0127 62.2564 35.188C62.5143 35.6696 62.7581 36.1592 62.9878 36.6549C63.0805 36.8564 63.1531 37.0821 63.1732 37.3018C63.1914 37.5194 63.1692 37.7572 63.0946 37.9587C62.9475 38.3556 62.5264 38.5148 62.1395 38.3415C61.9642 38.2629 61.809 38.1441 61.6378 38.0514C61.5854 38.0231 61.4765 37.999 61.4604 38.0211C61.4101 38.0896 61.3637 38.1823 61.3698 38.2629C61.396 38.5833 61.4443 38.9037 61.4786 39.2241C61.5431 39.8045 61.539 40.3848 61.3798 40.951C61.3274 41.1344 61.2529 41.3178 61.1521 41.477C61.001 41.7168 60.7592 41.8094 60.4811 41.749C60.326 41.7147 60.1446 41.6785 60.0378 41.5757C59.5159 41.086 59.0968 41.479 58.6575 41.7127C58.6252 41.7288 58.6031 41.8356 58.6252 41.8659C58.7159 41.9968 58.8368 42.1077 58.9255 42.2407C59.2257 42.684 59.1351 43.1112 58.6736 43.3893C58.4822 43.5041 58.2645 43.5767 58.057 43.6633C57.8938 43.7318 57.922 43.8326 57.9885 43.9615C58.2968 44.5701 58.2847 44.7212 57.8777 45.1484C57.7447 45.2874 57.6016 45.4224 57.4424 45.5313C56.9326 45.8758 56.9568 45.8879 57.3759 46.4018C58.057 47.236 58.593 48.1468 58.7421 49.239C58.7764 49.4929 58.8449 49.775 58.7683 50.0007C58.6172 50.45 58.7663 50.8228 58.9295 51.2097C59.8705 53.4323 60.3139 55.7657 60.4328 58.1637C60.461 58.742 60.4509 59.3264 60.4066 59.9027C60.3743 60.3157 60.2897 60.7329 60.1708 61.1318C60.0076 61.6799 59.7214 62.1313 59.0786 62.224C58.9839 62.2381 58.8892 62.3691 58.8247 62.4658C58.7744 62.5424 58.7603 62.6472 58.7461 62.7419C58.6373 63.4673 58.3693 64.1081 57.7749 64.5736C57.5814 64.7247 57.5371 64.9423 57.4807 65.164C57.1865 66.3347 56.6485 67.3906 55.9593 68.378C55.4374 69.1256 54.845 69.7946 54.0793 70.3004C53.9443 70.389 53.8133 70.4837 53.6904 70.5865C52.1045 71.8902 50.293 72.789 48.3887 73.5224C45.3601 74.5078 40.0645 75.2917 37.8963 75.3723ZM36.3447 74.8967C36.8928 74.8967 37.4429 74.9269 37.987 74.8907C38.789 74.8363 39.593 74.7637 40.389 74.6469C41.7572 74.4453 43.1214 74.2217 44.4815 73.9698C45.207 73.8348 45.9183 73.6192 46.6377 73.4418C47.1052 73.327 47.5928 73.2645 48.0422 73.1013C49.8013 72.4565 51.4899 71.6686 52.975 70.4978C53.2531 70.2782 53.5372 70.0646 53.8314 69.8671C54.3473 69.5226 54.7866 69.0954 55.1614 68.6097C55.7135 67.8964 56.2152 67.1428 56.5679 66.3065C56.7432 65.8914 56.8883 65.4642 57.0233 65.035C57.118 64.7348 57.0031 64.5977 56.6384 64.5171C56.3845 64.4607 56.3281 64.501 56.2696 64.8053C56.2213 65.0592 56.1769 65.3131 56.1487 65.569C56.048 66.4959 55.655 67.2939 55.0908 68.0213C54.8672 68.3115 54.5851 68.507 54.2485 68.644C53.9906 68.7468 53.7548 68.779 53.5211 68.5976C53.3277 68.4505 53.235 68.5755 53.1745 68.7407C52.9952 69.2243 52.8098 69.7039 52.4934 70.121C52.173 70.5422 51.7902 70.8726 51.2743 71.0258C50.7685 71.1769 50.4522 71.0137 50.3716 70.4737C50.3151 70.0989 50.3554 69.7079 50.3635 69.3231C50.3776 68.7125 50.432 68.0999 50.4139 67.4914C50.3917 66.7518 50.3172 66.0123 50.2567 65.2728C50.168 64.2109 49.9484 63.1711 49.7187 62.1333C49.6421 61.7847 49.4567 61.5792 49.1323 61.4301C48.8462 61.2991 48.5499 61.1278 48.3384 60.9021C47.5182 60.0215 46.8513 59.0422 46.5389 57.8554C46.3757 57.2327 46.1903 56.6161 46.0049 55.9995C45.9707 55.8826 45.9183 55.7295 45.8276 55.6771C45.4931 55.4917 45.1445 55.2358 44.7858 55.2096C44.4574 55.1854 44.3848 55.661 44.1672 55.8907C44.1007 55.9612 44.0523 56.0479 43.9858 56.1164C43.2806 56.8599 42.4625 57.2992 41.3985 57.0473C41.3663 57.0393 41.336 57.0332 41.3038 57.0272C40.8242 56.9486 40.8242 56.9486 40.5582 57.4141C40.4313 57.6377 40.3346 57.8896 40.1693 58.081C39.5326 58.8145 38.8736 59.5319 37.7815 59.5097C37.5638 59.5057 37.4208 59.5984 37.322 59.7918C37.0339 60.354 36.5362 60.7228 36.0626 61.1097C35.5448 61.5308 34.9967 61.5288 34.4607 61.146C34.2531 60.9989 34.0516 60.8256 33.8985 60.6241C33.6869 60.344 33.5176 60.0296 33.3463 59.7213C33.2456 59.542 33.1549 59.3989 32.9091 59.4432C32.4315 59.5299 32.097 59.284 31.8552 58.9153C31.6436 58.5929 31.4481 58.2564 31.297 57.9037C31.0693 57.3717 30.8819 56.8216 30.6824 56.2796C30.5535 55.931 30.5212 55.8967 30.1323 55.9894C29.3867 56.1647 28.7379 56.0055 28.1555 55.5038C27.8089 55.2056 27.5087 54.8771 27.2669 54.4922C27.2004 54.3874 27.1258 54.2424 26.9767 54.3209C26.9203 54.3492 26.9022 54.4902 26.9042 54.5809C26.9203 55.6972 26.5616 56.735 26.2634 57.7889C26.0035 58.7057 25.5622 59.5178 24.9879 60.2634C24.5929 60.7752 24.1939 61.281 23.537 61.4905C23.271 61.5752 23.128 61.7908 23.0736 62.0628C22.9406 62.7258 22.7673 63.3827 22.6786 64.0517C22.5577 64.9766 22.5093 65.9116 22.4126 66.8405C22.3199 67.7412 22.2857 68.64 22.4368 69.5387C22.5013 69.9235 22.4872 70.3084 22.3461 70.6832C22.2272 70.9956 21.9874 71.1366 21.663 71.0681C21.0988 70.9512 20.6676 70.6308 20.323 70.1815C20.0066 69.7664 19.787 69.3049 19.6258 68.8092C19.5371 68.5372 19.519 68.5513 19.1462 68.6561C18.9991 68.6964 18.8258 68.7327 18.6868 68.6944C18.3079 68.5936 17.9775 68.4002 17.7276 68.0818C17.1594 67.3604 16.7443 66.5725 16.6314 65.6456C16.5911 65.3272 16.5367 65.0088 16.4783 64.6925C16.442 64.503 16.3533 64.4688 16.1115 64.5252C15.7569 64.6078 15.6682 64.7388 15.7508 65.0612C15.7589 65.0914 15.767 65.1237 15.775 65.1539C16.2224 66.6289 16.976 67.9266 18.0117 69.0631C18.2273 69.3009 18.4712 69.5185 18.7251 69.712C19.2631 70.121 19.8233 70.5019 20.3673 70.9049C21.7275 71.9144 23.2751 72.5492 24.8387 73.1517C28.5666 74.5844 34.1564 74.8282 36.3447 74.8967ZM51.4577 48.8299C51.2844 48.8158 50.9942 48.7896 50.7061 48.7695C50.5449 48.7594 50.4743 48.8521 50.5469 49.0113C50.6255 49.1886 50.7443 49.3558 50.6537 49.5553C50.5509 49.779 50.3454 49.8959 50.1197 49.9301C49.8033 49.9785 49.4728 50.041 49.1625 49.9966C48.4633 49.8959 47.754 49.7931 47.085 49.5775C46.2608 49.3115 45.4447 48.9992 44.7193 48.4994C44.4533 48.3161 44.4433 48.3322 44.1632 48.5599C43.6937 48.9407 43.5365 48.9589 43.0488 48.6627C42.3778 48.2576 41.8217 47.7236 41.3381 47.1131C41.0197 46.7081 40.7255 46.2849 40.4212 45.8698C40.264 45.6562 40.2479 45.6522 39.9618 45.8013C39.5326 46.0229 39.319 46.0068 39.0107 45.7187C38.6983 45.4285 38.4666 45.0779 38.3155 44.6849C38.1301 44.2053 37.9669 43.7157 37.7936 43.2321C37.7392 43.083 37.713 42.9056 37.6162 42.7928C37.4873 42.6437 37.3241 42.819 37.1749 42.825C36.913 42.8351 36.7034 42.692 36.6007 42.3999C36.3508 41.6906 36.2581 40.9611 36.3649 40.2115C36.4052 39.9254 36.4455 39.6392 36.4818 39.3511C36.4858 39.3249 36.4616 39.2765 36.4394 39.2685C36.385 39.2483 36.3024 39.2161 36.2702 39.2402C36.0687 39.3974 35.8631 39.5566 35.6838 39.738C35.17 40.2578 34.5352 40.5581 33.8521 40.7717C33.3544 40.9268 33.2677 40.8886 32.9373 40.3747C32.8285 40.2055 32.7096 40.1752 32.5403 40.2276C32.2642 40.3143 31.9922 40.4251 31.7101 40.4815C31.1761 40.5863 30.6542 40.7777 30.094 40.7435C29.7998 40.7253 29.5197 40.6871 29.2699 40.5117C29.0281 40.3405 29.014 40.0846 28.9918 39.8246C28.9797 39.6715 28.8669 39.613 28.7278 39.609C28.4699 39.6009 28.212 39.5909 27.954 39.5969C27.3072 39.611 26.6624 39.5747 26.0377 39.3994C25.5763 39.2705 25.1229 39.1012 24.6755 38.9239C24.4116 38.8191 24.2967 38.5833 24.3108 38.2992C24.3169 38.1723 24.341 38.0433 24.3733 37.9204C24.4136 37.7693 24.3632 37.6947 24.2242 37.6242C23.7083 37.3602 23.1985 37.0902 22.6927 36.8061C22.3038 36.5884 21.927 36.3466 21.5441 36.1169C21.1169 36.3386 20.6817 36.5461 20.2666 36.7899C20.0207 36.935 19.793 37.1244 19.5835 37.3239C19.1643 37.7249 18.7432 38.1259 18.3644 38.5652C17.9231 39.075 17.4878 39.6009 17.1211 40.1652C16.571 41.0115 16.2244 41.9465 16.1397 42.9641C16.1075 43.3631 16.1659 43.7358 16.4279 44.0562C16.6899 44.3746 17.0264 44.5378 17.4415 44.5157C17.8163 44.4975 17.9916 44.2315 18.1306 43.9273C18.4994 43.1172 19.1422 42.5208 19.7487 41.9001C19.8354 41.8115 19.9563 41.751 20.0711 41.7006C20.1134 41.6825 20.2021 41.7127 20.2384 41.751C20.2726 41.7873 20.2988 41.884 20.2746 41.9162C19.9865 42.3011 19.7104 42.7001 19.39 43.0568C18.8601 43.6472 18.5135 44.3283 18.31 45.0839C17.8425 46.829 18.2797 48.3282 19.5674 49.5876C19.8837 49.8979 20.2545 50.0571 20.7038 49.9986C20.9074 49.9725 21.0625 49.8334 21.0887 49.6279C21.1431 49.1805 21.1935 48.7332 21.2378 48.2838C21.2862 47.7942 21.4393 47.3368 21.6731 46.9116C21.7618 46.7484 21.9129 46.6174 22.0479 46.4864C22.0761 46.4582 22.1769 46.4622 22.2111 46.4904C22.2514 46.5247 22.2877 46.6093 22.2736 46.6577C22.199 46.9015 22.1104 47.1433 22.0197 47.3831C21.7194 48.1831 21.6308 49.0113 21.7053 49.8556C21.8323 51.3084 23.1945 52.9245 24.5949 53.2993C24.6876 53.3235 24.7843 53.3416 24.8791 53.3618C25.2861 53.4545 25.6428 53.3275 25.9712 53.1018C26.205 52.9426 26.2553 52.7694 26.1828 52.5275C25.9773 51.8505 25.7717 51.1694 25.6266 50.4782C25.542 50.0752 25.5682 49.648 25.5561 49.2329C25.5541 49.1926 25.6266 49.1201 25.6669 49.1181C25.7173 49.1161 25.7939 49.1624 25.8161 49.2087C25.8705 49.3236 25.9067 49.4485 25.9349 49.5715C26.082 50.1981 26.213 50.8288 26.3722 51.4515C26.6765 52.6263 27.287 53.6499 28.0185 54.599C28.2301 54.8731 28.5263 55.0947 28.8145 55.2942C28.9918 55.4171 29.2235 55.4937 29.4411 55.526C30.0557 55.6186 30.4124 55.2499 30.3399 54.6373C30.2834 54.1577 30.223 53.6781 30.1988 53.1986C30.1887 53.0152 30.2653 52.8258 30.3197 52.6444C30.3338 52.6001 30.4205 52.5537 30.4708 52.5558C30.5132 52.5578 30.5817 52.6263 30.5877 52.6726C30.6603 53.2147 30.7046 53.7628 30.7932 54.3008C31.0129 55.6086 31.3514 56.8841 31.9841 58.0609C32.1192 58.3128 32.2965 58.5465 32.4778 58.7682C32.6088 58.9274 32.8808 58.883 32.9655 58.6997C33.0179 58.5848 33.0259 58.4518 33.0703 58.3329C33.0904 58.2765 33.1388 58.206 33.1871 58.1959C33.2254 58.1878 33.308 58.2483 33.3282 58.2967C33.4592 58.6251 33.5801 58.9576 33.705 59.2901C33.8904 59.7777 34.1503 60.2231 34.5332 60.5797C34.9584 60.9727 35.3815 60.9807 35.839 60.6321C36.4959 60.1283 37.0097 59.5258 37.1729 58.6856C37.2838 58.1173 37.3906 57.5491 37.4913 56.9788C37.5256 56.7894 37.5296 56.5939 37.5638 56.4045C37.5719 56.3582 37.6606 56.2796 37.6827 56.2897C37.7654 56.3199 37.8802 56.3682 37.9004 56.4347C38.0535 56.9425 37.9789 57.4564 37.9044 57.9662C37.8681 58.2201 37.8077 58.472 37.7674 58.7239C37.7472 58.8448 37.8903 58.9777 38.0051 58.9596C38.0999 58.9455 38.2067 58.9435 38.2852 58.8992C38.9341 58.5324 39.5285 58.1193 39.8953 57.4241C40.4897 56.2957 40.8383 55.1008 40.9693 53.8373C40.9915 53.6137 41.0136 53.39 41.0499 53.1683C41.0559 53.128 41.1325 53.0736 41.1789 53.0696C41.2333 53.0656 41.3179 53.0978 41.3401 53.1401C41.3985 53.2509 41.4469 53.3739 41.467 53.4988C41.5617 54.0812 41.4831 54.6554 41.3481 55.2217C41.2816 55.5038 41.1869 55.7778 41.1164 56.0599C41.0519 56.3199 41.1768 56.5033 41.4348 56.5456C42.3093 56.6927 43.0347 56.4126 43.5728 55.7214C44.3385 54.7381 44.8705 53.6479 44.9631 52.3804C44.9893 52.0278 45.0135 51.6732 45.0578 51.3225C45.0659 51.254 45.1526 51.1855 45.2191 51.1412C45.2352 51.1291 45.3299 51.1976 45.3581 51.248C45.4044 51.3286 45.4468 51.4233 45.4568 51.516C45.5294 52.1265 45.5435 52.7391 45.3722 53.3376C45.2654 53.7084 45.1425 54.0751 45.0176 54.4398C44.9551 54.6232 45.0155 54.7542 45.1707 54.8449C46.0553 55.3567 47.218 55.3023 47.9253 54.5507C48.3303 54.1215 48.687 53.6761 48.8986 53.126C49.0598 52.7049 49.2028 52.2777 49.36 51.8545C49.4305 51.6651 49.6482 51.4978 49.6844 51.5805C49.7328 51.6933 49.7872 51.8283 49.767 51.9412C49.6985 52.32 49.6099 52.6948 49.5071 53.0656C49.4466 53.2812 49.3217 53.4807 49.2693 53.6963C49.2451 53.799 49.2895 53.9582 49.362 54.0388C49.9262 54.6716 50.7927 54.5225 51.3106 54.1718C51.8647 53.795 52.3645 53.3134 52.57 52.6263C52.6707 52.2878 52.7473 51.9412 52.84 51.5986C52.9226 51.2883 53.0093 50.98 53.108 50.6757C53.1221 50.6334 53.2128 50.5931 53.2652 50.5951C53.3095 50.5971 53.3861 50.6616 53.3861 50.6999C53.3841 51.0525 53.368 51.4072 53.3539 51.7598C53.3377 52.1306 53.5654 52.3744 53.9382 52.3442C54.0914 52.3321 54.2667 52.2837 54.3815 52.191C54.577 52.0298 54.7624 51.8384 54.8974 51.6248C55.5624 50.5891 55.3709 49.5352 54.9155 48.4914C54.8389 48.3181 54.6717 48.3141 54.5044 48.3906C53.5674 48.8057 52.5821 48.8964 51.4577 48.8299ZM51.2118 48.2697C51.2118 48.2818 51.2139 48.2939 51.2139 48.308C51.8567 48.2838 52.4995 48.2697 53.1423 48.2294C53.5654 48.2032 53.9624 48.0743 54.3271 47.8486C54.5971 47.6813 54.6193 47.4254 54.3634 47.2239C54.2143 47.105 54.049 46.9962 53.8758 46.9216C53.6722 46.833 53.4465 46.7927 53.237 46.7161C53.1584 46.6879 53.0435 46.6174 53.0355 46.5569C53.0153 46.3917 53.1685 46.3655 53.2914 46.3333C53.3538 46.3171 53.4203 46.3191 53.4828 46.303C54.2344 46.1217 54.9881 45.9544 55.7336 45.7509C56.3946 45.5716 56.9991 45.2733 57.4767 44.7635C57.6741 44.554 57.6479 44.3847 57.3961 44.2195C57.2107 44.0965 56.9971 43.9958 56.852 43.8366C56.7633 43.7379 56.7331 43.5404 56.7593 43.3993C56.7734 43.3207 56.9427 43.2401 57.0555 43.2139C57.4001 43.1354 57.7547 43.1011 58.0953 43.0145C58.2384 42.9782 58.4116 42.8794 58.4741 42.7585C58.5547 42.6034 58.3996 42.4684 58.2766 42.3636C58.1054 42.2165 57.928 42.0795 57.7608 41.9283C57.6439 41.8215 57.654 41.6039 57.7829 41.5011C57.8817 41.4205 57.9865 41.344 58.1013 41.2896C58.3593 41.1687 58.6756 41.1183 58.8751 40.9369C59.1371 40.6971 58.8046 40.4009 58.8227 40.1228C58.8267 40.0664 58.859 39.9919 58.9033 39.9637C58.9497 39.9354 59.0283 39.9354 59.0867 39.9516C59.3265 40.0201 59.4413 40.2236 59.5461 40.4211C59.7335 40.7798 60.0015 41.0397 60.3723 41.2009C60.5657 41.2855 60.7894 41.213 60.8479 41.0236C60.9043 40.8402 60.9506 40.6508 60.9708 40.4614C61.0856 39.4216 60.9768 38.402 60.6484 37.4086C60.5879 37.2252 60.4912 37.0519 60.4448 36.8665C60.4166 36.7557 60.4549 36.6287 60.461 36.5078C60.5476 36.5401 60.6484 36.5562 60.7189 36.6086C61.13 36.9169 61.533 37.2373 61.944 37.5476C62.0468 37.6242 62.1576 37.6907 62.2705 37.7511C62.4075 37.8257 62.6251 37.6826 62.609 37.5234C62.5929 37.3662 62.5748 37.203 62.5183 37.0559C62.2725 36.4272 62.0529 35.7864 61.6337 35.2383C61.4504 34.9965 61.4806 34.7547 61.6881 34.5371C61.8876 34.3275 62.1133 34.1442 62.3269 33.9487C62.5183 33.7754 62.7158 33.6102 62.8972 33.4268C63.2135 33.1044 63.2035 32.4374 62.6453 32.2339C62.4639 32.1674 62.2765 32.111 62.1073 32.0183C61.5713 31.7261 61.0373 31.4299 60.5134 31.1155C60.3521 31.0188 60.2111 30.8757 60.0841 30.7327C59.8826 30.507 59.9028 30.2349 60.1345 30.0576C60.3139 29.9206 60.5073 29.8057 60.6967 29.6848C60.8861 29.5639 61.0816 29.4531 61.267 29.3262C61.4342 29.2113 61.4282 29.038 61.2589 28.9493C60.8599 28.7378 60.4589 28.5403 59.9834 28.5524C59.7617 28.5584 59.532 28.5242 59.3184 28.4597C59.2217 28.4295 59.129 28.2965 59.0907 28.1897C59.0686 28.1272 59.129 27.9942 59.1935 27.9438C59.3688 27.8048 59.5643 27.6919 59.7537 27.571C59.9693 27.432 60.193 27.303 60.4045 27.1539C60.6504 26.9806 60.7995 26.7368 60.8741 26.4446C60.9647 26.092 60.7995 25.8522 60.4489 25.8764C60.2252 25.8905 60.0035 25.9409 59.7819 25.9751C59.2096 26.0678 58.6414 26.1786 58.0671 26.2471C57.7265 26.2874 57.5814 26.1061 57.6439 25.7857C57.6741 25.6285 57.7386 25.4774 57.7688 25.3182C57.8192 25.0562 57.6963 24.9071 57.4162 24.8527C56.8963 24.752 56.3785 24.8144 55.8888 24.9716C55.0304 25.2477 54.1881 25.5661 53.3397 25.8723C53.0778 25.9671 52.8178 26.2653 52.5498 26.0779C52.2073 25.8401 52.5881 25.5661 52.6264 25.3061C52.6466 25.163 52.568 25.0603 52.4209 25.0603C51.8546 25.0663 51.3469 25.2779 50.8693 25.5499C50.2809 25.8844 49.7167 26.2572 49.1444 26.6179C48.9268 26.7549 48.7232 26.9141 48.4996 27.0431C48.4331 27.0814 48.2961 27.0774 48.2416 27.033C48.1812 26.9826 48.1449 26.8577 48.161 26.7751C48.2074 26.5232 48.2961 26.2774 48.3424 26.0255C48.417 25.6064 48.2618 25.423 47.8326 25.4149C47.6089 25.4109 47.3752 25.4069 47.1596 25.4613C46.2226 25.7011 45.3017 25.9832 44.5037 26.5696C43.9596 26.9706 43.3954 27.3454 42.8292 27.7181C42.5148 27.9237 42.3315 27.835 42.3234 27.4804C42.3093 26.9 42.273 26.3177 42.3154 25.7394C42.3919 24.6814 42.134 23.69 41.7894 22.7147C41.6746 22.3883 41.467 22.0901 41.2736 21.7959C41.1466 21.6024 40.9512 21.5964 40.7738 21.7395C40.6751 21.8201 40.5824 21.9128 40.4877 21.9974C40.2801 22.1808 40.1633 22.6059 39.857 22.5072C39.462 22.3802 39.6756 21.9531 39.6575 21.6548C39.6232 21.1087 39.6454 20.5586 39.6111 20.0126C39.587 19.6277 39.5346 19.2408 39.4439 18.868C39.3693 18.5597 39.2283 18.2655 39.1034 17.9693C39.0409 17.8222 38.8898 17.804 38.8011 17.9229C38.7064 18.0519 38.6399 18.2071 38.527 18.3179C38.4464 18.3965 38.2953 18.4751 38.2046 18.4489C38.1099 18.4227 38.0213 18.2816 37.983 18.1708C37.9306 18.0217 37.9366 17.8544 37.9064 17.6952C37.7251 16.6776 37.451 15.6842 37.0863 14.719C36.9372 14.324 36.7377 13.9573 36.4173 13.6691C36.2359 13.5059 36.0767 13.4938 35.9175 13.6611C35.7846 13.8001 35.6697 13.9573 35.5367 14.0963C35.3513 14.2938 35.1035 14.2858 34.9705 14.056C34.8113 13.778 34.6863 13.4797 34.5453 13.1916C34.3055 12.6999 34.0738 12.2042 33.8158 11.7226C33.709 11.5211 33.4995 11.5191 33.3221 11.6601C33.0844 11.8495 32.9171 12.0793 32.905 12.3896C32.8929 12.6777 32.901 12.9679 32.901 13.2581C32.901 13.516 32.9151 13.7719 32.903 14.0298C32.895 14.2112 32.5907 14.3422 32.4516 14.2172C32.2602 14.05 32.0768 13.8666 31.9217 13.6651C31.7 13.379 31.4461 13.1352 31.1197 12.984C30.9847 12.9216 30.8235 12.8873 30.6744 12.8954C30.6421 12.8974 30.5958 13.1211 30.5938 13.242C30.5938 13.5644 30.626 13.8868 30.624 14.2072C30.62 14.7331 30.4064 14.9104 29.9006 14.8157C29.7454 14.7855 29.5943 14.721 29.4432 14.6686C28.8326 14.453 28.2603 14.1588 27.7243 13.7961C27.5651 13.6873 27.41 13.5664 27.2347 13.4898C26.8901 13.3407 26.4891 13.5039 26.3541 13.8525C26.2735 14.0601 26.2291 14.2858 26.1969 14.5054C26.1546 14.7915 26.1546 15.0857 26.1103 15.3719C26.0236 15.9361 25.8543 16.057 25.2942 16.1195C24.6554 16.19 24.0186 16.2887 23.3899 16.4177C23.2267 16.4499 23.0151 16.6131 22.9688 16.7602C22.8942 16.994 23.1521 17.0424 23.3275 17.1089C23.4484 17.1552 23.5672 17.2056 23.6882 17.2459C24.1153 17.3869 24.5446 17.5199 24.9717 17.665C25.0241 17.6831 25.1007 17.7456 25.0987 17.7839C25.0967 17.8323 25.0342 17.9048 24.9818 17.9209C24.7702 17.9935 24.5526 18.0499 24.337 18.1103C23.2327 18.4186 22.2353 18.9285 21.399 19.7184C20.9376 20.1516 21.0323 20.4881 21.655 20.6816C21.8363 20.738 22.0338 20.744 22.2252 20.7561C22.4167 20.7682 22.6141 20.736 22.8035 20.7662C22.9164 20.7843 23.0655 20.8649 23.1078 20.9576C23.2106 21.1873 22.9809 21.1893 22.8499 21.2478C22.7612 21.2861 22.6665 21.3123 22.5799 21.3526C22.3381 21.4694 22.2655 21.6266 22.328 21.9007C22.3844 22.1505 22.4731 22.3944 22.5033 22.6462C22.5396 22.9666 22.334 23.1258 22.0257 23.0452C21.8081 22.9888 21.5945 22.9122 21.3749 22.8618C21.1069 22.8014 20.9235 22.9928 21.0202 23.2568C21.1653 23.6477 21.3608 24.0205 21.5079 24.4094C21.5461 24.5102 21.528 24.6814 21.4635 24.756C21.395 24.8366 21.2237 24.895 21.123 24.8668C20.8792 24.8023 20.6494 24.6794 20.4117 24.5827C20.2726 24.5263 20.0711 24.625 20.0369 24.7762C20.0026 24.9333 19.9744 25.0925 19.9643 25.2517C19.918 25.9409 20.059 26.5978 20.3029 27.2365C20.5789 27.9579 20.861 28.6773 21.1331 29.4007C21.1512 29.4511 21.1331 29.5639 21.1048 29.574C21.0303 29.6002 20.9114 29.6204 20.8671 29.5801C20.5044 29.2556 20.1336 28.9534 19.6459 28.8325C19.3739 28.764 19.2087 28.8869 19.2006 29.1629C19.1865 29.5639 19.3235 29.9226 19.4747 30.2793C19.8575 31.184 20.4903 31.9195 21.0907 32.6772C21.2499 32.8787 21.4212 33.0722 21.5723 33.2797C21.6892 33.4409 21.5804 33.7089 21.387 33.7331C21.1955 33.7573 21.0021 33.7472 20.8106 33.7593C20.6091 33.7714 20.5144 33.9165 20.6031 34.0716C20.6837 34.2107 20.7603 34.3537 20.863 34.4766C21.929 35.7643 23.2166 36.7597 24.7743 37.3864C24.8932 37.4348 25.01 37.4851 25.1269 37.5416C25.2881 37.6181 25.3103 37.7068 25.1914 37.8237C25.1229 37.8922 25.0342 37.9385 24.9677 38.009C24.7602 38.2307 24.7783 38.4403 25.0342 38.541C25.4231 38.6922 25.814 38.8534 26.2211 38.936C27.4301 39.1838 28.6472 39.2463 29.8643 38.9743C29.9227 38.9622 29.9973 38.9722 30.0477 39.0025C30.09 39.0266 30.1404 39.1073 30.1283 39.1395C30.0839 39.2564 30.0195 39.3672 29.9489 39.47C29.8442 39.6251 29.6225 39.746 29.691 39.9536C29.7817 40.2276 30.0618 40.1692 30.2693 40.1571C30.5897 40.141 30.9101 40.0886 31.2245 40.0261C32.2119 39.8246 33.1287 39.4357 33.9952 38.9239C34.1302 38.8433 34.2793 38.7828 34.4284 38.7325C34.4667 38.7204 34.5332 38.7788 34.5775 38.8171C34.5936 38.8312 34.5977 38.8916 34.5836 38.9098C34.4607 39.0569 34.3498 39.2221 34.2007 39.335C33.9367 39.5365 33.7373 39.7823 33.6063 40.0825C33.5902 40.1208 33.6244 40.1873 33.6506 40.2357C33.6607 40.2538 33.709 40.2659 33.7372 40.2599C33.8299 40.2397 33.9226 40.2176 34.0133 40.1873C34.6702 39.9677 35.176 39.5203 35.706 39.0952C36.8062 38.2166 36.6127 38.5914 36.6087 37.0861C36.6087 36.9894 36.6027 36.8927 36.5926 36.796C36.5704 36.536 36.4374 36.4514 36.2077 36.5804C35.2123 37.1345 34.1463 37.4791 33.0279 37.6806C32.762 37.729 32.5443 37.8277 32.4416 38.1098C32.2985 38.5027 31.9801 38.6055 31.5912 38.6055C30.9424 38.6055 30.3157 38.5309 29.6991 38.2871C29.1812 38.0816 28.6613 37.7632 28.0528 38.0715C27.944 38.1259 27.7344 38.0433 27.5974 37.9728C27.3979 37.87 27.2185 37.729 27.0392 37.5919C26.1606 36.9169 25.4151 36.125 24.8811 35.1436C24.7279 34.8595 24.6856 34.8676 24.3692 35.059C23.9662 35.3028 23.7023 35.2887 23.4705 34.922C23.267 34.6016 23.0736 34.2429 23.001 33.8762C22.8781 33.2475 22.8297 32.6006 22.7935 31.9598C22.7673 31.5105 22.8056 31.0571 22.8257 30.6077C22.8398 30.2752 22.862 29.9911 22.4328 29.846C22.1265 29.7433 22.1184 29.3806 22.1245 29.0904C22.1426 28.2421 22.326 27.428 22.6826 26.6582C23.0091 25.9529 23.4081 25.292 23.932 24.7137C24.067 24.5666 24.069 24.4376 23.9179 24.3107C23.8695 24.2684 23.807 24.2401 23.7647 24.1938C23.4242 23.819 23.4343 23.416 23.807 23.1077C23.9541 22.9868 24.1254 22.888 24.2947 22.7994C24.5224 22.6825 24.8387 22.6462 24.9758 22.4669C25.1632 22.2211 24.8529 21.9531 24.8226 21.677C24.7843 21.3223 25 21.0483 25.3768 21.0422C25.5682 21.0382 25.7616 21.0745 25.9551 21.0846C26.1526 21.0946 26.2574 20.9838 26.2553 20.7964C26.2453 20.2544 26.4286 19.7808 26.7611 19.3677C27.2528 18.7572 27.819 18.6786 28.4558 19.1159C28.5606 19.1884 28.6412 19.2952 28.7379 19.3778C28.9293 19.539 28.9978 19.5289 29.0623 19.2992C29.2114 18.7652 29.4029 18.2594 29.8079 17.8564C30.1605 17.5058 30.5575 17.2459 31.0673 17.2015C31.3736 17.1733 31.6476 17.3406 31.7524 17.6308C31.8169 17.8121 31.8612 18.0035 31.8955 18.193C32.0043 18.8055 32.0567 18.9143 32.5887 18.5516C32.6935 18.4811 32.8164 18.4307 32.9353 18.3844C33.4834 18.1647 34.0536 18.33 34.3801 18.8116C34.507 18.997 34.6198 19.1944 34.7206 19.3959C35.1075 20.1697 35.714 20.7339 36.4132 21.2155C36.8908 21.544 37.3704 21.8745 37.8278 22.2271C38.1059 22.4427 38.384 22.6765 38.6016 22.9505C39.5064 24.1011 40.1592 25.3948 40.6026 26.7872C40.8685 27.6214 40.9753 28.4859 40.9129 29.3644C40.8867 29.7171 40.8806 30.0717 40.8706 30.4264C40.8665 30.5836 41.0096 30.6722 41.1265 30.5876C41.3864 30.3982 41.6484 30.2108 41.8982 30.0072C42.5068 29.5136 43.1939 29.165 43.9234 28.8969C45.2412 28.4093 46.6115 28.2602 48.0059 28.2481C48.6588 28.2421 49.2875 28.3408 49.896 28.5826C50.4038 28.7841 50.9217 28.9675 51.4335 29.1589C52.0743 29.3987 52.7332 29.5297 53.4224 29.4712C53.7428 29.445 54.0672 29.4269 54.3876 29.4309C54.9679 29.437 55.4394 29.8319 55.5523 30.3921C55.5765 30.5171 55.5926 30.648 55.5886 30.777C55.5684 31.4198 55.6893 31.3674 56.181 31.18C56.3603 31.1115 56.5316 31.0148 56.715 30.9563C57.1764 30.8072 57.5411 31.0027 57.6822 31.4782C57.9079 32.2379 57.7749 32.9452 57.3356 33.5961C57.1925 33.8076 57.0132 33.995 56.8601 34.2006C56.8399 34.2268 56.8802 34.3416 56.9124 34.3517C57.0656 34.4001 57.2288 34.4122 57.382 34.4625C58.1517 34.7084 58.4761 35.2887 58.1981 36.0383C58.0671 36.391 57.8172 36.7033 57.5996 37.0176C57.5109 37.1446 57.3437 37.2151 57.2409 37.336C57.1966 37.3884 57.1905 37.5234 57.2268 37.5859C57.3235 37.7511 57.4626 37.8922 57.5673 38.0534C57.8353 38.4624 57.7265 38.7788 57.2631 38.9642C57.1744 39.0005 57.0736 39.0045 56.983 39.0347C56.6182 39.1556 56.6323 39.1556 56.6888 39.5889C56.7351 39.9375 56.7875 40.2941 56.7633 40.6407C56.7331 41.0719 56.3926 41.2896 55.9432 41.2271C55.8807 41.219 55.8223 41.1828 55.7598 41.1666C55.5724 41.1163 55.4495 41.1828 55.4011 41.3742C55.2097 42.1298 54.8792 42.8291 54.4984 43.5041C54.049 44.3041 53.4324 44.955 52.6587 45.4527C52.4289 45.6018 52.1589 45.6884 51.9332 45.5212C51.6209 45.2874 51.4073 45.4083 51.1736 45.6159C50.4159 46.2829 49.5393 46.7564 48.6386 47.1957C48.1953 47.4113 47.7359 47.5342 47.2402 47.506C46.8351 47.4839 46.6941 47.3629 46.5913 46.9438C46.4906 46.5368 46.4906 46.5348 46.1077 46.5287C45.882 46.5247 45.6563 46.5327 45.4306 46.5368C44.4473 46.5569 43.5204 46.295 42.6055 45.9685C42.2549 45.8436 41.9526 45.6723 41.9385 45.2431C41.9325 45.0577 41.8096 44.959 41.6806 44.8623C41.4751 44.7071 41.2857 44.5237 41.062 44.3988C40.4212 44.0361 40.0061 43.4678 39.5991 42.8815C39.3552 42.5288 39.2726 42.1863 39.5789 41.8256C39.6918 41.6946 39.722 41.5515 39.6394 41.3823C39.2726 40.6246 39.0288 39.8246 38.8293 39.0085C38.7346 38.6176 38.6157 38.5712 38.3094 38.7768C37.9608 39.0125 37.6062 39.2261 37.1951 39.347C37.0943 39.3773 36.9754 39.4962 36.9472 39.5969C36.7296 40.3929 36.7236 41.1888 37.0057 41.9727C37.0218 42.015 37.0964 42.0633 37.1387 42.0613C37.1911 42.0573 37.2596 42.011 37.2878 41.9646C37.457 41.6825 37.5094 41.3702 37.5316 41.0417C37.5417 40.8926 37.6303 40.7455 37.7009 40.6065C37.713 40.5803 37.8601 40.5843 37.8641 40.6004C37.9104 40.7515 37.9568 40.9047 37.9689 41.0619C38.0656 42.1943 38.2973 43.2925 38.7568 44.3343C38.8716 44.5983 39.0207 44.8502 39.1819 45.0879C39.2444 45.1827 39.3855 45.2794 39.4862 45.2753C39.5729 45.2713 39.6756 45.1363 39.73 45.0376C39.7905 44.9288 39.7985 44.7897 39.8389 44.6688C39.8792 44.5499 39.9235 44.4008 40.0847 44.429C40.1572 44.4411 40.2298 44.5338 40.2741 44.6084C40.3386 44.7172 40.3708 44.8482 40.4313 44.961C41.0962 46.1962 41.9345 47.2884 43.0891 48.1085C43.6231 48.4874 43.7017 48.443 43.8549 47.7619C43.8911 47.5987 43.9999 47.5322 44.1188 47.6108C44.3083 47.7317 44.4856 47.8728 44.679 47.9876C46.0593 48.7997 47.5323 49.3276 49.1444 49.4042C49.3661 49.4143 49.5897 49.3679 49.8134 49.3478C49.8799 49.0697 49.6079 48.979 49.5071 48.7936C49.4769 48.7372 49.4265 48.6929 49.3922 48.6385C49.2593 48.4289 49.4104 48.1549 49.6663 48.1649C50.1842 48.1972 50.698 48.2375 51.2118 48.2697ZM40.4494 29.1911C40.4817 28.5705 40.3789 27.9378 40.2257 27.3091C39.9718 26.2613 39.4701 25.3263 38.9603 24.3933C38.5049 23.5611 37.9185 22.8457 37.1044 22.3339C36.8042 22.1445 36.5241 21.9269 36.2319 21.7274C35.0491 20.9173 33.6969 20.881 32.3368 20.8831C32.2743 20.8831 32.2118 20.9133 32.1494 20.9294C31.4643 21.1047 30.759 21.2276 30.0981 21.4674C27.8976 22.2654 26.2755 23.7243 25.4211 25.9227C24.7904 27.5469 24.6675 29.2355 25.0705 30.9563C25.3385 32.1009 25.7213 33.2051 26.4609 34.1139C27.5994 35.5124 29.0059 36.5602 30.7892 37.0458C32.2925 37.4549 32.2884 37.4831 33.7997 37.0438C34.2632 36.9088 34.7287 36.7698 35.17 36.5784C35.5528 36.4151 35.9115 36.1915 36.2621 35.9658C36.4173 35.865 36.6006 35.7119 36.645 35.5466C36.7961 34.9764 37.2092 34.7205 37.7029 34.5089C37.9669 34.396 38.1986 34.2006 38.4666 34.0998C39.0248 33.8862 39.3311 33.4429 39.5809 32.9492C40.1733 31.7765 40.4937 30.5412 40.4494 29.1911ZM47.8527 28.6975C47.0568 28.7962 46.2528 28.8647 45.4629 29.0017C44.1753 29.2254 42.9964 29.7251 41.9587 30.5291C41.4489 30.9241 40.9693 31.3573 40.6549 31.9336C40.4232 32.3548 40.2459 32.8062 40.0162 33.2293C39.8187 33.592 39.7522 33.9386 39.9477 34.3235C40.0645 34.5512 40.1592 34.795 40.2278 35.0409C40.5199 36.0746 40.4414 37.0196 39.5285 37.7451C39.5044 37.7652 39.4822 37.7894 39.458 37.8096C39.2021 38.0151 39.1598 38.269 39.2243 38.5854C39.3996 39.4397 39.6434 40.272 39.9638 41.08C40.0686 41.342 40.2298 41.6039 40.4313 41.8014C41.7088 43.0527 43.0771 44.161 44.941 44.4048C45.0679 44.421 45.1868 44.4935 45.3117 44.5076C45.7913 44.56 46.2749 44.6608 46.7505 44.6305C49.6723 44.4472 51.9756 43.1092 53.6259 40.7173C54.706 39.1516 55.0546 37.3723 54.8007 35.4761C54.7201 34.8635 54.5246 34.2892 54.3654 33.7008C54.0793 32.653 53.5574 31.7523 52.834 30.9463C52.2194 30.2611 51.5282 29.711 50.6496 29.4128C50.3151 29.2979 49.9806 29.1811 49.6522 29.0521C49.0739 28.8264 48.4794 28.7095 47.8527 28.6975ZM50.0189 18.201C50.4643 18.1688 51.0748 18.1365 51.6814 18.0761C51.8667 18.0579 52.0461 17.9693 52.2234 17.8967C52.3544 17.8423 52.3705 17.6852 52.2798 17.5804C52.0602 17.3224 51.766 17.2036 51.4516 17.1189C50.3212 16.8126 49.1847 16.6071 48.026 16.9577C47.6613 17.0686 47.3852 16.9597 47.1878 16.6615C46.9238 16.2585 46.688 15.8353 46.4321 15.4283C46.3173 15.2449 46.2588 15.0071 46.0069 14.9386C45.8659 14.9003 45.7933 15.2026 45.886 15.6197C45.9546 15.9321 46.0634 16.2383 46.1762 16.5386C46.277 16.8086 46.418 17.0645 46.5168 17.3366C46.5429 17.4051 46.4946 17.5159 46.4503 17.5905C46.4301 17.6247 46.3273 17.6428 46.279 17.6227C45.741 17.4151 45.1969 17.2156 44.6689 16.9799C43.4277 16.4237 42.1562 15.9925 40.792 15.8575C40.2177 15.8011 39.6494 15.6822 39.0751 15.6036C38.8535 15.5734 38.6258 15.5613 38.4021 15.5573C38.1482 15.5532 38.0636 15.662 38.116 15.926C38.1663 16.1779 38.2328 16.4278 38.2973 16.6756C38.3961 17.0504 38.3981 17.0665 38.8595 17.0786C39.1537 17.0867 39.3492 17.2237 39.4882 17.4554C39.8409 18.0438 40.0585 18.6786 40.1129 19.3657C40.1572 19.9118 40.1975 20.4579 40.2439 21.0019C40.258 21.1551 40.3587 21.2478 40.5018 21.1773C41.1446 20.8649 41.5436 21.1873 41.8741 21.6891C41.997 21.8765 42.1239 22.0699 42.1985 22.2795C42.5793 23.3434 42.9038 24.4195 42.805 25.5761C42.7687 25.9932 42.7808 26.4124 42.7788 26.8315C42.7788 26.9786 42.9259 27.0632 43.0448 26.9806C43.4136 26.7227 43.7843 26.4668 44.137 26.1887C45.076 25.4512 46.1964 25.151 47.3187 24.8628C47.4719 24.8245 47.6391 24.8366 47.8003 24.8386C48.5338 24.8507 48.7091 24.9817 48.963 25.7192C49.0195 25.8824 49.1001 25.9207 49.2351 25.8401C49.6502 25.5943 50.0552 25.3283 50.4763 25.0945C51.1292 24.7318 51.8164 24.4658 52.576 24.4356C52.8843 24.4235 53.1302 24.5041 53.3135 24.7882C53.5392 25.1348 53.5614 25.1248 53.8979 25.0039C54.3815 24.8306 54.8651 24.6492 55.3488 24.4759C55.4898 24.4255 55.5886 24.3429 55.4818 24.2039C54.5387 22.9787 53.5856 21.7636 52.3242 20.8347C51.0506 19.8977 49.7449 19.0171 48.2175 18.5335C48.1046 18.4972 48.0059 18.4025 47.9212 18.3139C47.893 18.2856 47.9071 18.1587 47.9374 18.1426C48.018 18.1003 48.1187 18.068 48.2094 18.0741C48.7595 18.1063 49.3056 18.1486 50.0189 18.201ZM17.5805 46.2426C17.5805 45.9846 17.5825 45.7287 17.5805 45.4708C17.5785 45.3378 17.4153 45.2492 17.3044 45.3418C16.8591 45.7106 16.3896 46.0592 15.9926 46.4743C15.3639 47.1332 14.8783 47.901 14.6567 48.7916C14.5579 49.1906 14.5539 49.6178 14.5418 50.0309C14.5337 50.3069 14.7111 50.5044 14.9408 50.6535C15.0839 50.7462 15.2833 50.7241 15.366 50.585C15.4486 50.448 15.5231 50.3049 15.5916 50.1599C15.8012 49.7186 16.0692 49.3176 16.44 48.9972C16.5307 48.9186 16.6576 48.8763 16.7705 48.8259C16.7946 48.8158 16.845 48.8239 16.8591 48.842C16.8954 48.8863 16.9458 48.9468 16.9357 48.9891C16.9155 49.0798 16.8773 49.1785 16.8148 49.245C16.0108 50.1296 15.6501 51.2399 15.2531 52.326C15.1221 52.6847 15.0496 53.0736 15.0032 53.4545C14.9226 54.0953 15.1141 54.6696 15.5534 55.1431C15.6783 55.2781 15.8576 55.3728 16.0269 55.4595C16.1518 55.5219 16.2929 55.4756 16.3493 55.3426C16.4218 55.1653 16.4581 54.9738 16.5145 54.7905C16.7281 54.0993 17.1533 53.531 17.6047 52.9829C17.645 52.9326 17.8042 52.9144 17.8485 52.9507C17.8989 52.993 17.919 53.1301 17.8888 53.1986C17.8042 53.4061 17.7115 53.6177 17.5785 53.797C16.9115 54.6978 16.8027 55.7516 16.71 56.8176C16.6556 57.4403 16.8974 57.9601 17.2722 58.4155C17.6672 58.8951 18.177 59.2397 18.7654 59.4473C18.9407 59.5097 19.1422 59.5097 19.3316 59.5037C19.5553 59.4976 19.6903 59.3546 19.6963 59.1369C19.7064 58.6533 19.6903 58.1697 19.7165 57.6881C19.7447 57.1622 19.9139 56.6806 20.2968 56.2977C20.317 56.2776 20.3714 56.2614 20.3855 56.2735C20.4278 56.3058 20.4943 56.3602 20.4882 56.3944C20.4641 56.5516 20.4338 56.7108 20.3774 56.8599C20.1376 57.4785 20.1336 58.1234 20.1759 58.7682C20.2202 59.4271 20.4701 60.0195 20.8872 60.5334C21.2217 60.9444 21.7275 60.9908 22.191 61.0915C22.9829 61.2648 23.6378 60.9847 24.1718 60.3883C25.4735 58.9334 25.9773 57.1481 26.2775 55.2862C26.338 54.9093 26.3017 54.5144 26.2916 54.1275C26.2815 53.797 26.1929 53.7205 25.8826 53.8172C25.012 54.0872 24.2362 53.8897 23.4967 53.4061C22.5557 52.7915 21.8 52.0258 21.399 50.9538C21.3003 50.6878 21.1713 50.5326 20.8268 50.5991C20.2182 50.716 19.658 50.5145 19.2308 50.0873C18.179 49.0334 17.4112 47.8304 17.5805 46.2426ZM55.8001 50.0087C55.917 50.8208 55.647 51.5643 55.1049 52.2051C54.6596 52.7331 54.1256 53.0615 53.4143 52.6666C53.2632 52.582 53.1403 52.6585 53.1 52.7734C52.8884 53.3719 52.4833 53.8192 52.034 54.2424C51.1877 55.0403 50.2164 55.131 49.2411 54.4842C48.9409 54.2847 48.9248 54.2706 48.6809 54.5305C48.1429 55.1048 47.5787 55.6126 46.7324 55.665C46.5974 55.6731 46.5611 55.8423 46.5974 55.9773C46.7404 56.5053 46.9077 57.0272 47.0366 57.5571C47.3046 58.6513 47.9011 59.5561 48.6044 60.4084C48.8159 60.6644 49.0759 60.8356 49.3741 60.9706C50.16 61.3293 50.8854 61.0815 51.6007 60.7611C51.7398 60.6986 51.8688 60.5696 51.9494 60.4387C52.1186 60.1666 52.2879 59.8865 52.3967 59.5883C52.6909 58.7762 52.6687 57.9481 52.4612 57.1178C52.3987 56.87 52.3342 56.6242 52.2738 56.3763C52.2677 56.3521 52.298 56.2977 52.3161 56.2957C52.3705 56.2876 52.443 56.2796 52.4793 56.3098C52.5519 56.3682 52.6163 56.4448 52.6687 56.5234C52.9347 56.9425 53.0637 57.402 53.0657 57.8977C53.0657 58.2846 53.0617 58.6715 53.0677 59.0563C53.0717 59.3707 53.2329 59.5299 53.5433 59.5238C53.6702 59.5218 53.8052 59.5158 53.9221 59.4735C54.6979 59.1873 55.3508 58.748 55.7699 58.0065C55.9654 57.6619 56.0843 57.3073 56.0581 56.9043C55.9875 55.804 55.8646 54.724 55.1855 53.789C55.0384 53.5855 54.9558 53.3336 54.8591 53.0978C54.843 53.0575 54.8833 52.9668 54.9236 52.9406C54.9659 52.9124 55.0405 52.9265 55.0989 52.9346C55.1271 52.9386 55.1573 52.9648 55.1755 52.989C55.6389 53.5693 56.0782 54.1638 56.2858 54.8932C56.3301 55.0464 56.3603 55.2056 56.4228 55.3527C56.4832 55.4917 56.6243 55.5219 56.7472 55.4595C56.9145 55.3708 57.0918 55.2761 57.2167 55.1391C57.6782 54.6333 57.8595 54.0288 57.7507 53.3537C57.5492 52.0963 57.0293 50.9558 56.4188 49.8515C56.3261 49.6843 56.189 49.5392 56.054 49.4022C55.9976 49.3438 55.8928 49.3317 55.8102 49.2994C55.7981 49.3619 55.7759 49.4244 55.7759 49.4868C55.78 49.646 55.7901 49.8072 55.8001 50.0087ZM46.2447 46.0451C46.5953 46.0048 46.946 45.9544 47.2986 45.9323C47.347 45.9302 47.4538 46.0713 47.4477 46.1358C47.4356 46.2567 47.3611 46.3715 47.3046 46.4844C47.2261 46.6456 47.0145 46.8108 47.2059 46.9821C47.3006 47.0647 47.5102 47.0426 47.6633 47.0264C47.8205 47.0103 47.9797 46.9579 48.1268 46.8955C48.8401 46.5992 49.5494 46.293 50.164 45.8073C50.7202 45.368 51.2743 44.9288 51.8365 44.4955C52.0723 44.3142 52.2677 44.286 52.3503 44.3927C52.4692 44.5519 52.3705 44.693 52.3181 44.8401C52.308 44.8683 52.298 44.9126 52.3121 44.9328C52.3423 44.9771 52.4068 45.0497 52.4229 45.0416C52.5639 44.9691 52.7151 44.9005 52.8319 44.7958C54.0752 43.6794 54.843 42.3051 55.0646 40.6387C55.1029 40.3586 55.2198 40.2901 55.4455 40.4191C55.6651 40.544 55.8807 40.8059 56.1326 40.6508C56.4248 40.4714 56.2797 40.1329 56.2475 39.8609C56.2253 39.6715 56.1387 39.4921 56.0923 39.3047C56.0621 39.1798 56.0157 39.0448 56.0399 38.9259C56.0621 38.8211 56.1548 38.672 56.2434 38.6498C56.4913 38.5894 56.7533 38.5914 57.0072 38.5592C57.1543 38.541 57.2268 38.3919 57.1482 38.277C56.983 38.0393 56.8056 37.8116 56.6404 37.5738C56.5054 37.3783 56.5215 37.2091 56.6948 37.06C56.8419 36.935 57.0051 36.8323 57.1583 36.7134C57.4787 36.4635 57.6459 36.1189 57.7366 35.734C57.8152 35.4056 57.6217 35.063 57.3013 34.9744C57.1482 34.932 56.983 34.9381 56.8258 34.9079C56.5759 34.8595 56.32 34.8192 56.0802 34.7346C55.7558 34.6197 55.7135 34.3658 55.9654 34.1583C56.1628 33.995 56.3805 33.852 56.5679 33.6767C56.9568 33.3099 57.1825 32.8525 57.2328 32.3185C57.3034 31.5649 57.0797 31.3997 56.3784 31.6717C56.1387 31.7644 55.8948 31.851 55.649 31.9216C55.5281 31.9558 55.3951 31.9598 55.2682 31.9578C55.0707 31.9558 54.8954 31.7483 54.9538 31.5649C55.0525 31.2546 55.1392 30.9483 55.0828 30.6198C55.0102 30.1987 54.712 29.9166 54.2868 29.9367C53.8375 29.9569 53.3921 30.0193 52.9468 30.0818C52.8098 30.102 52.842 30.237 52.8944 30.3095C53.0052 30.4667 53.1322 30.6138 53.2652 30.7528C54.0128 31.5407 54.5105 32.4676 54.8027 33.5094C54.8631 33.727 54.9397 33.9386 55.0042 34.1542C55.6792 36.401 55.4535 38.5773 54.2747 40.5823C52.9992 42.7545 51.0909 44.1832 48.6326 44.8179C47.5706 45.092 46.4946 45.2995 45.3923 44.9973C44.8966 44.8623 44.3949 44.7474 43.8952 44.6245C43.3894 44.5016 42.93 44.2799 42.4846 44.0119C41.6504 43.5061 40.9391 42.8573 40.2741 42.154C40.1774 42.0513 40.0444 41.9888 39.9517 42.1218C39.8892 42.2125 39.8671 42.3636 39.8892 42.4744C39.9114 42.5933 40.0041 42.7001 40.0726 42.8069C40.6026 43.6452 41.3965 44.1953 42.1824 44.7575C42.3033 44.8441 42.4947 44.9852 42.4826 45.0779C42.4403 45.3862 42.6055 45.4708 42.8352 45.5494C43.9395 45.9383 45.0639 46.1922 46.2447 46.0451ZM23.2166 31.7785C23.2771 32.3145 23.3295 32.9895 23.4423 33.6545C23.4947 33.9608 23.6599 34.251 23.7909 34.5411C23.8494 34.6721 24.0347 34.6802 24.1113 34.5774C24.1496 34.525 24.1839 34.4726 24.2221 34.4202C24.3511 34.2489 24.3249 33.9205 24.599 33.9044C24.9355 33.8862 24.9335 34.2348 25.0403 34.4464C25.6428 35.6555 26.4971 36.6428 27.5994 37.4186C27.7283 37.5093 27.8775 37.6463 28.0306 37.5375C28.2905 37.3541 28.4961 37.465 28.7439 37.5617C29.1933 37.737 29.6648 37.8478 30.1202 38.009C30.62 38.1864 31.1318 38.1844 31.6476 38.1743C31.7121 38.1723 31.7988 38.1743 31.833 38.138C31.9136 38.0493 31.9882 37.9446 32.0204 37.8317C32.0305 37.7954 31.9177 37.6826 31.8451 37.6645C31.5005 37.5839 31.1499 37.5274 30.8033 37.4549C28.7459 37.0136 27.2185 35.7743 25.9128 34.2046C25.7697 34.0333 25.6569 33.8318 25.5541 33.6323C24.4055 31.4017 24.0307 29.0864 24.6876 26.6159C25.2962 24.3207 26.7188 22.7127 28.7218 21.5521C29.425 21.145 30.2069 20.9435 30.9786 20.7138C31.9519 20.4256 32.9272 20.2947 33.9327 20.5022C34.0899 20.5345 34.2511 20.5445 34.4123 20.5586C34.644 20.5768 34.7307 20.474 34.6279 20.2906C34.4385 19.9541 34.2491 19.6156 34.0456 19.2891C33.7413 18.8035 33.2859 18.6947 32.8264 19.0211C32.6209 19.1662 32.4637 19.3818 32.2824 19.5612C32.1413 19.7002 31.9056 19.668 31.7766 19.5068C31.5247 19.1904 31.4643 18.8035 31.3716 18.4307C31.1862 17.6872 30.9625 17.6046 30.3721 18.0982C29.961 18.4428 29.7071 18.8841 29.6306 19.4161C29.5983 19.6378 29.6044 19.8655 29.5862 20.0911C29.552 20.4821 29.3082 20.6211 29.0079 20.4035C28.8286 20.2745 28.6754 20.1052 28.5182 19.9461C28.4054 19.8312 28.3208 19.6881 28.1999 19.5854C27.9097 19.3335 27.4986 19.3556 27.2447 19.6378C26.9787 19.9319 26.8034 20.2705 26.7712 20.6715C26.7551 20.8629 26.7692 21.0604 26.7349 21.2478C26.7047 21.4191 26.5777 21.538 26.4024 21.546C26.1143 21.5601 25.8241 21.542 25.5339 21.544C25.413 21.544 25.3042 21.7112 25.3566 21.8241C25.4513 22.0256 25.5642 22.219 25.6669 22.4165C25.7758 22.6241 25.7213 22.7873 25.4997 22.876C25.2901 22.9586 25.0685 23.011 24.8629 23.0996C24.6292 23.2024 24.3995 23.3172 24.1818 23.4523C23.9924 23.5691 24.0166 23.7988 24.2221 23.9177C24.331 23.9822 24.4519 24.0306 24.5667 24.085C24.9375 24.2563 24.9677 24.3731 24.6917 24.6109C23.4081 25.7252 22.7794 27.166 22.5859 28.8244C22.5758 28.9191 22.5718 29.0279 22.6121 29.1065C22.6343 29.1508 22.7653 29.1831 22.8217 29.1609C22.9043 29.1267 22.9567 29.0239 23.0373 28.9735C23.1924 28.8768 23.3859 28.9634 23.3919 29.1327C23.4 29.3886 23.406 29.6486 23.3859 29.9045C23.3456 30.4808 23.2851 31.0571 23.2166 31.7785ZM55.7417 63.022C55.7195 62.627 55.6994 62.0467 55.647 61.4724C55.6006 60.9606 55.5362 60.4487 55.4455 59.945C55.3568 59.4553 55.2943 59.3566 54.843 59.6246C54.2808 59.9551 53.7065 60.2351 53.0214 59.9933C52.8743 59.9409 52.7231 60.1344 52.7574 60.3057C52.7937 60.4951 52.844 60.6805 52.8904 60.8679C53.2329 62.2119 53.4203 63.5761 53.4143 64.9665C53.4123 65.4481 53.4123 65.9337 53.4748 66.4093C53.5392 66.9151 53.6702 67.4128 53.7911 67.9105C53.8455 68.1322 54.047 68.1886 54.2445 68.0616C54.3513 67.9931 54.4742 67.9307 54.5528 67.8339C54.98 67.308 55.3548 66.7579 55.52 66.0788C55.7457 65.1297 55.7578 64.1685 55.7417 63.022ZM17.5765 59.4755C17.5281 59.5077 17.4536 59.5279 17.4374 59.5722C17.381 59.7213 17.3306 59.8765 17.3065 60.0336C17.0828 61.4663 16.972 62.9091 17.0324 64.358C17.0566 64.9322 17.1614 65.5065 17.2601 66.0748C17.381 66.7619 17.786 67.31 18.2173 67.8319C18.314 67.9488 18.4712 68.0254 18.6122 68.0979C18.7372 68.1624 18.8681 68.1301 18.9387 67.9992C18.9991 67.8863 19.0354 67.7614 19.0757 67.6405C19.3618 66.7377 19.3437 65.8007 19.3538 64.8718C19.3679 63.5459 19.5331 62.2462 19.8575 60.9626C19.9039 60.7752 19.9603 60.5918 20.0026 60.4024C20.0671 60.1122 19.9361 59.9409 19.66 60.0175C19.118 60.1666 18.6465 60.0236 18.185 59.7616C18.046 59.683 17.9049 59.6044 17.7619 59.5319C17.7034 59.5037 17.6369 59.4936 17.5765 59.4755ZM52.7977 63.429C52.7211 62.6653 52.57 61.9097 52.443 61.152C52.4189 61.0009 52.3121 60.9182 52.175 61.021C51.7519 61.3394 51.2501 61.4623 50.7544 61.5852C50.3151 61.694 50.2386 61.7968 50.3172 62.2603C50.3433 62.4175 50.3575 62.5787 50.3917 62.7358C50.8773 65.0108 51.0244 67.308 50.8612 69.6273C50.8491 69.7865 50.8451 69.9477 50.8552 70.1069C50.8773 70.4656 51.1433 70.5825 51.4657 70.385C51.8909 70.123 52.1912 69.7442 52.3947 69.3029C52.7433 68.5392 52.9992 67.7453 52.969 66.8889C52.9488 66.3126 52.8541 64.0013 52.7977 63.429ZM19.7971 66.6471C19.7366 67.5035 19.9583 68.3055 20.2706 69.0873C20.452 69.5407 20.718 69.9437 21.1069 70.248C21.2298 70.3427 21.3809 70.4072 21.528 70.4676C21.6691 70.5261 21.8706 70.4031 21.8827 70.246C21.9008 70.0243 21.9048 69.7986 21.8988 69.577C21.8827 68.9342 21.8202 68.2914 21.8424 67.6506C21.8968 65.9801 21.9814 64.3096 22.3864 62.6774C22.4408 62.4598 22.461 62.2341 22.4912 62.0104C22.5154 61.8291 22.4489 61.7082 22.2635 61.6497C21.8041 61.5066 21.3346 61.3878 20.8953 61.2004C20.3411 60.9626 20.325 60.9324 20.2364 61.4684C20.1155 62.1958 20.0187 62.9293 19.9563 63.6648C19.9119 64.1726 19.8313 66.1655 19.7971 66.6471ZM58.3975 61.4684C58.2948 60.5193 58.192 59.6246 58.1054 58.7279C58.0187 57.8171 57.7164 56.9748 57.3255 56.1587C57.2449 55.9914 57.1139 55.933 56.9306 55.9914C56.7512 56.0479 56.5356 56.0539 56.5397 56.3259C56.5437 56.5516 56.5316 56.7773 56.5477 57.001C56.5779 57.4705 56.4429 57.8896 56.1991 58.2826C56.1145 58.4196 56.044 58.5667 55.9452 58.6916C55.7659 58.9133 55.7417 59.143 55.8102 59.413C56.0178 60.2251 56.1407 61.0492 56.179 61.8875C56.2011 62.3691 56.2797 62.8487 56.2978 63.3283C56.3099 63.6749 56.455 63.9328 56.9265 64.0758C57.3013 64.1907 57.6459 64.0718 57.8474 63.7393C57.9804 63.5237 58.1074 63.2839 58.1577 63.0401C58.2666 62.5061 58.325 61.962 58.3975 61.4684ZM14.3604 61.3817C14.441 61.9459 14.4914 62.492 14.6083 63.022C14.6667 63.296 14.8219 63.556 14.969 63.8018C15.1121 64.0416 15.3599 64.1222 15.636 64.1061C16.1538 64.0738 16.4178 63.8018 16.4642 63.2456C16.577 61.9338 16.6294 60.614 16.972 59.3324C17.0344 59.0946 16.974 58.8971 16.8289 58.7037C16.3433 58.0609 16.1176 57.3435 16.2224 56.5335C16.2345 56.4388 16.2203 56.3421 16.2123 56.2453C16.2103 56.2131 16.2042 56.1647 16.1841 56.1567C16.043 56.0922 15.8999 56.0277 15.7529 55.9793C15.6017 55.931 15.4949 56.0257 15.4506 56.1466C15.2209 56.7451 14.9166 57.3335 14.8017 57.9541C14.5942 59.0906 14.4995 60.2472 14.3604 61.3817ZM12.8169 58.6231C12.8169 59.008 12.7827 59.3969 12.827 59.7777C12.8774 60.221 12.9741 60.6644 13.101 61.0915C13.1615 61.293 13.3267 61.4704 13.4698 61.6376C13.5161 61.692 13.6532 61.7122 13.7257 61.686C13.8023 61.6598 13.8788 61.5651 13.905 61.4845C13.9413 61.3656 13.9333 61.2326 13.9433 61.1036C13.9736 60.7208 13.9977 60.3359 14.034 59.953C14.163 58.605 14.3625 57.277 15.0194 56.0599C15.1645 55.7919 15.1544 55.5199 14.965 55.2459C14.4149 54.4459 14.3746 53.5713 14.6426 52.6646C14.7594 52.2656 14.8944 51.8706 15.0053 51.4696C15.0456 51.3225 14.9368 51.2359 14.8078 51.1895C14.6587 51.1331 14.4773 51.0485 14.3866 51.2379C14.1831 51.6732 13.9736 52.1124 13.8325 52.5699C13.2219 54.5406 12.835 56.5516 12.8169 58.6231ZM59.9713 58.4558C59.9572 56.9506 59.6549 55.3144 59.258 53.6882C59.0585 52.8721 58.7764 52.0923 58.4217 51.3346C58.3855 51.256 58.3089 51.1472 58.2464 51.1432C58.1275 51.1351 57.9965 51.1795 57.8837 51.2298C57.7467 51.2923 57.7366 51.4193 57.7809 51.5543C57.8837 51.8585 57.9925 52.1608 58.0832 52.4671C58.3754 53.4625 58.3955 54.4318 57.7588 55.3224C57.6117 55.528 57.6217 55.7456 57.7104 55.9632C57.8051 56.201 57.93 56.4287 58.0207 56.6685C58.1658 57.0594 58.3371 57.4463 58.4177 57.8513C58.6333 58.9213 58.7985 59.9994 58.8247 61.0956C58.8288 61.2225 58.8247 61.3555 58.861 61.4764C58.8852 61.557 58.9678 61.6739 59.0343 61.6799C59.1451 61.69 59.3144 61.6598 59.3668 61.5832C59.524 61.3475 59.665 61.0915 59.7577 60.8256C59.9995 60.1142 59.9673 59.3687 59.9713 58.4558ZM37.1064 37.0821C37.1387 37.5718 37.1669 38.0534 37.2031 38.533C37.2132 38.6579 37.3825 38.7385 37.4953 38.6881C37.5235 38.674 37.5538 38.6639 37.582 38.6478C38.3255 38.2408 38.8736 37.5919 39.5043 37.0479C39.724 36.8584 39.8006 36.5622 39.8389 36.266C39.9215 35.6293 39.7179 35.059 39.458 34.4988C39.3593 34.2852 39.2001 34.2248 38.9885 34.3356C38.5049 34.5895 38.0293 34.8575 37.5477 35.1134C37.2938 35.2484 37.183 35.46 37.1709 35.7381C37.1487 36.1894 37.1266 36.6388 37.1064 37.0821ZM54.6395 46.5992C54.9236 47.0264 55.1976 47.4073 55.2541 47.907C55.2802 48.1468 55.4596 48.3725 55.5865 48.5942C55.6288 48.6667 55.7195 48.7453 55.7981 48.7574C56.4167 48.8561 56.6747 49.3558 56.9749 49.8012C57.1341 50.0389 57.2389 50.313 57.3799 50.5649C57.4767 50.7382 57.7044 50.7462 57.8797 50.6213C58.1719 50.4117 58.2545 50.1155 58.2484 49.781C58.2303 48.3745 57.5311 47.2864 56.6021 46.3151C56.5114 46.2204 56.3019 46.168 56.1689 46.1962C55.6712 46.303 55.1815 46.4521 54.6395 46.5992Z" fill="black"/>
<path d="M37.3744 18.6504C37.316 18.7995 37.2636 18.9466 37.2011 19.0877C37.1951 19.1038 37.1407 19.1058 37.1105 19.1038C37.0863 19.1018 37.056 19.0937 37.0379 19.0756C37.0157 19.0534 36.9956 19.0212 36.9916 18.9929C36.8787 17.8041 36.5724 16.6555 36.2299 15.517C36.1291 15.1845 36.1654 14.8983 36.2863 14.9306C36.5059 14.987 36.5624 15.1825 36.6268 15.3618C37.0097 16.4237 37.2193 17.526 37.3744 18.6504Z" fill="black"/>
<path d="M35.0814 16.5909C35.0411 16.6836 35.0149 16.742 34.9887 16.8005C34.9182 16.7521 34.8033 16.7158 34.7811 16.6513C34.3822 15.4302 33.9953 14.2051 33.6104 12.9779C33.5943 12.9255 33.6205 12.855 33.6366 12.7965C33.6426 12.7724 33.6769 12.7502 33.7031 12.7421C33.7313 12.7321 33.7857 12.726 33.7958 12.7421C33.9247 12.9235 34.0799 13.0927 34.1666 13.2922C34.5696 14.2091 34.8335 15.1703 35.0371 16.1476C35.0693 16.3027 35.0693 16.4639 35.0814 16.5909Z" fill="black"/>
<path d="M56.5761 25.4491C56.6184 25.4713 56.6728 25.4975 56.7252 25.5237C56.6929 25.5761 56.6748 25.6526 56.6284 25.6788C56.4612 25.7695 56.2899 25.8521 56.1126 25.9206C55.1615 26.2914 54.2084 26.6561 53.3258 27.178C53.2834 27.2042 53.2089 27.176 53.1484 27.172C53.1625 27.0934 53.1625 27.0088 53.1948 26.9382C53.219 26.8858 53.2814 26.8455 53.3318 26.8093C53.4608 26.7166 53.5897 26.6178 53.7268 26.5413C54.567 26.0738 55.4637 25.7433 56.3745 25.4511C56.433 25.433 56.5015 25.4491 56.5761 25.4491Z" fill="black"/>
<path d="M47.206 26.0819C47.1959 26.1122 47.1939 26.1545 47.1738 26.1706C47.0992 26.229 47.0247 26.2975 46.938 26.3258C46.13 26.5938 45.4509 27.0754 44.794 27.5973C44.6449 27.7161 44.4776 27.8108 44.3084 27.9015C44.2761 27.9197 44.2016 27.8693 44.1532 27.8431C44.1431 27.837 44.1552 27.7867 44.1653 27.7585C44.1734 27.7282 44.1834 27.694 44.2036 27.6718C44.8806 26.9686 45.6605 26.4104 46.5773 26.0638C46.7446 26.0013 46.9501 26.0316 47.1375 26.0275C47.1577 26.0255 47.1818 26.0638 47.206 26.0819Z" fill="black"/>
<path d="M41.8923 26.5798C41.852 26.7974 41.8258 26.9526 41.7936 27.1037C41.7896 27.1258 41.7533 27.1541 41.7291 27.1541C41.7009 27.1561 41.6646 27.14 41.6404 27.1218C41.6183 27.1037 41.5941 27.0755 41.5901 27.0493C41.3966 26.0438 41.2032 25.0382 41.0117 24.0347C41.0057 24.0045 40.9997 23.9662 41.0117 23.94C41.046 23.8655 41.0883 23.795 41.1286 23.7224C41.1951 23.7869 41.2737 23.8433 41.3221 23.9179C41.3724 23.9965 41.4067 24.0912 41.4248 24.1839C41.584 25 41.7432 25.8161 41.8923 26.5798Z" fill="black"/>
<path d="M39.2606 21.4674C39.2042 21.6105 39.1739 21.6992 39.1336 21.7838C39.1236 21.808 39.0833 21.8362 39.0631 21.8322C39.0127 21.8221 38.9301 21.7999 38.9261 21.7737C38.783 20.8891 38.644 20.0045 38.515 19.1179C38.5049 19.0514 38.5251 18.9103 38.6722 18.9567C38.7286 18.9748 38.7931 19.0131 38.8213 19.0594C38.8676 19.14 38.9039 19.2348 38.918 19.3274C39.0389 20.0549 39.1518 20.7823 39.2606 21.4674Z" fill="black"/>
<path d="M59.0606 26.5977C59.1191 26.6339 59.1674 26.6662 59.2158 26.6964C59.1775 26.7448 59.1493 26.8072 59.1009 26.8395C59.0223 26.8919 58.9337 26.9342 58.843 26.9624C58.0833 27.2082 57.3237 27.452 56.564 27.6898C56.4431 27.7281 56.3161 27.7483 56.1912 27.7563C56.1469 27.7583 56.0945 27.7039 56.0542 27.6656C56.0481 27.6596 56.0723 27.5991 56.0945 27.585C56.2013 27.5165 56.304 27.4319 56.4209 27.3916C57.2068 27.1276 57.9967 26.8737 58.7866 26.6198C58.8752 26.5956 58.976 26.6057 59.0606 26.5977Z" fill="black"/>
<path d="M51.6975 25.9228C51.6532 26.0074 51.6391 26.086 51.5928 26.1162C50.9701 26.5132 50.3454 26.9061 49.7147 27.289C49.6543 27.3253 49.5434 27.2769 49.4568 27.2668C49.4749 27.2124 49.4769 27.1399 49.5152 27.1036C50.0674 26.5475 50.7122 26.1364 51.4497 25.8724C51.5142 25.8482 51.6089 25.9026 51.6975 25.9228Z" fill="black"/>
<path d="M34.7388 27.3192C34.8778 27.5368 34.9584 27.7948 34.9584 28.0728C34.9584 28.8527 34.3257 29.4854 33.5458 29.4854C32.8063 29.4854 32.1998 28.9172 32.1393 28.1937C31.4905 28.7983 31.0814 29.6587 31.0814 30.6159C31.0814 32.4455 32.5645 33.9306 34.3962 33.9306C36.2259 33.9306 37.711 32.4475 37.711 30.6159C37.7089 28.901 36.4072 27.4905 34.7388 27.3192Z" fill="black"/>
<path d="M47.4478 33.9509C47.1899 33.9408 46.9259 33.9992 46.6861 34.1383C46.0111 34.5292 45.7814 35.3937 46.1723 36.0687C46.5431 36.7075 47.339 36.9473 47.9959 36.6369C47.7985 37.5014 47.2584 38.2873 46.4302 38.7669C44.8464 39.6837 42.8193 39.1457 41.9024 37.5619C40.9855 35.978 41.5236 33.9509 43.1074 33.034C44.5905 32.1736 46.4625 32.5927 47.4478 33.9509Z" fill="black"/>
<path d="M20.2829 37.9447C18.6406 38.3296 17.0225 41.0258 18.155 42.525C18.2799 42.6902 18.5378 42.5411 18.433 42.3537C17.893 41.3985 18.4169 40.1673 19.0376 39.3976C19.4285 38.912 19.9463 38.6258 20.4199 38.2409C20.563 38.1261 20.4743 37.8984 20.2829 37.9447Z" fill="black"/>
<path d="M23.7569 39.331C22.3303 39.5687 21.6734 41.5818 21.5524 42.817C21.4154 44.2155 22.435 44.5077 23.5272 43.891C23.636 43.8306 23.5474 43.6573 23.4325 43.6976C21.6895 44.3223 21.9514 43.1273 22.1026 42.4301C22.1852 42.0432 22.3081 41.6563 22.4733 41.2957C22.7877 40.6045 23.1967 40.0725 23.8637 39.6957C24.041 39.5949 23.9866 39.2927 23.7569 39.331Z" fill="black"/>
<path d="M30.1406 49.1886C28.2384 50.7301 27.6177 47.8365 27.4948 46.563C27.3699 45.2572 27.3679 43.9515 27.5412 42.6518C27.5754 42.3999 27.1926 42.3717 27.1502 42.6175C26.9387 43.8769 26.9145 45.1303 27.0172 46.4018C27.0878 47.2804 27.1442 48.2516 27.5936 49.0355C28.1517 50.0067 29.794 50.6919 30.4207 49.4083C30.4993 49.245 30.2796 49.0758 30.1406 49.1886Z" fill="black"/>
<path d="M32.6332 47.0506C30.0479 48.1145 30.5073 43.3288 30.866 42.0734C30.9164 41.894 30.6564 41.8155 30.5899 41.9888C30.064 43.3711 29.8363 45.0637 30.4408 46.4642C30.8378 47.3811 31.9279 48.1246 32.8226 47.375C32.9858 47.238 32.8367 46.9659 32.6332 47.0506Z" fill="black"/>
<path d="M36.6733 55.0645C35.0875 56.5395 34.1001 53.8615 33.8039 52.7008C33.4331 51.248 33.4371 49.7427 33.8583 48.2979C33.9248 48.0682 33.5883 47.9231 33.5077 48.1568C32.7883 50.2303 32.9535 52.5839 33.9369 54.5547C34.2573 55.1975 34.7368 55.8221 35.4804 55.9692C36.091 56.0901 36.7217 55.8886 36.9574 55.2881C37.0199 55.1249 36.8144 54.9315 36.6733 55.0645Z" fill="black"/>
<path d="M37.6748 45.9463C37.5398 45.8093 37.3201 46.0027 37.4209 46.1599C37.9045 46.9196 38.3498 47.6853 38.6481 48.5397C38.8355 49.0797 38.9664 49.6278 39.0511 50.194C39.0773 50.3814 39.0994 50.5708 39.1176 50.7582C39.1982 51.1874 38.9261 51.393 38.3015 51.3708C38.2289 51.2519 38.0335 51.3648 38.0899 51.4897C38.5796 52.594 39.5367 51.5481 39.5508 50.7582C39.581 49.0837 38.8435 47.1412 37.6748 45.9463Z" fill="black"/>
<path d="M43.978 49.7709C43.8913 49.5936 43.6032 49.642 43.6274 49.8576C43.718 50.6757 43.5971 51.4334 43.3533 52.2192C43.1841 52.7633 42.8717 53.3134 42.8254 53.8837C42.8193 53.9582 42.906 53.9784 42.9503 53.93C43.4742 53.3577 43.7382 52.4409 43.9316 51.7054C44.0989 51.0767 44.2782 50.3815 43.978 49.7709Z" fill="black"/>
<path d="M24.8348 35.9739C24.2464 35.7018 23.6076 35.6817 23.0152 35.3552C22.5114 35.0772 22.0661 34.7044 21.6893 34.2711C21.5684 34.1321 21.3266 34.3255 21.4374 34.4747C21.8344 35.0046 22.2938 35.4399 22.8761 35.7623C23.4222 36.0666 24.1738 36.4131 24.8046 36.2721C24.9396 36.2439 24.9597 36.0323 24.8348 35.9739Z" fill="black"/>
<path d="M28.6657 38.4061C28.2425 38.2852 27.779 38.3376 27.3438 38.2973C26.836 38.2489 26.3403 38.1462 25.8506 38.0071C25.5604 37.9245 25.4718 38.3819 25.7579 38.4666C26.5901 38.7104 27.8234 39.0509 28.6657 38.7104C28.8047 38.6499 28.8269 38.4504 28.6657 38.4061Z" fill="black"/>
<path d="M48.3364 48.4732C47.3148 48.2496 46.4181 47.8244 45.5899 47.1896C45.3864 47.0325 45.1647 47.3549 45.3622 47.5141C46.2025 48.1931 47.1999 48.6324 48.2679 48.7977C48.4755 48.8279 48.546 48.5196 48.3364 48.4732Z" fill="black"/>
<path d="M52.8703 47.3993C51.6573 47.5202 50.5732 47.2864 49.3823 47.1675C49.1929 47.1494 49.0901 47.4093 49.2775 47.498C50.3576 48.0018 51.7762 47.9594 52.9248 47.7741C53.1666 47.7338 53.1122 47.3751 52.8703 47.3993Z" fill="black"/>
<path d="M34.872 66.3731C34.8518 66.22 34.6382 66.1454 34.5596 66.3046C34.3199 66.7943 34.2654 67.4068 33.7234 67.6809C32.8892 68.1 32.5788 67.1973 32.4217 66.5786C32.3854 66.4356 32.2061 66.4376 32.1295 66.5323C32.0368 66.5021 31.9219 66.5504 31.8756 66.6472C31.7043 66.9998 31.6177 67.3565 31.1582 67.3685C30.6907 67.3806 30.457 66.9514 30.3119 66.5524C30.058 65.8492 30.0137 65.0915 29.9069 64.358C29.8887 64.2311 29.7255 64.1646 29.6389 64.2331C29.5542 64.221 29.4656 64.2492 29.4273 64.3339C29.2741 64.6623 29.0626 64.9182 28.6636 64.7328C28.3956 64.6079 28.2001 64.3319 28.0772 64.0719C27.8394 63.5762 27.8132 63.0301 27.9503 62.5062C28.0026 62.3067 27.6661 62.214 27.5976 62.4095C27.2833 63.3183 27.4404 64.485 28.2767 65.0774C28.6152 65.3172 29.1895 65.3273 29.5421 65.1036C29.5482 66.1031 29.8081 67.3464 30.6061 67.7877C31.1199 68.0718 31.9401 67.7978 32.2101 67.29C32.3854 67.8703 32.7703 68.3458 33.4917 68.2532C34.346 68.1443 34.9868 67.2073 34.872 66.3731Z" fill="black"/>
<path d="M47.5787 63.6647C47.5323 63.435 47.1737 63.4672 47.1676 63.703C47.1535 64.3801 47.1837 65.0632 47.0951 65.7382C47.0749 65.8974 47.0628 66.0727 47.0024 66.2238C46.9742 66.3548 46.9056 66.4656 46.7948 66.5563C46.6739 66.8888 46.4845 66.8989 46.2246 66.5865C45.7792 66.3407 45.7067 66.1513 45.5273 65.7019C45.5193 65.6818 45.5052 65.6677 45.4911 65.6576C45.487 65.6354 45.483 65.6133 45.479 65.5911C45.4306 65.4017 45.1787 65.4722 45.1384 65.6234C44.9007 66.518 45.0054 67.4752 44.6951 68.3658C44.4896 68.9542 43.9435 69.1678 43.476 68.6943C43.2906 68.5049 43.1758 68.247 43.0871 67.987C43.069 67.7754 43.0387 67.5759 42.9924 67.3926C42.938 67.1749 42.6398 67.187 42.6035 67.4107C42.4624 68.2772 42.5189 69.1356 42.3113 70.0021C42.2388 70.3023 42.1562 70.6146 42.0433 70.9028C41.866 71.3562 40.8887 72.799 40.3265 71.5537C40.2338 71.3481 39.9194 71.4569 39.994 71.6766C40.3486 72.7204 41.6242 72.4927 42.1743 71.7532C42.6922 71.0559 43.0206 69.9235 43.0932 68.8736C43.4297 69.4137 43.9395 69.7744 44.6125 69.3734C45.0558 69.1094 45.1908 68.5532 45.2996 68.0878C45.4004 67.6626 45.5012 67.1991 45.5435 66.7377C45.6261 66.8928 45.743 67.0319 45.9102 67.1447C46.277 67.3946 46.7344 67.3885 47.0749 67.1004C47.9172 66.383 47.7681 64.6178 47.5787 63.6647Z" fill="black"/>
<path d="M32.1878 74.929C32.1495 74.6428 31.6941 74.6589 31.7344 74.9471C31.7586 75.1204 31.7847 75.3521 31.7948 75.604C31.1923 75.8095 30.6281 75.6927 30.0639 75.4509C30.1122 75.0922 30.1787 74.7637 30.2049 74.5522C30.217 74.4554 30.076 74.4353 30.0337 74.5058C29.9087 74.7093 29.7959 74.9874 29.7133 75.2957C29.2599 75.4468 28.6997 75.3017 28.2624 75.064C28.2665 75.0519 28.2685 75.0398 28.2705 75.0277C28.3471 74.7537 28.4841 74.5461 28.4841 74.262C28.4841 74.1512 28.3692 74.0786 28.2745 74.1471C28.0468 74.3103 27.8937 74.5965 27.803 74.9269C27.2388 75.0257 26.7693 74.9189 26.2494 74.7335C26.33 74.4574 26.4448 74.1915 26.5839 73.9355C26.6907 73.7401 26.3965 73.6031 26.2655 73.7502C25.5824 74.5038 25.5159 75.9385 26.1063 76.7647C26.5778 77.4256 27.4544 77.6634 28.0952 77.1516C28.5304 77.5989 29.2881 77.6029 29.8241 77.2584C29.9913 77.5365 30.2573 77.7359 30.6523 77.7843C31.1681 77.8488 31.6477 77.5768 31.9298 77.1556C32.3731 76.4967 32.2905 75.6766 32.1878 74.929ZM26.1909 74.9793C26.6625 75.2514 27.1965 75.4771 27.7224 75.3541C27.7002 75.5436 27.6922 75.735 27.6982 75.9224C27.1844 76.0695 26.6504 75.999 26.1668 75.7813C26.1244 75.5093 26.1406 75.2413 26.1909 74.9793ZM26.2312 76.0675C26.6786 76.3456 27.2085 76.4161 27.7345 76.3073C27.7607 76.4806 27.801 76.6397 27.8514 76.7707C27.8695 76.8191 27.8917 76.8614 27.9138 76.9037C27.1682 77.2523 26.467 76.7868 26.2312 76.0675ZM28.1597 75.9425C28.1536 75.7189 28.1758 75.4952 28.2181 75.2756C28.6251 75.5677 29.1672 75.7854 29.6347 75.6907C29.6085 75.8579 29.5924 76.0272 29.5883 76.1944C29.1954 76.3496 28.5828 76.3053 28.1677 76.1078C28.1637 76.0514 28.1597 75.9969 28.1597 75.9425ZM28.8327 77.073C28.4317 76.9803 28.2604 76.668 28.1939 76.3113C28.5949 76.5652 29.1591 76.668 29.6024 76.545C29.6186 76.7002 29.6488 76.8493 29.6971 76.9884C29.413 77.0589 29.1168 77.1395 28.8327 77.073ZM30.7067 77.345C30.3258 77.2926 30.1405 77.0266 30.0599 76.674C30.5253 76.9219 31.0613 77.0307 31.5792 76.942C31.418 77.2302 31.146 77.4055 30.7067 77.345ZM30.0155 76.3717C30.0014 76.1582 30.0135 75.9305 30.0357 75.7048C30.5677 76.0252 31.1964 76.1904 31.7948 76.0211C31.7868 76.1904 31.7686 76.3617 31.7344 76.5209C31.1278 76.6337 30.5677 76.6216 30.0155 76.3717Z" fill="black"/>
<path d="M40.4676 77.1958C40.7497 77.6169 41.2293 77.8889 41.7452 77.8245C42.1401 77.7761 42.4061 77.5786 42.5733 77.2985C43.1094 77.6431 43.867 77.6411 44.3023 77.1917C44.941 77.7036 45.8196 77.4638 46.2911 76.8048C46.8815 75.9787 46.815 74.544 46.1319 73.7903C45.9989 73.6432 45.7068 73.7802 45.8136 73.9757C45.9526 74.2316 46.0675 74.4976 46.1481 74.7737C45.6282 74.959 45.1587 75.0659 44.5945 74.9671C44.5038 74.6366 44.3506 74.3525 44.1229 74.1873C44.0262 74.1188 43.9134 74.1893 43.9134 74.3021C43.9134 74.5863 44.0504 74.7938 44.127 75.0679C44.131 75.08 44.133 75.092 44.135 75.1041C43.6977 75.3419 43.1376 75.487 42.6842 75.3359C42.6036 75.0276 42.4907 74.7475 42.3638 74.546C42.3194 74.4754 42.1804 74.4936 42.1925 74.5923C42.2187 74.8039 42.2852 75.1323 42.3336 75.491C41.7693 75.7328 41.2051 75.8477 40.6026 75.6442C40.6127 75.3923 40.6389 75.1585 40.6631 74.9873C40.7034 74.6971 40.248 74.681 40.2097 74.9691C40.1069 75.7127 40.0223 76.5348 40.4676 77.1958ZM46.2287 75.8195C45.745 76.0371 45.2131 76.1056 44.6972 75.9605C44.7053 75.7751 44.6952 75.5817 44.673 75.3923C45.197 75.5152 45.733 75.2895 46.2045 75.0175C46.2549 75.2774 46.271 75.5454 46.2287 75.8195ZM44.4836 76.9419C44.5058 76.8996 44.528 76.8552 44.5461 76.8089C44.5965 76.6779 44.6368 76.5187 44.663 76.3454C45.1889 76.4542 45.7189 76.3837 46.1662 76.1056C45.9284 76.825 45.2292 77.2885 44.4836 76.9419ZM44.2277 76.1439C43.8126 76.3434 43.2 76.3857 42.8071 76.2306C42.8051 76.0633 42.7869 75.894 42.7607 75.7268C43.2282 75.8235 43.7703 75.6039 44.1773 75.3117C44.2196 75.5313 44.2418 75.757 44.2358 75.9787C44.2358 76.0351 44.2317 76.0895 44.2277 76.1439ZM42.6983 77.0245C42.7446 76.8854 42.7749 76.7363 42.793 76.5812C43.2383 76.7061 43.8005 76.6013 44.2015 76.3474C44.135 76.7041 43.9658 77.0164 43.5627 77.1091C43.2786 77.1776 42.9824 77.097 42.6983 77.0245ZM40.8162 76.9822C41.3361 77.0688 41.8721 76.96 42.3356 76.7142C42.255 77.0668 42.0696 77.3328 41.6887 77.3852C41.2495 77.4436 40.9774 77.2683 40.8162 76.9822ZM40.6611 76.557C40.6268 76.3978 40.6087 76.2285 40.6006 76.0573C41.2011 76.2285 41.8278 76.0633 42.3597 75.7409C42.3819 75.9666 42.396 76.1943 42.3799 76.4079C41.8278 76.6577 41.2676 76.6698 40.6611 76.557Z" fill="black"/>
<path d="M26.1444 75.8782C23.1984 74.927 21.2801 74.788 18.2273 74.3145C15.91 73.9558 13.4153 73.6596 11.1101 74.258C11.2411 73.9115 11.0456 73.4399 10.8098 73.0268C10.2698 71.8017 9.63103 70.5483 8.75851 69.5287C10.8723 70.6108 13.2158 71.3584 15.4646 71.9851C18.0641 72.7085 20.8227 73.3251 23.5228 73.4581C23.8453 73.4742 23.9077 73.0027 23.5833 72.9563C20.7199 72.5553 17.9109 72.1483 15.1221 71.3443C12.6254 70.6249 10.2819 69.5771 7.86584 68.6582C7.56156 68.4426 7.17467 68.3015 6.8301 68.5292C6.35051 68.8456 6.55403 69.4783 6.71524 69.9116C7.02757 70.7518 7.57768 71.5276 8.07339 72.2652C8.58118 73.0208 9.18167 73.8651 9.95747 74.3648C10.2376 74.5442 10.6768 74.7417 10.969 74.4696C13.7821 74.3125 16.4742 74.4495 19.2691 74.9311C21.9571 75.3945 23.3637 75.6021 26.0114 76.2489C26.2533 76.3114 26.3923 75.9588 26.1444 75.8782ZM7.99279 71.435C6.89256 69.7322 6.79584 68.5917 7.65224 69.0995C8.50864 69.6073 10.832 73.4037 10.5862 74.0606C10.1106 74.4555 8.23056 71.8037 7.99279 71.435Z" fill="black"/>
<path d="M20.869 74.0041C19.531 73.6111 18.0922 73.4882 16.7079 73.3572C15.3195 73.2263 13.915 73.1134 12.5206 73.2303C12.4924 73.2323 12.4924 73.2686 12.5185 73.2726C13.8928 73.4983 15.2872 73.5769 16.6696 73.7441C18.0499 73.9114 19.4322 74.2036 20.8206 74.2902C20.9878 74.3003 21.0281 74.0504 20.869 74.0041Z" fill="black"/>
<path d="M16.6274 72.5451C14.6949 71.999 12.6456 71.4791 10.6487 71.2554C10.5903 71.2494 10.558 71.336 10.6185 71.3582C12.5066 72.0594 14.5619 72.5048 16.5327 72.9017C16.7362 72.9441 16.8309 72.6035 16.6274 72.5451Z" fill="black"/>
<path d="M40.5076 76.521C37.6765 76.5976 34.8453 76.4122 32.0182 76.4787C31.8509 76.4827 31.8207 76.7185 31.994 76.7426C34.7848 77.1154 37.6946 77.0288 40.5036 76.9522C40.7796 76.9421 40.7857 76.5129 40.5076 76.521Z" fill="black"/>
<path d="M67.1168 71.5539C67.2014 71.1045 67.0443 70.4758 66.607 70.3106C66.3067 70.1957 65.8493 70.3771 65.533 70.3912C64.9002 70.4174 63.9914 70.2864 63.8222 69.5388C64.4126 68.4204 67.0967 64.3017 64.4489 64.0498C64.3481 64.0397 64.2191 64.0941 64.1869 64.2009C63.5945 66.0789 62.7602 68.1081 60.8077 68.9101C59.3024 69.5287 57.5654 69.3715 56.2838 70.5121C55.7559 70.9816 55.369 71.576 54.9015 72.102C54.1761 72.9181 53.2592 73.4017 52.2195 73.7019C50.1943 74.2843 48.415 73.9215 46.3335 74.0022C46.132 74.0102 46.1219 74.3407 46.3254 74.3588C48.7757 74.5563 51.2583 74.8062 53.5313 73.7402C54.4683 73.3009 55.1111 72.6319 55.7499 71.842C56.6989 70.6672 57.648 70.1614 59.115 69.8572C61.1583 69.434 62.6655 68.6824 63.6993 66.7862C63.9632 66.3026 64.0902 65.5087 64.4227 65.0956C64.4468 64.6684 64.5718 64.6301 64.8015 64.9827C65.1058 65.1339 65.1823 65.3797 65.0332 65.7162C64.9849 66.0769 64.864 66.4296 64.7552 66.7721C64.5033 67.5661 63.8524 68.368 63.6872 69.2023C63.6791 69.2083 63.6711 69.2144 63.667 69.2244C63.2902 69.9539 64.0459 70.5665 64.6967 70.7458C65.0433 70.8425 65.406 70.8486 65.7627 70.8224C66.1234 70.7962 66.4256 70.6048 66.6292 71.0219C66.6997 71.169 66.7138 71.3544 66.7339 71.5317C65.7143 72.2289 64.4166 71.8279 63.3708 71.3584C62.7643 71.0864 61.7205 70.0587 61.5955 70.0688C60.7069 70.1453 59.7074 70.5927 59.0505 71.1992C58.718 71.5075 58.4339 71.8924 58.2929 72.3276C58.0934 72.9483 58.2405 73.581 57.7166 74.0767C57.3176 74.4515 55.9614 74.9109 56.0219 75.6223C56.0219 75.6283 56.0239 75.6343 56.0259 75.6424C56.0219 75.6605 56.0219 75.6807 56.034 75.7008C56.034 75.7029 56.036 75.7029 56.036 75.7049C56.1005 76.0152 56.3765 76.2046 56.6909 76.3074C57.3337 76.6298 58.1921 76.5935 58.8853 76.5512C60.2676 76.4666 61.5774 76.0535 62.7864 75.3925C63.1572 76.3517 63.4252 77.5829 62.321 78.0524C61.6358 78.3426 60.727 78.4171 59.9936 78.5058C58.3533 78.7033 56.6949 78.669 55.0567 78.4877C53.4426 78.3083 51.8084 78.0242 50.2548 77.5547C48.8563 77.1315 47.8327 76.4827 46.5612 75.7835C46.4886 75.7432 46.3153 76.126 46.3839 76.1865C47.345 77.0207 49.3823 77.8832 51.1072 78.3103C53.1021 78.804 55.1715 79.1002 57.2269 79.1385C59.0445 79.1728 60.9205 79.0237 62.6615 78.4756C64.068 78.0323 63.6388 76.1603 63.2116 75.0842C63.1653 74.9653 63.0645 74.925 62.9678 74.9371C62.9114 74.8948 62.8348 74.8827 62.7542 74.9291C61.8011 75.4772 60.7855 75.8681 59.6974 76.0495C59.0828 76.1502 58.0974 76.2892 57.2773 76.1421C56.5297 75.7593 56.4027 75.4147 56.8964 75.1104C57.0999 74.9593 57.3115 74.8203 57.5312 74.6933C57.6863 74.5905 57.8495 74.5039 57.9946 74.387C58.2908 74.1513 58.5024 73.8913 58.5911 73.5165C58.8309 72.5251 58.7362 71.9367 59.6591 71.2858C60.2455 70.8707 60.9366 70.7478 61.5633 70.4415C61.9522 70.7297 62.2303 71.1428 62.6212 71.435C63.0968 71.7896 63.6831 71.9871 64.2474 72.1523C65.2327 72.4385 66.212 72.5191 67.0604 71.8642C67.1611 71.7755 67.1652 71.6486 67.1168 71.5539Z" fill="black"/>
<path d="M63.548 64.7832C63.4895 63.7656 63.3203 62.7722 63.0926 61.7808C63.0684 61.676 62.9152 61.7123 62.9314 61.817C63.1913 63.4815 63.4452 65.3817 63.0261 67.03C62.9918 67.165 63.1591 67.2779 63.2518 67.1529C63.7293 66.5021 63.5923 65.5489 63.548 64.7832Z" fill="black"/>
<path d="M69.3371 68.0276C68.3578 68.1646 67.4147 67.9974 66.6006 67.4352C67.9064 66.067 68.1845 63.4474 68.2066 61.7809C68.2087 61.6278 67.983 61.5875 67.9628 61.7487C67.6847 64.0983 67.3885 67.5601 64.4647 67.947C64.2491 67.9752 64.2571 68.3359 64.4828 68.3359C65.2465 68.3339 65.8571 68.084 66.3427 67.677C67.2374 68.2976 68.3094 68.5294 69.3713 68.2271C69.4781 68.1949 69.4519 68.0115 69.3371 68.0276Z" fill="black"/>
<path d="M68.1605 75.3764C65.8613 75.1467 64.0236 73.8046 63.3143 71.574C63.2337 71.3221 62.8347 71.4067 62.9093 71.6667C63.5883 74.0283 65.682 75.6645 68.1625 75.5658C68.2854 75.5598 68.2794 75.3885 68.1605 75.3764Z" fill="black"/>
<path d="M62.476 57.9723C62.4558 57.9542 62.4336 57.9481 62.4115 57.9481C62.3349 57.9119 62.2321 57.926 62.1777 58.0287C61.2609 59.6952 60.1788 64.4991 63.419 64.5334C63.4412 64.5334 63.4593 64.5253 63.4734 64.5152C63.5319 64.5273 63.5963 64.5132 63.6528 64.4548C65.6255 62.3571 64.3399 59.5965 62.476 57.9723ZM63.3525 64.1444C63.3041 64.1948 63.288 64.2533 63.2921 64.3097C60.6402 63.5258 61.7384 60.1828 62.4498 58.3008C63.9328 59.8564 65.0975 62.3087 63.3525 64.1444Z" fill="black"/>
<path d="M68.3842 58.4842C68.3681 58.4681 68.35 58.458 68.3319 58.4479C68.3379 58.3129 68.1565 58.2162 68.0457 58.329C66.337 60.06 64.4468 64.2715 67.2739 65.954C67.3646 66.0084 67.4855 65.9339 67.4936 65.8452C70.7741 64.8014 70.6149 60.5335 68.3842 58.4842ZM67.415 65.7122C66.5002 64.8578 66.0992 63.7838 66.2765 62.5204C66.48 61.0615 67.413 60.0378 68.1283 58.8409C70.087 60.9184 70.2784 64.348 67.415 65.7122Z" fill="black"/>
<path d="M72.4323 69.4601C71.9144 67.3161 68.8435 65.6033 67.3967 67.9549C67.3604 68.0133 67.3765 68.0778 67.4128 68.1221C67.2999 68.0919 67.1508 68.2169 67.1931 68.3539C67.443 69.2002 68.0516 70.0163 68.914 70.3045C69.8913 70.6289 71.5598 70.3911 72.3235 69.6818C72.3497 69.6576 72.3557 69.6254 72.3477 69.5952C72.4061 69.581 72.4504 69.5347 72.4323 69.4601ZM68.9221 69.8793C68.1866 69.575 67.842 68.8576 67.5035 68.1947C67.4974 68.1826 67.4874 68.1745 67.4793 68.1645C67.5196 68.1786 67.5639 68.1725 67.6042 68.1362C69.4742 66.363 71.2213 67.6728 72.1885 69.5287C72.1905 69.5327 72.1925 69.5327 72.1945 69.5367C71.4449 70.0042 69.7644 70.2279 68.9221 69.8793Z" fill="black"/>
<path d="M70.2582 75.2858C69.1177 74.0445 66.482 72.908 65.009 74.1876C64.9909 74.1533 64.9304 74.1593 64.9183 74.2017C64.5919 75.4006 65.3334 76.5573 66.484 76.9784C67.9409 77.5124 69.6456 76.789 70.4597 75.5155C70.5464 75.3764 70.3892 75.2555 70.2582 75.2858ZM67.0281 76.7306C65.7868 76.519 65.0574 75.5074 65.0191 74.3064C65.0392 74.3165 65.0614 74.3226 65.0876 74.3145C66.883 73.7221 68.6039 74.3024 69.9519 75.5457C69.1419 76.3054 68.2149 76.9321 67.0281 76.7306Z" fill="black"/>
<path d="M74.8463 19.0536C76.1239 23.0998 75.2171 27.3153 73.5204 31.0936C72.2973 33.8159 70.6993 36.3529 69.6031 39.1357C68.4143 42.1542 67.6949 45.6846 69.321 48.6871C70.0989 50.1238 71.195 51.4114 72.0998 52.7736C73.1315 54.3272 74.1008 55.9332 74.8322 57.6521C75.602 59.4616 76.144 61.4666 75.8478 63.4453C75.5093 65.7042 74.0564 67.6125 72.1018 68.7429C71.7653 68.9384 72.1159 69.4301 72.4504 69.2366C75.5435 67.4452 77.0004 64.0599 76.3697 60.5779C75.7491 57.1483 73.7542 54.0753 71.8036 51.2583C70.6852 49.6442 69.4157 48.1369 69.0833 46.14C68.7427 44.1028 69.2001 42.0112 69.8853 40.0948C70.9492 37.1166 72.6499 34.4426 73.9637 31.5792C75.7954 27.5874 76.7667 23.1321 75.4126 18.842C75.2957 18.4712 74.7274 18.6828 74.8463 19.0536Z" fill="black"/>
<path d="M12.7282 55.8262C11.1645 54.6152 9.72171 53.2107 8.39379 51.7518C5.90317 49.0174 3.64228 45.8134 2.94305 42.1158C2.40302 39.2564 2.17934 35.9094 4.84728 34.0656C6.61046 32.8485 9.7076 32.3307 10.1811 29.8864C10.4451 28.5262 10.0199 26.9988 9.70156 25.685C9.32273 24.1233 8.67388 22.6422 8.30109 21.0806C7.51119 17.786 8.71821 14.449 11.2874 12.2546C13.1131 10.6929 15.3336 9.5887 17.5361 8.66983C20.6957 7.34996 24.0186 6.41901 27.3777 5.77217C37.4409 3.82966 47.893 4.40395 57.7768 7.02554C58.1537 7.12629 58.2605 6.52984 57.8857 6.4311C48.6506 3.98079 38.9199 3.31582 29.4653 4.79689C23.4362 5.73792 16.8812 7.42049 11.8516 11.0476C9.62902 12.6516 7.84368 15.0576 7.48298 17.8283C7.03967 21.2156 8.96203 24.4135 9.50207 27.688C9.74589 29.163 9.7338 30.4728 8.43006 31.4198C7.30767 32.2339 5.94146 32.651 4.77071 33.3926C2.52593 34.8152 1.87104 37.1063 2.02015 39.6695C2.41309 46.4602 7.13236 52.2576 12.3393 56.2877C12.6456 56.5255 13.0365 56.064 12.7282 55.8262Z" fill="black"/>
<path d="M77.3973 11.7972C77.3409 16.1155 74.6145 20.0327 70.5138 21.4675C66.4495 22.8901 61.8007 21.5521 59.1126 18.193C56.4568 14.8742 56.1324 10.1368 58.3167 6.48952C60.5494 2.76166 65.0228 0.827202 69.2685 1.72592C74.018 2.72942 77.3328 6.99731 77.3973 11.7972C77.4033 12.1861 78.0038 12.1317 77.9998 11.7448C77.9393 7.19479 75.0739 3.03369 70.7476 1.51635C66.4716 0.0171478 61.5911 1.36925 58.7157 4.87747C55.8361 8.38972 55.4694 13.4596 57.7948 17.3567C60.1443 21.2921 64.8656 23.3475 69.3491 22.4145C74.3968 21.3627 77.9313 16.8469 77.9978 11.7448C78.0038 11.3559 77.4013 11.4103 77.3973 11.7972Z" fill="black"/>
<path d="M69.8934 10.3908C68.7125 10.1067 66.1675 9.40347 66.1232 7.79948C66.0869 6.43528 68.106 6.33856 69.0269 6.4514C70.4475 6.6247 72.658 7.33803 73.0792 8.93396C73.5608 10.7576 70.9352 10.6125 69.8934 10.3908C69.5125 10.3102 69.4037 10.9047 69.7846 10.9853C71.0077 11.2452 72.9522 11.3903 73.591 9.99791C74.1351 8.81305 73.1437 7.59797 72.2188 6.96524C70.8546 6.03429 68.8536 5.51239 67.2254 5.94361C66.236 6.20758 65.3373 6.99345 65.559 8.10375C65.9136 9.88708 68.2894 10.6246 69.7866 10.9853C70.1614 11.076 70.2702 10.4815 69.8934 10.3908Z" fill="black"/>
<path d="M67.2092 13.4154C66.8425 13.3368 65.5992 13.0909 65.6334 12.5066C65.6617 12.0532 66.4677 11.9786 66.782 11.9867C67.3261 12.0008 68.4021 12.2305 68.5271 12.8935C68.654 13.5584 67.5699 13.4839 67.2092 13.4154C66.8264 13.3448 66.7175 13.9393 67.1004 14.0098C67.7613 14.1327 68.6963 14.1126 69.0389 13.4113C69.3452 12.7887 68.9019 12.158 68.378 11.8355C67.6908 11.4104 66.7377 11.2512 65.9579 11.495C65.4622 11.6502 64.9644 12.0612 65.037 12.6335C65.1518 13.5322 66.379 13.8567 67.0984 14.0098C67.4813 14.0924 67.5901 13.498 67.2092 13.4154Z" fill="black"/>
<path d="M72.4725 14.5136C72.0413 14.439 70.6892 14.2355 70.7376 13.5605C70.7738 13.0506 71.5799 12.8612 71.9708 12.8391C72.6015 12.8008 73.5123 13.0325 73.7178 13.7257C73.9435 14.4874 72.9944 14.5861 72.4725 14.5136C72.0877 14.4592 71.9768 15.0536 72.3637 15.108C73.077 15.2088 73.9798 15.11 74.278 14.3403C74.54 13.6652 74.1007 12.966 73.5365 12.6134C72.8473 12.1822 71.8942 12.1056 71.1386 12.4058C70.6187 12.6114 70.0766 13.0708 70.1391 13.6874C70.2398 14.6748 71.5899 14.975 72.3657 15.108C72.7466 15.1745 72.8554 14.5801 72.4725 14.5136Z" fill="black"/>
</svg>
