<svg width="24" height="24" viewBox="0 0 24 24" fill="none" xmlns="http://www.w3.org/2000/svg">
<path d="M13.5622 22.7411H17.1985C18.0698 22.7408 18.9259 22.5136 19.6826 22.0818C20.4394 21.65 21.0706 21.0286 21.5141 20.2787C21.9577 19.5288 22.1983 18.6763 22.2122 17.8052C22.2262 16.9341 22.013 16.0743 21.5937 15.3106L14.7634 2.75165C14.6808 2.58809 14.5662 2.44278 14.4265 2.32434C14.2867 2.20589 14.1246 2.11673 13.9497 2.06214C13.7748 2.00755 13.5907 1.98865 13.4084 2.00654C13.226 2.02444 13.0492 2.07878 12.8882 2.16633C12.7273 2.25389 12.5856 2.37288 12.4715 2.51624C12.3574 2.6596 12.2733 2.82441 12.2241 3.0009C12.175 3.17739 12.1617 3.36195 12.1853 3.54365C12.2088 3.72534 12.2685 3.90046 12.361 4.05862L19.1941 16.6231C19.3857 16.9702 19.4834 17.3612 19.4777 17.7577C19.472 18.1541 19.3631 18.5422 19.1616 18.8836C18.9601 19.225 18.6731 19.5081 18.3288 19.7047C17.9846 19.9014 17.595 20.0049 17.1985 20.005H13.5622C13.1993 20.005 12.8514 20.1491 12.5948 20.4057C12.3382 20.6622 12.1941 21.0102 12.1941 21.3731C12.1941 21.7359 12.3382 22.0839 12.5948 22.3404C12.8514 22.597 13.1993 22.7411 13.5622 22.7411Z" fill="white"/>
<path d="M1.61706 15.3142L8.46659 2.75066C8.64011 2.43218 8.933 2.19563 9.28087 2.09301C9.62873 1.9904 10.0031 2.03011 10.3217 2.20343C10.5554 2.34923 10.7457 2.55498 10.8729 2.79926C11.0001 3.04355 11.0595 3.31746 11.045 3.59249V21.373C11.045 21.7358 10.9008 22.0838 10.6443 22.3404C10.3877 22.5969 10.0397 22.7411 9.67689 22.7411H6.01408C5.1432 22.7407 4.28743 22.5136 3.53095 22.0822C2.77447 21.6507 2.14335 21.0297 1.69968 20.2803C1.25602 19.531 1.01509 18.679 1.0006 17.8082C0.986112 16.9375 1.19857 16.0779 1.61706 15.3142Z" fill="white"/>
</svg>
