<svg width="24" height="24" viewBox="0 0 24 24" fill="none" xmlns="http://www.w3.org/2000/svg">
<path d="M9.65071 22.2411H6.01435C5.14311 22.2408 4.28698 22.0136 3.53026 21.5818C2.77354 21.15 2.14232 20.5286 1.69876 19.7787C1.25521 19.0288 1.0146 18.1763 1.00064 17.3052C0.986685 16.4341 1.19985 15.5743 1.61916 14.8106L8.44953 2.25165C8.53208 2.08809 8.64665 1.94278 8.78642 1.82434C8.9262 1.70589 9.08834 1.61673 9.26323 1.56214C9.43811 1.50755 9.62218 1.48865 9.80452 1.50654C9.98685 1.52444 10.1637 1.57878 10.3247 1.66633C10.4856 1.75389 10.6273 1.87288 10.7414 2.01624C10.8555 2.1596 10.9396 2.32441 10.9888 2.5009C11.0379 2.67739 11.0511 2.86195 11.0276 3.04365C11.0041 3.22534 10.9444 3.40046 10.8519 3.55862L4.01877 16.1231C3.8272 16.4702 3.72945 16.8612 3.73515 17.2577C3.74086 17.6541 3.84983 18.0422 4.05131 18.3836C4.25279 18.725 4.53981 19.0081 4.88406 19.2047C5.22831 19.4014 5.61789 19.5049 6.01435 19.505H9.65071C10.0135 19.505 10.3615 19.6491 10.6181 19.9057C10.8747 20.1622 11.0188 20.5102 11.0188 20.8731C11.0188 21.2359 10.8747 21.5839 10.6181 21.8404C10.3615 22.097 10.0135 22.2411 9.65071 22.2411Z" fill="white"/>
<path d="M22.2562 14.8143L15.4067 2.25079C15.2332 1.9323 14.9403 1.69575 14.5924 1.59313C14.2446 1.49052 13.8702 1.53023 13.5516 1.70355C13.3179 1.84935 13.1276 2.0551 13.0004 2.29938C12.8732 2.54367 12.8138 2.81758 12.8283 3.09261V20.8731C12.8283 21.236 12.9725 21.5839 13.229 21.8405C13.4856 22.0971 13.8336 22.2412 14.1964 22.2412H17.8592C18.7301 22.2408 19.5859 22.0137 20.3423 21.5823C21.0988 21.1508 21.7299 20.5298 22.1736 19.7805C22.6173 19.0311 22.8582 18.1791 22.8727 17.3083C22.8872 16.4376 22.6747 15.5781 22.2562 14.8143Z" fill="white"/>
</svg>
