<svg width="80" height="80" viewBox="0 0 80 80" fill="none" xmlns="http://www.w3.org/2000/svg">
<rect width="80" height="80" fill="white"/>
<path d="M22.9329 52.2747C22.1031 52.1347 21.3609 51.8681 20.6136 51.6049C19.1611 51.0937 17.9964 50.2028 17.0185 49.0387C16.7105 48.6726 16.4244 48.2912 16.1147 47.9268C14.9045 46.4961 14.4568 44.8274 14.5814 42.985C14.5965 42.7606 14.5511 42.6543 14.3323 42.602C14.1404 42.5564 13.9536 42.4839 13.7667 42.4164C12.6256 42.0014 11.7066 41.3012 11.0923 40.2416C9.18704 36.9651 8.68716 33.4979 9.73405 29.8333C9.94612 29.0875 10.1582 28.3367 10.4729 27.6281C10.6328 27.2653 10.6244 26.9768 10.4191 26.6259C9.968 25.8531 9.55227 25.0602 9.30654 24.1879C8.6636 21.9068 9.06586 19.7607 10.1969 17.7394C11.0283 16.2547 12.1123 14.9842 13.4234 13.8639C14.8877 12.612 16.4917 11.6773 18.2892 11.0463C18.5703 10.9467 18.7723 10.7848 18.9069 10.5232C19.0618 10.2229 19.225 9.92597 19.3765 9.62396C20.6304 7.13365 22.6417 5.65228 25.3784 5.21867C26.8747 4.98246 28.3895 5.02971 29.8925 5.27773C30.4462 5.36883 30.9697 5.55611 31.4696 5.80582C31.6614 5.90199 31.7759 5.9003 31.9257 5.7299C32.4727 5.10394 33.1712 4.67877 33.9151 4.33795C35.0916 3.79974 36.2883 3.31214 37.5742 3.10798C38.9694 2.88696 40.3479 3.01688 41.7062 3.39143C42.1337 3.50954 42.5157 3.72719 42.8439 4.02413C43.9531 5.02802 45.0387 6.05215 45.717 7.42216C45.7506 7.48965 45.8112 7.54532 45.8634 7.61281C46.944 7.12015 48.0346 6.70678 49.1825 6.44021C52.2272 5.73158 54.8461 6.58531 57.1015 8.64538C58.5489 9.96646 59.6564 11.5389 60.1226 13.4893C60.2219 13.9027 60.4542 14.0613 60.8615 14.1996C62.5025 14.7581 63.886 15.6827 64.7579 17.2535C65.251 18.1426 65.7004 19.0504 66.1195 19.9749C66.4527 20.7072 66.6446 21.4782 66.7288 22.2746C66.8449 23.3848 66.9577 24.4966 66.823 25.6119C66.7203 26.474 66.4628 27.2839 65.9276 27.9858C65.867 28.0651 65.8115 28.1477 65.7593 28.2321C65.3318 28.9036 65.3116 28.9205 65.8115 29.565C66.7742 30.8051 67.1697 32.2595 67.3835 33.7678C67.6915 35.9325 67.3768 38.001 66.3871 39.9784C65.8334 41.0869 65.2072 42.1414 64.5205 43.1672C64.2294 43.6025 63.8709 43.9788 63.4737 44.3078C62.3409 45.2458 61.2082 46.1873 59.8163 46.7356C59.6682 46.793 59.5201 46.8639 59.3652 46.8824C59.1902 46.9044 59.1279 46.9921 59.1026 47.1456C59.0791 47.2823 59.0555 47.4206 59.0202 47.5556C58.6937 48.794 58.1214 49.8857 57.1705 50.7697C56.0546 51.8074 54.868 52.7286 53.4289 53.2736C53.3751 53.2938 53.3313 53.336 53.2842 53.3663C53.2472 53.5047 53.3313 53.5975 53.3919 53.6886C54.3378 55.1261 54.8663 56.7239 55.1911 58.3993C55.4739 59.8654 55.7567 61.3316 56.0327 62.7995C56.0798 63.0526 56.1017 63.3124 56.1253 63.5705C56.1656 64.043 56.169 64.0227 56.6016 64.1695C56.7951 64.2353 56.8911 64.1796 57.0122 64.0581C57.3506 63.7207 57.6821 63.3765 58.0423 63.0644C59.0303 62.2056 60.1512 62.0284 61.3849 62.4401C62.0801 62.6713 62.6018 63.0998 62.9519 63.7393C63.2515 64.2859 63.4164 64.8731 63.5242 65.4889C63.8692 67.4832 63.753 69.469 63.3424 71.4261C63.0731 72.705 62.6658 73.962 61.905 75.1363C63.4299 74.7989 64.7461 74.2185 65.7189 73.0155C65.8064 72.9075 65.8754 72.781 65.9747 72.6865C66.5167 72.1668 66.5184 71.5814 66.207 70.9487C66.0757 70.6804 65.9714 70.4003 65.83 70.1371C65.2695 69.0894 65.1567 67.9843 65.3873 66.8319C65.6061 65.7403 66.0572 64.7668 66.7422 63.8776C67.6562 62.6932 68.7838 61.7652 69.999 60.925C70.1707 60.8069 70.3441 60.7074 70.5443 60.8423C70.7413 60.9739 70.7396 61.1646 70.6824 61.3755C70.541 61.9019 70.6403 62.4165 70.8608 62.8889C71.4566 64.1661 71.5609 65.5328 71.6501 66.9061C71.7259 68.072 71.2916 69.0472 70.5376 69.9009C70.0462 70.4577 69.4688 70.9116 68.8427 71.3047C68.6761 71.411 68.496 71.5628 68.3041 71.5375C67.8766 71.4785 67.7908 71.7838 67.6275 72.0572C66.1245 74.5643 64.0493 76.3393 61.1796 77.0918C60.8295 77.1829 60.4761 77.2504 60.1293 77.0901C59.9829 77.0226 59.8668 77.053 59.7405 77.1306C58.6852 77.7802 57.497 77.9253 56.302 77.9556C54.4943 78.0012 52.6867 78.0484 50.8774 77.8949C50.0223 77.8223 49.1892 77.6367 48.3443 77.5186C46.6646 77.2824 44.9747 77.3044 43.2849 77.3499C42.5898 77.3685 41.8913 77.4225 41.1995 77.382C39.9608 77.3111 38.7439 77.5406 37.5119 77.5642C36.3202 77.5878 35.1286 77.5406 33.9353 77.603C33.1981 77.6418 32.4744 77.7582 31.7422 77.8122C30.9293 77.8713 30.118 77.9371 29.3051 77.8004C29.0712 77.7616 28.8271 77.7532 28.5915 77.7683C27.1928 77.8578 25.8177 77.6367 24.4393 77.4495C24.2996 77.4309 24.17 77.4157 24.0303 77.468C23.1988 77.7734 22.3404 77.6924 21.4922 77.6013C20.5816 77.5051 19.6727 77.4225 18.7571 77.4241C17.6614 77.4275 16.5742 77.3314 15.4919 77.166C14.8944 77.0749 14.3373 76.8826 13.8341 76.5401C13.5059 76.3157 13.1827 76.0828 12.841 75.8787C12.2301 75.5142 11.8346 74.9861 11.6107 74.3214C11.1108 72.84 10.786 71.3317 10.8668 69.7508C10.9442 68.2373 11.025 66.7307 11.4441 65.2577C11.7942 64.021 12.5061 63.0424 13.4621 62.2242C13.9771 61.7821 14.5713 61.6438 15.2445 61.8142C15.6939 61.9272 16.1298 62.074 16.5051 62.3338C17.0892 62.7371 17.7136 62.7961 18.3818 62.6898C18.4794 62.6746 18.5787 62.6662 18.6763 62.6476C19.3513 62.5279 19.363 62.5312 19.5061 61.8766C20.0094 59.5769 20.8122 57.3701 21.5814 55.1548C21.7968 54.5322 22.1301 53.9636 22.4448 53.3866C22.6232 53.0542 22.8117 52.7252 22.9329 52.2747Z" fill="#0B1111"/>
<path d="M60.6242 15.3318C61.5583 15.811 62.4318 16.3256 62.9906 17.1557C64.0729 18.7602 64.97 20.4744 65.4008 22.3826C65.6432 23.454 65.6617 24.5591 65.5977 25.6541C65.5624 26.2733 65.3537 26.8588 65.0373 27.4021C64.8168 27.78 64.6316 28.1765 64.4145 28.5561C64.2126 28.9087 64.2445 29.2377 64.4549 29.5684C64.497 29.6359 64.5324 29.7085 64.5812 29.7709C65.4294 30.8473 65.8687 32.0942 66.0757 33.4321C66.3232 35.0282 66.276 36.6142 65.7997 38.1613C65.5304 39.0353 65.1736 39.8806 64.8555 40.7394C64.8286 40.8136 64.8033 40.8929 64.7596 40.957C63.6184 42.6409 62.3342 44.1644 60.3465 44.8966C60.0116 45.0198 59.6817 45.1582 59.3097 45.121C59.1633 44.9574 59.2811 44.7769 59.276 44.6098C59.2643 44.0767 58.9983 43.7561 58.5607 43.7679C58.1517 43.7797 57.8707 44.0902 57.8892 44.5913C57.9161 45.2881 57.9211 45.9849 57.9262 46.6817C57.9329 47.802 57.4936 48.7468 56.7682 49.5483C55.7567 50.6669 54.56 51.5408 53.1445 52.1061C52.1835 52.4907 51.1904 52.3811 50.2008 52.3743C50.1469 52.3743 50.0527 52.3423 50.0442 52.3102C49.9197 51.7872 49.6302 52.0926 49.4451 52.2174C48.8358 52.6274 48.2164 53.034 47.6593 53.5098C46.5434 54.4648 45.2272 54.8241 43.8117 54.9034C42.8541 54.9574 41.9233 55.1143 40.9959 55.359C39.7269 55.6947 38.6547 56.3291 37.7627 57.2824C37.6415 57.4123 37.5321 57.5507 37.4328 57.6671C37.2123 57.5928 37.1298 57.4494 37.0339 57.3263C35.2145 54.9878 32.7992 53.746 29.8791 53.5486C28.7581 53.4727 28.068 52.8417 27.3679 52.128C27.314 52.0723 27.2265 52.0082 27.2602 51.9323C27.4402 51.524 27.0885 51.4683 26.8697 51.3418C26.5852 51.1764 26.2587 51.1916 25.9423 51.1629C24.6328 51.0482 23.3486 50.785 22.0846 50.4425C19.9555 49.8671 18.4087 48.4685 17.0505 46.7998C16.3419 45.9309 15.842 44.9844 15.6182 43.8877C15.5273 43.4389 15.3977 42.9985 15.3102 42.5497C15.263 42.3017 15.1755 42.1381 14.9416 41.9913C14.5545 41.7466 14.1758 41.4936 13.7651 41.2928C12.836 40.8372 12.1796 40.1219 11.6966 39.2158C10.818 37.5674 10.414 35.8178 10.3585 33.9467C10.2912 31.7213 10.7591 29.6376 11.7218 27.6518C11.917 27.2468 11.949 26.8571 11.8009 26.442C11.6461 26.0101 11.4525 25.5967 11.2404 25.1901C9.88049 22.5851 10.0337 20.0509 11.6679 17.6247C13.3258 15.1648 15.5593 13.4405 18.4121 12.5985C19.3109 12.3337 19.9084 11.8258 20.2719 10.9906C20.351 10.8084 20.4537 10.6363 20.5362 10.4558C21.6824 7.98068 23.7055 6.89412 26.3361 6.76926C27.7937 6.70009 29.2327 6.857 30.66 7.14214C30.931 7.19613 31.2104 7.22312 31.4864 7.23999C31.8819 7.26361 32.2808 7.2788 32.5282 6.86712C32.5653 6.80638 32.6562 6.77601 32.7235 6.73383C34.4722 5.62197 36.3607 4.86441 38.4056 4.5371C39.2909 4.39537 40.1863 4.40718 41.0767 4.56747C41.4975 4.64339 41.8745 4.8003 42.2094 5.06519C43.2479 5.88855 44.1551 6.82663 44.7745 8.01611C44.9041 8.26413 45.0404 8.50877 45.2575 8.69267C45.5504 8.94407 45.7658 8.95419 46.0267 8.67749C46.1294 8.56782 46.227 8.4919 46.3633 8.46153C47.6795 8.16795 48.9687 7.75459 50.327 7.6483C51.0945 7.58756 51.8418 7.63986 52.5689 7.85245C55.4773 8.7028 57.4381 10.5807 58.5203 13.4118C58.9647 14.5743 59.2424 15.7654 59.3181 17.0106C59.3467 17.4864 59.4393 17.9588 59.515 18.4312C59.547 18.6286 59.6042 18.8598 59.8247 18.8969C60.0368 18.9323 60.1832 18.745 60.2994 18.5847C60.5771 18.1984 60.6814 17.7529 60.6814 17.2873C60.6814 16.8689 60.6393 16.4521 60.6242 16.0337C60.6175 15.8194 60.6242 15.6085 60.6242 15.3318Z" fill="#0B1111"/>
<path d="M18.1429 70.9385C18.5266 70.7614 18.6562 70.4358 18.7235 70.0814C18.7925 69.7271 18.7892 69.3661 18.7589 69.0084C18.6175 67.3448 18.2304 65.7538 17.3097 64.2977C17.7928 64.1982 18.2489 64.1054 18.7017 64.0092C18.8767 63.9721 19.0501 63.9316 19.2217 63.8793C19.9892 63.6515 20.4403 63.223 20.7029 62.3777C21.5983 59.4909 22.4836 56.599 23.5473 53.7662C23.6803 53.4119 23.8132 53.0576 23.9243 52.6965C23.9899 52.4839 24.0876 52.4198 24.3114 52.4603C24.9224 52.57 25.5367 52.5835 26.146 52.4316C26.3463 52.381 26.4843 52.4215 26.5668 52.6324C26.6913 52.9496 26.8866 53.228 27.0986 53.4929C27.7264 54.2825 28.4872 54.8426 29.529 54.9641C30.0996 55.0316 30.6651 55.1531 31.2273 55.2779C32.7791 55.6204 34.1104 56.3763 35.2566 57.4764C35.7161 57.9167 36.1402 58.3959 36.6603 58.7688C37.3672 59.2783 37.6399 59.2395 38.1229 58.5376C38.6346 57.7952 39.3011 57.2402 40.1292 56.9027C41.0717 56.5197 42.0479 56.2633 43.0729 56.2228C44.108 56.1823 45.1145 56.0405 46.1075 55.6879C47.3025 55.2644 48.3292 54.6233 49.1539 53.6751C49.43 53.3596 49.6892 53.3022 50.0746 53.3883C50.795 53.5469 51.5322 53.5637 52.2677 53.5317C52.3956 53.5266 52.5504 53.4473 52.5976 53.6633C52.8904 54.9844 53.4324 56.238 53.6714 57.5742C53.9121 58.9257 54.1376 60.2822 54.3934 61.6319C54.5567 62.4924 54.7233 63.3563 55.2434 64.0952C55.2871 64.156 55.3461 64.2657 55.3225 64.3045C55.0717 64.7145 55.4336 64.8191 55.6524 64.9912C55.856 65.1498 56.0664 65.2999 56.2734 65.4534C56.7161 65.7774 56.9871 65.7622 57.3624 65.3539C57.7815 64.8984 58.2006 64.4479 58.7021 64.0818C59.0926 63.7966 59.5084 63.5908 60.0217 63.6161C60.8229 63.6549 61.4372 63.9704 61.7974 64.7111C61.8849 64.8899 61.9892 65.0654 62.038 65.2544C62.5581 67.2233 62.7954 69.1872 62.1693 71.195C61.6577 72.835 60.9356 74.3332 59.7642 75.6087C59.2256 76.1959 58.618 76.5603 57.8118 76.6177C56.6185 76.702 55.4285 76.5772 54.2369 76.5789C52.441 76.5839 50.6755 76.3055 48.9048 76.0423C47.7839 75.8753 46.6512 75.7994 45.5168 75.8871C44.8418 75.9394 44.1669 75.9546 43.4903 75.9428C42.6319 75.9293 41.7887 76.0659 40.9387 76.1402C39.259 76.287 37.5793 76.3713 35.8894 76.1942C34.6254 76.0609 33.353 76.1368 32.0823 76.2802C30.958 76.4084 29.8236 76.4169 28.6908 76.3646C28.334 76.3477 27.9755 76.341 27.6187 76.346C27.0414 76.3545 26.4692 76.3325 25.8952 76.2397C25.3044 76.1452 24.7019 76.1233 24.1111 76.2043C23.453 76.2971 22.805 76.2532 22.1554 76.1807C20.9873 76.0491 19.8159 76.0271 18.6427 76.0001C17.6076 75.9765 16.5826 75.8601 15.5576 75.7184C15.0123 75.6425 14.5444 75.3944 14.0849 75.1059C12.9539 74.3939 12.9892 74.3889 12.6257 73.1015C12.0349 71.0111 11.9777 68.9004 12.284 66.7678C12.4523 65.6019 12.8159 64.5187 13.7416 63.7089C13.8156 63.6431 13.8863 63.5722 13.9637 63.5098C14.4603 63.1066 14.674 63.0981 15.1705 63.4895C15.8673 64.0396 16.4126 64.7161 16.8267 65.5024C17.5555 66.8943 17.9342 68.3942 18.2152 69.9262C18.2809 70.2704 18.19 70.596 18.1429 70.9385Z" fill="white"/>
<path d="M68.2756 70.9166C68.2268 70.6686 68.3698 70.5083 68.4321 70.3261C68.6105 69.7946 68.7586 69.2581 68.7317 68.6912C68.725 68.5343 68.7098 68.3706 68.656 68.2239C68.5987 68.0686 68.4675 67.9607 68.2857 67.9775C68.1392 67.991 68.0214 68.0754 67.981 68.2239C67.939 68.3774 67.907 68.5326 67.8801 68.6895C67.7807 69.2615 67.636 69.8166 67.3499 70.3295C66.3518 68.7283 66.3888 67.0867 67.1816 65.4467C67.7572 64.2539 68.5987 63.2416 69.5329 62.3085C69.6019 62.241 69.6726 62.1668 69.8358 62.1617C69.9721 63.2534 70.5511 64.2336 70.6757 65.3455C70.7329 65.8618 70.7531 66.3781 70.775 66.8943C70.8137 67.7953 70.5208 68.5765 69.925 69.2463C69.4083 69.8284 68.8663 70.3801 68.2756 70.9166Z" fill="white"/>
<path d="M29.3421 20.714C30.4664 20.0138 31.6496 19.9446 32.8514 20.0003C33.358 20.0239 33.8191 20.2179 34.2466 20.4795C34.7213 20.7697 35.1909 21.0683 35.6537 21.3754C36.231 21.7567 36.6164 22.3151 36.9935 22.8787C37.3015 23.3393 37.6213 23.7914 37.9713 24.2993C38.998 22.9799 40.0516 21.8292 41.6186 21.2353C43.1687 20.6465 44.6936 20.5571 46.2303 21.0514C46.3414 20.9586 46.3262 20.8743 46.3229 20.7983C46.2673 19.1128 47.6155 17.2147 49.9819 17.0308C52.308 16.8503 54.151 18.4059 54.4236 20.7275C54.6374 22.5446 53.9742 23.9956 52.69 25.2137C52.5335 25.3622 52.4123 25.4786 52.4847 25.7148C52.9223 27.154 52.8853 28.6742 53.2135 30.1286C53.5955 31.8225 53.6157 33.5182 53.4945 35.2357C53.407 36.4724 53.0367 37.613 52.4628 38.6962C52.2019 39.1872 51.9057 39.6613 51.6482 40.1556C50.6282 42.1094 49.0293 43.3849 46.9759 44.0851C45.3012 44.6554 43.576 45.0519 41.8206 45.2712C40.5364 45.4315 39.2404 45.3421 37.9511 45.2999C37.5741 45.2881 37.1971 45.2611 36.8201 45.2628C35.1555 45.2763 33.5498 44.954 31.9627 44.4664C31.1699 44.2234 30.3435 44.0834 29.5272 43.9214C27.425 43.503 25.4861 42.759 23.936 41.2034C23.596 40.8625 23.3082 40.4846 23.1096 40.0426C22.8083 39.3711 22.4717 38.7147 22.0913 38.0837C21.4719 37.0562 21.2615 35.946 21.3575 34.7599C21.5965 31.8056 22.1519 28.9256 23.3301 26.1923C23.4462 25.9224 23.3789 25.8346 23.1433 25.698C21.2716 24.6064 20.6068 22.909 21.2026 20.8135C21.3339 20.3512 21.5258 19.9176 21.7581 19.4975C22.4347 18.281 23.5102 17.6838 24.8482 17.5353C25.5215 17.4611 26.2014 17.5269 26.8612 17.6838C28.3087 18.028 29.1182 18.9458 29.3017 20.4086C29.3185 20.4862 29.3253 20.5638 29.3421 20.714Z" fill="#0B1111"/>
<path d="M32.7839 60.5404C32.9488 61.3806 32.927 62.236 33.0347 63.0779C33.2165 64.5019 33.4117 65.9192 34.0075 67.2487C34.1657 67.603 34.3643 67.9101 34.6673 68.1514C34.9332 68.3623 35.1739 68.5985 35.3843 68.8667C35.6923 69.2599 35.7512 69.685 35.5677 70.1558C35.2008 71.1023 34.5899 71.4836 33.5564 71.3689C33.5329 72.0893 33.4908 72.8165 32.8495 73.3024C32.1746 73.8136 31.4963 73.5234 30.8029 73.2467C30.6161 73.6668 30.4377 74.065 30.1667 74.4109C29.5237 75.2292 28.8825 75.4266 27.8507 75.1178C26.8392 74.8141 26.2366 74.1325 26.2097 73.1657C26.1946 72.6123 26.1474 72.0994 25.7452 71.6793C25.6913 71.6236 25.661 71.5443 25.6291 71.4718C24.424 68.8549 23.6413 66.1419 23.7894 63.2214C23.8467 62.0876 23.914 60.9538 23.9712 59.82C23.9847 59.5382 24.0335 59.2649 24.1143 58.9983C24.1631 58.8397 24.2624 58.7081 24.4526 58.7148C24.6596 58.7216 24.7033 58.8802 24.7252 59.0455C24.7959 59.5989 24.8834 60.1507 24.9272 60.7057C25.0029 61.659 25.0652 62.6123 25.1073 63.5672C25.1847 65.3169 25.6105 66.9889 26.1777 68.6322C26.4689 69.4792 26.755 70.3279 27.1203 71.1461C27.2701 71.4819 27.3307 71.8227 27.292 72.1922C27.2583 72.5077 27.2633 72.8283 27.2482 73.1472C27.228 73.596 27.4283 73.9148 27.8221 74.1106C28.8084 74.6015 29.172 74.6235 29.8149 73.5538C29.9698 73.2956 30.0472 73.0088 30.1061 72.7119C30.2323 72.0724 30.4461 71.9729 30.9998 72.2867C31.2102 72.4065 31.424 72.5043 31.6579 72.5567C32.0215 72.6376 32.215 72.528 32.3497 72.1753C32.4759 71.848 32.449 71.5089 32.4136 71.1715C32.3025 70.0916 32.5348 69.9044 33.5632 70.2536C34.0243 70.4105 34.122 70.3818 34.3273 70.0748C34.4838 69.8386 34.4821 69.6462 34.2516 69.4522C34.0243 69.2599 33.8274 69.0321 33.6036 68.8347C33.0919 68.3825 32.7654 67.8156 32.624 67.161C32.1746 65.0739 32.0905 62.9784 32.5634 60.8812C32.5903 60.7496 32.5819 60.5927 32.7839 60.5404Z" fill="#0B1111"/>
<path d="M50.8134 63.9416C50.9733 64.3853 50.9565 64.7363 50.8689 65.0838C50.5357 66.4032 50.0829 67.672 49.2717 68.7856C48.8745 69.3322 48.4941 69.8924 48.0935 70.4373C47.969 70.6077 47.9134 70.7748 47.9067 70.984C47.8882 71.5003 47.8596 72.0182 47.7232 72.5227C47.5936 73.0036 47.3395 73.395 46.9221 73.67C46.2606 74.107 45.5621 73.9838 45.0808 73.3562C44.9966 73.2482 44.9747 73.0947 44.8233 73.0137C44.6583 73.0694 44.5708 73.2347 44.4362 73.3393C44.0154 73.67 43.5525 73.8657 43.0089 73.8489C42.2565 73.8252 41.7937 73.4743 41.6355 72.6982C41.5665 72.3591 41.4419 72.3135 41.1592 72.3996C40.4304 72.6223 39.7437 72.5328 39.1159 72.0908C38.5706 71.7078 38.4241 71.2641 38.6547 70.6381C38.9156 69.9261 39.3936 69.393 40.1241 69.1837C40.4472 69.091 40.5869 68.9239 40.6845 68.6506C40.9555 67.8795 41.1305 67.0832 41.3224 66.2902C41.585 65.207 41.856 64.1272 42.1118 63.0423C42.2582 62.4214 42.3121 61.7854 42.3575 61.1493C42.3946 60.6313 42.546 60.3968 42.812 60.4305C43.2159 60.4812 43.2058 60.8321 43.2496 61.1156C43.4212 62.2173 43.2311 63.2971 43.0224 64.3752C42.817 65.4314 42.5141 66.4623 42.1959 67.4898C41.9519 68.2743 41.5412 68.9813 41.1305 69.6865C40.9824 69.9413 40.7956 70.1066 40.4893 70.164C40.0719 70.2416 39.7925 70.52 39.6006 70.8946C39.5013 71.0903 39.5451 71.2337 39.7336 71.34C39.9473 71.4598 40.1577 71.529 40.4135 71.4547C40.8899 71.3147 41.378 71.2185 41.8206 70.9806C42.0765 70.8423 42.334 70.7495 42.6033 70.9384C42.8928 71.1409 42.8894 71.4362 42.8439 71.7432C42.8187 71.9204 42.7867 72.0992 42.7834 72.2764C42.7783 72.6611 42.9146 72.7792 43.3001 72.7134C43.7091 72.6442 44.0389 72.4367 44.2796 72.0908C44.4261 71.8782 44.559 71.6504 44.7341 71.4632C45.0337 71.1392 45.4292 71.2269 45.5655 71.6471C45.6446 71.8917 45.6513 72.1583 45.717 72.4063C45.7826 72.6509 45.823 72.9428 46.1445 72.9867C46.471 73.0306 46.6511 72.8028 46.8026 72.5598C47.0096 72.2291 47.045 71.8478 47.0954 71.4733C47.1224 71.2759 47.1257 71.0768 47.1342 70.8777C47.1527 70.4677 47.289 70.1218 47.5482 69.7895C48.5614 68.4971 49.2885 67.0359 49.9247 65.5293C50.1486 65.0045 50.3691 64.4731 50.8134 63.9416Z" fill="#0B1111"/>
<path d="M57.1114 74.5036C56.7882 74.1308 56.7192 73.7883 56.6485 73.4474C56.5088 72.7742 56.5779 72.1011 56.6687 71.4312C56.8387 70.1861 57.0963 68.9662 57.7375 67.8628C58.0085 67.3971 58.3047 66.9534 58.7171 66.5991C58.8854 66.454 59.0672 66.3325 59.3011 66.3426C59.594 66.3561 59.7286 66.6025 59.5519 66.8353C58.0825 68.7655 57.5625 71.0398 57.1888 73.3665C57.135 73.6955 57.1417 74.0346 57.1114 74.5036Z" fill="#0D1313"/>
<path d="M38.1515 43.6346C37.5153 43.6346 36.8808 43.6279 36.2446 43.6363C35.127 43.6498 34.0246 43.498 32.9305 43.2955C32.5014 43.2162 32.0823 43.0981 31.6817 42.9091C31.0488 42.6105 30.3773 42.4317 29.6839 42.3422C29.1469 42.2731 28.6403 42.1145 28.1405 41.912C27.3511 41.5914 26.555 41.2979 25.7959 40.8963C24.9089 40.4273 24.308 39.722 23.8317 38.8784C23.5389 38.3588 23.2814 37.8205 22.9986 37.2941C22.6805 36.7019 22.5341 36.0726 22.5458 35.3994C22.6047 32.0908 23.1989 28.9121 24.7827 25.9646C25.1294 25.3184 24.9947 25.0046 24.2946 24.7397C23.6802 24.5068 23.1905 24.107 22.7949 23.5974C22.1772 22.7977 22.1688 21.8967 22.4667 20.9857C22.8673 19.7641 23.6718 19.1854 24.9611 19.155C25.397 19.1449 25.8363 19.1297 26.2689 19.2208C27.3427 19.4469 28.0613 20.0965 28.504 21.0936C28.812 21.7888 29.0359 21.8427 29.7545 21.5644C30.7762 21.1679 31.8483 21.1156 32.9238 21.2134C33.385 21.2556 33.7603 21.5627 34.1693 21.7618C35.132 22.2291 35.8524 22.9327 36.3624 23.8741C36.6367 24.382 36.9885 24.8443 37.4295 25.2273C37.9142 25.6491 38.2878 25.6305 38.712 25.1446C39.052 24.7549 39.3684 24.3449 39.6916 23.9416C39.9575 23.6109 40.2806 23.3494 40.6526 23.152C42.0698 22.4046 43.5341 21.9102 45.17 22.2595C45.5033 22.3304 45.8248 22.413 46.1294 22.5682C46.2893 22.6492 46.4441 22.742 46.6124 22.7994C47.082 22.9614 47.4473 22.7201 47.4944 22.2274C47.5314 21.8326 47.5466 21.4344 47.6021 21.043C47.7485 20.0307 48.2299 19.2259 49.1876 18.8159C50.1722 18.3941 51.1568 18.3705 52.0606 19.0724C52.4848 19.4014 52.7625 19.808 52.8719 20.3479C53.0789 21.3636 53.0015 22.3185 52.441 23.2212C52.1835 23.6379 51.8704 23.9754 51.4631 24.2453C50.8185 24.6739 50.7546 24.9101 51.007 25.6457C51.2157 26.2497 51.3571 26.8689 51.4194 27.5067C51.5591 28.956 51.9024 30.3699 52.1381 31.8023C52.6043 34.6368 52.1044 37.2958 50.4684 39.7187C49.09 41.7602 47.1477 42.8568 44.788 43.3141C42.5949 43.7409 40.3867 43.9367 38.1515 43.6346Z" fill="white"/>
<path d="M41.4521 32.3505C41.1743 31.8849 41.1727 31.4479 41.1945 31.0109C41.245 29.9969 41.2972 28.9829 41.3612 27.9706C41.3763 27.7225 41.3427 27.3733 41.6843 27.3514C42.0512 27.3277 42.0142 27.6905 42.0395 27.9301C42.1758 29.2377 42.1943 30.552 42.2397 31.8629C42.2532 32.2577 42.2094 32.6542 42.3744 33.0372C42.4838 33.2937 42.3778 33.5501 42.2482 33.7779C41.484 35.1277 40.3951 35.9915 38.7911 36.0708C38.6716 36.0776 38.5521 36.0776 38.4343 36.0776C38.2693 36.0776 38.1717 36.1417 38.1818 36.3239C38.2373 37.3615 38.0084 38.3873 38.0488 39.425C38.0707 39.9818 38.1532 40.088 38.6901 40.2753C39.2943 40.4862 39.8094 40.3833 40.2756 39.9311C40.7199 39.4992 40.8495 38.9947 40.7149 38.4076C40.6745 38.2338 40.6055 38.0651 40.5768 37.8896C40.5297 37.591 40.6627 37.3396 40.8933 37.2468C41.1491 37.1439 41.4386 37.2485 41.6019 37.5319C41.7836 37.8491 41.8493 38.2051 41.8577 38.5645C41.8846 39.7675 40.9 41.1088 39.7235 41.3433C38.8163 41.5239 38 41.2404 37.3672 40.525C37.3285 40.4812 37.3083 40.4221 37.2712 40.3749C37.2477 40.3445 37.2107 40.3276 37.1669 40.2956C36.226 41.1712 35.1741 41.1459 34.0902 40.6195C33.2268 40.2011 32.7235 39.069 32.9507 38.1427C32.9743 38.0465 33.008 37.9521 33.0534 37.8626C33.1392 37.6939 33.2604 37.5589 33.4708 37.5944C33.6543 37.6264 33.7199 37.7766 33.7502 37.9402C33.7872 38.136 33.8125 38.3334 33.8512 38.5291C33.9505 39.015 34.2063 39.3659 34.7062 39.4958C34.7449 39.506 34.7819 39.5195 34.8207 39.5313C35.95 39.8974 36.5038 39.6038 36.8252 38.4582C37.0255 37.7428 37.0491 37.0055 37.1113 36.2716C37.1315 36.0286 37.0104 35.9628 36.8134 35.919C36.327 35.8093 35.8709 35.6119 35.4148 35.4145C34.5009 35.0197 33.9286 34.3094 33.5617 33.4101C33.4119 33.044 33.3816 32.6374 33.1847 32.2831C33.1325 32.1903 33.1376 32.0435 33.1645 31.9321C33.5684 30.2888 33.725 28.5965 34.1239 26.9532C34.1609 26.7996 34.2131 26.6478 34.277 26.5027C34.3174 26.4099 34.4049 26.3458 34.5143 26.3576C34.6237 26.3711 34.6894 26.4504 34.7112 26.5516C34.7769 26.8435 34.8055 27.1405 34.7971 27.4408C34.7651 28.556 34.654 29.6662 34.5379 30.7747C34.5278 30.8742 34.5059 30.9721 34.4941 31.07C34.4386 31.5576 34.4386 31.5643 34.8964 31.6655C36.2563 31.9675 37.6314 32.1464 39.0267 32.1919C39.7 32.2139 40.3715 32.2932 41.0447 32.3438C41.144 32.3573 41.2417 32.3505 41.4521 32.3505Z" fill="#0B1111"/>
<path d="M48.0126 31.048C48.0058 31.5778 47.8089 32.1093 47.373 32.5277C46.6913 33.1823 45.7757 33.0237 45.3415 32.1886C44.8988 31.3331 45.0554 30.174 45.7134 29.4637C46.321 28.8074 47.1996 28.8985 47.6642 29.6645C47.8611 29.9918 48.0109 30.5486 48.0126 31.048Z" fill="#0B1111"/>
<path d="M31.2811 29.6915C31.2592 30.1419 31.1346 30.6616 30.8923 31.1441C30.4782 31.9675 29.6922 32.0738 29.056 31.4175C28.0024 30.3292 28.7581 28.6083 29.6939 28.1645C30.2274 27.9132 30.8165 28.1359 31.1077 28.6741C31.2407 28.9204 31.2945 29.2056 31.2811 29.6915Z" fill="#0C1111"/>
</svg>
