<svg width="80" height="80" viewBox="0 0 80 80" fill="none" xmlns="http://www.w3.org/2000/svg">
<rect width="80" height="80" fill="white"/>
<path d="M41.0363 2.23531C41.3896 0.47113 44.1936 0.66597 44.4796 2.3779C46.0038 2.44344 46.7353 4.35553 45.8081 5.50331C44.5514 6.56164 44.4575 8.5924 45.0756 10.0147C45.8267 10.4035 46.6441 10.7082 47.4261 11.0536C48.8617 8.59506 51.3088 6.62098 54.2021 6.30038C55.8281 6.02583 57.4728 6.46157 59.097 6.16399C60.6947 6.67589 59.4681 8.52332 59.0085 9.48424C58.2149 12.4281 56.4968 15.5172 53.2935 16.2611C54.4705 17.7472 55.1214 19.5327 55.9141 21.2304C56.4977 21.2844 56.8759 20.8461 57.1655 20.4068C57.3302 21.2021 56.681 21.8415 56.0274 22.163C56.5694 24.6826 58.6073 26.6833 58.7826 29.3056C58.8012 32.6675 56.4667 35.7123 53.4617 37.0549C53.2873 40.2565 49.3302 41.4211 46.815 40.0466C46.8912 43.1844 47.5953 46.27 47.8778 49.3927C48.1249 51.8743 48.542 54.4302 47.8503 56.8772C48.3011 60.8732 47.5519 64.9347 48.3649 68.9059C50.4878 68.913 52.6062 69.0698 54.7273 69.1229C53.9975 67.1063 52.3635 65.5653 50.5692 64.468C52.8285 63.8383 55.1648 65.1322 57.0362 66.3358C56.4162 63.8587 55.287 61.5436 53.8195 59.4615C55.8007 59.775 57.2708 61.5304 58.5736 62.9633C58.4868 60.1895 58.6312 57.3865 59.3813 54.703C59.8312 53.7917 58.8553 52.9725 59.1404 52.0018C58.4797 52.3189 57.471 52.7714 56.9299 52.0248C56.4649 50.924 57.277 49.7443 58.2256 49.2067C57.1894 48.9933 56.2851 48.0147 56.6606 46.9112C57.1663 45.9786 58.4665 46.1796 59.2609 46.6021C59.314 45.7767 59.5328 44.7865 60.3139 44.3543C61.2491 44.1551 61.6468 45.3099 61.777 46.0344C62.3845 45.6031 63.2728 45.2143 63.96 45.6855C64.5543 46.1557 64.3391 46.9838 64.1939 47.6117C65.037 47.757 65.9882 48.1732 66.3061 49.0278C66.3096 50.1092 65.0042 50.9541 63.9955 50.5742C64.3143 51.2774 64.4905 52.3454 63.7298 52.8316C63.0045 53.1177 62.3004 52.5978 61.7778 52.14C61.5945 52.8742 61.118 53.4604 60.6867 54.0565C59.9277 57.042 60.3281 60.1833 61.087 63.128C62.2029 62.1025 63.4393 60.6651 65.0255 60.6421C63.798 62.2362 62.7875 64.0358 62.2942 65.9984C64.2868 64.3112 66.7613 62.8942 69.4067 62.7817C67.8444 64.3759 65.8323 65.893 65.0636 68.1567C67.0677 67.1674 69.621 66.8176 71.5916 68.0646C69.6325 68.5109 67.6496 69.1787 66.1688 70.609C69.0064 71.2272 72.0866 71.4256 74.6116 72.9692C75.7151 73.8858 74.2113 74.8866 73.2787 74.9557C69.6476 75.6686 65.8934 75.9317 62.2056 75.7395C65.8774 75.3471 69.5989 75.1567 73.1999 74.2932C73.6932 74.2516 74.5009 73.7282 73.8287 73.2889C71.7705 72.2501 69.4342 71.9534 67.1962 71.4973C61.0189 70.4487 54.776 69.7003 48.5066 69.5763C48.689 71.4326 49.27 73.2181 49.5897 75.0505C49.7199 75.6952 49.3497 76.3523 48.7457 76.6003C47.11 77.3806 45.2421 77.5851 43.4514 77.501C42.6393 78.647 41.1567 78.8675 39.8628 79.0402C38.0083 79.1855 36.0732 79.0482 34.3586 78.2804C33.6031 77.9633 33.3038 77.1344 33.2507 76.3745C31.6273 77.0511 29.8232 77.0688 28.0998 76.8908C27.7836 77.3682 27.2744 77.6586 26.7111 77.7384C24.4528 78.159 22.0651 77.8863 19.9458 77.0104C19.1779 76.6331 18.1701 75.9609 18.3959 74.969C18.6988 73.4351 18.96 71.8923 19.2789 70.361C16.3917 70.6666 13.5214 71.1678 10.7042 71.8763C9.14632 72.2439 7.53978 72.5981 6.15908 73.4483C5.87745 73.5706 5.86062 73.8841 5.81634 74.1471C9.12684 75.7448 12.982 75.4021 16.4882 76.3045C13.114 76.262 9.67505 76.0893 6.40263 75.2054C5.51699 75.0567 4.43297 74.0267 5.34606 73.2101C7.16959 71.817 9.57674 71.585 11.735 70.988C10.6661 69.525 8.92403 68.7102 7.25372 68.1301C7.25284 68.061 7.25107 67.9229 7.25107 67.8538C9.10736 67.2808 11.1036 67.7581 12.7606 68.681C12.3585 67.0328 11.952 65.3838 11.6509 63.7143C10.4438 63.2529 9.17024 62.3584 8.81333 61.0565C8.94263 61.0796 9.07193 61.1035 9.20212 61.1292C9.29423 61.0344 9.38633 60.9405 9.47844 60.8466C9.64228 60.836 9.80524 60.8272 9.96819 60.8165C9.19592 59.6059 10.4571 59.8228 11.3082 59.6528C10.6971 55.6338 11.1983 51.5687 11.201 47.5524C10.4571 48.0838 9.18263 48.2857 8.65214 47.3673C8.03485 46.0849 8.51841 44.1259 10.0222 43.7229C9.5608 42.9719 8.92226 41.9445 9.42707 41.0837C10.4996 40.276 12.022 41.2059 12.4267 42.3324C12.8536 41.4548 13.4372 40.2335 14.5832 40.2875C15.7921 40.6497 15.7177 42.3537 14.8569 43.0587C15.7576 43.1003 16.8717 43.6122 16.8868 44.6439C16.8726 45.6412 15.7567 46.0707 14.9127 46.1407C15.592 46.9847 15.8603 48.3734 15.0057 49.189C14.3733 49.6407 13.6852 48.9898 13.3159 48.4982C13.1007 48.9481 12.8013 49.4095 12.2806 49.5265C12.1557 52.5146 12.4914 55.5541 13.3956 58.4103C13.6197 58.9726 13.7578 59.6732 14.3645 59.9522C15.9551 57.8904 16.0073 55.0909 17.5457 53.007C18.558 51.6015 20.2371 50.6716 21.9863 50.7194C22.6629 50.7973 23.0712 50.1305 23.6362 49.8754C26.1523 48.3379 29.221 48.7675 32.001 48.3131C31.8301 47.7029 31.1198 46.192 32.2756 46.4427C32.3048 45.8077 32.0666 45.162 32.2437 44.535C32.5147 44.1524 33.1878 44.4181 33.4765 44.0346C33.5465 43.3739 33.2055 42.5964 33.6687 42.0278C34.2063 41.5513 35.1734 41.2103 35.718 41.856C35.1114 42.065 34.0203 41.9428 33.9476 42.7956C33.8671 43.8309 35.2283 43.4944 35.7481 44.0825C34.5578 43.6671 33.6501 44.2188 32.7467 44.9336C32.5324 45.991 33.3038 46.9422 34.1921 47.3761C36.2468 45.4516 37.2015 42.6079 37.8648 39.9395C36.9668 39.44 35.9439 39.0095 35.0095 38.5092C34.8811 39.0715 34.1885 39.331 34.1779 39.9111C34.5029 40.826 35.6011 40.888 36.4186 40.9836C35.6463 41.6594 34.417 41.2484 33.8024 40.5532C33.2648 39.7127 33.8972 38.7368 34.5419 38.1708C30.9232 34.9728 30.3608 29.8441 29.5115 25.3734C25.5873 28.0489 20.2132 26.5991 17.0825 23.3648C16.4493 22.7298 15.5477 21.845 15.9728 20.8717C16.3625 20.1739 17.3057 20.2429 17.9008 19.8028C19.4215 18.779 20.5657 17.2681 22.1829 16.3665C24.8132 14.7901 28.1574 14.8981 30.9347 16.0273C31.351 15.1939 31.8664 14.4137 32.3181 13.6033C31.7158 12.4352 31.0543 10.6524 29.4858 10.7259C27.6835 10.2574 27.4559 7.35517 29.1803 6.60327C28.8012 5.13754 30.6053 4.30239 31.7468 4.98433C33.3454 4.72572 34.7704 6.41108 34.3037 7.94766C33.7085 9.21766 35.0131 10.2849 35.8562 11.0509C36.0307 10.1051 36.2901 9.05116 37.1164 8.46221C37.5858 8.5003 37.5141 9.24069 37.6753 9.59671C38.5193 9.00157 39.5156 8.70576 40.4349 8.2904C40.5253 7.32506 40.7812 6.07011 39.9239 5.37401C38.9267 4.34755 39.5555 2.35133 41.0363 2.23531ZM41.5296 3.1546C40.0249 2.11133 39.4536 4.99318 40.8689 5.47674C40.8724 5.25799 40.8724 5.04012 40.8777 4.82137C41.1487 5.21371 41.4313 5.5963 41.7138 5.97889C41.4835 5.96295 41.2541 5.94081 41.0256 5.9169C41.1062 7.15325 41.2285 8.46664 40.6368 9.60557C41.7094 8.37542 43.0343 9.55066 44.1528 9.97222C44.0155 8.85101 44.1068 7.70411 44.3813 6.61035C44.5328 5.75926 45.5158 5.36072 45.5698 4.468C45.7611 3.56465 44.8516 2.67459 43.9544 2.98279C44.159 1.15838 41.1089 1.30363 41.5296 3.1546ZM29.9393 7.23915C28.9553 6.89818 27.9129 8.60569 28.9341 9.11847C28.8836 10.3096 30.3245 10.5895 31.2048 10.1697C30.8603 9.79421 30.7939 9.17604 31.4404 9.58874C32.2773 9.79952 31.5476 10.3468 31.0746 10.4478C31.8009 11.5814 32.7848 12.607 33.124 13.9567C32.4598 14.6705 31.877 15.4605 31.5405 16.3878C31.3828 16.9174 30.7629 16.5977 30.4016 16.5047C28.1193 15.681 25.5013 15.4516 23.2589 16.5171C20.7667 17.5338 19.3692 20.2801 16.6786 20.8948C16.1898 21.28 16.6326 21.9788 16.9621 22.3313C18.7625 24.1858 21.0625 25.7365 23.692 26.0084C25.9822 26.3848 28.1521 25.4868 30.1128 24.44C30.499 28.2659 31.2899 32.2158 33.2329 35.583C35.8748 39.5569 41.2143 40.2928 45.5849 39.5117C46.7424 39.1008 47.8078 40.0316 48.9716 39.9961C50.6622 40.2025 52.4964 39.13 52.763 37.3667C51.4779 37.5341 50.92 39.4532 49.433 38.9768C47.884 38.4206 46.3217 37.8042 44.9251 36.915C44.7258 36.969 44.5274 37.0257 44.3291 37.0815C44.4353 36.869 44.5478 36.6617 44.6638 36.4554C43.5532 35.2084 43.7348 33.1759 44.8861 32.0201C46.7956 30.0522 49.7651 29.0736 52.453 29.744C53.7575 29.8964 55.1285 30.6119 55.5935 31.9094C55.9787 33.0288 55.6059 34.2067 55.1382 35.2376C56.9609 33.7993 58.284 31.4205 58.0626 29.0568C57.9838 29.187 57.9067 29.3171 57.8297 29.4491C58.1237 28.7007 57.9829 27.2306 56.9476 27.258C55.6386 27.7345 56.0611 30.1939 57.5932 29.8875C55.5323 30.8316 55.2578 26.6744 57.3833 26.9676C56.6093 25.5195 55.9778 24.0042 55.2923 22.5128C55.2144 22.2294 54.9399 22.5474 54.7698 22.5784C55.4482 24.0326 56.1018 25.9172 55.3915 27.4237C55.4438 26.894 55.5137 26.3662 55.5058 25.8331C55.3658 26.8152 55.4137 27.9852 54.521 28.6334C55.0532 28.4891 55.2658 27.9736 55.5819 27.5831C55.3588 29.1816 52.9056 29.6794 51.7029 28.7636C49.8439 27.1819 49.2647 24.393 50.0981 22.1302C50.2991 20.699 51.9508 19.5371 53.2943 20.3731C52.0137 20.0906 50.5914 20.7708 50.2061 22.0656C50.9704 21.3969 51.8747 20.5644 52.9853 20.916C53.6087 20.932 54.5635 21.7591 54.8929 20.8894C53.6521 16.7402 50.4754 13.2615 46.5874 11.391C45.3573 10.8003 43.9606 10.1662 42.5782 10.4443C43.6206 10.5869 44.6621 10.9863 45.3307 11.8383C46.1482 12.6814 45.8532 13.9948 46.5529 14.9061C46.7043 14.9362 46.8549 14.9681 47.0063 15.0017C46.0401 16.1008 44.3725 15.9193 43.0644 15.7271C43.1724 16.262 43.8747 17.0856 43.2477 17.478C41.9467 17.5045 40.9636 16.4781 39.9691 15.7749C40.0328 17.9208 37.3573 19.3848 35.5639 18.3486C37.4255 18.2255 37.8958 16.2673 37.809 14.7378C38.3014 15.8652 37.9419 17.2504 37.1714 18.175C38.862 18.0368 40.0444 16.2133 39.4306 14.62C40.558 15.6084 41.642 16.9369 43.2247 17.1432C43.0422 16.3063 42.5082 15.6137 42.2062 14.8255C43.261 15.2568 44.4061 15.4809 45.5397 15.2391C44.7719 14.9672 43.9668 14.5253 43.7206 13.6857C44.4079 14.419 45.2368 15.232 46.3474 15.0319C45.9719 14.5005 45.3706 14.0763 45.4379 13.3447C45.1376 11.4353 43.0529 10.6506 41.3445 10.6108C41.689 10.3451 42.0645 10.1148 42.3798 9.81192C41.3179 9.17515 40.2472 10.2078 39.2544 10.5151C39.5147 10.0165 39.8743 9.57989 40.1143 9.07153C39.11 9.37708 38.1987 9.95008 37.4193 10.6488C37.3193 10.1954 37.2156 9.74373 37.0651 9.30445C36.5071 9.96779 36.253 11.2281 36.9863 11.8657C35.0653 11.8613 33.9007 9.97754 33.2569 8.39579C32.9788 8.99005 32.0816 10.0705 31.4971 9.2274C32.4855 9.47538 33.0346 8.6296 33.016 7.7236C33.1523 7.96006 33.2763 8.20361 33.4021 8.44539C34.5968 7.5013 33.07 4.92587 31.8381 5.85668C30.8515 4.79037 29.0696 5.91956 29.9393 7.23915ZM58.8136 6.75914C57.1725 7.09125 55.4916 6.59972 53.8541 6.97789C51.315 7.39325 49.216 9.18755 47.8875 11.3193C48.7803 11.8418 49.6039 12.4635 50.4391 13.0666C51.6134 10.0431 54.5998 7.07354 58.1016 7.8839C57.3222 8.13276 56.4729 8.06722 55.7033 8.36834C53.3475 9.12024 51.6825 11.2803 51.0563 13.6122C51.2476 14.0054 51.6285 14.2543 51.957 14.5235C52.7134 14.1126 53.3085 13.4847 53.8204 12.8054C53.6149 13.7167 52.817 14.3003 52.0607 14.7493C52.3467 15.0646 52.5779 15.5473 52.9994 15.6651C54.9921 15.1656 56.7014 13.691 57.5259 11.8099C58.1521 10.5656 58.385 9.16098 59.1032 7.95917C59.3184 7.59164 59.4566 6.70511 58.8136 6.75914ZM51.1529 22.4172C54.8097 21.6316 55.3304 28.5732 51.6612 28.3686C52.2644 28.9257 53.189 29.2383 53.9205 28.7229C55.9291 27.1996 55.4473 23.7341 53.5476 22.3056C52.8586 21.7388 51.7578 21.7087 51.1529 22.4172ZM51.0856 23.3586C50.2407 23.5561 50.052 24.7676 50.9341 25.0723C52.1864 25.2353 52.6345 23.0451 51.0856 23.3586ZM52.5345 23.6819C52.6567 24.1282 52.9915 24.4541 53.4316 24.587C53.2757 24.9412 53.6566 25.1927 53.6734 24.7242C53.9834 24.0184 53.1642 23.5295 52.5345 23.6819ZM50.0467 29.8078C48.0664 30.0761 46.0507 30.9086 44.7551 32.4798C43.7933 33.686 43.6356 35.9869 45.2528 36.7095C47.5501 38.2514 50.571 37.7404 52.9339 36.6289C54.7521 35.7725 55.8122 33.2972 54.7238 31.5038C53.6158 30.1682 51.7401 29.5917 50.0467 29.8078ZM48.9326 38.1274C49.5127 38.9405 50.7605 38.6385 51.2184 37.8538C50.4506 37.8812 49.6872 37.9857 48.9326 38.1274ZM38.5175 40.0431C38.3749 40.524 38.235 41.0075 38.1588 41.5044C39.025 41.9082 39.2349 40.818 39.1162 40.1972C38.9161 40.1432 38.7168 40.0918 38.5175 40.0431ZM39.5298 40.2822C39.4864 41.0837 39.0347 42.2554 38.0101 41.8445C37.5593 43.4324 36.7861 44.8946 36.0546 46.3638C36.7392 46.8607 37.5584 47.1441 38.227 47.6613C38.669 48.2219 38.5202 49.0234 38.4183 49.677C37.9915 51.7157 34.6818 52.1054 33.6997 50.3439C33.2312 49.4405 34.255 48.7746 34.3364 47.9226C33.6961 48.1094 33.1789 48.5514 32.5687 48.8091C32.9283 51.1082 29.5505 51.7459 28.2716 50.3563C28.0351 49.7691 27.6313 48.8782 26.9839 49.6088C27.4382 50.6734 28.3044 52.86 26.4375 52.9857C27.9997 52.3321 27.1362 50.5653 26.4835 49.5698C23.4387 50.01 21.0661 52.62 20.2416 55.4806C19.3524 58.5821 20.7198 61.6464 21.0386 64.7062C21.0997 67.1462 19.9086 69.401 19.6978 71.8064C20.3806 72.1438 21.0041 72.692 21.7365 72.8727C23.2988 72.0544 24.993 70.7613 26.8697 71.3334C26.836 69.8863 26.7899 68.4091 27.3098 67.031C28.0697 64.9418 28.3239 62.6471 27.6304 60.5057C28.292 61.3178 28.2442 62.4151 28.5081 63.3654C30.3236 63.8578 32.2835 63.6975 34.0823 63.2024C34.0105 62.4718 33.7484 61.7836 33.5172 61.0946C35.8464 64.4919 34.8492 68.9626 34.379 72.7947C36.7463 74.4491 39.7592 73.3642 42.0184 72.0552C41.3896 67.9211 41.7306 63.6789 42.2735 59.5837C42.3603 60.2187 42.2921 60.8617 42.308 61.5011C45.0216 59.6493 46.3669 56.3972 46.7327 53.2258C46.8469 52.3552 46.8062 51.4589 47.0772 50.614C45.9471 49.8816 44.9083 48.8002 44.5283 47.4842C44.4725 45.7554 45.3688 44.1099 46.3793 42.7664C46.3014 41.8967 46.1278 41.0279 45.9143 40.1803C43.8118 40.5957 41.6456 40.5993 39.5298 40.2822ZM13.9332 40.6223C13.0812 41.2573 12.4108 42.3271 12.5091 43.4209C12.6933 43.2181 12.8642 43.002 13.0281 42.7823C13.0316 42.8426 13.036 42.963 13.0396 43.0232C13.1228 43.0737 13.207 43.126 13.2911 43.1791C13.2911 43.3509 13.292 43.5227 13.2938 43.6954C14.2139 43.3279 15.2687 42.6442 15.251 41.5292C15.3112 40.8747 14.5416 40.1343 13.9332 40.6223ZM9.5484 41.3308C9.25969 42.4795 10.0931 43.8699 11.2896 44.1232C11.3046 43.691 11.3471 43.2579 11.4844 42.847C11.6172 43.0489 11.7368 43.257 11.8519 43.4696C11.9201 43.4501 12.0574 43.4094 12.1256 43.389C12.5985 41.9587 10.7963 40.3451 9.5484 41.3308ZM44.7852 47.3008C45.1624 48.5558 46.134 49.6203 47.2233 50.3253C47.0922 47.9421 46.7398 45.5597 46.3271 43.2119C45.538 44.4287 44.8587 45.8342 44.7852 47.3008ZM13.1857 44.3189C13.5524 44.3375 13.927 44.3402 14.2786 44.4633C13.8552 44.6032 12.9616 44.5164 13.1839 45.2152C14.1121 45.7643 15.4733 46.2611 16.3439 45.3454C17.0223 44.6351 16.3182 43.5706 15.4892 43.4138C14.6018 43.0675 13.7472 43.6813 13.1857 44.3189ZM11.9874 43.6458C11.0017 43.8903 11.5792 45.2435 12.1017 45.6491C13.4939 46.0565 13.3717 43.2384 11.9874 43.6458ZM9.4563 44.2259C8.55295 44.9052 8.4015 46.2957 8.86381 47.269C9.58826 48.4442 11.7988 47.5426 11.3002 46.154C11.1328 46.1805 10.9645 46.208 10.7971 46.2354C11.023 45.9759 11.24 45.7076 11.4242 45.4171C11.0947 45.3587 10.7626 45.4065 10.4473 45.5128C10.3951 45.3303 10.3322 45.1514 10.2596 44.9778C10.4721 44.9504 10.6829 44.9247 10.8946 44.9008C10.9822 44.1737 9.97528 43.7716 9.4563 44.2259ZM59.825 47.2805C60.1793 47.8305 60.2829 47.0104 60.2802 46.7119C60.3794 46.9758 60.4795 47.2389 60.5884 47.501C60.7107 47.3442 60.8355 47.1901 60.9604 47.0343C61.01 47.1671 61.0596 47.2991 61.1118 47.4328C61.6769 46.5551 61.6866 44.8698 60.499 44.566C59.5026 44.9141 59.4061 46.4515 59.825 47.2805ZM61.4041 47.8384C61.6131 47.6967 61.8186 47.5488 62.0276 47.4071C61.9328 47.5905 61.8363 47.772 61.7398 47.9553C61.7938 47.9447 61.9001 47.9252 61.9541 47.9146C61.9435 48.0838 61.9355 48.2529 61.9319 48.423C62.6139 48.19 63.3817 47.9934 63.8626 47.4186C64.293 46.8695 64.2027 45.7386 63.3419 45.7165C62.1613 45.5898 61.4192 46.7854 61.4041 47.8384ZM12.5171 49.1288C13.5789 48.4832 13.0351 46.8997 12.6357 45.9671C12.6065 46.146 12.579 46.3258 12.5542 46.5056C12.2841 46.2523 12.0494 45.9653 11.813 45.6801C11.418 46.7588 11.0593 48.7382 12.5171 49.1288ZM13.5834 45.7776C13.7286 46.1017 13.8402 46.4391 13.8924 46.7925C13.7631 46.7863 13.633 46.781 13.5036 46.7766C13.3513 46.6198 13.1981 46.463 13.0405 46.3125C13.1308 47.3469 13.4381 49.0119 14.7161 49.0757C15.8763 48.1059 15.1314 45.8635 13.5834 45.7776ZM35.8562 46.5357C34.8926 47.3336 34.4463 48.5416 33.8989 49.6248C33.875 50.9984 35.6162 51.4563 36.7011 51.0506C38.0676 50.7903 38.5299 49.0828 38.0685 47.9385C37.399 47.393 36.5736 46.998 35.8562 46.5357ZM56.9928 46.7934C56.1983 48.0598 58.1662 49.6132 59.2609 48.694C59.4566 48.4123 59.0855 48.283 58.9137 48.128C58.9606 48.1165 59.0545 48.0926 59.1006 48.0811C59.035 48.012 58.9695 47.9429 58.9031 47.8747C59.1546 47.9093 59.4043 47.9438 59.6576 47.9801C59.6408 46.6552 57.9634 46.0734 56.9928 46.7934ZM33.5022 47.6507C33.1444 47.2521 32.6927 46.9555 32.2012 46.75C31.9355 47.532 32.8884 48.4752 33.5022 47.6507ZM62.0825 48.6966C62.5271 48.8525 63.132 48.7586 63.4251 49.2005C62.9664 49.2422 62.5067 49.1864 62.0497 49.1704C62.7901 49.5397 63.4402 50.1145 64.2257 50.3705C65.2522 50.6831 66.6922 49.2457 65.5781 48.4389C64.4923 47.4452 63.1825 48.1927 62.0825 48.6966ZM60.5406 48.0218C58.9323 47.9288 59.4991 50.4041 60.9214 49.9126C62.4554 50.0304 61.9275 47.4983 60.5406 48.0218ZM11.5738 48.8392C11.2851 52.3906 11.1895 55.981 11.7572 59.5129C12.4134 59.4341 13.0918 59.3464 13.7295 59.5864C12.2452 56.4362 12.0884 52.813 12.0689 49.3874C11.9254 49.1864 11.7439 49.0163 11.5738 48.8392ZM28.323 49.3068C28.2681 51.5351 32.5909 51.1162 32.2809 48.9508C30.9772 49.189 29.6452 49.2386 28.323 49.3068ZM57.2 51.9788C58.4523 52.6678 59.6169 51.2676 59.9667 50.1641C59.6072 50.0543 59.2378 49.9586 58.8597 49.9967C59.0368 49.7868 59.2077 49.5716 59.3663 49.3458C57.9413 49.0181 56.6305 50.6999 57.2 51.9788ZM62.2587 49.9958C62.133 50.0251 62.0063 50.0543 61.8815 50.0862C61.9665 50.2243 62.0559 50.3625 62.1436 50.5024C61.8806 50.4183 61.6167 50.3421 61.3492 50.2792C61.1632 51.512 62.3712 52.7794 63.6014 52.6191C64.6066 51.5785 63.6173 50.0003 62.4341 49.6115C62.3756 49.739 62.3163 49.8665 62.2587 49.9958ZM60.2315 51.2286C60.2041 51.0152 60.1766 50.8009 60.1483 50.5901C59.4256 51.4501 58.8579 53.27 60.1509 53.8351C61.6583 53.3914 61.5086 51.4527 60.7346 50.3882C60.5592 50.6636 60.3918 50.9452 60.2315 51.2286ZM47.2357 50.9231C47.0338 54.9421 45.9471 59.458 42.3691 61.8076C42.1017 62.3806 42.3275 63.1209 42.2363 63.7568C46.8133 61.4515 48.3587 55.6223 47.2357 50.9231ZM18.0036 53.4693C16.4422 55.6081 16.5148 58.6467 14.4964 60.4942C13.3407 59.3871 11.89 60.1762 10.5908 60.4145C10.767 60.7501 10.9539 61.0813 11.1434 61.4108C10.6244 61.4294 10.109 61.3577 9.59268 61.3444C9.97439 62.1893 11.0248 62.168 11.6509 62.6303C11.3152 62.6826 10.976 62.7074 10.6404 62.7499C11.1647 63.2325 11.9139 63.2503 12.5542 63.0164C12.4781 63.1776 12.4028 63.3406 12.3293 63.5044C12.7562 63.7515 12.8713 64.4733 13.4319 64.4432C14.3893 63.6258 14.8941 62.3035 14.8746 61.0264C14.6125 61.0964 14.3521 61.1708 14.0855 61.2221C17.0692 59.5775 17.4182 55.7923 19.5605 53.4046C20.2557 52.6262 21.3406 52.2967 21.9004 51.3765C20.3275 51.2446 18.8786 52.2276 18.0036 53.4693ZM15.7133 60.5145C14.4274 62.9208 16.544 65.2854 16.6716 67.7643C15.8904 66.2915 15.5061 64.6425 14.748 63.1546C14.5062 63.7524 13.9907 64.36 14.3609 65.0224C13.6232 65.0525 12.9218 64.8772 12.2921 64.4866C12.6038 66.2313 13.0174 67.9778 13.5975 69.6552C12.1655 68.7191 10.4686 67.9627 8.72211 68.1319C9.9434 68.9263 11.379 69.5604 12.1088 70.9057C14.515 70.3743 16.9647 70.0466 19.4064 69.742C19.6668 69.1867 19.7093 68.557 19.8227 67.9601C19.3409 68.2709 19.0406 68.7784 18.5828 69.1167C19.0637 67.821 20.5152 66.9345 20.37 65.3988C20.2478 65.5246 20.1264 65.6512 20.0042 65.777C20.4036 64.9152 20.2097 63.9747 20.1982 63.0652C18.8476 64.7372 17.946 66.7653 17.6812 68.9033C17.0329 67.3339 18.1213 65.5432 18.8759 64.1368C19.2257 63.3698 20.2779 62.7711 19.9139 61.8262C19.1806 59.295 19.0406 56.5433 20.029 54.0582C18.2471 55.9677 17.8149 58.846 15.7133 60.5145ZM59.9632 54.1229C59.2591 56.8861 58.849 59.7316 59.0545 62.5887C58.9784 63.5771 59.4327 64.4609 59.8436 65.3253C60.1447 64.7186 60.4768 64.127 60.7877 63.5275C59.8286 60.5083 59.6585 57.2545 60.2333 54.1397C60.166 54.1362 60.0314 54.1282 59.9632 54.1229ZM44.8782 62.6958C44.0917 63.6399 42.7889 64.228 42.5109 65.5237C42.1681 67.566 42.3692 69.6676 42.6534 71.7063C44.562 72.3085 46.4068 71.4521 47.8973 70.3017C47.0728 66.6192 47.4128 62.8499 47.3429 59.1232C46.5201 60.3064 45.9356 61.6765 44.8782 62.6958ZM55.0842 60.5207C56.4384 62.5479 57.2478 64.9002 57.7119 67.2817C56.0779 66.2942 54.4457 65.0835 52.4866 64.8922C54.095 65.8832 55.767 67.0771 56.472 68.9041C55.6067 67.8192 54.761 66.574 53.4077 66.0595C54.1251 67.0647 54.931 68.0469 55.2551 69.269C58.733 69.5551 62.1879 70.0519 65.6383 70.5621C66.756 69.2487 68.3563 68.4932 69.9523 67.9361C67.9011 67.3507 65.7499 68.131 64.0176 69.2345C64.8687 67.0975 66.1396 65.157 67.8081 63.5726C65.122 64.2174 62.605 65.8983 61.2146 68.3179C61.7061 65.9966 62.3827 63.6833 63.6474 61.6535C61.7539 62.726 60.476 64.6132 59.6656 66.5891C59.0864 64.0571 57.3603 61.765 55.0842 60.5207ZM28.4541 63.6993C28.3885 64.158 28.3354 64.6186 28.2716 65.0782C30.2439 65.7008 32.3756 65.808 34.4179 65.5184C34.3878 64.8285 34.2381 64.1554 34.1124 63.4796C32.2738 63.9853 30.3219 64.1492 28.4541 63.6993ZM28.6887 65.9771C27.0981 67.7821 27.3444 70.3699 27.6047 72.5848C29.2281 72.5184 30.8763 72.0083 32.0869 70.8977C31.9798 69.3709 31.6981 67.8485 31.7371 66.3092C30.7142 66.2968 29.6851 66.0205 28.6887 65.9771ZM32.4058 66.3154C32.4421 67.2206 32.3889 68.1345 32.5545 69.029C33.109 68.9653 33.666 68.9325 34.224 68.9449C34.4108 68.0327 34.3993 67.0975 34.4808 66.1746C33.7891 66.2331 33.0965 66.2543 32.4058 66.3154ZM32.6537 69.5392C32.8211 70.888 33.1054 72.2412 33.5615 73.5236C33.7014 72.1881 34.03 70.8818 34.1868 69.5498C33.6749 69.5135 33.163 69.5214 32.6537 69.5392ZM42.6871 72.042C42.9236 73.6671 43.284 75.271 43.625 76.8757C45.1173 76.9067 46.6361 76.7464 48.0496 76.2487C48.4685 76.0982 49.007 75.797 48.9113 75.2701C48.6784 73.7247 48.2701 72.2085 47.961 70.6781C46.3997 71.7125 44.6054 72.5432 42.6871 72.042ZM27.6534 72.8913C27.7765 74.001 28.0245 75.0938 28.1538 76.2044C29.8534 76.4285 31.7158 76.4648 33.2648 75.6288C33.1931 74.0931 32.5067 72.6787 32.2331 71.1793C30.9259 72.2288 29.3113 72.7655 27.6534 72.8913ZM21.5824 73.3084C21.4133 74.4349 20.9651 75.5597 20.9448 76.68C22.7275 77.3345 24.7167 77.4948 26.5898 77.1698C27.0052 77.0821 27.7004 76.9333 27.5507 76.3577C27.277 74.7892 27.0707 73.2083 26.836 71.6363C24.9239 71.0182 23.173 72.4449 21.5824 73.3084ZM19.6252 72.0827C19.4303 73.2004 19.1141 74.3039 19.0406 75.4375C19.208 76.0397 19.8997 76.2859 20.4045 76.5569C20.9465 75.4871 21.0413 74.2587 21.3893 73.1207C20.8048 72.7682 20.1946 72.4591 19.6252 72.0827ZM38.1332 73.8451C37.6523 73.9833 36.8109 73.6689 36.6763 74.3251C36.3247 75.5659 35.92 76.8368 35.9855 78.1422C37.9481 78.6107 40.0674 78.5921 41.9812 77.9146C42.4462 77.7516 43.0582 77.4107 42.9005 76.8191C42.6021 75.3613 42.3727 73.8876 42.0344 72.4396C40.736 72.9072 39.5643 73.7822 38.1332 73.8451ZM33.8883 76.7004C33.9627 77.5595 34.8891 77.9598 35.6401 78.0625C35.7207 76.6269 36.1352 75.2444 36.4912 73.8602C35.7535 73.7539 35.0441 73.513 34.3834 73.172C34.0584 74.3154 33.8803 75.511 33.8883 76.7004Z" fill="black"/>
<path d="M43.5151 5.9106C43.9243 5.74322 44.2927 5.50321 44.6036 5.1897C44.9206 5.84418 43.5948 6.54383 43.5151 5.9106Z" fill="black"/>
<path d="M37.2342 17.1114C34.6189 17.1681 34.5737 12.7665 37.0092 12.4166C35.9952 13.0764 35.222 14.3455 35.7189 15.5624C35.9261 16.3338 36.74 16.5809 37.2342 17.1114Z" fill="black"/>
<path d="M36.5976 12.9055C36.6489 12.8815 36.7508 12.8328 36.803 12.8098C36.486 13.699 36.7534 14.6696 37.3229 15.3914C36.3186 15.3188 36.3585 13.6689 36.5976 12.9055Z" fill="black"/>
<path d="M49.7997 16.9874C50.5835 15.728 52.9109 16.6057 52.6461 18.0803C51.8065 17.8996 50.9501 17.9474 50.1185 18.1299C49.4702 18.1759 49.4924 17.3514 49.7997 16.9874ZM50.0645 17.842C50.8022 17.5976 51.5842 17.6862 52.3432 17.749C52.2724 16.4374 49.7802 16.4285 50.0645 17.842Z" fill="black"/>
<path d="M18.3507 21.4598C20.3142 19.9126 22.4397 18.1068 25.0948 18.1449C27.1743 18.0254 29.0049 19.1457 30.7354 20.1411C30.6176 21.7583 30.0411 23.7129 28.1467 23.9308C29.306 23.3622 30.3431 22.388 30.3466 20.9993C29.0616 21.0719 28.4505 19.7355 27.3886 19.2847C25.5819 18.4567 23.4006 18.6967 21.6984 19.6726C20.5675 20.2359 19.6305 21.226 18.3507 21.4598Z" fill="black"/>
<path d="M33.3941 24.1717C33.077 22.5811 34.4825 20.3794 36.3016 20.8691C36.8729 20.9293 37.1545 21.7158 36.5833 21.9992C35.4798 22.659 34.1026 22.9893 33.3941 24.1717ZM33.8024 23.2161C34.487 22.3915 35.8827 22.3836 36.3751 21.4882C35.222 20.5999 33.8537 22.0293 33.8024 23.2161Z" fill="black"/>
<path d="M34.1709 27.8452C33.6979 26.1385 35.8013 24.137 37.4885 24.7791C35.9421 24.8313 34.3772 26.0305 34.2258 27.6202C34.9316 26.437 36.0121 25.1661 37.5425 25.3069C40.4429 25.5894 42.3789 28.9761 41.6545 31.6808C40.7609 33.7842 37.7214 34.2315 35.9598 32.9703C34.8909 32.3371 34.5207 31.0512 34.2081 29.9282C33.5784 30.2709 32.7113 30.2497 32.1897 29.7227C32.7352 29.635 33.3517 29.5314 33.6643 29.016C33.2073 28.8326 32.6139 28.729 32.4315 28.1994C33.0275 28.2543 33.7103 28.3039 34.1709 27.8452ZM36.1201 32.4646C37.4778 33.6009 39.7008 33.5017 40.9265 32.2202C41.674 31.2655 41.6164 29.8502 41.0894 28.8043C40.9725 29.9911 40.667 31.3594 39.5192 31.9687C38.0411 32.8393 36.1759 31.7172 35.7349 30.1886C35.4223 28.737 35.796 26.933 37.3113 26.3068C34.6022 26.8577 34.0788 30.8492 36.1201 32.4646ZM36.0927 29.1488C36.578 29.2657 37.2476 29.3348 37.5248 28.8132C37.8799 28.2472 37.2715 27.4838 36.6391 27.6689C36.0936 27.9107 35.9749 28.6219 36.0927 29.1488Z" fill="black"/>
<path d="M52.6265 33.0076C51.547 33.1945 52.2005 30.674 53.219 31.1691C53.583 31.2541 53.335 31.7235 53.3262 31.9732C53.1694 31.8944 53.0144 31.812 52.863 31.7288C52.5034 32.0671 52.5823 32.5675 52.6265 33.0076Z" fill="black"/>
<path d="M35.3947 35.5529C34.5543 34.3732 36.6169 33.0687 37.4591 34.1164C36.4646 33.779 35.1901 34.3484 35.3947 35.5529Z" fill="black"/>
<path d="M46.211 33.9287C46.7636 33.508 47.7936 33.6762 48.0779 34.3626C47.7538 34.3405 47.4323 34.3015 47.109 34.2785C47.1781 34.5229 47.2525 34.7665 47.3269 35.01C46.7379 35.1482 45.8062 34.5929 46.211 33.9287Z" fill="black"/>
<path d="M40.3623 42.3865C41.5101 42.3838 42.0751 43.6583 42.7066 44.4429C43.9004 45.9193 42.7553 48.3282 40.9849 48.6355C39.0294 48.6825 37.5637 46.1442 38.8231 44.5315C39.1906 43.7424 39.4678 42.7301 40.3623 42.3865ZM40.3552 42.715C39.2765 43.4847 38.9515 44.9504 38.5353 46.1469C38.8249 47.346 40.0692 48.717 41.4357 48.2086C42.494 47.6339 43.2964 46.1805 42.7225 45.015C42.0858 44.1825 41.5376 42.708 40.3552 42.715Z" fill="black"/>
<path d="M60.7612 48.399C61.0463 48.5257 61.0295 48.8481 61.0702 49.1093C60.9976 49.112 60.8524 49.1164 60.7798 49.1182C60.7691 48.8791 60.7585 48.6391 60.7612 48.399Z" fill="black"/>
<path d="M43.0059 49.5486C45.6681 49.9028 45.9524 53.4197 45.1066 55.4398C44.7046 56.5469 43.3079 56.561 42.4542 55.9898C41.4738 55.4124 40.0461 54.5303 40.5536 53.1779C41.0292 51.83 41.6828 50.2261 43.0059 49.5486ZM42.8917 49.8612C41.8324 50.7141 41.2037 52.0487 40.8069 53.3285C40.4526 54.3239 41.5207 54.9456 42.1654 55.4832C42.9554 56.1749 44.5894 56.4061 44.9224 55.1281C45.5813 53.3046 45.3245 49.9498 42.8917 49.8612Z" fill="black"/>
<path d="M28.5992 52.8963C29.6133 52.7706 30.7956 53.0159 31.4766 53.8262C32.0496 54.9094 31.7397 56.3264 31.0462 57.2838C29.6593 58.4767 27.0405 57.8816 26.4347 56.1112C25.9768 54.6392 27.1007 53.0761 28.5992 52.8963ZM28.4788 53.2205C27.1547 53.4357 26.2452 54.9669 26.7881 56.2139C27.5338 57.6327 29.7913 58.1366 30.9408 56.9401C31.4536 56.0492 31.7769 54.8022 31.2118 53.867C30.5228 53.1833 29.398 53.0478 28.4788 53.2205Z" fill="black"/>
<path d="M22.6098 53.3506C24.1933 52.8874 25.9619 55.2432 24.8044 56.5752C23.6699 57.7938 21.4452 56.785 21.2441 55.2529C21.3903 54.4753 21.9048 53.7278 22.6098 53.3506ZM22.8356 53.5746C22.1041 53.8013 21.7401 54.5949 21.4877 55.2556C21.7215 56.623 23.9196 57.5157 24.7752 56.1934C25.264 55.0226 24.1003 53.4453 22.8356 53.5746Z" fill="black"/>
<path d="M34.9377 53.4648C35.7587 53.2142 36.5319 53.7934 37.1128 54.3089C38.2075 55.2786 37.8355 57.7132 36.1634 57.7522C35.2025 57.7301 34.1105 57.7522 33.2834 57.2137C32.388 55.8569 33.4791 53.897 34.9377 53.4648ZM34.9342 53.7792C33.72 54.1946 32.6855 55.9207 33.5738 57.0437C34.6118 57.3997 35.9279 57.754 36.9472 57.1863C38.3456 55.8348 36.6771 53.3311 34.9342 53.7792Z" fill="black"/>
<path d="M24.9097 57.848C25.8759 57.5734 26.1832 58.8133 26.2718 59.5227C26.34 60.4331 25.2064 60.7537 24.5191 60.4429C23.5742 59.8513 23.761 58.0853 24.9097 57.848ZM24.7866 58.1712C23.7672 58.5095 23.9585 60.3711 25.1116 60.2879C26.565 60.4748 26.0433 57.6655 24.7866 58.1712Z" fill="black"/>
<path d="M21.7897 57.9683C23.1403 57.9559 24.1118 59.9539 23.0145 60.8927C21.5222 61.6375 20.1282 58.3438 21.7897 57.9683ZM21.6781 58.2951C20.7225 58.7645 21.7356 61.1991 22.9038 60.673C23.723 59.822 22.8737 58.1003 21.6781 58.2951Z" fill="black"/>
<path d="M25.0231 61.1301C25.4234 61.4171 25.6802 61.9086 25.5837 62.4063C25.287 62.1309 24.9912 61.8501 24.6307 61.658C24.7627 61.4817 24.8938 61.3064 25.0231 61.1301Z" fill="black"/>
<path d="M21.3017 62.6959C21.8791 62.0821 22.7382 62.8261 22.5283 63.5496C23.0597 63.6763 23.3138 64.4158 22.8462 64.7603C22.027 65.1845 21.1635 64.2192 21.1617 63.4256C21.3185 63.7586 21.4903 64.089 21.7622 64.3458C22.1669 64.058 22.3795 63.57 22.2732 63.0802C21.9464 62.9598 21.6232 62.8314 21.3017 62.6959ZM22.2334 64.592C22.8028 64.8736 23.0889 64.042 22.5743 63.7817C22.36 63.9809 21.6666 64.3865 22.2334 64.592Z" fill="black"/>
<path d="M14.7417 63.6107C15.3138 65.4732 16.2606 67.287 16.3961 69.2442C15.4467 67.5668 14.8267 65.5591 14.7417 63.6107Z" fill="black"/>
</svg>
